<svg width="400" height="400" fill="none" xmlns="http://www.w3.org/2000/svg"><path d="M186.5 30.5v-1.7l.3.3c-.7 0-1.2-.1-1.8-.3-.6-.2-1-.4-1.5-.8l.6-1.3a4.8 4.8 0 0 0 2.9 1c.6 0 1.1-.1 1.4-.4.3-.2.5-.5.5-.8 0-.3-.1-.6-.4-.7l-1-.5-1.4-.3a3 3 0 0 1-1.8-.8c-.4-.4-.6-1-.6-1.6 0-.6.2-1 .4-1.4l1-1c.5-.2 1-.4 1.6-.4l-.2.2v-1.7h1.3V20l-.3-.2 1.5.3c.5.1.9.4 1.2.7l-.5 1.3c-.3-.3-.7-.6-1.1-.7a4 4 0 0 0-1.4-.2c-.6 0-1 0-1.4.3-.3.3-.5.6-.5 1 0 .3.1.5.3.7l1 .5 1.4.3c.8.1 1.5.4 1.9.8.4.4.6 1 .6 1.6 0 .5-.2 1-.4 1.3l-1 1-1.6.4.3-.3v1.7h-1.3Zm8.5 0v-1.7l.3.3c-.7 0-1.2-.1-1.8-.3-.6-.2-1-.4-1.5-.8l.6-1.3a4.8 4.8 0 0 0 2.9 1c.6 0 1.1-.1 1.4-.4.3-.2.5-.5.5-.8 0-.3-.1-.6-.4-.7l-1-.5-1.4-.3a3 3 0 0 1-1.8-.8c-.4-.4-.6-1-.6-1.6 0-.6.2-1 .4-1.4l1-1c.5-.2 1-.4 1.6-.4l-.2.2v-1.7h1.3V20l-.3-.2 1.5.3c.5.1.9.4 1.2.7l-.5 1.3c-.3-.3-.7-.6-1.1-.7a4 4 0 0 0-1.4-.2c-.6 0-1 0-1.4.3-.3.3-.5.6-.5 1 0 .3.1.5.3.7l1 .5 1.4.3c.8.1 1.5.4 1.9.8.4.4.6 1 .6 1.6 0 .5-.2 1-.4 1.3l-1 1-1.6.4.3-.3v1.7H195Zm8.5 0v-1.7l.3.3c-.7 0-1.2-.1-1.8-.3-.6-.2-1-.4-1.5-.8l.6-1.3a4.8 4.8 0 0 0 2.9 1c.6 0 1.1-.1 1.4-.4.3-.2.5-.5.5-.8 0-.3-.1-.6-.4-.7l-1-.5-1.4-.3a3 3 0 0 1-1.8-.8c-.4-.4-.6-1-.6-1.6 0-.6.2-1 .4-1.4l1-1c.5-.2 1-.4 1.6-.4l-.2.2v-1.7h1.3V20l-.3-.2 1.5.3c.5.1.9.4 1.2.7l-.5 1.3c-.3-.3-.7-.6-1.1-.7a4 4 0 0 0-1.4-.2c-.6 0-1 0-1.4.3-.3.3-.5.6-.5 1 0 .3.1.5.3.7l1 .5 1.4.3c.8.1 1.5.4 1.9.8.4.4.6 1 .6 1.6 0 .5-.2 1-.4 1.3l-1 1-1.6.4.3-.3v1.7h-1.3Zm13.5-1.4-1-.5c-.4-.3-.8-.5-1-.8h.3l-1.4 1c-.5.2-1 .3-1.7.3-.6 0-1.2 0-1.7-.3-.5-.2-.9-.5-1.1-.8a2 2 0 0 1-.4-1.3c0-.6.2-1.1.5-1.5.3-.5.8-.9 1.4-1.2l.5-.3-.3.3-.8-1-.3-1.1c0-.5.1-.8.3-1.2.2-.3.5-.5 1-.7.3-.2.8-.3 1.3-.3.7 0 1.2.2 1.6.6.5.3.7.8.7 1.4a2.2 2.2 0 0 1-.8 1.7 6 6 0 0 1-1.2.8V24l2.3 2.4h-.3l.5-1.3.2-1.5h1.4c0 .7-.1 1.4-.3 2l-.8 1.7v-.4a4.7 4.7 0 0 0 1.7 1.2l-.5 1.1Zm-4.7-1.2a2.6 2.6 0 0 0 2-1v.4l-2.7-2.8h.7l-.4.2a5 5 0 0 0-.7.6 2 2 0 0 0-.5.6l-.1.7c0 .4.1.7.4 1 .3.2.8.3 1.3.3Zm.3-7c-.3 0-.6 0-.8.2a1 1 0 0 0-.3.8v.4l.4.5.5.6h-.4c.6-.3 1-.5 1.2-.8.3-.2.4-.5.4-.8 0-.3-.1-.6-.3-.7a1 1 0 0 0-.7-.3ZM221 29v-1.8h2V29h-2Zm-43 17.5v-1.7l.3.3c-.7 0-1.2-.1-1.8-.3-.6-.2-1-.4-1.5-.8l.6-1.3a4.8 4.8 0 0 0 2.9 1c.6 0 1.1-.1 1.4-.4.3-.2.5-.5.5-.8 0-.3-.1-.6-.4-.7l-1-.5-1.4-.3a3 3 0 0 1-1.8-.8c-.4-.4-.6-1-.6-1.6 0-.6.2-1 .4-1.4l1-1c.5-.2 1-.4 1.6-.4l-.2.2v-1.7h1.3V36l-.3-.2 1.5.3c.5.1.9.4 1.2.7l-.5 1.3c-.3-.3-.7-.6-1.1-.7a4 4 0 0 0-1.4-.2c-.6 0-1 0-1.4.3-.3.3-.5.6-.5 1 0 .3.1.5.3.7l1 .5 1.4.3c.8.1 1.5.4 1.9.8.4.4.6 1 .6 1.6 0 .5-.2 1-.4 1.3l-1 1-1.6.4.3-.3v1.7H178Zm5-1.5 3.8-5v.7l-3.6-4.9h2l2.6 3.7h-.6l2.7-3.7h2l-3.7 4.9V40l3.8 5h-2l-2.8-3.8h.6L185 45h-2Zm30.4 1.7-.7-.5c.3-.3.5-.5.6-.8l.2-.8.4.4h-1.3v-1.8h1.8v1.2c0 .4 0 .8-.2 1.2l-.8 1.1Zm-.8-6.5v-1.8h1.8v1.8h-1.8Zm7.9 6.3v-1.7l.3.3c-.7 0-1.2-.1-1.8-.3-.6-.2-1-.4-1.5-.8l.6-1.3a4.8 4.8 0 0 0 2.9 1c.6 0 1.1-.1 1.4-.4.3-.2.5-.5.5-.8 0-.3-.1-.6-.4-.7l-1-.5-1.4-.3a3 3 0 0 1-1.8-.8c-.4-.4-.6-1-.6-1.6 0-.6.2-1 .4-1.4l1-1c.5-.2 1-.4 1.6-.4l-.2.2v-1.7h1.3V36l-.3-.2 1.5.3c.5.1.9.4 1.2.7l-.5 1.3c-.3-.3-.7-.6-1.1-.7a4 4 0 0 0-1.4-.2c-.6 0-1 0-1.4.3-.3.3-.5.6-.5 1 0 .3.1.5.3.7l1 .5 1.4.3c.8.1 1.5.4 1.9.8.4.4.6 1 .6 1.6 0 .5-.2 1-.4 1.3l-1 1-1.6.4.3-.3v1.7h-1.3Zm8.1-1.5v-1.8h1.8V45h-1.8ZM183 61l3.8-5v.7l-3.6-4.9h2l2.6 3.7h-.6l2.7-3.7h2l-3.7 4.9V56l3.8 5h-2l-2.8-3.8h.6L185 61h-2Zm12 1.5v-1.7l.3.3c-.7 0-1.2-.1-1.8-.3-.6-.2-1-.4-1.5-.8l.6-1.3a4.8 4.8 0 0 0 2.9 1c.6 0 1.1-.1 1.4-.4.3-.2.5-.5.5-.8 0-.3-.1-.6-.4-.7l-1-.5-1.4-.3a3 3 0 0 1-1.8-.8c-.4-.4-.6-1-.6-1.6 0-.6.2-1 .4-1.4l1-1c.5-.2 1-.4 1.6-.4l-.2.2v-1.7h1.3V52l-.3-.2 1.5.3c.5.1.9.4 1.2.7l-.5 1.3c-.3-.3-.7-.6-1.1-.7a4 4 0 0 0-1.4-.2c-.6 0-1 0-1.4.3-.3.3-.5.6-.5 1 0 .3.1.5.3.7l1 .5 1.4.3c.8.1 1.5.4 1.9.8.4.4.6 1 .6 1.6 0 .5-.2 1-.4 1.3l-1 1-1.6.4.3-.3v1.7H195Zm8.5 0v-1.7l.3.3c-.7 0-1.2-.1-1.8-.3-.6-.2-1-.4-1.5-.8l.6-1.3a4.8 4.8 0 0 0 2.9 1c.6 0 1.1-.1 1.4-.4.3-.2.5-.5.5-.8 0-.3-.1-.6-.4-.7l-1-.5-1.4-.3a3 3 0 0 1-1.8-.8c-.4-.4-.6-1-.6-1.6 0-.6.2-1 .4-1.4l1-1c.5-.2 1-.4 1.6-.4l-.2.2v-1.7h1.3V52l-.3-.2 1.5.3c.5.1.9.4 1.2.7l-.5 1.3c-.3-.3-.7-.6-1.1-.7a4 4 0 0 0-1.4-.2c-.6 0-1 0-1.4.3-.3.3-.5.6-.5 1 0 .3.1.5.3.7l1 .5 1.4.3c.8.1 1.5.4 1.9.8.4.4.6 1 .6 1.6 0 .5-.2 1-.4 1.3l-1 1-1.6.4.3-.3v1.7h-1.3Zm8.5 0v-1.7l.3.3c-.7 0-1.2-.1-1.8-.3-.6-.2-1-.4-1.5-.8l.6-1.3a4.8 4.8 0 0 0 2.9 1c.6 0 1.1-.1 1.4-.4.3-.2.5-.5.5-.8 0-.3-.1-.6-.4-.7l-1-.5-1.4-.3a3 3 0 0 1-1.8-.8c-.4-.4-.6-1-.6-1.6 0-.6.2-1 .4-1.4l1-1c.5-.2 1-.4 1.6-.4l-.2.2v-1.7h1.3V52l-.3-.2 1.5.3c.5.1.9.4 1.2.7l-.5 1.3c-.3-.3-.7-.6-1.1-.7a4 4 0 0 0-1.4-.2c-.6 0-1 0-1.4.3-.3.3-.5.6-.5 1 0 .3.1.5.3.7l1 .5 1.4.3c.8.1 1.5.4 1.9.8.4.4.6 1 .6 1.6 0 .5-.2 1-.4 1.3l-1 1-1.6.4.3-.3v1.7H212Zm9-1.5v-1.8h2V61h-2Zm4.8 0 3-3.8v.8l-2.8-3.6h1.9l1.9 2.5h-.6l1.9-2.5h1.9l-3 3.6v-.8l3 3.8h-1.9l-2-2.6h.6l-2 2.6h-2Zm16.2.1-1-.5c-.4-.3-.8-.5-1-.8h.3l-1.4 1c-.5.2-1 .3-1.7.3-.6 0-1.2 0-1.7-.3-.5-.2-.9-.5-1.1-.8a2 2 0 0 1-.4-1.3c0-.6.2-1.1.5-1.5.3-.5.8-.9 1.4-1.2l.5-.3-.3.3-.8-1-.3-1.1c0-.5.1-.8.3-1.2.2-.3.5-.5 1-.7.3-.2.8-.3 1.3-.3.7 0 1.2.2 1.6.6.5.3.7.8.7 1.4a2.2 2.2 0 0 1-.8 1.7 6 6 0 0 1-1.2.8V56l2.3 2.4h-.3l.5-1.3.2-1.5h1.4c0 .7-.1 1.4-.3 2l-.8 1.7v-.4a4.7 4.7 0 0 0 1.7 1.2l-.5 1.1Zm-4.7-1.2a2.6 2.6 0 0 0 2-1v.4l-2.7-2.8h.7l-.4.2a5 5 0 0 0-.7.6 2 2 0 0 0-.5.6l-.1.7c0 .4.1.7.4 1 .3.2.8.3 1.3.3Zm.3-7c-.3 0-.6 0-.8.2a1 1 0 0 0-.3.8v.4l.4.5.5.6h-.4c.6-.3 1-.5 1.2-.8.3-.2.4-.5.4-.8 0-.3-.1-.6-.3-.7a1 1 0 0 0-.7-.3Zm8 8.1v-1.8h1.8V61h-1.8Zm-.1 17.5v-1.7l.3.3c-.7 0-1.2-.1-1.8-.3-.6-.2-1-.4-1.5-.8l.6-1.3a4.8 4.8 0 0 0 2.9 1c.6 0 1.1-.1 1.4-.4.3-.2.5-.5.5-.8 0-.3-.1-.6-.4-.7l-1-.5-1.4-.3a3 3 0 0 1-1.8-.8c-.4-.4-.6-1-.6-1.6 0-.6.2-1 .4-1.4l1-1c.5-.2 1-.4 1.6-.4l-.2.2v-1.7h1.3V68l-.3-.2 1.5.3c.5.1.9.4 1.2.7l-.5 1.3c-.3-.3-.7-.6-1.1-.7a4 4 0 0 0-1.4-.2c-.6 0-1 0-1.4.3-.3.3-.5.6-.5 1 0 .3.1.5.3.7l1 .5 1.4.3c.8.1 1.5.4 1.9.8.4.4.6 1 .6 1.6 0 .5-.2 1-.4 1.3l-1 1-1.6.4.3-.3v1.7h-1.3Zm6.3-1.5 3-3.8v.8l-2.8-3.6h1.9l1.9 2.5h-.6l1.9-2.5h1.9l-3 3.6v-.8l3 3.8h-1.9l-2-2.6h.6l-2 2.6h-2Zm0 16 3-3.8v.8l-2.8-3.6h1.9l1.9 2.5h-.6l1.9-2.5h1.9l-3 3.6v-.8l3 3.8h-1.9l-2-2.6h.6l-2 2.6h-2Zm8 0 3-3.8v.8l-2.8-3.6h1.9l1.9 2.5h-.6l1.9-2.5h1.9l-3 3.6v-.8l3 3.8h-1.9l-2-2.6h.6l-2 2.6h-2Zm-194 16 3-3.8v.8l-2.8-3.6h1.9l1.9 2.5h-.6l1.9-2.5H73l-3 3.6v-.8l3 3.8h-1.9l-2-2.6h.6l-2 2.6h-2Zm11.2 1.5v-1.7l.3.3c-.7 0-1.2-.1-1.8-.3-.6-.2-1-.4-1.5-.8l.6-1.3a4.8 4.8 0 0 0 2.9 1c.6 0 1.1-.1 1.4-.4.3-.2.5-.5.5-.8 0-.3-.1-.6-.4-.7l-1-.5-1.4-.3a3 3 0 0 1-1.8-.8c-.4-.4-.6-1-.6-1.6 0-.6.2-1 .4-1.4l1-1c.5-.2 1-.4 1.6-.4l-.2.2v-1.7h1.3v1.7l-.3-.2 1.5.3c.5.1.9.4 1.2.7l-.5 1.3c-.3-.3-.7-.6-1.2-.7a4 4 0 0 0-1.3-.2c-.6 0-1 0-1.4.3-.3.3-.5.6-.5 1 0 .3.1.5.3.7l1 .5 1.4.3c.8.1 1.5.4 1.9.8.4.4.6 1 .6 1.6 0 .5-.2 1-.4 1.3l-1 1-1.6.4.3-.3v1.7H77Zm8.5 0v-1.7l.3.3c-.7 0-1.2-.1-1.8-.3-.6-.2-1-.4-1.5-.8l.6-1.3a4.8 4.8 0 0 0 2.9 1c.6 0 1.1-.1 1.4-.4.3-.2.5-.5.5-.8 0-.3-.1-.6-.4-.7l-1-.5-1.4-.3a3 3 0 0 1-1.8-.8c-.4-.4-.6-1-.6-1.6 0-.6.2-1 .4-1.4l1-1c.5-.2 1-.4 1.6-.4l-.2.2v-1.7h1.3v1.7l-.3-.2 1.5.3c.5.1.9.4 1.2.7l-.5 1.3c-.3-.3-.7-.6-1.2-.7a4 4 0 0 0-1.3-.2c-.6 0-1 0-1.4.3-.3.3-.5.6-.5 1 0 .3.1.5.3.7l1 .5 1.4.3c.8.1 1.5.4 1.9.8.4.4.6 1 .6 1.6 0 .5-.2 1-.4 1.3l-1 1-1.6.4.3-.3v1.7h-1.3Zm8.5-2v-2.7h-2.7v-1.1h2.6v-2.6h1.2v2.6h2.6v1.1h-2.6v2.7h-1.2Zm9-4.3v-1.8h2v1.8h-2Zm0 4.8v-1.8h2v1.8h-2Zm7.6 0v-1.8h1.8v1.8h-1.8Zm9 0v-1.8h1.8v1.8h-1.8Zm8 0v-1.8h1.8v1.8h-1.8Zm9-4.8v-1.8h1.8v1.8h-1.8Zm0 4.8v-1.8h1.8v1.8h-1.8Zm7.8-.5v-2.7h-2.6v-1.1h2.6v-2.6h1.2v2.6h2.6v1.1h-2.6v2.7h-1.2Zm9 2.2-.7-.5c.3-.3.5-.5.6-.8l.2-.8.4.4h-1.3v-1.8h1.8v1.2c0 .4 0 .8-.2 1.2l-.8 1.1Zm-.8-6.5v-1.8h1.8v1.8h-1.8Zm60.8 6.5-.7-.5c.3-.3.5-.5.6-.8l.2-.8.4.4h-1.3v-1.8h1.8v1.2c0 .4 0 .8-.2 1.2l-.8 1.1Zm-.8-6.5v-1.8h1.8v1.8h-1.8Zm4.4 4.8 3.8-5v.7l-3.6-4.9h2l2.6 3.7h-.6l2.7-3.7h2l-3.7 4.9v-.7l3.8 5h-2l-2.8-3.8h.6L219 109h-2Zm12 1.5v-1.7l.3.3c-.7 0-1.2-.1-1.8-.3-.6-.2-1-.4-1.5-.8l.6-1.3a4.8 4.8 0 0 0 2.9 1c.6 0 1.1-.1 1.4-.4.3-.2.5-.5.5-.8 0-.3-.1-.6-.4-.7l-1-.5-1.4-.3a3 3 0 0 1-1.8-.8c-.4-.4-.6-1-.6-1.6 0-.6.2-1 .4-1.4l1-1c.5-.2 1-.4 1.6-.4l-.2.2v-1.7h1.3v1.7l-.3-.2 1.5.3c.5.1.9.4 1.2.7l-.5 1.3c-.3-.3-.7-.6-1.1-.7a4 4 0 0 0-1.4-.2c-.6 0-1 0-1.4.3-.3.3-.5.6-.5 1 0 .3.1.5.3.7l1 .5 1.4.3c.8.1 1.5.4 1.9.8.4.4.6 1 .6 1.6 0 .5-.2 1-.4 1.3l-1 1-1.6.4.3-.3v1.7H229Zm13-1.4-1-.5c-.4-.3-.8-.5-1-.8h.3l-1.4 1c-.5.2-1 .3-1.7.3-.6 0-1.2 0-1.7-.3-.5-.2-.9-.5-1.1-.8a2 2 0 0 1-.4-1.3c0-.6.2-1.1.5-1.5.3-.5.8-.9 1.4-1.2l.5-.3-.3.3-.8-1-.3-1.1c0-.5.1-.8.3-1.2.2-.3.5-.5 1-.7.3-.2.8-.3 1.3-.3.7 0 1.2.2 1.6.6.5.3.7.8.7 1.4a2.2 2.2 0 0 1-.8 1.7 6 6 0 0 1-1.2.8v-.3l2.3 2.4h-.3l.5-1.3.2-1.5h1.4c0 .7-.1 1.4-.3 2l-.8 1.7v-.4a4.7 4.7 0 0 0 1.7 1.2l-.5 1.1Zm-4.7-1.2a2.6 2.6 0 0 0 2-1v.4l-2.7-2.8h.7l-.4.2a5 5 0 0 0-.7.6 2 2 0 0 0-.5.6l-.1.7c0 .4.1.7.4 1 .3.2.8.3 1.3.3Zm.3-7c-.3 0-.6 0-.8.2a1 1 0 0 0-.3.8v.4l.4.5.5.6h-.4c.6-.3 1-.5 1.2-.8.3-.2.4-.5.4-.8 0-.3-.1-.6-.3-.7a1 1 0 0 0-.7-.3Zm7.8 7.6v-2.7h-2.6v-1.1h2.6v-2.6h1.2v2.6h2.6v1.1h-2.6v2.7h-1.2Zm17.1 2v-1.7l.3.3c-.7 0-1.2-.1-1.8-.3-.6-.2-1-.4-1.5-.8l.6-1.3a4.8 4.8 0 0 0 2.9 1c.6 0 1.1-.1 1.4-.4.3-.2.5-.5.5-.8 0-.3-.1-.6-.4-.7l-1-.5-1.4-.3a3 3 0 0 1-1.8-.8c-.4-.4-.6-1-.6-1.6 0-.6.2-1 .4-1.4l1-1c.5-.2 1-.4 1.6-.4l-.2.2v-1.7h1.3v1.7l-.3-.2 1.5.3c.5.1.9.4 1.2.7l-.5 1.3c-.3-.3-.7-.6-1.1-.7a4 4 0 0 0-1.4-.2c-.6 0-1 0-1.4.3-.3.3-.5.6-.5 1 0 .3.1.5.3.7l1 .5 1.4.3c.8.1 1.5.4 1.9.8.4.4.6 1 .6 1.6 0 .5-.2 1-.4 1.3l-1 1-1.6.4.3-.3v1.7h-1.3Zm6.3-1.5 3-3.8v.8l-2.8-3.6h1.9l1.9 2.5h-.6l1.9-2.5h1.9l-3 3.6v-.8l3 3.8h-1.9l-2-2.6h.6l-2 2.6h-2Zm11.2 0v-1.8h2v1.8h-2Zm7.6 0v-1.8h1.8v1.8h-1.8Zm9-4.8v-1.8h1.8v1.8h-1.8Zm0 4.8v-1.8h1.8v1.8h-1.8Zm7.8-.5v-2.7h-2.6v-1.1h2.6v-2.6h1.2v2.6h2.6v1.1h-2.6v2.7h-1.2Zm8.6 2v-1.7l.3.3c-.7 0-1.2-.1-1.8-.3-.6-.2-1-.4-1.5-.8l.6-1.3a4.8 4.8 0 0 0 2.9 1c.6 0 1.1-.1 1.4-.4.3-.2.5-.5.5-.8 0-.3-.1-.6-.4-.7l-1-.5-1.4-.3a3 3 0 0 1-1.8-.8c-.4-.4-.6-1-.6-1.6 0-.6.2-1 .4-1.4l1-1c.5-.2 1-.4 1.6-.4l-.2.2v-1.7h1.3v1.7l-.3-.2 1.5.3c.5.1.9.4 1.2.7l-.5 1.3c-.3-.3-.7-.6-1.1-.7a4 4 0 0 0-1.4-.2c-.6 0-1 0-1.4.3-.3.3-.5.6-.5 1 0 .3.1.5.3.7l1 .5 1.4.3c.8.1 1.5.4 1.9.8.4.4.6 1 .6 1.6 0 .5-.2 1-.4 1.3l-1 1-1.6.4.3-.3v1.7H313Zm13.6-1.4-1.2-.5-1-.8h.4l-1.4 1c-.5.2-1 .3-1.7.3-.6 0-1.2 0-1.7-.3-.5-.2-.9-.5-1.1-.8a2 2 0 0 1-.4-1.3c0-.6.2-1.1.5-1.5.3-.5.8-.9 1.4-1.2l.5-.3-.3.3-.8-1-.3-1.1c0-.5.1-.8.3-1.2.2-.3.5-.5 1-.7.3-.2.8-.3 1.3-.3.7 0 1.2.2 1.6.6.5.3.7.8.7 1.4a2.2 2.2 0 0 1-.8 1.7 6 6 0 0 1-1.2.8v-.3l2.3 2.4h-.3l.5-1.3.2-1.5h1.4c0 .7-.1 1.4-.3 2l-.8 1.7v-.4a4.7 4.7 0 0 0 1.7 1.2l-.5 1.1Zm-4.8-1.2a2.6 2.6 0 0 0 2-1v.4l-2.7-2.8h.7l-.4.2a5 5 0 0 0-.7.6 2 2 0 0 0-.5.6l-.1.7c0 .4.1.7.4 1 .3.2.8.3 1.3.3Zm.3-7c-.3 0-.6 0-.8.2a1 1 0 0 0-.3.8v.4l.4.5.5.6h-.4c.6-.3 1-.5 1.2-.8.3-.2.4-.5.4-.8 0-.3-.1-.6-.3-.7a1 1 0 0 0-.7-.3Zm5.7 8.1 3-3.8v.8l-2.8-3.6h1.9l1.9 2.5h-.6l1.9-2.5h1.9l-3 3.6v-.8l3 3.8h-1.9l-2-2.6h.6l-2 2.6h-2ZM52.4 126.7l-.7-.5c.3-.3.5-.5.6-.8l.2-.8.4.4h-1.3v-1.8h1.8v1.2c0 .4 0 .8-.2 1.2l-.8 1.1Zm-.8-6.5v-1.8h1.8v1.8h-1.8Zm8.4 6.3v-1.7l.3.3c-.7 0-1.2-.1-1.8-.3-.6-.2-1-.4-1.5-.8l.6-1.3a4.8 4.8 0 0 0 2.9 1c.6 0 1.1-.1 1.4-.4.3-.2.5-.5.5-.8 0-.3-.1-.6-.4-.7l-1-.5-1.4-.3a3 3 0 0 1-1.8-.8c-.4-.4-.6-1-.6-1.6 0-.6.2-1 .4-1.4l1-1c.5-.2 1-.4 1.6-.4l-.2.2v-1.7h1.3v1.7l-.3-.2 1.5.3c.5.1.9.4 1.2.7l-.5 1.3c-.3-.3-.7-.6-1.2-.7a4 4 0 0 0-1.3-.2c-.6 0-1 0-1.4.3-.3.3-.5.6-.5 1 0 .3.1.5.3.7l1 .5 1.4.3c.8.1 1.5.4 1.9.8.4.4.6 1 .6 1.6 0 .5-.2 1-.4 1.3l-1 1-1.6.4.3-.3v1.7H60Zm8.6-1.5v-1.8h1.8v1.8h-1.8Zm101 0v-1.8h1.8v1.8h-1.8Zm6.2 0 3-3.8v.8l-2.8-3.6h1.9l1.9 2.5h-.6l1.9-2.5h1.9l-3 3.6v-.8l3 3.8h-1.9l-2-2.6h.6l-2 2.6h-2Zm10.7 1.5v-1.7l.3.3c-.7 0-1.2-.1-1.8-.3-.6-.2-1-.4-1.5-.8l.6-1.3a4.8 4.8 0 0 0 2.9 1c.6 0 1.1-.1 1.4-.4.3-.2.5-.5.5-.8 0-.3-.1-.6-.4-.7l-1-.5-1.4-.3a3 3 0 0 1-1.8-.8c-.4-.4-.6-1-.6-1.6 0-.6.2-1 .4-1.4l1-1c.5-.2 1-.4 1.6-.4l-.2.2v-1.7h1.3v1.7l-.3-.2 1.5.3c.5.1.9.4 1.2.7l-.5 1.3c-.3-.3-.7-.6-1.1-.7a4 4 0 0 0-1.4-.2c-.6 0-1 0-1.4.3-.3.3-.5.6-.5 1 0 .3.1.5.3.7l1 .5 1.4.3c.8.1 1.5.4 1.9.8.4.4.6 1 .6 1.6 0 .5-.2 1-.4 1.3l-1 1-1.6.4.3-.3v1.7h-1.3Zm5-1.5 3.8-5v.7l-3.6-4.9h2l2.6 3.7h-.6l2.7-3.7h2l-3.7 4.9v-.7l3.8 5h-2l-2.8-3.8h.6l-2.8 3.8h-2Zm12.9 1.7-.7-.5c.3-.3.5-.5.6-.8l.2-.8.4.4h-1.3v-1.8h1.8v1.2c0 .4 0 .8-.2 1.2l-.8 1.1Zm-.8-6.5v-1.8h1.8v1.8h-1.8Zm9 4.8v-1.8h1.8v1.8h-1.8Zm63.4.1-1-.5c-.4-.3-.8-.5-1-.8h.3l-1.4 1c-.5.2-1 .3-1.7.3-.6 0-1.2 0-1.7-.3-.5-.2-.9-.5-1.1-.8a2 2 0 0 1-.4-1.3c0-.6.2-1.1.5-1.5.3-.5.8-.9 1.4-1.2l.5-.3-.3.3-.8-1-.3-1.1c0-.5.1-.8.3-1.2.2-.3.5-.5 1-.7.3-.2.8-.3 1.3-.3.7 0 1.2.2 1.6.6.5.3.7.8.7 1.4a2.2 2.2 0 0 1-.8 1.7 6 6 0 0 1-1.2.8v-.3l2.3 2.4h-.3l.5-1.3.2-1.5h1.4c0 .7-.1 1.4-.3 2l-.8 1.7v-.4a4.7 4.7 0 0 0 1.7 1.2l-.5 1.1Zm-4.7-1.2a2.6 2.6 0 0 0 2-1v.4l-2.7-2.8h.7l-.4.2a5 5 0 0 0-.7.6 2 2 0 0 0-.5.6l-.1.7c0 .4.1.7.4 1 .3.2.8.3 1.3.3Zm.3-7c-.3 0-.6 0-.8.2a1 1 0 0 0-.3.8v.4l.4.5.5.6h-.4c.6-.3 1-.5 1.2-.8.3-.2.4-.5.4-.8 0-.3-.1-.6-.3-.7a1 1 0 0 0-.7-.3Zm59 8.1v-1.8h1.8v1.8h-1.8Zm4.4 0 3.8-5v.7l-3.6-4.9h2l2.6 3.7h-.6l2.7-3.7h2l-3.7 4.9v-.7l3.8 5h-2l-2.8-3.8h.6L337 125h-2Zm9.8 0 3-3.8v.8l-2.8-3.6h1.9l1.9 2.5h-.6l1.9-2.5h1.9l-3 3.6v-.8l3 3.8h-1.9l-2-2.6h.6l-2 2.6h-2ZM44 141v-1.8h2v1.8h-2Zm7.5 1.5v-1.7l.3.3c-.7 0-1.2-.1-1.8-.3-.6-.2-1-.4-1.5-.8l.6-1.3a4.8 4.8 0 0 0 2.9 1c.6 0 1.1-.1 1.4-.4.3-.2.5-.5.5-.8 0-.3-.1-.6-.4-.7l-1-.5-1.4-.3a3 3 0 0 1-1.8-.8c-.4-.4-.6-1-.6-1.6 0-.6.2-1 .4-1.4l1-1c.5-.2 1-.4 1.6-.4l-.2.2v-1.7h1.3v1.7l-.3-.2 1.5.3c.5.1.9.4 1.2.7l-.5 1.3c-.3-.3-.7-.6-1.2-.7a4 4 0 0 0-1.3-.2c-.6 0-1 0-1.4.3-.3.3-.5.6-.5 1 0 .3.1.5.3.7l1 .5 1.4.3c.8.1 1.5.4 1.9.8.4.4.6 1 .6 1.6 0 .5-.2 1-.4 1.3l-1 1-1.6.4.3-.3v1.7h-1.3Zm9.1-1.5v-1.8h1.8v1.8h-1.8Zm84 0v-1.8h1.8v1.8h-1.8Zm4.9 0 3.8-5v.7l-3.6-4.9h2l2.6 3.7h-.6l2.7-3.7h2l-3.7 4.9v-.7l3.8 5h-2l-2.8-3.8h.6l-2.8 3.8h-2Z" fill="#000"/><path d="M161 142.5v-1.7l.3.3c-.7 0-1.2-.1-1.8-.3-.6-.2-1-.4-1.5-.8l.6-1.3a4.8 4.8 0 0 0 2.9 1c.6 0 1.1-.1 1.4-.4.3-.2.5-.5.5-.8 0-.3-.1-.6-.4-.7l-1-.5-1.4-.3a3 3 0 0 1-1.8-.8c-.4-.4-.6-1-.6-1.6 0-.6.2-1 .4-1.4l1-1c.5-.2 1-.4 1.6-.4l-.2.2v-1.7h1.3v1.7l-.3-.2 1.5.3c.5.1.9.4 1.2.7l-.5 1.3c-.3-.3-.7-.6-1.1-.7a4 4 0 0 0-1.4-.2c-.6 0-1 0-1.4.3-.3.3-.5.6-.5 1 0 .3.1.5.3.7l1 .5 1.4.3c.8.1 1.5.4 1.9.8.4.4.6 1 .6 1.6 0 .5-.2 1-.4 1.3l-1 1-1.6.4.3-.3v1.7H161Zm9.4.2-.7-.5c.3-.3.5-.5.6-.8l.2-.8.4.4h-1.3v-1.8h1.8v1.2c0 .4 0 .8-.2 1.2l-.8 1.1Zm-.8-6.5v-1.8h1.8v1.8h-1.8Zm101.4 4.3v-2.7h-2.7v-1.1h2.6v-2.6h1.2v2.6h2.6v1.1h-2.6v2.7h-1.2Zm76 2v-1.7l.3.3c-.7 0-1.2-.1-1.8-.3-.6-.2-1-.4-1.5-.8l.6-1.3a4.8 4.8 0 0 0 2.9 1c.6 0 1.1-.1 1.4-.4.3-.2.5-.5.5-.8 0-.3-.1-.6-.4-.7l-1-.5-1.4-.3a3 3 0 0 1-1.8-.8c-.4-.4-.6-1-.6-1.6 0-.6.2-1 .4-1.4l1-1c.5-.2 1-.4 1.6-.4l-.2.2v-1.7h1.3v1.7l-.3-.2 1.5.3c.5.1.9.4 1.2.7l-.5 1.3c-.3-.3-.7-.6-1.1-.7a4 4 0 0 0-1.4-.2c-.6 0-1 0-1.4.3-.3.3-.5.6-.5 1 0 .3.1.5.3.7l1 .5 1.4.3c.8.1 1.5.4 1.9.8.4.4.6 1 .6 1.6 0 .5-.2 1-.4 1.3l-1 1-1.6.4.3-.3v1.7H347Zm9.4.2-.7-.5c.3-.3.5-.5.6-.8l.2-.8.4.4h-1.3v-1.8h1.8v1.2c0 .4 0 .8-.2 1.2l-.8 1.1Zm-.8-6.5v-1.8h1.8v1.8h-1.8ZM44.9 158.7l-.7-.5c.3-.3.5-.5.6-.8l.2-.8.4.4H44v-1.8h1.8v1.2c0 .4 0 .8-.2 1.2l-.8 1.1Zm-.8-6.5v-1.8h1.8v1.8h-1.8Zm7.4 6.3v-1.7l.3.3c-.7 0-1.2-.1-1.8-.3-.6-.2-1-.4-1.5-.8l.6-1.3a4.8 4.8 0 0 0 2.9 1c.6 0 1.1-.1 1.4-.4.3-.2.5-.5.5-.8 0-.3-.1-.6-.4-.7l-1-.5-1.4-.3a3 3 0 0 1-1.8-.8c-.4-.4-.6-1-.6-1.6 0-.6.2-1 .4-1.4l1-1c.5-.2 1-.4 1.6-.4l-.2.2v-1.7h1.3v1.7l-.3-.2 1.5.3c.5.1.9.4 1.2.7l-.5 1.3c-.3-.3-.7-.6-1.2-.7a4 4 0 0 0-1.3-.2c-.6 0-1 0-1.4.3-.3.3-.5.6-.5 1 0 .3.1.5.3.7l1 .5 1.4.3c.8.1 1.5.4 1.9.8.4.4.6 1 .6 1.6 0 .5-.2 1-.4 1.3l-1 1-1.6.4.3-.3v1.7h-1.3Zm68.1-1.5v-1.8h1.8v1.8h-1.8Zm4.4 0 3.8-5v.7l-3.6-4.9h2l2.6 3.7h-.6l2.7-3.7h2l-3.7 4.9v-.7l3.8 5h-2l-2.8-3.8h.6L126 157h-2Zm12 1.5v-1.7l.3.3c-.7 0-1.2-.1-1.8-.3-.6-.2-1-.4-1.5-.8l.6-1.3a4.8 4.8 0 0 0 2.9 1c.6 0 1.1-.1 1.4-.4.3-.2.5-.5.5-.8 0-.3-.1-.6-.4-.7l-1-.5-1.4-.3a3 3 0 0 1-1.8-.8c-.4-.4-.6-1-.6-1.6 0-.6.2-1 .4-1.4l1-1c.5-.2 1-.4 1.6-.4l-.2.2v-1.7h1.3v1.7l-.3-.2 1.5.3c.5.1.9.4 1.2.7l-.5 1.3c-.3-.3-.7-.6-1.1-.7a4 4 0 0 0-1.4-.2c-.6 0-1 0-1.4.3-.3.3-.5.6-.5 1 0 .3.1.5.3.7l1 .5 1.4.3c.8.1 1.5.4 1.9.8.4.4.6 1 .6 1.6 0 .5-.2 1-.4 1.3l-1 1-1.6.4.3-.3v1.7H136Zm8.6-6.3v-1.8h1.8v1.8h-1.8Zm0 4.8v-1.8h1.8v1.8h-1.8Zm127 0v-1.8h1.8v1.8h-1.8Zm13 .1-1.2-.5-1-.8h.4l-1.4 1c-.5.2-1 .3-1.7.3-.6 0-1.2 0-1.7-.3-.5-.2-.9-.5-1.1-.8a2 2 0 0 1-.4-1.3c0-.6.2-1.1.5-1.5.3-.5.8-.9 1.4-1.2l.5-.3-.3.3-.8-1-.3-1.1c0-.5.1-.8.3-1.2.2-.3.5-.5 1-.7.3-.2.8-.3 1.3-.3.7 0 1.2.2 1.6.6.5.3.7.8.7 1.4a2.2 2.2 0 0 1-.8 1.7 6 6 0 0 1-1.2.8v-.3l2.3 2.4h-.3l.5-1.3.2-1.5h1.4c0 .7-.1 1.4-.3 2l-.8 1.7v-.4a4.7 4.7 0 0 0 1.7 1.2l-.5 1.1Zm-4.8-1.2a2.6 2.6 0 0 0 2-1v.4l-2.7-2.8h.7l-.4.2a5 5 0 0 0-.7.6 2 2 0 0 0-.5.6l-.1.7c0 .4.1.7.4 1 .3.2.8.3 1.3.3Zm.3-7c-.3 0-.6 0-.8.2a1 1 0 0 0-.3.8v.4l.4.5.5.6h-.4c.6-.3 1-.5 1.2-.8.3-.2.4-.5.4-.8 0-.3-.1-.6-.3-.7a1 1 0 0 0-.7-.3Zm63.4 8.1 3.8-5v.7l-3.6-4.9h2l2.6 3.7h-.6l2.7-3.7h2l-3.7 4.9v-.7l3.8 5h-2l-2.8-3.8h.6l-2.8 3.8h-2Zm9.3 0 3-3.8v.8l-2.8-3.6h1.9l1.9 2.5h-.6l1.9-2.5h1.9l-3 3.6v-.8l3 3.8h-1.9l-2-2.6h.6l-2 2.6h-2ZM56.6 173.1l-1.2-.5-1-.8h.4l-1.4 1c-.5.2-1 .3-1.7.3s-1.2 0-1.7-.3c-.5-.2-.9-.5-1.1-.8a2 2 0 0 1-.4-1.3c0-.6.2-1.1.5-1.5.3-.5.8-.9 1.4-1.2l.5-.3-.3.3-.8-1-.3-1.1c0-.5.1-.8.3-1.2.2-.3.5-.5 1-.7.3-.2.8-.3 1.3-.3.7 0 1.2.2 1.6.6.5.3.7.8.7 1.4a2.2 2.2 0 0 1-.9 1.7 6 6 0 0 1-1 .8v-.3l2.2 2.4h-.3l.5-1.3.2-1.5h1.4c0 .7-.1 1.4-.3 2l-.8 1.7v-.4A4.7 4.7 0 0 0 57 172l-.5 1.1Zm-4.8-1.2a2.6 2.6 0 0 0 2-1v.4l-2.7-2.8h.7l-.4.2a5 5 0 0 0-.7.6 2 2 0 0 0-.5.6l-.1.7c0 .4.1.7.4 1 .3.2.8.3 1.3.3Zm.3-7c-.3 0-.6 0-.8.2a1 1 0 0 0-.3.8v.4l.4.5.5.6h-.4c.6-.3 1-.5 1.2-.8.3-.2.4-.5.4-.8 0-.3-.1-.6-.3-.7a1 1 0 0 0-.7-.3Zm8.5 8.1v-1.8h1.8v1.8h-1.8Zm55 .1-1.2-.5-1-.8h.4l-1.4 1c-.5.2-1 .3-1.7.3s-1.2 0-1.7-.3c-.5-.2-.9-.5-1.1-.8a2 2 0 0 1-.4-1.3c0-.6.2-1.1.5-1.5.3-.5.8-.9 1.4-1.2l.5-.3-.3.3-.8-1-.3-1.1c0-.5.1-.8.3-1.2.2-.3.5-.5 1-.7.3-.2.8-.3 1.3-.3.7 0 1.2.2 1.6.6.5.3.7.8.7 1.4a2.2 2.2 0 0 1-.9 1.7 6 6 0 0 1-1 .8v-.3l2.2 2.4h-.3l.5-1.3.2-1.5h1.4c0 .7-.1 1.4-.3 2l-.8 1.7v-.4a4.7 4.7 0 0 0 1.7 1.2l-.5 1.1Zm-4.8-1.2a2.6 2.6 0 0 0 2-1v.4l-2.7-2.8h.7l-.4.2a5 5 0 0 0-.7.6 2 2 0 0 0-.5.6l-.1.7c0 .4.1.7.4 1 .3.2.8.3 1.3.3Zm.3-7c-.3 0-.6 0-.8.2a1 1 0 0 0-.3.8v.4l.4.5.5.6h-.4c.6-.3 1-.5 1.2-.8.3-.2.4-.5.4-.8 0-.3-.1-.6-.3-.7a1 1 0 0 0-.7-.3Zm5.7 8.1 3-3.8v.8l-2.8-3.6h1.9l1.9 2.5h-.6l1.9-2.5h1.9l-3 3.6v-.8l3 3.8h-1.9l-2-2.6h.6l-2 2.6h-2Zm162.7 1.5v-1.7l.3.3c-.7 0-1.2-.1-1.8-.3-.6-.2-1-.4-1.5-.8l.6-1.3a4.8 4.8 0 0 0 2.9 1c.6 0 1.1-.1 1.4-.4.3-.2.5-.5.5-.8 0-.3-.1-.6-.4-.7l-1-.5-1.4-.3a3 3 0 0 1-1.8-.8c-.4-.4-.6-1-.6-1.6 0-.6.2-1 .4-1.4l1-1c.5-.2 1-.4 1.6-.4l-.2.2v-1.7h1.3v1.7l-.3-.2 1.5.3c.5.1.9.4 1.2.7l-.5 1.3c-.3-.3-.7-.6-1.1-.7a4 4 0 0 0-1.4-.2c-.6 0-1 0-1.4.3-.3.3-.5.6-.5 1 0 .3.1.5.3.7l1 .5 1.4.3c.8.1 1.5.4 1.9.8.4.4.6 1 .6 1.6 0 .5-.2 1-.4 1.3l-1 1-1.6.4.3-.3v1.7h-1.3ZM339 173v-1.8h2v1.8h-2Zm8 1.5v-1.7l.3.3c-.7 0-1.2-.1-1.8-.3-.6-.2-1-.4-1.5-.8l.6-1.3a4.8 4.8 0 0 0 2.9 1c.6 0 1.1-.1 1.4-.4.3-.2.5-.5.5-.8 0-.3-.1-.6-.4-.7l-1-.5-1.4-.3a3 3 0 0 1-1.8-.8c-.4-.4-.6-1-.6-1.6 0-.6.2-1 .4-1.4l1-1c.5-.2 1-.4 1.6-.4l-.2.2v-1.7h1.3v1.7l-.3-.2 1.5.3c.5.1.9.4 1.2.7l-.5 1.3c-.3-.3-.7-.6-1.1-.7a4 4 0 0 0-1.4-.2c-.6 0-1 0-1.4.3-.3.3-.5.6-.5 1 0 .3.1.5.3.7l1 .5 1.4.3c.8.1 1.5.4 1.9.8.4.4.6 1 .6 1.6 0 .5-.2 1-.4 1.3l-1 1-1.6.4.3-.3v1.7H347Zm8.6-1.5v-1.8h1.8v1.8h-1.8Zm-304 11.2v-1.8h1.8v1.8h-1.8Zm0 4.8v-1.8h1.8v1.8h-1.8Zm8.4 1.5v-1.7l.3.3c-.7 0-1.2-.1-1.8-.3-.6-.2-1-.4-1.5-.8l.6-1.3a4.8 4.8 0 0 0 2.9 1c.6 0 1.1-.1 1.4-.4.3-.2.5-.5.5-.8 0-.3-.1-.6-.4-.7l-1-.5-1.4-.3a3 3 0 0 1-1.8-.8c-.4-.4-.6-1-.6-1.6 0-.6.2-1 .4-1.4l1-1c.5-.2 1-.4 1.6-.4l-.2.2v-1.7h1.3v1.7l-.3-.2 1.5.3c.5.1.9.4 1.2.7l-.5 1.3c-.3-.3-.7-.6-1.2-.7a4 4 0 0 0-1.3-.2c-.6 0-1 0-1.4.3-.3.3-.5.6-.5 1 0 .3.1.5.3.7l1 .5 1.4.3c.8.1 1.5.4 1.9.8.4.4.6 1 .6 1.6 0 .5-.2 1-.4 1.3l-1 1-1.6.4.3-.3v1.7H60Zm25.6-1.5v-1.8h1.8v1.8h-1.8Zm8.4 1.5v-1.7l.3.3c-.7 0-1.2-.1-1.8-.3-.6-.2-1-.4-1.5-.8l.6-1.3a4.8 4.8 0 0 0 2.9 1c.6 0 1.1-.1 1.4-.4.3-.2.5-.5.5-.8 0-.3-.1-.6-.4-.7l-1-.5-1.4-.3a3 3 0 0 1-1.8-.8c-.4-.4-.6-1-.6-1.6 0-.6.2-1 .4-1.4l1-1c.5-.2 1-.4 1.6-.4l-.2.2v-1.7h1.3v1.7l-.3-.2 1.5.3c.5.1.9.4 1.2.7l-.5 1.3c-.3-.3-.7-.6-1.2-.7a4 4 0 0 0-1.3-.2c-.6 0-1 0-1.4.3-.3.3-.5.6-.5 1 0 .3.1.5.3.7l1 .5 1.4.3c.8.1 1.5.4 1.9.8.4.4.6 1 .6 1.6 0 .5-.2 1-.4 1.3l-1 1-1.6.4.3-.3v1.7H94Zm182-1.5 3.8-5v.7l-3.6-4.9h2l2.6 3.7h-.6l2.7-3.7h2l-3.7 4.9v-.7l3.8 5h-2l-2.8-3.8h.6L278 189h-2Zm62.5 1.5v-1.7l.3.3c-.7 0-1.2-.1-1.8-.3-.6-.2-1-.4-1.5-.8l.6-1.3a4.8 4.8 0 0 0 2.9 1c.6 0 1.1-.1 1.4-.4.3-.2.5-.5.5-.8 0-.3-.1-.6-.4-.7l-1-.5-1.4-.3a3 3 0 0 1-1.8-.8c-.4-.4-.6-1-.6-1.6 0-.6.2-1 .4-1.4l1-1c.5-.2 1-.4 1.6-.4l-.2.2v-1.7h1.3v1.7l-.3-.2 1.5.3c.5.1.9.4 1.2.7l-.5 1.3c-.3-.3-.7-.6-1.1-.7a4 4 0 0 0-1.4-.2c-.6 0-1 0-1.4.3-.3.3-.5.6-.5 1 0 .3.1.5.3.7l1 .5 1.4.3c.8.1 1.5.4 1.9.8.4.4.6 1 .6 1.6 0 .5-.2 1-.4 1.3l-1 1-1.6.4.3-.3v1.7h-1.3Zm8.9.2-.7-.5c.3-.3.5-.5.6-.8l.2-.8.4.4h-1.3v-1.8h1.8v1.2c0 .4 0 .8-.2 1.2l-.8 1.1Zm-.8-6.5v-1.8h1.8v1.8h-1.8ZM60.6 205v-1.8h1.8v1.8h-1.8Zm8 0v-1.8h1.8v1.8h-1.8Zm4.9 0 3.8-5v.7l-3.6-4.9h2l2.6 3.7h-.6l2.7-3.7h2l-3.7 4.9v-.7l3.8 5h-2l-2.8-3.8h.6l-2.8 3.8h-2Zm9.3 0 3-3.8v.8l-2.8-3.6h1.9l1.9 2.5h-.6l1.9-2.5H90l-3 3.6v-.8l3 3.8h-1.9l-2-2.6h.6l-2 2.6h-2Zm101 0 3-3.8v.8l-2.8-3.6h1.9l1.9 2.5h-.6l1.9-2.5h1.9l-3 3.6v-.8l3 3.8h-1.9l-2-2.6h.6l-2 2.6h-2Zm16.2.1-1-.5c-.4-.3-.8-.5-1-.8h.3l-1.4 1c-.5.2-1 .3-1.7.3-.6 0-1.2 0-1.7-.3-.5-.2-.9-.5-1.1-.8a2 2 0 0 1-.4-1.3c0-.6.2-1.1.5-1.5.3-.5.8-.9 1.4-1.2l.5-.3-.3.3-.8-1-.3-1.1c0-.5.1-.8.3-1.2.2-.3.5-.5 1-.7.3-.2.8-.3 1.3-.3.7 0 1.2.2 1.6.6.5.3.7.8.7 1.4a2.2 2.2 0 0 1-.8 1.7 6 6 0 0 1-1.2.8v-.3l2.3 2.4h-.3l.5-1.3.2-1.5h1.4c0 .7-.1 1.4-.3 2l-.8 1.7v-.4a4.7 4.7 0 0 0 1.7 1.2l-.5 1.1Zm-4.7-1.2a2.6 2.6 0 0 0 2-1v.4l-2.7-2.8h.7l-.4.2a5 5 0 0 0-.7.6 2 2 0 0 0-.5.6l-.1.7c0 .4.1.7.4 1 .3.2.8.3 1.3.3Zm.3-7c-.3 0-.6 0-.8.2a1 1 0 0 0-.3.8v.4l.4.5.5.6h-.4c.6-.3 1-.5 1.2-.8.3-.2.4-.5.4-.8 0-.3-.1-.6-.3-.7a1 1 0 0 0-.7-.3Zm13 8.2-1.2-.5-1-.8h.4l-1.4 1c-.5.2-1 .3-1.7.3-.6 0-1.2 0-1.7-.3-.5-.2-.9-.5-1.1-.8a2 2 0 0 1-.4-1.3c0-.6.2-1.1.5-1.5.3-.5.8-.9 1.4-1.2l.5-.3-.3.3-.8-1-.3-1.1c0-.5.1-.8.3-1.2.2-.3.5-.5 1-.7.3-.2.8-.3 1.3-.3.7 0 1.2.2 1.6.6.5.3.7.8.7 1.4a2.2 2.2 0 0 1-.8 1.7 6 6 0 0 1-1.2.8v-.3l2.3 2.4h-.3l.5-1.3.2-1.5h1.4c0 .7-.1 1.4-.3 2l-.8 1.7v-.4a4.7 4.7 0 0 0 1.7 1.2l-.5 1.1Zm-4.8-1.2a2.6 2.6 0 0 0 2-1v.4l-2.7-2.8h.7l-.4.2a5 5 0 0 0-.7.6 2 2 0 0 0-.5.6l-.1.7c0 .4.1.7.4 1 .3.2.8.3 1.3.3Zm.3-7c-.3 0-.6 0-.8.2a1 1 0 0 0-.3.8v.4l.4.5.5.6h-.4c.6-.3 1-.5 1.2-.8.3-.2.4-.5.4-.8 0-.3-.1-.6-.3-.7a1 1 0 0 0-.7-.3Z" fill="#000"/><path d="m208.5 205 3.8-5v.7l-3.6-4.9h2l2.6 3.7h-.6l2.7-3.7h2l-3.7 4.9v-.7l3.8 5h-2l-2.8-3.8h.6l-2.8 3.8h-2Zm68.8 0 3-3.8v.8l-2.8-3.6h1.9l1.9 2.5h-.6l1.9-2.5h1.9l-2.9 3.6v-.8l3 3.8h-1.9l-2-2.6h.6l-2 2.6h-2Z" fill="#000"/><path d="m284.5 205 3.8-5v.7l-3.6-4.9h2l2.6 3.7h-.6l2.7-3.7h2l-3.7 4.9v-.7l3.8 5h-2l-2.8-3.8h.6l-2.8 3.8h-2Zm45.5 1.5v-1.7l.3.3c-.7 0-1.2-.1-1.8-.3-.6-.2-1-.4-1.5-.8l.6-1.3a4.8 4.8 0 0 0 2.9 1c.6 0 1.1-.1 1.4-.4.3-.2.5-.5.5-.8 0-.3-.1-.6-.4-.7l-1-.5-1.4-.3a3 3 0 0 1-1.8-.8c-.4-.4-.6-1-.6-1.6 0-.6.2-1 .4-1.4l1-1c.5-.2 1-.4 1.6-.4l-.2.2v-1.7h1.3v1.7l-.3-.2 1.5.3c.5.1.9.4 1.2.7l-.5 1.3c-.3-.3-.7-.6-1.1-.7a4 4 0 0 0-1.4-.2c-.6 0-1 0-1.4.3-.3.3-.5.6-.5 1 0 .3.1.5.3.7l1 .5 1.4.3c.8.1 1.5.4 1.9.8.4.4.6 1 .6 1.6 0 .5-.2 1-.4 1.3l-1 1-1.6.4.3-.3v1.7H330Zm8.4-2v-2.7h-2.6v-1.1h2.6v-2.6h1.2v2.6h2.6v1.1h-2.6v2.7h-1.2ZM60.6 221v-1.8h1.8v1.8h-1.8Zm13 .1-1.2-.5-1-.8h.4l-1.4 1c-.5.2-1 .3-1.7.3s-1.2 0-1.7-.3c-.5-.2-.9-.5-1.1-.8a2 2 0 0 1-.4-1.3c0-.6.2-1.1.5-1.5.3-.5.8-.9 1.4-1.2l.5-.3-.3.3-.8-1-.3-1.1c0-.5.1-.8.3-1.2.2-.3.5-.5 1-.7.3-.2.8-.3 1.3-.3.7 0 1.2.2 1.6.6.5.3.7.8.7 1.4a2.2 2.2 0 0 1-.9 1.7 6 6 0 0 1-1 .8v-.3l2.2 2.4h-.3l.5-1.3.2-1.5h1.4c0 .7-.1 1.4-.3 2l-.8 1.7v-.4A4.7 4.7 0 0 0 74 220l-.5 1.1Zm-4.8-1.2a2.6 2.6 0 0 0 2-1v.4l-2.7-2.8h.7l-.4.2a5 5 0 0 0-.7.6 2 2 0 0 0-.5.6l-.1.7c0 .4.1.7.4 1 .3.2.8.3 1.3.3Zm.3-7c-.3 0-.6 0-.8.2a1 1 0 0 0-.3.8v.4l.4.5.5.6h-.4c.6-.3 1-.5 1.2-.8.3-.2.4-.5.4-.8 0-.3-.1-.6-.3-.7a1 1 0 0 0-.7-.3Zm8.5 3.3v-1.8h1.8v1.8h-1.8Zm0 4.8v-1.8h1.8v1.8h-1.8Zm108.9 1.5v-1.7l.3.3c-.7 0-1.2-.1-1.8-.3-.6-.2-1-.4-1.5-.8l.6-1.3a4.8 4.8 0 0 0 2.9 1c.6 0 1.1-.1 1.4-.4.3-.2.5-.5.5-.8 0-.3-.1-.6-.4-.7l-1-.5-1.4-.3a3 3 0 0 1-1.8-.8c-.4-.4-.6-1-.6-1.6 0-.6.2-1 .4-1.4l1-1c.5-.2 1-.4 1.6-.4l-.2.2v-1.7h1.3v1.7l-.3-.2 1.5.3c.5.1.9.4 1.2.7l-.5 1.3c-.3-.3-.7-.6-1.1-.7a4 4 0 0 0-1.4-.2c-.6 0-1 0-1.4.3-.3.3-.5.6-.5 1 0 .3.1.5.3.7l1 .5 1.4.3c.8.1 1.5.4 1.9.8.4.4.6 1 .6 1.6 0 .5-.2 1-.4 1.3l-1 1-1.6.4.3-.3v1.7h-1.3Zm13.5-1.4-1-.5c-.4-.3-.8-.5-1-.8h.3l-1.4 1c-.5.2-1 .3-1.7.3-.6 0-1.2 0-1.7-.3-.5-.2-.9-.5-1.1-.8a2 2 0 0 1-.4-1.3c0-.6.2-1.1.5-1.5.3-.5.8-.9 1.4-1.2l.5-.3-.3.3-.8-1-.3-1.1c0-.5.1-.8.3-1.2.2-.3.5-.5 1-.7.3-.2.8-.3 1.3-.3.7 0 1.2.2 1.6.6.5.3.7.8.7 1.4a2.2 2.2 0 0 1-.8 1.7 6 6 0 0 1-1.2.8v-.3l2.3 2.4h-.3l.5-1.3.2-1.5h1.4c0 .7-.1 1.4-.3 2l-.8 1.7v-.4a4.7 4.7 0 0 0 1.7 1.2l-.5 1.1Zm-4.7-1.2a2.6 2.6 0 0 0 2-1v.4l-2.7-2.8h.7l-.4.2a5 5 0 0 0-.7.6 2 2 0 0 0-.5.6l-.1.7c0 .4.1.7.4 1 .3.2.8.3 1.3.3Zm.3-7c-.3 0-.6 0-.8.2a1 1 0 0 0-.3.8v.4l.4.5.5.6h-.4c.6-.3 1-.5 1.2-.8.3-.2.4-.5.4-.8 0-.3-.1-.6-.3-.7a1 1 0 0 0-.7-.3Zm13 8.2-1.2-.5-1-.8h.4l-1.4 1c-.5.2-1 .3-1.7.3-.6 0-1.2 0-1.7-.3-.5-.2-.9-.5-1.1-.8a2 2 0 0 1-.4-1.3c0-.6.2-1.1.5-1.5.3-.5.8-.9 1.4-1.2l.5-.3-.3.3-.8-1-.3-1.1c0-.5.1-.8.3-1.2.2-.3.5-.5 1-.7.3-.2.8-.3 1.3-.3.7 0 1.2.2 1.6.6.5.3.7.8.7 1.4a2.2 2.2 0 0 1-.8 1.7 6 6 0 0 1-1.2.8v-.3l2.3 2.4h-.3l.5-1.3.2-1.5h1.4c0 .7-.1 1.4-.3 2l-.8 1.7v-.4a4.7 4.7 0 0 0 1.7 1.2l-.5 1.1Zm-4.8-1.2a2.6 2.6 0 0 0 2-1v.4l-2.7-2.8h.7l-.4.2a5 5 0 0 0-.7.6 2 2 0 0 0-.5.6l-.1.7c0 .4.1.7.4 1 .3.2.8.3 1.3.3Zm.3-7c-.3 0-.6 0-.8.2a1 1 0 0 0-.3.8v.4l.4.5.5.6h-.4c.6-.3 1-.5 1.2-.8.3-.2.4-.5.4-.8 0-.3-.1-.6-.3-.7a1 1 0 0 0-.7-.3Z" fill="#000"/><path d="M212 222.5v-1.7l.3.3c-.7 0-1.2-.1-1.8-.3-.6-.2-1-.4-1.5-.8l.6-1.3a4.8 4.8 0 0 0 2.9 1c.6 0 1.1-.1 1.4-.4.3-.2.5-.5.5-.8 0-.3-.1-.6-.4-.7l-1-.5-1.4-.3a3 3 0 0 1-1.8-.8c-.4-.4-.6-1-.6-1.6 0-.6.2-1 .4-1.4l1-1c.5-.2 1-.4 1.6-.4l-.2.2v-1.7h1.3v1.7l-.3-.2 1.5.3c.5.1.9.4 1.2.7l-.5 1.3c-.3-.3-.7-.6-1.1-.7a4 4 0 0 0-1.4-.2c-.6 0-1 0-1.4.3-.3.3-.5.6-.5 1 0 .3.1.5.3.7l1 .5 1.4.3c.8.1 1.5.4 1.9.8.4.4.6 1 .6 1.6 0 .5-.2 1-.4 1.3l-1 1-1.6.4.3-.3v1.7H212Zm65.3-1.5 3-3.8v.8l-2.8-3.6h1.9l1.9 2.5h-.6l1.9-2.5h1.9l-2.9 3.6v-.8l3 3.8h-1.9l-2-2.6h.6l-2 2.6h-2Z" fill="#000"/><path d="m284.5 221 3.8-5v.7l-3.6-4.9h2l2.6 3.7h-.6l2.7-3.7h2l-3.7 4.9v-.7l3.8 5h-2l-2.8-3.8h.6l-2.8 3.8h-2Zm29.1-4.8v-1.8h1.8v1.8h-1.8Zm0 4.8v-1.8h1.8v1.8h-1.8Zm13 .1-1.2-.5-1-.8h.4l-1.4 1c-.5.2-1 .3-1.7.3-.6 0-1.2 0-1.7-.3-.5-.2-.9-.5-1.1-.8a2 2 0 0 1-.4-1.3c0-.6.2-1.1.5-1.5.3-.5.8-.9 1.4-1.2l.5-.3-.3.3-.8-1-.3-1.1c0-.5.1-.8.3-1.2.2-.3.5-.5 1-.7.3-.2.8-.3 1.3-.3.7 0 1.2.2 1.6.6.5.3.7.8.7 1.4a2.2 2.2 0 0 1-.8 1.7 6 6 0 0 1-1.2.8v-.3l2.3 2.4h-.3l.5-1.3.2-1.5h1.4c0 .7-.1 1.4-.3 2l-.8 1.7v-.4a4.7 4.7 0 0 0 1.7 1.2l-.5 1.1Zm-4.8-1.2a2.6 2.6 0 0 0 2-1v.4l-2.7-2.8h.7l-.4.2a5 5 0 0 0-.7.6 2 2 0 0 0-.5.6l-.1.7c0 .4.1.7.4 1 .3.2.8.3 1.3.3Zm.3-7c-.3 0-.6 0-.8.2a1 1 0 0 0-.3.8v.4l.4.5.5.6h-.4c.6-.3 1-.5 1.2-.8.3-.2.4-.5.4-.8 0-.3-.1-.6-.3-.7a1 1 0 0 0-.7-.3Zm8.5 8.1v-1.8h1.8v1.8h-1.8Zm-279 16v-1.8h1.8v1.8h-1.8Zm13.4.1-1-.5c-.4-.3-.8-.5-1-.8h.3l-1.4 1c-.5.2-1 .3-1.7.3s-1.2 0-1.7-.3c-.5-.2-.9-.5-1.1-.8a2 2 0 0 1-.4-1.3c0-.6.2-1.1.5-1.5.3-.5.8-.9 1.4-1.2l.5-.3-.3.3-.8-1-.3-1.1c0-.5.1-.8.3-1.2.2-.3.5-.5 1-.7.3-.2.8-.3 1.3-.3.7 0 1.2.2 1.6.6.5.3.7.8.7 1.4a2.2 2.2 0 0 1-.9 1.7 6 6 0 0 1-1 .8v-.3l2.2 2.4H63l.5-1.3.2-1.5H65c0 .7-.1 1.4-.3 2l-.8 1.7v-.4a4.7 4.7 0 0 0 1.7 1.2l-.5 1.1Zm-4.7-1.2a2.6 2.6 0 0 0 2-1v.4l-2.7-2.8h.7l-.4.2a5 5 0 0 0-.7.6 2 2 0 0 0-.5.6l-.1.7c0 .4.1.7.4 1 .3.2.8.3 1.3.3Zm.3-7c-.3 0-.6 0-.8.2a1 1 0 0 0-.3.8v.4l.4.5.5.6H60c.6-.3 1-.5 1.2-.8.3-.2.4-.5.4-.8 0-.3-.1-.6-.3-.7a1 1 0 0 0-.7-.3Zm25.8 9.8-.7-.5c.3-.3.5-.5.6-.8l.2-.8.4.4h-1.3v-1.8h1.8v1.2c0 .4 0 .8-.2 1.2l-.8 1.1Zm-.8-6.5v-1.8h1.8v1.8h-1.8Zm13.4 4.9-1-.5c-.4-.3-.8-.5-1-.8h.3l-1.4 1c-.5.2-1 .3-1.7.3s-1.2 0-1.7-.3c-.5-.2-.9-.5-1.1-.8a2 2 0 0 1-.4-1.3c0-.6.2-1.1.5-1.5.3-.5.8-.9 1.4-1.2l.5-.3-.3.3-.8-1-.3-1.1c0-.5.1-.8.3-1.2.2-.3.5-.5 1-.7.3-.2.8-.3 1.3-.3.7 0 1.2.2 1.6.6.5.3.7.8.7 1.4a2.2 2.2 0 0 1-.9 1.7 6 6 0 0 1-1 .8v-.3l2.2 2.4H97l.5-1.3.2-1.5H99c0 .7-.1 1.4-.3 2l-.8 1.7v-.4a4.7 4.7 0 0 0 1.7 1.2l-.5 1.1Zm-4.7-1.2a2.6 2.6 0 0 0 2-1v.4l-2.7-2.8h.7l-.4.2a5 5 0 0 0-.7.6 2 2 0 0 0-.5.6l-.1.7c0 .4.1.7.4 1 .3.2.8.3 1.3.3Zm.3-7c-.3 0-.6 0-.8.2a1 1 0 0 0-.3.8v.4l.4.5.5.6H94c.6-.3 1-.5 1.2-.8.3-.2.4-.5.4-.8 0-.3-.1-.6-.3-.7a1 1 0 0 0-.7-.3Zm8.4 3.3v-1.8h2v1.8h-2Zm0 4.8v-1.8h2v1.8h-2Zm173 0 3.8-5v.7l-3.6-4.9h2l2.6 3.7h-.6l2.7-3.7h2l-3.7 4.9v-.7l3.8 5h-2l-2.8-3.8h.6L278 237h-2Zm9.8 0 3-3.8v.8l-2.8-3.6h1.9l1.9 2.5h-.6l1.9-2.5h1.9l-3 3.6v-.8l3 3.8h-1.9l-2-2.6h.6l-2 2.6h-2ZM51.5 254.5v-1.7l.3.3c-.7 0-1.2-.1-1.8-.3-.6-.2-1-.4-1.5-.8l.6-1.3a4.8 4.8 0 0 0 2.9 1c.6 0 1.1-.1 1.4-.4.3-.2.5-.5.5-.8 0-.3-.1-.6-.4-.7l-1-.5-1.4-.3a3 3 0 0 1-1.8-.8c-.4-.4-.6-1-.6-1.6 0-.6.2-1 .4-1.4l1-1c.5-.2 1-.4 1.6-.4l-.2.2v-1.7h1.3v1.7l-.3-.2 1.5.3c.5.1.9.4 1.2.7l-.5 1.3c-.3-.3-.7-.6-1.2-.7a4 4 0 0 0-1.3-.2c-.6 0-1 0-1.4.3-.3.3-.5.6-.5 1 0 .3.1.5.3.7l1 .5 1.4.3c.8.1 1.5.4 1.9.8.4.4.6 1 .6 1.6 0 .5-.2 1-.4 1.3l-1 1-1.6.4.3-.3v1.7h-1.3Zm9.1-1.5v-1.8h1.8v1.8h-1.8Zm43.3 1.7-.7-.5c.3-.3.5-.5.6-.8l.2-.8.4.4H103v-1.8h1.8v1.2c0 .4 0 .8-.2 1.2l-.8 1.1Zm-.8-6.5v-1.8h1.8v1.8h-1.8Zm12.5 4.9-1.2-.5-1-.8h.4l-1.4 1c-.5.2-1 .3-1.7.3s-1.2 0-1.7-.3c-.5-.2-.9-.5-1.1-.8a2 2 0 0 1-.4-1.3c0-.6.2-1.1.5-1.5.3-.5.8-.9 1.4-1.2l.5-.3-.3.3-.8-1-.3-1.1c0-.5.1-.8.3-1.2.2-.3.5-.5 1-.7.3-.2.8-.3 1.3-.3.7 0 1.2.2 1.6.6.5.3.7.8.7 1.4a2.2 2.2 0 0 1-.9 1.7 6 6 0 0 1-1 .8v-.3l2.2 2.4h-.3l.5-1.3.2-1.5h1.4c0 .7-.1 1.4-.3 2l-.8 1.7v-.4a4.7 4.7 0 0 0 1.7 1.2l-.5 1.1Zm-4.8-1.2a2.6 2.6 0 0 0 2-1v.4l-2.7-2.8h.7l-.4.2a5 5 0 0 0-.7.6 2 2 0 0 0-.5.6l-.1.7c0 .4.1.7.4 1 .3.2.8.3 1.3.3Zm.3-7c-.3 0-.6 0-.8.2a1 1 0 0 0-.3.8v.4l.4.5.5.6h-.4c.6-.3 1-.5 1.2-.8.3-.2.4-.5.4-.8 0-.3-.1-.6-.3-.7a1 1 0 0 0-.7-.3Zm9.3 9.8-.7-.5c.3-.3.5-.5.6-.8l.2-.8.4.4h-1.3v-1.8h1.8v1.2c0 .4 0 .8-.2 1.2l-.8 1.1Zm-.8-6.5v-1.8h1.8v1.8h-1.8Zm159.9 6.3v-1.7l.3.3c-.7 0-1.2-.1-1.8-.3-.6-.2-1-.4-1.5-.8l.6-1.3a4.8 4.8 0 0 0 2.9 1c.6 0 1.1-.1 1.4-.4.3-.2.5-.5.5-.8 0-.3-.1-.6-.4-.7l-1-.5-1.4-.3a3 3 0 0 1-1.8-.8c-.4-.4-.6-1-.6-1.6 0-.6.2-1 .4-1.4l1-1c.5-.2 1-.4 1.6-.4l-.2.2v-1.7h1.3v1.7l-.3-.2 1.5.3c.5.1.9.4 1.2.7l-.5 1.3c-.3-.3-.7-.6-1.1-.7a4 4 0 0 0-1.4-.2c-.6 0-1 0-1.4.3-.3.3-.5.6-.5 1 0 .3.1.5.3.7l1 .5 1.4.3c.8.1 1.5.4 1.9.8.4.4.6 1 .6 1.6 0 .5-.2 1-.4 1.3l-1 1-1.6.4.3-.3v1.7h-1.3Zm8.1-6.3v-1.8h1.8v1.8h-1.8Zm0 4.8v-1.8h1.8v1.8h-1.8ZM44.9 270.7l-.7-.5c.3-.3.5-.5.6-.8l.2-.8.4.4H44v-1.8h1.8v1.2c0 .4 0 .8-.2 1.2l-.8 1.1Zm-.8-6.5v-1.8h1.8v1.8h-1.8Zm7.4 6.3v-1.7l.3.3c-.7 0-1.2-.1-1.8-.3-.6-.2-1-.4-1.5-.8l.6-1.3a4.8 4.8 0 0 0 2.9 1c.6 0 1.1-.1 1.4-.4.3-.2.5-.5.5-.8 0-.3-.1-.6-.4-.7l-1-.5-1.4-.3a3 3 0 0 1-1.8-.8c-.4-.4-.6-1-.6-1.6 0-.6.2-1 .4-1.4l1-1c.5-.2 1-.4 1.6-.4l-.2.2v-1.7h1.3v1.7l-.3-.2 1.5.3c.5.1.9.4 1.2.7l-.5 1.3c-.3-.3-.7-.6-1.2-.7a4 4 0 0 0-1.3-.2c-.6 0-1 0-1.4.3-.3.3-.5.6-.5 1 0 .3.1.5.3.7l1 .5 1.4.3c.8.1 1.5.4 1.9.8.4.4.6 1 .6 1.6 0 .5-.2 1-.4 1.3l-1 1-1.6.4.3-.3v1.7h-1.3Zm68.1-6.3v-1.8h1.8v1.8h-1.8Zm0 4.8v-1.8h1.8v1.8h-1.8Zm7.9 1.5v-1.7l.3.3c-.7 0-1.2-.1-1.8-.3-.6-.2-1-.4-1.5-.8l.6-1.3a4.8 4.8 0 0 0 2.9 1c.6 0 1.1-.1 1.4-.4.3-.2.5-.5.5-.8 0-.3-.1-.6-.4-.7l-1-.5-1.4-.3a3 3 0 0 1-1.8-.8c-.4-.4-.6-1-.6-1.6 0-.6.2-1 .4-1.4l1-1c.5-.2 1-.4 1.6-.4l-.2.2v-1.7h1.3v1.7l-.3-.2 1.5.3c.5.1.9.4 1.2.7l-.5 1.3c-.3-.3-.7-.6-1.1-.7a4 4 0 0 0-1.4-.2c-.6 0-1 0-1.4.3-.3.3-.5.6-.5 1 0 .3.1.5.3.7l1 .5 1.4.3c.8.1 1.5.4 1.9.8.4.4.6 1 .6 1.6 0 .5-.2 1-.4 1.3l-1 1-1.6.4.3-.3v1.7h-1.3Zm5-1.5 3.8-5v.7l-3.6-4.9h2l2.6 3.7h-.6l2.7-3.7h2l-3.7 4.9v-.7l3.8 5h-2l-2.8-3.8h.6l-2.8 3.8h-2Zm139.1 0v-1.8h1.8v1.8h-1.8Zm13 .1-1.2-.5-1-.8h.4l-1.4 1c-.5.2-1 .3-1.7.3-.6 0-1.2 0-1.7-.3-.5-.2-.9-.5-1.1-.8a2 2 0 0 1-.4-1.3c0-.6.2-1.1.5-1.5.3-.5.8-.9 1.4-1.2l.5-.3-.3.3-.8-1-.3-1.1c0-.5.1-.8.3-1.2.2-.3.5-.5 1-.7.3-.2.8-.3 1.3-.3.7 0 1.2.2 1.6.6.5.3.7.8.7 1.4a2.2 2.2 0 0 1-.8 1.7 6 6 0 0 1-1.2.8v-.3l2.3 2.4h-.3l.5-1.3.2-1.5h1.4c0 .7-.1 1.4-.3 2l-.8 1.7v-.4a4.7 4.7 0 0 0 1.7 1.2l-.5 1.1Zm-4.8-1.2a2.6 2.6 0 0 0 2-1v.4l-2.7-2.8h.7l-.4.2a5 5 0 0 0-.7.6 2 2 0 0 0-.5.6l-.1.7c0 .4.1.7.4 1 .3.2.8.3 1.3.3Zm.3-7c-.3 0-.6 0-.8.2a1 1 0 0 0-.3.8v.4l.4.5.5.6h-.4c.6-.3 1-.5 1.2-.8.3-.2.4-.5.4-.8 0-.3-.1-.6-.3-.7a1 1 0 0 0-.7-.3ZM34.6 285v-1.8h1.8v1.8h-1.8Zm8.4 1.5v-1.7l.3.3c-.7 0-1.2-.1-1.8-.3-.6-.2-1-.4-1.5-.8l.6-1.3a4.8 4.8 0 0 0 2.9 1c.6 0 1.1-.1 1.4-.4.3-.2.5-.5.5-.8 0-.3-.1-.6-.4-.7l-1-.5-1.4-.3a3 3 0 0 1-1.8-.8c-.4-.4-.6-1-.6-1.6 0-.6.2-1 .4-1.4l1-1c.5-.2 1-.4 1.6-.4l-.2.2v-1.7h1.3v1.7l-.3-.2 1.5.3c.5.1.9.4 1.2.7l-.5 1.3c-.3-.3-.7-.6-1.2-.7a4 4 0 0 0-1.3-.2c-.6 0-1 0-1.4.3-.3.3-.5.6-.5 1 0 .3.1.5.3.7l1 .5 1.4.3c.8.1 1.5.4 1.9.8.4.4.6 1 .6 1.6 0 .5-.2 1-.4 1.3l-1 1-1.6.4.3-.3v1.7H43Zm8.5 0v-1.7l.3.3c-.7 0-1.2-.1-1.8-.3-.6-.2-1-.4-1.5-.8l.6-1.3a4.8 4.8 0 0 0 2.9 1c.6 0 1.1-.1 1.4-.4.3-.2.5-.5.5-.8 0-.3-.1-.6-.4-.7l-1-.5-1.4-.3a3 3 0 0 1-1.8-.8c-.4-.4-.6-1-.6-1.6 0-.6.2-1 .4-1.4l1-1c.5-.2 1-.4 1.6-.4l-.2.2v-1.7h1.3v1.7l-.3-.2 1.5.3c.5.1.9.4 1.2.7l-.5 1.3c-.3-.3-.7-.6-1.2-.7a4 4 0 0 0-1.3-.2c-.6 0-1 0-1.4.3-.3.3-.5.6-.5 1 0 .3.1.5.3.7l1 .5 1.4.3c.8.1 1.5.4 1.9.8.4.4.6 1 .6 1.6 0 .5-.2 1-.4 1.3l-1 1-1.6.4.3-.3v1.7h-1.3Zm8.5 0v-1.7l.3.3c-.7 0-1.2-.1-1.8-.3-.6-.2-1-.4-1.5-.8l.6-1.3a4.8 4.8 0 0 0 2.9 1c.6 0 1.1-.1 1.4-.4.3-.2.5-.5.5-.8 0-.3-.1-.6-.4-.7l-1-.5-1.4-.3a3 3 0 0 1-1.8-.8c-.4-.4-.6-1-.6-1.6 0-.6.2-1 .4-1.4l1-1c.5-.2 1-.4 1.6-.4l-.2.2v-1.7h1.3v1.7l-.3-.2 1.5.3c.5.1.9.4 1.2.7l-.5 1.3c-.3-.3-.7-.6-1.2-.7a4 4 0 0 0-1.3-.2c-.6 0-1 0-1.4.3-.3.3-.5.6-.5 1 0 .3.1.5.3.7l1 .5 1.4.3c.8.1 1.5.4 1.9.8.4.4.6 1 .6 1.6 0 .5-.2 1-.4 1.3l-1 1-1.6.4.3-.3v1.7H60Zm8.5 0v-1.7l.3.3c-.7 0-1.2-.1-1.8-.3-.6-.2-1-.4-1.5-.8l.6-1.3a4.8 4.8 0 0 0 2.9 1c.6 0 1.1-.1 1.4-.4.3-.2.5-.5.5-.8 0-.3-.1-.6-.4-.7l-1-.5-1.4-.3a3 3 0 0 1-1.8-.8c-.4-.4-.6-1-.6-1.6 0-.6.2-1 .4-1.4l1-1c.5-.2 1-.4 1.6-.4l-.2.2v-1.7h1.3v1.7l-.3-.2 1.5.3c.5.1.9.4 1.2.7l-.5 1.3c-.3-.3-.7-.6-1.2-.7a4 4 0 0 0-1.3-.2c-.6 0-1 0-1.4.3-.3.3-.5.6-.5 1 0 .3.1.5.3.7l1 .5 1.4.3c.8.1 1.5.4 1.9.8.4.4.6 1 .6 1.6 0 .5-.2 1-.4 1.3l-1 1-1.6.4.3-.3v1.7h-1.3Zm9.1-1.5v-1.8h1.8v1.8h-1.8Zm75.4 1.5v-1.7l.3.3c-.7 0-1.2-.1-1.8-.3-.6-.2-1-.4-1.5-.8l.6-1.3a4.8 4.8 0 0 0 2.9 1c.6 0 1.1-.1 1.4-.4.3-.2.5-.5.5-.8 0-.3-.1-.6-.4-.7l-1-.5-1.4-.3a3 3 0 0 1-1.8-.8c-.4-.4-.6-1-.6-1.6 0-.6.2-1 .4-1.4l1-1c.5-.2 1-.4 1.6-.4l-.2.2v-1.7h1.3v1.7l-.3-.2 1.5.3c.5.1.9.4 1.2.7l-.5 1.3c-.3-.3-.7-.6-1.1-.7a4 4 0 0 0-1.4-.2c-.6 0-1 0-1.4.3-.3.3-.5.6-.5 1 0 .3.1.5.3.7l1 .5 1.4.3c.8.1 1.5.4 1.9.8.4.4.6 1 .6 1.6 0 .5-.2 1-.4 1.3l-1 1-1.6.4.3-.3v1.7H153Zm6.3-1.5 3-3.8v.8l-2.8-3.6h1.9l1.9 2.5h-.6l1.9-2.5h1.9l-2.9 3.6v-.8l3 3.8h-1.9l-2-2.6h.6l-2 2.6h-2Zm10.3 0v-1.8h1.8v1.8h-1.8Zm102.8 1.7-.7-.5c.3-.3.5-.5.6-.8l.2-.8.4.4h-1.3v-1.8h1.8v1.2c0 .4 0 .8-.2 1.2l-.8 1.1Zm-.8-6.5v-1.8h1.8v1.8h-1.8Zm5.7 4.8 3-3.8v.8l-2.8-3.6h1.9l1.9 2.5h-.6l1.9-2.5h1.9l-2.9 3.6v-.8l3 3.8h-1.9l-2-2.6h.6l-2 2.6h-2Zm52.7 1.5v-1.7l.3.3c-.7 0-1.2-.1-1.8-.3-.6-.2-1-.4-1.5-.8l.6-1.3a4.8 4.8 0 0 0 2.9 1c.6 0 1.1-.1 1.4-.4.3-.2.5-.5.5-.8 0-.3-.1-.6-.4-.7l-1-.5-1.4-.3a3 3 0 0 1-1.8-.8c-.4-.4-.6-1-.6-1.6 0-.6.2-1 .4-1.4l1-1c.5-.2 1-.4 1.6-.4l-.2.2v-1.7h1.3v1.7l-.3-.2 1.5.3c.5.1.9.4 1.2.7l-.5 1.3c-.3-.3-.7-.6-1.1-.7a4 4 0 0 0-1.4-.2c-.6 0-1 0-1.4.3-.3.3-.5.6-.5 1 0 .3.1.5.3.7l1 .5 1.4.3c.8.1 1.5.4 1.9.8.4.4.6 1 .6 1.6 0 .5-.2 1-.4 1.3l-1 1-1.6.4.3-.3v1.7H330Zm8.5 0v-1.7l.3.3c-.7 0-1.2-.1-1.8-.3-.6-.2-1-.4-1.5-.8l.6-1.3a4.8 4.8 0 0 0 2.9 1c.6 0 1.1-.1 1.4-.4.3-.2.5-.5.5-.8 0-.3-.1-.6-.4-.7l-1-.5-1.4-.3a3 3 0 0 1-1.8-.8c-.4-.4-.6-1-.6-1.6 0-.6.2-1 .4-1.4l1-1c.5-.2 1-.4 1.6-.4l-.2.2v-1.7h1.3v1.7l-.3-.2 1.5.3c.5.1.9.4 1.2.7l-.5 1.3c-.3-.3-.7-.6-1.1-.7a4 4 0 0 0-1.4-.2c-.6 0-1 0-1.4.3-.3.3-.5.6-.5 1 0 .3.1.5.3.7l1 .5 1.4.3c.8.1 1.5.4 1.9.8.4.4.6 1 .6 1.6 0 .5-.2 1-.4 1.3l-1 1-1.6.4.3-.3v1.7h-1.3Zm8.5 0v-1.7l.3.3c-.7 0-1.2-.1-1.8-.3-.6-.2-1-.4-1.5-.8l.6-1.3a4.8 4.8 0 0 0 2.9 1c.6 0 1.1-.1 1.4-.4.3-.2.5-.5.5-.8 0-.3-.1-.6-.4-.7l-1-.5-1.4-.3a3 3 0 0 1-1.8-.8c-.4-.4-.6-1-.6-1.6 0-.6.2-1 .4-1.4l1-1c.5-.2 1-.4 1.6-.4l-.2.2v-1.7h1.3v1.7l-.3-.2 1.5.3c.5.1.9.4 1.2.7l-.5 1.3c-.3-.3-.7-.6-1.1-.7a4 4 0 0 0-1.4-.2c-.6 0-1 0-1.4.3-.3.3-.5.6-.5 1 0 .3.1.5.3.7l1 .5 1.4.3c.8.1 1.5.4 1.9.8.4.4.6 1 .6 1.6 0 .5-.2 1-.4 1.3l-1 1-1.6.4.3-.3v1.7H347Zm8.5 0v-1.7l.3.3c-.7 0-1.2-.1-1.8-.3-.6-.2-1-.4-1.5-.8l.6-1.3a4.8 4.8 0 0 0 2.9 1c.6 0 1.1-.1 1.4-.4.3-.2.5-.5.5-.8 0-.3-.1-.6-.4-.7l-1-.5-1.4-.3a3 3 0 0 1-1.8-.8c-.4-.4-.6-1-.6-1.6 0-.6.2-1 .4-1.4l1-1c.5-.2 1-.4 1.6-.4l-.2.2v-1.7h1.3v1.7l-.3-.2 1.5.3c.5.1.9.4 1.2.7l-.5 1.3c-.3-.3-.7-.6-1.1-.7a4 4 0 0 0-1.4-.2c-.6 0-1 0-1.4.3-.3.3-.5.6-.5 1 0 .3.1.5.3.7l1 .5 1.4.3c.8.1 1.5.4 1.9.8.4.4.6 1 .6 1.6 0 .5-.2 1-.4 1.3l-1 1-1.6.4.3-.3v1.7h-1.3Zm8.1-6.3v-1.8h1.8v1.8h-1.8Zm0 4.8v-1.8h1.8v1.8h-1.8Zm-324 16.1-1.2-.5-1-.8h.4l-1.4 1c-.5.2-1 .3-1.7.3s-1.2 0-1.7-.3c-.5-.2-.9-.5-1.1-.8a2 2 0 0 1-.4-1.3c0-.6.2-1.1.5-1.5.3-.5.8-.9 1.4-1.2l.5-.3-.3.3-.8-1-.3-1.1c0-.5.1-.8.3-1.2.2-.3.5-.5 1-.7.3-.2.8-.3 1.3-.3.7 0 1.2.2 1.6.6.5.3.7.8.7 1.4a2.2 2.2 0 0 1-.9 1.7 6 6 0 0 1-1 .8v-.3l2.2 2.4h-.3l.5-1.3.2-1.5h1.4c0 .7-.1 1.4-.3 2l-.8 1.7v-.4A4.7 4.7 0 0 0 40 300l-.5 1.1Zm-4.8-1.2a2.6 2.6 0 0 0 2-1v.4l-2.7-2.8h.7l-.4.2a5 5 0 0 0-.7.6 2 2 0 0 0-.5.6l-.1.7c0 .4.1.7.4 1 .3.2.8.3 1.3.3Zm.3-7c-.3 0-.6 0-.8.2a1 1 0 0 0-.3.8v.4l.4.5.5.6h-.4c.6-.3 1-.5 1.2-.8.3-.2.4-.5.4-.8 0-.3-.1-.6-.3-.7a1 1 0 0 0-.7-.3Zm9.8 9.8-.7-.5c.3-.3.5-.5.6-.8l.2-.8.4.4H44v-1.8h1.8v1.2c0 .4 0 .8-.2 1.2l-.8 1.1Zm-.8-6.5v-1.8h1.8v1.8h-1.8Zm25.3 6.5-.7-.5c.3-.3.5-.5.6-.8l.2-.8.4.4h-1.3v-1.8h1.8v1.2c0 .4 0 .8-.2 1.2l-.8 1.1Zm-.8-6.5v-1.8h1.8v1.8h-1.8Zm8.4 6.3v-1.7l.3.3c-.7 0-1.2-.1-1.8-.3-.6-.2-1-.4-1.5-.8l.6-1.3a4.8 4.8 0 0 0 2.9 1c.6 0 1.1-.1 1.4-.4.3-.2.5-.5.5-.8 0-.3-.1-.6-.4-.7l-1-.5-1.4-.3a3 3 0 0 1-1.8-.8c-.4-.4-.6-1-.6-1.6 0-.6.2-1 .4-1.4l1-1c.5-.2 1-.4 1.6-.4l-.2.2v-1.7h1.3v1.7l-.3-.2 1.5.3c.5.1.9.4 1.2.7l-.5 1.3c-.3-.3-.7-.6-1.2-.7a4 4 0 0 0-1.3-.2c-.6 0-1 0-1.4.3-.3.3-.5.6-.5 1 0 .3.1.5.3.7l1 .5 1.4.3c.8.1 1.5.4 1.9.8.4.4.6 1 .6 1.6 0 .5-.2 1-.4 1.3l-1 1-1.6.4.3-.3v1.7H77Zm92.6-6.3v-1.8h1.8v1.8h-1.8Zm0 4.8v-1.8h1.8v1.8h-1.8Zm8.4 1.5v-1.7l.3.3c-.7 0-1.2-.1-1.8-.3-.6-.2-1-.4-1.5-.8l.6-1.3a4.8 4.8 0 0 0 2.9 1c.6 0 1.1-.1 1.4-.4.3-.2.5-.5.5-.8 0-.3-.1-.6-.4-.7l-1-.5-1.4-.3a3 3 0 0 1-1.8-.8c-.4-.4-.6-1-.6-1.6 0-.6.2-1 .4-1.4l1-1c.5-.2 1-.4 1.6-.4l-.2.2v-1.7h1.3v1.7l-.3-.2 1.5.3c.5.1.9.4 1.2.7l-.5 1.3c-.3-.3-.7-.6-1.1-.7a4 4 0 0 0-1.4-.2c-.6 0-1 0-1.4.3-.3.3-.5.6-.5 1 0 .3.1.5.3.7l1 .5 1.4.3c.8.1 1.5.4 1.9.8.4.4.6 1 .6 1.6 0 .5-.2 1-.4 1.3l-1 1-1.6.4.3-.3v1.7H178Zm13.6-1.4-1.2-.5-1-.8h.4l-1.4 1c-.5.2-1 .3-1.7.3-.6 0-1.2 0-1.7-.3-.5-.2-.9-.5-1.1-.8a2 2 0 0 1-.4-1.3c0-.6.2-1.1.5-1.5.3-.5.8-.9 1.4-1.2l.5-.3-.3.3-.8-1-.3-1.1c0-.5.1-.8.3-1.2.2-.3.5-.5 1-.7.3-.2.8-.3 1.3-.3.7 0 1.2.2 1.6.6.5.3.7.8.7 1.4a2.2 2.2 0 0 1-.8 1.7 6 6 0 0 1-1.2.8v-.3l2.3 2.4h-.3l.5-1.3.2-1.5h1.4c0 .7-.1 1.4-.3 2l-.8 1.7v-.4a4.7 4.7 0 0 0 1.7 1.2l-.5 1.1Zm-4.8-1.2a2.6 2.6 0 0 0 2-1v.4l-2.7-2.8h.7l-.4.2a5 5 0 0 0-.7.6 2 2 0 0 0-.5.6l-.1.7c0 .4.1.7.4 1 .3.2.8.3 1.3.3Zm.3-7c-.3 0-.6 0-.8.2a1 1 0 0 0-.3.8v.4l.4.5.5.6h-.4c.6-.3 1-.5 1.2-.8.3-.2.4-.5.4-.8 0-.3-.1-.6-.3-.7a1 1 0 0 0-.7-.3Zm7.9 7.6v-2.7h-2.7v-1.1h2.6v-2.6h1.2v2.6h2.6v1.1h-2.6v2.7h-1.2Zm8.6.5v-1.8h1.8v1.8h-1.8Zm72.4.1-1-.5c-.4-.3-.8-.5-1-.8h.3l-1.4 1c-.5.2-1 .3-1.7.3-.6 0-1.2 0-1.7-.3-.5-.2-.9-.5-1.1-.8a2 2 0 0 1-.4-1.3c0-.6.2-1.1.5-1.5.3-.5.8-.9 1.4-1.2l.5-.3-.3.3-.8-1-.3-1.1c0-.5.1-.8.3-1.2.2-.3.5-.5 1-.7.3-.2.8-.3 1.3-.3.7 0 1.2.2 1.6.6.5.3.7.8.7 1.4a2.2 2.2 0 0 1-.8 1.7 6 6 0 0 1-1.2.8v-.3l2.3 2.4h-.3l.5-1.3.2-1.5h1.4c0 .7-.1 1.4-.3 2l-.8 1.7v-.4a4.7 4.7 0 0 0 1.7 1.2l-.5 1.1Zm-4.7-1.2a2.6 2.6 0 0 0 2-1v.4l-2.7-2.8h.7l-.4.2a5 5 0 0 0-.7.6 2 2 0 0 0-.5.6l-.1.7c0 .4.1.7.4 1 .3.2.8.3 1.3.3Zm.3-7c-.3 0-.6 0-.8.2a1 1 0 0 0-.3.8v.4l.4.5.5.6h-.4c.6-.3 1-.5 1.2-.8.3-.2.4-.5.4-.8 0-.3-.1-.6-.3-.7a1 1 0 0 0-.7-.3Zm8.4 8.1v-1.8h2v1.8h-2Zm38.8 0 3-3.8v.8l-2.8-3.6h1.9l1.9 2.5h-.6l1.9-2.5h1.9l-3 3.6v-.8l3 3.8h-1.9l-2-2.6h.6l-2 2.6h-2Zm11.2-.5v-2.7h-2.7v-1.1h2.6v-2.6h1.2v2.6h2.6v1.1h-2.6v2.7h-1.2Zm25.6.5v-1.8h1.8v1.8h-1.8Zm13.4.1-1-.5c-.4-.3-.8-.5-1-.8h.3l-1.4 1c-.5.2-1 .3-1.7.3-.6 0-1.2 0-1.7-.3-.5-.2-.9-.5-1.1-.8a2 2 0 0 1-.4-1.3c0-.6.2-1.1.5-1.5.3-.5.8-.9 1.4-1.2l.5-.3-.3.3-.8-1-.3-1.1c0-.5.1-.8.3-1.2.2-.3.5-.5 1-.7.3-.2.8-.3 1.3-.3.7 0 1.2.2 1.6.6.5.3.7.8.7 1.4a2.2 2.2 0 0 1-.8 1.7 6 6 0 0 1-1.2.8v-.3l2.3 2.4h-.3l.5-1.3.2-1.5h1.4c0 .7-.1 1.4-.3 2l-.8 1.7v-.4a4.7 4.7 0 0 0 1.7 1.2l-.5 1.1Zm-4.7-1.2a2.6 2.6 0 0 0 2-1v.4l-2.7-2.8h.7l-.4.2a5 5 0 0 0-.7.6 2 2 0 0 0-.5.6l-.1.7c0 .4.1.7.4 1 .3.2.8.3 1.3.3Zm.3-7c-.3 0-.6 0-.8.2a1 1 0 0 0-.3.8v.4l.4.5.5.6h-.4c.6-.3 1-.5 1.2-.8.3-.2.4-.5.4-.8 0-.3-.1-.6-.3-.7a1 1 0 0 0-.7-.3ZM34.6 317v-1.8h1.8v1.8h-1.8Zm8.4 1.5v-1.7l.3.3c-.7 0-1.2-.1-1.8-.3-.6-.2-1-.4-1.5-.8l.6-1.3a4.8 4.8 0 0 0 2.9 1c.6 0 1.1-.1 1.4-.4.3-.2.5-.5.5-.8 0-.3-.1-.6-.4-.7l-1-.5-1.4-.3a3 3 0 0 1-1.8-.8c-.4-.4-.6-1-.6-1.6 0-.6.2-1 .4-1.4l1-1c.5-.2 1-.4 1.6-.4l-.2.2v-1.7h1.3v1.7l-.3-.2 1.5.3c.5.1.9.4 1.2.7l-.5 1.3c-.3-.3-.7-.6-1.2-.7a4 4 0 0 0-1.3-.2c-.6 0-1 0-1.4.3-.3.3-.5.6-.5 1 0 .3.1.5.3.7l1 .5 1.4.3c.8.1 1.5.4 1.9.8.4.4.6 1 .6 1.6 0 .5-.2 1-.4 1.3l-1 1-1.6.4.3-.3v1.7H43Zm13.6-1.4-1.2-.5-1-.8h.4l-1.4 1c-.5.2-1 .3-1.7.3s-1.2 0-1.7-.3c-.5-.2-.9-.5-1.1-.8a2 2 0 0 1-.4-1.3c0-.6.2-1.1.5-1.5.3-.5.8-.9 1.4-1.2l.5-.3-.3.3-.8-1-.3-1.1c0-.5.1-.8.3-1.2.2-.3.5-.5 1-.7.3-.2.8-.3 1.3-.3.7 0 1.2.2 1.6.6.5.3.7.8.7 1.4a2.2 2.2 0 0 1-.9 1.7 6 6 0 0 1-1 .8v-.3l2.2 2.4h-.3l.5-1.3.2-1.5h1.4c0 .7-.1 1.4-.3 2l-.8 1.7v-.4A4.7 4.7 0 0 0 57 316l-.5 1.1Zm-4.8-1.2a2.6 2.6 0 0 0 2-1v.4l-2.7-2.8h.7l-.4.2a5 5 0 0 0-.7.6 2 2 0 0 0-.5.6l-.1.7c0 .4.1.7.4 1 .3.2.8.3 1.3.3Zm.3-7c-.3 0-.6 0-.8.2a1 1 0 0 0-.3.8v.4l.4.5.5.6h-.4c.6-.3 1-.5 1.2-.8.3-.2.4-.5.4-.8 0-.3-.1-.6-.3-.7a1 1 0 0 0-.7-.3Zm12.9 8.2-1-.5c-.4-.3-.8-.5-1-.8h.3l-1.4 1c-.5.2-1 .3-1.7.3s-1.2 0-1.7-.3c-.5-.2-.9-.5-1.1-.8a2 2 0 0 1-.4-1.3c0-.6.2-1.1.5-1.5.3-.5.8-.9 1.4-1.2l.5-.3-.3.3-.8-1-.3-1.1c0-.5.1-.8.3-1.2.2-.3.5-.5 1-.7.3-.2.8-.3 1.3-.3.7 0 1.2.2 1.6.6.5.3.7.8.7 1.4a2.2 2.2 0 0 1-.9 1.7 6 6 0 0 1-1 .8v-.3l2.2 2.4H63l.5-1.3.2-1.5H65c0 .7-.1 1.4-.3 2l-.8 1.7v-.4a4.7 4.7 0 0 0 1.7 1.2l-.5 1.1Zm-4.7-1.2a2.6 2.6 0 0 0 2-1v.4l-2.7-2.8h.7l-.4.2a5 5 0 0 0-.7.6 2 2 0 0 0-.5.6l-.1.7c0 .4.1.7.4 1 .3.2.8.3 1.3.3Zm.3-7c-.3 0-.6 0-.8.2a1 1 0 0 0-.3.8v.4l.4.5.5.6H60c.6-.3 1-.5 1.2-.8.3-.2.4-.5.4-.8 0-.3-.1-.6-.3-.7a1 1 0 0 0-.7-.3Z" fill="#000"/><path d="M68.5 318.5v-1.7l.3.3c-.7 0-1.2-.1-1.8-.3-.6-.2-1-.4-1.5-.8l.6-1.3a4.8 4.8 0 0 0 2.9 1c.6 0 1.1-.1 1.4-.4.3-.2.5-.5.5-.8 0-.3-.1-.6-.4-.7l-1-.5-1.4-.3a3 3 0 0 1-1.8-.8c-.4-.4-.6-1-.6-1.6 0-.6.2-1 .4-1.4l1-1c.5-.2 1-.4 1.6-.4l-.2.2v-1.7h1.3v1.7l-.3-.2 1.5.3c.5.1.9.4 1.2.7l-.5 1.3c-.3-.3-.7-.6-1.2-.7a4 4 0 0 0-1.3-.2c-.6 0-1 0-1.4.3-.3.3-.5.6-.5 1 0 .3.1.5.3.7l1 .5 1.4.3c.8.1 1.5.4 1.9.8.4.4.6 1 .6 1.6 0 .5-.2 1-.4 1.3l-1 1-1.6.4.3-.3v1.7h-1.3Zm9.1-1.5v-1.8h1.8v1.8h-1.8Zm50.8 1.7-.7-.5c.3-.3.5-.5.6-.8l.2-.8.4.4h-1.3v-1.8h1.8v1.2c0 .4 0 .8-.2 1.2l-.8 1.1Zm-.8-6.5v-1.8h1.8v1.8h-1.8Zm8.4 6.3v-1.7l.3.3c-.7 0-1.2-.1-1.8-.3-.6-.2-1-.4-1.5-.8l.6-1.3a4.8 4.8 0 0 0 2.9 1c.6 0 1.1-.1 1.4-.4.3-.2.5-.5.5-.8 0-.3-.1-.6-.4-.7l-1-.5-1.4-.3a3 3 0 0 1-1.8-.8c-.4-.4-.6-1-.6-1.6 0-.6.2-1 .4-1.4l1-1c.5-.2 1-.4 1.6-.4l-.2.2v-1.7h1.3v1.7l-.3-.2 1.5.3c.5.1.9.4 1.2.7l-.5 1.3c-.3-.3-.7-.6-1.1-.7a4 4 0 0 0-1.4-.2c-.6 0-1 0-1.4.3-.3.3-.5.6-.5 1 0 .3.1.5.3.7l1 .5 1.4.3c.8.1 1.5.4 1.9.8.4.4.6 1 .6 1.6 0 .5-.2 1-.4 1.3l-1 1-1.6.4.3-.3v1.7H136Zm67.6-1.5v-1.8h1.8v1.8h-1.8Zm6.2 0 3-3.8v.8l-2.8-3.6h1.9l1.9 2.5h-.6l1.9-2.5h1.9l-3 3.6v-.8l3 3.8h-1.9l-2-2.6h.6l-2 2.6h-2Zm15.8.1-1.2-.5-1-.8h.4l-1.4 1c-.5.2-1 .3-1.7.3-.6 0-1.2 0-1.7-.3-.5-.2-.9-.5-1.1-.8a2 2 0 0 1-.4-1.3c0-.6.2-1.1.5-1.5.3-.5.8-.9 1.4-1.2l.5-.3-.3.3-.8-1-.3-1.1c0-.5.1-.8.3-1.2.2-.3.5-.5 1-.7.3-.2.8-.3 1.3-.3.7 0 1.2.2 1.6.6.5.3.7.8.7 1.4a2.2 2.2 0 0 1-.8 1.7 6 6 0 0 1-1.2.8v-.3l2.3 2.4h-.3l.5-1.3.2-1.5h1.4c0 .7-.1 1.4-.3 2l-.8 1.7v-.4a4.7 4.7 0 0 0 1.7 1.2l-.5 1.1Zm-4.8-1.2a2.6 2.6 0 0 0 2-1v.4l-2.7-2.8h.7l-.4.2a5 5 0 0 0-.7.6 2 2 0 0 0-.5.6l-.1.7c0 .4.1.7.4 1 .3.2.8.3 1.3.3Zm.3-7c-.3 0-.6 0-.8.2a1 1 0 0 0-.3.8v.4l.4.5.5.6h-.4c.6-.3 1-.5 1.2-.8.3-.2.4-.5.4-.8 0-.3-.1-.6-.3-.7a1 1 0 0 0-.7-.3Zm12.9 8.2-1-.5c-.4-.3-.8-.5-1-.8h.3l-1.4 1c-.5.2-1 .3-1.7.3-.6 0-1.2 0-1.7-.3-.5-.2-.9-.5-1.1-.8a2 2 0 0 1-.4-1.3c0-.6.2-1.1.5-1.5.3-.5.8-.9 1.4-1.2l.5-.3-.3.3-.8-1-.3-1.1c0-.5.1-.8.3-1.2.2-.3.5-.5 1-.7.3-.2.8-.3 1.3-.3.7 0 1.2.2 1.6.6.5.3.7.8.7 1.4a2.2 2.2 0 0 1-.8 1.7 6 6 0 0 1-1.2.8v-.3l2.3 2.4h-.3l.5-1.3.2-1.5h1.4c0 .7-.1 1.4-.3 2l-.8 1.7v-.4a4.7 4.7 0 0 0 1.7 1.2l-.5 1.1Zm-4.7-1.2a2.6 2.6 0 0 0 2-1v.4l-2.7-2.8h.7l-.4.2a5 5 0 0 0-.7.6 2 2 0 0 0-.5.6l-.1.7c0 .4.1.7.4 1 .3.2.8.3 1.3.3Zm.3-7c-.3 0-.6 0-.8.2a1 1 0 0 0-.3.8v.4l.4.5.5.6h-.4c.6-.3 1-.5 1.2-.8.3-.2.4-.5.4-.8 0-.3-.1-.6-.3-.7a1 1 0 0 0-.7-.3Z" fill="#000"/><path d="M237 318.5v-1.7l.3.3c-.7 0-1.2-.1-1.8-.3-.6-.2-1-.4-1.5-.8l.6-1.3a4.8 4.8 0 0 0 2.9 1c.6 0 1.1-.1 1.4-.4.3-.2.5-.5.5-.8 0-.3-.1-.6-.4-.7l-1-.5-1.4-.3a3 3 0 0 1-1.8-.8c-.4-.4-.6-1-.6-1.6 0-.6.2-1 .4-1.4l1-1c.5-.2 1-.4 1.6-.4l-.2.2v-1.7h1.3v1.7l-.3-.2 1.5.3c.5.1.9.4 1.2.7l-.5 1.3c-.3-.3-.7-.6-1.1-.7a4 4 0 0 0-1.4-.2c-.6 0-1 0-1.4.3-.3.3-.5.6-.5 1 0 .3.1.5.3.7l1 .5 1.4.3c.8.1 1.5.4 1.9.8.4.4.6 1 .6 1.6 0 .5-.2 1-.4 1.3l-1 1-1.6.4.3-.3v1.7H237Zm8.4-2v-2.7h-2.6v-1.1h2.6v-2.6h1.2v2.6h2.6v1.1h-2.6v2.7h-1.2Zm9.2.5v-1.8h1.8v1.8h-1.8Zm50 0v-1.8h1.8v1.8h-1.8Zm6.2 0 3-3.8v.8l-2.8-3.6h1.9l1.9 2.5h-.6l1.9-2.5h1.9l-3 3.6v-.8l3 3.8h-1.9l-2-2.6h.6l-2 2.6h-2Zm15.8.1-1.2-.5-1-.8h.4l-1.4 1c-.5.2-1 .3-1.7.3-.6 0-1.2 0-1.7-.3-.5-.2-.9-.5-1.1-.8a2 2 0 0 1-.4-1.3c0-.6.2-1.1.5-1.5.3-.5.8-.9 1.4-1.2l.5-.3-.3.3-.8-1-.3-1.1c0-.5.1-.8.3-1.2.2-.3.5-.5 1-.7.3-.2.8-.3 1.3-.3.7 0 1.2.2 1.6.6.5.3.7.8.7 1.4a2.2 2.2 0 0 1-.8 1.7 6 6 0 0 1-1.2.8v-.3l2.3 2.4h-.3l.5-1.3.2-1.5h1.4c0 .7-.1 1.4-.3 2l-.8 1.7v-.4a4.7 4.7 0 0 0 1.7 1.2l-.5 1.1Zm-4.8-1.2a2.6 2.6 0 0 0 2-1v.4l-2.7-2.8h.7l-.4.2a5 5 0 0 0-.7.6 2 2 0 0 0-.5.6l-.1.7c0 .4.1.7.4 1 .3.2.8.3 1.3.3Zm.3-7c-.3 0-.6 0-.8.2a1 1 0 0 0-.3.8v.4l.4.5.5.6h-.4c.6-.3 1-.5 1.2-.8.3-.2.4-.5.4-.8 0-.3-.1-.6-.3-.7a1 1 0 0 0-.7-.3Zm12.9 8.2-1-.5c-.4-.3-.8-.5-1-.8h.3l-1.4 1c-.5.2-1 .3-1.7.3-.6 0-1.2 0-1.7-.3-.5-.2-.9-.5-1.1-.8a2 2 0 0 1-.4-1.3c0-.6.2-1.1.5-1.5.3-.5.8-.9 1.4-1.2l.5-.3-.3.3-.8-1-.3-1.1c0-.5.1-.8.3-1.2.2-.3.5-.5 1-.7.3-.2.8-.3 1.3-.3.7 0 1.2.2 1.6.6.5.3.7.8.7 1.4a2.2 2.2 0 0 1-.8 1.7 6 6 0 0 1-1.2.8v-.3l2.3 2.4h-.3l.5-1.3.2-1.5h1.4c0 .7-.1 1.4-.3 2l-.8 1.7v-.4a4.7 4.7 0 0 0 1.7 1.2l-.5 1.1Zm-4.7-1.2a2.6 2.6 0 0 0 2-1v.4l-2.7-2.8h.7l-.4.2a5 5 0 0 0-.7.6 2 2 0 0 0-.5.6l-.1.7c0 .4.1.7.4 1 .3.2.8.3 1.3.3Zm.3-7c-.3 0-.6 0-.8.2a1 1 0 0 0-.3.8v.4l.4.5.5.6h-.4c.6-.3 1-.5 1.2-.8.3-.2.4-.5.4-.8 0-.3-.1-.6-.3-.7a1 1 0 0 0-.7-.3Zm13 8.2-1.2-.5-1-.8h.4l-1.4 1c-.5.2-1 .3-1.7.3-.6 0-1.2 0-1.7-.3-.5-.2-.9-.5-1.1-.8a2 2 0 0 1-.4-1.3c0-.6.2-1.1.5-1.5.3-.5.8-.9 1.4-1.2l.5-.3-.3.3-.8-1-.3-1.1c0-.5.1-.8.3-1.2.2-.3.5-.5 1-.7.3-.2.8-.3 1.3-.3.7 0 1.2.2 1.6.6.5.3.7.8.7 1.4a2.2 2.2 0 0 1-.8 1.7 6 6 0 0 1-1.2.8v-.3l2.3 2.4h-.3l.5-1.3.2-1.5h1.4c0 .7-.1 1.4-.3 2l-.8 1.7v-.4a4.7 4.7 0 0 0 1.7 1.2l-.5 1.1Zm-4.8-1.2a2.6 2.6 0 0 0 2-1v.4l-2.7-2.8h.7l-.4.2a5 5 0 0 0-.7.6 2 2 0 0 0-.5.6l-.1.7c0 .4.1.7.4 1 .3.2.8.3 1.3.3Zm.3-7c-.3 0-.6 0-.8.2a1 1 0 0 0-.3.8v.4l.4.5.5.6h-.4c.6-.3 1-.5 1.2-.8.3-.2.4-.5.4-.8 0-.3-.1-.6-.3-.7a1 1 0 0 0-.7-.3Zm12.9 8.2-1-.5c-.4-.3-.8-.5-1-.8h.3l-1.4 1c-.5.2-1 .3-1.7.3-.6 0-1.2 0-1.7-.3-.5-.2-.9-.5-1.1-.8a2 2 0 0 1-.4-1.3c0-.6.2-1.1.5-1.5.3-.5.8-.9 1.4-1.2l.5-.3-.3.3-.8-1-.3-1.1c0-.5.1-.8.3-1.2.2-.3.5-.5 1-.7.3-.2.8-.3 1.3-.3.7 0 1.2.2 1.6.6.5.3.7.8.7 1.4a2.2 2.2 0 0 1-.8 1.7 6 6 0 0 1-1.2.8v-.3l2.3 2.4h-.3l.5-1.3.2-1.5h1.4c0 .7-.1 1.4-.3 2l-.8 1.7v-.4a4.7 4.7 0 0 0 1.7 1.2l-.5 1.1Zm-4.7-1.2a2.6 2.6 0 0 0 2-1v.4l-2.7-2.8h.7l-.4.2a5 5 0 0 0-.7.6 2 2 0 0 0-.5.6l-.1.7c0 .4.1.7.4 1 .3.2.8.3 1.3.3Zm.3-7c-.3 0-.6 0-.8.2a1 1 0 0 0-.3.8v.4l.4.5.5.6h-.4c.6-.3 1-.5 1.2-.8.3-.2.4-.5.4-.8 0-.3-.1-.6-.3-.7a1 1 0 0 0-.7-.3Z" fill="#000"/><path d="M355.5 318.5v-1.7l.3.3c-.7 0-1.2-.1-1.8-.3-.6-.2-1-.4-1.5-.8l.6-1.3a4.8 4.8 0 0 0 2.9 1c.6 0 1.1-.1 1.4-.4.3-.2.5-.5.5-.8 0-.3-.1-.6-.4-.7l-1-.5-1.4-.3a3 3 0 0 1-1.8-.8c-.4-.4-.6-1-.6-1.6 0-.6.2-1 .4-1.4l1-1c.5-.2 1-.4 1.6-.4l-.2.2v-1.7h1.3v1.7l-.3-.2 1.5.3c.5.1.9.4 1.2.7l-.5 1.3c-.3-.3-.7-.6-1.1-.7a4 4 0 0 0-1.4-.2c-.6 0-1 0-1.4.3-.3.3-.5.6-.5 1 0 .3.1.5.3.7l1 .5 1.4.3c.8.1 1.5.4 1.9.8.4.4.6 1 .6 1.6 0 .5-.2 1-.4 1.3l-1 1-1.6.4.3-.3v1.7h-1.3Zm8.1-1.5v-1.8h1.8v1.8h-1.8ZM136 332.5v-2.7h-2.7v-1.1h2.6v-2.6h1.2v2.6h2.6v1.1h-2.6v2.7h-1.2Zm5 .5 3.8-5v.7l-3.6-4.9h2l2.6 3.7h-.6l2.7-3.7h2l-3.7 4.9v-.7l3.8 5h-2l-2.8-3.8h.6L143 333h-2Zm113.6 0v-1.8h1.8v1.8h-1.8Zm8 0v-1.8h1.8v1.8h-1.8Zm9 0v-1.8h1.8v1.8h-1.8Zm8.4 0v-1.8h2v1.8h-2Zm7.6 0v-1.8h1.8v1.8h-1.8Zm9 0v-1.8h1.8v1.8h-1.8Zm8 0v-1.8h1.8v1.8h-1.8Zm-162.8 16 3-3.8v.8l-2.8-3.6h1.9l1.9 2.5h-.6l1.9-2.5h1.9l-3 3.6v-.8l3 3.8h-1.9l-2-2.6h.6l-2 2.6h-2Zm11.2 1.5v-1.7l.3.3c-.7 0-1.2-.1-1.8-.3-.6-.2-1-.4-1.5-.8l.6-1.3a4.8 4.8 0 0 0 2.9 1c.6 0 1.1-.1 1.4-.4.3-.2.5-.5.5-.8 0-.3-.1-.6-.4-.7l-1-.5-1.4-.3a3 3 0 0 1-1.8-.8c-.4-.4-.6-1-.6-1.6 0-.6.2-1 .4-1.4l1-1c.5-.2 1-.4 1.6-.4l-.2.2v-1.7h1.3v1.7l-.3-.2 1.5.3c.5.1.9.4 1.2.7l-.5 1.3c-.3-.3-.7-.6-1.1-.7a4 4 0 0 0-1.4-.2c-.6 0-1 0-1.4.3-.3.3-.5.6-.5 1 0 .3.1.5.3.7l1 .5 1.4.3c.8.1 1.5.4 1.9.8.4.4.6 1 .6 1.6 0 .5-.2 1-.4 1.3l-1 1-1.6.4.3-.3v1.7H153Zm89.8-1.5 3-3.8v.8l-2.8-3.6h1.9l1.9 2.5h-.6l1.9-2.5h1.9l-3 3.6v-.8l3 3.8h-1.9l-2-2.6h.6l-2 2.6h-2Zm7.7 0 3.8-5v.7l-3.6-4.9h2l2.6 3.7h-.6l2.7-3.7h2l-3.7 4.9v-.7l3.8 5h-2l-2.8-3.8h.6l-2.8 3.8h-2Zm-97.9 16v-1.8h1.8v1.8h-1.8Zm14 .1-1.2-.5-1-.8h.4l-1.4 1c-.5.2-1 .3-1.7.3-.6 0-1.2 0-1.7-.3-.5-.2-.9-.5-1.1-.8a2 2 0 0 1-.4-1.3c0-.6.2-1.1.5-1.5.3-.5.8-.9 1.4-1.2l.5-.3-.3.3-.8-1-.3-1.1c0-.5.1-.8.3-1.2.2-.3.5-.5 1-.7.3-.2.8-.3 1.3-.3.7 0 1.2.2 1.6.6.5.3.7.8.7 1.4a2.2 2.2 0 0 1-.8 1.7 6 6 0 0 1-1.2.8v-.3l2.3 2.4h-.3l.5-1.3.2-1.5h1.4c0 .7-.1 1.4-.3 2l-.8 1.7v-.4a4.7 4.7 0 0 0 1.7 1.2l-.5 1.1Zm-4.8-1.2a2.6 2.6 0 0 0 2-1v.4l-2.7-2.8h.7l-.4.2a5 5 0 0 0-.7.6 2 2 0 0 0-.5.6l-.1.7c0 .4.1.7.4 1 .3.2.8.3 1.3.3Zm.3-7c-.3 0-.6 0-.8.2a1 1 0 0 0-.3.8v.4l.4.5.5.6h-.4c.6-.3 1-.5 1.2-.8.3-.2.4-.5.4-.8 0-.3-.1-.6-.3-.7a1 1 0 0 0-.7-.3Zm8.3 9.8-.7-.5c.3-.3.5-.5.6-.8l.2-.8.4.4h-1.3v-1.8h1.8v1.2c0 .4 0 .8-.2 1.2l-.8 1.1Zm-.8-6.5v-1.8h1.8v1.8h-1.8Zm59 0v-1.8h1.8v1.8h-1.8Zm0 4.8v-1.8h1.8v1.8h-1.8Zm13.4.1-1-.5c-.4-.3-.8-.5-1-.8h.3l-1.4 1c-.5.2-1 .3-1.7.3-.6 0-1.2 0-1.7-.3-.5-.2-.9-.5-1.1-.8a2 2 0 0 1-.4-1.3c0-.6.2-1.1.5-1.5.3-.5.8-.9 1.4-1.2l.5-.3-.3.3-.8-1-.3-1.1c0-.5.1-.8.3-1.2.2-.3.5-.5 1-.7.3-.2.8-.3 1.3-.3.7 0 1.2.2 1.6.6.5.3.7.8.7 1.4a2.2 2.2 0 0 1-.8 1.7 6 6 0 0 1-1.2.8v-.3l2.3 2.4h-.3l.5-1.3.2-1.5h1.4c0 .7-.1 1.4-.3 2l-.8 1.7v-.4a4.7 4.7 0 0 0 1.7 1.2l-.5 1.1Zm-4.7-1.2a2.6 2.6 0 0 0 2-1v.4l-2.7-2.8h.7l-.4.2a5 5 0 0 0-.7.6 2 2 0 0 0-.5.6l-.1.7c0 .4.1.7.4 1 .3.2.8.3 1.3.3Zm.3-7c-.3 0-.6 0-.8.2a1 1 0 0 0-.3.8v.4l.4.5.5.6h-.4c.6-.3 1-.5 1.2-.8.3-.2.4-.5.4-.8 0-.3-.1-.6-.3-.7a1 1 0 0 0-.7-.3Zm8.8 9.8-.7-.5c.3-.3.5-.5.6-.8l.2-.8.4.4h-1.3v-1.8h1.8v1.2c0 .4 0 .8-.2 1.2l-.8 1.1Zm-.8-6.5v-1.8h1.8v1.8h-1.8Zm-76 20.8v-1.8h1.8v1.8h-1.8Zm8.4 1.5v-1.7l.3.3c-.7 0-1.2-.1-1.8-.3-.6-.2-1-.4-1.5-.8l.6-1.3a4.8 4.8 0 0 0 2.9 1c.6 0 1.1-.1 1.4-.4.3-.2.5-.5.5-.8 0-.3-.1-.6-.4-.7l-1-.5-1.4-.3a3 3 0 0 1-1.8-.8c-.4-.4-.6-1-.6-1.6 0-.6.2-1 .4-1.4l1-1c.5-.2 1-.4 1.6-.4l-.2.2v-1.7h1.3v1.7l-.3-.2 1.5.3c.5.1.9.4 1.2.7l-.5 1.3c-.3-.3-.7-.6-1.1-.7a4 4 0 0 0-1.4-.2c-.6 0-1 0-1.4.3-.3.3-.5.6-.5 1 0 .3.1.5.3.7l1 .5 1.4.3c.8.1 1.5.4 1.9.8.4.4.6 1 .6 1.6 0 .5-.2 1-.4 1.3l-1 1-1.6.4.3-.3v1.7H178Zm13.6-1.4-1.2-.5-1-.8h.4l-1.4 1c-.5.2-1 .3-1.7.3-.6 0-1.2 0-1.7-.3-.5-.2-.9-.5-1.1-.8a2 2 0 0 1-.4-1.3c0-.6.2-1.1.5-1.5.3-.5.8-.9 1.4-1.2l.5-.3-.3.3-.8-1-.3-1.1c0-.5.1-.8.3-1.2.2-.3.5-.5 1-.7.3-.2.8-.3 1.3-.3.7 0 1.2.2 1.6.6.5.3.7.8.7 1.4a2.2 2.2 0 0 1-.8 1.7 6 6 0 0 1-1.2.8v-.3l2.3 2.4h-.3l.5-1.3.2-1.5h1.4c0 .7-.1 1.4-.3 2l-.8 1.7v-.4a4.7 4.7 0 0 0 1.7 1.2l-.5 1.1Zm-4.8-1.2a2.6 2.6 0 0 0 2-1v.4l-2.7-2.8h.7l-.4.2a5 5 0 0 0-.7.6 2 2 0 0 0-.5.6l-.1.7c0 .4.1.7.4 1 .3.2.8.3 1.3.3Zm.3-7c-.3 0-.6 0-.8.2a1 1 0 0 0-.3.8v.4l.4.5.5.6h-.4c.6-.3 1-.5 1.2-.8.3-.2.4-.5.4-.8 0-.3-.1-.6-.3-.7a1 1 0 0 0-.7-.3Zm12.9 8.2-1-.5c-.4-.3-.8-.5-1-.8h.3l-1.4 1c-.5.2-1 .3-1.7.3-.6 0-1.2 0-1.7-.3-.5-.2-.9-.5-1.1-.8a2 2 0 0 1-.4-1.3c0-.6.2-1.1.5-1.5.3-.5.8-.9 1.4-1.2l.5-.3-.3.3-.8-1-.3-1.1c0-.5.1-.8.3-1.2.2-.3.5-.5 1-.7.3-.2.8-.3 1.3-.3.7 0 1.2.2 1.6.6.5.3.7.8.7 1.4a2.2 2.2 0 0 1-.8 1.7 6 6 0 0 1-1.2.8v-.3l2.3 2.4h-.3l.5-1.3.2-1.5h1.4c0 .7-.1 1.4-.3 2l-.8 1.7v-.4a4.7 4.7 0 0 0 1.7 1.2l-.5 1.1Zm-4.7-1.2a2.6 2.6 0 0 0 2-1v.4l-2.7-2.8h.7l-.4.2a5 5 0 0 0-.7.6 2 2 0 0 0-.5.6l-.1.7c0 .4.1.7.4 1 .3.2.8.3 1.3.3Zm.3-7c-.3 0-.6 0-.8.2a1 1 0 0 0-.3.8v.4l.4.5.5.6h-.4c.6-.3 1-.5 1.2-.8.3-.2.4-.5.4-.8 0-.3-.1-.6-.3-.7a1 1 0 0 0-.7-.3Z" fill="#000"/><path d="M203.5 382.5v-1.7l.3.3c-.7 0-1.2-.1-1.8-.3-.6-.2-1-.4-1.5-.8l.6-1.3a4.8 4.8 0 0 0 2.9 1c.6 0 1.1-.1 1.4-.4.3-.2.5-.5.5-.8 0-.3-.1-.6-.4-.7l-1-.5-1.4-.3a3 3 0 0 1-1.8-.8c-.4-.4-.6-1-.6-1.6 0-.6.2-1 .4-1.4l1-1c.5-.2 1-.4 1.6-.4l-.2.2v-1.7h1.3v1.7l-.3-.2 1.5.3c.5.1.9.4 1.2.7l-.5 1.3c-.3-.3-.7-.6-1.1-.7a4 4 0 0 0-1.4-.2c-.6 0-1 0-1.4.3-.3.3-.5.6-.5 1 0 .3.1.5.3.7l1 .5 1.4.3c.8.1 1.5.4 1.9.8.4.4.6 1 .6 1.6 0 .5-.2 1-.4 1.3l-1 1-1.6.4.3-.3v1.7h-1.3Zm13.5-1.4-1-.5c-.4-.3-.8-.5-1-.8h.3l-1.4 1c-.5.2-1 .3-1.7.3-.6 0-1.2 0-1.7-.3-.5-.2-.9-.5-1.1-.8a2 2 0 0 1-.4-1.3c0-.6.2-1.1.5-1.5.3-.5.8-.9 1.4-1.2l.5-.3-.3.3-.8-1-.3-1.1c0-.5.1-.8.3-1.2.2-.3.5-.5 1-.7.3-.2.8-.3 1.3-.3.7 0 1.2.2 1.6.6.5.3.7.8.7 1.4a2.2 2.2 0 0 1-.8 1.7 6 6 0 0 1-1.2.8v-.3l2.3 2.4h-.3l.5-1.3.2-1.5h1.4c0 .7-.1 1.4-.3 2l-.8 1.7v-.4a4.7 4.7 0 0 0 1.7 1.2l-.5 1.1Zm-4.7-1.2a2.6 2.6 0 0 0 2-1v.4l-2.7-2.8h.7l-.4.2a5 5 0 0 0-.7.6 2 2 0 0 0-.5.6l-.1.7c0 .4.1.7.4 1 .3.2.8.3 1.3.3Zm.3-7c-.3 0-.6 0-.8.2a1 1 0 0 0-.3.8v.4l.4.5.5.6h-.4c.6-.3 1-.5 1.2-.8.3-.2.4-.5.4-.8 0-.3-.1-.6-.3-.7a1 1 0 0 0-.7-.3Z" fill="#000"/><path d="M220.5 382.5v-1.7l.3.3c-.7 0-1.2-.1-1.8-.3-.6-.2-1-.4-1.5-.8l.6-1.3a4.8 4.8 0 0 0 2.9 1c.6 0 1.1-.1 1.4-.4.3-.2.5-.5.5-.8 0-.3-.1-.6-.4-.7l-1-.5-1.4-.3a3 3 0 0 1-1.8-.8c-.4-.4-.6-1-.6-1.6 0-.6.2-1 .4-1.4l1-1c.5-.2 1-.4 1.6-.4l-.2.2v-1.7h1.3v1.7l-.3-.2 1.5.3c.5.1.9.4 1.2.7l-.5 1.3c-.3-.3-.7-.6-1.1-.7a4 4 0 0 0-1.4-.2c-.6 0-1 0-1.4.3-.3.3-.5.6-.5 1 0 .3.1.5.3.7l1 .5 1.4.3c.8.1 1.5.4 1.9.8.4.4.6 1 .6 1.6 0 .5-.2 1-.4 1.3l-1 1-1.6.4.3-.3v1.7h-1.3Zm8.1-6.3v-1.8h1.8v1.8h-1.8Zm0 4.8v-1.8h1.8v1.8h-1.8Z" fill="#000"/></svg>