<svg width="400" height="400" fill="none" xmlns="http://www.w3.org/2000/svg"><g clip-path="url(#a)" fill="#000"><path d="M151.4 131v-1.8h1.8v1.8h-1.8Zm10.6-.5v-2.7h-2.7v-1.1h2.6v-2.6h1.2v2.6h2.6v1.1h-2.6v2.7H162Zm10.3 2v-1.7l.3.3c-.7 0-1.3-.1-1.8-.3-.6-.2-1-.4-1.5-.8l.5-1.3a4.8 4.8 0 0 0 3 1c.6 0 1-.1 1.4-.4.3-.2.4-.5.4-.8 0-.3 0-.6-.3-.7l-1-.5-1.4-.3a3 3 0 0 1-1.8-.8c-.4-.4-.6-1-.6-1.6 0-.6.1-1 .4-1.4.2-.4.6-.7 1-1 .5-.2 1-.4 1.6-.4l-.2.2v-1.7h1.3v1.7l-.3-.2c.5 0 1 .1 1.4.3.5.1 1 .4 1.2.7l-.4 1.3a4 4 0 0 0-2.5-1c-.6 0-1 .2-1.4.4-.3.3-.5.6-.5 1 0 .3 0 .5.3.7.2.2.5.4 1 .5l1.4.3a3 3 0 0 1 1.8.8c.4.4.6 1 .6 1.6 0 .5 0 1-.3 1.3l-1 1-1.6.4.3-.3v1.7h-1.3Zm14.8-1.4-1.1-.5-1-.8h.3a4.4 4.4 0 0 1-3 1.3c-.7 0-1.3 0-1.8-.3-.5-.2-.8-.5-1.1-.8a2 2 0 0 1-.4-1.3c0-.6.2-1.1.5-1.5.4-.5.8-.9 1.5-1.2l.4-.3-.3.3-.8-1-.3-1.1c0-.5.1-.8.4-1.2.2-.3.5-.5.9-.7.3-.2.8-.3 1.3-.3.7 0 1.2.2 1.7.6.4.3.6.8.6 1.4a2.2 2.2 0 0 1-.8 1.7 6 6 0 0 1-1.2.8v-.3l2.4 2.4h-.4l.5-1.3.3-1.5h1.3c0 .7-.1 1.4-.3 2l-.8 1.7v-.4a4.7 4.7 0 0 0 1.8 1.2l-.6 1.1Zm-4.8-1.2a2.6 2.6 0 0 0 2.1-1v.4l-2.8-2.8h.7l-.4.2a5 5 0 0 0-.7.6 2 2 0 0 0-.4.6l-.2.7c0 .4.2.7.5 1 .3.2.7.3 1.2.3Zm.3-7c-.3 0-.6 0-.8.2a1 1 0 0 0-.3.8l.1.4c0 .2.2.3.3.5l.6.6h-.4c.5-.3.9-.5 1.1-.8.3-.2.4-.5.4-.8 0-.3 0-.6-.3-.7a1 1 0 0 0-.7-.3Zm14.8 8.2-1.2-.5-1-.8h.4a4.4 4.4 0 0 1-3.1 1.3c-.7 0-1.3 0-1.7-.3-.5-.2-.9-.5-1.2-.8-.2-.4-.3-.8-.3-1.3 0-.6.1-1.1.5-1.5.3-.5.8-.9 1.4-1.2l.4-.3-.2.3c-.4-.3-.7-.7-.8-1l-.3-1.1c0-.5.1-.8.3-1.2.2-.3.5-.5.9-.7.4-.2.8-.3 1.4-.3.6 0 1.2.2 1.6.6.4.3.7.8.7 1.4a2.2 2.2 0 0 1-.9 1.7 6 6 0 0 1-1.1.8v-.3l2.3 2.4h-.3l.5-1.3.2-1.5h1.4c0 .7-.2 1.4-.4 2-.2.6-.4 1.2-.8 1.7v-.4a4.7 4.7 0 0 0 1.8 1.2l-.5 1.1Zm-4.8-1.2a2.6 2.6 0 0 0 2-1v.4l-2.7-2.8h.7l-.4.2a5 5 0 0 0-.8.6 2 2 0 0 0-.4.6l-.1.7c0 .4.1.7.4 1 .3.2.7.3 1.3.3Zm.3-7c-.4 0-.6 0-.8.2a1 1 0 0 0-.3.8v.4l.4.5.5.6h-.4c.6-.3 1-.5 1.2-.8.2-.2.4-.5.4-.8 0-.3-.1-.6-.3-.7a1 1 0 0 0-.7-.3Zm10.1 9.6v-1.7l.3.3-1.8-.3c-.5-.2-1-.4-1.4-.8l.5-1.3a4.8 4.8 0 0 0 3 1c.6 0 1-.1 1.3-.4.3-.2.5-.5.5-.8 0-.3-.1-.6-.3-.7l-1.1-.5-1.4-.3a3 3 0 0 1-1.8-.8c-.4-.4-.6-1-.6-1.6 0-.6.2-1 .4-1.4l1-1c.5-.2 1-.4 1.7-.4l-.3.2v-1.7h1.3v1.7l-.3-.2 1.5.3c.5.1.9.4 1.2.7l-.5 1.3c-.3-.3-.7-.6-1.1-.7a4 4 0 0 0-1.4-.2c-.6 0-1 0-1.4.3-.3.3-.5.6-.5 1 0 .3.1.5.3.7l1 .5 1.4.3a3 3 0 0 1 1.9.8c.4.4.6 1 .6 1.6 0 .5-.1 1-.4 1.3-.2.4-.6.7-1 1l-1.5.4.2-.3v1.7H203Zm7-1.5 3.1-3.8v.8l-2.9-3.6h2l1.9 2.5h-.6l1.9-2.5h1.9l-2.9 3.6v-.8l3 3.8h-1.9l-2-2.6h.6L212 131h-2Zm13.1 0v-1.8h1.8v1.8h-1.8Zm82.9 1.7-.8-.5c.3-.3.5-.5.6-.8l.2-.8.4.4h-1.3v-1.8h1.8v1.2c0 .4 0 .8-.2 1.2-.1.4-.4.7-.8 1.1Zm-.9-6.5v-1.8h1.8v1.8h-1.8Zm7.5 4.8 3-3.8v.8l-2.9-3.6h2l1.9 2.5h-.6l1.9-2.5h1.9l-2.9 3.6v-.8l3 3.8H318l-2-2.6h.6l-2.1 2.6h-2Zm9.4 0 3.8-5v.7l-3.6-4.9h2l2.6 3.7h-.5l2.6-3.7h2l-3.7 4.9v-.7l3.8 5h-2l-2.8-3.8h.6L324 131h-2Zm14.3 1.5v-1.7l.3.3c-.7 0-1.3-.1-1.8-.3-.6-.2-1-.4-1.5-.8l.5-1.3a4.8 4.8 0 0 0 3 1c.6 0 1-.1 1.4-.4.3-.2.4-.5.4-.8 0-.3 0-.6-.3-.7l-1-.5-1.4-.3a3 3 0 0 1-1.8-.8c-.4-.4-.6-1-.6-1.6 0-.6.1-1 .4-1.4.2-.4.6-.7 1-1 .5-.2 1-.4 1.6-.4l-.2.2v-1.7h1.3v1.7l-.3-.2c.5 0 1 .1 1.4.3.5.1 1 .4 1.2.7l-.4 1.3a4 4 0 0 0-2.5-1c-.6 0-1 .2-1.4.4-.3.3-.5.6-.5 1 0 .3 0 .5.3.7.2.2.5.4 1 .5l1.4.3a3 3 0 0 1 1.8.8c.4.4.6 1 .6 1.6 0 .5 0 1-.3 1.3l-1 1-1.6.4.3-.3v1.7h-1.3Zm6.3-1.5 3.7-5v.7l-3.6-4.9h2l2.6 3.7h-.5l2.6-3.7h2l-3.7 4.9v-.7l3.8 5h-2l-2.8-3.8h.6l-2.8 3.8h-2Zm14.6 1.7-.7-.5c.3-.3.5-.5.6-.8l.1-.8.4.4h-1.2v-1.8h1.8v1.2c0 .4 0 .8-.3 1.2-.1.4-.4.7-.7 1.1Zm-.8-6.5v-1.8h1.8v1.8h-1.8Zm10.2 4.8v-1.8h1.8v1.8h-1.8ZM128 151.5l3.1-3.8v.8l-2.9-3.6h2l1.9 2.5h-.6l1.9-2.5h1.9l-2.9 3.6v-.8l3 3.8h-1.9l-2-2.6h.6l-2.1 2.6h-2Zm18.1.1-1.1-.5-1-.8h.3a4.4 4.4 0 0 1-3 1.3c-.7 0-1.3 0-1.8-.3-.5-.2-.8-.5-1.1-.8a2 2 0 0 1-.4-1.3c0-.6.2-1.1.5-1.5.4-.5.8-.9 1.5-1.2l.4-.3-.3.3-.8-1-.3-1.1c0-.5.1-.8.4-1.2.2-.3.5-.5.9-.7.3-.2.8-.3 1.3-.3.7 0 1.2.2 1.7.6.4.3.6.8.6 1.4a2.2 2.2 0 0 1-.8 1.7 6 6 0 0 1-1.2.8v-.3l2.4 2.4h-.4l.5-1.3.3-1.5h1.3c0 .7-.1 1.4-.3 2l-.8 1.7v-.4a4.7 4.7 0 0 0 1.8 1.2l-.6 1.1Zm-4.8-1.2a2.6 2.6 0 0 0 2.1-1v.4l-2.8-2.8h.7l-.4.2a5 5 0 0 0-.7.6 2 2 0 0 0-.4.6l-.2.7c0 .4.2.7.5 1 .3.2.7.3 1.2.3Zm.3-7c-.3 0-.6 0-.8.2a1 1 0 0 0-.3.8l.1.4c0 .2.2.3.3.5l.6.6h-.4c.5-.3.9-.5 1.1-.8.3-.2.4-.5.4-.8 0-.3 0-.6-.3-.7a1 1 0 0 0-.7-.3Zm14.8 8.2-1.2-.5-1-.8h.4a4.4 4.4 0 0 1-3.1 1.3c-.7 0-1.3 0-1.7-.3-.5-.2-.9-.5-1.2-.8-.2-.4-.3-.8-.3-1.3 0-.6.1-1.1.5-1.5.3-.5.8-.9 1.4-1.2l.4-.3-.2.3c-.4-.3-.7-.7-.8-1l-.3-1.1c0-.5.1-.8.3-1.2.2-.3.5-.5.9-.7.4-.2.8-.3 1.4-.3.6 0 1.2.2 1.6.6.4.3.7.8.7 1.4a2.2 2.2 0 0 1-.9 1.7 6 6 0 0 1-1.1.8v-.3l2.3 2.4h-.3l.5-1.3.2-1.5h1.4c0 .7-.2 1.4-.4 2-.2.6-.4 1.2-.8 1.7v-.4a4.7 4.7 0 0 0 1.8 1.2l-.5 1.1Zm-4.8-1.2a2.6 2.6 0 0 0 2-1v.4L151 147h.7l-.4.2a5 5 0 0 0-.8.6 2 2 0 0 0-.4.6l-.1.7c0 .4.1.7.4 1 .3.2.7.3 1.3.3Zm.3-7c-.4 0-.6 0-.8.2a1 1 0 0 0-.3.8v.4l.4.5.5.6h-.4c.6-.3 1-.5 1.2-.8.2-.2.4-.5.4-.8 0-.3-.1-.6-.3-.7a1 1 0 0 0-.7-.3Zm14.7 8.2-1.1-.5-1-.8h.3a4.4 4.4 0 0 1-3 1.3c-.7 0-1.3 0-1.8-.3-.5-.2-.8-.5-1.1-.8a2 2 0 0 1-.4-1.3c0-.6.2-1.1.5-1.5.4-.5.8-.9 1.5-1.2l.4-.3-.3.3-.8-1-.3-1.1c0-.5.1-.8.4-1.2.2-.3.5-.5.9-.7.3-.2.8-.3 1.3-.3.7 0 1.2.2 1.7.6.4.3.6.8.6 1.4a2.2 2.2 0 0 1-.8 1.7 6 6 0 0 1-1.2.8v-.3l2.4 2.4h-.4l.5-1.3.3-1.5h1.3c0 .7-.1 1.4-.3 2l-.8 1.7v-.4a4.7 4.7 0 0 0 1.8 1.2l-.6 1.1Zm-4.8-1.2a2.6 2.6 0 0 0 2.1-1v.4L161 147h.7l-.4.2a5 5 0 0 0-.7.6 2 2 0 0 0-.4.6l-.2.7c0 .4.2.7.5 1 .3.2.7.3 1.2.3Zm.3-7c-.3 0-.6 0-.8.2a1 1 0 0 0-.3.8l.1.4c0 .2.2.3.3.5l.6.6h-.4c.5-.3.9-.5 1.1-.8.3-.2.4-.5.4-.8 0-.3 0-.6-.3-.7a1 1 0 0 0-.7-.3Zm14.8 8.2-1.2-.5-1-.8h.4a4.4 4.4 0 0 1-3.1 1.3c-.7 0-1.3 0-1.7-.3-.5-.2-.9-.5-1.2-.8-.2-.4-.3-.8-.3-1.3 0-.6.1-1.1.5-1.5.3-.5.8-.9 1.4-1.2l.4-.3-.2.3c-.4-.3-.7-.7-.8-1l-.3-1.1c0-.5.1-.8.3-1.2.2-.3.5-.5.9-.7.4-.2.8-.3 1.4-.3.6 0 1.2.2 1.6.6.4.3.7.8.7 1.4a2.2 2.2 0 0 1-.9 1.7 6 6 0 0 1-1.1.8v-.3l2.3 2.4h-.3l.5-1.3.2-1.5h1.4c0 .7-.2 1.4-.4 2-.2.6-.4 1.2-.8 1.7v-.4a4.7 4.7 0 0 0 1.8 1.2l-.5 1.1Zm-4.8-1.2a2.6 2.6 0 0 0 2-1v.4l-2.7-2.8h.7l-.4.2a5 5 0 0 0-.8.6 2 2 0 0 0-.4.6l-.1.7c0 .4.1.7.4 1 .3.2.7.3 1.3.3Zm.3-7c-.4 0-.6 0-.8.2a1 1 0 0 0-.3.8v.4l.4.5.5.6h-.4c.6-.3 1-.5 1.2-.8.2-.2.4-.5.4-.8 0-.3-.1-.6-.3-.7a1 1 0 0 0-.7-.3Zm14.7 8.2-1.1-.5-1-.8h.3a4.4 4.4 0 0 1-3 1.3c-.7 0-1.3 0-1.8-.3-.5-.2-.8-.5-1.1-.8a2 2 0 0 1-.4-1.3c0-.6.2-1.1.5-1.5.4-.5.8-.9 1.5-1.2l.4-.3-.3.3-.8-1-.3-1.1c0-.5.1-.8.4-1.2.2-.3.5-.5.9-.7.3-.2.8-.3 1.3-.3.7 0 1.2.2 1.7.6.4.3.6.8.6 1.4a2.2 2.2 0 0 1-.8 1.7 6 6 0 0 1-1.2.8v-.3l2.4 2.4h-.4l.5-1.3.3-1.5h1.3c0 .7-.1 1.4-.3 2l-.8 1.7v-.4a4.7 4.7 0 0 0 1.8 1.2l-.6 1.1Zm-4.8-1.2a2.6 2.6 0 0 0 2.1-1v.4l-2.8-2.8h.7l-.4.2a5 5 0 0 0-.7.6 2 2 0 0 0-.4.6l-.2.7c0 .4.2.7.5 1 .3.2.7.3 1.2.3Zm.3-7c-.3 0-.6 0-.8.2a1 1 0 0 0-.3.8l.1.4c0 .2.2.3.3.5l.6.6h-.4c.5-.3.9-.5 1.1-.8.3-.2.4-.5.4-.8 0-.3 0-.6-.3-.7a1 1 0 0 0-.7-.3Zm14.8 8.2-1.2-.5-1-.8h.4a4.4 4.4 0 0 1-3.1 1.3c-.7 0-1.3 0-1.7-.3-.5-.2-.9-.5-1.2-.8-.2-.4-.3-.8-.3-1.3 0-.6.1-1.1.5-1.5.3-.5.8-.9 1.4-1.2l.4-.3-.2.3c-.4-.3-.7-.7-.8-1l-.3-1.1c0-.5.1-.8.3-1.2.2-.3.5-.5.9-.7.4-.2.8-.3 1.4-.3.6 0 1.2.2 1.6.6.4.3.7.8.7 1.4a2.2 2.2 0 0 1-.9 1.7 6 6 0 0 1-1.1.8v-.3l2.3 2.4h-.3l.5-1.3.2-1.5h1.4c0 .7-.2 1.4-.4 2-.2.6-.4 1.2-.8 1.7v-.4a4.7 4.7 0 0 0 1.8 1.2l-.5 1.1Zm-4.8-1.2a2.6 2.6 0 0 0 2-1v.4L192 147h.7l-.4.2a5 5 0 0 0-.8.6 2 2 0 0 0-.4.6l-.1.7c0 .4.1.7.4 1 .3.2.7.3 1.3.3Zm.3-7c-.4 0-.6 0-.8.2a1 1 0 0 0-.3.8v.4l.4.5.5.6h-.4c.6-.3 1-.5 1.2-.8.2-.2.4-.5.4-.8 0-.3-.1-.6-.3-.7a1 1 0 0 0-.7-.3Zm14.7 8.2-1.1-.5-1-.8h.3a4.4 4.4 0 0 1-3 1.3c-.7 0-1.3 0-1.8-.3-.5-.2-.8-.5-1.1-.8a2 2 0 0 1-.4-1.3c0-.6.2-1.1.5-1.5.4-.5.8-.9 1.5-1.2l.4-.3-.3.3-.8-1-.3-1.1c0-.5.1-.8.4-1.2.2-.3.5-.5.9-.7.3-.2.8-.3 1.3-.3.7 0 1.2.2 1.7.6.4.3.6.8.6 1.4a2.2 2.2 0 0 1-.8 1.7 6 6 0 0 1-1.2.8v-.3l2.4 2.4h-.4l.5-1.3.3-1.5h1.3c0 .7-.1 1.4-.3 2l-.8 1.7v-.4a4.7 4.7 0 0 0 1.8 1.2l-.6 1.1Zm-4.8-1.2a2.6 2.6 0 0 0 2.1-1v.4L202 147h.7l-.4.2a5 5 0 0 0-.7.6 2 2 0 0 0-.4.6l-.2.7c0 .4.2.7.5 1 .3.2.7.3 1.2.3Zm.3-7c-.3 0-.6 0-.8.2a1 1 0 0 0-.3.8l.1.4c0 .2.2.3.3.5l.6.6h-.4c.5-.3.9-.5 1.1-.8.3-.2.4-.5.4-.8 0-.3 0-.6-.3-.7a1 1 0 0 0-.7-.3Zm14.8 8.2-1.2-.5-1-.8h.4a4.4 4.4 0 0 1-3.1 1.3c-.7 0-1.3 0-1.7-.3-.5-.2-.9-.5-1.2-.8-.2-.4-.3-.8-.3-1.3 0-.6.1-1.1.5-1.5.3-.5.8-.9 1.4-1.2l.4-.3-.2.3c-.4-.3-.7-.7-.8-1l-.3-1.1c0-.5.1-.8.3-1.2.2-.3.5-.5.9-.7.4-.2.8-.3 1.4-.3.6 0 1.2.2 1.6.6.4.3.7.8.7 1.4a2.2 2.2 0 0 1-.9 1.7 6 6 0 0 1-1.1.8v-.3l2.3 2.4h-.3l.5-1.3.2-1.5h1.4c0 .7-.2 1.4-.4 2-.2.6-.4 1.2-.8 1.7v-.4a4.7 4.7 0 0 0 1.8 1.2l-.5 1.1Zm-4.8-1.2a2.6 2.6 0 0 0 2-1v.4l-2.7-2.8h.7l-.4.2a5 5 0 0 0-.8.6 2 2 0 0 0-.4.6l-.1.7c0 .4.1.7.4 1 .3.2.7.3 1.3.3Zm.3-7c-.4 0-.6 0-.8.2a1 1 0 0 0-.3.8v.4l.4.5.5.6h-.4c.6-.3 1-.5 1.2-.8.2-.2.4-.5.4-.8 0-.3-.1-.6-.3-.7a1 1 0 0 0-.7-.3Zm14.7 8.2-1.1-.5-1-.8h.3a4.4 4.4 0 0 1-3 1.3c-.7 0-1.3 0-1.8-.3-.5-.2-.8-.5-1.1-.8a2 2 0 0 1-.4-1.3c0-.6.2-1.1.5-1.5.4-.5.8-.9 1.5-1.2l.4-.3-.3.3-.8-1-.3-1.1c0-.5.1-.8.4-1.2.2-.3.5-.5.9-.7.3-.2.8-.3 1.3-.3.7 0 1.2.2 1.7.6.4.3.6.8.6 1.4a2.2 2.2 0 0 1-.8 1.7 6 6 0 0 1-1.2.8v-.3l2.4 2.4h-.4l.5-1.3.3-1.5h1.3c0 .7-.1 1.4-.3 2l-.8 1.7v-.4a4.7 4.7 0 0 0 1.8 1.2l-.6 1.1Zm-4.8-1.2a2.6 2.6 0 0 0 2.1-1v.4l-2.8-2.8h.7l-.4.2a5 5 0 0 0-.7.6 2 2 0 0 0-.4.6l-.2.7c0 .4.2.7.5 1 .3.2.7.3 1.2.3Zm.3-7c-.3 0-.6 0-.8.2a1 1 0 0 0-.3.8l.1.4c0 .2.2.3.3.5l.6.6h-.4c.5-.3.9-.5 1.1-.8.3-.2.4-.5.4-.8 0-.3 0-.6-.3-.7a1 1 0 0 0-.7-.3Zm14.8 8.2-1.2-.5-1-.8h.4a4.4 4.4 0 0 1-3.1 1.3c-.7 0-1.3 0-1.7-.3-.5-.2-.9-.5-1.2-.8-.2-.4-.3-.8-.3-1.3 0-.6.1-1.1.5-1.5.3-.5.8-.9 1.4-1.2l.4-.3-.2.3c-.4-.3-.7-.7-.8-1l-.3-1.1c0-.5.1-.8.3-1.2.2-.3.5-.5.9-.7.4-.2.8-.3 1.4-.3.6 0 1.2.2 1.6.6.4.3.7.8.7 1.4a2.2 2.2 0 0 1-.9 1.7 6 6 0 0 1-1.1.8v-.3l2.3 2.4h-.3l.5-1.3.2-1.5h1.4c0 .7-.2 1.4-.4 2-.2.6-.4 1.2-.8 1.7v-.4a4.7 4.7 0 0 0 1.8 1.2l-.5 1.1Zm-4.8-1.2a2.6 2.6 0 0 0 2-1v.4L233 147h.7l-.4.2a5 5 0 0 0-.8.6 2 2 0 0 0-.4.6l-.1.7c0 .4.1.7.4 1 .3.2.7.3 1.3.3Zm.3-7c-.4 0-.6 0-.8.2a1 1 0 0 0-.3.8v.4l.4.5.5.6h-.4c.6-.3 1-.5 1.2-.8.2-.2.4-.5.4-.8 0-.3-.1-.6-.3-.7a1 1 0 0 0-.7-.3Zm10.5 9.8-.7-.5c.3-.3.5-.5.6-.8l.2-.8.4.4h-1.3v-1.8h1.8v1.2c0 .4 0 .8-.2 1.2-.1.4-.4.7-.8 1.1Zm-.8-6.5V145h1.8v1.8h-1.8Zm28 4.8 3-3.8v.8l-2.9-3.6h2l1.9 2.5h-.6l1.9-2.5h1.9l-2.9 3.6v-.8l3 3.8H277l-2-2.6h.6l-2.1 2.6h-2Zm18 .1-1.1-.5-1-.8h.3a4.4 4.4 0 0 1-3 1.3c-.7 0-1.3 0-1.8-.3-.5-.2-.8-.5-1.1-.8a2 2 0 0 1-.4-1.3c0-.6.2-1.1.5-1.5.4-.5.8-.9 1.5-1.2l.4-.3-.3.3-.8-1-.3-1.1c0-.5.1-.8.4-1.2.2-.3.5-.5.9-.7.3-.2.8-.3 1.3-.3.7 0 1.2.2 1.7.6.4.3.6.8.6 1.4a2.2 2.2 0 0 1-.8 1.7 6 6 0 0 1-1.2.8v-.3l2.4 2.4h-.4l.5-1.3.3-1.5h1.3c0 .7-.1 1.4-.3 2l-.8 1.7v-.4a4.7 4.7 0 0 0 1.8 1.2l-.6 1.1Zm-4.8-1.2a2.6 2.6 0 0 0 2.1-1v.4L284 147h.7l-.4.2a5 5 0 0 0-.7.6 2 2 0 0 0-.4.6l-.2.7c0 .4.2.7.5 1 .3.2.7.3 1.2.3Zm.3-7c-.3 0-.6 0-.8.2a1 1 0 0 0-.3.8l.1.4c0 .2.2.3.3.5l.6.6h-.4c.5-.3.9-.5 1.1-.8.3-.2.4-.5.4-.8 0-.3 0-.6-.3-.7a1 1 0 0 0-.7-.3Zm14.8 8.2-1.2-.5-1-.8h.4a4.4 4.4 0 0 1-3.1 1.3c-.7 0-1.3 0-1.7-.3-.5-.2-.9-.5-1.2-.8-.2-.4-.3-.8-.3-1.3 0-.6.1-1.1.5-1.5.3-.5.8-.9 1.4-1.2l.4-.3-.2.3c-.4-.3-.7-.7-.8-1l-.3-1.1c0-.5.1-.8.3-1.2.2-.3.5-.5.9-.7.4-.2.8-.3 1.4-.3.6 0 1.2.2 1.6.6.4.3.7.8.7 1.4a2.2 2.2 0 0 1-.9 1.7 6 6 0 0 1-1.1.8v-.3l2.3 2.4h-.3l.5-1.3.2-1.5h1.4c0 .7-.2 1.4-.4 2-.2.6-.4 1.2-.8 1.7v-.4a4.7 4.7 0 0 0 1.8 1.2l-.5 1.1Zm-4.8-1.2a2.6 2.6 0 0 0 2-1v.4l-2.7-2.8h.7l-.4.2a5 5 0 0 0-.8.6 2 2 0 0 0-.4.6l-.1.7c0 .4.1.7.4 1 .3.2.7.3 1.3.3Zm.3-7c-.4 0-.6 0-.8.2a1 1 0 0 0-.3.8v.4l.4.5.5.6h-.4c.6-.3 1-.5 1.2-.8.2-.2.4-.5.4-.8 0-.3-.1-.6-.3-.7a1 1 0 0 0-.7-.3Zm14.7 8.2-1.1-.5-1-.8h.3a4.4 4.4 0 0 1-3 1.3c-.7 0-1.3 0-1.8-.3-.5-.2-.8-.5-1.1-.8a2 2 0 0 1-.4-1.3c0-.6.2-1.1.5-1.5.4-.5.8-.9 1.5-1.2l.4-.3-.3.3-.8-1-.3-1.1c0-.5.1-.8.4-1.2.2-.3.5-.5.9-.7.3-.2.8-.3 1.3-.3.7 0 1.2.2 1.7.6.4.3.6.8.6 1.4a2.2 2.2 0 0 1-.8 1.7 6 6 0 0 1-1.2.8v-.3l2.4 2.4h-.4l.5-1.3.3-1.5h1.3c0 .7-.1 1.4-.3 2l-.8 1.7v-.4a4.7 4.7 0 0 0 1.8 1.2l-.6 1.1Zm-4.8-1.2a2.6 2.6 0 0 0 2.1-1v.4l-2.8-2.8h.7l-.4.2a5 5 0 0 0-.7.6 2 2 0 0 0-.4.6l-.2.7c0 .4.2.7.5 1 .3.2.7.3 1.2.3Zm.3-7c-.3 0-.6 0-.8.2a1 1 0 0 0-.3.8l.1.4c0 .2.2.3.3.5l.6.6h-.4c.5-.3.9-.5 1.1-.8.3-.2.4-.5.4-.8 0-.3 0-.6-.3-.7a1 1 0 0 0-.7-.3Zm14.8 8.2-1.2-.5-1-.8h.4a4.4 4.4 0 0 1-3.1 1.3c-.7 0-1.3 0-1.7-.3-.5-.2-.9-.5-1.2-.8-.2-.4-.3-.8-.3-1.3 0-.6.1-1.1.5-1.5.3-.5.8-.9 1.4-1.2l.4-.3-.2.3c-.4-.3-.7-.7-.8-1l-.3-1.1c0-.5.1-.8.3-1.2.2-.3.5-.5.9-.7.4-.2.8-.3 1.4-.3.6 0 1.2.2 1.6.6.4.3.7.8.7 1.4a2.2 2.2 0 0 1-.9 1.7 6 6 0 0 1-1.1.8v-.3l2.3 2.4h-.3l.5-1.3.2-1.5h1.4c0 .7-.2 1.4-.4 2-.2.6-.4 1.2-.8 1.7v-.4a4.7 4.7 0 0 0 1.8 1.2l-.5 1.1Zm-4.8-1.2a2.6 2.6 0 0 0 2-1v.4L315 147h.7l-.4.2a5 5 0 0 0-.8.6 2 2 0 0 0-.4.6l-.1.7c0 .4.1.7.4 1 .3.2.7.3 1.3.3Zm.3-7c-.4 0-.6 0-.8.2a1 1 0 0 0-.3.8v.4l.4.5.5.6h-.4c.6-.3 1-.5 1.2-.8.2-.2.4-.5.4-.8 0-.3-.1-.6-.3-.7a1 1 0 0 0-.7-.3Zm14.7 8.2-1.1-.5-1-.8h.3a4.4 4.4 0 0 1-3 1.3c-.7 0-1.3 0-1.8-.3-.5-.2-.8-.5-1.1-.8a2 2 0 0 1-.4-1.3c0-.6.2-1.1.5-1.5.4-.5.8-.9 1.5-1.2l.4-.3-.3.3-.8-1-.3-1.1c0-.5.1-.8.4-1.2.2-.3.5-.5.9-.7.3-.2.8-.3 1.3-.3.7 0 1.2.2 1.7.6.4.3.6.8.6 1.4a2.2 2.2 0 0 1-.8 1.7 6 6 0 0 1-1.2.8v-.3l2.4 2.4h-.4l.5-1.3.3-1.5h1.3c0 .7-.1 1.4-.3 2l-.8 1.7v-.4a4.7 4.7 0 0 0 1.8 1.2l-.6 1.1Zm-4.8-1.2a2.6 2.6 0 0 0 2.1-1v.4L325 147h.7l-.4.2a5 5 0 0 0-.7.6 2 2 0 0 0-.4.6l-.2.7c0 .4.2.7.5 1 .3.2.7.3 1.2.3Zm.3-7c-.3 0-.6 0-.8.2a1 1 0 0 0-.3.8l.1.4c0 .2.2.3.3.5l.6.6h-.4c.5-.3.9-.5 1.1-.8.3-.2.4-.5.4-.8 0-.3 0-.6-.3-.7a1 1 0 0 0-.7-.3Zm14.8 8.2-1.2-.5-1-.8h.4a4.4 4.4 0 0 1-3.1 1.3c-.7 0-1.3 0-1.7-.3-.5-.2-.9-.5-1.2-.8-.2-.4-.3-.8-.3-1.3 0-.6.1-1.1.5-1.5.3-.5.8-.9 1.4-1.2l.4-.3-.2.3c-.4-.3-.7-.7-.8-1l-.3-1.1c0-.5.1-.8.3-1.2.2-.3.5-.5.9-.7.4-.2.8-.3 1.4-.3.6 0 1.2.2 1.6.6.4.3.7.8.7 1.4a2.2 2.2 0 0 1-.9 1.7 6 6 0 0 1-1.1.8v-.3l2.3 2.4h-.3l.5-1.3.2-1.5h1.4c0 .7-.2 1.4-.4 2-.2.6-.4 1.2-.8 1.7v-.4a4.7 4.7 0 0 0 1.8 1.2l-.5 1.1Zm-4.8-1.2a2.6 2.6 0 0 0 2-1v.4l-2.7-2.8h.7l-.4.2a5 5 0 0 0-.8.6 2 2 0 0 0-.4.6l-.1.7c0 .4.1.7.4 1 .3.2.7.3 1.3.3Zm.3-7c-.4 0-.6 0-.8.2a1 1 0 0 0-.3.8v.4l.4.5.5.6h-.4c.6-.3 1-.5 1.2-.8.2-.2.4-.5.4-.8 0-.3-.1-.6-.3-.7a1 1 0 0 0-.7-.3Zm14.7 8.2-1.1-.5-1-.8h.3a4.4 4.4 0 0 1-3 1.3c-.7 0-1.3 0-1.8-.3-.5-.2-.8-.5-1.1-.8a2 2 0 0 1-.4-1.3c0-.6.2-1.1.5-1.5.4-.5.8-.9 1.5-1.2l.4-.3-.3.3-.8-1-.3-1.1c0-.5.1-.8.4-1.2.2-.3.5-.5.9-.7.3-.2.8-.3 1.3-.3.7 0 1.2.2 1.7.6.4.3.6.8.6 1.4a2.2 2.2 0 0 1-.8 1.7 6 6 0 0 1-1.2.8v-.3l2.4 2.4h-.4l.5-1.3.3-1.5h1.3c0 .7-.1 1.4-.3 2l-.8 1.7v-.4a4.7 4.7 0 0 0 1.8 1.2l-.6 1.1Zm-4.8-1.2a2.6 2.6 0 0 0 2.1-1v.4l-2.8-2.8h.7l-.4.2a5 5 0 0 0-.7.6 2 2 0 0 0-.4.6l-.2.7c0 .4.2.7.5 1 .3.2.7.3 1.2.3Zm.3-7c-.3 0-.6 0-.8.2a1 1 0 0 0-.3.8l.1.4c0 .2.2.3.3.5l.6.6h-.4c.5-.3.9-.5 1.1-.8.3-.2.4-.5.4-.8 0-.3 0-.6-.3-.7a1 1 0 0 0-.7-.3Zm14.8 8.2-1.2-.5-1-.8h.4a4.4 4.4 0 0 1-3.1 1.3c-.7 0-1.3 0-1.7-.3-.5-.2-.9-.5-1.2-.8-.2-.4-.3-.8-.3-1.3 0-.6.1-1.1.5-1.5.3-.5.8-.9 1.4-1.2l.4-.3-.2.3c-.4-.3-.7-.7-.8-1l-.3-1.1c0-.5.1-.8.3-1.2.2-.3.5-.5.9-.7.4-.2.8-.3 1.4-.3.6 0 1.2.2 1.6.6.4.3.7.8.7 1.4a2.2 2.2 0 0 1-.9 1.7 6 6 0 0 1-1.1.8v-.3l2.3 2.4h-.3l.5-1.3.2-1.5h1.4c0 .7-.2 1.4-.4 2-.2.6-.4 1.2-.8 1.7v-.4a4.7 4.7 0 0 0 1.8 1.2l-.5 1.1Zm-4.8-1.2a2.6 2.6 0 0 0 2-1v.4L356 147h.7l-.4.2a5 5 0 0 0-.8.6 2 2 0 0 0-.4.6l-.1.7c0 .4.1.7.4 1 .3.2.7.3 1.3.3Zm.3-7c-.4 0-.6 0-.8.2a1 1 0 0 0-.3.8v.4l.4.5.5.6h-.4c.6-.3 1-.5 1.2-.8.2-.2.4-.5.4-.8 0-.3-.1-.6-.3-.7a1 1 0 0 0-.7-.3Zm14.7 8.2-1.1-.5-1-.8h.3a4.4 4.4 0 0 1-3 1.3c-.7 0-1.3 0-1.8-.3-.5-.2-.8-.5-1.1-.8a2 2 0 0 1-.4-1.3c0-.6.2-1.1.5-1.5.4-.5.8-.9 1.5-1.2l.4-.3-.3.3-.8-1-.3-1.1c0-.5.1-.8.4-1.2.2-.3.5-.5.9-.7.3-.2.8-.3 1.3-.3.7 0 1.2.2 1.7.6.4.3.6.8.6 1.4a2.2 2.2 0 0 1-.8 1.7 6 6 0 0 1-1.2.8v-.3l2.4 2.4h-.4l.5-1.3.3-1.5h1.3c0 .7-.1 1.4-.3 2l-.8 1.7v-.4a4.7 4.7 0 0 0 1.8 1.2l-.6 1.1Zm-4.8-1.2a2.6 2.6 0 0 0 2.1-1v.4L366 147h.7l-.4.2a5 5 0 0 0-.7.6 2 2 0 0 0-.4.6l-.2.7c0 .4.2.7.5 1 .3.2.7.3 1.2.3Zm.3-7c-.3 0-.6 0-.8.2a1 1 0 0 0-.3.8l.1.4c0 .2.2.3.3.5l.6.6h-.4c.5-.3.9-.5 1.1-.8.3-.2.4-.5.4-.8 0-.3 0-.6-.3-.7a1 1 0 0 0-.7-.3Zm14.8 8.2-1.2-.5-1-.8h.4a4.4 4.4 0 0 1-3.1 1.3c-.7 0-1.3 0-1.7-.3-.5-.2-.9-.5-1.2-.8-.2-.4-.3-.8-.3-1.3 0-.6.1-1.1.5-1.5.3-.5.8-.9 1.4-1.2l.4-.3-.2.3c-.4-.3-.7-.7-.8-1l-.3-1.1c0-.5.1-.8.3-1.2.2-.3.5-.5.9-.7.4-.2.8-.3 1.4-.3.6 0 1.2.2 1.6.6.4.3.7.8.7 1.4a2.2 2.2 0 0 1-.9 1.7 6 6 0 0 1-1.1.8v-.3l2.3 2.4h-.3l.5-1.3.2-1.5h1.4c0 .7-.2 1.4-.4 2-.2.6-.4 1.2-.8 1.7v-.4a4.7 4.7 0 0 0 1.8 1.2l-.5 1.1Zm-4.8-1.2a2.6 2.6 0 0 0 2-1v.4l-2.7-2.8h.7l-.4.2a5 5 0 0 0-.8.6 2 2 0 0 0-.4.6l-.1.7c0 .4.1.7.4 1 .3.2.7.3 1.3.3Zm.3-7c-.4 0-.6 0-.8.2a1 1 0 0 0-.3.8v.4l.4.5.5.6h-.4c.6-.3 1-.5 1.2-.8.2-.2.4-.5.4-.8 0-.3-.1-.6-.3-.7a1 1 0 0 0-.7-.3Zm10.6 9.8-.8-.5c.3-.3.5-.5.6-.8l.2-.8.4.4h-1.3v-1.8h1.8v1.2c0 .4 0 .8-.2 1.2-.1.4-.4.7-.8 1.1Zm-.9-6.5V145h1.8v1.8h-1.8Zm-357.9 27-.7-.5c.3-.3.5-.5.6-.8l.1-.8.5.4h-1.3v-1.8h1.8v1.2c0 .4 0 .8-.3 1.2-.1.4-.4.7-.7 1.1Zm-.8-6.5v-1.8h1.8v1.8h-1.8Zm11 6.5-.7-.5c.3-.3.5-.5.6-.8l.2-.8.4.4h-1.3v-1.8h1.8v1.2c0 .4 0 .8-.2 1.2-.1.4-.4.7-.8 1.1Zm-.8-6.5v-1.8h1.8v1.8h-1.8Zm11.1 6.5-.7-.5c.3-.3.5-.5.6-.8l.1-.8.5.4h-1.3v-1.8h1.8v1.2c0 .4 0 .8-.3 1.2-.1.4-.4.7-.7 1.1Zm-.8-6.5v-1.8h1.8v1.8h-1.8Zm11.1 6.5-.8-.5c.3-.3.5-.5.6-.8l.2-.8.4.4h-1.3v-1.8H61v1.2c0 .4 0 .8-.2 1.2-.1.4-.4.7-.8 1.1Zm-.9-6.5v-1.8H61v1.8h-1.8Zm11.1 6.5-.7-.5c.3-.3.5-.5.6-.8l.1-.8.5.4h-1.3v-1.8h1.8v1.2c0 .4 0 .8-.3 1.2-.1.4-.4.7-.7 1.1Zm-.8-6.5v-1.8h1.8v1.8h-1.8Zm11 6.5-.7-.5c.3-.3.5-.5.6-.8l.2-.8.4.4h-1.3v-1.8h1.8v1.2c0 .4 0 .8-.2 1.2-.1.4-.4.7-.8 1.1Zm-.8-6.5v-1.8h1.8v1.8h-1.8Zm11.1 6.5-.7-.5c.3-.3.5-.5.6-.8l.1-.8.5.4h-1.3v-1.8h1.8v1.2c0 .4 0 .8-.3 1.2-.1.4-.4.7-.7 1.1Zm-.8-6.5v-1.8h1.8v1.8h-1.8Zm10.2 4.8v-1.8h1.8v1.8h-1.8Zm10.3 0v-1.8h1.8v1.8h-1.8Zm15.2.1-1.1-.5-1-.8h.3a4.4 4.4 0 0 1-3 1.3c-.7 0-1.3 0-1.8-.3-.5-.2-.8-.5-1.1-.8a2 2 0 0 1-.4-1.3c0-.6.2-1.1.5-1.5.4-.5.8-.9 1.5-1.2l.4-.3-.3.3-.8-1-.3-1.1c0-.5.1-.8.4-1.2.2-.3.5-.5.9-.7.3-.2.8-.3 1.3-.3.7 0 1.2.2 1.7.6.4.3.6.8.6 1.4a2.2 2.2 0 0 1-.8 1.7 6 6 0 0 1-1.2.8v-.3l2.4 2.4h-.4l.5-1.3.3-1.5h1.3c0 .7-.1 1.4-.3 2l-.8 1.7v-.4a4.7 4.7 0 0 0 1.8 1.2l-.6 1.1Zm-4.8-1.2a2.6 2.6 0 0 0 2.1-1v.4l-2.8-2.8h.7l-.4.2a5 5 0 0 0-.7.6 2 2 0 0 0-.4.6l-.2.7c0 .4.2.7.5 1 .3.2.7.3 1.2.3Zm.3-7c-.3 0-.6 0-.8.2a1 1 0 0 0-.3.8l.1.4c0 .2.2.3.3.5l.6.6h-.4c.5-.3.9-.5 1.1-.8.3-.2.4-.5.4-.8 0-.3 0-.6-.3-.7a1 1 0 0 0-.7-.3Zm14.8 8.2-1.2-.5-1-.8h.4a4.4 4.4 0 0 1-3.1 1.3c-.7 0-1.3 0-1.7-.3-.5-.2-.9-.5-1.2-.8-.2-.4-.3-.8-.3-1.3 0-.6.1-1.1.5-1.5.3-.5.8-.9 1.4-1.2l.4-.3-.2.3c-.4-.3-.7-.7-.8-1l-.3-1.1c0-.5.1-.8.3-1.2.2-.3.5-.5.9-.7.4-.2.8-.3 1.4-.3.6 0 1.2.2 1.6.6.4.3.7.8.7 1.4a2.2 2.2 0 0 1-.9 1.7 6 6 0 0 1-1.1.8v-.3l2.3 2.4h-.3l.5-1.3.2-1.5h1.4c0 .7-.2 1.4-.4 2-.2.6-.4 1.2-.8 1.7v-.4a4.7 4.7 0 0 0 1.8 1.2l-.5 1.1ZM131 171a2.6 2.6 0 0 0 2-1v.4l-2.7-2.8h.7l-.4.2a5 5 0 0 0-.8.6 2 2 0 0 0-.4.6l-.1.7c0 .4.1.7.4 1 .3.2.7.3 1.3.3Zm.3-7c-.4 0-.6 0-.8.2a1 1 0 0 0-.3.8v.4l.4.5.5.6h-.4c.6-.3 1-.5 1.2-.8.2-.2.4-.5.4-.8 0-.3-.1-.6-.3-.7a1 1 0 0 0-.7-.3Zm14.8 8.1-1.1-.5-1-.8h.3a4.4 4.4 0 0 1-3 1.3c-.7 0-1.3 0-1.8-.3-.5-.2-.8-.5-1.1-.8a2 2 0 0 1-.4-1.3c0-.6.2-1.1.5-1.5.4-.5.8-.9 1.5-1.2l.4-.3-.3.3-.8-1-.3-1.1c0-.5.1-.8.4-1.2.2-.3.5-.5.9-.7.3-.2.8-.3 1.3-.3.7 0 1.2.2 1.7.6.4.3.6.8.6 1.4a2.2 2.2 0 0 1-.8 1.7 6 6 0 0 1-1.2.8v-.3l2.4 2.4h-.4l.5-1.3.3-1.5h1.3c0 .7-.1 1.4-.3 2l-.8 1.7v-.4a4.7 4.7 0 0 0 1.8 1.2l-.6 1.1Zm-4.8-1.2a2.6 2.6 0 0 0 2.1-1v.4l-2.8-2.8h.7l-.4.2a5 5 0 0 0-.7.6 2 2 0 0 0-.4.6l-.2.7c0 .4.2.7.5 1 .3.2.7.3 1.2.3Zm.3-7c-.3 0-.6 0-.8.2a1 1 0 0 0-.3.8l.1.4c0 .2.2.3.3.5l.6.6h-.4c.5-.3.9-.5 1.1-.8.3-.2.4-.5.4-.8 0-.3 0-.6-.3-.7a1 1 0 0 0-.7-.3Zm14.8 8.2-1.2-.5-1-.8h.4a4.4 4.4 0 0 1-3.1 1.3c-.7 0-1.3 0-1.7-.3-.5-.2-.9-.5-1.2-.8-.2-.4-.3-.8-.3-1.3 0-.6.1-1.1.5-1.5.3-.5.8-.9 1.4-1.2l.4-.3-.2.3c-.4-.3-.7-.7-.8-1l-.3-1.1c0-.5.1-.8.3-1.2.2-.3.5-.5.9-.7.4-.2.8-.3 1.4-.3.6 0 1.2.2 1.6.6.4.3.7.8.7 1.4a2.2 2.2 0 0 1-.9 1.7 6 6 0 0 1-1.1.8v-.3l2.3 2.4h-.3l.5-1.3.2-1.5h1.4c0 .7-.2 1.4-.4 2-.2.6-.4 1.2-.8 1.7v-.4a4.7 4.7 0 0 0 1.8 1.2l-.5 1.1Zm-4.8-1.2a2.6 2.6 0 0 0 2-1v.4l-2.7-2.8h.7l-.4.2a5 5 0 0 0-.8.6 2 2 0 0 0-.4.6l-.1.7c0 .4.1.7.4 1 .3.2.7.3 1.3.3Zm.3-7c-.4 0-.6 0-.8.2a1 1 0 0 0-.3.8v.4l.4.5.5.6h-.4c.6-.3 1-.5 1.2-.8.2-.2.4-.5.4-.8 0-.3-.1-.6-.3-.7a1 1 0 0 0-.7-.3Zm6.1 8.1 3.8-5v.7l-3.6-4.9h2l2.6 3.7h-.5l2.6-3.7h2l-3.7 4.9v-.7l3.8 5h-2l-2.8-3.8h.6L160 172h-2Zm14.7 1.7-.7-.5c.3-.3.5-.5.6-.8l.1-.8.5.4h-1.3v-1.8h1.8v1.2c0 .4 0 .8-.3 1.2-.1.4-.4.7-.7 1.1Zm-.8-6.5v-1.8h1.8v1.8h-1.8Zm20.5 0v-1.8h1.8v1.8h-1.8Zm0 4.8v-1.8h1.8v1.8h-1.8Zm25.5.1-1.2-.5-1-.8h.4a4.4 4.4 0 0 1-3.1 1.3c-.7 0-1.3 0-1.7-.3-.5-.2-.9-.5-1.2-.8-.2-.4-.3-.8-.3-1.3 0-.6.1-1.1.5-1.5.3-.5.8-.9 1.4-1.2l.4-.3-.2.3c-.4-.3-.7-.7-.8-1l-.3-1.1c0-.5.1-.8.3-1.2.2-.3.5-.5.9-.7.4-.2.8-.3 1.4-.3.6 0 1.2.2 1.6.6.4.3.7.8.7 1.4a2.2 2.2 0 0 1-.9 1.7 6 6 0 0 1-1.1.8v-.3l2.3 2.4h-.3l.5-1.3.2-1.5h1.4c0 .7-.2 1.4-.4 2-.2.6-.4 1.2-.8 1.7v-.4a4.7 4.7 0 0 0 1.8 1.2l-.5 1.1ZM213 171a2.6 2.6 0 0 0 2-1v.4l-2.7-2.8h.7l-.4.2a5 5 0 0 0-.8.6 2 2 0 0 0-.4.6l-.1.7c0 .4.1.7.4 1 .3.2.7.3 1.3.3Zm.3-7c-.4 0-.6 0-.8.2a1 1 0 0 0-.3.8v.4l.4.5.5.6h-.4c.6-.3 1-.5 1.2-.8.2-.2.4-.5.4-.8 0-.3-.1-.6-.3-.7a1 1 0 0 0-.7-.3Zm10.2 9.5v-1.7l.3.3-1.8-.3c-.5-.2-1-.4-1.4-.8l.5-1.3a4.8 4.8 0 0 0 3 1c.6 0 1-.1 1.3-.4.3-.2.5-.5.5-.8 0-.3-.1-.6-.3-.7l-1.1-.5-1.4-.3a3 3 0 0 1-1.8-.8c-.4-.4-.6-1-.6-1.6 0-.6.2-1 .4-1.4l1-1c.5-.2 1-.4 1.7-.4l-.3.2v-1.7h1.3v1.7l-.3-.2 1.5.3c.5.1.9.4 1.2.7l-.5 1.3c-.3-.3-.7-.6-1.1-.7a4 4 0 0 0-1.4-.2c-.6 0-1 0-1.4.3-.3.3-.5.6-.5 1 0 .3.1.5.3.7l1 .5 1.4.3a3 3 0 0 1 1.9.8c.4.4.6 1 .6 1.6 0 .5-.1 1-.4 1.3-.2.4-.6.7-1 1l-1.5.4.2-.3v1.7h-1.3Zm6.3-1.5 3.8-5v.7l-3.7-4.9h2l2.6 3.7h-.5l2.6-3.7h2l-3.6 4.9v-.7l3.7 5h-2l-2.7-3.8h.6l-2.8 3.8h-2Zm24.9 1.7-.7-.5c.3-.3.5-.5.6-.8l.1-.8.5.4h-1.3v-1.8h1.8v1.2c0 .4 0 .8-.3 1.2-.1.4-.4.7-.7 1.1Zm-.8-6.5v-1.8h1.8v1.8h-1.8Zm15.2 4.9-1.1-.5-1-.8h.3a4.4 4.4 0 0 1-3 1.3c-.7 0-1.3 0-1.8-.3-.5-.2-.8-.5-1.1-.8a2 2 0 0 1-.4-1.3c0-.6.2-1.1.5-1.5.4-.5.8-.9 1.5-1.2l.4-.3-.3.3-.8-1-.3-1.1c0-.5.1-.8.4-1.2.2-.3.5-.5.9-.7.3-.2.8-.3 1.3-.3.7 0 1.2.2 1.7.6.4.3.6.8.6 1.4a2.2 2.2 0 0 1-.8 1.7 6 6 0 0 1-1.2.8v-.3l2.4 2.4h-.4l.5-1.3.3-1.5h1.3c0 .7-.1 1.4-.3 2l-.8 1.7v-.4a4.7 4.7 0 0 0 1.8 1.2l-.6 1.1Zm-4.8-1.2a2.6 2.6 0 0 0 2.1-1v.4l-2.8-2.8h.7l-.4.2a5 5 0 0 0-.7.6 2 2 0 0 0-.4.6l-.2.7c0 .4.2.7.5 1 .3.2.7.3 1.2.3Zm.3-7c-.3 0-.6 0-.8.2a1 1 0 0 0-.3.8l.1.4c0 .2.2.3.3.5l.6.6h-.4c.5-.3.9-.5 1.1-.8.3-.2.4-.5.4-.8 0-.3 0-.6-.3-.7a1 1 0 0 0-.7-.3Zm14.8 8.2-1.2-.5-1-.8h.4a4.4 4.4 0 0 1-3.1 1.3c-.7 0-1.3 0-1.7-.3-.5-.2-.9-.5-1.2-.8-.2-.4-.3-.8-.3-1.3 0-.6.1-1.1.5-1.5.3-.5.8-.9 1.4-1.2l.4-.3-.2.3c-.4-.3-.7-.7-.8-1l-.3-1.1c0-.5.1-.8.3-1.2.2-.3.5-.5.9-.7.4-.2.8-.3 1.4-.3.6 0 1.2.2 1.6.6.4.3.7.8.7 1.4a2.2 2.2 0 0 1-.9 1.7 6 6 0 0 1-1.1.8v-.3l2.3 2.4h-.3l.5-1.3.2-1.5h1.4c0 .7-.2 1.4-.4 2-.2.6-.4 1.2-.8 1.7v-.4a4.7 4.7 0 0 0 1.8 1.2l-.5 1.1Zm-4.8-1.2a2.6 2.6 0 0 0 2-1v.4l-2.7-2.8h.7l-.4.2a5 5 0 0 0-.8.6 2 2 0 0 0-.4.6l-.1.7c0 .4.1.7.4 1 .3.2.7.3 1.3.3Zm.3-7c-.4 0-.6 0-.8.2a1 1 0 0 0-.3.8v.4l.4.5.5.6h-.4c.6-.3 1-.5 1.2-.8.2-.2.4-.5.4-.8 0-.3-.1-.6-.3-.7a1 1 0 0 0-.7-.3Zm14.7 8.2-1.1-.5-1-.8h.3a4.4 4.4 0 0 1-3 1.3c-.7 0-1.3 0-1.8-.3-.5-.2-.8-.5-1.1-.8a2 2 0 0 1-.4-1.3c0-.6.2-1.1.5-1.5.4-.5.8-.9 1.5-1.2l.4-.3-.3.3-.8-1-.3-1.1c0-.5.1-.8.4-1.2.2-.3.5-.5.9-.7.3-.2.8-.3 1.3-.3.7 0 1.2.2 1.7.6.4.3.6.8.6 1.4a2.2 2.2 0 0 1-.8 1.7 6 6 0 0 1-1.2.8v-.3l2.4 2.4h-.4l.5-1.3.3-1.5h1.3c0 .7-.1 1.4-.3 2l-.8 1.7v-.4a4.7 4.7 0 0 0 1.8 1.2l-.6 1.1Zm-4.8-1.2a2.6 2.6 0 0 0 2.1-1v.4l-2.8-2.8h.7l-.4.2a5 5 0 0 0-.7.6 2 2 0 0 0-.4.6l-.2.7c0 .4.2.7.5 1 .3.2.7.3 1.2.3Zm.3-7c-.3 0-.6 0-.8.2a1 1 0 0 0-.3.8l.1.4c0 .2.2.3.3.5l.6.6h-.4c.5-.3.9-.5 1.1-.8.3-.2.4-.5.4-.8 0-.3 0-.6-.3-.7a1 1 0 0 0-.7-.3Zm14.8 8.2-1.2-.5-1-.8h.4a4.4 4.4 0 0 1-3.1 1.3c-.7 0-1.3 0-1.7-.3-.5-.2-.9-.5-1.2-.8-.2-.4-.3-.8-.3-1.3 0-.6.1-1.1.5-1.5.3-.5.8-.9 1.4-1.2l.4-.3-.2.3c-.4-.3-.7-.7-.8-1l-.3-1.1c0-.5.1-.8.3-1.2.2-.3.5-.5.9-.7.4-.2.8-.3 1.4-.3.6 0 1.2.2 1.6.6.4.3.7.8.7 1.4a2.2 2.2 0 0 1-.9 1.7 6 6 0 0 1-1.1.8v-.3l2.3 2.4h-.3l.5-1.3.2-1.5h1.4c0 .7-.2 1.4-.4 2-.2.6-.4 1.2-.8 1.7v-.4a4.7 4.7 0 0 0 1.8 1.2l-.5 1.1ZM295 171a2.6 2.6 0 0 0 2-1v.4l-2.7-2.8h.7l-.4.2a5 5 0 0 0-.8.6 2 2 0 0 0-.4.6l-.1.7c0 .4.1.7.4 1 .3.2.7.3 1.3.3Zm.3-7c-.4 0-.6 0-.8.2a1 1 0 0 0-.3.8v.4l.4.5.5.6h-.4c.6-.3 1-.5 1.2-.8.2-.2.4-.5.4-.8 0-.3-.1-.6-.3-.7a1 1 0 0 0-.7-.3Zm7 8 3-3.8v.8l-2.8-3.6h2l1.8 2.5h-.6l1.9-2.5h2l-3 3.6v-.8l3.1 3.8h-2l-2-2.6h.6l-2 2.6h-2Zm13.9 1.7-.7-.5c.3-.3.5-.5.6-.8l.1-.8.4.4h-1.2v-1.8h1.8v1.2c0 .4 0 .8-.3 1.2-.1.4-.4.7-.7 1.1Zm-.8-6.5v-1.8h1.8v1.8h-1.8Zm10.2 4.8v-1.8h1.8v1.8h-1.8Zm10.3-4.8v-1.8h1.8v1.8h-1.8Zm0 4.8v-1.8h1.8v1.8h-1.8Zm11.1 1.7-.8-.5c.3-.3.5-.5.6-.8l.2-.8.4.4h-1.3v-1.8h1.8v1.2c0 .4 0 .8-.2 1.2-.1.4-.4.7-.8 1.1Zm-.9-6.5v-1.8h1.8v1.8h-1.8Zm15.3 4.9-1.2-.5-1-.8h.4a4.4 4.4 0 0 1-3.1 1.3c-.7 0-1.3 0-1.7-.3-.5-.2-.9-.5-1.2-.8-.2-.4-.3-.8-.3-1.3 0-.6.1-1.1.5-1.5.3-.5.8-.9 1.4-1.2l.4-.3-.2.3c-.4-.3-.7-.7-.8-1l-.3-1.1c0-.5.1-.8.3-1.2.2-.3.5-.5.9-.7.4-.2.8-.3 1.4-.3.6 0 1.2.2 1.6.6.4.3.7.8.7 1.4a2.2 2.2 0 0 1-.9 1.7 6 6 0 0 1-1.1.8v-.3l2.3 2.4h-.3l.5-1.3.2-1.5h1.4c0 .7-.2 1.4-.4 2-.2.6-.4 1.2-.8 1.7v-.4a4.7 4.7 0 0 0 1.8 1.2l-.5 1.1Zm-4.8-1.2a2.6 2.6 0 0 0 2-1v.4l-2.7-2.8h.7l-.4.2a5 5 0 0 0-.8.6 2 2 0 0 0-.4.6l-.1.7c0 .4.1.7.4 1 .3.2.7.3 1.3.3Zm.3-7c-.4 0-.6 0-.8.2a1 1 0 0 0-.3.8v.4l.4.5.5.6h-.4c.6-.3 1-.5 1.2-.8.2-.2.4-.5.4-.8 0-.3-.1-.6-.3-.7a1 1 0 0 0-.7-.3Zm14.7 8.2-1.1-.5-1-.8h.3a4.4 4.4 0 0 1-3 1.3c-.7 0-1.3 0-1.8-.3-.5-.2-.8-.5-1.1-.8a2 2 0 0 1-.4-1.3c0-.6.2-1.1.5-1.5.4-.5.8-.9 1.5-1.2l.4-.3-.3.3-.8-1-.3-1.1c0-.5.1-.8.4-1.2.2-.3.5-.5.9-.7.3-.2.8-.3 1.3-.3.7 0 1.2.2 1.7.6.4.3.6.8.6 1.4a2.2 2.2 0 0 1-.8 1.7 6 6 0 0 1-1.2.8v-.3l2.4 2.4h-.4l.5-1.3.3-1.5h1.3c0 .7-.1 1.4-.3 2l-.8 1.7v-.4a4.7 4.7 0 0 0 1.8 1.2l-.6 1.1Zm-4.8-1.2a2.6 2.6 0 0 0 2.1-1v.4l-2.8-2.8h.7l-.4.2a5 5 0 0 0-.7.6 2 2 0 0 0-.4.6l-.2.7c0 .4.2.7.5 1 .3.2.7.3 1.2.3Zm.3-7c-.3 0-.6 0-.8.2a1 1 0 0 0-.3.8l.1.4c0 .2.2.3.3.5l.6.6h-.4c.5-.3.9-.5 1.1-.8.3-.2.4-.5.4-.8 0-.3 0-.6-.3-.7a1 1 0 0 0-.7-.3Zm14.8 8.2-1.2-.5-1-.8h.4a4.4 4.4 0 0 1-3.1 1.3c-.7 0-1.3 0-1.7-.3-.5-.2-.9-.5-1.2-.8-.2-.4-.3-.8-.3-1.3 0-.6.1-1.1.5-1.5.3-.5.8-.9 1.4-1.2l.4-.3-.2.3c-.4-.3-.7-.7-.8-1l-.3-1.1c0-.5.1-.8.3-1.2.2-.3.5-.5.9-.7.4-.2.8-.3 1.4-.3.6 0 1.2.2 1.6.6.4.3.7.8.7 1.4a2.2 2.2 0 0 1-.9 1.7 6 6 0 0 1-1.1.8v-.3l2.3 2.4h-.3l.5-1.3.2-1.5h1.4c0 .7-.2 1.4-.4 2-.2.6-.4 1.2-.8 1.7v-.4a4.7 4.7 0 0 0 1.8 1.2l-.5 1.1ZM377 171a2.6 2.6 0 0 0 2-1v.4l-2.7-2.8h.7l-.4.2a5 5 0 0 0-.8.6 2 2 0 0 0-.4.6l-.1.7c0 .4.1.7.4 1 .3.2.7.3 1.3.3Zm.3-7c-.4 0-.6 0-.8.2a1 1 0 0 0-.3.8v.4l.4.5.5.6h-.4c.6-.3 1-.5 1.2-.8.2-.2.4-.5.4-.8 0-.3-.1-.6-.3-.7a1 1 0 0 0-.7-.3Zm14.8 8.1-1.1-.5-1-.8h.3a4.4 4.4 0 0 1-3 1.3c-.7 0-1.3 0-1.8-.3-.5-.2-.8-.5-1.1-.8a2 2 0 0 1-.4-1.3c0-.6.2-1.1.5-1.5.4-.5.8-.9 1.5-1.2l.4-.3-.3.3-.8-1-.3-1.1c0-.5.1-.8.4-1.2.2-.3.5-.5.9-.7.3-.2.8-.3 1.3-.3.7 0 1.2.2 1.7.6.4.3.6.8.6 1.4a2.2 2.2 0 0 1-.8 1.7 6 6 0 0 1-1.2.8v-.3l2.4 2.4h-.4l.5-1.3.3-1.5h1.3c0 .7-.1 1.4-.3 2l-.8 1.7v-.4a4.7 4.7 0 0 0 1.8 1.2l-.6 1.1Zm-4.8-1.2a2.6 2.6 0 0 0 2.1-1v.4l-2.8-2.8h.7l-.4.2a5 5 0 0 0-.7.6 2 2 0 0 0-.4.6l-.2.7c0 .4.2.7.5 1 .3.2.7.3 1.2.3Zm.3-7c-.3 0-.6 0-.8.2a1 1 0 0 0-.3.8l.1.4c0 .2.2.3.3.5l.6.6h-.4c.5-.3.9-.5 1.1-.8.3-.2.4-.5.4-.8 0-.3 0-.6-.3-.7a1 1 0 0 0-.7-.3Zm10.1 7.6v-2.7H395v-1.1h2.6v-2.6h1.2v2.6h2.6v1.1h-2.6v2.7h-1.2Zm-389 22.7-.7-.5c.3-.3.5-.5.6-.8l.1-.8.5.4H7.9v-1.8h1.8v1.2c0 .4 0 .8-.3 1.2-.1.4-.4.7-.7 1.1Zm-.8-6.5V186h1.8v1.8H7.9Zm11.1 6.5-.8-.5c.3-.3.5-.5.6-.8l.2-.8.4.4h-1.3v-1.8H20v1.2c0 .4 0 .8-.2 1.2-.1.4-.4.7-.8 1.1Zm-.9-6.5V186H20v1.8h-1.8Zm11.1 6.5-.7-.5c.3-.3.5-.5.6-.8l.1-.8.5.4h-1.3v-1.8h1.8v1.2c0 .4 0 .8-.3 1.2-.1.4-.4.7-.7 1.1Zm-.8-6.5V186h1.8v1.8h-1.8Zm11 6.5-.7-.5c.3-.3.5-.5.6-.8l.2-.8.4.4h-1.3v-1.8h1.8v1.2c0 .4 0 .8-.2 1.2-.1.4-.4.7-.8 1.1Zm-.8-6.5V186h1.8v1.8h-1.8Zm11.1 6.5-.7-.5c.3-.3.5-.5.6-.8l.1-.8.5.4h-1.3v-1.8h1.8v1.2c0 .4 0 .8-.3 1.2-.1.4-.4.7-.7 1.1Zm-.8-6.5V186h1.8v1.8h-1.8Zm11.1 6.5-.8-.5c.3-.3.5-.5.6-.8l.2-.8.4.4h-1.3v-1.8H61v1.2c0 .4 0 .8-.2 1.2-.1.4-.4.7-.8 1.1Zm-.9-6.5V186H61v1.8h-1.8Zm11.1 6.5-.7-.5c.3-.3.5-.5.6-.8l.1-.8.5.4h-1.3v-1.8h1.8v1.2c0 .4 0 .8-.3 1.2-.1.4-.4.7-.7 1.1Zm-.8-6.5V186h1.8v1.8h-1.8Zm11 6.5-.7-.5c.3-.3.5-.5.6-.8l.2-.8.4.4h-1.3v-1.8h1.8v1.2c0 .4 0 .8-.2 1.2-.1.4-.4.7-.8 1.1Zm-.8-6.5V186h1.8v1.8h-1.8Zm10.3 4.8v-1.8h1.8v1.8h-1.8Zm25.5.1-1.2-.5-1-.8h.4a4.4 4.4 0 0 1-3.1 1.3c-.7 0-1.3 0-1.7-.3-.5-.2-.9-.5-1.2-.8-.2-.4-.3-.8-.3-1.3 0-.6.1-1.1.5-1.5.3-.5.8-.9 1.4-1.2l.4-.3-.2.3c-.4-.3-.7-.7-.8-1l-.3-1.1c0-.5.1-.8.3-1.2.2-.3.5-.5.9-.7.4-.2.8-.3 1.4-.3.6 0 1.2.2 1.6.6.4.3.7.8.7 1.4a2.2 2.2 0 0 1-.9 1.7 6 6 0 0 1-1.1.8v-.3l2.3 2.4h-.3l.5-1.3.2-1.5h1.4c0 .7-.2 1.4-.4 2-.2.6-.4 1.2-.8 1.7v-.4a4.7 4.7 0 0 0 1.8 1.2l-.5 1.1Zm-4.8-1.2a2.6 2.6 0 0 0 2-1v.4L110 188h.7l-.4.2a5 5 0 0 0-.8.6 2 2 0 0 0-.4.6l-.1.7c0 .4.1.7.4 1 .3.2.7.3 1.3.3Zm.3-7c-.4 0-.6 0-.8.2a1 1 0 0 0-.3.8v.4l.4.5.5.6h-.4c.6-.3 1-.5 1.2-.8.2-.2.4-.5.4-.8 0-.3-.1-.6-.3-.7a1 1 0 0 0-.7-.3Zm14.7 8.2-1.1-.5-1-.8h.3a4.4 4.4 0 0 1-3 1.3c-.7 0-1.3 0-1.8-.3-.5-.2-.8-.5-1.1-.8a2 2 0 0 1-.4-1.3c0-.6.2-1.1.5-1.5.4-.5.8-.9 1.5-1.2l.4-.3-.3.3-.8-1-.3-1.1c0-.5.1-.8.4-1.2.2-.3.5-.5.9-.7.3-.2.8-.3 1.3-.3.7 0 1.2.2 1.7.6.4.3.6.8.6 1.4a2.2 2.2 0 0 1-.8 1.7 6 6 0 0 1-1.2.8v-.3l2.4 2.4h-.4l.5-1.3.3-1.5h1.3c0 .7-.1 1.4-.3 2l-.8 1.7v-.4a4.7 4.7 0 0 0 1.8 1.2l-.6 1.1Zm-4.8-1.2a2.6 2.6 0 0 0 2.1-1v.4L120 188h.7l-.4.2a5 5 0 0 0-.7.6 2 2 0 0 0-.4.6l-.2.7c0 .4.2.7.5 1 .3.2.7.3 1.2.3Zm.3-7c-.3 0-.6 0-.8.2a1 1 0 0 0-.3.8l.1.4c0 .2.2.3.3.5l.6.6h-.4c.5-.3.9-.5 1.1-.8.3-.2.4-.5.4-.8 0-.3 0-.6-.3-.7a1 1 0 0 0-.7-.3Zm14.8 8.2-1.2-.5-1-.8h.4a4.4 4.4 0 0 1-3.1 1.3c-.7 0-1.3 0-1.7-.3-.5-.2-.9-.5-1.2-.8-.2-.4-.3-.8-.3-1.3 0-.6.1-1.1.5-1.5.3-.5.8-.9 1.4-1.2l.4-.3-.2.3c-.4-.3-.7-.7-.8-1l-.3-1.1c0-.5.1-.8.3-1.2.2-.3.5-.5.9-.7.4-.2.8-.3 1.4-.3.6 0 1.2.2 1.6.6.4.3.7.8.7 1.4a2.2 2.2 0 0 1-.9 1.7 6 6 0 0 1-1.1.8v-.3l2.3 2.4h-.3l.5-1.3.2-1.5h1.4c0 .7-.2 1.4-.4 2-.2.6-.4 1.2-.8 1.7v-.4a4.7 4.7 0 0 0 1.8 1.2l-.5 1.1Zm-4.8-1.2a2.6 2.6 0 0 0 2-1v.4l-2.7-2.8h.7l-.4.2a5 5 0 0 0-.8.6 2 2 0 0 0-.4.6l-.1.7c0 .4.1.7.4 1 .3.2.7.3 1.3.3Zm.3-7c-.4 0-.6 0-.8.2a1 1 0 0 0-.3.8v.4l.4.5.5.6h-.4c.6-.3 1-.5 1.2-.8.2-.2.4-.5.4-.8 0-.3-.1-.6-.3-.7a1 1 0 0 0-.7-.3Zm14.7 8.2-1.1-.5-1-.8h.3a4.4 4.4 0 0 1-3 1.3c-.7 0-1.3 0-1.8-.3-.5-.2-.8-.5-1.1-.8a2 2 0 0 1-.4-1.3c0-.6.2-1.1.5-1.5.4-.5.8-.9 1.5-1.2l.4-.3-.3.3-.8-1-.3-1.1c0-.5.1-.8.4-1.2.2-.3.5-.5.9-.7.3-.2.8-.3 1.3-.3.7 0 1.2.2 1.7.6.4.3.6.8.6 1.4a2.2 2.2 0 0 1-.8 1.7 6 6 0 0 1-1.2.8v-.3l2.4 2.4h-.4l.5-1.3.3-1.5h1.3c0 .7-.1 1.4-.3 2l-.8 1.7v-.4a4.7 4.7 0 0 0 1.8 1.2l-.6 1.1Zm-4.8-1.2a2.6 2.6 0 0 0 2.1-1v.4l-2.8-2.8h.7l-.4.2a5 5 0 0 0-.7.6 2 2 0 0 0-.4.6l-.2.7c0 .4.2.7.5 1 .3.2.7.3 1.2.3Zm.3-7c-.3 0-.6 0-.8.2a1 1 0 0 0-.3.8l.1.4c0 .2.2.3.3.5l.6.6h-.4c.5-.3.9-.5 1.1-.8.3-.2.4-.5.4-.8 0-.3 0-.6-.3-.7a1 1 0 0 0-.7-.3Zm9.8 3.3V186h1.8v1.8h-1.8Zm0 4.8v-1.8h1.8v1.8h-1.8Zm58.6 0 3.1-3.8v.8l-2.9-3.6h2l1.9 2.5h-.6l1.9-2.5h1.9l-2.9 3.6v-.8l3 3.8h-1.9l-2-2.6h.6l-2.1 2.6h-2Zm30.8 0 3-3.8v.8l-2.8-3.6h2l1.8 2.5h-.6l1.9-2.5h2l-3 3.6v-.8l3.1 3.8h-2l-2-2.6h.6l-2 2.6h-2Zm18.1.1-1.2-.5-1-.8h.4a4.4 4.4 0 0 1-3.1 1.3c-.7 0-1.3 0-1.7-.3-.5-.2-.9-.5-1.2-.8-.2-.4-.3-.8-.3-1.3 0-.6.1-1.1.5-1.5.3-.5.8-.9 1.4-1.2l.4-.3-.2.3c-.4-.3-.7-.7-.8-1l-.3-1.1c0-.5.1-.8.3-1.2.2-.3.5-.5.9-.7.4-.2.8-.3 1.4-.3.6 0 1.2.2 1.6.6.4.3.7.8.7 1.4a2.2 2.2 0 0 1-.9 1.7 6 6 0 0 1-1.1.8v-.3l2.3 2.4h-.3l.5-1.3.2-1.5h1.4c0 .7-.2 1.4-.4 2-.2.6-.4 1.2-.8 1.7v-.4a4.7 4.7 0 0 0 1.8 1.2l-.5 1.1Zm-4.8-1.2a2.6 2.6 0 0 0 2-1v.4l-2.7-2.8h.7l-.4.2a5 5 0 0 0-.8.6 2 2 0 0 0-.4.6l-.1.7c0 .4.1.7.4 1 .3.2.7.3 1.3.3Zm.3-7c-.4 0-.6 0-.8.2a1 1 0 0 0-.3.8v.4l.4.5.5.6h-.4c.6-.3 1-.5 1.2-.8.2-.2.4-.5.4-.8 0-.3-.1-.6-.3-.7a1 1 0 0 0-.7-.3Zm14.7 8.2-1.1-.5-1-.8h.3a4.4 4.4 0 0 1-3 1.3c-.7 0-1.3 0-1.8-.3-.5-.2-.8-.5-1.1-.8a2 2 0 0 1-.4-1.3c0-.6.2-1.1.5-1.5.4-.5.8-.9 1.5-1.2l.4-.3-.3.3-.8-1-.3-1.1c0-.5.1-.8.4-1.2.2-.3.5-.5.9-.7.3-.2.8-.3 1.3-.3.7 0 1.2.2 1.7.6.4.3.6.8.6 1.4a2.2 2.2 0 0 1-.8 1.7 6 6 0 0 1-1.2.8v-.3l2.4 2.4h-.4l.5-1.3.3-1.5h1.3c0 .7-.1 1.4-.3 2l-.8 1.7v-.4a4.7 4.7 0 0 0 1.8 1.2l-.6 1.1Zm-4.8-1.2a2.6 2.6 0 0 0 2.1-1v.4l-2.8-2.8h.7l-.4.2a5 5 0 0 0-.7.6 2 2 0 0 0-.4.6l-.2.7c0 .4.2.7.5 1 .3.2.7.3 1.2.3Zm.3-7c-.3 0-.6 0-.8.2a1 1 0 0 0-.3.8l.1.4c0 .2.2.3.3.5l.6.6h-.4c.5-.3.9-.5 1.1-.8.3-.2.4-.5.4-.8 0-.3 0-.6-.3-.7a1 1 0 0 0-.7-.3Zm14.8 8.2-1.2-.5-1-.8h.4a4.4 4.4 0 0 1-3.1 1.3c-.7 0-1.3 0-1.7-.3-.5-.2-.9-.5-1.2-.8-.2-.4-.3-.8-.3-1.3 0-.6.1-1.1.5-1.5.3-.5.8-.9 1.4-1.2l.4-.3-.2.3c-.4-.3-.7-.7-.8-1l-.3-1.1c0-.5.1-.8.3-1.2.2-.3.5-.5.9-.7.4-.2.8-.3 1.4-.3.6 0 1.2.2 1.6.6.4.3.7.8.7 1.4a2.2 2.2 0 0 1-.9 1.7 6 6 0 0 1-1.1.8v-.3l2.3 2.4h-.3l.5-1.3.2-1.5h1.4c0 .7-.2 1.4-.4 2-.2.6-.4 1.2-.8 1.7v-.4a4.7 4.7 0 0 0 1.8 1.2l-.5 1.1Zm-4.8-1.2a2.6 2.6 0 0 0 2-1v.4L274 188h.7l-.4.2a5 5 0 0 0-.8.6 2 2 0 0 0-.4.6l-.1.7c0 .4.1.7.4 1 .3.2.7.3 1.3.3Zm.3-7c-.4 0-.6 0-.8.2a1 1 0 0 0-.3.8v.4l.4.5.5.6h-.4c.6-.3 1-.5 1.2-.8.2-.2.4-.5.4-.8 0-.3-.1-.6-.3-.7a1 1 0 0 0-.7-.3Zm14.7 8.2-1.1-.5-1-.8h.3a4.4 4.4 0 0 1-3 1.3c-.7 0-1.3 0-1.8-.3-.5-.2-.8-.5-1.1-.8a2 2 0 0 1-.4-1.3c0-.6.2-1.1.5-1.5.4-.5.8-.9 1.5-1.2l.4-.3-.3.3-.8-1-.3-1.1c0-.5.1-.8.4-1.2.2-.3.5-.5.9-.7.3-.2.8-.3 1.3-.3.7 0 1.2.2 1.7.6.4.3.6.8.6 1.4a2.2 2.2 0 0 1-.8 1.7 6 6 0 0 1-1.2.8v-.3l2.4 2.4h-.4l.5-1.3.3-1.5h1.3c0 .7-.1 1.4-.3 2l-.8 1.7v-.4a4.7 4.7 0 0 0 1.8 1.2l-.6 1.1Zm-4.8-1.2a2.6 2.6 0 0 0 2.1-1v.4L284 188h.7l-.4.2a5 5 0 0 0-.7.6 2 2 0 0 0-.4.6l-.2.7c0 .4.2.7.5 1 .3.2.7.3 1.2.3Zm.3-7c-.3 0-.6 0-.8.2a1 1 0 0 0-.3.8l.1.4c0 .2.2.3.3.5l.6.6h-.4c.5-.3.9-.5 1.1-.8.3-.2.4-.5.4-.8 0-.3 0-.6-.3-.7a1 1 0 0 0-.7-.3Zm9.8 8.1v-1.8h1.8v1.8h-1.8Zm61.5 0v-1.8h1.8v1.8h-1.8Zm15.2.1-1.1-.5-1-.8h.3a4.4 4.4 0 0 1-3 1.3c-.7 0-1.3 0-1.8-.3-.5-.2-.8-.5-1.1-.8a2 2 0 0 1-.4-1.3c0-.6.2-1.1.5-1.5.4-.5.8-.9 1.5-1.2l.4-.3-.3.3-.8-1-.3-1.1c0-.5.1-.8.4-1.2.2-.3.5-.5.9-.7.3-.2.8-.3 1.3-.3.7 0 1.2.2 1.7.6.4.3.6.8.6 1.4a2.2 2.2 0 0 1-.8 1.7 6 6 0 0 1-1.2.8v-.3l2.4 2.4h-.4l.5-1.3.3-1.5h1.3c0 .7-.1 1.4-.3 2l-.8 1.7v-.4a4.7 4.7 0 0 0 1.8 1.2l-.6 1.1Zm-4.8-1.2a2.6 2.6 0 0 0 2.1-1v.4L366 188h.7l-.4.2a5 5 0 0 0-.7.6 2 2 0 0 0-.4.6l-.2.7c0 .4.2.7.5 1 .3.2.7.3 1.2.3Zm.3-7c-.3 0-.6 0-.8.2a1 1 0 0 0-.3.8l.1.4c0 .2.2.3.3.5l.6.6h-.4c.5-.3.9-.5 1.1-.8.3-.2.4-.5.4-.8 0-.3 0-.6-.3-.7a1 1 0 0 0-.7-.3Zm14.8 8.2-1.2-.5-1-.8h.4a4.4 4.4 0 0 1-3.1 1.3c-.7 0-1.3 0-1.7-.3-.5-.2-.9-.5-1.2-.8-.2-.4-.3-.8-.3-1.3 0-.6.1-1.1.5-1.5.3-.5.8-.9 1.4-1.2l.4-.3-.2.3c-.4-.3-.7-.7-.8-1l-.3-1.1c0-.5.1-.8.3-1.2.2-.3.5-.5.9-.7.4-.2.8-.3 1.4-.3.6 0 1.2.2 1.6.6.4.3.7.8.7 1.4a2.2 2.2 0 0 1-.9 1.7 6 6 0 0 1-1.1.8v-.3l2.3 2.4h-.3l.5-1.3.2-1.5h1.4c0 .7-.2 1.4-.4 2-.2.6-.4 1.2-.8 1.7v-.4a4.7 4.7 0 0 0 1.8 1.2l-.5 1.1Zm-4.8-1.2a2.6 2.6 0 0 0 2-1v.4l-2.7-2.8h.7l-.4.2a5 5 0 0 0-.8.6 2 2 0 0 0-.4.6l-.1.7c0 .4.1.7.4 1 .3.2.7.3 1.3.3Zm.3-7c-.4 0-.6 0-.8.2a1 1 0 0 0-.3.8v.4l.4.5.5.6h-.4c.6-.3 1-.5 1.2-.8.2-.2.4-.5.4-.8 0-.3-.1-.6-.3-.7a1 1 0 0 0-.7-.3Zm14.7 8.2-1.1-.5-1-.8h.3a4.4 4.4 0 0 1-3 1.3c-.7 0-1.3 0-1.8-.3-.5-.2-.8-.5-1.1-.8a2 2 0 0 1-.4-1.3c0-.6.2-1.1.5-1.5.4-.5.8-.9 1.5-1.2l.4-.3-.3.3-.8-1-.3-1.1c0-.5.1-.8.4-1.2.2-.3.5-.5.9-.7.3-.2.8-.3 1.3-.3.7 0 1.2.2 1.7.6.4.3.6.8.6 1.4a2.2 2.2 0 0 1-.8 1.7 6 6 0 0 1-1.2.8v-.3l2.4 2.4h-.4l.5-1.3.3-1.5h1.3c0 .7-.1 1.4-.3 2l-.8 1.7v-.4a4.7 4.7 0 0 0 1.8 1.2l-.6 1.1Zm-4.8-1.2a2.6 2.6 0 0 0 2.1-1v.4l-2.8-2.8h.7l-.4.2a5 5 0 0 0-.7.6 2 2 0 0 0-.4.6l-.2.7c0 .4.2.7.5 1 .3.2.7.3 1.2.3Zm.3-7c-.3 0-.6 0-.8.2a1 1 0 0 0-.3.8l.1.4c0 .2.2.3.3.5l.6.6h-.4c.5-.3.9-.5 1.1-.8.3-.2.4-.5.4-.8 0-.3 0-.6-.3-.7a1 1 0 0 0-.7-.3Zm14.8 8.2-1.2-.5-1-.8h.4a4.4 4.4 0 0 1-3.1 1.3c-.7 0-1.3 0-1.7-.3-.5-.2-.9-.5-1.2-.8-.2-.4-.3-.8-.3-1.3 0-.6.1-1.1.5-1.5.3-.5.8-.9 1.4-1.2l.4-.3-.2.3c-.4-.3-.7-.7-.8-1l-.3-1.1c0-.5.1-.8.3-1.2.2-.3.5-.5.9-.7.4-.2.8-.3 1.4-.3.6 0 1.2.2 1.6.6.4.3.7.8.7 1.4a2.2 2.2 0 0 1-.9 1.7 6 6 0 0 1-1.1.8v-.3l2.3 2.4h-.3l.5-1.3.2-1.5h1.4c0 .7-.2 1.4-.4 2-.2.6-.4 1.2-.8 1.7v-.4a4.7 4.7 0 0 0 1.8 1.2l-.5 1.1Zm-4.8-1.2a2.6 2.6 0 0 0 2-1v.4L397 188h.7l-.4.2a5 5 0 0 0-.8.6 2 2 0 0 0-.4.6l-.1.7c0 .4.1.7.4 1 .3.2.7.3 1.3.3Zm.3-7c-.4 0-.6 0-.8.2a1 1 0 0 0-.3.8v.4l.4.5.5.6h-.4c.6-.3 1-.5 1.2-.8.2-.2.4-.5.4-.8 0-.3-.1-.6-.3-.7a1 1 0 0 0-.7-.3ZM49.7 214.7l-.7-.5c.3-.3.5-.5.6-.8l.1-.8.5.4h-1.3v-1.8h1.8v1.2c0 .4 0 .8-.3 1.2-.1.4-.4.7-.7 1.1Zm-.8-6.5v-1.8h1.8v1.8h-1.8Zm11.1 6.5-.8-.5c.3-.3.5-.5.6-.8l.2-.8.4.4h-1.3v-1.8H61v1.2c0 .4 0 .8-.2 1.2-.1.4-.4.7-.8 1.1Zm-.9-6.5v-1.8H61v1.8h-1.8Zm11.1 6.5-.7-.5c.3-.3.5-.5.6-.8l.1-.8.5.4h-1.3v-1.8h1.8v1.2c0 .4 0 .8-.3 1.2-.1.4-.4.7-.7 1.1Zm-.8-6.5v-1.8h1.8v1.8h-1.8Zm11 6.5-.7-.5c.3-.3.5-.5.6-.8l.2-.8.4.4h-1.3v-1.8h1.8v1.2c0 .4 0 .8-.2 1.2-.1.4-.4.7-.8 1.1Zm-.8-6.5v-1.8h1.8v1.8h-1.8Zm21.4 6.5-.8-.5c.3-.3.5-.5.6-.8l.2-.8.4.4h-1.3v-1.8h1.8v1.2c0 .4 0 .8-.2 1.2-.1.4-.4.7-.8 1.1Zm-.9-6.5v-1.8h1.8v1.8h-1.8Zm15.3 4.9-1.2-.5-1-.8h.4a4.4 4.4 0 0 1-3.1 1.3c-.7 0-1.3 0-1.7-.3-.5-.2-.9-.5-1.2-.8-.2-.4-.3-.8-.3-1.3 0-.6.1-1.1.5-1.5.3-.5.8-.9 1.4-1.2l.4-.3-.2.3c-.4-.3-.7-.7-.8-1l-.3-1.1c0-.5.1-.8.3-1.2.2-.3.5-.5.9-.7.4-.2.8-.3 1.4-.3.6 0 1.2.2 1.6.6.4.3.7.8.7 1.4a2.2 2.2 0 0 1-.9 1.7 6 6 0 0 1-1.1.8v-.3l2.3 2.4h-.3l.5-1.3.2-1.5h1.4c0 .7-.2 1.4-.4 2-.2.6-.4 1.2-.8 1.7v-.4a4.7 4.7 0 0 0 1.8 1.2l-.5 1.1Zm-4.8-1.2a2.6 2.6 0 0 0 2-1v.4l-2.7-2.8h.7l-.4.2a5 5 0 0 0-.8.6 2 2 0 0 0-.4.6l-.1.7c0 .4.1.7.4 1 .3.2.7.3 1.3.3Zm.3-7c-.4 0-.6 0-.8.2a1 1 0 0 0-.3.8v.4l.4.5.5.6h-.4c.6-.3 1-.5 1.2-.8.2-.2.4-.5.4-.8 0-.3-.1-.6-.3-.7a1 1 0 0 0-.7-.3Zm14.7 8.2-1.1-.5-1-.8h.3a4.4 4.4 0 0 1-3 1.3c-.7 0-1.3 0-1.8-.3-.5-.2-.8-.5-1.1-.8a2 2 0 0 1-.4-1.3c0-.6.2-1.1.5-1.5.4-.5.8-.9 1.5-1.2l.4-.3-.3.3-.8-1-.3-1.1c0-.5.1-.8.4-1.2.2-.3.5-.5.9-.7.3-.2.8-.3 1.3-.3.7 0 1.2.2 1.7.6.4.3.6.8.6 1.4a2.2 2.2 0 0 1-.8 1.7 6 6 0 0 1-1.2.8v-.3l2.4 2.4h-.4l.5-1.3.3-1.5h1.3c0 .7-.1 1.4-.3 2l-.8 1.7v-.4a4.7 4.7 0 0 0 1.8 1.2l-.6 1.1Zm-4.8-1.2a2.6 2.6 0 0 0 2.1-1v.4l-2.8-2.8h.7l-.4.2a5 5 0 0 0-.7.6 2 2 0 0 0-.4.6l-.2.7c0 .4.2.7.5 1 .3.2.7.3 1.2.3Zm.3-7c-.3 0-.6 0-.8.2a1 1 0 0 0-.3.8l.1.4c0 .2.2.3.3.5l.6.6h-.4c.5-.3.9-.5 1.1-.8.3-.2.4-.5.4-.8 0-.3 0-.6-.3-.7a1 1 0 0 0-.7-.3Zm14.8 8.2-1.2-.5-1-.8h.4a4.4 4.4 0 0 1-3.1 1.3c-.7 0-1.3 0-1.7-.3-.5-.2-.9-.5-1.2-.8-.2-.4-.3-.8-.3-1.3 0-.6.1-1.1.5-1.5.3-.5.8-.9 1.4-1.2l.4-.3-.2.3c-.4-.3-.7-.7-.8-1l-.3-1.1c0-.5.1-.8.3-1.2.2-.3.5-.5.9-.7.4-.2.8-.3 1.4-.3.6 0 1.2.2 1.6.6.4.3.7.8.7 1.4a2.2 2.2 0 0 1-.9 1.7 6 6 0 0 1-1.1.8v-.3l2.3 2.4h-.3l.5-1.3.2-1.5h1.4c0 .7-.2 1.4-.4 2-.2.6-.4 1.2-.8 1.7v-.4a4.7 4.7 0 0 0 1.8 1.2l-.5 1.1ZM131 212a2.6 2.6 0 0 0 2-1v.4l-2.7-2.8h.7l-.4.2a5 5 0 0 0-.8.6 2 2 0 0 0-.4.6l-.1.7c0 .4.1.7.4 1 .3.2.7.3 1.3.3Zm.3-7c-.4 0-.6 0-.8.2a1 1 0 0 0-.3.8v.4l.4.5.5.6h-.4c.6-.3 1-.5 1.2-.8.2-.2.4-.5.4-.8 0-.3-.1-.6-.3-.7a1 1 0 0 0-.7-.3Zm10.2 9.5v-1.7l.3.3-1.8-.3c-.5-.2-1-.4-1.4-.8l.5-1.3a4.8 4.8 0 0 0 3 1c.6 0 1-.1 1.3-.4.3-.2.5-.5.5-.8 0-.3-.1-.6-.3-.7l-1.1-.5-1.4-.3a3 3 0 0 1-1.8-.8c-.4-.4-.6-1-.6-1.6 0-.6.2-1 .4-1.4l1-1c.5-.2 1-.4 1.7-.4l-.3.2v-1.7h1.3v1.7l-.3-.2 1.5.3c.5.1.9.4 1.2.7l-.5 1.3c-.3-.3-.7-.6-1.1-.7a4 4 0 0 0-1.4-.2c-.6 0-1 0-1.4.3-.3.3-.5.6-.5 1 0 .3.1.5.3.7l1 .5 1.4.3a3 3 0 0 1 1.9.8c.4.4.6 1 .6 1.6 0 .5-.1 1-.4 1.3-.2.4-.6.7-1 1l-1.5.4.2-.3v1.7h-1.3ZM169 213l3.1-3.8v.8l-2.9-3.6h2l1.9 2.5h-.6l1.9-2.5h1.9l-2.9 3.6v-.8l3 3.8h-1.9l-2-2.6h.6L171 213h-2Zm18.1.1-1.1-.5-1-.8h.3a4.4 4.4 0 0 1-3 1.3c-.7 0-1.3 0-1.8-.3-.5-.2-.8-.5-1.1-.8a2 2 0 0 1-.4-1.3c0-.6.2-1.1.5-1.5.4-.5.8-.9 1.5-1.2l.4-.3-.3.3-.8-1-.3-1.1c0-.5.1-.8.4-1.2.2-.3.5-.5.9-.7.3-.2.8-.3 1.3-.3.7 0 1.2.2 1.7.6.4.3.6.8.6 1.4a2.2 2.2 0 0 1-.8 1.7 6 6 0 0 1-1.2.8v-.3l2.4 2.4h-.4l.5-1.3.3-1.5h1.3c0 .7-.1 1.4-.3 2l-.8 1.7v-.4a4.7 4.7 0 0 0 1.8 1.2l-.6 1.1Zm-4.8-1.2a2.6 2.6 0 0 0 2.1-1v.4l-2.8-2.8h.7l-.4.2a5 5 0 0 0-.7.6 2 2 0 0 0-.4.6l-.2.7c0 .4.2.7.5 1 .3.2.7.3 1.2.3Zm.3-7c-.3 0-.6 0-.8.2a1 1 0 0 0-.3.8l.1.4c0 .2.2.3.3.5l.6.6h-.4c.5-.3.9-.5 1.1-.8.3-.2.4-.5.4-.8 0-.3 0-.6-.3-.7a1 1 0 0 0-.7-.3Zm14.8 8.2-1.2-.5-1-.8h.4a4.4 4.4 0 0 1-3.1 1.3c-.7 0-1.3 0-1.7-.3-.5-.2-.9-.5-1.2-.8-.2-.4-.3-.8-.3-1.3 0-.6.1-1.1.5-1.5.3-.5.8-.9 1.4-1.2l.4-.3-.2.3c-.4-.3-.7-.7-.8-1l-.3-1.1c0-.5.1-.8.3-1.2.2-.3.5-.5.9-.7.4-.2.8-.3 1.4-.3.6 0 1.2.2 1.6.6.4.3.7.8.7 1.4a2.2 2.2 0 0 1-.9 1.7 6 6 0 0 1-1.1.8v-.3l2.3 2.4h-.3l.5-1.3.2-1.5h1.4c0 .7-.2 1.4-.4 2-.2.6-.4 1.2-.8 1.7v-.4a4.7 4.7 0 0 0 1.8 1.2l-.5 1.1Zm-4.8-1.2a2.6 2.6 0 0 0 2-1v.4l-2.7-2.8h.7l-.4.2a5 5 0 0 0-.8.6 2 2 0 0 0-.4.6l-.1.7c0 .4.1.7.4 1 .3.2.7.3 1.3.3Zm.3-7c-.4 0-.6 0-.8.2a1 1 0 0 0-.3.8v.4l.4.5.5.6h-.4c.6-.3 1-.5 1.2-.8.2-.2.4-.5.4-.8 0-.3-.1-.6-.3-.7a1 1 0 0 0-.7-.3Zm14.7 8.2-1.1-.5-1-.8h.3a4.4 4.4 0 0 1-3 1.3c-.7 0-1.3 0-1.8-.3-.5-.2-.8-.5-1.1-.8a2 2 0 0 1-.4-1.3c0-.6.2-1.1.5-1.5.4-.5.8-.9 1.5-1.2l.4-.3-.3.3-.8-1-.3-1.1c0-.5.1-.8.4-1.2.2-.3.5-.5.9-.7.3-.2.8-.3 1.3-.3.7 0 1.2.2 1.7.6.4.3.6.8.6 1.4a2.2 2.2 0 0 1-.8 1.7 6 6 0 0 1-1.2.8v-.3l2.4 2.4h-.4l.5-1.3.3-1.5h1.3c0 .7-.1 1.4-.3 2l-.8 1.7v-.4a4.7 4.7 0 0 0 1.8 1.2l-.6 1.1Zm-4.8-1.2a2.6 2.6 0 0 0 2.1-1v.4l-2.8-2.8h.7l-.4.2a5 5 0 0 0-.7.6 2 2 0 0 0-.4.6l-.2.7c0 .4.2.7.5 1 .3.2.7.3 1.2.3Zm.3-7c-.3 0-.6 0-.8.2a1 1 0 0 0-.3.8l.1.4c0 .2.2.3.3.5l.6.6h-.4c.5-.3.9-.5 1.1-.8.3-.2.4-.5.4-.8 0-.3 0-.6-.3-.7a1 1 0 0 0-.7-.3Zm14.8 8.2-1.2-.5-1-.8h.4a4.4 4.4 0 0 1-3.1 1.3c-.7 0-1.3 0-1.7-.3-.5-.2-.9-.5-1.2-.8-.2-.4-.3-.8-.3-1.3 0-.6.1-1.1.5-1.5.3-.5.8-.9 1.4-1.2l.4-.3-.2.3c-.4-.3-.7-.7-.8-1l-.3-1.1c0-.5.1-.8.3-1.2.2-.3.5-.5.9-.7.4-.2.8-.3 1.4-.3.6 0 1.2.2 1.6.6.4.3.7.8.7 1.4a2.2 2.2 0 0 1-.9 1.7 6 6 0 0 1-1.1.8v-.3l2.3 2.4h-.3l.5-1.3.2-1.5h1.4c0 .7-.2 1.4-.4 2-.2.6-.4 1.2-.8 1.7v-.4a4.7 4.7 0 0 0 1.8 1.2l-.5 1.1ZM213 212a2.6 2.6 0 0 0 2-1v.4l-2.7-2.8h.7l-.4.2a5 5 0 0 0-.8.6 2 2 0 0 0-.4.6l-.1.7c0 .4.1.7.4 1 .3.2.7.3 1.3.3Zm.3-7c-.4 0-.6 0-.8.2a1 1 0 0 0-.3.8v.4l.4.5.5.6h-.4c.6-.3 1-.5 1.2-.8.2-.2.4-.5.4-.8 0-.3-.1-.6-.3-.7a1 1 0 0 0-.7-.3Zm14.8 8.1-1.1-.5-1-.8h.3a4.4 4.4 0 0 1-3 1.3c-.7 0-1.3 0-1.8-.3-.5-.2-.8-.5-1.1-.8a2 2 0 0 1-.4-1.3c0-.6.2-1.1.5-1.5.4-.5.8-.9 1.5-1.2l.4-.3-.3.3-.8-1-.3-1.1c0-.5.1-.8.4-1.2.2-.3.5-.5.9-.7.3-.2.8-.3 1.3-.3.7 0 1.2.2 1.7.6.4.3.6.8.6 1.4a2.2 2.2 0 0 1-.8 1.7 6 6 0 0 1-1.2.8v-.3l2.4 2.4h-.4l.5-1.3.3-1.5h1.3c0 .7-.1 1.4-.3 2l-.8 1.7v-.4a4.7 4.7 0 0 0 1.8 1.2l-.6 1.1Zm-4.8-1.2a2.6 2.6 0 0 0 2.1-1v.4l-2.8-2.8h.7l-.4.2a5 5 0 0 0-.7.6 2 2 0 0 0-.4.6l-.2.7c0 .4.2.7.5 1 .3.2.7.3 1.2.3Zm.3-7c-.3 0-.6 0-.8.2a1 1 0 0 0-.3.8l.1.4c0 .2.2.3.3.5l.6.6h-.4c.5-.3.9-.5 1.1-.8.3-.2.4-.5.4-.8 0-.3 0-.6-.3-.7a1 1 0 0 0-.7-.3Zm14.8 8.2-1.2-.5-1-.8h.4a4.4 4.4 0 0 1-3.1 1.3c-.7 0-1.3 0-1.7-.3-.5-.2-.9-.5-1.2-.8-.2-.4-.3-.8-.3-1.3 0-.6.1-1.1.5-1.5.3-.5.8-.9 1.4-1.2l.4-.3-.2.3c-.4-.3-.7-.7-.8-1l-.3-1.1c0-.5.1-.8.3-1.2.2-.3.5-.5.9-.7.4-.2.8-.3 1.4-.3.6 0 1.2.2 1.6.6.4.3.7.8.7 1.4a2.2 2.2 0 0 1-.9 1.7 6 6 0 0 1-1.1.8v-.3l2.3 2.4h-.3l.5-1.3.2-1.5h1.4c0 .7-.2 1.4-.4 2-.2.6-.4 1.2-.8 1.7v-.4a4.7 4.7 0 0 0 1.8 1.2l-.5 1.1Zm-4.8-1.2a2.6 2.6 0 0 0 2-1v.4l-2.7-2.8h.7l-.4.2a5 5 0 0 0-.8.6 2 2 0 0 0-.4.6l-.1.7c0 .4.1.7.4 1 .3.2.7.3 1.3.3Zm.3-7c-.4 0-.6 0-.8.2a1 1 0 0 0-.3.8v.4l.4.5.5.6h-.4c.6-.3 1-.5 1.2-.8.2-.2.4-.5.4-.8 0-.3-.1-.6-.3-.7a1 1 0 0 0-.7-.3Zm14.7 8.2-1.1-.5-1-.8h.3a4.4 4.4 0 0 1-3 1.3c-.7 0-1.3 0-1.8-.3-.5-.2-.8-.5-1.1-.8a2 2 0 0 1-.4-1.3c0-.6.2-1.1.5-1.5.4-.5.8-.9 1.5-1.2l.4-.3-.3.3-.8-1-.3-1.1c0-.5.1-.8.4-1.2.2-.3.5-.5.9-.7.3-.2.8-.3 1.3-.3.7 0 1.2.2 1.7.6.4.3.6.8.6 1.4a2.2 2.2 0 0 1-.8 1.7 6 6 0 0 1-1.2.8v-.3l2.4 2.4h-.4l.5-1.3.3-1.5h1.3c0 .7-.1 1.4-.3 2l-.8 1.7v-.4a4.7 4.7 0 0 0 1.8 1.2l-.6 1.1Zm-4.8-1.2a2.6 2.6 0 0 0 2.1-1v.4l-2.8-2.8h.7l-.4.2a5 5 0 0 0-.7.6 2 2 0 0 0-.4.6l-.2.7c0 .4.2.7.5 1 .3.2.7.3 1.2.3Zm.3-7c-.3 0-.6 0-.8.2a1 1 0 0 0-.3.8l.1.4c0 .2.2.3.3.5l.6.6h-.4c.5-.3.9-.5 1.1-.8.3-.2.4-.5.4-.8 0-.3 0-.6-.3-.7a1 1 0 0 0-.7-.3Zm14.8 8.2-1.2-.5-1-.8h.4a4.4 4.4 0 0 1-3.1 1.3c-.7 0-1.3 0-1.7-.3-.5-.2-.9-.5-1.2-.8-.2-.4-.3-.8-.3-1.3 0-.6.1-1.1.5-1.5.3-.5.8-.9 1.4-1.2l.4-.3-.2.3c-.4-.3-.7-.7-.8-1l-.3-1.1c0-.5.1-.8.3-1.2.2-.3.5-.5.9-.7.4-.2.8-.3 1.4-.3.6 0 1.2.2 1.6.6.4.3.7.8.7 1.4a2.2 2.2 0 0 1-.9 1.7 6 6 0 0 1-1.1.8v-.3l2.3 2.4h-.3l.5-1.3.2-1.5h1.4c0 .7-.2 1.4-.4 2-.2.6-.4 1.2-.8 1.7v-.4a4.7 4.7 0 0 0 1.8 1.2l-.5 1.1ZM254 212a2.6 2.6 0 0 0 2-1v.4l-2.7-2.8h.7l-.4.2a5 5 0 0 0-.8.6 2 2 0 0 0-.4.6l-.1.7c0 .4.1.7.4 1 .3.2.7.3 1.3.3Zm.3-7c-.4 0-.6 0-.8.2a1 1 0 0 0-.3.8v.4l.4.5.5.6h-.4c.6-.3 1-.5 1.2-.8.2-.2.4-.5.4-.8 0-.3-.1-.6-.3-.7a1 1 0 0 0-.7-.3Zm14.8 8.1-1.1-.5-1-.8h.3a4.4 4.4 0 0 1-3 1.3c-.7 0-1.3 0-1.8-.3-.5-.2-.8-.5-1.1-.8a2 2 0 0 1-.4-1.3c0-.6.2-1.1.5-1.5.4-.5.8-.9 1.5-1.2l.4-.3-.3.3-.8-1-.3-1.1c0-.5.1-.8.4-1.2.2-.3.5-.5.9-.7.3-.2.8-.3 1.3-.3.7 0 1.2.2 1.7.6.4.3.6.8.6 1.4a2.2 2.2 0 0 1-.8 1.7 6 6 0 0 1-1.2.8v-.3l2.4 2.4h-.4l.5-1.3.3-1.5h1.3c0 .7-.1 1.4-.3 2l-.8 1.7v-.4a4.7 4.7 0 0 0 1.8 1.2l-.6 1.1Zm-4.8-1.2a2.6 2.6 0 0 0 2.1-1v.4l-2.8-2.8h.7l-.4.2a5 5 0 0 0-.7.6 2 2 0 0 0-.4.6l-.2.7c0 .4.2.7.5 1 .3.2.7.3 1.2.3Zm.3-7c-.3 0-.6 0-.8.2a1 1 0 0 0-.3.8l.1.4c0 .2.2.3.3.5l.6.6h-.4c.5-.3.9-.5 1.1-.8.3-.2.4-.5.4-.8 0-.3 0-.6-.3-.7a1 1 0 0 0-.7-.3Zm14.8 8.2-1.2-.5-1-.8h.4a4.4 4.4 0 0 1-3.1 1.3c-.7 0-1.3 0-1.7-.3-.5-.2-.9-.5-1.2-.8-.2-.4-.3-.8-.3-1.3 0-.6.1-1.1.5-1.5.3-.5.8-.9 1.4-1.2l.4-.3-.2.3c-.4-.3-.7-.7-.8-1l-.3-1.1c0-.5.1-.8.3-1.2.2-.3.5-.5.9-.7.4-.2.8-.3 1.4-.3.6 0 1.2.2 1.6.6.4.3.7.8.7 1.4a2.2 2.2 0 0 1-.9 1.7 6 6 0 0 1-1.1.8v-.3l2.3 2.4h-.3l.5-1.3.2-1.5h1.4c0 .7-.2 1.4-.4 2-.2.6-.4 1.2-.8 1.7v-.4a4.7 4.7 0 0 0 1.8 1.2l-.5 1.1Zm-4.8-1.2a2.6 2.6 0 0 0 2-1v.4l-2.7-2.8h.7l-.4.2a5 5 0 0 0-.8.6 2 2 0 0 0-.4.6l-.1.7c0 .4.1.7.4 1 .3.2.7.3 1.3.3Zm.3-7c-.4 0-.6 0-.8.2a1 1 0 0 0-.3.8v.4l.4.5.5.6h-.4c.6-.3 1-.5 1.2-.8.2-.2.4-.5.4-.8 0-.3-.1-.6-.3-.7a1 1 0 0 0-.7-.3Zm6.9 8.1 3-3.8v.8l-2.8-3.6h2l1.8 2.5h-.6l1.9-2.5h2l-3 3.6v-.8l3.1 3.8h-2l-2-2.6h.6l-2 2.6h-2Zm74.6 0v-1.8h1.8v1.8h-1.8Zm15.2.1-1.1-.5-1-.8h.3a4.4 4.4 0 0 1-3 1.3c-.7 0-1.3 0-1.8-.3-.5-.2-.8-.5-1.1-.8a2 2 0 0 1-.4-1.3c0-.6.2-1.1.5-1.5.4-.5.8-.9 1.5-1.2l.4-.3-.3.3-.8-1-.3-1.1c0-.5.1-.8.4-1.2.2-.3.5-.5.9-.7.3-.2.8-.3 1.3-.3.7 0 1.2.2 1.7.6.4.3.6.8.6 1.4a2.2 2.2 0 0 1-.8 1.7 6 6 0 0 1-1.2.8v-.3l2.4 2.4h-.4l.5-1.3.3-1.5h1.3c0 .7-.1 1.4-.3 2l-.8 1.7v-.4a4.7 4.7 0 0 0 1.8 1.2l-.6 1.1Zm-4.8-1.2a2.6 2.6 0 0 0 2.1-1v.4l-2.8-2.8h.7l-.4.2a5 5 0 0 0-.7.6 2 2 0 0 0-.4.6l-.2.7c0 .4.2.7.5 1 .3.2.7.3 1.2.3Zm.3-7c-.3 0-.6 0-.8.2a1 1 0 0 0-.3.8l.1.4c0 .2.2.3.3.5l.6.6h-.4c.5-.3.9-.5 1.1-.8.3-.2.4-.5.4-.8 0-.3 0-.6-.3-.7a1 1 0 0 0-.7-.3Zm14.8 8.2-1.2-.5-1-.8h.4a4.4 4.4 0 0 1-3.1 1.3c-.7 0-1.3 0-1.7-.3-.5-.2-.9-.5-1.2-.8-.2-.4-.3-.8-.3-1.3 0-.6.1-1.1.5-1.5.3-.5.8-.9 1.4-1.2l.4-.3-.2.3c-.4-.3-.7-.7-.8-1l-.3-1.1c0-.5.1-.8.3-1.2.2-.3.5-.5.9-.7.4-.2.8-.3 1.4-.3.6 0 1.2.2 1.6.6.4.3.7.8.7 1.4a2.2 2.2 0 0 1-.9 1.7 6 6 0 0 1-1.1.8v-.3l2.3 2.4h-.3l.5-1.3.2-1.5h1.4c0 .7-.2 1.4-.4 2-.2.6-.4 1.2-.8 1.7v-.4a4.7 4.7 0 0 0 1.8 1.2l-.5 1.1ZM377 212a2.6 2.6 0 0 0 2-1v.4l-2.7-2.8h.7l-.4.2a5 5 0 0 0-.8.6 2 2 0 0 0-.4.6l-.1.7c0 .4.1.7.4 1 .3.2.7.3 1.3.3Zm.3-7c-.4 0-.6 0-.8.2a1 1 0 0 0-.3.8v.4l.4.5.5.6h-.4c.6-.3 1-.5 1.2-.8.2-.2.4-.5.4-.8 0-.3-.1-.6-.3-.7a1 1 0 0 0-.7-.3Zm14.8 8.1-1.1-.5-1-.8h.3a4.4 4.4 0 0 1-3 1.3c-.7 0-1.3 0-1.8-.3-.5-.2-.8-.5-1.1-.8a2 2 0 0 1-.4-1.3c0-.6.2-1.1.5-1.5.4-.5.8-.9 1.5-1.2l.4-.3-.3.3-.8-1-.3-1.1c0-.5.1-.8.4-1.2.2-.3.5-.5.9-.7.3-.2.8-.3 1.3-.3.7 0 1.2.2 1.7.6.4.3.6.8.6 1.4a2.2 2.2 0 0 1-.8 1.7 6 6 0 0 1-1.2.8v-.3l2.4 2.4h-.4l.5-1.3.3-1.5h1.3c0 .7-.1 1.4-.3 2l-.8 1.7v-.4a4.7 4.7 0 0 0 1.8 1.2l-.6 1.1Zm-4.8-1.2a2.6 2.6 0 0 0 2.1-1v.4l-2.8-2.8h.7l-.4.2a5 5 0 0 0-.7.6 2 2 0 0 0-.4.6l-.2.7c0 .4.2.7.5 1 .3.2.7.3 1.2.3Zm.3-7c-.3 0-.6 0-.8.2a1 1 0 0 0-.3.8l.1.4c0 .2.2.3.3.5l.6.6h-.4c.5-.3.9-.5 1.1-.8.3-.2.4-.5.4-.8 0-.3 0-.6-.3-.7a1 1 0 0 0-.7-.3Zm14.8 8.2-1.2-.5-1-.8h.4a4.4 4.4 0 0 1-3.1 1.3c-.7 0-1.3 0-1.7-.3-.5-.2-.9-.5-1.2-.8-.2-.4-.3-.8-.3-1.3 0-.6.1-1.1.5-1.5.3-.5.8-.9 1.4-1.2l.4-.3-.2.3c-.4-.3-.7-.7-.8-1l-.3-1.1c0-.5.1-.8.3-1.2.2-.3.5-.5.9-.7.4-.2.8-.3 1.4-.3.6 0 1.2.2 1.6.6.4.3.7.8.7 1.4a2.2 2.2 0 0 1-.9 1.7 6 6 0 0 1-1.1.8v-.3l2.3 2.4h-.3l.5-1.3.2-1.5h1.4c0 .7-.2 1.4-.4 2-.2.6-.4 1.2-.8 1.7v-.4a4.7 4.7 0 0 0 1.8 1.2l-.5 1.1Zm-4.8-1.2a2.6 2.6 0 0 0 2-1v.4l-2.7-2.8h.7l-.4.2a5 5 0 0 0-.8.6 2 2 0 0 0-.4.6l-.1.7c0 .4.1.7.4 1 .3.2.7.3 1.3.3Zm.3-7c-.4 0-.6 0-.8.2a1 1 0 0 0-.3.8v.4l.4.5.5.6h-.4c.6-.3 1-.5 1.2-.8.2-.2.4-.5.4-.8 0-.3-.1-.6-.3-.7a1 1 0 0 0-.7-.3Zm-297.8 28.6v-1.8h1.8v1.8h-1.8Zm15.3.1-1.2-.5-1-.8h.4a4.4 4.4 0 0 1-3.1 1.3c-.7 0-1.3 0-1.7-.3-.5-.2-.9-.5-1.2-.8-.2-.4-.3-.8-.3-1.3 0-.6.1-1.1.5-1.5.3-.5.8-.9 1.4-1.2l.4-.3-.2.3c-.4-.3-.7-.7-.8-1l-.3-1.1c0-.5.1-.8.3-1.2.2-.3.5-.5.9-.7.4-.2.8-.3 1.4-.3.6 0 1.2.2 1.6.6.4.3.7.8.7 1.4a2.2 2.2 0 0 1-.9 1.7 6 6 0 0 1-1.1.8v-.3l2.3 2.4h-.3l.5-1.3.2-1.5h1.4c0 .7-.2 1.4-.4 2-.2.6-.4 1.2-.8 1.7v-.4a4.7 4.7 0 0 0 1.8 1.2l-.5 1.1Zm-4.8-1.2a2.6 2.6 0 0 0 2-1v.4L110 229h.7l-.4.2a5 5 0 0 0-.8.6 2 2 0 0 0-.4.6l-.1.7c0 .4.1.7.4 1 .3.2.7.3 1.3.3Zm.3-7c-.4 0-.6 0-.8.2a1 1 0 0 0-.3.8v.4l.4.5.5.6h-.4c.6-.3 1-.5 1.2-.8.2-.2.4-.5.4-.8 0-.3-.1-.6-.3-.7a1 1 0 0 0-.7-.3Zm14.7 8.2-1.1-.5-1-.8h.3a4.4 4.4 0 0 1-3 1.3c-.7 0-1.3 0-1.8-.3-.5-.2-.8-.5-1.1-.8a2 2 0 0 1-.4-1.3c0-.6.2-1.1.5-1.5.4-.5.8-.9 1.5-1.2l.4-.3-.3.3-.8-1-.3-1.1c0-.5.1-.8.4-1.2.2-.3.5-.5.9-.7.3-.2.8-.3 1.3-.3.7 0 1.2.2 1.7.6.4.3.6.8.6 1.4a2.2 2.2 0 0 1-.8 1.7 6 6 0 0 1-1.2.8v-.3l2.4 2.4h-.4l.5-1.3.3-1.5h1.3c0 .7-.1 1.4-.3 2l-.8 1.7v-.4a4.7 4.7 0 0 0 1.8 1.2l-.6 1.1Zm-4.8-1.2a2.6 2.6 0 0 0 2.1-1v.4L120 229h.7l-.4.2a5 5 0 0 0-.7.6 2 2 0 0 0-.4.6l-.2.7c0 .4.2.7.5 1 .3.2.7.3 1.2.3Zm.3-7c-.3 0-.6 0-.8.2a1 1 0 0 0-.3.8l.1.4c0 .2.2.3.3.5l.6.6h-.4c.5-.3.9-.5 1.1-.8.3-.2.4-.5.4-.8 0-.3 0-.6-.3-.7a1 1 0 0 0-.7-.3Zm14.8 8.2-1.2-.5-1-.8h.4a4.4 4.4 0 0 1-3.1 1.3c-.7 0-1.3 0-1.7-.3-.5-.2-.9-.5-1.2-.8-.2-.4-.3-.8-.3-1.3 0-.6.1-1.1.5-1.5.3-.5.8-.9 1.4-1.2l.4-.3-.2.3c-.4-.3-.7-.7-.8-1l-.3-1.1c0-.5.1-.8.3-1.2.2-.3.5-.5.9-.7.4-.2.8-.3 1.4-.3.6 0 1.2.2 1.6.6.4.3.7.8.7 1.4a2.2 2.2 0 0 1-.9 1.7 6 6 0 0 1-1.1.8v-.3l2.3 2.4h-.3l.5-1.3.2-1.5h1.4c0 .7-.2 1.4-.4 2-.2.6-.4 1.2-.8 1.7v-.4a4.7 4.7 0 0 0 1.8 1.2l-.5 1.1Zm-4.8-1.2a2.6 2.6 0 0 0 2-1v.4l-2.7-2.8h.7l-.4.2a5 5 0 0 0-.8.6 2 2 0 0 0-.4.6l-.1.7c0 .4.1.7.4 1 .3.2.7.3 1.3.3Zm.3-7c-.4 0-.6 0-.8.2a1 1 0 0 0-.3.8v.4l.4.5.5.6h-.4c.6-.3 1-.5 1.2-.8.2-.2.4-.5.4-.8 0-.3-.1-.6-.3-.7a1 1 0 0 0-.7-.3Zm14.7 8.2-1.1-.5-1-.8h.3a4.4 4.4 0 0 1-3 1.3c-.7 0-1.3 0-1.8-.3-.5-.2-.8-.5-1.1-.8a2 2 0 0 1-.4-1.3c0-.6.2-1.1.5-1.5.4-.5.8-.9 1.5-1.2l.4-.3-.3.3-.8-1-.3-1.1c0-.5.1-.8.4-1.2.2-.3.5-.5.9-.7.3-.2.8-.3 1.3-.3.7 0 1.2.2 1.7.6.4.3.6.8.6 1.4a2.2 2.2 0 0 1-.8 1.7 6 6 0 0 1-1.2.8v-.3l2.4 2.4h-.4l.5-1.3.3-1.5h1.3c0 .7-.1 1.4-.3 2l-.8 1.7v-.4a4.7 4.7 0 0 0 1.8 1.2l-.6 1.1Zm-4.8-1.2a2.6 2.6 0 0 0 2.1-1v.4l-2.8-2.8h.7l-.4.2a5 5 0 0 0-.7.6 2 2 0 0 0-.4.6l-.2.7c0 .4.2.7.5 1 .3.2.7.3 1.2.3Zm.3-7c-.3 0-.6 0-.8.2a1 1 0 0 0-.3.8l.1.4c0 .2.2.3.3.5l.6.6h-.4c.5-.3.9-.5 1.1-.8.3-.2.4-.5.4-.8 0-.3 0-.6-.3-.7a1 1 0 0 0-.7-.3Zm10.6 9.8-.7-.5c.3-.3.5-.5.6-.8l.1-.8.5.4h-1.3v-1.8h1.8v1.2c0 .4 0 .8-.3 1.2-.1.4-.4.7-.7 1.1Zm-.8-6.5V227h1.8v1.8h-1.8Zm41 4.8v-1.8h1.8v1.8h-1.8Zm10.6-.5v-2.7h-2.7v-1.1h2.6v-2.6h1.2v2.6h2.6v1.1h-2.6v2.7H203Zm14.9.6-1.2-.5-1-.8h.4a4.4 4.4 0 0 1-3.1 1.3c-.7 0-1.3 0-1.7-.3-.5-.2-.9-.5-1.2-.8-.2-.4-.3-.8-.3-1.3 0-.6.1-1.1.5-1.5.3-.5.8-.9 1.4-1.2l.4-.3-.2.3c-.4-.3-.7-.7-.8-1l-.3-1.1c0-.5.1-.8.3-1.2.2-.3.5-.5.9-.7.4-.2.8-.3 1.4-.3.6 0 1.2.2 1.6.6.4.3.7.8.7 1.4a2.2 2.2 0 0 1-.9 1.7 6 6 0 0 1-1.1.8v-.3l2.3 2.4h-.3l.5-1.3.2-1.5h1.4c0 .7-.2 1.4-.4 2-.2.6-.4 1.2-.8 1.7v-.4a4.7 4.7 0 0 0 1.8 1.2l-.5 1.1Zm-4.8-1.2a2.6 2.6 0 0 0 2-1v.4l-2.7-2.8h.7l-.4.2a5 5 0 0 0-.8.6 2 2 0 0 0-.4.6l-.1.7c0 .4.1.7.4 1 .3.2.7.3 1.3.3Zm.3-7c-.4 0-.6 0-.8.2a1 1 0 0 0-.3.8v.4l.4.5.5.6h-.4c.6-.3 1-.5 1.2-.8.2-.2.4-.5.4-.8 0-.3-.1-.6-.3-.7a1 1 0 0 0-.7-.3Zm14.7 8.2-1.1-.5-1-.8h.3a4.4 4.4 0 0 1-3 1.3c-.7 0-1.3 0-1.8-.3-.5-.2-.8-.5-1.1-.8a2 2 0 0 1-.4-1.3c0-.6.2-1.1.5-1.5.4-.5.8-.9 1.5-1.2l.4-.3-.3.3-.8-1-.3-1.1c0-.5.1-.8.4-1.2.2-.3.5-.5.9-.7.3-.2.8-.3 1.3-.3.7 0 1.2.2 1.7.6.4.3.6.8.6 1.4a2.2 2.2 0 0 1-.8 1.7 6 6 0 0 1-1.2.8v-.3l2.4 2.4h-.4l.5-1.3.3-1.5h1.3c0 .7-.1 1.4-.3 2l-.8 1.7v-.4a4.7 4.7 0 0 0 1.8 1.2l-.6 1.1Zm-4.8-1.2a2.6 2.6 0 0 0 2.1-1v.4l-2.8-2.8h.7l-.4.2a5 5 0 0 0-.7.6 2 2 0 0 0-.4.6l-.2.7c0 .4.2.7.5 1 .3.2.7.3 1.2.3Zm.3-7c-.3 0-.6 0-.8.2a1 1 0 0 0-.3.8l.1.4c0 .2.2.3.3.5l.6.6h-.4c.5-.3.9-.5 1.1-.8.3-.2.4-.5.4-.8 0-.3 0-.6-.3-.7a1 1 0 0 0-.7-.3Zm14.8 8.2-1.2-.5-1-.8h.4a4.4 4.4 0 0 1-3.1 1.3c-.7 0-1.3 0-1.7-.3-.5-.2-.9-.5-1.2-.8-.2-.4-.3-.8-.3-1.3 0-.6.1-1.1.5-1.5.3-.5.8-.9 1.4-1.2l.4-.3-.2.3c-.4-.3-.7-.7-.8-1l-.3-1.1c0-.5.1-.8.3-1.2.2-.3.5-.5.9-.7.4-.2.8-.3 1.4-.3.6 0 1.2.2 1.6.6.4.3.7.8.7 1.4a2.2 2.2 0 0 1-.9 1.7 6 6 0 0 1-1.1.8v-.3l2.3 2.4h-.3l.5-1.3.2-1.5h1.4c0 .7-.2 1.4-.4 2-.2.6-.4 1.2-.8 1.7v-.4a4.7 4.7 0 0 0 1.8 1.2l-.5 1.1Zm-4.8-1.2a2.6 2.6 0 0 0 2-1v.4L233 229h.7l-.4.2a5 5 0 0 0-.8.6 2 2 0 0 0-.4.6l-.1.7c0 .4.1.7.4 1 .3.2.7.3 1.3.3Zm.3-7c-.4 0-.6 0-.8.2a1 1 0 0 0-.3.8v.4l.4.5.5.6h-.4c.6-.3 1-.5 1.2-.8.2-.2.4-.5.4-.8 0-.3-.1-.6-.3-.7a1 1 0 0 0-.7-.3Zm14.7 8.2-1.1-.5-1-.8h.3a4.4 4.4 0 0 1-3 1.3c-.7 0-1.3 0-1.8-.3-.5-.2-.8-.5-1.1-.8a2 2 0 0 1-.4-1.3c0-.6.2-1.1.5-1.5.4-.5.8-.9 1.5-1.2l.4-.3-.3.3-.8-1-.3-1.1c0-.5.1-.8.4-1.2.2-.3.5-.5.9-.7.3-.2.8-.3 1.3-.3.7 0 1.2.2 1.7.6.4.3.6.8.6 1.4a2.2 2.2 0 0 1-.8 1.7 6 6 0 0 1-1.2.8v-.3l2.4 2.4h-.4l.5-1.3.3-1.5h1.3c0 .7-.1 1.4-.3 2l-.8 1.7v-.4a4.7 4.7 0 0 0 1.8 1.2l-.6 1.1Zm-4.8-1.2a2.6 2.6 0 0 0 2.1-1v.4L243 229h.7l-.4.2a5 5 0 0 0-.7.6 2 2 0 0 0-.4.6l-.2.7c0 .4.2.7.5 1 .3.2.7.3 1.2.3Zm.3-7c-.3 0-.6 0-.8.2a1 1 0 0 0-.3.8l.1.4c0 .2.2.3.3.5l.6.6h-.4c.5-.3.9-.5 1.1-.8.3-.2.4-.5.4-.8 0-.3 0-.6-.3-.7a1 1 0 0 0-.7-.3Zm14.8 8.2-1.2-.5-1-.8h.4a4.4 4.4 0 0 1-3.1 1.3c-.7 0-1.3 0-1.7-.3-.5-.2-.9-.5-1.2-.8-.2-.4-.3-.8-.3-1.3 0-.6.1-1.1.5-1.5.3-.5.8-.9 1.4-1.2l.4-.3-.2.3c-.4-.3-.7-.7-.8-1l-.3-1.1c0-.5.1-.8.3-1.2.2-.3.5-.5.9-.7.4-.2.8-.3 1.4-.3.6 0 1.2.2 1.6.6.4.3.7.8.7 1.4a2.2 2.2 0 0 1-.9 1.7 6 6 0 0 1-1.1.8v-.3l2.3 2.4h-.3l.5-1.3.2-1.5h1.4c0 .7-.2 1.4-.4 2-.2.6-.4 1.2-.8 1.7v-.4a4.7 4.7 0 0 0 1.8 1.2l-.5 1.1Zm-4.8-1.2a2.6 2.6 0 0 0 2-1v.4l-2.7-2.8h.7l-.4.2a5 5 0 0 0-.8.6 2 2 0 0 0-.4.6l-.1.7c0 .4.1.7.4 1 .3.2.7.3 1.3.3Zm.3-7c-.4 0-.6 0-.8.2a1 1 0 0 0-.3.8v.4l.4.5.5.6h-.4c.6-.3 1-.5 1.2-.8.2-.2.4-.5.4-.8 0-.3-.1-.6-.3-.7a1 1 0 0 0-.7-.3Zm14.7 8.2-1.1-.5-1-.8h.3a4.4 4.4 0 0 1-3 1.3c-.7 0-1.3 0-1.8-.3-.5-.2-.8-.5-1.1-.8a2 2 0 0 1-.4-1.3c0-.6.2-1.1.5-1.5.4-.5.8-.9 1.5-1.2l.4-.3-.3.3-.8-1-.3-1.1c0-.5.1-.8.4-1.2.2-.3.5-.5.9-.7.3-.2.8-.3 1.3-.3.7 0 1.2.2 1.7.6.4.3.6.8.6 1.4a2.2 2.2 0 0 1-.8 1.7 6 6 0 0 1-1.2.8v-.3l2.4 2.4h-.4l.5-1.3.3-1.5h1.3c0 .7-.1 1.4-.3 2l-.8 1.7v-.4a4.7 4.7 0 0 0 1.8 1.2l-.6 1.1Zm-4.8-1.2a2.6 2.6 0 0 0 2.1-1v.4l-2.8-2.8h.7l-.4.2a5 5 0 0 0-.7.6 2 2 0 0 0-.4.6l-.2.7c0 .4.2.7.5 1 .3.2.7.3 1.2.3Zm.3-7c-.3 0-.6 0-.8.2a1 1 0 0 0-.3.8l.1.4c0 .2.2.3.3.5l.6.6h-.4c.5-.3.9-.5 1.1-.8.3-.2.4-.5.4-.8 0-.3 0-.6-.3-.7a1 1 0 0 0-.7-.3Zm14.8 8.2-1.2-.5-1-.8h.4a4.4 4.4 0 0 1-3.1 1.3c-.7 0-1.3 0-1.7-.3-.5-.2-.9-.5-1.2-.8-.2-.4-.3-.8-.3-1.3 0-.6.1-1.1.5-1.5.3-.5.8-.9 1.4-1.2l.4-.3-.2.3c-.4-.3-.7-.7-.8-1l-.3-1.1c0-.5.1-.8.3-1.2.2-.3.5-.5.9-.7.4-.2.8-.3 1.4-.3.6 0 1.2.2 1.6.6.4.3.7.8.7 1.4a2.2 2.2 0 0 1-.9 1.7 6 6 0 0 1-1.1.8v-.3l2.3 2.4h-.3l.5-1.3.2-1.5h1.4c0 .7-.2 1.4-.4 2-.2.6-.4 1.2-.8 1.7v-.4a4.7 4.7 0 0 0 1.8 1.2l-.5 1.1Zm-4.8-1.2a2.6 2.6 0 0 0 2-1v.4L274 229h.7l-.4.2a5 5 0 0 0-.8.6 2 2 0 0 0-.4.6l-.1.7c0 .4.1.7.4 1 .3.2.7.3 1.3.3Zm.3-7c-.4 0-.6 0-.8.2a1 1 0 0 0-.3.8v.4l.4.5.5.6h-.4c.6-.3 1-.5 1.2-.8.2-.2.4-.5.4-.8 0-.3-.1-.6-.3-.7a1 1 0 0 0-.7-.3Zm14.7 8.2-1.1-.5-1-.8h.3a4.4 4.4 0 0 1-3 1.3c-.7 0-1.3 0-1.8-.3-.5-.2-.8-.5-1.1-.8a2 2 0 0 1-.4-1.3c0-.6.2-1.1.5-1.5.4-.5.8-.9 1.5-1.2l.4-.3-.3.3-.8-1-.3-1.1c0-.5.1-.8.4-1.2.2-.3.5-.5.9-.7.3-.2.8-.3 1.3-.3.7 0 1.2.2 1.7.6.4.3.6.8.6 1.4a2.2 2.2 0 0 1-.8 1.7 6 6 0 0 1-1.2.8v-.3l2.4 2.4h-.4l.5-1.3.3-1.5h1.3c0 .7-.1 1.4-.3 2l-.8 1.7v-.4a4.7 4.7 0 0 0 1.8 1.2l-.6 1.1Zm-4.8-1.2a2.6 2.6 0 0 0 2.1-1v.4L284 229h.7l-.4.2a5 5 0 0 0-.7.6 2 2 0 0 0-.4.6l-.2.7c0 .4.2.7.5 1 .3.2.7.3 1.2.3Zm.3-7c-.3 0-.6 0-.8.2a1 1 0 0 0-.3.8l.1.4c0 .2.2.3.3.5l.6.6h-.4c.5-.3.9-.5 1.1-.8.3-.2.4-.5.4-.8 0-.3 0-.6-.3-.7a1 1 0 0 0-.7-.3Zm9.8 3.3V227h1.8v1.8h-1.8Zm0 4.8v-1.8h1.8v1.8h-1.8Zm51.2-4.8V227h1.8v1.8h-1.8Zm0 4.8v-1.8h1.8v1.8h-1.8Zm10.7 1.5v-1.7l.3.3c-.7 0-1.3-.1-1.8-.3-.6-.2-1-.4-1.5-.8l.5-1.3a4.8 4.8 0 0 0 3 1c.6 0 1-.1 1.4-.4.3-.2.4-.5.4-.8 0-.3 0-.6-.3-.7l-1-.5-1.4-.3a3 3 0 0 1-1.8-.8c-.4-.4-.6-1-.6-1.6 0-.6.1-1 .4-1.4.2-.4.6-.7 1-1 .5-.2 1-.4 1.6-.4l-.2.2v-1.7h1.3v1.7l-.3-.2c.5 0 1 .1 1.4.3.5.1 1 .4 1.2.7l-.4 1.3a4 4 0 0 0-2.5-1c-.6 0-1 .2-1.4.4-.3.3-.5.6-.5 1 0 .3 0 .5.3.7.2.2.5.4 1 .5l1.4.3a3 3 0 0 1 1.8.8c.4.4.6 1 .6 1.6 0 .5 0 1-.3 1.3l-1 1-1.6.4.3-.3v1.7h-1.3Zm14.8-1.4-1.1-.5-1-.8h.3a4.4 4.4 0 0 1-3 1.3c-.7 0-1.3 0-1.8-.3-.5-.2-.8-.5-1.1-.8a2 2 0 0 1-.4-1.3c0-.6.2-1.1.5-1.5.4-.5.8-.9 1.5-1.2l.4-.3-.3.3-.8-1-.3-1.1c0-.5.1-.8.4-1.2.2-.3.5-.5.9-.7.3-.2.8-.3 1.3-.3.7 0 1.2.2 1.7.6.4.3.6.8.6 1.4a2.2 2.2 0 0 1-.8 1.7 6 6 0 0 1-1.2.8v-.3l2.4 2.4h-.4l.5-1.3.3-1.5h1.3c0 .7-.1 1.4-.3 2l-.8 1.7v-.4a4.7 4.7 0 0 0 1.8 1.2l-.6 1.1Zm-4.8-1.2a2.6 2.6 0 0 0 2.1-1v.4L366 229h.7l-.4.2a5 5 0 0 0-.7.6 2 2 0 0 0-.4.6l-.2.7c0 .4.2.7.5 1 .3.2.7.3 1.2.3Zm.3-7c-.3 0-.6 0-.8.2a1 1 0 0 0-.3.8l.1.4c0 .2.2.3.3.5l.6.6h-.4c.5-.3.9-.5 1.1-.8.3-.2.4-.5.4-.8 0-.3 0-.6-.3-.7a1 1 0 0 0-.7-.3Zm14.8 8.2-1.2-.5-1-.8h.4a4.4 4.4 0 0 1-3.1 1.3c-.7 0-1.3 0-1.7-.3-.5-.2-.9-.5-1.2-.8-.2-.4-.3-.8-.3-1.3 0-.6.1-1.1.5-1.5.3-.5.8-.9 1.4-1.2l.4-.3-.2.3c-.4-.3-.7-.7-.8-1l-.3-1.1c0-.5.1-.8.3-1.2.2-.3.5-.5.9-.7.4-.2.8-.3 1.4-.3.6 0 1.2.2 1.6.6.4.3.7.8.7 1.4a2.2 2.2 0 0 1-.9 1.7 6 6 0 0 1-1.1.8v-.3l2.3 2.4h-.3l.5-1.3.2-1.5h1.4c0 .7-.2 1.4-.4 2-.2.6-.4 1.2-.8 1.7v-.4a4.7 4.7 0 0 0 1.8 1.2l-.5 1.1Zm-4.8-1.2a2.6 2.6 0 0 0 2-1v.4l-2.7-2.8h.7l-.4.2a5 5 0 0 0-.8.6 2 2 0 0 0-.4.6l-.1.7c0 .4.1.7.4 1 .3.2.7.3 1.3.3Zm.3-7c-.4 0-.6 0-.8.2a1 1 0 0 0-.3.8v.4l.4.5.5.6h-.4c.6-.3 1-.5 1.2-.8.2-.2.4-.5.4-.8 0-.3-.1-.6-.3-.7a1 1 0 0 0-.7-.3Zm14.7 8.2-1.1-.5-1-.8h.3a4.4 4.4 0 0 1-3 1.3c-.7 0-1.3 0-1.8-.3-.5-.2-.8-.5-1.1-.8a2 2 0 0 1-.4-1.3c0-.6.2-1.1.5-1.5.4-.5.8-.9 1.5-1.2l.4-.3-.3.3-.8-1-.3-1.1c0-.5.1-.8.4-1.2.2-.3.5-.5.9-.7.3-.2.8-.3 1.3-.3.7 0 1.2.2 1.7.6.4.3.6.8.6 1.4a2.2 2.2 0 0 1-.8 1.7 6 6 0 0 1-1.2.8v-.3l2.4 2.4h-.4l.5-1.3.3-1.5h1.3c0 .7-.1 1.4-.3 2l-.8 1.7v-.4a4.7 4.7 0 0 0 1.8 1.2l-.6 1.1Zm-4.8-1.2a2.6 2.6 0 0 0 2.1-1v.4l-2.8-2.8h.7l-.4.2a5 5 0 0 0-.7.6 2 2 0 0 0-.4.6l-.2.7c0 .4.2.7.5 1 .3.2.7.3 1.2.3Zm.3-7c-.3 0-.6 0-.8.2a1 1 0 0 0-.3.8l.1.4c0 .2.2.3.3.5l.6.6h-.4c.5-.3.9-.5 1.1-.8.3-.2.4-.5.4-.8 0-.3 0-.6-.3-.7a1 1 0 0 0-.7-.3Zm10.6 9.8-.7-.5c.3-.3.5-.5.6-.8l.1-.8.4.4h-1.2v-1.8h1.8v1.2c0 .4 0 .8-.3 1.2-.1.4-.4.7-.7 1.1Zm-.8-6.5V227h1.8v1.8h-1.8Zm-286.7 24.8v-2.7H108v-1.1h2.6v-2.6h1.2v2.6h2.6v1.1h-2.6v2.7h-1.2Zm14.9.6-1.1-.5-1-.8h.3a4.4 4.4 0 0 1-3 1.3c-.7 0-1.3 0-1.8-.3-.5-.2-.8-.5-1.1-.8a2 2 0 0 1-.4-1.3c0-.6.2-1.1.5-1.5.4-.5.8-.9 1.5-1.2l.4-.3-.3.3-.8-1-.3-1.1c0-.5.1-.8.4-1.2.2-.3.5-.5.9-.7.3-.2.8-.3 1.3-.3.7 0 1.2.2 1.7.6.4.3.6.8.6 1.4a2.2 2.2 0 0 1-.8 1.7 6 6 0 0 1-1.2.8v-.3l2.4 2.4h-.4l.5-1.3.3-1.5h1.3c0 .7-.1 1.4-.3 2l-.8 1.7v-.4a4.7 4.7 0 0 0 1.8 1.2l-.6 1.1Zm-4.8-1.2a2.6 2.6 0 0 0 2.1-1v.4l-2.8-2.8h.7l-.4.2a5 5 0 0 0-.7.6 2 2 0 0 0-.4.6l-.2.7c0 .4.2.7.5 1 .3.2.7.3 1.2.3Zm.3-7c-.3 0-.6 0-.8.2a1 1 0 0 0-.3.8l.1.4c0 .2.2.3.3.5l.6.6h-.4c.5-.3.9-.5 1.1-.8.3-.2.4-.5.4-.8 0-.3 0-.6-.3-.7a1 1 0 0 0-.7-.3Zm14.8 8.2-1.2-.5-1-.8h.4a4.4 4.4 0 0 1-3.1 1.3c-.7 0-1.3 0-1.7-.3-.5-.2-.9-.5-1.2-.8-.2-.4-.3-.8-.3-1.3 0-.6.1-1.1.5-1.5.3-.5.8-.9 1.4-1.2l.4-.3-.2.3c-.4-.3-.7-.7-.8-1l-.3-1.1c0-.5.1-.8.3-1.2.2-.3.5-.5.9-.7.4-.2.8-.3 1.4-.3.6 0 1.2.2 1.6.6.4.3.7.8.7 1.4a2.2 2.2 0 0 1-.9 1.7 6 6 0 0 1-1.1.8v-.3l2.3 2.4h-.3l.5-1.3.2-1.5h1.4c0 .7-.2 1.4-.4 2-.2.6-.4 1.2-.8 1.7v-.4a4.7 4.7 0 0 0 1.8 1.2l-.5 1.1ZM131 253a2.6 2.6 0 0 0 2-1v.4l-2.7-2.8h.7l-.4.2a5 5 0 0 0-.8.6 2 2 0 0 0-.4.6l-.1.7c0 .4.1.7.4 1 .3.2.7.3 1.3.3Zm.3-7c-.4 0-.6 0-.8.2a1 1 0 0 0-.3.8v.4l.4.5.5.6h-.4c.6-.3 1-.5 1.2-.8.2-.2.4-.5.4-.8 0-.3-.1-.6-.3-.7a1 1 0 0 0-.7-.3Zm14.8 8.1-1.1-.5-1-.8h.3a4.4 4.4 0 0 1-3 1.3c-.7 0-1.3 0-1.8-.3-.5-.2-.8-.5-1.1-.8a2 2 0 0 1-.4-1.3c0-.6.2-1.1.5-1.5.4-.5.8-.9 1.5-1.2l.4-.3-.3.3-.8-1-.3-1.1c0-.5.1-.8.4-1.2.2-.3.5-.5.9-.7.3-.2.8-.3 1.3-.3.7 0 1.2.2 1.7.6.4.3.6.8.6 1.4a2.2 2.2 0 0 1-.8 1.7 6 6 0 0 1-1.2.8v-.3l2.4 2.4h-.4l.5-1.3.3-1.5h1.3c0 .7-.1 1.4-.3 2l-.8 1.7v-.4a4.7 4.7 0 0 0 1.8 1.2l-.6 1.1Zm-4.8-1.2a2.6 2.6 0 0 0 2.1-1v.4l-2.8-2.8h.7l-.4.2a5 5 0 0 0-.7.6 2 2 0 0 0-.4.6l-.2.7c0 .4.2.7.5 1 .3.2.7.3 1.2.3Zm.3-7c-.3 0-.6 0-.8.2a1 1 0 0 0-.3.8l.1.4c0 .2.2.3.3.5l.6.6h-.4c.5-.3.9-.5 1.1-.8.3-.2.4-.5.4-.8 0-.3 0-.6-.3-.7a1 1 0 0 0-.7-.3Zm14.8 8.2-1.2-.5-1-.8h.4a4.4 4.4 0 0 1-3.1 1.3c-.7 0-1.3 0-1.7-.3-.5-.2-.9-.5-1.2-.8-.2-.4-.3-.8-.3-1.3 0-.6.1-1.1.5-1.5.3-.5.8-.9 1.4-1.2l.4-.3-.2.3c-.4-.3-.7-.7-.8-1l-.3-1.1c0-.5.1-.8.3-1.2.2-.3.5-.5.9-.7.4-.2.8-.3 1.4-.3.6 0 1.2.2 1.6.6.4.3.7.8.7 1.4a2.2 2.2 0 0 1-.9 1.7 6 6 0 0 1-1.1.8v-.3l2.3 2.4h-.3l.5-1.3.2-1.5h1.4c0 .7-.2 1.4-.4 2-.2.6-.4 1.2-.8 1.7v-.4a4.7 4.7 0 0 0 1.8 1.2l-.5 1.1Zm-4.8-1.2a2.6 2.6 0 0 0 2-1v.4l-2.7-2.8h.7l-.4.2a5 5 0 0 0-.8.6 2 2 0 0 0-.4.6l-.1.7c0 .4.1.7.4 1 .3.2.7.3 1.3.3Zm.3-7c-.4 0-.6 0-.8.2a1 1 0 0 0-.3.8v.4l.4.5.5.6h-.4c.6-.3 1-.5 1.2-.8.2-.2.4-.5.4-.8 0-.3-.1-.6-.3-.7a1 1 0 0 0-.7-.3Zm14.7 8.2-1.1-.5-1-.8h.3a4.4 4.4 0 0 1-3 1.3c-.7 0-1.3 0-1.8-.3-.5-.2-.8-.5-1.1-.8a2 2 0 0 1-.4-1.3c0-.6.2-1.1.5-1.5.4-.5.8-.9 1.5-1.2l.4-.3-.3.3-.8-1-.3-1.1c0-.5.1-.8.4-1.2.2-.3.5-.5.9-.7.3-.2.8-.3 1.3-.3.7 0 1.2.2 1.7.6.4.3.6.8.6 1.4a2.2 2.2 0 0 1-.8 1.7 6 6 0 0 1-1.2.8v-.3l2.4 2.4h-.4l.5-1.3.3-1.5h1.3c0 .7-.1 1.4-.3 2l-.8 1.7v-.4a4.7 4.7 0 0 0 1.8 1.2l-.6 1.1Zm-4.8-1.2a2.6 2.6 0 0 0 2.1-1v.4l-2.8-2.8h.7l-.4.2a5 5 0 0 0-.7.6 2 2 0 0 0-.4.6l-.2.7c0 .4.2.7.5 1 .3.2.7.3 1.2.3Zm.3-7c-.3 0-.6 0-.8.2a1 1 0 0 0-.3.8l.1.4c0 .2.2.3.3.5l.6.6h-.4c.5-.3.9-.5 1.1-.8.3-.2.4-.5.4-.8 0-.3 0-.6-.3-.7a1 1 0 0 0-.7-.3Zm10.2 9.6v-1.7l.3.3c-.7 0-1.3-.1-1.8-.3-.6-.2-1-.4-1.5-.8l.5-1.3a4.8 4.8 0 0 0 3 1c.6 0 1-.1 1.4-.4.3-.2.4-.5.4-.8 0-.3 0-.6-.3-.7l-1-.5-1.4-.3a3 3 0 0 1-1.8-.8c-.4-.4-.6-1-.6-1.6 0-.6.1-1 .4-1.4.2-.4.6-.7 1-1 .5-.2 1-.4 1.6-.4l-.2.2v-1.7h1.3v1.7l-.3-.2c.5 0 1 .1 1.4.3.5.1 1 .4 1.2.7l-.4 1.3a4 4 0 0 0-2.5-1c-.6 0-1 .2-1.4.4-.3.3-.5.6-.5 1 0 .3 0 .5.3.7.2.2.5.4 1 .5l1.4.3a3 3 0 0 1 1.8.8c.4.4.6 1 .6 1.6 0 .5 0 1-.3 1.3l-1 1-1.6.4.3-.3v1.7h-1.3Zm14.8-1.4-1.1-.5-1-.8h.3a4.4 4.4 0 0 1-3 1.3c-.7 0-1.3 0-1.8-.3-.5-.2-.8-.5-1.1-.8a2 2 0 0 1-.4-1.3c0-.6.2-1.1.5-1.5.4-.5.8-.9 1.5-1.2l.4-.3-.3.3-.8-1-.3-1.1c0-.5.1-.8.4-1.2.2-.3.5-.5.9-.7.3-.2.8-.3 1.3-.3.7 0 1.2.2 1.7.6.4.3.6.8.6 1.4a2.2 2.2 0 0 1-.8 1.7 6 6 0 0 1-1.2.8v-.3l2.4 2.4h-.4l.5-1.3.3-1.5h1.3c0 .7-.1 1.4-.3 2l-.8 1.7v-.4a4.7 4.7 0 0 0 1.8 1.2l-.6 1.1Zm-4.8-1.2a2.6 2.6 0 0 0 2.1-1v.4l-2.8-2.8h.7l-.4.2a5 5 0 0 0-.7.6 2 2 0 0 0-.4.6l-.2.7c0 .4.2.7.5 1 .3.2.7.3 1.2.3Zm.3-7c-.3 0-.6 0-.8.2a1 1 0 0 0-.3.8l.1.4c0 .2.2.3.3.5l.6.6h-.4c.5-.3.9-.5 1.1-.8.3-.2.4-.5.4-.8 0-.3 0-.6-.3-.7a1 1 0 0 0-.7-.3Zm14.8 8.2-1.2-.5-1-.8h.4a4.4 4.4 0 0 1-3.1 1.3c-.7 0-1.3 0-1.7-.3-.5-.2-.9-.5-1.2-.8-.2-.4-.3-.8-.3-1.3 0-.6.1-1.1.5-1.5.3-.5.8-.9 1.4-1.2l.4-.3-.2.3c-.4-.3-.7-.7-.8-1l-.3-1.1c0-.5.1-.8.3-1.2.2-.3.5-.5.9-.7.4-.2.8-.3 1.4-.3.6 0 1.2.2 1.6.6.4.3.7.8.7 1.4a2.2 2.2 0 0 1-.9 1.7 6 6 0 0 1-1.1.8v-.3l2.3 2.4h-.3l.5-1.3.2-1.5h1.4c0 .7-.2 1.4-.4 2-.2.6-.4 1.2-.8 1.7v-.4a4.7 4.7 0 0 0 1.8 1.2l-.5 1.1Zm-4.8-1.2a2.6 2.6 0 0 0 2-1v.4l-2.7-2.8h.7l-.4.2a5 5 0 0 0-.8.6 2 2 0 0 0-.4.6l-.1.7c0 .4.1.7.4 1 .3.2.7.3 1.3.3Zm.3-7c-.4 0-.6 0-.8.2a1 1 0 0 0-.3.8v.4l.4.5.5.6h-.4c.6-.3 1-.5 1.2-.8.2-.2.4-.5.4-.8 0-.3-.1-.6-.3-.7a1 1 0 0 0-.7-.3Zm14.7 8.2-1.1-.5-1-.8h.3a4.4 4.4 0 0 1-3 1.3c-.7 0-1.3 0-1.8-.3-.5-.2-.8-.5-1.1-.8a2 2 0 0 1-.4-1.3c0-.6.2-1.1.5-1.5.4-.5.8-.9 1.5-1.2l.4-.3-.3.3-.8-1-.3-1.1c0-.5.1-.8.4-1.2.2-.3.5-.5.9-.7.3-.2.8-.3 1.3-.3.7 0 1.2.2 1.7.6.4.3.6.8.6 1.4a2.2 2.2 0 0 1-.8 1.7 6 6 0 0 1-1.2.8v-.3l2.4 2.4h-.4l.5-1.3.3-1.5h1.3c0 .7-.1 1.4-.3 2l-.8 1.7v-.4a4.7 4.7 0 0 0 1.8 1.2l-.6 1.1Zm-4.8-1.2a2.6 2.6 0 0 0 2.1-1v.4l-2.8-2.8h.7l-.4.2a5 5 0 0 0-.7.6 2 2 0 0 0-.4.6l-.2.7c0 .4.2.7.5 1 .3.2.7.3 1.2.3Zm.3-7c-.3 0-.6 0-.8.2a1 1 0 0 0-.3.8l.1.4c0 .2.2.3.3.5l.6.6h-.4c.5-.3.9-.5 1.1-.8.3-.2.4-.5.4-.8 0-.3 0-.6-.3-.7a1 1 0 0 0-.7-.3Zm14.8 8.2-1.2-.5-1-.8h.4a4.4 4.4 0 0 1-3.1 1.3c-.7 0-1.3 0-1.7-.3-.5-.2-.9-.5-1.2-.8-.2-.4-.3-.8-.3-1.3 0-.6.1-1.1.5-1.5.3-.5.8-.9 1.4-1.2l.4-.3-.2.3c-.4-.3-.7-.7-.8-1l-.3-1.1c0-.5.1-.8.3-1.2.2-.3.5-.5.9-.7.4-.2.8-.3 1.4-.3.6 0 1.2.2 1.6.6.4.3.7.8.7 1.4a2.2 2.2 0 0 1-.9 1.7 6 6 0 0 1-1.1.8v-.3l2.3 2.4h-.3l.5-1.3.2-1.5h1.4c0 .7-.2 1.4-.4 2-.2.6-.4 1.2-.8 1.7v-.4a4.7 4.7 0 0 0 1.8 1.2l-.5 1.1ZM213 253a2.6 2.6 0 0 0 2-1v.4l-2.7-2.8h.7l-.4.2a5 5 0 0 0-.8.6 2 2 0 0 0-.4.6l-.1.7c0 .4.1.7.4 1 .3.2.7.3 1.3.3Zm.3-7c-.4 0-.6 0-.8.2a1 1 0 0 0-.3.8v.4l.4.5.5.6h-.4c.6-.3 1-.5 1.2-.8.2-.2.4-.5.4-.8 0-.3-.1-.6-.3-.7a1 1 0 0 0-.7-.3Zm14.8 8.1-1.1-.5-1-.8h.3a4.4 4.4 0 0 1-3 1.3c-.7 0-1.3 0-1.8-.3-.5-.2-.8-.5-1.1-.8a2 2 0 0 1-.4-1.3c0-.6.2-1.1.5-1.5.4-.5.8-.9 1.5-1.2l.4-.3-.3.3-.8-1-.3-1.1c0-.5.1-.8.4-1.2.2-.3.5-.5.9-.7.3-.2.8-.3 1.3-.3.7 0 1.2.2 1.7.6.4.3.6.8.6 1.4a2.2 2.2 0 0 1-.8 1.7 6 6 0 0 1-1.2.8v-.3l2.4 2.4h-.4l.5-1.3.3-1.5h1.3c0 .7-.1 1.4-.3 2l-.8 1.7v-.4a4.7 4.7 0 0 0 1.8 1.2l-.6 1.1Zm-4.8-1.2a2.6 2.6 0 0 0 2.1-1v.4l-2.8-2.8h.7l-.4.2a5 5 0 0 0-.7.6 2 2 0 0 0-.4.6l-.2.7c0 .4.2.7.5 1 .3.2.7.3 1.2.3Zm.3-7c-.3 0-.6 0-.8.2a1 1 0 0 0-.3.8l.1.4c0 .2.2.3.3.5l.6.6h-.4c.5-.3.9-.5 1.1-.8.3-.2.4-.5.4-.8 0-.3 0-.6-.3-.7a1 1 0 0 0-.7-.3Zm7 8.1 3-3.8v.8l-2.9-3.6h2l1.9 2.5h-.6l1.9-2.5h1.9l-2.9 3.6v-.8l3 3.8H236l-2-2.6h.6l-2.1 2.6h-2Zm20.4 0 3.1-3.8v.8l-2.9-3.6h2l1.9 2.5h-.6l1.9-2.5h1.9l-2.9 3.6v-.8l3 3.8h-1.9l-2-2.6h.6L253 254h-2Zm18.1.1-1.1-.5-1-.8h.3a4.4 4.4 0 0 1-3 1.3c-.7 0-1.3 0-1.8-.3-.5-.2-.8-.5-1.1-.8a2 2 0 0 1-.4-1.3c0-.6.2-1.1.5-1.5.4-.5.8-.9 1.5-1.2l.4-.3-.3.3-.8-1-.3-1.1c0-.5.1-.8.4-1.2.2-.3.5-.5.9-.7.3-.2.8-.3 1.3-.3.7 0 1.2.2 1.7.6.4.3.6.8.6 1.4a2.2 2.2 0 0 1-.8 1.7 6 6 0 0 1-1.2.8v-.3l2.4 2.4h-.4l.5-1.3.3-1.5h1.3c0 .7-.1 1.4-.3 2l-.8 1.7v-.4a4.7 4.7 0 0 0 1.8 1.2l-.6 1.1Zm-4.8-1.2a2.6 2.6 0 0 0 2.1-1v.4l-2.8-2.8h.7l-.4.2a5 5 0 0 0-.7.6 2 2 0 0 0-.4.6l-.2.7c0 .4.2.7.5 1 .3.2.7.3 1.2.3Zm.3-7c-.3 0-.6 0-.8.2a1 1 0 0 0-.3.8l.1.4c0 .2.2.3.3.5l.6.6h-.4c.5-.3.9-.5 1.1-.8.3-.2.4-.5.4-.8 0-.3 0-.6-.3-.7a1 1 0 0 0-.7-.3Zm14.8 8.2-1.2-.5-1-.8h.4a4.4 4.4 0 0 1-3.1 1.3c-.7 0-1.3 0-1.7-.3-.5-.2-.9-.5-1.2-.8-.2-.4-.3-.8-.3-1.3 0-.6.1-1.1.5-1.5.3-.5.8-.9 1.4-1.2l.4-.3-.2.3c-.4-.3-.7-.7-.8-1l-.3-1.1c0-.5.1-.8.3-1.2.2-.3.5-.5.9-.7.4-.2.8-.3 1.4-.3.6 0 1.2.2 1.6.6.4.3.7.8.7 1.4a2.2 2.2 0 0 1-.9 1.7 6 6 0 0 1-1.1.8v-.3l2.3 2.4h-.3l.5-1.3.2-1.5h1.4c0 .7-.2 1.4-.4 2-.2.6-.4 1.2-.8 1.7v-.4a4.7 4.7 0 0 0 1.8 1.2l-.5 1.1Zm-4.8-1.2a2.6 2.6 0 0 0 2-1v.4l-2.7-2.8h.7l-.4.2a5 5 0 0 0-.8.6 2 2 0 0 0-.4.6l-.1.7c0 .4.1.7.4 1 .3.2.7.3 1.3.3Zm.3-7c-.4 0-.6 0-.8.2a1 1 0 0 0-.3.8v.4l.4.5.5.6h-.4c.6-.3 1-.5 1.2-.8.2-.2.4-.5.4-.8 0-.3-.1-.6-.3-.7a1 1 0 0 0-.7-.3Zm14.7 8.2-1.1-.5-1-.8h.3a4.4 4.4 0 0 1-3 1.3c-.7 0-1.3 0-1.8-.3-.5-.2-.8-.5-1.1-.8a2 2 0 0 1-.4-1.3c0-.6.2-1.1.5-1.5.4-.5.8-.9 1.5-1.2l.4-.3-.3.3-.8-1-.3-1.1c0-.5.1-.8.4-1.2.2-.3.5-.5.9-.7.3-.2.8-.3 1.3-.3.7 0 1.2.2 1.7.6.4.3.6.8.6 1.4a2.2 2.2 0 0 1-.8 1.7 6 6 0 0 1-1.2.8v-.3l2.4 2.4h-.4l.5-1.3.3-1.5h1.3c0 .7-.1 1.4-.3 2l-.8 1.7v-.4a4.7 4.7 0 0 0 1.8 1.2l-.6 1.1Zm-4.8-1.2a2.6 2.6 0 0 0 2.1-1v.4l-2.8-2.8h.7l-.4.2a5 5 0 0 0-.7.6 2 2 0 0 0-.4.6l-.2.7c0 .4.2.7.5 1 .3.2.7.3 1.2.3Zm.3-7c-.3 0-.6 0-.8.2a1 1 0 0 0-.3.8l.1.4c0 .2.2.3.3.5l.6.6h-.4c.5-.3.9-.5 1.1-.8.3-.2.4-.5.4-.8 0-.3 0-.6-.3-.7a1 1 0 0 0-.7-.3Zm14.8 8.2-1.2-.5-1-.8h.4a4.4 4.4 0 0 1-3.1 1.3c-.7 0-1.3 0-1.7-.3-.5-.2-.9-.5-1.2-.8-.2-.4-.3-.8-.3-1.3 0-.6.1-1.1.5-1.5.3-.5.8-.9 1.4-1.2l.4-.3-.2.3c-.4-.3-.7-.7-.8-1l-.3-1.1c0-.5.1-.8.3-1.2.2-.3.5-.5.9-.7.4-.2.8-.3 1.4-.3.6 0 1.2.2 1.6.6.4.3.7.8.7 1.4a2.2 2.2 0 0 1-.9 1.7 6 6 0 0 1-1.1.8v-.3l2.3 2.4h-.3l.5-1.3.2-1.5h1.4c0 .7-.2 1.4-.4 2-.2.6-.4 1.2-.8 1.7v-.4a4.7 4.7 0 0 0 1.8 1.2l-.5 1.1ZM295 253a2.6 2.6 0 0 0 2-1v.4l-2.7-2.8h.7l-.4.2a5 5 0 0 0-.8.6 2 2 0 0 0-.4.6l-.1.7c0 .4.1.7.4 1 .3.2.7.3 1.3.3Zm.3-7c-.4 0-.6 0-.8.2a1 1 0 0 0-.3.8v.4l.4.5.5.6h-.4c.6-.3 1-.5 1.2-.8.2-.2.4-.5.4-.8 0-.3-.1-.6-.3-.7a1 1 0 0 0-.7-.3Zm14.8 8.1-1.1-.5-1-.8h.3a4.4 4.4 0 0 1-3 1.3c-.7 0-1.3 0-1.8-.3-.5-.2-.8-.5-1.1-.8a2 2 0 0 1-.4-1.3c0-.6.2-1.1.5-1.5.4-.5.8-.9 1.5-1.2l.4-.3-.3.3-.8-1-.3-1.1c0-.5.1-.8.4-1.2.2-.3.5-.5.9-.7.3-.2.8-.3 1.3-.3.7 0 1.2.2 1.7.6.4.3.6.8.6 1.4a2.2 2.2 0 0 1-.8 1.7 6 6 0 0 1-1.2.8v-.3l2.4 2.4h-.4l.5-1.3.3-1.5h1.3c0 .7-.1 1.4-.3 2l-.8 1.7v-.4a4.7 4.7 0 0 0 1.8 1.2l-.6 1.1Zm-4.8-1.2a2.6 2.6 0 0 0 2.1-1v.4l-2.8-2.8h.7l-.4.2a5 5 0 0 0-.7.6 2 2 0 0 0-.4.6l-.2.7c0 .4.2.7.5 1 .3.2.7.3 1.2.3Zm.3-7c-.3 0-.6 0-.8.2a1 1 0 0 0-.3.8l.1.4c0 .2.2.3.3.5l.6.6h-.4c.5-.3.9-.5 1.1-.8.3-.2.4-.5.4-.8 0-.3 0-.6-.3-.7a1 1 0 0 0-.7-.3Zm10.2 9.6v-1.7l.3.3c-.7 0-1.3-.1-1.8-.3-.6-.2-1-.4-1.5-.8l.5-1.3a4.8 4.8 0 0 0 3 1c.6 0 1-.1 1.4-.4.3-.2.4-.5.4-.8 0-.3 0-.6-.3-.7l-1-.5-1.4-.3a3 3 0 0 1-1.8-.8c-.4-.4-.6-1-.6-1.6 0-.6.1-1 .4-1.4.2-.4.6-.7 1-1 .5-.2 1-.4 1.6-.4l-.2.2v-1.7h1.3v1.7l-.3-.2c.5 0 1 .1 1.4.3.5.1 1 .4 1.2.7l-.4 1.3a4 4 0 0 0-2.5-1c-.6 0-1 .2-1.4.4-.3.3-.5.6-.5 1 0 .3 0 .5.3.7.2.2.5.4 1 .5l1.4.3a3 3 0 0 1 1.8.8c.4.4.6 1 .6 1.6 0 .5 0 1-.3 1.3l-1 1-1.6.4.3-.3v1.7h-1.3Zm10.2 0v-1.7l.3.3-1.8-.3c-.5-.2-1-.4-1.4-.8l.5-1.3a4.8 4.8 0 0 0 3 1c.6 0 1-.1 1.3-.4.3-.2.5-.5.5-.8 0-.3-.1-.6-.3-.7l-1.1-.5-1.4-.3a3 3 0 0 1-1.8-.8c-.4-.4-.6-1-.6-1.6 0-.6.2-1 .4-1.4l1-1c.5-.2 1-.4 1.7-.4l-.3.2v-1.7h1.3v1.7l-.3-.2 1.5.3c.5.1.9.4 1.2.7l-.5 1.3c-.3-.3-.7-.6-1.1-.7a4 4 0 0 0-1.4-.2c-.6 0-1 0-1.4.3-.3.3-.5.6-.5 1 0 .3.1.5.3.7l1 .5 1.4.3a3 3 0 0 1 1.9.8c.4.4.6 1 .6 1.6 0 .5-.1 1-.4 1.3-.2.4-.6.7-1 1l-1.5.4.2-.3v1.7H326Zm14.9-1.4-1.2-.5-1-.8h.4a4.4 4.4 0 0 1-3.1 1.3c-.7 0-1.3 0-1.7-.3-.5-.2-.9-.5-1.2-.8-.2-.4-.3-.8-.3-1.3 0-.6.1-1.1.5-1.5.3-.5.8-.9 1.4-1.2l.4-.3-.2.3c-.4-.3-.7-.7-.8-1l-.3-1.1c0-.5.1-.8.3-1.2.2-.3.5-.5.9-.7.4-.2.8-.3 1.4-.3.6 0 1.2.2 1.6.6.4.3.7.8.7 1.4a2.2 2.2 0 0 1-.9 1.7 6 6 0 0 1-1.1.8v-.3l2.3 2.4h-.3l.5-1.3.2-1.5h1.4c0 .7-.2 1.4-.4 2-.2.6-.4 1.2-.8 1.7v-.4a4.7 4.7 0 0 0 1.8 1.2l-.5 1.1ZM336 253a2.6 2.6 0 0 0 2-1v.4l-2.7-2.8h.7l-.4.2a5 5 0 0 0-.8.6 2 2 0 0 0-.4.6l-.1.7c0 .4.1.7.4 1 .3.2.7.3 1.3.3Zm.3-7c-.4 0-.6 0-.8.2a1 1 0 0 0-.3.8v.4l.4.5.5.6h-.4c.6-.3 1-.5 1.2-.8.2-.2.4-.5.4-.8 0-.3-.1-.6-.3-.7a1 1 0 0 0-.7-.3Zm14.8 8.1-1.1-.5-1-.8h.3a4.4 4.4 0 0 1-3 1.3c-.7 0-1.3 0-1.8-.3-.5-.2-.8-.5-1.1-.8a2 2 0 0 1-.4-1.3c0-.6.2-1.1.5-1.5.4-.5.8-.9 1.5-1.2l.4-.3-.3.3-.8-1-.3-1.1c0-.5.1-.8.4-1.2.2-.3.5-.5.9-.7.3-.2.8-.3 1.3-.3.7 0 1.2.2 1.7.6.4.3.6.8.6 1.4a2.2 2.2 0 0 1-.8 1.7 6 6 0 0 1-1.2.8v-.3l2.4 2.4h-.4l.5-1.3.3-1.5h1.3c0 .7-.1 1.4-.3 2l-.8 1.7v-.4a4.7 4.7 0 0 0 1.8 1.2l-.6 1.1Zm-4.8-1.2a2.6 2.6 0 0 0 2.1-1v.4l-2.8-2.8h.7l-.4.2a5 5 0 0 0-.7.6 2 2 0 0 0-.4.6l-.2.7c0 .4.2.7.5 1 .3.2.7.3 1.2.3Zm.3-7c-.3 0-.6 0-.8.2a1 1 0 0 0-.3.8l.1.4c0 .2.2.3.3.5l.6.6h-.4c.5-.3.9-.5 1.1-.8.3-.2.4-.5.4-.8 0-.3 0-.6-.3-.7a1 1 0 0 0-.7-.3Zm14.8 8.2-1.2-.5-1-.8h.4a4.4 4.4 0 0 1-3.1 1.3c-.7 0-1.3 0-1.7-.3-.5-.2-.9-.5-1.2-.8-.2-.4-.3-.8-.3-1.3 0-.6.1-1.1.5-1.5.3-.5.8-.9 1.4-1.2l.4-.3-.2.3c-.4-.3-.7-.7-.8-1l-.3-1.1c0-.5.1-.8.3-1.2.2-.3.5-.5.9-.7.4-.2.8-.3 1.4-.3.6 0 1.2.2 1.6.6.4.3.7.8.7 1.4a2.2 2.2 0 0 1-.9 1.7 6 6 0 0 1-1.1.8v-.3l2.3 2.4h-.3l.5-1.3.2-1.5h1.4c0 .7-.2 1.4-.4 2-.2.6-.4 1.2-.8 1.7v-.4a4.7 4.7 0 0 0 1.8 1.2l-.5 1.1Zm-4.8-1.2a2.6 2.6 0 0 0 2-1v.4l-2.7-2.8h.7l-.4.2a5 5 0 0 0-.8.6 2 2 0 0 0-.4.6l-.1.7c0 .4.1.7.4 1 .3.2.7.3 1.3.3Zm.3-7c-.4 0-.6 0-.8.2a1 1 0 0 0-.3.8v.4l.4.5.5.6h-.4c.6-.3 1-.5 1.2-.8.2-.2.4-.5.4-.8 0-.3-.1-.6-.3-.7a1 1 0 0 0-.7-.3Zm14.7 8.2-1.1-.5-1-.8h.3a4.4 4.4 0 0 1-3 1.3c-.7 0-1.3 0-1.8-.3-.5-.2-.8-.5-1.1-.8a2 2 0 0 1-.4-1.3c0-.6.2-1.1.5-1.5.4-.5.8-.9 1.5-1.2l.4-.3-.3.3-.8-1-.3-1.1c0-.5.1-.8.4-1.2.2-.3.5-.5.9-.7.3-.2.8-.3 1.3-.3.7 0 1.2.2 1.7.6.4.3.6.8.6 1.4a2.2 2.2 0 0 1-.8 1.7 6 6 0 0 1-1.2.8v-.3l2.4 2.4h-.4l.5-1.3.3-1.5h1.3c0 .7-.1 1.4-.3 2l-.8 1.7v-.4a4.7 4.7 0 0 0 1.8 1.2l-.6 1.1Zm-4.8-1.2a2.6 2.6 0 0 0 2.1-1v.4l-2.8-2.8h.7l-.4.2a5 5 0 0 0-.7.6 2 2 0 0 0-.4.6l-.2.7c0 .4.2.7.5 1 .3.2.7.3 1.2.3Zm.3-7c-.3 0-.6 0-.8.2a1 1 0 0 0-.3.8l.1.4c0 .2.2.3.3.5l.6.6h-.4c.5-.3.9-.5 1.1-.8.3-.2.4-.5.4-.8 0-.3 0-.6-.3-.7a1 1 0 0 0-.7-.3Zm10.2 9.6v-1.7l.3.3c-.7 0-1.3-.1-1.8-.3-.6-.2-1-.4-1.5-.8l.5-1.3a4.8 4.8 0 0 0 3 1c.6 0 1-.1 1.4-.4.3-.2.4-.5.4-.8 0-.3 0-.6-.3-.7l-1-.5-1.4-.3a3 3 0 0 1-1.8-.8c-.4-.4-.6-1-.6-1.6 0-.6.1-1 .4-1.4.2-.4.6-.7 1-1 .5-.2 1-.4 1.6-.4l-.2.2v-1.7h1.3v1.7l-.3-.2c.5 0 1 .1 1.4.3.5.1 1 .4 1.2.7l-.4 1.3a4 4 0 0 0-2.5-1c-.6 0-1 .2-1.4.4-.3.3-.5.6-.5 1 0 .3 0 .5.3.7.2.2.5.4 1 .5l1.4.3a3 3 0 0 1 1.8.8c.4.4.6 1 .6 1.6 0 .5 0 1-.3 1.3l-1 1-1.6.4.3-.3v1.7h-1.3Zm9.8-6.3v-1.8h1.8v1.8h-1.8Zm0 4.8v-1.8h1.8v1.8h-1.8Zm-259.8 20.5 3.8-5v.7l-3.7-4.9h2l2.6 3.7h-.5l2.6-3.7h2l-3.6 4.9v-.7l3.7 5h-2l-2.7-3.8h.6l-2.8 3.8h-2Zm18.8.1-1.1-.5-1-.8h.3a4.4 4.4 0 0 1-3 1.3c-.7 0-1.3 0-1.8-.3-.5-.2-.8-.5-1.1-.8a2 2 0 0 1-.4-1.3c0-.6.2-1.1.5-1.5.4-.5.8-.9 1.5-1.2l.4-.3-.3.3-.8-1-.3-1.1c0-.5.1-.8.4-1.2.2-.3.5-.5.9-.7.3-.2.8-.3 1.3-.3.7 0 1.2.2 1.7.6.4.3.6.8.6 1.4a2.2 2.2 0 0 1-.8 1.7 6 6 0 0 1-1.2.8v-.3l2.4 2.4h-.4l.5-1.3.3-1.5h1.3c0 .7-.1 1.4-.3 2l-.8 1.7v-.4a4.7 4.7 0 0 0 1.8 1.2l-.6 1.1Zm-4.8-1.2a2.6 2.6 0 0 0 2.1-1v.4l-2.8-2.8h.7l-.4.2a5 5 0 0 0-.7.6 2 2 0 0 0-.4.6l-.2.7c0 .4.2.7.5 1 .3.2.7.3 1.2.3Zm.3-7c-.3 0-.6 0-.8.2a1 1 0 0 0-.3.8l.1.4c0 .2.2.3.3.5l.6.6h-.4c.5-.3.9-.5 1.1-.8.3-.2.4-.5.4-.8 0-.3 0-.6-.3-.7a1 1 0 0 0-.7-.3Zm14.8 8.2-1.2-.5-1-.8h.4a4.4 4.4 0 0 1-3.1 1.3c-.7 0-1.3 0-1.7-.3-.5-.2-.9-.5-1.2-.8-.2-.4-.3-.8-.3-1.3 0-.6.1-1.1.5-1.5.3-.5.8-.9 1.4-1.2l.4-.3-.2.3c-.4-.3-.7-.7-.8-1l-.3-1.1c0-.5.1-.8.3-1.2.2-.3.5-.5.9-.7.4-.2.8-.3 1.4-.3.6 0 1.2.2 1.6.6.4.3.7.8.7 1.4a2.2 2.2 0 0 1-.9 1.7 6 6 0 0 1-1.1.8v-.3l2.3 2.4h-.3l.5-1.3.2-1.5h1.4c0 .7-.2 1.4-.4 2-.2.6-.4 1.2-.8 1.7v-.4a4.7 4.7 0 0 0 1.8 1.2l-.5 1.1Zm-4.8-1.2a2.6 2.6 0 0 0 2-1v.4L151 270h.7l-.4.2a5 5 0 0 0-.8.6 2 2 0 0 0-.4.6l-.1.7c0 .4.1.7.4 1 .3.2.7.3 1.3.3Zm.3-7c-.4 0-.6 0-.8.2a1 1 0 0 0-.3.8v.4l.4.5.5.6h-.4c.6-.3 1-.5 1.2-.8.2-.2.4-.5.4-.8 0-.3-.1-.6-.3-.7a1 1 0 0 0-.7-.3Zm14.7 8.2-1.1-.5-1-.8h.3a4.4 4.4 0 0 1-3 1.3c-.7 0-1.3 0-1.8-.3-.5-.2-.8-.5-1.1-.8a2 2 0 0 1-.4-1.3c0-.6.2-1.1.5-1.5.4-.5.8-.9 1.5-1.2l.4-.3-.3.3-.8-1-.3-1.1c0-.5.1-.8.4-1.2.2-.3.5-.5.9-.7.3-.2.8-.3 1.3-.3.7 0 1.2.2 1.7.6.4.3.6.8.6 1.4a2.2 2.2 0 0 1-.8 1.7 6 6 0 0 1-1.2.8v-.3l2.4 2.4h-.4l.5-1.3.3-1.5h1.3c0 .7-.1 1.4-.3 2l-.8 1.7v-.4a4.7 4.7 0 0 0 1.8 1.2l-.6 1.1Zm-4.8-1.2a2.6 2.6 0 0 0 2.1-1v.4L161 270h.7l-.4.2a5 5 0 0 0-.7.6 2 2 0 0 0-.4.6l-.2.7c0 .4.2.7.5 1 .3.2.7.3 1.2.3Zm.3-7c-.3 0-.6 0-.8.2a1 1 0 0 0-.3.8l.1.4c0 .2.2.3.3.5l.6.6h-.4c.5-.3.9-.5 1.1-.8.3-.2.4-.5.4-.8 0-.3 0-.6-.3-.7a1 1 0 0 0-.7-.3Zm14.8 8.2-1.2-.5-1-.8h.4a4.4 4.4 0 0 1-3.1 1.3c-.7 0-1.3 0-1.7-.3-.5-.2-.9-.5-1.2-.8-.2-.4-.3-.8-.3-1.3 0-.6.1-1.1.5-1.5.3-.5.8-.9 1.4-1.2l.4-.3-.2.3c-.4-.3-.7-.7-.8-1l-.3-1.1c0-.5.1-.8.3-1.2.2-.3.5-.5.9-.7.4-.2.8-.3 1.4-.3.6 0 1.2.2 1.6.6.4.3.7.8.7 1.4a2.2 2.2 0 0 1-.9 1.7 6 6 0 0 1-1.1.8v-.3l2.3 2.4h-.3l.5-1.3.2-1.5h1.4c0 .7-.2 1.4-.4 2-.2.6-.4 1.2-.8 1.7v-.4a4.7 4.7 0 0 0 1.8 1.2l-.5 1.1Zm-4.8-1.2a2.6 2.6 0 0 0 2-1v.4l-2.7-2.8h.7l-.4.2a5 5 0 0 0-.8.6 2 2 0 0 0-.4.6l-.1.7c0 .4.1.7.4 1 .3.2.7.3 1.3.3Zm.3-7c-.4 0-.6 0-.8.2a1 1 0 0 0-.3.8v.4l.4.5.5.6h-.4c.6-.3 1-.5 1.2-.8.2-.2.4-.5.4-.8 0-.3-.1-.6-.3-.7a1 1 0 0 0-.7-.3Zm14.7 8.2-1.1-.5-1-.8h.3a4.4 4.4 0 0 1-3 1.3c-.7 0-1.3 0-1.8-.3-.5-.2-.8-.5-1.1-.8a2 2 0 0 1-.4-1.3c0-.6.2-1.1.5-1.5.4-.5.8-.9 1.5-1.2l.4-.3-.3.3-.8-1-.3-1.1c0-.5.1-.8.4-1.2.2-.3.5-.5.9-.7.3-.2.8-.3 1.3-.3.7 0 1.2.2 1.7.6.4.3.6.8.6 1.4a2.2 2.2 0 0 1-.8 1.7 6 6 0 0 1-1.2.8v-.3l2.4 2.4h-.4l.5-1.3.3-1.5h1.3c0 .7-.1 1.4-.3 2l-.8 1.7v-.4a4.7 4.7 0 0 0 1.8 1.2l-.6 1.1Zm-4.8-1.2a2.6 2.6 0 0 0 2.1-1v.4l-2.8-2.8h.7l-.4.2a5 5 0 0 0-.7.6 2 2 0 0 0-.4.6l-.2.7c0 .4.2.7.5 1 .3.2.7.3 1.2.3Zm.3-7c-.3 0-.6 0-.8.2a1 1 0 0 0-.3.8l.1.4c0 .2.2.3.3.5l.6.6h-.4c.5-.3.9-.5 1.1-.8.3-.2.4-.5.4-.8 0-.3 0-.6-.3-.7a1 1 0 0 0-.7-.3Zm14.8 8.2-1.2-.5-1-.8h.4a4.4 4.4 0 0 1-3.1 1.3c-.7 0-1.3 0-1.7-.3-.5-.2-.9-.5-1.2-.8-.2-.4-.3-.8-.3-1.3 0-.6.1-1.1.5-1.5.3-.5.8-.9 1.4-1.2l.4-.3-.2.3c-.4-.3-.7-.7-.8-1l-.3-1.1c0-.5.1-.8.3-1.2.2-.3.5-.5.9-.7.4-.2.8-.3 1.4-.3.6 0 1.2.2 1.6.6.4.3.7.8.7 1.4a2.2 2.2 0 0 1-.9 1.7 6 6 0 0 1-1.1.8v-.3l2.3 2.4h-.3l.5-1.3.2-1.5h1.4c0 .7-.2 1.4-.4 2-.2.6-.4 1.2-.8 1.7v-.4a4.7 4.7 0 0 0 1.8 1.2l-.5 1.1Zm-4.8-1.2a2.6 2.6 0 0 0 2-1v.4L192 270h.7l-.4.2a5 5 0 0 0-.8.6 2 2 0 0 0-.4.6l-.1.7c0 .4.1.7.4 1 .3.2.7.3 1.3.3Zm.3-7c-.4 0-.6 0-.8.2a1 1 0 0 0-.3.8v.4l.4.5.5.6h-.4c.6-.3 1-.5 1.2-.8.2-.2.4-.5.4-.8 0-.3-.1-.6-.3-.7a1 1 0 0 0-.7-.3Zm14.7 8.2-1.1-.5-1-.8h.3a4.4 4.4 0 0 1-3 1.3c-.7 0-1.3 0-1.8-.3-.5-.2-.8-.5-1.1-.8a2 2 0 0 1-.4-1.3c0-.6.2-1.1.5-1.5.4-.5.8-.9 1.5-1.2l.4-.3-.3.3-.8-1-.3-1.1c0-.5.1-.8.4-1.2.2-.3.5-.5.9-.7.3-.2.8-.3 1.3-.3.7 0 1.2.2 1.7.6.4.3.6.8.6 1.4a2.2 2.2 0 0 1-.8 1.7 6 6 0 0 1-1.2.8v-.3l2.4 2.4h-.4l.5-1.3.3-1.5h1.3c0 .7-.1 1.4-.3 2l-.8 1.7v-.4a4.7 4.7 0 0 0 1.8 1.2l-.6 1.1Zm-4.8-1.2a2.6 2.6 0 0 0 2.1-1v.4L202 270h.7l-.4.2a5 5 0 0 0-.7.6 2 2 0 0 0-.4.6l-.2.7c0 .4.2.7.5 1 .3.2.7.3 1.2.3Zm.3-7c-.3 0-.6 0-.8.2a1 1 0 0 0-.3.8l.1.4c0 .2.2.3.3.5l.6.6h-.4c.5-.3.9-.5 1.1-.8.3-.2.4-.5.4-.8 0-.3 0-.6-.3-.7a1 1 0 0 0-.7-.3Zm6.9 8.1 3.1-3.8v.8l-2.9-3.6h2l1.9 2.5h-.6l1.9-2.5h1.9l-2.9 3.6v-.8l3 3.8h-1.9l-2-2.6h.6l-2.1 2.6h-2Zm54.1 0v-1.8h1.8v1.8h-1.8Zm6.7 0 3.8-5v.7l-3.7-4.9h2l2.6 3.7h-.5l2.6-3.7h2l-3.6 4.9v-.7l3.7 5h-2l-2.7-3.8h.6l-2.8 3.8h-2Zm18.8.1-1.1-.5-1-.8h.3a4.4 4.4 0 0 1-3 1.3c-.7 0-1.3 0-1.8-.3-.5-.2-.8-.5-1.1-.8a2 2 0 0 1-.4-1.3c0-.6.2-1.1.5-1.5.4-.5.8-.9 1.5-1.2l.4-.3-.3.3-.8-1-.3-1.1c0-.5.1-.8.4-1.2.2-.3.5-.5.9-.7.3-.2.8-.3 1.3-.3.7 0 1.2.2 1.7.6.4.3.6.8.6 1.4a2.2 2.2 0 0 1-.8 1.7 6 6 0 0 1-1.2.8v-.3l2.4 2.4h-.4l.5-1.3.3-1.5h1.3c0 .7-.1 1.4-.3 2l-.8 1.7v-.4a4.7 4.7 0 0 0 1.8 1.2l-.6 1.1Zm-4.8-1.2a2.6 2.6 0 0 0 2.1-1v.4L284 270h.7l-.4.2a5 5 0 0 0-.7.6 2 2 0 0 0-.4.6l-.2.7c0 .4.2.7.5 1 .3.2.7.3 1.2.3Zm.3-7c-.3 0-.6 0-.8.2a1 1 0 0 0-.3.8l.1.4c0 .2.2.3.3.5l.6.6h-.4c.5-.3.9-.5 1.1-.8.3-.2.4-.5.4-.8 0-.3 0-.6-.3-.7a1 1 0 0 0-.7-.3Zm14.8 8.2-1.2-.5-1-.8h.4a4.4 4.4 0 0 1-3.1 1.3c-.7 0-1.3 0-1.7-.3-.5-.2-.9-.5-1.2-.8-.2-.4-.3-.8-.3-1.3 0-.6.1-1.1.5-1.5.3-.5.8-.9 1.4-1.2l.4-.3-.2.3c-.4-.3-.7-.7-.8-1l-.3-1.1c0-.5.1-.8.3-1.2.2-.3.5-.5.9-.7.4-.2.8-.3 1.4-.3.6 0 1.2.2 1.6.6.4.3.7.8.7 1.4a2.2 2.2 0 0 1-.9 1.7 6 6 0 0 1-1.1.8v-.3l2.3 2.4h-.3l.5-1.3.2-1.5h1.4c0 .7-.2 1.4-.4 2-.2.6-.4 1.2-.8 1.7v-.4a4.7 4.7 0 0 0 1.8 1.2l-.5 1.1Zm-4.8-1.2a2.6 2.6 0 0 0 2-1v.4l-2.7-2.8h.7l-.4.2a5 5 0 0 0-.8.6 2 2 0 0 0-.4.6l-.1.7c0 .4.1.7.4 1 .3.2.7.3 1.3.3Zm.3-7c-.4 0-.6 0-.8.2a1 1 0 0 0-.3.8v.4l.4.5.5.6h-.4c.6-.3 1-.5 1.2-.8.2-.2.4-.5.4-.8 0-.3-.1-.6-.3-.7a1 1 0 0 0-.7-.3Zm14.7 8.2-1.1-.5-1-.8h.3a4.4 4.4 0 0 1-3 1.3c-.7 0-1.3 0-1.8-.3-.5-.2-.8-.5-1.1-.8a2 2 0 0 1-.4-1.3c0-.6.2-1.1.5-1.5.4-.5.8-.9 1.5-1.2l.4-.3-.3.3-.8-1-.3-1.1c0-.5.1-.8.4-1.2.2-.3.5-.5.9-.7.3-.2.8-.3 1.3-.3.7 0 1.2.2 1.7.6.4.3.6.8.6 1.4a2.2 2.2 0 0 1-.8 1.7 6 6 0 0 1-1.2.8v-.3l2.4 2.4h-.4l.5-1.3.3-1.5h1.3c0 .7-.1 1.4-.3 2l-.8 1.7v-.4a4.7 4.7 0 0 0 1.8 1.2l-.6 1.1Zm-4.8-1.2a2.6 2.6 0 0 0 2.1-1v.4l-2.8-2.8h.7l-.4.2a5 5 0 0 0-.7.6 2 2 0 0 0-.4.6l-.2.7c0 .4.2.7.5 1 .3.2.7.3 1.2.3Zm.3-7c-.3 0-.6 0-.8.2a1 1 0 0 0-.3.8l.1.4c0 .2.2.3.3.5l.6.6h-.4c.5-.3.9-.5 1.1-.8.3-.2.4-.5.4-.8 0-.3 0-.6-.3-.7a1 1 0 0 0-.7-.3Zm14.8 8.2-1.2-.5-1-.8h.4a4.4 4.4 0 0 1-3.1 1.3c-.7 0-1.3 0-1.7-.3-.5-.2-.9-.5-1.2-.8-.2-.4-.3-.8-.3-1.3 0-.6.1-1.1.5-1.5.3-.5.8-.9 1.4-1.2l.4-.3-.2.3c-.4-.3-.7-.7-.8-1l-.3-1.1c0-.5.1-.8.3-1.2.2-.3.5-.5.9-.7.4-.2.8-.3 1.4-.3.6 0 1.2.2 1.6.6.4.3.7.8.7 1.4a2.2 2.2 0 0 1-.9 1.7 6 6 0 0 1-1.1.8v-.3l2.3 2.4h-.3l.5-1.3.2-1.5h1.4c0 .7-.2 1.4-.4 2-.2.6-.4 1.2-.8 1.7v-.4a4.7 4.7 0 0 0 1.8 1.2l-.5 1.1Zm-4.8-1.2a2.6 2.6 0 0 0 2-1v.4L315 270h.7l-.4.2a5 5 0 0 0-.8.6 2 2 0 0 0-.4.6l-.1.7c0 .4.1.7.4 1 .3.2.7.3 1.3.3Zm.3-7c-.4 0-.6 0-.8.2a1 1 0 0 0-.3.8v.4l.4.5.5.6h-.4c.6-.3 1-.5 1.2-.8.2-.2.4-.5.4-.8 0-.3-.1-.6-.3-.7a1 1 0 0 0-.7-.3Zm14.7 8.2-1.1-.5-1-.8h.3a4.4 4.4 0 0 1-3 1.3c-.7 0-1.3 0-1.8-.3-.5-.2-.8-.5-1.1-.8a2 2 0 0 1-.4-1.3c0-.6.2-1.1.5-1.5.4-.5.8-.9 1.5-1.2l.4-.3-.3.3-.8-1-.3-1.1c0-.5.1-.8.4-1.2.2-.3.5-.5.9-.7.3-.2.8-.3 1.3-.3.7 0 1.2.2 1.7.6.4.3.6.8.6 1.4a2.2 2.2 0 0 1-.8 1.7 6 6 0 0 1-1.2.8v-.3l2.4 2.4h-.4l.5-1.3.3-1.5h1.3c0 .7-.1 1.4-.3 2l-.8 1.7v-.4a4.7 4.7 0 0 0 1.8 1.2l-.6 1.1Zm-4.8-1.2a2.6 2.6 0 0 0 2.1-1v.4L325 270h.7l-.4.2a5 5 0 0 0-.7.6 2 2 0 0 0-.4.6l-.2.7c0 .4.2.7.5 1 .3.2.7.3 1.2.3Zm.3-7c-.3 0-.6 0-.8.2a1 1 0 0 0-.3.8l.1.4c0 .2.2.3.3.5l.6.6h-.4c.5-.3.9-.5 1.1-.8.3-.2.4-.5.4-.8 0-.3 0-.6-.3-.7a1 1 0 0 0-.7-.3Zm14.8 8.2-1.2-.5-1-.8h.4a4.4 4.4 0 0 1-3.1 1.3c-.7 0-1.3 0-1.7-.3-.5-.2-.9-.5-1.2-.8-.2-.4-.3-.8-.3-1.3 0-.6.1-1.1.5-1.5.3-.5.8-.9 1.4-1.2l.4-.3-.2.3c-.4-.3-.7-.7-.8-1l-.3-1.1c0-.5.1-.8.3-1.2.2-.3.5-.5.9-.7.4-.2.8-.3 1.4-.3.6 0 1.2.2 1.6.6.4.3.7.8.7 1.4a2.2 2.2 0 0 1-.9 1.7 6 6 0 0 1-1.1.8v-.3l2.3 2.4h-.3l.5-1.3.2-1.5h1.4c0 .7-.2 1.4-.4 2-.2.6-.4 1.2-.8 1.7v-.4a4.7 4.7 0 0 0 1.8 1.2l-.5 1.1Zm-4.8-1.2a2.6 2.6 0 0 0 2-1v.4l-2.7-2.8h.7l-.4.2a5 5 0 0 0-.8.6 2 2 0 0 0-.4.6l-.1.7c0 .4.1.7.4 1 .3.2.7.3 1.3.3Zm.3-7c-.4 0-.6 0-.8.2a1 1 0 0 0-.3.8v.4l.4.5.5.6h-.4c.6-.3 1-.5 1.2-.8.2-.2.4-.5.4-.8 0-.3-.1-.6-.3-.7a1 1 0 0 0-.7-.3Zm14.7 8.2-1.1-.5-1-.8h.3a4.4 4.4 0 0 1-3 1.3c-.7 0-1.3 0-1.8-.3-.5-.2-.8-.5-1.1-.8a2 2 0 0 1-.4-1.3c0-.6.2-1.1.5-1.5.4-.5.8-.9 1.5-1.2l.4-.3-.3.3-.8-1-.3-1.1c0-.5.1-.8.4-1.2.2-.3.5-.5.9-.7.3-.2.8-.3 1.3-.3.7 0 1.2.2 1.7.6.4.3.6.8.6 1.4a2.2 2.2 0 0 1-.8 1.7 6 6 0 0 1-1.2.8v-.3l2.4 2.4h-.4l.5-1.3.3-1.5h1.3c0 .7-.1 1.4-.3 2l-.8 1.7v-.4a4.7 4.7 0 0 0 1.8 1.2l-.6 1.1Zm-4.8-1.2a2.6 2.6 0 0 0 2.1-1v.4l-2.8-2.8h.7l-.4.2a5 5 0 0 0-.7.6 2 2 0 0 0-.4.6l-.2.7c0 .4.2.7.5 1 .3.2.7.3 1.2.3Zm.3-7c-.3 0-.6 0-.8.2a1 1 0 0 0-.3.8l.1.4c0 .2.2.3.3.5l.6.6h-.4c.5-.3.9-.5 1.1-.8.3-.2.4-.5.4-.8 0-.3 0-.6-.3-.7a1 1 0 0 0-.7-.3Zm10.2 9.6v-1.7l.3.3c-.7 0-1.3-.1-1.8-.3-.6-.2-1-.4-1.5-.8l.5-1.3a4.8 4.8 0 0 0 3 1c.6 0 1-.1 1.4-.4.3-.2.4-.5.4-.8 0-.3 0-.6-.3-.7l-1-.5-1.4-.3a3 3 0 0 1-1.8-.8c-.4-.4-.6-1-.6-1.6 0-.6.1-1 .4-1.4.2-.4.6-.7 1-1 .5-.2 1-.4 1.6-.4l-.2.2v-1.7h1.3v1.7l-.3-.2c.5 0 1 .1 1.4.3.5.1 1 .4 1.2.7l-.4 1.3a4 4 0 0 0-2.5-1c-.6 0-1 .2-1.4.4-.3.3-.5.6-.5 1 0 .3 0 .5.3.7.2.2.5.4 1 .5l1.4.3a3 3 0 0 1 1.8.8c.4.4.6 1 .6 1.6 0 .5 0 1-.3 1.3l-1 1-1.6.4.3-.3v1.7h-1.3Zm9.8-1.5v-1.8h1.8v1.8h-1.8Z"/></g><defs><clipPath id="a"><path fill="#fff" d="M0 0h400v400H0z"/></clipPath></defs></svg>