<svg width="400" height="400" fill="none" xmlns="http://www.w3.org/2000/svg"><path d="m191.8 23 .4-2.3h-1v-1h1.2l.6-2.8h-1.5v-1h1.7l.4-2.1h1.1l-.4 2h1.7l.4-2h1.1l-.4 2h1V17h-1.2l-.6 2.8h1.5v1h-1.7l-.4 2.2h-1.1l.4-2.2h-1.7l-.4 2.2h-1.1Zm1.8-3.3h1.6l.6-2.8H194l-.5 2.8Zm7.7 3.3.4-2.3h-1v-1h1.2l.6-2.8H201v-1h1.7l.4-2.1h1.1l-.4 2h1.7l.4-2h1.1l-.4 2h1V17h-1.2l-.6 2.8h1.5v1h-1.7l-.4 2.2h-1.1l.4-2.2h-1.7l-.4 2.2h-1.1Zm1.8-3.3h1.6l.6-2.8h-1.7l-.5 2.8ZM182.3 42l.4-2.3h-1v-1h1.2l.6-2.8H182v-1h1.7l.4-2.1h1.1l-.4 2h1.7l.4-2h1.1l-.4 2h1V36h-1.2l-.6 2.8h1.5v1h-1.7l-.4 2.2H185l.5-2.2h-1.7l-.4 2.2h-1.1Zm1.7-3.3h1.7l.6-2.8h-1.7l-.6 2.8Zm7.8 3.3.4-2.3h-1v-1h1.2l.6-2.8h-1.5v-1h1.7l.4-2.1h1.1l-.4 2h1.7l.4-2h1.1l-.4 2h1V36h-1.2l-.6 2.8h1.5v1h-1.7l-.4 2.2h-1.1l.4-2.2h-1.7l-.4 2.2h-1.1Zm1.8-3.3h1.6l.6-2.8H194l-.5 2.8Zm7.7 3.3.4-2.3h-1v-1h1.2l.6-2.8H201v-1h1.7l.4-2.1h1.1l-.4 2h1.7l.4-2h1.1l-.4 2h1V36h-1.2l-.6 2.8h1.5v1h-1.7l-.4 2.2h-1.1l.4-2.2h-1.7l-.4 2.2h-1.1Zm1.8-3.3h1.6l.6-2.8h-1.7l-.5 2.8Zm7.7 3.3.4-2.3h-1v-1h1.2l.6-2.8h-1.5v-1h1.7l.4-2.1h1.1l-.4 2h1.7l.4-2h1.2l-.5 2h1V36h-1.2l-.5 2.8h1.4v1h-1.7l-.4 2.2h-1.1l.4-2.2h-1.6l-.5 2.2h-1.1Zm1.8-3.3h1.6l.6-2.8H213l-.5 2.8Zm9.7-1.5v-1.8h1.8v1.8h-1.8Zm0 4.7v-1.8h1.8V42h-1.8ZM154.7 58v-1.3h4V58h-4Zm9.4 3h-1.4l5.5-9.2h1.3l-5.4 9.1Zm-1.2-3.7c-.8 0-1.4-.3-1.8-.8-.4-.5-.6-1.2-.6-2 0-1 .2-1.6.6-2.1.4-.5 1-.8 1.8-.8.7 0 1.3.3 1.7.8.4.5.6 1.2.6 2 0 1-.2 1.6-.6 2.1-.4.5-1 .8-1.7.8Zm0-1c.3 0 .5-.2.7-.5.2-.3.3-.8.3-1.4 0-.6-.1-1-.3-1.3a.8.8 0 0 0-.7-.4c-.4 0-.6.1-.8.4-.2.3-.3.7-.3 1.3 0 .7.1 1.1.3 1.4.2.3.4.4.8.4Zm6.5 4.8c-.7 0-1.3-.3-1.7-.8-.4-.5-.6-1.2-.6-2 0-1 .2-1.6.6-2 .4-.6 1-.8 1.7-.8.8 0 1.4.2 1.8.7.4.5.6 1.2.6 2 0 1-.2 1.6-.6 2.1-.4.5-1 .8-1.8.8Zm0-1c.4 0 .6-.2.8-.5.2-.3.3-.7.3-1.3 0-.7-.1-1.1-.3-1.4a.8.8 0 0 0-.8-.4c-.3 0-.5.1-.7.4-.2.3-.3.7-.3 1.4 0 .6.1 1 .3 1.3.2.3.4.4.7.4Z" fill="#000"/><path d="M173.6 61h-1.3l5.4-9.2h1.4l-5.5 9.1Zm-1.2-3.7c-.8 0-1.4-.3-1.8-.8-.4-.5-.6-1.2-.6-2 0-1 .2-1.6.6-2.1.5-.5 1-.8 1.8-.8.7 0 1.3.3 1.7.8.4.5.6 1.2.6 2 0 1-.2 1.6-.6 2.1-.4.5-1 .8-1.7.8Zm0-1c.3 0 .5-.2.7-.5.2-.3.3-.8.3-1.4 0-.6-.1-1-.3-1.3a.8.8 0 0 0-.7-.4c-.4 0-.6.1-.8.4-.2.3-.3.7-.3 1.3 0 .7.1 1.1.3 1.4.2.3.4.4.8.4Zm6.5 4.8c-.7 0-1.3-.3-1.7-.8-.4-.5-.6-1.2-.6-2 0-1 .2-1.6.6-2 .4-.6 1-.8 1.7-.8.8 0 1.4.2 1.8.7.4.5.6 1.2.6 2 0 1-.2 1.6-.6 2.1-.4.5-1 .8-1.8.8Zm0-1c.4 0 .6-.2.8-.5.2-.3.3-.7.3-1.3 0-.7-.1-1.1-.3-1.4a.8.8 0 0 0-.8-.4c-.3 0-.5.1-.7.4-.2.3-.3.7-.3 1.4 0 .6.1 1 .3 1.3.2.3.4.4.7.4Zm3.4.9.4-2.3h-1v-1h1.2l.6-2.7H182v-1.1h1.7l.4-2.1h1.1l-.4 2.1h1.7l.4-2.1h1.1l-.4 2.1h1v1h-1.2l-.6 2.8h1.5v1h-1.7l-.4 2.2H185l.5-2.2h-1.7l-.4 2.2h-1.1Zm1.7-3.3h1.7l.6-2.7h-1.7l-.6 2.7Zm7.8 3.3.4-2.3h-1v-1h1.2l.6-2.7h-1.5v-1.1h1.7l.4-2.1h1.1l-.4 2.1h1.7l.4-2.1h1.1l-.4 2.1h1v1h-1.2l-.6 2.8h1.5v1h-1.7l-.4 2.2h-1.1l.4-2.2h-1.7L193 61h-1.1Zm1.8-3.3h1.6l.6-2.7H194l-.5 2.7Zm7.7 3.3.4-2.3h-1v-1h1.2l.6-2.7H201v-1.1h1.7l.4-2.1h1.1l-.4 2.1h1.7l.4-2.1h1.1l-.4 2.1h1v1h-1.2l-.6 2.8h1.5v1h-1.7l-.4 2.2h-1.1l.4-2.2h-1.7l-.4 2.2h-1.1Zm1.8-3.3h1.6l.6-2.7h-1.7l-.5 2.7Zm7.7 3.3.4-2.3h-1v-1h1.2l.6-2.7h-1.5v-1.1h1.7l.4-2.1h1.1l-.4 2.1h1.7l.4-2.1h1.2l-.5 2.1h1v1h-1.2l-.5 2.8h1.4v1h-1.7l-.4 2.2h-1.1l.4-2.2h-1.6l-.5 2.2h-1.1Zm1.8-3.3h1.6l.6-2.7H213l-.5 2.7Zm7.7 3.3.4-2.3h-1v-1h1.2l.6-2.7H220v-1.1h1.7l.4-2.1h1.1l-.4 2.1h1.7l.4-2.1h1.2l-.5 2.1h1v1h-1.2l-.5 2.8h1.4v1h-1.7l-.4 2.2h-1.1l.4-2.2H222l-.5 2.2h-1.1Zm1.8-3.3h1.6l.6-2.7h-1.7l-.5 2.7Zm7.7 3.3.4-2.3h-1v-1h1.2l.6-2.7h-1.5v-1.1h1.7l.4-2.1h1.1l-.4 2.1h1.7l.4-2.1h1.2l-.5 2.1h1v1h-1.2l-.5 2.8h1.4v1h-1.6l-.5 2.2h-1.1l.4-2.2h-1.6l-.5 2.2h-1.1Zm1.8-3.3h1.6l.6-2.7H232l-.5 2.7ZM144 75.5v-1.2h6.3v1.2H144Zm0 2.6v-1.2h6.3v1.2H144Zm10.6 1.9h-1.4l5.5-9.2h1.3l-5.4 9.2Zm-1.3-3.7c-.7 0-1.3-.3-1.7-.8-.4-.5-.6-1.2-.6-2 0-1 .2-1.6.6-2.1.4-.5 1-.7 1.8-.7.7 0 1.3.2 1.7.7.4.5.6 1.2.6 2 0 1-.2 1.6-.6 2.1-.4.5-1 .8-1.8.8Zm0-1c.4 0 .6-.2.8-.5.2-.3.3-.7.3-1.3 0-.7-.1-1.1-.3-1.4a.8.8 0 0 0-.8-.4c-.3 0-.5.1-.7.4-.2.3-.3.7-.3 1.4 0 .6.1 1 .3 1.3.2.3.4.4.8.4ZM160 80c-.7 0-1.3-.3-1.7-.8-.4-.5-.6-1.2-.6-2 0-1 .2-1.6.6-2 .4-.6 1-.8 1.7-.8.8 0 1.4.2 1.8.7.4.5.6 1.2.6 2 0 1-.2 1.6-.6 2.1-.4.5-1 .8-1.8.8Zm0-1c.4 0 .6-.2.8-.5.2-.3.3-.7.3-1.3 0-.7-.1-1.1-.3-1.4a.8.8 0 0 0-.8-.4c-.3 0-.5.2-.7.4-.2.3-.3.7-.3 1.4 0 .6.1 1 .3 1.3.2.3.4.4.7.4Z" fill="#000"/><path d="M164.1 80h-1.4l5.5-9.2h1.3l-5.4 9.2Zm-1.2-3.7c-.8 0-1.4-.3-1.8-.8-.4-.5-.6-1.2-.6-2 0-1 .2-1.6.6-2.1.4-.5 1-.7 1.8-.7.7 0 1.3.2 1.7.7.4.5.6 1.2.6 2 0 1-.2 1.6-.6 2.1-.4.5-1 .8-1.7.8Zm0-1c.3 0 .5-.2.7-.5.2-.3.3-.7.3-1.3 0-.7-.1-1.1-.3-1.4a.8.8 0 0 0-.7-.4c-.4 0-.6.1-.8.4-.2.3-.3.7-.3 1.4 0 .6.1 1 .3 1.3.2.3.4.4.8.4Zm6.5 4.8c-.7 0-1.3-.3-1.7-.8-.4-.5-.6-1.2-.6-2 0-1 .2-1.6.6-2 .4-.6 1-.8 1.7-.8.8 0 1.4.2 1.8.7.4.5.6 1.2.6 2 0 1-.2 1.6-.6 2.1-.4.5-1 .8-1.8.8Zm0-1c.4 0 .6-.2.8-.5.2-.3.3-.7.3-1.3 0-.7-.1-1.1-.3-1.4a.8.8 0 0 0-.8-.4c-.3 0-.5.2-.7.4-.2.3-.3.7-.3 1.4 0 .6.1 1 .3 1.3.2.3.4.4.7.4Z" fill="#000"/><path d="M173.6 80h-1.3l5.4-9.2h1.4l-5.5 9.2Zm-1.2-3.7c-.8 0-1.4-.3-1.8-.8-.4-.5-.6-1.2-.6-2 0-1 .2-1.6.6-2.1.5-.5 1-.7 1.8-.7.7 0 1.3.2 1.7.7.4.5.6 1.2.6 2 0 1-.2 1.6-.6 2.1-.4.5-1 .8-1.7.8Zm0-1c.3 0 .5-.2.7-.5.2-.3.3-.7.3-1.3 0-.7-.1-1.1-.3-1.4a.8.8 0 0 0-.7-.4c-.4 0-.6.1-.8.4-.2.3-.3.7-.3 1.4 0 .6.1 1 .3 1.3.2.3.4.4.8.4Zm6.5 4.8c-.7 0-1.3-.3-1.7-.8-.4-.5-.6-1.2-.6-2 0-1 .2-1.6.6-2 .4-.6 1-.8 1.7-.8.8 0 1.4.2 1.8.7.4.5.6 1.2.6 2 0 1-.2 1.6-.6 2.1-.4.5-1 .8-1.8.8Zm0-1c.4 0 .6-.2.8-.5.2-.3.3-.7.3-1.3 0-.7-.1-1.1-.3-1.4a.8.8 0 0 0-.8-.4c-.3 0-.5.2-.7.4-.2.3-.3.7-.3 1.4 0 .6.1 1 .3 1.3.2.3.4.4.7.4Zm3.4.9.4-2.3h-1v-1h1.2l.6-2.7H182v-1.1h1.7l.4-2.1h1.1l-.4 2.1h1.7l.4-2.1h1.1l-.4 2.1h1v1h-1.2l-.6 2.8h1.5v1h-1.7l-.4 2.3H185l.5-2.3h-1.7l-.4 2.3h-1.1Zm1.7-3.3h1.7l.6-2.7h-1.7l-.6 2.7Zm7.8 3.3.4-2.3h-1v-1h1.2l.6-2.7h-1.5v-1.1h1.7l.4-2.1h1.1l-.4 2.1h1.7l.4-2.1h1.1l-.4 2.1h1v1h-1.2l-.6 2.8h1.5v1h-1.7l-.4 2.3h-1.1l.4-2.3h-1.7L193 80h-1.1Zm1.8-3.3h1.6l.6-2.7H194l-.5 2.7Zm7.7 3.3.4-2.3h-1v-1h1.2l.6-2.7H201v-1.1h1.7l.4-2.1h1.1l-.4 2.1h1.7l.4-2.1h1.1l-.4 2.1h1v1h-1.2l-.6 2.8h1.5v1h-1.7l-.4 2.3h-1.1l.4-2.3h-1.7l-.4 2.3h-1.1Zm1.8-3.3h1.6l.6-2.7h-1.7l-.5 2.7Zm7.7 3.3.4-2.3h-1v-1h1.2l.6-2.7h-1.5v-1.1h1.7l.4-2.1h1.1l-.4 2.1h1.7l.4-2.1h1.2l-.5 2.1h1v1h-1.2l-.5 2.8h1.4v1h-1.7l-.4 2.3h-1.1l.4-2.3h-1.6l-.5 2.3h-1.1Zm1.8-3.3h1.6l.6-2.7H213l-.5 2.7Zm7.7 3.3.4-2.3h-1v-1h1.2l.6-2.7H220v-1.1h1.7l.4-2.1h1.1l-.4 2.1h1.7l.4-2.1h1.2l-.5 2.1h1v1h-1.2l-.5 2.8h1.4v1h-1.7l-.4 2.3h-1.1l.4-2.3H222l-.5 2.3h-1.1Zm1.8-3.3h1.6l.6-2.7h-1.7l-.5 2.7Zm7.7 3.3.4-2.3h-1v-1h1.2l.6-2.7h-1.5v-1.1h1.7l.4-2.1h1.1l-.4 2.1h1.7l.4-2.1h1.2l-.5 2.1h1v1h-1.2l-.5 2.8h1.4v1h-1.6l-.5 2.3h-1.1l.4-2.3h-1.6l-.5 2.3h-1.1Zm1.8-3.3h1.6l.6-2.7H232l-.5 2.7Zm7.7 3.3.4-2.3h-1v-1h1.2l.6-2.7H239v-1.1h1.7l.4-2.1h1.2l-.5 2.1h1.7l.4-2.1h1.2l-.5 2.1h1v1h-1.2l-.5 2.8h1.4v1h-1.6l-.5 2.3h-1.1l.4-2.3H241l-.5 2.3h-1.1Zm1.8-3.3h1.6l.6-2.7h-1.7l-.5 2.7Zm9.7-1.5v-1.8h1.8v1.8h-1.8Zm0 4.8v-2h1.8v2h-1.8ZM134.4 94.5v-1.1h6.4v1.1h-6.4Zm0 2.6V96h6.4v1h-6.4Zm10.7 1.9h-1.4l5.5-9.2h1.3l-5.4 9.2Zm-1.3-3.7c-.7 0-1.3-.3-1.7-.8-.4-.5-.6-1.2-.6-2 0-1 .2-1.6.6-2.1.4-.5 1-.7 1.7-.7.8 0 1.4.2 1.8.7.4.5.6 1.2.6 2 0 1-.2 1.6-.6 2.1-.4.5-1 .8-1.8.8Zm0-1c.4 0 .6-.2.8-.5.2-.3.3-.7.3-1.3 0-.7-.1-1.1-.3-1.4a.8.8 0 0 0-.8-.4c-.3 0-.5.1-.7.4-.2.3-.3.7-.3 1.4 0 .6.1 1 .3 1.3.2.3.4.4.7.4Zm6.6 4.8c-.7 0-1.3-.3-1.7-.8-.4-.5-.6-1.2-.6-2 0-1 .2-1.6.6-2 .4-.6 1-.8 1.7-.8.8 0 1.3.2 1.8.7.4.5.6 1.2.6 2 0 1-.2 1.6-.6 2.1-.4.5-1 .8-1.8.8Zm0-1c.4 0 .6-.2.8-.5.2-.3.3-.7.3-1.3 0-.6-.1-1-.3-1.4a.8.8 0 0 0-.8-.4c-.3 0-.5.2-.7.4-.2.3-.3.8-.3 1.4 0 .6.1 1 .3 1.3.2.3.4.4.7.4Z" fill="#000"/><path d="M154.6 99h-1.4l5.5-9.2h1.3l-5.4 9.2Zm-1.3-3.7c-.7 0-1.3-.3-1.7-.8-.4-.5-.6-1.2-.6-2 0-1 .2-1.6.6-2.1.4-.5 1-.7 1.8-.7.7 0 1.3.2 1.7.7.4.5.6 1.2.6 2 0 1-.2 1.6-.6 2.1-.4.5-1 .8-1.8.8Zm0-1c.4 0 .6-.2.8-.5.2-.3.3-.7.3-1.3 0-.7-.1-1.1-.3-1.4a.8.8 0 0 0-.8-.4c-.3 0-.5.1-.7.4-.2.3-.3.7-.3 1.4 0 .6.1 1 .3 1.3.2.3.4.4.8.4ZM160 99c-.7 0-1.3-.3-1.7-.8-.4-.5-.6-1.2-.6-2 0-1 .2-1.6.6-2 .4-.6 1-.8 1.7-.8.8 0 1.4.2 1.8.7.4.5.6 1.2.6 2 0 1-.2 1.6-.6 2.1-.4.5-1 .8-1.8.8Zm0-1c.4 0 .6-.2.8-.5.2-.3.3-.7.3-1.3 0-.6-.1-1-.3-1.4a.8.8 0 0 0-.8-.4c-.3 0-.5.2-.7.4-.2.3-.3.8-.3 1.4 0 .6.1 1 .3 1.3.2.3.4.4.7.4Z" fill="#000"/><path d="M164.1 99h-1.4l5.5-9.2h1.3l-5.4 9.2Zm-1.2-3.7c-.8 0-1.4-.3-1.8-.8-.4-.5-.6-1.2-.6-2 0-1 .2-1.6.6-2.1.4-.5 1-.7 1.8-.7.7 0 1.3.2 1.7.7.4.5.6 1.2.6 2 0 1-.2 1.6-.6 2.1-.4.5-1 .8-1.7.8Zm0-1c.3 0 .5-.2.7-.5.2-.3.3-.7.3-1.3 0-.7-.1-1.1-.3-1.4a.8.8 0 0 0-.7-.4c-.4 0-.6.1-.8.4-.2.3-.3.7-.3 1.4 0 .6.1 1 .3 1.3.2.3.4.4.8.4Zm6.5 4.8c-.7 0-1.3-.3-1.7-.8-.4-.5-.6-1.2-.6-2 0-1 .2-1.6.6-2 .4-.6 1-.8 1.7-.8.8 0 1.4.2 1.8.7.4.5.6 1.2.6 2 0 1-.2 1.6-.6 2.1-.4.5-1 .8-1.8.8Zm0-1c.4 0 .6-.2.8-.5.2-.3.3-.7.3-1.3 0-.6-.1-1-.3-1.4a.8.8 0 0 0-.8-.4c-.3 0-.5.2-.7.4-.2.3-.3.8-.3 1.4 0 .6.1 1 .3 1.3.2.3.4.4.7.4Z" fill="#000"/><path d="M173.6 99h-1.3l5.4-9.2h1.4l-5.5 9.2Zm-1.2-3.7c-.8 0-1.4-.3-1.8-.8-.4-.5-.6-1.2-.6-2 0-1 .2-1.6.6-2.1.5-.5 1-.7 1.8-.7.7 0 1.3.2 1.7.7.4.5.6 1.2.6 2 0 1-.2 1.6-.6 2.1-.4.5-1 .8-1.7.8Zm0-1c.3 0 .5-.2.7-.5.2-.3.3-.7.3-1.3 0-.7-.1-1.1-.3-1.4a.8.8 0 0 0-.7-.4c-.4 0-.6.1-.8.4-.2.3-.3.7-.3 1.4 0 .6.1 1 .3 1.3.2.3.4.4.8.4Zm6.5 4.8c-.7 0-1.3-.3-1.7-.8-.4-.5-.6-1.2-.6-2 0-1 .2-1.6.6-2 .4-.6 1-.8 1.7-.8.8 0 1.4.2 1.8.7.4.5.6 1.2.6 2 0 1-.2 1.6-.6 2.1-.4.5-1 .8-1.8.8Zm0-1c.4 0 .6-.2.8-.5.2-.3.3-.7.3-1.3 0-.6-.1-1-.3-1.4a.8.8 0 0 0-.8-.4c-.3 0-.5.2-.7.4-.2.3-.3.8-.3 1.4 0 .6.1 1 .3 1.3.2.3.4.4.7.4Z" fill="#000"/><path d="M183.1 99h-1.3l5.4-9.2h1.4L183 99Zm-1.2-3.7c-.8 0-1.4-.3-1.8-.8-.4-.5-.6-1.2-.6-2 0-1 .2-1.6.6-2.1.5-.5 1-.7 1.8-.7.7 0 1.3.2 1.7.7.4.5.6 1.2.6 2 0 1-.2 1.6-.6 2.1-.4.5-1 .8-1.7.8Zm0-1c.3 0 .5-.2.7-.5.2-.3.3-.7.3-1.3 0-.7-.1-1.1-.3-1.4a.8.8 0 0 0-.7-.4c-.4 0-.6.1-.8.4-.2.3-.3.7-.3 1.4 0 .6.1 1 .3 1.3.2.3.4.4.8.4Zm6.6 4.8c-.8 0-1.4-.3-1.8-.8-.4-.5-.6-1.2-.6-2 0-1 .2-1.6.6-2 .4-.6 1-.8 1.8-.8.7 0 1.3.2 1.7.7.4.5.6 1.2.6 2 0 1-.2 1.6-.6 2.1-.4.5-1 .8-1.7.8Zm0-1c.3 0 .5-.2.7-.5.2-.3.3-.7.3-1.3 0-.6-.1-1-.3-1.4a.8.8 0 0 0-.7-.4c-.4 0-.6.2-.8.4-.2.3-.3.8-.3 1.4 0 .6.1 1 .3 1.3.2.3.4.4.8.4Zm3.3.9.4-2.3h-1v-1h1.2l.6-2.7h-1.5v-1h1.7l.4-2.2h1.1l-.4 2.1h1.7l.4-2.1h1.1l-.4 2.1h1v1h-1.2l-.6 2.8h1.5v1h-1.7l-.4 2.3h-1.1l.4-2.3h-1.7L193 99h-1.1Zm1.8-3.3h1.6l.6-2.7H194l-.5 2.7Zm7.7 3.3.4-2.3h-1v-1h1.2l.6-2.7H201v-1h1.7l.4-2.2h1.1l-.4 2.1h1.7l.4-2.1h1.1l-.4 2.1h1v1h-1.2l-.6 2.8h1.5v1h-1.7l-.4 2.3h-1.1l.4-2.3h-1.7l-.4 2.3h-1.1Zm1.8-3.3h1.6l.6-2.7h-1.7l-.5 2.7Zm7.7 3.3.4-2.3h-1v-1h1.2l.6-2.7h-1.5v-1h1.7l.4-2.2h1.1l-.4 2.1h1.7l.4-2.1h1.2l-.5 2.1h1v1h-1.2l-.5 2.8h1.4v1h-1.7l-.4 2.3h-1.1l.4-2.3h-1.6l-.5 2.3h-1.1Zm1.8-3.3h1.6l.6-2.7H213l-.5 2.7Zm7.7 3.3.4-2.3h-1v-1h1.2l.6-2.7H220v-1h1.7l.4-2.2h1.1l-.4 2.1h1.7l.4-2.1h1.2l-.5 2.1h1v1h-1.2l-.5 2.8h1.4v1h-1.7l-.4 2.3h-1.1l.4-2.3H222l-.5 2.3h-1.1Zm1.8-3.3h1.6l.6-2.7h-1.7l-.5 2.7Zm7.7 3.3.4-2.3h-1v-1h1.2l.6-2.7h-1.5v-1h1.7l.4-2.2h1.1l-.4 2.1h1.7l.4-2.1h1.2l-.5 2.1h1v1h-1.2l-.5 2.8h1.4v1h-1.6l-.5 2.3h-1.1l.4-2.3h-1.6l-.5 2.3h-1.1Zm1.8-3.3h1.6l.6-2.7H232l-.5 2.7Zm7.7 3.3.4-2.3h-1v-1h1.2l.6-2.7H239v-1h1.7l.4-2.2h1.2l-.5 2.1h1.7l.4-2.1h1.2l-.5 2.1h1v1h-1.2l-.5 2.8h1.4v1h-1.6l-.5 2.3h-1.1l.4-2.3H241l-.5 2.3h-1.1Zm1.8-3.3h1.6l.6-2.7h-1.7l-.5 2.7Zm7.7 3.3.4-2.3h-1v-1h1.2l.6-2.7h-1.5v-1h1.7l.4-2.2h1.2l-.5 2.1h1.7l.4-2.1h1.2l-.5 2.1h1v1h-1.2l-.5 2.8h1.4v1h-1.6l-.5 2.3h-1.1l.4-2.3h-1.6l-.5 2.3h-1.1Zm1.8-3.3h1.6l.6-2.7H251l-.5 2.7Zm9.7-1.5v-1.8h1.8v1.8h-1.8Zm0 4.8v-1.8h1.8V99h-1.8Zm-133.1 19v-1.8h1.8v1.8h-1.8Zm10.6 2.1a6 6 0 0 1-2.4-.4 5.2 5.2 0 0 1-3-3c-.2-.6-.3-1.4-.3-2.2 0-.9.1-1.7.4-2.4a5.3 5.3 0 0 1 3-3c.8-.3 1.6-.4 2.5-.4a5.2 5.2 0 0 1 4.6 2.3c.4.7.6 1.5.6 2.5a6 6 0 0 1-.3 2 3 3 0 0 1-1 1.3c-.3.3-.8.4-1.3.4s-1-.1-1.2-.4c-.3-.3-.5-.7-.5-1.3h.4c-.2.5-.5 1-1 1.3-.3.3-.8.4-1.2.4a2 2 0 0 1-1.7-.7c-.4-.4-.6-1-.6-1.7s.2-1.2.4-1.7c.3-.5.6-1 1-1.2.4-.3 1-.4 1.5-.4.4 0 .8 0 1.1.3.3.3.5.6.6 1h-.2l.2-1.2h1.3l-.6 3.1a8.3 8.3 0 0 0 0 .7v.6c.2.2.4.2.6.2.3 0 .5 0 .8-.3.2-.2.4-.5.5-1l.2-1.4a4 4 0 0 0-.5-2 4 4 0 0 0-1.5-1.4 5 5 0 0 0-2.2-.4 4.9 4.9 0 0 0-4.2 2.2c-.4.8-.6 1.6-.6 2.6s.2 1.8.6 2.5a3 3 0 0 0 1.6 1.5 5 5 0 0 0 2.4.6c.6 0 1.2 0 1.8-.3a4 4 0 0 0 1.4-.8l.5.9c-.4.4-1 .7-1.6.9-.6.2-1.3.3-2.1.3Zm-.5-4c.3 0 .6 0 .9-.2.3-.2.5-.5.6-.9.2-.3.2-.7.2-1.2 0-.4 0-.7-.3-1-.1-.2-.4-.3-.8-.3a2 2 0 0 0-1 .3l-.6.8-.2 1.2c0 .4.1.8.3 1 .2.2.5.4.9.4Z" fill="#000"/><path d="M145.1 118h-1.4l5.5-9.2h1.3l-5.4 9.2Zm-1.3-3.7c-.7 0-1.3-.3-1.7-.8-.4-.5-.6-1.2-.6-2 0-1 .2-1.6.6-2 .4-.6 1-.8 1.7-.8.8 0 1.4.2 1.8.7.4.5.6 1.2.6 2 0 1-.2 1.6-.6 2.1-.4.5-1 .8-1.8.8Zm0-1c.4 0 .6-.2.8-.5.2-.3.3-.7.3-1.3 0-.7-.1-1-.3-1.4a.8.8 0 0 0-.8-.4c-.3 0-.5.2-.7.4-.2.3-.3.7-.3 1.4 0 .6.1 1 .3 1.3.2.3.4.4.7.4Zm6.6 4.8c-.7 0-1.3-.3-1.7-.8-.4-.5-.6-1.2-.6-2 0-.9.2-1.6.6-2 .4-.6 1-.8 1.7-.8.8 0 1.3.2 1.8.7.4.5.6 1.2.6 2 0 1-.2 1.6-.6 2.1-.4.5-1 .8-1.8.8Zm0-1c.4 0 .6-.2.8-.5.2-.3.3-.7.3-1.3 0-.6-.1-1-.3-1.4a.8.8 0 0 0-.8-.4c-.3 0-.5.2-.7.4-.2.3-.3.8-.3 1.4 0 .6.1 1 .3 1.3.2.3.4.4.7.4Z" fill="#000"/><path d="M154.6 118h-1.4l5.5-9.2h1.3l-5.4 9.2Zm-1.3-3.7c-.7 0-1.3-.3-1.7-.8-.4-.5-.6-1.2-.6-2 0-1 .2-1.6.6-2 .4-.6 1-.8 1.8-.8.7 0 1.3.2 1.7.7.4.5.6 1.2.6 2 0 1-.2 1.6-.6 2.1-.4.5-1 .8-1.8.8Zm0-1c.4 0 .6-.2.8-.5.2-.3.3-.7.3-1.3 0-.7-.1-1-.3-1.4a.8.8 0 0 0-.8-.4c-.3 0-.5.2-.7.4-.2.3-.3.7-.3 1.4 0 .6.1 1 .3 1.3.2.3.4.4.8.4Zm6.6 4.8c-.7 0-1.3-.3-1.7-.8-.4-.5-.6-1.2-.6-2 0-.9.2-1.6.6-2 .4-.6 1-.8 1.7-.8.8 0 1.4.2 1.8.7.4.5.6 1.2.6 2 0 1-.2 1.6-.6 2.1-.4.5-1 .8-1.8.8Zm0-1c.4 0 .6-.2.8-.5.2-.3.3-.7.3-1.3 0-.6-.1-1-.3-1.4a.8.8 0 0 0-.8-.4c-.3 0-.5.2-.7.4-.2.3-.3.8-.3 1.4 0 .6.1 1 .3 1.3.2.3.4.4.7.4Z" fill="#000"/><path d="M164.1 118h-1.4l5.5-9.2h1.3l-5.4 9.2Zm-1.2-3.7c-.8 0-1.4-.3-1.8-.8-.4-.5-.6-1.2-.6-2 0-1 .2-1.6.6-2 .4-.6 1-.8 1.8-.8.7 0 1.3.2 1.7.7.4.5.6 1.2.6 2 0 1-.2 1.6-.6 2.1-.4.5-1 .8-1.7.8Zm0-1c.3 0 .5-.2.7-.5.2-.3.3-.7.3-1.3 0-.7-.1-1-.3-1.4a.8.8 0 0 0-.7-.4c-.4 0-.6.2-.8.4-.2.3-.3.7-.3 1.4 0 .6.1 1 .3 1.3.2.3.4.4.8.4Zm6.5 4.8c-.7 0-1.3-.3-1.7-.8-.4-.5-.6-1.2-.6-2 0-.9.2-1.6.6-2 .4-.6 1-.8 1.7-.8.8 0 1.4.2 1.8.7.4.5.6 1.2.6 2 0 1-.2 1.6-.6 2.1-.4.5-1 .8-1.8.8Zm0-1c.4 0 .6-.2.8-.5.2-.3.3-.7.3-1.3 0-.6-.1-1-.3-1.4a.8.8 0 0 0-.8-.4c-.3 0-.5.2-.7.4-.2.3-.3.8-.3 1.4 0 .6.1 1 .3 1.3.2.3.4.4.7.4Z" fill="#000"/><path d="M173.6 118h-1.3l5.4-9.2h1.4l-5.5 9.2Zm-1.2-3.7c-.8 0-1.4-.3-1.8-.8-.4-.5-.6-1.2-.6-2 0-1 .2-1.6.6-2 .5-.6 1-.8 1.8-.8.7 0 1.3.2 1.7.7.4.5.6 1.2.6 2 0 1-.2 1.6-.6 2.1-.4.5-1 .8-1.7.8Zm0-1c.3 0 .5-.2.7-.5.2-.3.3-.7.3-1.3 0-.7-.1-1-.3-1.4a.8.8 0 0 0-.7-.4c-.4 0-.6.2-.8.4-.2.3-.3.7-.3 1.4 0 .6.1 1 .3 1.3.2.3.4.4.8.4Zm6.5 4.8c-.7 0-1.3-.3-1.7-.8-.4-.5-.6-1.2-.6-2 0-.9.2-1.6.6-2 .4-.6 1-.8 1.7-.8.8 0 1.4.2 1.8.7.4.5.6 1.2.6 2 0 1-.2 1.6-.6 2.1-.4.5-1 .8-1.8.8Zm0-1c.4 0 .6-.2.8-.5.2-.3.3-.7.3-1.3 0-.6-.1-1-.3-1.4a.8.8 0 0 0-.8-.4c-.3 0-.5.2-.7.4-.2.3-.3.8-.3 1.4 0 .6.1 1 .3 1.3.2.3.4.4.7.4Z" fill="#000"/><path d="M183.1 118h-1.3l5.4-9.2h1.4L183 118Zm-1.2-3.7c-.8 0-1.4-.3-1.8-.8-.4-.5-.6-1.2-.6-2 0-1 .2-1.6.6-2 .5-.6 1-.8 1.8-.8.7 0 1.3.2 1.7.7.4.5.6 1.2.6 2 0 1-.2 1.6-.6 2.1-.4.5-1 .8-1.7.8Zm0-1c.3 0 .5-.2.7-.5.2-.3.3-.7.3-1.3 0-.7-.1-1-.3-1.4a.8.8 0 0 0-.7-.4c-.4 0-.6.2-.8.4-.2.3-.3.7-.3 1.4 0 .6.1 1 .3 1.3.2.3.4.4.8.4Zm6.6 4.8c-.8 0-1.4-.3-1.8-.8-.4-.5-.6-1.2-.6-2 0-.9.2-1.6.6-2 .4-.6 1-.8 1.8-.8.7 0 1.3.2 1.7.7.4.5.6 1.2.6 2 0 1-.2 1.6-.6 2.1-.4.5-1 .8-1.7.8Zm0-1c.3 0 .5-.2.7-.5.2-.3.3-.7.3-1.3 0-.6-.1-1-.3-1.4a.8.8 0 0 0-.7-.4c-.4 0-.6.2-.8.4-.2.3-.3.8-.3 1.4 0 .6.1 1 .3 1.3.2.3.4.4.8.4Z" fill="#000"/><path d="M192.7 118h-1.4l5.4-9.2h1.4l-5.4 9.2Zm-1.3-3.7c-.8 0-1.3-.3-1.8-.8-.4-.5-.6-1.2-.6-2 0-1 .2-1.6.6-2 .5-.6 1-.8 1.8-.8.7 0 1.3.2 1.7.7.4.5.6 1.2.6 2 0 1-.2 1.6-.6 2.1-.4.5-1 .8-1.7.8Zm0-1c.3 0 .5-.2.7-.5.2-.3.3-.7.3-1.3 0-.7-.1-1-.3-1.4a.8.8 0 0 0-.7-.4c-.4 0-.6.2-.8.4-.2.3-.3.7-.3 1.4 0 .6.1 1 .3 1.3.2.3.4.4.8.4Zm6.6 4.8c-.8 0-1.4-.3-1.8-.8-.4-.5-.6-1.2-.6-2 0-.9.2-1.6.6-2 .5-.6 1-.8 1.8-.8.7 0 1.3.2 1.7.7.4.5.6 1.2.6 2 0 1-.2 1.6-.6 2.1-.4.5-1 .8-1.7.8Zm0-1c.3 0 .5-.2.7-.5.2-.3.3-.7.3-1.3 0-.6-.1-1-.3-1.4a.8.8 0 0 0-.7-.4c-.4 0-.6.2-.8.4-.2.3-.3.8-.3 1.4 0 .6.1 1 .3 1.3.2.3.4.4.8.4Zm3.3.9.4-2.3h-1v-1h1.2l.6-2.7H201v-1h1.7l.4-2.2h1.1l-.4 2.1h1.7l.4-2.1h1.1l-.4 2.1h1v1h-1.2l-.6 2.8h1.5v1h-1.7l-.4 2.3h-1.1l.4-2.3h-1.7l-.4 2.3h-1.1Zm1.8-3.3h1.6l.6-2.7h-1.7l-.5 2.7Zm7.7 3.3.4-2.3h-1v-1h1.2l.6-2.7h-1.5v-1h1.7l.4-2.2h1.1l-.4 2.1h1.7l.4-2.1h1.2l-.5 2.1h1v1h-1.2l-.5 2.8h1.4v1h-1.7l-.4 2.3h-1.1l.4-2.3h-1.6l-.5 2.3h-1.1Zm1.8-3.3h1.6l.6-2.7H213l-.5 2.7Zm7.7 3.3.4-2.3h-1v-1h1.2l.6-2.7H220v-1h1.7l.4-2.2h1.1l-.4 2.1h1.7l.4-2.1h1.2l-.5 2.1h1v1h-1.2l-.5 2.8h1.4v1h-1.7l-.4 2.3h-1.1l.4-2.3H222l-.5 2.3h-1.1Zm1.8-3.3h1.6l.6-2.7h-1.7l-.5 2.7Zm7.7 3.3.4-2.3h-1v-1h1.2l.6-2.7h-1.5v-1h1.7l.4-2.2h1.1l-.4 2.1h1.7l.4-2.1h1.2l-.5 2.1h1v1h-1.2l-.5 2.8h1.4v1h-1.6l-.5 2.3h-1.1l.4-2.3h-1.6l-.5 2.3h-1.1Zm1.8-3.3h1.6l.6-2.7H232l-.5 2.7Zm7.7 3.3.4-2.3h-1v-1h1.2l.6-2.7H239v-1h1.7l.4-2.2h1.2l-.5 2.1h1.7l.4-2.1h1.2l-.5 2.1h1v1h-1.2l-.5 2.8h1.4v1h-1.6l-.5 2.3h-1.1l.4-2.3H241l-.5 2.3h-1.1Zm1.8-3.3h1.6l.6-2.7h-1.7l-.5 2.7Zm7.7 3.3.4-2.3h-1v-1h1.2l.6-2.7h-1.5v-1h1.7l.4-2.2h1.2l-.5 2.1h1.7l.4-2.1h1.2l-.5 2.1h1v1h-1.2l-.5 2.8h1.4v1h-1.6l-.5 2.3h-1.1l.4-2.3h-1.6l-.5 2.3h-1.1Zm1.8-3.3h1.6l.6-2.7H251l-.5 2.7Zm7.7 3.3.4-2.3h-1v-1h1.2l.6-2.7H258v-1h1.7l.4-2.2h1.2l-.5 2.1h1.7l.4-2.1h1.2l-.5 2.1h1v1h-1.2l-.5 2.8h1.4v1h-1.6l-.5 2.3h-1.1l.4-2.3H260l-.5 2.3h-1.1Zm1.8-3.3h1.6l.6-2.7h-1.7l-.5 2.7ZM125.2 137l.5-2.3h-1v-1h1.2l.5-2.7H125v-1h1.7l.4-2.2h1.1l-.4 2.1h1.7l.4-2h1.1l-.4 2h1v1h-1.2l-.6 2.8h1.5v1h-1.7l-.4 2.3H128l.5-2.3h-1.7l-.4 2.3h-1.2Zm1.8-3.3h1.7l.5-2.7h-1.6l-.6 2.7Zm10.8 5.4a6 6 0 0 1-2.4-.4 5.2 5.2 0 0 1-3-3c-.2-.6-.3-1.4-.3-2.2 0-.9.1-1.7.4-2.4a5.3 5.3 0 0 1 3-3c.8-.3 1.6-.4 2.5-.4a5.2 5.2 0 0 1 4.6 2.3 6 6 0 0 1 .3 4.5 3 3 0 0 1-1 1.3c-.3.3-.8.4-1.3.4s-1-.1-1.2-.4c-.3-.3-.5-.7-.5-1.2l.4-.2c-.2.6-.5 1-1 1.4-.3.3-.8.4-1.2.4a2 2 0 0 1-1.7-.6c-.4-.5-.6-1-.6-1.8 0-.7.2-1.2.4-1.7.3-.5.6-1 1-1.2.4-.3 1-.4 1.5-.4.4 0 .8.1 1.1.3.3.3.5.6.6 1h-.2l.2-1.2h1.3l-.6 3.1a8.3 8.3 0 0 0 0 .8v.5c.2.2.4.2.6.2.3 0 .5 0 .8-.3.2-.2.4-.5.5-1l.2-1.4a4 4 0 0 0-.5-2 4 4 0 0 0-1.5-1.4 5 5 0 0 0-2.2-.4c-1 0-1.8.2-2.5.6a4 4 0 0 0-1.7 1.7c-.4.7-.6 1.5-.6 2.5s.2 1.8.6 2.5c.3.7.9 1.2 1.6 1.6a5 5 0 0 0 2.4.5c.6 0 1.2 0 1.8-.3a4 4 0 0 0 1.4-.8l.5.9c-.4.4-1 .7-1.6.9-.6.2-1.3.3-2.1.3Zm-.5-4c.3 0 .6 0 .9-.2.3-.2.5-.5.6-.9.2-.3.2-.7.2-1.2 0-.4 0-.7-.3-1-.1-.2-.4-.3-.8-.3a2 2 0 0 0-1 .3l-.6.8-.2 1.2c0 .4.1.8.3 1 .2.3.5.4.9.4Z" fill="#000"/><path d="M147.3 139.1a6 6 0 0 1-2.4-.4 5 5 0 0 1-3-2.9 8.5 8.5 0 0 1 .1-4.7 5.3 5.3 0 0 1 3-3c.8-.3 1.6-.4 2.5-.4a5.2 5.2 0 0 1 4.6 2.3 6 6 0 0 1 .3 4.5 3 3 0 0 1-1 1.3c-.3.3-.8.4-1.3.4s-1-.1-1.2-.4c-.3-.3-.5-.7-.5-1.2l.4-.2c-.2.6-.5 1-1 1.4-.3.3-.8.4-1.2.4a2 2 0 0 1-1.7-.6c-.4-.5-.6-1-.6-1.8 0-.7.2-1.2.4-1.7.3-.5.6-1 1-1.2.4-.3 1-.4 1.5-.4.4 0 .8.1 1.1.3.3.3.5.6.6 1h-.2l.3-1.2h1.2l-.6 3.1a8.3 8.3 0 0 0 0 .8v.5c.2.2.4.2.6.2.3 0 .5 0 .8-.3.2-.2.4-.5.5-1l.2-1.4a4 4 0 0 0-.5-2 4 4 0 0 0-1.5-1.4 5 5 0 0 0-2.2-.4c-1 0-1.8.2-2.5.6-.7.4-1.3 1-1.7 1.7-.4.7-.6 1.5-.6 2.5s.2 1.8.6 2.5c.3.7.9 1.2 1.6 1.6a5 5 0 0 0 2.4.5c.6 0 1.2 0 1.8-.3a4 4 0 0 0 1.4-.8l.5.9c-.4.4-1 .7-1.6.9-.6.2-1.3.3-2.1.3Zm-.5-4c.3 0 .6 0 .9-.2.3-.2.5-.5.6-.9.2-.3.2-.7.2-1.2 0-.4 0-.7-.3-1-.1-.2-.4-.3-.8-.3a2 2 0 0 0-1 .3l-.6.8a3 3 0 0 0-.2 1.2c0 .4.1.8.3 1 .2.3.5.4.9.4Z" fill="#000"/><path d="M154.6 137h-1.4l5.5-9.2h1.3l-5.4 9.2Zm-1.3-3.7c-.7 0-1.3-.3-1.7-.8-.4-.5-.6-1.2-.6-2 0-.9.2-1.6.6-2 .4-.6 1-.8 1.8-.8.7 0 1.3.2 1.7.7.4.5.6 1.2.6 2 0 1-.2 1.6-.6 2.1-.4.5-1 .8-1.8.8Zm0-1c.4 0 .6-.2.8-.5.2-.3.3-.7.3-1.3 0-.6-.1-1-.3-1.4a.8.8 0 0 0-.8-.4c-.3 0-.5.2-.7.4-.2.3-.3.7-.3 1.4 0 .6.1 1 .3 1.3.2.3.4.4.8.4Zm6.6 4.8c-.7 0-1.3-.3-1.7-.8-.4-.5-.6-1.2-.6-2 0-.9.2-1.6.6-2 .4-.6 1-.8 1.7-.8.8 0 1.4.3 1.8.8.4.4.6 1.1.6 2 0 .8-.2 1.5-.6 2-.4.5-1 .8-1.8.8Zm0-1c.4 0 .6-.2.8-.5.2-.3.3-.7.3-1.3 0-.6-.1-1-.3-1.3a.8.8 0 0 0-.8-.5c-.3 0-.5.2-.7.5-.2.2-.3.7-.3 1.3 0 .6.1 1 .3 1.3.2.3.4.4.7.4Z" fill="#000"/><path d="M164.1 137h-1.4l5.5-9.2h1.3l-5.4 9.2Zm-1.2-3.7c-.8 0-1.4-.3-1.8-.8-.4-.5-.6-1.2-.6-2 0-.9.2-1.6.6-2 .4-.6 1-.8 1.8-.8.7 0 1.3.2 1.7.7.4.5.6 1.2.6 2 0 1-.2 1.6-.6 2.1-.4.5-1 .8-1.7.8Zm0-1c.3 0 .5-.2.7-.5.2-.3.3-.7.3-1.3 0-.6-.1-1-.3-1.4a.8.8 0 0 0-.7-.4c-.4 0-.6.2-.8.4-.2.3-.3.7-.3 1.4 0 .6.1 1 .3 1.3.2.3.4.4.8.4Zm6.5 4.8c-.7 0-1.3-.3-1.7-.8-.4-.5-.6-1.2-.6-2 0-.9.2-1.6.6-2 .4-.6 1-.8 1.7-.8.8 0 1.4.3 1.8.8.4.4.6 1.1.6 2 0 .8-.2 1.5-.6 2-.4.5-1 .8-1.8.8Zm0-1c.4 0 .6-.2.8-.5.2-.3.3-.7.3-1.3 0-.6-.1-1-.3-1.3a.8.8 0 0 0-.8-.5c-.3 0-.5.2-.7.5-.2.2-.3.7-.3 1.3 0 .6.1 1 .3 1.3.2.3.4.4.7.4Z" fill="#000"/><path d="M173.6 137h-1.3l5.4-9.2h1.4l-5.5 9.2Zm-1.2-3.7c-.8 0-1.4-.3-1.8-.8-.4-.5-.6-1.2-.6-2 0-.9.2-1.6.6-2 .5-.6 1-.8 1.8-.8.7 0 1.3.2 1.7.7.4.5.6 1.2.6 2 0 1-.2 1.6-.6 2.1-.4.5-1 .8-1.7.8Zm0-1c.3 0 .5-.2.7-.5.2-.3.3-.7.3-1.3 0-.6-.1-1-.3-1.4a.8.8 0 0 0-.7-.4c-.4 0-.6.2-.8.4-.2.3-.3.7-.3 1.4 0 .6.1 1 .3 1.3.2.3.4.4.8.4Zm6.5 4.8c-.7 0-1.3-.3-1.7-.8-.4-.5-.6-1.2-.6-2 0-.9.2-1.6.6-2 .4-.6 1-.8 1.7-.8.8 0 1.4.3 1.8.8.4.4.6 1.1.6 2 0 .8-.2 1.5-.6 2-.4.5-1 .8-1.8.8Zm0-1c.4 0 .6-.2.8-.5.2-.3.3-.7.3-1.3 0-.6-.1-1-.3-1.3a.8.8 0 0 0-.8-.5c-.3 0-.5.2-.7.5-.2.2-.3.7-.3 1.3 0 .6.1 1 .3 1.3.2.3.4.4.7.4Z" fill="#000"/><path d="M183.1 137h-1.3l5.4-9.2h1.4L183 137Zm-1.2-3.7c-.8 0-1.4-.3-1.8-.8-.4-.5-.6-1.2-.6-2 0-.9.2-1.6.6-2 .5-.6 1-.8 1.8-.8.7 0 1.3.2 1.7.7.4.5.6 1.2.6 2 0 1-.2 1.6-.6 2.1-.4.5-1 .8-1.7.8Zm0-1c.3 0 .5-.2.7-.5.2-.3.3-.7.3-1.3 0-.6-.1-1-.3-1.4a.8.8 0 0 0-.7-.4c-.4 0-.6.2-.8.4-.2.3-.3.7-.3 1.4 0 .6.1 1 .3 1.3.2.3.4.4.8.4Zm6.6 4.8c-.8 0-1.4-.3-1.8-.8-.4-.5-.6-1.2-.6-2 0-.9.2-1.6.6-2 .4-.6 1-.8 1.8-.8.7 0 1.3.3 1.7.8.4.4.6 1.1.6 2 0 .8-.2 1.5-.6 2-.4.5-1 .8-1.7.8Zm0-1c.3 0 .5-.2.7-.5.2-.3.3-.7.3-1.3 0-.6-.1-1-.3-1.3a.8.8 0 0 0-.7-.5c-.4 0-.6.2-.8.5-.2.2-.3.7-.3 1.3 0 .6.1 1 .3 1.3.2.3.4.4.8.4Z" fill="#000"/><path d="M192.7 137h-1.4l5.4-9.2h1.4l-5.4 9.2Zm-1.3-3.7c-.8 0-1.3-.3-1.8-.8-.4-.5-.6-1.2-.6-2 0-.9.2-1.6.6-2 .5-.6 1-.8 1.8-.8.7 0 1.3.2 1.7.7.4.5.6 1.2.6 2 0 1-.2 1.6-.6 2.1-.4.5-1 .8-1.7.8Zm0-1c.3 0 .5-.2.7-.5.2-.3.3-.7.3-1.3 0-.6-.1-1-.3-1.4a.8.8 0 0 0-.7-.4c-.4 0-.6.2-.8.4-.2.3-.3.7-.3 1.4 0 .6.1 1 .3 1.3.2.3.4.4.8.4Zm6.6 4.8c-.8 0-1.4-.3-1.8-.8-.4-.5-.6-1.2-.6-2 0-.9.2-1.6.6-2 .5-.6 1-.8 1.8-.8.7 0 1.3.3 1.7.8.4.4.6 1.1.6 2 0 .8-.2 1.5-.6 2-.4.5-1 .8-1.7.8Zm0-1c.3 0 .5-.2.7-.5.2-.3.3-.7.3-1.3 0-.6-.1-1-.3-1.3a.8.8 0 0 0-.7-.5c-.4 0-.6.2-.8.5-.2.2-.3.7-.3 1.3 0 .6.1 1 .3 1.3.2.3.4.4.8.4Zm3.3.9.4-2.3h-1v-1h1.2l.6-2.7H201v-1h1.7l.4-2.2h1.1l-.4 2.1h1.7l.4-2h1.1l-.4 2h1v1h-1.2l-.6 2.8h1.5v1h-1.7l-.4 2.3h-1.1l.4-2.3h-1.7l-.4 2.3h-1.1Zm1.8-3.3h1.6l.6-2.7h-1.7l-.5 2.7Zm7.7 3.3.4-2.3h-1v-1h1.2l.6-2.7h-1.5v-1h1.7l.4-2.2h1.1l-.4 2.1h1.7l.4-2h1.2l-.5 2h1v1h-1.2l-.5 2.8h1.4v1h-1.7l-.4 2.3h-1.1l.4-2.3h-1.6l-.5 2.3h-1.1Zm1.8-3.3h1.6l.6-2.7H213l-.5 2.7Zm7.7 3.3.4-2.3h-1v-1h1.2l.6-2.7H220v-1h1.7l.4-2.2h1.1l-.4 2.1h1.7l.4-2h1.2l-.5 2h1v1h-1.2l-.5 2.8h1.4v1h-1.7l-.4 2.3h-1.1l.4-2.3H222l-.5 2.3h-1.1Zm1.8-3.3h1.6l.6-2.7h-1.7l-.5 2.7Zm7.7 3.3.4-2.3h-1v-1h1.2l.6-2.7h-1.5v-1h1.7l.4-2.2h1.1l-.4 2.1h1.7l.4-2h1.2l-.5 2h1v1h-1.2l-.5 2.8h1.4v1h-1.6l-.5 2.3h-1.1l.4-2.3h-1.6l-.5 2.3h-1.1Zm1.8-3.3h1.6l.6-2.7H232l-.5 2.7Zm7.7 3.3.4-2.3h-1v-1h1.2l.6-2.7H239v-1h1.7l.4-2.2h1.2l-.5 2.1h1.7l.4-2h1.2l-.5 2h1v1h-1.2l-.5 2.8h1.4v1h-1.6l-.5 2.3h-1.1l.4-2.3H241l-.5 2.3h-1.1Zm1.8-3.3h1.6l.6-2.7h-1.7l-.5 2.7Zm7.7 3.3.4-2.3h-1v-1h1.2l.6-2.7h-1.5v-1h1.7l.4-2.2h1.2l-.5 2.1h1.7l.4-2h1.2l-.5 2h1v1h-1.2l-.5 2.8h1.4v1h-1.6l-.5 2.3h-1.1l.4-2.3h-1.6l-.5 2.3h-1.1Zm1.8-3.3h1.6l.6-2.7H251l-.5 2.7Zm7.7 3.3.4-2.3h-1v-1h1.2l.6-2.7H258v-1h1.7l.4-2.2h1.2l-.5 2.1h1.7l.4-2h1.2l-.5 2h1v1h-1.2l-.5 2.8h1.4v1h-1.6l-.5 2.3h-1.1l.4-2.3H260l-.5 2.3h-1.1Zm1.8-3.3h1.6l.6-2.7h-1.7l-.5 2.7ZM117.7 156v-1.8h1.8v1.8h-1.8Zm10.6 2.1a6 6 0 0 1-2.4-.4 5 5 0 0 1-3-2.9 8.5 8.5 0 0 1 .1-4.7 5.3 5.3 0 0 1 3-3c.8-.3 1.6-.4 2.5-.4a5.2 5.2 0 0 1 4.6 2.3 6 6 0 0 1 .3 4.5 3 3 0 0 1-1 1.3c-.3.3-.8.4-1.3.4s-1-.1-1.2-.4c-.3-.3-.5-.7-.5-1.2l.4-.2c-.2.6-.5 1-1 1.4-.3.3-.8.4-1.2.4a2 2 0 0 1-1.7-.6c-.4-.5-.6-1-.6-1.8 0-.7.2-1.2.4-1.7s.6-.9 1-1.2c.4-.3 1-.4 1.5-.4.4 0 .8.1 1.1.3.3.3.5.6.6 1h-.2l.2-1.2h1.3l-.6 3.2a8.3 8.3 0 0 0 0 .7v.6l.6.2c.3 0 .5-.2.8-.4.2-.2.4-.5.5-1l.2-1.4a4 4 0 0 0-.5-2c-.4-.6-.9-1-1.5-1.3a5 5 0 0 0-2.2-.5c-1 0-1.8.2-2.5.6a4 4 0 0 0-1.7 1.7c-.4.7-.6 1.5-.6 2.5s.2 1.8.6 2.5c.3.7.9 1.2 1.5 1.6a5 5 0 0 0 2.5.5c.6 0 1.2 0 1.8-.3a4 4 0 0 0 1.4-.8l.5.9c-.4.4-1 .7-1.6.9-.6.2-1.4.3-2.1.3Zm-.5-4c.3 0 .6 0 .9-.2.3-.2.5-.5.6-.8.2-.4.2-.8.2-1.3 0-.4 0-.7-.3-1-.1-.2-.4-.3-.8-.3s-.7.1-1 .3l-.6.8a3 3 0 0 0-.2 1.2c0 .4.1.8.3 1 .2.3.5.4.9.4Z" fill="#000"/><path d="M137.8 158.1a6 6 0 0 1-2.4-.4 5.2 5.2 0 0 1-3-3c-.2-.6-.3-1.4-.3-2.2 0-.9.1-1.7.4-2.4a5.3 5.3 0 0 1 3-3c.8-.3 1.6-.4 2.5-.4a5.2 5.2 0 0 1 4.6 2.3 6 6 0 0 1 .3 4.5 3 3 0 0 1-1 1.3c-.3.3-.8.4-1.3.4s-1-.1-1.2-.4c-.3-.3-.5-.7-.5-1.2l.4-.2c-.2.6-.5 1-1 1.4-.3.3-.8.4-1.2.4a2 2 0 0 1-1.7-.6c-.4-.5-.6-1-.6-1.8 0-.7.2-1.2.4-1.7a4 4 0 0 1 1-1.2c.4-.3 1-.4 1.5-.4.4 0 .8.1 1.1.3.3.3.5.6.6 1h-.2l.2-1.2h1.3l-.6 3.2a8.3 8.3 0 0 0 0 .7v.6l.6.2c.3 0 .5-.2.8-.4.2-.2.4-.5.5-1l.2-1.4a4 4 0 0 0-.5-2c-.4-.6-.8-1-1.5-1.3a5 5 0 0 0-2.2-.5c-1 0-1.8.2-2.5.6a4 4 0 0 0-1.7 1.7c-.4.7-.6 1.5-.6 2.5s.2 1.8.6 2.5c.3.7.9 1.2 1.6 1.6a5 5 0 0 0 2.4.5c.6 0 1.2 0 1.8-.3a4 4 0 0 0 1.4-.8l.5.9c-.4.4-1 .7-1.6.9-.6.2-1.3.3-2.1.3Zm-.5-4c.3 0 .6 0 .9-.2.3-.2.5-.5.6-.8.2-.4.2-.8.2-1.3 0-.4 0-.7-.3-1-.1-.2-.4-.3-.8-.3a2 2 0 0 0-1 .3l-.6.8-.2 1.2c0 .4.1.8.3 1 .2.3.5.4.9.4Z" fill="#000"/><path d="M147.3 158.1a6 6 0 0 1-2.4-.4 5 5 0 0 1-3-2.9 8.5 8.5 0 0 1 .1-4.7 5.3 5.3 0 0 1 3-3c.8-.3 1.6-.4 2.5-.4a5.2 5.2 0 0 1 4.6 2.3 6 6 0 0 1 .3 4.5 3 3 0 0 1-1 1.3c-.3.3-.8.4-1.3.4s-1-.1-1.2-.4c-.3-.3-.5-.7-.5-1.2l.4-.2c-.2.6-.5 1-1 1.4-.3.3-.8.4-1.2.4a2 2 0 0 1-1.7-.6c-.4-.5-.6-1-.6-1.8 0-.7.2-1.2.4-1.7a4 4 0 0 1 1-1.2c.4-.3 1-.4 1.5-.4.4 0 .8.1 1.1.3.3.3.5.6.6 1h-.2l.3-1.2h1.2l-.6 3.2a8.3 8.3 0 0 0 0 .7v.6l.6.2c.3 0 .5-.2.8-.4.2-.2.4-.5.5-1l.2-1.4a4 4 0 0 0-.5-2c-.4-.6-.8-1-1.5-1.3a5 5 0 0 0-2.2-.5c-1 0-1.8.2-2.5.6-.7.4-1.3 1-1.7 1.7-.4.7-.6 1.5-.6 2.5s.2 1.8.6 2.5c.3.7.9 1.2 1.6 1.6a5 5 0 0 0 2.4.5c.6 0 1.2 0 1.8-.3a4 4 0 0 0 1.4-.8l.5.9c-.4.4-1 .7-1.6.9-.6.2-1.3.3-2.1.3Zm-.5-4c.3 0 .6 0 .9-.2.3-.2.5-.5.6-.8.2-.4.2-.8.2-1.3 0-.4 0-.7-.3-1-.1-.2-.4-.3-.8-.3a2 2 0 0 0-1 .3l-.6.8a3 3 0 0 0-.2 1.2c0 .4.1.8.3 1 .2.3.5.4.9.4Z" fill="#000"/><path d="M154.6 156h-1.4l5.5-9.2h1.3l-5.4 9.2Zm-1.3-3.7c-.7 0-1.3-.3-1.7-.8-.4-.5-.6-1.2-.6-2 0-.9.2-1.6.6-2 .4-.6 1-.8 1.8-.8.7 0 1.3.2 1.7.7.4.5.6 1.2.6 2 0 1-.2 1.6-.6 2.1-.4.5-1 .8-1.8.8Zm0-1c.4 0 .6-.2.8-.5.2-.3.3-.7.3-1.3 0-.6-.1-1-.3-1.3a.8.8 0 0 0-.8-.5c-.3 0-.5.2-.7.4-.2.3-.3.8-.3 1.4 0 .6.1 1 .3 1.3.2.3.4.4.8.4Zm6.6 4.8c-.7 0-1.3-.2-1.7-.7-.4-.6-.6-1.2-.6-2.1 0-.9.2-1.6.6-2 .4-.5 1-.8 1.7-.8.8 0 1.4.3 1.8.8.4.5.6 1.1.6 2a3 3 0 0 1-.6 2c-.4.6-1 .8-1.8.8Zm0-1c.4 0 .6-.2.8-.5.2-.2.3-.7.3-1.3 0-.6-.1-1-.3-1.3a.8.8 0 0 0-.8-.5c-.3 0-.5.2-.7.5-.2.2-.3.7-.3 1.3 0 .6.1 1 .3 1.3.2.3.4.5.7.5Z" fill="#000"/><path d="M164.1 156h-1.4l5.5-9.2h1.3l-5.4 9.2Zm-1.2-3.7c-.8 0-1.4-.3-1.8-.8-.4-.5-.6-1.2-.6-2 0-.9.2-1.6.6-2 .4-.6 1-.8 1.8-.8.7 0 1.3.2 1.7.7.4.5.6 1.2.6 2 0 1-.2 1.6-.6 2.1-.4.5-1 .8-1.7.8Zm0-1c.3 0 .5-.2.7-.5.2-.3.3-.7.3-1.3 0-.6-.1-1-.3-1.3a.8.8 0 0 0-.7-.5c-.4 0-.6.2-.8.4-.2.3-.3.8-.3 1.4 0 .6.1 1 .3 1.3.2.3.4.4.8.4Zm6.5 4.8c-.7 0-1.3-.2-1.7-.7-.4-.6-.6-1.2-.6-2.1 0-.9.2-1.6.6-2 .4-.5 1-.8 1.7-.8.8 0 1.4.3 1.8.8.4.5.6 1.1.6 2a3 3 0 0 1-.6 2c-.4.6-1 .8-1.8.8Zm0-1c.4 0 .6-.2.8-.5.2-.2.3-.7.3-1.3 0-.6-.1-1-.3-1.3a.8.8 0 0 0-.8-.5c-.3 0-.5.2-.7.5-.2.2-.3.7-.3 1.3 0 .6.1 1 .3 1.3.2.3.4.5.7.5Z" fill="#000"/><path d="M173.6 156h-1.3l5.4-9.2h1.4l-5.5 9.2Zm-1.2-3.7c-.8 0-1.4-.3-1.8-.8-.4-.5-.6-1.2-.6-2 0-.9.2-1.6.6-2 .5-.6 1-.8 1.8-.8.7 0 1.3.2 1.7.7.4.5.6 1.2.6 2 0 1-.2 1.6-.6 2.1-.4.5-1 .8-1.7.8Zm0-1c.3 0 .5-.2.7-.5.2-.3.3-.7.3-1.3 0-.6-.1-1-.3-1.3a.8.8 0 0 0-.7-.5c-.4 0-.6.2-.8.4-.2.3-.3.8-.3 1.4 0 .6.1 1 .3 1.3.2.3.4.4.8.4Zm6.5 4.8c-.7 0-1.3-.2-1.7-.7-.4-.6-.6-1.2-.6-2.1 0-.9.2-1.6.6-2 .4-.5 1-.8 1.7-.8.8 0 1.4.3 1.8.8.4.5.6 1.1.6 2a3 3 0 0 1-.6 2c-.4.6-1 .8-1.8.8Zm0-1c.4 0 .6-.2.8-.5.2-.2.3-.7.3-1.3 0-.6-.1-1-.3-1.3a.8.8 0 0 0-.8-.5c-.3 0-.5.2-.7.5-.2.2-.3.7-.3 1.3 0 .6.1 1 .3 1.3.2.3.4.5.7.5Z" fill="#000"/><path d="M183.1 156h-1.3l5.4-9.2h1.4L183 156Zm-1.2-3.7c-.8 0-1.4-.3-1.8-.8-.4-.5-.6-1.2-.6-2 0-.9.2-1.6.6-2 .5-.6 1-.8 1.8-.8.7 0 1.3.2 1.7.7.4.5.6 1.2.6 2 0 1-.2 1.6-.6 2.1-.4.5-1 .8-1.7.8Zm0-1c.3 0 .5-.2.7-.5.2-.3.3-.7.3-1.3 0-.6-.1-1-.3-1.3a.8.8 0 0 0-.7-.5c-.4 0-.6.2-.8.4-.2.3-.3.8-.3 1.4 0 .6.1 1 .3 1.3.2.3.4.4.8.4Zm6.6 4.8c-.8 0-1.4-.2-1.8-.7-.4-.6-.6-1.2-.6-2.1 0-.9.2-1.6.6-2 .4-.5 1-.8 1.8-.8.7 0 1.3.3 1.7.8.4.5.6 1.1.6 2a3 3 0 0 1-.6 2c-.4.6-1 .8-1.7.8Zm0-1c.3 0 .5-.2.7-.5.2-.2.3-.7.3-1.3 0-.6-.1-1-.3-1.3a.8.8 0 0 0-.7-.5c-.4 0-.6.2-.8.5-.2.2-.3.7-.3 1.3 0 .6.1 1 .3 1.3.2.3.4.5.8.5Z" fill="#000"/><path d="M192.7 156h-1.4l5.4-9.2h1.4l-5.4 9.2Zm-1.3-3.7c-.8 0-1.3-.3-1.8-.8-.4-.5-.6-1.2-.6-2 0-.9.2-1.6.6-2 .5-.6 1-.8 1.8-.8.7 0 1.3.2 1.7.7.4.5.6 1.2.6 2 0 1-.2 1.6-.6 2.1-.4.5-1 .8-1.7.8Zm0-1c.3 0 .5-.2.7-.5.2-.3.3-.7.3-1.3 0-.6-.1-1-.3-1.3a.8.8 0 0 0-.7-.5c-.4 0-.6.2-.8.4-.2.3-.3.8-.3 1.4 0 .6.1 1 .3 1.3.2.3.4.4.8.4Zm6.6 4.8c-.8 0-1.4-.2-1.8-.7-.4-.6-.6-1.2-.6-2.1 0-.9.2-1.6.6-2 .5-.5 1-.8 1.8-.8.7 0 1.3.3 1.7.8.4.5.6 1.1.6 2a3 3 0 0 1-.6 2c-.4.6-1 .8-1.7.8Zm0-1c.3 0 .5-.2.7-.5.2-.2.3-.7.3-1.3 0-.6-.1-1-.3-1.3a.8.8 0 0 0-.7-.5c-.4 0-.6.2-.8.5-.2.2-.3.7-.3 1.3 0 .6.1 1 .3 1.3.2.3.4.5.8.5Zm3.3.9.4-2.3h-1v-1h1.2l.6-2.7H201v-1h1.7l.4-2.2h1.1l-.4 2.1h1.7l.4-2h1.1l-.4 2h1v1h-1.2l-.6 2.8h1.5v1h-1.7l-.4 2.3h-1.1l.4-2.3h-1.7l-.4 2.3h-1.1Zm1.8-3.3h1.6l.6-2.7h-1.7l-.5 2.7Zm7.7 3.3.4-2.3h-1v-1h1.2l.6-2.7h-1.5v-1h1.7l.4-2.2h1.1l-.4 2.1h1.7l.4-2h1.2l-.5 2h1v1h-1.2l-.5 2.8h1.4v1h-1.7l-.4 2.3h-1.1l.4-2.3h-1.6l-.5 2.3h-1.1Zm1.8-3.3h1.6l.6-2.7H213l-.5 2.7Zm7.7 3.3.4-2.3h-1v-1h1.2l.6-2.7H220v-1h1.7l.4-2.2h1.1l-.4 2.1h1.7l.4-2h1.2l-.5 2h1v1h-1.2l-.5 2.8h1.4v1h-1.7l-.4 2.3h-1.1l.4-2.3H222l-.5 2.3h-1.1Zm1.8-3.3h1.6l.6-2.7h-1.7l-.5 2.7Zm7.7 3.3.4-2.3h-1v-1h1.2l.6-2.7h-1.5v-1h1.7l.4-2.2h1.1l-.4 2.1h1.7l.4-2h1.2l-.5 2h1v1h-1.2l-.5 2.8h1.4v1h-1.6l-.5 2.3h-1.1l.4-2.3h-1.6l-.5 2.3h-1.1Zm1.8-3.3h1.6l.6-2.7H232l-.5 2.7Zm7.7 3.3.4-2.3h-1v-1h1.2l.6-2.7H239v-1h1.7l.4-2.2h1.2l-.5 2.1h1.7l.4-2h1.2l-.5 2h1v1h-1.2l-.5 2.8h1.4v1h-1.6l-.5 2.3h-1.1l.4-2.3H241l-.5 2.3h-1.1Zm1.8-3.3h1.6l.6-2.7h-1.7l-.5 2.7Zm7.7 3.3.4-2.3h-1v-1h1.2l.6-2.7h-1.5v-1h1.7l.4-2.2h1.2l-.5 2.1h1.7l.4-2h1.2l-.5 2h1v1h-1.2l-.5 2.8h1.4v1h-1.6l-.5 2.3h-1.1l.4-2.3h-1.6l-.5 2.3h-1.1Zm1.8-3.3h1.6l.6-2.7H251l-.5 2.7Zm7.7 3.3.4-2.3h-1v-1h1.2l.6-2.7H258v-1h1.7l.4-2.2h1.2l-.5 2.1h1.7l.4-2h1.2l-.5 2h1v1h-1.2l-.5 2.8h1.4v1h-1.6l-.5 2.3h-1.1l.4-2.3H260l-.5 2.3h-1.1Zm1.8-3.3h1.6l.6-2.7h-1.7l-.5 2.7Zm7.7 3.3.4-2.3h-1v-1h1.2l.6-2.7h-1.4v-1h1.6l.4-2.2h1.2l-.5 2.1h1.7l.4-2h1.2l-.5 2h1v1h-1.2l-.5 2.8h1.4v1h-1.6l-.5 2.3h-1.1l.4-2.3h-1.6l-.5 2.3h-1.1Zm1.8-3.3h1.6l.6-2.7H270l-.5 2.7Zm9.7-1.5v-1.8h1.8v1.8h-1.8Zm0 4.8v-1.8h1.8v1.8h-1.8Zm-161.6 14.2v-1.8h1.8v1.8h-1.8Zm0 4.8v-1.8h1.8v1.8h-1.8Zm10.6 2.1a6 6 0 0 1-2.4-.4 5 5 0 0 1-3-2.9 8 8 0 0 1 .1-4.7 5.3 5.3 0 0 1 3-3c.8-.3 1.6-.4 2.5-.4a5.2 5.2 0 0 1 4.6 2.3c.4.7.6 1.6.6 2.6 0 .7-.1 1.3-.3 1.9a3 3 0 0 1-1 1.3c-.3.3-.8.4-1.3.4s-1-.1-1.2-.4c-.3-.3-.5-.7-.5-1.2l.4-.2c-.2.6-.5 1-1 1.4-.3.3-.8.4-1.2.4a2 2 0 0 1-1.7-.6c-.4-.5-.6-1-.6-1.8 0-.7.2-1.2.4-1.7s.6-.9 1-1.2c.4-.3 1-.4 1.5-.4.4 0 .8.1 1.1.3.3.3.5.6.6 1h-.2l.2-1.2h1.3l-.6 3.2a8.8 8.8 0 0 0 0 .7v.6l.6.2c.3 0 .5-.2.8-.4.2-.2.4-.5.5-1l.2-1.3a4 4 0 0 0-.5-2.1c-.4-.6-.9-1-1.5-1.3a5 5 0 0 0-2.2-.5c-1 0-1.8.2-2.5.6a4 4 0 0 0-1.7 1.7c-.4.7-.6 1.5-.6 2.5s.2 1.8.6 2.5c.3.7.9 1.2 1.5 1.6a5 5 0 0 0 2.5.5c.6 0 1.2 0 1.8-.3a4 4 0 0 0 1.4-.8l.5 1-1.6.8c-.6.2-1.4.3-2.1.3Zm-.5-4c.3 0 .6 0 .9-.2.3-.2.5-.5.6-.8.2-.4.2-.8.2-1.3 0-.4 0-.7-.3-1-.1-.2-.4-.3-.8-.3s-.7.1-1 .3l-.6.8a3 3 0 0 0-.2 1.2c0 .4.1.8.3 1 .2.3.5.4.9.4Z" fill="#000"/><path d="M137.8 177.1a6 6 0 0 1-2.4-.4 5.2 5.2 0 0 1-3-3c-.2-.6-.3-1.3-.3-2.2 0-.9.1-1.7.4-2.4a5.3 5.3 0 0 1 3-3c.8-.3 1.6-.4 2.5-.4a5.2 5.2 0 0 1 4.6 2.3c.4.7.6 1.6.6 2.6 0 .7-.1 1.3-.3 1.9a3 3 0 0 1-1 1.3c-.3.3-.8.4-1.3.4s-1-.1-1.2-.4c-.3-.3-.5-.7-.5-1.2l.4-.2c-.2.6-.5 1-1 1.4-.3.3-.8.4-1.2.4a2 2 0 0 1-1.7-.6c-.4-.5-.6-1-.6-1.8 0-.7.2-1.2.4-1.7a4 4 0 0 1 1-1.2c.4-.3 1-.4 1.5-.4.4 0 .8.1 1.1.3.3.3.5.6.6 1h-.2l.2-1.2h1.3l-.6 3.2a8.8 8.8 0 0 0 0 .7v.6l.6.2c.3 0 .5-.2.8-.4.2-.2.4-.5.5-1l.2-1.3a4 4 0 0 0-.5-2.1c-.4-.6-.8-1-1.5-1.3a5 5 0 0 0-2.2-.5c-1 0-1.8.2-2.5.6a4 4 0 0 0-1.7 1.7c-.4.7-.6 1.5-.6 2.5s.2 1.8.6 2.5c.3.7.9 1.2 1.6 1.6a5 5 0 0 0 2.4.5c.6 0 1.2 0 1.8-.3a4 4 0 0 0 1.4-.8l.5 1-1.6.8c-.6.2-1.3.3-2.1.3Zm-.5-4c.3 0 .6 0 .9-.2.3-.2.5-.5.6-.8.2-.4.2-.8.2-1.3 0-.4 0-.7-.3-1-.1-.2-.4-.3-.8-.3a2 2 0 0 0-1 .3l-.6.8-.2 1.2c0 .4.1.8.3 1 .2.3.5.4.9.4Z" fill="#000"/><path d="M147.3 177.1a6 6 0 0 1-2.4-.4 5 5 0 0 1-3-2.9 8 8 0 0 1 .1-4.7 5.3 5.3 0 0 1 3-3c.8-.3 1.6-.4 2.5-.4a5.2 5.2 0 0 1 4.6 2.3c.4.7.6 1.6.6 2.6 0 .7-.1 1.3-.3 1.9a3 3 0 0 1-1 1.3c-.3.3-.8.4-1.3.4s-1-.1-1.2-.4c-.3-.3-.5-.7-.5-1.2l.4-.2c-.2.6-.5 1-1 1.4-.3.3-.8.4-1.2.4a2 2 0 0 1-1.7-.6c-.4-.5-.6-1-.6-1.8 0-.7.2-1.2.4-1.7a4 4 0 0 1 1-1.2c.4-.3 1-.4 1.5-.4.4 0 .8.1 1.1.3.3.3.5.6.6 1h-.2l.3-1.2h1.2l-.6 3.2a8.8 8.8 0 0 0 0 .7v.6l.6.2c.3 0 .5-.2.8-.4.2-.2.4-.5.5-1l.2-1.3a4 4 0 0 0-.5-2.1c-.4-.6-.8-1-1.5-1.3a5 5 0 0 0-2.2-.5c-1 0-1.8.2-2.5.6-.7.4-1.3 1-1.7 1.7-.4.7-.6 1.5-.6 2.5s.2 1.8.6 2.5c.3.7.9 1.2 1.6 1.6a5 5 0 0 0 2.4.5c.6 0 1.2 0 1.8-.3a4 4 0 0 0 1.4-.8l.5 1-1.6.8c-.6.2-1.3.3-2.1.3Zm-.5-4c.3 0 .6 0 .9-.2.3-.2.5-.5.6-.8.2-.4.2-.8.2-1.3 0-.4 0-.7-.3-1-.1-.2-.4-.3-.8-.3a2 2 0 0 0-1 .3l-.6.8a3 3 0 0 0-.2 1.2c0 .4.1.8.3 1 .2.3.5.4.9.4Z" fill="#000"/><path d="M156.8 177.1c-.9 0-1.6-.1-2.3-.4a5.2 5.2 0 0 1-3-3c-.3-.6-.4-1.3-.4-2.2 0-.9.1-1.7.4-2.4a5.3 5.3 0 0 1 3-3c.8-.3 1.6-.4 2.5-.4a5.2 5.2 0 0 1 4.6 2.3c.4.7.6 1.6.6 2.6 0 .7-.1 1.3-.3 1.9a3 3 0 0 1-1 1.3c-.3.3-.8.4-1.3.4s-1-.1-1.2-.4c-.3-.3-.5-.7-.5-1.2l.4-.2c-.2.6-.5 1-1 1.4-.3.3-.8.4-1.2.4a2 2 0 0 1-1.7-.6c-.4-.5-.5-1-.5-1.8 0-.7 0-1.2.3-1.7s.6-.9 1-1.2c.4-.3 1-.4 1.5-.4s.8.1 1.1.3c.3.3.5.6.6 1h-.2l.3-1.2h1.2l-.6 3.2a8.8 8.8 0 0 0 0 .7l.1.6.5.2c.3 0 .6-.2.8-.4.2-.2.4-.5.5-1l.2-1.3a4 4 0 0 0-.5-2.1c-.4-.6-.8-1-1.5-1.3a5 5 0 0 0-2.2-.5c-1 0-1.8.2-2.5.6-.7.4-1.3 1-1.7 1.7-.4.7-.6 1.5-.6 2.5s.2 1.8.6 2.5c.3.7.9 1.2 1.6 1.6a5 5 0 0 0 2.4.5c.6 0 1.3 0 1.8-.3a4 4 0 0 0 1.4-.8l.5 1-1.6.8c-.6.2-1.3.3-2.1.3Zm-.5-4c.3 0 .6 0 .9-.2.3-.2.5-.5.6-.8.2-.4.2-.8.2-1.3 0-.4 0-.7-.2-1-.2-.2-.5-.3-1-.3l-.8.3-.7.8-.2 1.2c0 .4.1.8.3 1 .2.3.5.4.9.4Z" fill="#000"/><path d="M164.1 175h-1.4l5.5-9.2h1.3l-5.4 9.2Zm-1.2-3.7c-.8 0-1.4-.3-1.8-.8a3 3 0 0 1-.6-2c0-.9.2-1.6.6-2 .4-.6 1-.8 1.8-.8.7 0 1.3.2 1.7.7.4.5.6 1.2.6 2 0 1-.2 1.6-.6 2.1-.4.5-1 .8-1.7.8Zm0-1c.3 0 .5-.2.7-.5.2-.3.3-.7.3-1.3 0-.6-.1-1-.3-1.3a.8.8 0 0 0-.7-.5c-.4 0-.6.2-.8.4-.2.3-.3.8-.3 1.4 0 .6.1 1 .3 1.3.2.3.4.5.8.5Zm6.5 4.8c-.7 0-1.3-.2-1.7-.7-.4-.5-.6-1.2-.6-2.1 0-.9.2-1.6.6-2 .4-.5 1-.8 1.7-.8.8 0 1.4.3 1.8.8.4.5.6 1.1.6 2 0 .9-.2 1.6-.6 2-.4.6-1 .8-1.8.8Zm0-1c.4 0 .6-.2.8-.5.2-.2.3-.7.3-1.3 0-.6-.1-1-.3-1.3a.8.8 0 0 0-.8-.4c-.3 0-.5 0-.7.4-.2.2-.3.7-.3 1.3 0 .6.1 1 .3 1.3.2.3.4.5.7.5Z" fill="#000"/><path d="M173.6 175h-1.3l5.4-9.2h1.4l-5.5 9.2Zm-1.2-3.7c-.8 0-1.4-.3-1.8-.8a3 3 0 0 1-.6-2c0-.9.2-1.6.6-2 .5-.6 1-.8 1.8-.8.7 0 1.3.2 1.7.7.4.5.6 1.2.6 2 0 1-.2 1.6-.6 2.1-.4.5-1 .8-1.7.8Zm0-1c.3 0 .5-.2.7-.5.2-.3.3-.7.3-1.3 0-.6-.1-1-.3-1.3a.8.8 0 0 0-.7-.5c-.4 0-.6.2-.8.4-.2.3-.3.8-.3 1.4 0 .6.1 1 .3 1.3.2.3.4.5.8.5Zm6.5 4.8c-.7 0-1.3-.2-1.7-.7-.4-.5-.6-1.2-.6-2.1 0-.9.2-1.6.6-2 .4-.5 1-.8 1.7-.8.8 0 1.4.3 1.8.8.4.5.6 1.1.6 2 0 .9-.2 1.6-.6 2-.4.6-1 .8-1.8.8Zm0-1c.4 0 .6-.2.8-.5.2-.2.3-.7.3-1.3 0-.6-.1-1-.3-1.3a.8.8 0 0 0-.8-.4c-.3 0-.5 0-.7.4-.2.2-.3.7-.3 1.3 0 .6.1 1 .3 1.3.2.3.4.5.7.5Z" fill="#000"/><path d="M183.1 175h-1.3l5.4-9.2h1.4L183 175Zm-1.2-3.7c-.8 0-1.4-.3-1.8-.8a3 3 0 0 1-.6-2c0-.9.2-1.6.6-2 .5-.6 1-.8 1.8-.8.7 0 1.3.2 1.7.7.4.5.6 1.2.6 2 0 1-.2 1.6-.6 2.1-.4.5-1 .8-1.7.8Zm0-1c.3 0 .5-.2.7-.5.2-.3.3-.7.3-1.3 0-.6-.1-1-.3-1.3a.8.8 0 0 0-.7-.5c-.4 0-.6.2-.8.4-.2.3-.3.8-.3 1.4 0 .6.1 1 .3 1.3.2.3.4.5.8.5Zm6.6 4.8c-.8 0-1.4-.2-1.8-.7-.4-.5-.6-1.2-.6-2.1 0-.9.2-1.6.6-2 .4-.5 1-.8 1.8-.8.7 0 1.3.3 1.7.8.4.5.6 1.1.6 2 0 .9-.2 1.6-.6 2-.4.6-1 .8-1.7.8Zm0-1c.3 0 .5-.2.7-.5.2-.2.3-.7.3-1.3 0-.6-.1-1-.3-1.3a.8.8 0 0 0-.7-.4c-.4 0-.6 0-.8.4-.2.2-.3.7-.3 1.3 0 .6.1 1 .3 1.3.2.3.4.5.8.5Z" fill="#000"/><path d="M192.7 175h-1.4l5.4-9.2h1.4l-5.4 9.2Zm-1.3-3.7c-.8 0-1.3-.3-1.8-.8a3 3 0 0 1-.6-2c0-.9.2-1.6.6-2 .5-.6 1-.8 1.8-.8.7 0 1.3.2 1.7.7.4.5.6 1.2.6 2 0 1-.2 1.6-.6 2.1-.4.5-1 .8-1.7.8Zm0-1c.3 0 .5-.2.7-.5.2-.3.3-.7.3-1.3 0-.6-.1-1-.3-1.3a.8.8 0 0 0-.7-.5c-.4 0-.6.2-.8.4-.2.3-.3.8-.3 1.4 0 .6.1 1 .3 1.3.2.3.4.5.8.5Zm6.6 4.8c-.8 0-1.4-.2-1.8-.7-.4-.5-.6-1.2-.6-2.1 0-.9.2-1.6.6-2 .5-.5 1-.8 1.8-.8.7 0 1.3.3 1.7.8.4.5.6 1.1.6 2 0 .9-.2 1.6-.6 2-.4.6-1 .8-1.7.8Zm0-1c.3 0 .5-.2.7-.5.2-.2.3-.7.3-1.3 0-.6-.1-1-.3-1.3a.8.8 0 0 0-.7-.4c-.4 0-.6 0-.8.4-.2.2-.3.7-.3 1.3 0 .6.1 1 .3 1.3.2.3.4.5.8.5Zm3.3.9.4-2.3h-1v-1h1.2l.6-2.7H201v-1h1.7l.4-2.2h1.1l-.4 2.1h1.7l.4-2h1.1l-.4 2h1v1h-1.2l-.6 2.8h1.5v1h-1.7l-.4 2.3h-1.1l.4-2.3h-1.7l-.4 2.3h-1.1Zm1.8-3.3h1.6l.6-2.7h-1.7l-.5 2.7Zm7.7 3.3.4-2.3h-1v-1h1.2l.6-2.7h-1.5v-1h1.7l.4-2.2h1.1l-.4 2.1h1.7l.4-2h1.2l-.5 2h1v1h-1.2l-.5 2.8h1.4v1h-1.7l-.4 2.3h-1.1l.4-2.3h-1.6l-.5 2.3h-1.1Zm1.8-3.3h1.6l.6-2.7H213l-.5 2.7Zm7.7 3.3.4-2.3h-1v-1h1.2l.6-2.7H220v-1h1.7l.4-2.2h1.1l-.4 2.1h1.7l.4-2h1.2l-.5 2h1v1h-1.2l-.5 2.8h1.4v1h-1.7l-.4 2.3h-1.1l.4-2.3H222l-.5 2.3h-1.1Zm1.8-3.3h1.6l.6-2.7h-1.7l-.5 2.7Zm7.7 3.3.4-2.3h-1v-1h1.2l.6-2.7h-1.5v-1h1.7l.4-2.2h1.1l-.4 2.1h1.7l.4-2h1.2l-.5 2h1v1h-1.2l-.5 2.8h1.4v1h-1.6l-.5 2.3h-1.1l.4-2.3h-1.6l-.5 2.3h-1.1Zm1.8-3.3h1.6l.6-2.7H232l-.5 2.7Zm7.7 3.3.4-2.3h-1v-1h1.2l.6-2.7H239v-1h1.7l.4-2.2h1.2l-.5 2.1h1.7l.4-2h1.2l-.5 2h1v1h-1.2l-.5 2.8h1.4v1h-1.6l-.5 2.3h-1.1l.4-2.3H241l-.5 2.3h-1.1Zm1.8-3.3h1.6l.6-2.7h-1.7l-.5 2.7Zm7.7 3.3.4-2.3h-1v-1h1.2l.6-2.7h-1.5v-1h1.7l.4-2.2h1.2l-.5 2.1h1.7l.4-2h1.2l-.5 2h1v1h-1.2l-.5 2.8h1.4v1h-1.6l-.5 2.3h-1.1l.4-2.3h-1.6l-.5 2.3h-1.1Zm1.8-3.3h1.6l.6-2.7H251l-.5 2.7Zm7.7 3.3.4-2.3h-1v-1h1.2l.6-2.7H258v-1h1.7l.4-2.2h1.2l-.5 2.1h1.7l.4-2h1.2l-.5 2h1v1h-1.2l-.5 2.8h1.4v1h-1.6l-.5 2.3h-1.1l.4-2.3H260l-.5 2.3h-1.1Zm1.8-3.3h1.6l.6-2.7h-1.7l-.5 2.7Zm7.7 3.3.4-2.3h-1v-1h1.2l.6-2.7h-1.4v-1h1.6l.4-2.2h1.2l-.5 2.1h1.7l.4-2h1.2l-.5 2h1v1h-1.2l-.5 2.8h1.4v1h-1.6l-.5 2.3h-1.1l.4-2.3h-1.6l-.5 2.3h-1.1Zm1.8-3.3h1.6l.6-2.7H270l-.5 2.7Zm9.7-1.5v-1.8h1.8v1.8h-1.8Zm0 4.8v-1.8h1.8v1.8h-1.8Zm-161.6 14.2v-1.8h1.8v1.8h-1.8Zm0 4.8v-1.8h1.8v1.8h-1.8Zm10.6 2.1a6 6 0 0 1-2.4-.4 5 5 0 0 1-3-2.9 8 8 0 0 1 .1-4.7 5.3 5.3 0 0 1 3-3c.8-.3 1.6-.4 2.5-.4a5.2 5.2 0 0 1 4.6 2.3 6.4 6.4 0 0 1 .3 4.6 3 3 0 0 1-1 1.2c-.3.3-.8.4-1.3.4s-1-.1-1.2-.4c-.3-.3-.5-.7-.5-1.2l.4-.2c-.2.6-.5 1-1 1.4-.3.3-.8.4-1.2.4a2 2 0 0 1-1.7-.6c-.4-.5-.6-1-.6-1.8 0-.6.2-1.2.4-1.7s.6-.9 1-1.2c.4-.3 1-.4 1.5-.4.4 0 .8.1 1.1.4.3.2.5.5.6 1h-.2l.2-1.3h1.3l-.6 3.2a8.8 8.8 0 0 0 0 .7v.6l.6.2c.3 0 .5-.1.8-.4.2-.2.4-.5.5-1l.2-1.3a4 4 0 0 0-.5-2.1c-.4-.6-.9-1-1.5-1.3a5 5 0 0 0-2.2-.5c-1 0-1.8.2-2.5.6a4 4 0 0 0-1.7 1.7c-.4.7-.6 1.5-.6 2.5s.2 1.8.6 2.5c.3.7.9 1.2 1.5 1.6a5 5 0 0 0 2.5.5c.6 0 1.2 0 1.8-.2a4 4 0 0 0 1.4-.9l.5 1-1.6.8c-.6.2-1.4.3-2.1.3Zm-.5-3.9.9-.3c.3-.2.5-.5.6-.8.2-.4.2-.8.2-1.3 0-.4 0-.7-.3-1-.1-.1-.4-.3-.8-.3s-.7.1-1 .3l-.6.8a3 3 0 0 0-.2 1.2c0 .4.1.8.3 1 .2.3.5.4.9.4Z" fill="#000"/><path d="M137.8 196.1a6 6 0 0 1-2.4-.4 5.2 5.2 0 0 1-3-3c-.2-.6-.3-1.3-.3-2.2 0-.9.1-1.6.4-2.4a5.3 5.3 0 0 1 3-3c.8-.3 1.6-.4 2.5-.4a5.2 5.2 0 0 1 4.6 2.3 6.4 6.4 0 0 1 .3 4.6 3 3 0 0 1-1 1.2c-.3.3-.8.4-1.3.4s-1-.1-1.2-.4c-.3-.3-.5-.7-.5-1.2l.4-.2c-.2.6-.5 1-1 1.4-.3.3-.8.4-1.2.4a2 2 0 0 1-1.7-.6c-.4-.5-.6-1-.6-1.8 0-.6.2-1.2.4-1.7a4 4 0 0 1 1-1.2c.4-.3 1-.4 1.5-.4.4 0 .8.1 1.1.4.3.2.5.5.6 1h-.2l.2-1.3h1.3l-.6 3.2a8.8 8.8 0 0 0 0 .7v.6l.6.2c.3 0 .5-.1.8-.4.2-.2.4-.5.5-1l.2-1.3a4 4 0 0 0-.5-2.1c-.4-.6-.8-1-1.5-1.3a5 5 0 0 0-2.2-.5c-1 0-1.8.2-2.5.6a4 4 0 0 0-1.7 1.7c-.4.7-.6 1.5-.6 2.5s.2 1.8.6 2.5c.3.7.9 1.2 1.6 1.6a5 5 0 0 0 2.4.5c.6 0 1.2 0 1.8-.2a4 4 0 0 0 1.4-.9l.5 1-1.6.8c-.6.2-1.3.3-2.1.3Zm-.5-3.9.9-.3c.3-.2.5-.5.6-.8.2-.4.2-.8.2-1.3 0-.4 0-.7-.3-1-.1-.1-.4-.3-.8-.3a2 2 0 0 0-1 .3l-.6.8-.2 1.2c0 .4.1.8.3 1 .2.3.5.4.9.4Z" fill="#000"/><path d="M147.3 196.1a6 6 0 0 1-2.4-.4 5 5 0 0 1-3-2.9 8 8 0 0 1 .1-4.7 5.3 5.3 0 0 1 3-3c.8-.3 1.6-.4 2.5-.4a5.2 5.2 0 0 1 4.6 2.3 6.4 6.4 0 0 1 .3 4.6 3 3 0 0 1-1 1.2c-.3.3-.8.4-1.3.4s-1-.1-1.2-.4c-.3-.3-.5-.7-.5-1.2l.4-.2c-.2.6-.5 1-1 1.4-.3.3-.8.4-1.2.4a2 2 0 0 1-1.7-.6c-.4-.5-.6-1-.6-1.8 0-.6.2-1.2.4-1.7a4 4 0 0 1 1-1.2c.4-.3 1-.4 1.5-.4.4 0 .8.1 1.1.4.3.2.5.5.6 1h-.2l.3-1.3h1.2l-.6 3.2a8.8 8.8 0 0 0 0 .7v.6l.6.2c.3 0 .5-.1.8-.4.2-.2.4-.5.5-1l.2-1.3a4 4 0 0 0-.5-2.1c-.4-.6-.8-1-1.5-1.3a5 5 0 0 0-2.2-.5c-1 0-1.8.2-2.5.6-.7.4-1.3 1-1.7 1.7-.4.7-.6 1.5-.6 2.5s.2 1.8.6 2.5c.3.7.9 1.2 1.6 1.6a5 5 0 0 0 2.4.5c.6 0 1.2 0 1.8-.2a4 4 0 0 0 1.4-.9l.5 1-1.6.8c-.6.2-1.3.3-2.1.3Zm-.5-3.9.9-.3c.3-.2.5-.5.6-.8.2-.4.2-.8.2-1.3 0-.4 0-.7-.3-1-.1-.1-.4-.3-.8-.3a2 2 0 0 0-1 .3l-.6.8a3 3 0 0 0-.2 1.2c0 .4.1.8.3 1 .2.3.5.4.9.4Z" fill="#000"/><path d="M156.8 196.1c-.9 0-1.6-.1-2.3-.4a5.2 5.2 0 0 1-3-3c-.3-.6-.4-1.3-.4-2.2 0-.9.1-1.6.4-2.4a5.3 5.3 0 0 1 3-3c.8-.3 1.6-.4 2.5-.4a5.2 5.2 0 0 1 4.6 2.3 6.4 6.4 0 0 1 .3 4.6 3 3 0 0 1-1 1.2c-.3.3-.8.4-1.3.4s-1-.1-1.2-.4c-.3-.3-.5-.7-.5-1.2l.4-.2c-.2.6-.5 1-1 1.4-.3.3-.8.4-1.2.4a2 2 0 0 1-1.7-.6c-.4-.5-.5-1-.5-1.8 0-.6 0-1.2.3-1.7s.6-.9 1-1.2c.4-.3 1-.4 1.5-.4s.8.1 1.1.4c.3.2.5.5.6 1h-.2l.3-1.3h1.2l-.6 3.2a8.8 8.8 0 0 0 0 .7l.1.6.5.2c.3 0 .6-.1.8-.4.2-.2.4-.5.5-1l.2-1.3a4 4 0 0 0-.5-2.1c-.4-.6-.8-1-1.5-1.3a5 5 0 0 0-2.2-.5c-1 0-1.8.2-2.5.6-.7.4-1.3 1-1.7 1.7-.4.7-.6 1.5-.6 2.5s.2 1.8.6 2.5c.3.7.9 1.2 1.6 1.6a5 5 0 0 0 2.4.5c.6 0 1.3 0 1.8-.2a4 4 0 0 0 1.4-.9l.5 1-1.6.8c-.6.2-1.3.3-2.1.3Zm-.5-3.9.9-.3c.3-.2.5-.5.6-.8.2-.4.2-.8.2-1.3 0-.4 0-.7-.2-1-.2-.1-.5-.3-1-.3l-.8.3-.7.8-.2 1.2c0 .4.1.8.3 1 .2.3.5.4.9.4Z" fill="#000"/><path d="M166.3 196.1c-.9 0-1.6-.1-2.3-.4a5 5 0 0 1-3-2.9c-.3-.7-.4-1.4-.4-2.3 0-.9.1-1.6.4-2.4a5.3 5.3 0 0 1 3-3c.8-.3 1.6-.4 2.5-.4a5.2 5.2 0 0 1 4.6 2.3c.4.7.6 1.6.6 2.6 0 .7 0 1.4-.3 2a3 3 0 0 1-1 1.2c-.3.3-.8.4-1.3.4s-1-.1-1.2-.4c-.3-.3-.5-.7-.5-1.2l.4-.2c-.2.6-.5 1-1 1.4-.3.3-.7.4-1.2.4a2 2 0 0 1-1.7-.6c-.4-.5-.5-1-.5-1.8 0-.6 0-1.2.3-1.7s.6-.9 1-1.2c.4-.3 1-.4 1.5-.4s.8.1 1.1.4c.3.2.5.5.6 1h-.2l.3-1.3h1.2l-.6 3.2a8.8 8.8 0 0 0 0 .7l.1.6.5.2c.3 0 .6-.1.8-.4.2-.2.4-.5.5-1l.2-1.3a4 4 0 0 0-.5-2.1c-.4-.6-.8-1-1.5-1.3a5 5 0 0 0-2.2-.5c-1 0-1.8.2-2.5.6-.7.4-1.3 1-1.7 1.7-.4.7-.6 1.5-.6 2.5s.2 1.8.6 2.5c.3.7.9 1.2 1.6 1.6a5 5 0 0 0 2.4.5c.6 0 1.3 0 1.8-.2a4 4 0 0 0 1.4-.9l.5 1-1.6.8c-.6.2-1.3.3-2.1.3Zm-.5-3.9.9-.3c.3-.2.5-.5.6-.8.2-.4.2-.8.2-1.3 0-.4 0-.7-.2-1-.2-.1-.5-.3-.9-.3l-1 .3-.5.8a3 3 0 0 0-.3 1.2c0 .4.1.8.3 1 .2.3.5.4.9.4Z" fill="#000"/><path d="M173.6 194h-1.3l5.4-9.2h1.4l-5.5 9.2Zm-1.2-3.7c-.8 0-1.4-.3-1.8-.8a3 3 0 0 1-.6-2c0-.9.2-1.6.6-2 .5-.6 1-.8 1.8-.8.7 0 1.3.2 1.7.8.4.5.6 1.1.6 2a3 3 0 0 1-.6 2c-.4.6-1 .8-1.7.8Zm0-1c.3 0 .5-.2.7-.5.2-.3.3-.7.3-1.3 0-.6-.1-1-.3-1.3a.8.8 0 0 0-.7-.4c-.4 0-.6 0-.8.4-.2.2-.3.7-.3 1.3 0 .6.1 1 .3 1.3.2.3.4.5.8.5Zm6.5 4.8c-.7 0-1.3-.2-1.7-.7-.4-.5-.6-1.2-.6-2.1 0-.9.2-1.6.6-2 .4-.5 1-.8 1.7-.8.8 0 1.4.3 1.8.8.4.5.6 1.1.6 2 0 .9-.2 1.6-.6 2-.4.6-1 .8-1.8.8Zm0-1c.4 0 .6-.2.8-.4.2-.3.3-.8.3-1.4 0-.6-.1-1-.3-1.3a.8.8 0 0 0-.8-.4c-.3 0-.5.1-.7.4-.2.2-.3.7-.3 1.3 0 .6.1 1 .3 1.4.2.2.4.4.7.4Z" fill="#000"/><path d="M183.1 194h-1.3l5.4-9.2h1.4L183 194Zm-1.2-3.7c-.8 0-1.4-.3-1.8-.8a3 3 0 0 1-.6-2c0-.9.2-1.6.6-2 .5-.6 1-.8 1.8-.8.7 0 1.3.2 1.7.8.4.5.6 1.1.6 2a3 3 0 0 1-.6 2c-.4.6-1 .8-1.7.8Zm0-1c.3 0 .5-.2.7-.5.2-.3.3-.7.3-1.3 0-.6-.1-1-.3-1.3a.8.8 0 0 0-.7-.4c-.4 0-.6 0-.8.4-.2.2-.3.7-.3 1.3 0 .6.1 1 .3 1.3.2.3.4.5.8.5Zm6.6 4.8c-.8 0-1.4-.2-1.8-.7-.4-.5-.6-1.2-.6-2.1 0-.9.2-1.6.6-2 .4-.5 1-.8 1.8-.8.7 0 1.3.3 1.7.8.4.5.6 1.1.6 2 0 .9-.2 1.6-.6 2-.4.6-1 .8-1.7.8Zm0-1c.3 0 .5-.2.7-.4.2-.3.3-.8.3-1.4 0-.6-.1-1-.3-1.3a.8.8 0 0 0-.7-.4c-.4 0-.6.1-.8.4-.2.2-.3.7-.3 1.3 0 .6.1 1 .3 1.4.2.2.4.4.8.4Z" fill="#000"/><path d="M192.7 194h-1.4l5.4-9.2h1.4l-5.4 9.2Zm-1.3-3.7c-.8 0-1.3-.3-1.8-.8a3 3 0 0 1-.6-2c0-.9.2-1.6.6-2 .5-.6 1-.8 1.8-.8.7 0 1.3.2 1.7.8.4.5.6 1.1.6 2a3 3 0 0 1-.6 2c-.4.6-1 .8-1.7.8Zm0-1c.3 0 .5-.2.7-.5.2-.3.3-.7.3-1.3 0-.6-.1-1-.3-1.3a.8.8 0 0 0-.7-.4c-.4 0-.6 0-.8.4-.2.2-.3.7-.3 1.3 0 .6.1 1 .3 1.3.2.3.4.5.8.5Zm6.6 4.8c-.8 0-1.4-.2-1.8-.7-.4-.5-.6-1.2-.6-2.1 0-.9.2-1.6.6-2 .5-.5 1-.8 1.8-.8.7 0 1.3.3 1.7.8.4.5.6 1.1.6 2 0 .9-.2 1.6-.6 2-.4.6-1 .8-1.7.8Zm0-1c.3 0 .5-.2.7-.4.2-.3.3-.8.3-1.4 0-.6-.1-1-.3-1.3a.8.8 0 0 0-.7-.4c-.4 0-.6.1-.8.4-.2.2-.3.7-.3 1.3 0 .6.1 1 .3 1.4.2.2.4.4.8.4Zm3.3.9.4-2.2h-1v-1h1.2l.6-2.8H201v-1h1.7l.4-2.2h1.1l-.4 2.1h1.7l.4-2h1.1l-.4 2h1v1.1h-1.2l-.6 2.7h1.5v1h-1.7l-.4 2.3h-1.1l.4-2.2h-1.7l-.4 2.2h-1.1Zm1.8-3.3h1.6l.6-2.7h-1.7l-.5 2.7Zm7.7 3.3.4-2.2h-1v-1h1.2l.6-2.8h-1.5v-1h1.7l.4-2.2h1.1l-.4 2.1h1.7l.4-2h1.2l-.5 2h1v1.1h-1.2l-.5 2.7h1.4v1h-1.7l-.4 2.3h-1.1l.4-2.2h-1.6l-.5 2.2h-1.1Zm1.8-3.3h1.6l.6-2.7H213l-.5 2.7Zm7.7 3.3.4-2.2h-1v-1h1.2l.6-2.8H220v-1h1.7l.4-2.2h1.1l-.4 2.1h1.7l.4-2h1.2l-.5 2h1v1.1h-1.2l-.5 2.7h1.4v1h-1.7l-.4 2.3h-1.1l.4-2.2H222l-.5 2.2h-1.1Zm1.8-3.3h1.6l.6-2.7h-1.7l-.5 2.7Zm7.7 3.3.4-2.2h-1v-1h1.2l.6-2.8h-1.5v-1h1.7l.4-2.2h1.1l-.4 2.1h1.7l.4-2h1.2l-.5 2h1v1.1h-1.2l-.5 2.7h1.4v1h-1.6l-.5 2.3h-1.1l.4-2.2h-1.6l-.5 2.2h-1.1Zm1.8-3.3h1.6l.6-2.7H232l-.5 2.7Zm7.7 3.3.4-2.2h-1v-1h1.2l.6-2.8H239v-1h1.7l.4-2.2h1.2l-.5 2.1h1.7l.4-2h1.2l-.5 2h1v1.1h-1.2l-.5 2.7h1.4v1h-1.6l-.5 2.3h-1.1l.4-2.2H241l-.5 2.2h-1.1Zm1.8-3.3h1.6l.6-2.7h-1.7l-.5 2.7Zm7.7 3.3.4-2.2h-1v-1h1.2l.6-2.8h-1.5v-1h1.7l.4-2.2h1.2l-.5 2.1h1.7l.4-2h1.2l-.5 2h1v1.1h-1.2l-.5 2.7h1.4v1h-1.6l-.5 2.3h-1.1l.4-2.2h-1.6l-.5 2.2h-1.1Zm1.8-3.3h1.6l.6-2.7H251l-.5 2.7Zm7.7 3.3.4-2.2h-1v-1h1.2l.6-2.8H258v-1h1.7l.4-2.2h1.2l-.5 2.1h1.7l.4-2h1.2l-.5 2h1v1.1h-1.2l-.5 2.7h1.4v1h-1.6l-.5 2.3h-1.1l.4-2.2H260l-.5 2.2h-1.1Zm1.8-3.3h1.6l.6-2.7h-1.7l-.5 2.7Zm7.7 3.3.4-2.2h-1v-1h1.2l.6-2.8h-1.4v-1h1.6l.4-2.2h1.2l-.5 2.1h1.7l.4-2h1.2l-.5 2h1v1.1h-1.2l-.5 2.7h1.4v1h-1.6l-.5 2.3h-1.1l.4-2.2h-1.6l-.5 2.2h-1.1Zm1.8-3.3h1.6l.6-2.7H270l-.5 2.7Zm8.6.3v-1.2h4v1.3h-4Zm-160.5 22v-1.8h1.8v1.8h-1.8Zm10.6 2.1c-.9 0-1.7 0-2.4-.4a5 5 0 0 1-3-2.9 8 8 0 0 1 .1-4.6 5.3 5.3 0 0 1 3-3c.8-.4 1.6-.5 2.5-.5a5.2 5.2 0 0 1 4.6 2.3 6.4 6.4 0 0 1 .3 4.6 3 3 0 0 1-1 1.2c-.3.3-.8.4-1.3.4s-1-.1-1.2-.4c-.3-.3-.5-.7-.5-1.2l.4-.1c-.2.5-.5 1-1 1.3-.3.3-.8.4-1.2.4a2 2 0 0 1-1.7-.6c-.4-.4-.6-1-.6-1.8 0-.6.2-1.2.4-1.7s.6-.9 1-1.2c.4-.2 1-.4 1.5-.4.4 0 .8.1 1.1.4.3.2.5.5.6 1h-.2l.2-1.3h1.3l-.6 3.2a8.8 8.8 0 0 0 0 .7v.6l.6.2c.3 0 .5-.1.8-.4.2-.2.4-.5.5-1l.2-1.3a4 4 0 0 0-.5-2.1c-.4-.6-.9-1-1.5-1.3a5 5 0 0 0-2.2-.5c-1 0-1.8.2-2.5.6a4 4 0 0 0-1.7 1.7c-.4.7-.6 1.6-.6 2.5 0 1 .2 1.8.6 2.5.3.7.9 1.2 1.5 1.6a5 5 0 0 0 2.5.5c.6 0 1.2 0 1.8-.2a4 4 0 0 0 1.4-.8l.5.8c-.4.4-1 .7-1.6 1l-2.1.2Zm-.5-3.9c.3 0 .6 0 .9-.3.3-.2.5-.5.6-.8.2-.4.2-.8.2-1.3 0-.4 0-.7-.3-1l-.8-.2c-.4 0-.7 0-1 .2l-.6.8a3 3 0 0 0-.2 1.2c0 .4.1.8.3 1 .2.3.5.4.9.4Z" fill="#000"/><path d="M137.8 215.1c-.9 0-1.7 0-2.4-.4a5.2 5.2 0 0 1-3-3c-.2-.6-.3-1.3-.3-2.2 0-.8.1-1.6.4-2.3a5.3 5.3 0 0 1 3-3c.8-.4 1.6-.5 2.5-.5a5.2 5.2 0 0 1 4.6 2.3 6.4 6.4 0 0 1 .3 4.6 3 3 0 0 1-1 1.2c-.3.3-.8.4-1.3.4s-1-.1-1.2-.4c-.3-.3-.5-.7-.5-1.2l.4-.1c-.2.5-.5 1-1 1.3-.3.3-.8.4-1.2.4a2 2 0 0 1-1.7-.6c-.4-.4-.6-1-.6-1.8 0-.6.2-1.2.4-1.7a4 4 0 0 1 1-1.2c.4-.2 1-.4 1.5-.4.4 0 .8.1 1.1.4.3.2.5.5.6 1h-.2l.2-1.3h1.3l-.6 3.2a8.8 8.8 0 0 0 0 .7v.6l.6.2c.3 0 .5-.1.8-.4.2-.2.4-.5.5-1l.2-1.3a4 4 0 0 0-.5-2.1c-.4-.6-.8-1-1.5-1.3a5 5 0 0 0-2.2-.5c-1 0-1.8.2-2.5.6a4 4 0 0 0-1.7 1.7c-.4.7-.6 1.6-.6 2.5 0 1 .2 1.8.6 2.5.3.7.9 1.2 1.6 1.6a5 5 0 0 0 2.4.5c.6 0 1.2 0 1.8-.2a4 4 0 0 0 1.4-.8l.5.8c-.4.4-1 .7-1.6 1l-2.1.2Zm-.5-3.9c.3 0 .6 0 .9-.3.3-.2.5-.5.6-.8.2-.4.2-.8.2-1.3 0-.4 0-.7-.3-1l-.8-.2c-.3 0-.7 0-1 .2l-.6.8-.2 1.2c0 .4.1.8.3 1 .2.3.5.4.9.4Z" fill="#000"/><path d="M147.3 215.1c-.9 0-1.7 0-2.4-.4a5 5 0 0 1-3-2.9 8 8 0 0 1 .1-4.6 5.3 5.3 0 0 1 3-3c.8-.4 1.6-.5 2.5-.5a5.2 5.2 0 0 1 4.6 2.3 6.4 6.4 0 0 1 .3 4.6 3 3 0 0 1-1 1.2c-.3.3-.8.4-1.3.4s-1-.1-1.2-.4c-.3-.3-.5-.7-.5-1.2l.4-.1c-.2.5-.5 1-1 1.3-.3.3-.8.4-1.2.4a2 2 0 0 1-1.7-.6c-.4-.4-.6-1-.6-1.8 0-.6.2-1.2.4-1.7a4 4 0 0 1 1-1.2c.4-.2 1-.4 1.5-.4.4 0 .8.1 1.1.4.3.2.5.5.6 1h-.2l.3-1.3h1.2l-.6 3.2a8.8 8.8 0 0 0 0 .7v.6l.6.2c.3 0 .5-.1.8-.4.2-.2.4-.5.5-1l.2-1.3a4 4 0 0 0-.5-2.1c-.4-.6-.8-1-1.5-1.3a5 5 0 0 0-2.2-.5c-1 0-1.8.2-2.5.6-.7.4-1.3 1-1.7 1.7-.4.7-.6 1.6-.6 2.5 0 1 .2 1.8.6 2.5.3.7.9 1.2 1.6 1.6a5 5 0 0 0 2.4.5c.6 0 1.2 0 1.8-.2a4 4 0 0 0 1.4-.8l.5.8c-.4.4-1 .7-1.6 1l-2.1.2Zm-.5-3.9c.3 0 .6 0 .9-.3.3-.2.5-.5.6-.8.2-.4.2-.8.2-1.3 0-.4 0-.7-.3-1l-.8-.2c-.3 0-.7 0-1 .2l-.6.8a3 3 0 0 0-.2 1.2c0 .4.1.8.3 1 .2.3.5.4.9.4Z" fill="#000"/><path d="M156.8 215.1c-.9 0-1.6 0-2.3-.4a5.2 5.2 0 0 1-3-3c-.3-.6-.4-1.3-.4-2.2 0-.8.1-1.6.4-2.3a5.3 5.3 0 0 1 3-3c.8-.4 1.6-.5 2.5-.5a5.2 5.2 0 0 1 4.6 2.3 6.4 6.4 0 0 1 .3 4.6 3 3 0 0 1-1 1.2c-.3.3-.8.4-1.3.4s-1-.1-1.2-.4c-.3-.3-.5-.7-.5-1.2l.4-.1c-.2.5-.5 1-1 1.3-.3.3-.8.4-1.2.4a2 2 0 0 1-1.7-.6c-.4-.4-.5-1-.5-1.8 0-.6 0-1.2.3-1.7s.6-.9 1-1.2c.4-.2 1-.4 1.5-.4s.8.1 1.1.4c.3.2.5.5.6 1h-.2l.3-1.3h1.2l-.6 3.2a8.8 8.8 0 0 0 0 .7l.1.6.5.2c.3 0 .6-.1.8-.4.2-.2.4-.5.5-1l.2-1.3a4 4 0 0 0-.5-2.1c-.4-.6-.8-1-1.5-1.3a5 5 0 0 0-2.2-.5c-1 0-1.8.2-2.5.6-.7.4-1.3 1-1.7 1.7-.4.7-.6 1.6-.6 2.5 0 1 .2 1.8.6 2.5.3.7.9 1.2 1.6 1.6a5 5 0 0 0 2.4.5c.6 0 1.3 0 1.8-.2a4 4 0 0 0 1.4-.8l.5.8c-.4.4-1 .7-1.6 1l-2.1.2Zm-.5-3.9c.3 0 .6 0 .9-.3.3-.2.5-.5.6-.8.2-.4.2-.8.2-1.3 0-.4 0-.7-.2-1l-1-.2c-.2 0-.5 0-.8.2l-.7.8-.2 1.2c0 .4.1.8.3 1 .2.3.5.4.9.4Z" fill="#000"/><path d="M166.3 215.1c-.9 0-1.6 0-2.3-.4a5 5 0 0 1-3-2.9c-.3-.7-.4-1.4-.4-2.3 0-.8.1-1.6.4-2.3a5.3 5.3 0 0 1 3-3c.8-.4 1.6-.5 2.5-.5a5.2 5.2 0 0 1 4.6 2.3c.4.7.6 1.6.6 2.6 0 .7 0 1.4-.3 2a3 3 0 0 1-1 1.2c-.3.3-.8.4-1.3.4s-1-.1-1.2-.4c-.3-.3-.5-.7-.5-1.2l.4-.1c-.2.5-.5 1-1 1.3-.3.3-.7.4-1.2.4a2 2 0 0 1-1.7-.6c-.4-.4-.5-1-.5-1.8 0-.6 0-1.2.3-1.7s.6-.9 1-1.2c.4-.2 1-.4 1.5-.4s.8.1 1.1.4c.3.2.5.5.6 1h-.2l.3-1.3h1.2l-.6 3.2a8.8 8.8 0 0 0 0 .7l.1.6.5.2c.3 0 .6-.1.8-.4.2-.2.4-.5.5-1l.2-1.3a4 4 0 0 0-.5-2.1c-.4-.6-.8-1-1.5-1.3a5 5 0 0 0-2.2-.5c-1 0-1.8.2-2.5.6-.7.4-1.3 1-1.7 1.7-.4.7-.6 1.6-.6 2.5 0 1 .2 1.8.6 2.5.3.7.9 1.2 1.6 1.6a5 5 0 0 0 2.4.5c.6 0 1.3 0 1.8-.2a4 4 0 0 0 1.4-.8l.5.8c-.4.4-1 .7-1.6 1l-2.1.2Zm-.5-3.9c.3 0 .6 0 .9-.3.3-.2.5-.5.6-.8.2-.4.2-.8.2-1.3 0-.4 0-.7-.2-1l-.9-.2c-.3 0-.6 0-1 .2l-.5.8a3 3 0 0 0-.3 1.2c0 .4.1.8.3 1 .2.3.5.4.9.4Z" fill="#000"/><path d="M173.6 213h-1.3l5.4-9.2h1.4l-5.5 9.2Zm-1.2-3.7c-.8 0-1.4-.2-1.8-.7-.4-.5-.6-1.2-.6-2.1 0-.9.2-1.6.6-2 .5-.5 1-.8 1.8-.8.7 0 1.3.3 1.7.8.4.5.6 1.1.6 2 0 .9-.2 1.6-.6 2-.4.6-1 .8-1.7.8Zm0-1c.3 0 .5-.2.7-.5.2-.2.3-.7.3-1.3 0-.6-.1-1-.3-1.3a.8.8 0 0 0-.7-.4c-.4 0-.6 0-.8.4-.2.2-.3.7-.3 1.3 0 .6.1 1 .3 1.4.2.2.4.4.8.4Zm6.5 4.8c-.7 0-1.3-.2-1.7-.7-.4-.5-.6-1.2-.6-2 0-1 .2-1.6.6-2.1.4-.5 1-.8 1.7-.8.8 0 1.4.3 1.8.8.4.5.6 1.2.6 2 0 .9-.2 1.6-.6 2-.4.6-1 .8-1.8.8Zm0-1c.4 0 .6-.2.8-.4.2-.3.3-.8.3-1.4 0-.6-.1-1-.3-1.3a.8.8 0 0 0-.8-.4c-.3 0-.5.1-.7.4-.2.3-.3.7-.3 1.3 0 .6.1 1 .3 1.4.2.2.4.4.7.4Z" fill="#000"/><path d="M183.1 213h-1.3l5.4-9.2h1.4L183 213Zm-1.2-3.7c-.8 0-1.4-.2-1.8-.7-.4-.5-.6-1.2-.6-2.1 0-.9.2-1.6.6-2 .5-.5 1-.8 1.8-.8.7 0 1.3.3 1.7.8.4.5.6 1.1.6 2 0 .9-.2 1.6-.6 2-.4.6-1 .8-1.7.8Zm0-1c.3 0 .5-.2.7-.5.2-.2.3-.7.3-1.3 0-.6-.1-1-.3-1.3a.8.8 0 0 0-.7-.4c-.4 0-.6 0-.8.4-.2.2-.3.7-.3 1.3 0 .6.1 1 .3 1.4.2.2.4.4.8.4Zm6.6 4.8c-.8 0-1.4-.2-1.8-.7-.4-.5-.6-1.2-.6-2 0-1 .2-1.6.6-2.1.4-.5 1-.8 1.8-.8.7 0 1.3.3 1.7.8.4.5.6 1.2.6 2 0 .9-.2 1.6-.6 2-.4.6-1 .8-1.7.8Zm0-1c.3 0 .5-.2.7-.4.2-.3.3-.8.3-1.4 0-.6-.1-1-.3-1.3a.8.8 0 0 0-.7-.4c-.4 0-.6.1-.8.4-.2.3-.3.7-.3 1.3 0 .6.1 1 .3 1.4.2.2.4.4.8.4Z" fill="#000"/><path d="M192.7 213h-1.4l5.4-9.2h1.4l-5.4 9.2Zm-1.3-3.7c-.8 0-1.3-.2-1.8-.7-.4-.5-.6-1.2-.6-2.1 0-.9.2-1.6.6-2 .5-.5 1-.8 1.8-.8.7 0 1.3.3 1.7.8.4.5.6 1.1.6 2 0 .9-.2 1.6-.6 2-.4.6-1 .8-1.7.8Zm0-1c.3 0 .5-.2.7-.5.2-.2.3-.7.3-1.3 0-.6-.1-1-.3-1.3a.8.8 0 0 0-.7-.4c-.4 0-.6 0-.8.4-.2.2-.3.7-.3 1.3 0 .6.1 1 .3 1.4.2.2.4.4.8.4Zm6.6 4.8c-.8 0-1.4-.2-1.8-.7-.4-.5-.6-1.2-.6-2 0-1 .2-1.6.6-2.1.5-.5 1-.8 1.8-.8.7 0 1.3.3 1.7.8.4.5.6 1.2.6 2 0 .9-.2 1.6-.6 2-.4.6-1 .8-1.7.8Zm0-1c.3 0 .5-.2.7-.4.2-.3.3-.8.3-1.4 0-.6-.1-1-.3-1.3a.8.8 0 0 0-.7-.4c-.4 0-.6.1-.8.4-.2.3-.3.7-.3 1.3 0 .6.1 1 .3 1.4.2.2.4.4.8.4Zm3.3.9.4-2.2h-1v-1h1.2l.6-2.8H201v-1h1.7l.4-2.2h1.1l-.4 2.2h1.7l.4-2.2h1.1l-.4 2.2h1v1h-1.2l-.6 2.7h1.5v1h-1.7l-.4 2.3h-1.1l.4-2.2h-1.7l-.4 2.2h-1.1Zm1.8-3.3h1.6l.6-2.7h-1.7l-.5 2.7Zm7.7 3.3.4-2.2h-1v-1h1.2l.6-2.8h-1.5v-1h1.7l.4-2.2h1.1l-.4 2.2h1.7l.4-2.2h1.2l-.5 2.2h1v1h-1.2l-.5 2.7h1.4v1h-1.7l-.4 2.3h-1.1l.4-2.2h-1.6l-.5 2.2h-1.1Zm1.8-3.3h1.6l.6-2.7H213l-.5 2.7Zm7.7 3.3.4-2.2h-1v-1h1.2l.6-2.8H220v-1h1.7l.4-2.2h1.1l-.4 2.2h1.7l.4-2.2h1.2l-.5 2.2h1v1h-1.2l-.5 2.7h1.4v1h-1.7l-.4 2.3h-1.1l.4-2.2H222l-.5 2.2h-1.1Zm1.8-3.3h1.6l.6-2.7h-1.7l-.5 2.7Zm7.7 3.3.4-2.2h-1v-1h1.2l.6-2.8h-1.5v-1h1.7l.4-2.2h1.1l-.4 2.2h1.7l.4-2.2h1.2l-.5 2.2h1v1h-1.2l-.5 2.7h1.4v1h-1.6l-.5 2.3h-1.1l.4-2.2h-1.6l-.5 2.2h-1.1Zm1.8-3.3h1.6l.6-2.7H232l-.5 2.7Zm7.7 3.3.4-2.2h-1v-1h1.2l.6-2.8H239v-1h1.7l.4-2.2h1.2l-.5 2.2h1.7l.4-2.2h1.2l-.5 2.2h1v1h-1.2l-.5 2.7h1.4v1h-1.6l-.5 2.3h-1.1l.4-2.2H241l-.5 2.2h-1.1Zm1.8-3.3h1.6l.6-2.7h-1.7l-.5 2.7Zm7.7 3.3.4-2.2h-1v-1h1.2l.6-2.8h-1.5v-1h1.7l.4-2.2h1.2l-.5 2.2h1.7l.4-2.2h1.2l-.5 2.2h1v1h-1.2l-.5 2.7h1.4v1h-1.6l-.5 2.3h-1.1l.4-2.2h-1.6l-.5 2.2h-1.1Zm1.8-3.3h1.6l.6-2.7H251l-.5 2.7Zm7.7 3.3.4-2.2h-1v-1h1.2l.6-2.8H258v-1h1.7l.4-2.2h1.2l-.5 2.2h1.7l.4-2.2h1.2l-.5 2.2h1v1h-1.2l-.5 2.7h1.4v1h-1.6l-.5 2.3h-1.1l.4-2.2H260l-.5 2.2h-1.1Zm1.8-3.3h1.6l.6-2.7h-1.7l-.5 2.7Zm7.7 3.3.4-2.2h-1v-1h1.2l.6-2.8h-1.4v-1h1.6l.4-2.2h1.2l-.5 2.2h1.7l.4-2.2h1.2l-.5 2.2h1v1h-1.2l-.5 2.7h1.4v1h-1.6l-.5 2.3h-1.1l.4-2.2h-1.6l-.5 2.2h-1.1Zm1.8-3.3h1.6l.6-2.7H270l-.5 2.7Zm9.7-1.5v-1.8h1.8v1.8h-1.8Zm0 4.8v-1.8h1.8v1.8h-1.8Zm-154.1 19 .5-2.2h-1v-1h1.2l.5-2.8H125v-1h1.7l.4-2.2h1.1l-.4 2.2h1.7l.4-2.2h1.1l-.4 2.2h1v1h-1.2l-.6 2.7h1.5v1h-1.7l-.4 2.3H128l.5-2.2h-1.7l-.4 2.2h-1.2Zm1.8-3.3h1.7l.5-2.7h-1.6l-.6 2.7Zm10.8 5.5a6 6 0 0 1-2.4-.5 5.2 5.2 0 0 1-3-3c-.2-.6-.3-1.3-.3-2.2 0-.8.1-1.6.4-2.3a5.3 5.3 0 0 1 3-3 7 7 0 0 1 2.5-.5 5.2 5.2 0 0 1 4.6 2.3 6.4 6.4 0 0 1 .3 4.6 3 3 0 0 1-1 1.2c-.3.3-.8.4-1.3.4s-1-.1-1.2-.4c-.3-.3-.5-.7-.5-1.2l.4-.1c-.2.5-.5 1-1 1.3-.3.3-.8.4-1.2.4a2 2 0 0 1-1.7-.6c-.4-.4-.6-1-.6-1.8 0-.6.2-1.2.4-1.7a4 4 0 0 1 1-1.2c.4-.2 1-.4 1.5-.4.4 0 .8.1 1.1.4.3.2.5.5.6 1h-.2l.2-1.3h1.3l-.6 3.2a8.8 8.8 0 0 0 0 .7v.6l.6.2c.3 0 .5-.1.8-.4.2-.2.4-.5.5-1l.2-1.3a4 4 0 0 0-.5-2.1c-.4-.6-.8-1-1.5-1.3a5 5 0 0 0-2.2-.5c-1 0-1.8.2-2.5.6a4 4 0 0 0-1.7 1.7c-.4.7-.6 1.6-.6 2.5 0 1 .2 1.8.6 2.5.3.7.9 1.2 1.6 1.6a5 5 0 0 0 2.4.6l1.8-.3a4 4 0 0 0 1.4-.8l.5.8c-.4.4-1 .7-1.6 1-.6.1-1.3.3-2.1.3Zm-.5-4c.3 0 .6 0 .9-.3.3-.2.5-.5.6-.8.2-.4.2-.8.2-1.3 0-.4 0-.7-.3-1l-.8-.2c-.3 0-.7 0-1 .2l-.6.8-.2 1.2c0 .5.1.8.3 1 .2.3.5.4.9.4Z" fill="#000"/><path d="M147.3 234.2a6 6 0 0 1-2.4-.5 5 5 0 0 1-3-2.9 8 8 0 0 1 .1-4.6 5.3 5.3 0 0 1 3-3 7 7 0 0 1 2.5-.5 5.2 5.2 0 0 1 4.6 2.3 6.4 6.4 0 0 1 .3 4.6 3 3 0 0 1-1 1.2c-.3.3-.8.4-1.3.4s-1-.1-1.2-.4c-.3-.3-.5-.7-.5-1.2l.4-.1c-.2.5-.5 1-1 1.3-.3.3-.8.4-1.2.4a2 2 0 0 1-1.7-.6c-.4-.4-.6-1-.6-1.8 0-.6.2-1.2.4-1.7a4 4 0 0 1 1-1.2c.4-.2 1-.4 1.5-.4.4 0 .8.1 1.1.4.3.2.5.5.6 1h-.2l.3-1.3h1.2l-.6 3.2a8.8 8.8 0 0 0 0 .7v.6l.6.2c.3 0 .5-.1.8-.4.2-.2.4-.5.5-1l.2-1.3a4 4 0 0 0-.5-2.1c-.4-.6-.8-1-1.5-1.3a5 5 0 0 0-2.2-.5c-1 0-1.8.2-2.5.6-.7.4-1.3 1-1.7 1.7-.4.7-.6 1.6-.6 2.5 0 1 .2 1.8.6 2.5.3.7.9 1.2 1.6 1.6a5 5 0 0 0 2.4.6l1.8-.3a4 4 0 0 0 1.4-.8l.5.8c-.4.4-1 .7-1.6 1-.6.1-1.3.3-2.1.3Zm-.5-4c.3 0 .6 0 .9-.3.3-.2.5-.5.6-.8.2-.4.2-.8.2-1.3 0-.4 0-.7-.3-1l-.8-.2c-.3 0-.7 0-1 .2l-.6.8a3 3 0 0 0-.2 1.2c0 .5.1.8.3 1 .2.3.5.4.9.4Z" fill="#000"/><path d="M156.8 234.2c-.9 0-1.6-.2-2.3-.5a5.2 5.2 0 0 1-3-3c-.3-.6-.4-1.3-.4-2.2 0-.8.1-1.6.4-2.3a5.3 5.3 0 0 1 3-3 7 7 0 0 1 2.5-.5 5.2 5.2 0 0 1 4.6 2.3 6.4 6.4 0 0 1 .3 4.6 3 3 0 0 1-1 1.2c-.3.3-.8.4-1.3.4s-1-.1-1.2-.4c-.3-.3-.5-.7-.5-1.2l.4-.1c-.2.5-.5 1-1 1.3-.3.3-.8.4-1.2.4a2 2 0 0 1-1.7-.6c-.4-.4-.5-1-.5-1.8 0-.6 0-1.2.3-1.7s.6-.9 1-1.2c.4-.2 1-.4 1.5-.4s.8.1 1.1.4c.3.2.5.5.6 1h-.2l.3-1.3h1.2l-.6 3.2a8.8 8.8 0 0 0 0 .7l.1.6.5.2c.3 0 .6-.1.8-.4.2-.2.4-.5.5-1l.2-1.3a4 4 0 0 0-.5-2.1c-.4-.6-.8-1-1.5-1.3a5 5 0 0 0-2.2-.5c-1 0-1.8.2-2.5.6-.7.4-1.3 1-1.7 1.7-.4.7-.6 1.6-.6 2.5 0 1 .2 1.8.6 2.5.3.7.9 1.2 1.6 1.6a5 5 0 0 0 2.4.6c.6 0 1.3-.1 1.8-.3a4 4 0 0 0 1.4-.8l.5.8c-.4.4-1 .7-1.6 1-.6.1-1.3.3-2.1.3Zm-.5-4c.3 0 .6 0 .9-.3.3-.2.5-.5.6-.8.2-.4.2-.8.2-1.3 0-.4 0-.7-.2-1l-1-.2c-.2 0-.5 0-.8.2l-.7.8-.2 1.2c0 .5.1.8.3 1 .2.3.5.4.9.4Z" fill="#000"/><path d="M166.3 234.2c-.9 0-1.6-.2-2.3-.5a5 5 0 0 1-3-2.9c-.3-.7-.4-1.4-.4-2.3 0-.8.1-1.6.4-2.3a5.3 5.3 0 0 1 3-3 7 7 0 0 1 2.5-.5 5.2 5.2 0 0 1 4.6 2.3c.4.7.6 1.6.6 2.6 0 .7 0 1.4-.3 2a3 3 0 0 1-1 1.2c-.3.3-.8.4-1.3.4s-1-.1-1.2-.4c-.3-.3-.5-.7-.5-1.2l.4-.1c-.2.5-.5 1-1 1.3-.3.3-.7.4-1.2.4a2 2 0 0 1-1.7-.6c-.4-.4-.5-1-.5-1.8 0-.6 0-1.2.3-1.7s.6-.9 1-1.2c.4-.2 1-.4 1.5-.4s.8.1 1.1.4c.3.2.5.5.6 1h-.2l.3-1.3h1.2l-.6 3.2a8.8 8.8 0 0 0 0 .7l.1.6.5.2c.3 0 .6-.1.8-.4.2-.2.4-.5.5-1l.2-1.3a4 4 0 0 0-.5-2.1c-.4-.6-.8-1-1.5-1.3a5 5 0 0 0-2.2-.5c-1 0-1.8.2-2.5.6-.7.4-1.3 1-1.7 1.7-.4.7-.6 1.6-.6 2.5 0 1 .2 1.8.6 2.5.3.7.9 1.2 1.6 1.6a5 5 0 0 0 2.4.6c.6 0 1.3-.1 1.8-.3a4 4 0 0 0 1.4-.8l.5.8c-.4.4-1 .7-1.6 1-.6.1-1.3.3-2.1.3Zm-.5-4c.3 0 .6 0 .9-.3.3-.2.5-.5.6-.8.2-.4.2-.8.2-1.3 0-.4 0-.7-.2-1l-.9-.2c-.3 0-.6 0-1 .2l-.5.8a3 3 0 0 0-.3 1.2c0 .5.1.8.3 1 .2.3.5.4.9.4Z" fill="#000"/><path d="M175.8 234.2c-.9 0-1.6-.2-2.3-.5a5.2 5.2 0 0 1-3-3c-.3-.6-.4-1.3-.4-2.2 0-.8.1-1.6.4-2.3a5.3 5.3 0 0 1 3-3 7 7 0 0 1 2.5-.5 5.2 5.2 0 0 1 4.6 2.3c.4.7.6 1.6.6 2.6 0 .7 0 1.4-.3 2a3 3 0 0 1-1 1.2c-.3.3-.7.4-1.3.4-.5 0-1-.1-1.2-.4-.3-.3-.5-.7-.5-1.2l.4-.1a3 3 0 0 1-.9 1.3 2 2 0 0 1-1.3.4 2 2 0 0 1-1.7-.6 3 3 0 0 1-.5-1.8c0-.6 0-1.2.3-1.7s.6-.9 1-1.2c.4-.2 1-.4 1.5-.4s.8.1 1.1.4c.3.2.5.5.6 1h-.2l.3-1.3h1.2l-.6 3.2a8.8 8.8 0 0 0 0 .7l.1.6.5.2c.3 0 .6-.1.8-.4.2-.2.4-.5.5-1l.2-1.3a4 4 0 0 0-.5-2.1c-.4-.6-.8-1-1.5-1.3a5 5 0 0 0-2.2-.5c-1 0-1.8.2-2.5.6-.7.4-1.3 1-1.7 1.7-.4.7-.6 1.6-.6 2.5 0 1 .2 1.8.6 2.5.4.7.9 1.2 1.6 1.6a5 5 0 0 0 2.4.6c.7 0 1.3-.1 1.8-.3a4 4 0 0 0 1.4-.8l.5.8c-.4.4-1 .7-1.6 1-.6.1-1.3.3-2.1.3Zm-.5-4c.3 0 .6 0 .9-.3.3-.2.5-.5.6-.8.2-.4.2-.8.2-1.3 0-.4 0-.7-.2-1l-.9-.2c-.3 0-.6 0-1 .2l-.5.8-.3 1.2c0 .5.1.8.3 1 .2.3.5.4.9.4Z" fill="#000"/><path d="M183.1 232h-1.3l5.4-9.2h1.4L183 232Zm-1.2-3.7c-.8 0-1.4-.2-1.8-.7-.4-.5-.6-1.2-.6-2 0-1 .2-1.7.6-2.1.5-.5 1-.8 1.8-.8.7 0 1.3.3 1.7.8.4.5.6 1.1.6 2 0 .9-.2 1.6-.6 2-.4.6-1 .8-1.7.8Zm0-1c.3 0 .5-.2.7-.5.2-.2.3-.7.3-1.3 0-.6-.1-1-.3-1.3a.8.8 0 0 0-.7-.4c-.4 0-.6.1-.8.4-.2.2-.3.7-.3 1.3 0 .6.1 1 .3 1.4.2.2.4.4.8.4Zm6.6 4.8c-.8 0-1.4-.2-1.8-.7-.4-.5-.6-1.2-.6-2 0-1 .2-1.6.6-2.1.4-.5 1-.8 1.8-.8.7 0 1.3.3 1.7.8.4.5.6 1.2.6 2 0 .9-.2 1.6-.6 2-.4.6-1 .8-1.7.8Zm0-1c.3 0 .5-.2.7-.4.2-.3.3-.8.3-1.4 0-.6-.1-1-.3-1.3a.8.8 0 0 0-.7-.4c-.4 0-.6.1-.8.4-.2.3-.3.7-.3 1.3 0 .6.1 1 .3 1.4.2.2.4.4.8.4Z" fill="#000"/><path d="M192.7 232h-1.4l5.4-9.2h1.4l-5.4 9.2Zm-1.3-3.7c-.8 0-1.3-.2-1.8-.7-.4-.5-.6-1.2-.6-2 0-1 .2-1.7.6-2.1.5-.5 1-.8 1.8-.8.7 0 1.3.3 1.7.8.4.5.6 1.1.6 2 0 .9-.2 1.6-.6 2-.4.6-1 .8-1.7.8Zm0-1c.3 0 .5-.2.7-.5.2-.2.3-.7.3-1.3 0-.6-.1-1-.3-1.3a.8.8 0 0 0-.7-.4c-.4 0-.6.1-.8.4-.2.2-.3.7-.3 1.3 0 .6.1 1 .3 1.4.2.2.4.4.8.4Zm6.6 4.8c-.8 0-1.4-.2-1.8-.7-.4-.5-.6-1.2-.6-2 0-1 .2-1.6.6-2.1.5-.5 1-.8 1.8-.8.7 0 1.3.3 1.7.8.4.5.6 1.2.6 2 0 .9-.2 1.6-.6 2-.4.6-1 .8-1.7.8Zm0-1c.3 0 .5-.2.7-.4.2-.3.3-.8.3-1.4 0-.6-.1-1-.3-1.3a.8.8 0 0 0-.7-.4c-.4 0-.6.1-.8.4-.2.3-.3.7-.3 1.3 0 .6.1 1 .3 1.4.2.2.4.4.8.4Zm3.3.9.4-2.2h-1v-1h1.2l.6-2.8H201v-1h1.7l.4-2.2h1.1l-.4 2.2h1.7l.4-2.2h1.1l-.4 2.2h1v1h-1.2l-.6 2.7h1.5v1h-1.7l-.4 2.3h-1.1l.4-2.2h-1.7l-.4 2.2h-1.1Zm1.8-3.3h1.6l.6-2.7h-1.7l-.5 2.7Zm7.7 3.3.4-2.2h-1v-1h1.2l.6-2.8h-1.5v-1h1.7l.4-2.2h1.1l-.4 2.2h1.7l.4-2.2h1.2l-.5 2.2h1v1h-1.2l-.5 2.7h1.4v1h-1.7l-.4 2.3h-1.1l.4-2.2h-1.6l-.5 2.2h-1.1Zm1.8-3.3h1.6l.6-2.7H213l-.5 2.7Zm7.7 3.3.4-2.2h-1v-1h1.2l.6-2.8H220v-1h1.7l.4-2.2h1.1l-.4 2.2h1.7l.4-2.2h1.2l-.5 2.2h1v1h-1.2l-.5 2.7h1.4v1h-1.7l-.4 2.3h-1.1l.4-2.2H222l-.5 2.2h-1.1Zm1.8-3.3h1.6l.6-2.7h-1.7l-.5 2.7Zm7.7 3.3.4-2.2h-1v-1h1.2l.6-2.8h-1.5v-1h1.7l.4-2.2h1.1l-.4 2.2h1.7l.4-2.2h1.2l-.5 2.2h1v1h-1.2l-.5 2.7h1.4v1h-1.6l-.5 2.3h-1.1l.4-2.2h-1.6l-.5 2.2h-1.1Zm1.8-3.3h1.6l.6-2.7H232l-.5 2.7Zm7.7 3.3.4-2.2h-1v-1h1.2l.6-2.8H239v-1h1.7l.4-2.2h1.2l-.5 2.2h1.7l.4-2.2h1.2l-.5 2.2h1v1h-1.2l-.5 2.7h1.4v1h-1.6l-.5 2.3h-1.1l.4-2.2H241l-.5 2.2h-1.1Zm1.8-3.3h1.6l.6-2.7h-1.7l-.5 2.7Zm7.7 3.3.4-2.2h-1v-1h1.2l.6-2.8h-1.5v-1h1.7l.4-2.2h1.2l-.5 2.2h1.7l.4-2.2h1.2l-.5 2.2h1v1h-1.2l-.5 2.7h1.4v1h-1.6l-.5 2.3h-1.1l.4-2.2h-1.6l-.5 2.2h-1.1Zm1.8-3.3h1.6l.6-2.7H251l-.5 2.7Zm7.7 3.3.4-2.2h-1v-1h1.2l.6-2.8H258v-1h1.7l.4-2.2h1.2l-.5 2.2h1.7l.4-2.2h1.2l-.5 2.2h1v1h-1.2l-.5 2.7h1.4v1h-1.6l-.5 2.3h-1.1l.4-2.2H260l-.5 2.2h-1.1Zm1.8-3.3h1.6l.6-2.7h-1.7l-.5 2.7Zm7.7 3.3.4-2.2h-1v-1h1.2l.6-2.8h-1.4v-1h1.6l.4-2.2h1.2l-.5 2.2h1.7l.4-2.2h1.2l-.5 2.2h1v1h-1.2l-.5 2.7h1.4v1h-1.6l-.5 2.3h-1.1l.4-2.2h-1.6l-.5 2.2h-1.1Zm1.8-3.3h1.6l.6-2.7H270l-.5 2.7Zm9.7 3.3v-1.8h1.8v1.8h-1.8Zm-152.1 19v-1.8h1.8v1.8h-1.8Zm10.6 2.2c-.9 0-1.7-.2-2.4-.4a5.2 5.2 0 0 1-3-3c-.2-.6-.3-1.4-.3-2.3 0-.8.1-1.6.4-2.3a5.3 5.3 0 0 1 3-3 7 7 0 0 1 2.5-.5 5.2 5.2 0 0 1 4.6 2.3 6.4 6.4 0 0 1 .3 4.6 3 3 0 0 1-1 1.2c-.3.3-.8.4-1.3.4s-1-.1-1.2-.4c-.3-.3-.5-.7-.5-1.2l.4-.1c-.2.6-.5 1-1 1.3-.3.3-.8.4-1.2.4a2 2 0 0 1-1.7-.6c-.4-.4-.6-1-.6-1.8 0-.6.2-1.2.4-1.7.3-.5.6-.9 1-1.1.4-.3 1-.5 1.5-.5.4 0 .8.1 1.1.4.3.2.5.5.6 1h-.2l.2-1.2h1.3l-.6 3a8.8 8.8 0 0 0 0 .8v.6l.6.2c.3 0 .5-.1.8-.4.2-.2.4-.5.5-.9l.2-1.4a4 4 0 0 0-.5-2.1c-.4-.6-.8-1-1.5-1.3a5 5 0 0 0-2.2-.5c-1 0-1.8.2-2.5.6a4 4 0 0 0-1.7 1.7c-.4.7-.6 1.6-.6 2.5 0 1 .2 1.8.6 2.5.3.7.9 1.2 1.6 1.6a5 5 0 0 0 2.4.6l1.8-.3a4 4 0 0 0 1.4-.8l.5.8c-.4.4-1 .7-1.6 1-.6.2-1.3.3-2.1.3Zm-.5-4c.3 0 .6 0 .9-.3.3-.2.5-.5.6-.8.2-.4.2-.8.2-1.3 0-.4 0-.7-.3-1l-.8-.2c-.3 0-.7 0-1 .3l-.6.7-.2 1.2c0 .5.1.8.3 1 .2.3.5.4.9.4Z" fill="#000"/><path d="M147.3 253.2c-.9 0-1.7-.2-2.4-.4a5 5 0 0 1-3-3c-.2-.6-.3-1.4-.3-2.3 0-.8.1-1.6.4-2.3a5.3 5.3 0 0 1 3-3 7 7 0 0 1 2.5-.5 5.2 5.2 0 0 1 4.6 2.3 6.4 6.4 0 0 1 .3 4.6 3 3 0 0 1-1 1.2c-.3.3-.8.4-1.3.4s-1-.1-1.2-.4c-.3-.3-.5-.7-.5-1.2l.4-.1c-.2.6-.5 1-1 1.3-.3.3-.8.4-1.2.4a2 2 0 0 1-1.7-.6c-.4-.4-.6-1-.6-1.8 0-.6.2-1.2.4-1.7.3-.5.6-.9 1-1.1.4-.3 1-.5 1.5-.5.4 0 .8.1 1.1.4.3.2.5.5.6 1h-.2l.3-1.2h1.2l-.6 3a8.8 8.8 0 0 0 0 .8v.6l.6.2c.3 0 .5-.1.8-.4.2-.2.4-.5.5-.9l.2-1.4a4 4 0 0 0-.5-2.1c-.4-.6-.8-1-1.5-1.3a5 5 0 0 0-2.2-.5c-1 0-1.8.2-2.5.6-.7.4-1.3 1-1.7 1.7-.4.7-.6 1.6-.6 2.5 0 1 .2 1.8.6 2.5.3.7.9 1.2 1.6 1.6a5 5 0 0 0 2.4.6l1.8-.3a4 4 0 0 0 1.4-.8l.5.8c-.4.4-1 .7-1.6 1-.6.2-1.3.3-2.1.3Zm-.5-4c.3 0 .6 0 .9-.3.3-.2.5-.5.6-.8.2-.4.2-.8.2-1.3 0-.4 0-.7-.3-1l-.8-.2c-.3 0-.7 0-1 .3l-.6.7a3 3 0 0 0-.2 1.2c0 .5.1.8.3 1 .2.3.5.4.9.4Z" fill="#000"/><path d="M156.8 253.2c-.9 0-1.6-.2-2.3-.4a5.2 5.2 0 0 1-3-3c-.3-.6-.4-1.4-.4-2.3 0-.8.1-1.6.4-2.3a5.3 5.3 0 0 1 3-3 7 7 0 0 1 2.5-.5 5.2 5.2 0 0 1 4.6 2.3 6.4 6.4 0 0 1 .3 4.6 3 3 0 0 1-1 1.2c-.3.3-.8.4-1.3.4s-1-.1-1.2-.4c-.3-.3-.5-.7-.5-1.2l.4-.1c-.2.6-.5 1-1 1.3-.3.3-.8.4-1.2.4a2 2 0 0 1-1.7-.6c-.4-.4-.5-1-.5-1.8 0-.6 0-1.2.3-1.7s.6-.9 1-1.1c.4-.3 1-.5 1.5-.5s.8.1 1.1.4c.3.2.5.5.6 1h-.2l.3-1.2h1.2l-.6 3a8.8 8.8 0 0 0 0 .8l.1.6.5.2c.3 0 .6-.1.8-.4.2-.2.4-.5.5-.9l.2-1.4a4 4 0 0 0-.5-2.1c-.4-.6-.8-1-1.5-1.3a5 5 0 0 0-2.2-.5c-1 0-1.8.2-2.5.6-.7.4-1.3 1-1.7 1.7-.4.7-.6 1.6-.6 2.5 0 1 .2 1.8.6 2.5.3.7.9 1.2 1.6 1.6a5 5 0 0 0 2.4.6c.6 0 1.3-.1 1.8-.3a4 4 0 0 0 1.4-.8l.5.8c-.4.4-1 .7-1.6 1-.6.2-1.3.3-2.1.3Zm-.5-4c.3 0 .6 0 .9-.3.3-.2.5-.5.6-.8.2-.4.2-.8.2-1.3 0-.4 0-.7-.2-1l-1-.2c-.2 0-.5 0-.8.3-.3.1-.5.4-.7.7l-.2 1.2c0 .5.1.8.3 1 .2.3.5.4.9.4Z" fill="#000"/><path d="M166.3 253.2c-.9 0-1.6-.2-2.3-.4a5 5 0 0 1-3-3c-.3-.6-.4-1.4-.4-2.3 0-.8.1-1.6.4-2.3a5.3 5.3 0 0 1 3-3 7 7 0 0 1 2.5-.5 5.2 5.2 0 0 1 4.6 2.3c.4.7.6 1.6.6 2.6 0 .7 0 1.4-.3 2a3 3 0 0 1-1 1.2c-.3.3-.8.4-1.3.4s-1-.1-1.2-.4c-.3-.3-.5-.7-.5-1.2l.4-.1c-.2.6-.5 1-1 1.3-.3.3-.7.4-1.2.4a2 2 0 0 1-1.7-.6c-.4-.4-.5-1-.5-1.8 0-.6 0-1.2.3-1.7s.6-.9 1-1.1c.4-.3 1-.5 1.5-.5s.8.1 1.1.4c.3.2.5.5.6 1h-.2l.3-1.2h1.2l-.6 3a8.8 8.8 0 0 0 0 .8l.1.6.5.2c.3 0 .6-.1.8-.4.2-.2.4-.5.5-.9l.2-1.4a4 4 0 0 0-.5-2.1c-.4-.6-.8-1-1.5-1.3a5 5 0 0 0-2.2-.5c-1 0-1.8.2-2.5.6-.7.4-1.3 1-1.7 1.7-.4.7-.6 1.6-.6 2.5 0 1 .2 1.8.6 2.5.3.7.9 1.2 1.6 1.6a5 5 0 0 0 2.4.6c.6 0 1.3-.1 1.8-.3a4 4 0 0 0 1.4-.8l.5.8c-.4.4-1 .7-1.6 1-.6.2-1.3.3-2.1.3Zm-.5-4c.3 0 .6 0 .9-.3.3-.2.5-.5.6-.8.2-.4.2-.8.2-1.3 0-.4 0-.7-.2-1l-.9-.2c-.3 0-.6 0-1 .3-.2.1-.4.4-.5.7a3 3 0 0 0-.3 1.2c0 .5.1.8.3 1 .2.3.5.4.9.4Z" fill="#000"/><path d="M175.8 253.2c-.9 0-1.6-.2-2.3-.4a5.2 5.2 0 0 1-3-3c-.3-.6-.4-1.4-.4-2.3 0-.8.1-1.6.4-2.3a5.3 5.3 0 0 1 3-3 7 7 0 0 1 2.5-.5 5.2 5.2 0 0 1 4.6 2.3c.4.7.6 1.6.6 2.6 0 .7 0 1.4-.3 2a3 3 0 0 1-1 1.2c-.3.3-.7.4-1.3.4-.5 0-1-.1-1.2-.4-.3-.3-.5-.7-.5-1.2l.4-.1c-.2.6-.5 1-.9 1.3a2 2 0 0 1-1.3.4 2 2 0 0 1-1.7-.6 3 3 0 0 1-.5-1.8c0-.6 0-1.2.3-1.7s.6-.9 1-1.1c.4-.3 1-.5 1.5-.5s.8.1 1.1.4c.3.2.5.5.6 1h-.2l.3-1.2h1.2l-.6 3a8.8 8.8 0 0 0 0 .8l.1.6.5.2c.3 0 .6-.1.8-.4.2-.2.4-.5.5-.9l.2-1.4a4 4 0 0 0-.5-2.1c-.4-.6-.8-1-1.5-1.3a5 5 0 0 0-2.2-.5c-1 0-1.8.2-2.5.6-.7.4-1.3 1-1.7 1.7-.4.7-.6 1.6-.6 2.5 0 1 .2 1.8.6 2.5.4.7.9 1.2 1.6 1.6a5 5 0 0 0 2.4.6c.7 0 1.3-.1 1.8-.3a4 4 0 0 0 1.4-.8l.5.8c-.4.4-1 .7-1.6 1-.6.2-1.3.3-2.1.3Zm-.5-4c.3 0 .6 0 .9-.3.3-.2.5-.5.6-.8.2-.4.2-.8.2-1.3 0-.4 0-.7-.2-1l-.9-.2c-.3 0-.6 0-1 .3-.2.1-.4.4-.5.7l-.3 1.2c0 .5.1.8.3 1 .2.3.5.4.9.4Z" fill="#000"/><path d="M185.3 253.2c-.9 0-1.6-.2-2.3-.4a5 5 0 0 1-3-3c-.3-.6-.4-1.4-.4-2.3 0-.8.1-1.6.4-2.3a5.3 5.3 0 0 1 3-3 7 7 0 0 1 2.5-.5c1 0 2 .2 2.8.6.7.4 1.3 1 1.8 1.7.4.7.6 1.6.6 2.6 0 .7 0 1.4-.3 2a3 3 0 0 1-1 1.2c-.3.3-.7.4-1.3.4-.5 0-1-.1-1.2-.4-.3-.3-.4-.7-.5-1.2l.4-.1c-.2.6-.5 1-.9 1.3a2 2 0 0 1-1.3.4 2 2 0 0 1-1.7-.6 3 3 0 0 1-.5-1.8c0-.6 0-1.2.3-1.7s.6-.9 1-1.1c.5-.3 1-.5 1.5-.5s.8.1 1.1.4c.3.2.5.5.7 1h-.3l.3-1.2h1.2l-.6 3a10.6 10.6 0 0 0 0 .8l.1.6.5.2c.3 0 .6-.1.8-.4.2-.2.4-.5.5-.9l.2-1.4a4 4 0 0 0-.5-2.1c-.3-.6-.8-1-1.5-1.3a5 5 0 0 0-2.2-.5c-1 0-1.8.2-2.5.6-.7.4-1.3 1-1.7 1.7-.4.7-.6 1.6-.6 2.5 0 1 .2 1.8.6 2.5.4.7.9 1.2 1.6 1.6a5 5 0 0 0 2.4.6c.7 0 1.3-.1 1.8-.3a4 4 0 0 0 1.4-.8l.5.8c-.4.4-1 .7-1.6 1-.6.2-1.3.3-2.1.3Zm-.5-4c.3 0 .6 0 .9-.3.3-.2.5-.5.6-.8.2-.4.2-.8.2-1.3 0-.4 0-.7-.2-1l-.9-.2c-.3 0-.6 0-1 .3-.2.1-.4.4-.5.7a3 3 0 0 0-.3 1.2c0 .5.1.8.3 1 .2.3.5.4 1 .4Z" fill="#000"/><path d="M192.7 251h-1.4l5.4-9.2h1.4l-5.4 9.2Zm-1.3-3.7c-.8 0-1.3-.2-1.8-.7-.4-.5-.6-1.2-.6-2 0-1 .2-1.6.6-2.1.5-.5 1-.8 1.8-.8.7 0 1.3.3 1.7.8.4.5.6 1.2.6 2 0 .9-.2 1.6-.6 2-.4.6-1 .8-1.7.8Zm0-1c.3 0 .5-.2.7-.4.2-.3.3-.8.3-1.4 0-.6-.1-1-.3-1.3a.8.8 0 0 0-.7-.4c-.4 0-.6.1-.8.4-.2.2-.3.7-.3 1.3 0 .6.1 1 .3 1.4.2.2.4.4.8.4Zm6.6 4.8c-.8 0-1.4-.2-1.8-.7-.4-.5-.6-1.2-.6-2 0-1 .2-1.6.6-2.1.5-.5 1-.8 1.8-.8.7 0 1.3.3 1.7.8.4.5.6 1.2.6 2 0 .9-.2 1.6-.6 2-.4.6-1 .8-1.7.8Zm0-1c.3 0 .5-.1.7-.4.2-.3.3-.8.3-1.4 0-.6-.1-1-.3-1.3a.8.8 0 0 0-.7-.4c-.4 0-.6.1-.8.4-.2.3-.3.7-.3 1.3 0 .6.1 1.1.3 1.4.2.3.4.4.8.4Zm3.3.9.4-2.2h-1v-1h1.2l.6-2.8H201v-1h1.7l.4-2.2h1.1l-.4 2.2h1.7l.4-2.2h1.1l-.4 2.2h1v1h-1.2l-.6 2.7h1.5v1h-1.7l-.4 2.3h-1.1l.4-2.2h-1.7l-.4 2.2h-1.1Zm1.8-3.3h1.6l.6-2.7h-1.7l-.5 2.7Zm7.7 3.3.4-2.2h-1v-1h1.2l.6-2.8h-1.5v-1h1.7l.4-2.2h1.1l-.4 2.2h1.7l.4-2.2h1.2l-.5 2.2h1v1h-1.2l-.5 2.7h1.4v1h-1.7l-.4 2.3h-1.1l.4-2.2h-1.6l-.5 2.2h-1.1Zm1.8-3.3h1.6l.6-2.7H213l-.5 2.7Zm7.7 3.3.4-2.2h-1v-1h1.2l.6-2.8H220v-1h1.7l.4-2.2h1.1l-.4 2.2h1.7l.4-2.2h1.2l-.5 2.2h1v1h-1.2l-.5 2.7h1.4v1h-1.7l-.4 2.3h-1.1l.4-2.2H222l-.5 2.2h-1.1Zm1.8-3.3h1.6l.6-2.7h-1.7l-.5 2.7Zm7.7 3.3.4-2.2h-1v-1h1.2l.6-2.8h-1.5v-1h1.7l.4-2.2h1.1l-.4 2.2h1.7l.4-2.2h1.2l-.5 2.2h1v1h-1.2l-.5 2.7h1.4v1h-1.6l-.5 2.3h-1.1l.4-2.2h-1.6l-.5 2.2h-1.1Zm1.8-3.3h1.6l.6-2.7H232l-.5 2.7Zm7.7 3.3.4-2.2h-1v-1h1.2l.6-2.8H239v-1h1.7l.4-2.2h1.2l-.5 2.2h1.7l.4-2.2h1.2l-.5 2.2h1v1h-1.2l-.5 2.7h1.4v1h-1.6l-.5 2.3h-1.1l.4-2.2H241l-.5 2.2h-1.1Zm1.8-3.3h1.6l.6-2.7h-1.7l-.5 2.7Zm7.7 3.3.4-2.2h-1v-1h1.2l.6-2.8h-1.5v-1h1.7l.4-2.2h1.2l-.5 2.2h1.7l.4-2.2h1.2l-.5 2.2h1v1h-1.2l-.5 2.7h1.4v1h-1.6l-.5 2.3h-1.1l.4-2.2h-1.6l-.5 2.2h-1.1Zm1.8-3.3h1.6l.6-2.7H251l-.5 2.7Zm7.7 3.3.4-2.2h-1v-1h1.2l.6-2.8H258v-1h1.7l.4-2.2h1.2l-.5 2.2h1.7l.4-2.2h1.2l-.5 2.2h1v1h-1.2l-.5 2.7h1.4v1h-1.6l-.5 2.3h-1.1l.4-2.2H260l-.5 2.2h-1.1Zm1.8-3.3h1.6l.6-2.7h-1.7l-.5 2.7Zm7.4-1.1v-1.2h6.4v1.2h-6.4Zm0 2.5v-1h6.4v1h-6.4ZM135.7 267v-1.2h4v1.3h-4Zm11.6 5.2c-.9 0-1.7-.2-2.4-.4a5 5 0 0 1-3-3c-.2-.6-.3-1.4-.3-2.3 0-.8.1-1.6.4-2.3a5.3 5.3 0 0 1 3-3 7 7 0 0 1 2.5-.5 5.2 5.2 0 0 1 4.6 2.3 6.4 6.4 0 0 1 .3 4.6 3 3 0 0 1-1 1.2c-.3.3-.8.5-1.3.5s-1-.2-1.2-.5c-.3-.3-.5-.7-.5-1.2l.4-.1c-.2.6-.5 1-1 1.3-.3.3-.8.5-1.2.5a2 2 0 0 1-1.7-.7c-.4-.4-.6-1-.6-1.8 0-.6.2-1.2.4-1.7.3-.5.6-.9 1-1.1.4-.3 1-.5 1.5-.5.4 0 .8.2 1.1.4.3.2.5.5.6 1h-.2l.3-1.2h1.2l-.6 3.1a8.8 8.8 0 0 0 0 .7v.6l.6.2c.3 0 .5-.1.8-.3l.5-1 .2-1.4a4 4 0 0 0-.5-2 3 3 0 0 0-1.5-1.4 5 5 0 0 0-2.2-.5c-1 0-1.8.2-2.5.6-.7.4-1.3 1-1.7 1.7-.4.7-.6 1.6-.6 2.6 0 .9.2 1.7.6 2.4.3.7.9 1.2 1.6 1.6a5 5 0 0 0 2.4.6l1.8-.3a4 4 0 0 0 1.4-.8l.5.8c-.4.4-1 .7-1.6 1-.6.2-1.3.3-2.1.3Zm-.5-4c.3 0 .6 0 .9-.3.3-.2.5-.4.6-.8.2-.4.2-.8.2-1.3 0-.4 0-.7-.3-.9-.1-.2-.4-.3-.8-.3-.3 0-.7 0-1 .3l-.6.7a3 3 0 0 0-.2 1.2c0 .5.1.8.3 1 .2.3.5.4.9.4Z" fill="#000"/><path d="M156.8 272.2c-.9 0-1.6-.2-2.3-.4a5.2 5.2 0 0 1-3-3c-.3-.6-.4-1.4-.4-2.3 0-.8.1-1.6.4-2.3a5.3 5.3 0 0 1 3-3 7 7 0 0 1 2.5-.5 5.2 5.2 0 0 1 4.6 2.3 6.4 6.4 0 0 1 .3 4.6 3 3 0 0 1-1 1.2c-.3.3-.8.5-1.3.5s-1-.2-1.2-.5c-.3-.3-.5-.7-.5-1.2l.4-.1c-.2.6-.5 1-1 1.3-.3.3-.8.5-1.2.5a2 2 0 0 1-1.7-.7c-.4-.4-.5-1-.5-1.8 0-.6 0-1.2.3-1.7s.6-.9 1-1.1c.4-.3 1-.5 1.5-.5s.8.2 1.1.4c.3.2.5.5.6 1h-.2l.3-1.2h1.2l-.6 3.1a8.8 8.8 0 0 0 0 .7l.1.6.5.2c.3 0 .6-.1.8-.3l.5-1 .2-1.4a4 4 0 0 0-.5-2 3 3 0 0 0-1.5-1.4 5 5 0 0 0-2.2-.5c-1 0-1.8.2-2.5.6-.7.4-1.3 1-1.7 1.7-.4.7-.6 1.6-.6 2.6 0 .9.2 1.7.6 2.4.3.7.9 1.2 1.6 1.6a5 5 0 0 0 2.4.6c.6 0 1.3-.1 1.8-.3a4 4 0 0 0 1.4-.8l.5.8c-.4.4-1 .7-1.6 1-.6.2-1.3.3-2.1.3Zm-.5-4c.3 0 .6 0 .9-.3.3-.2.5-.4.6-.8.2-.4.2-.8.2-1.3 0-.4 0-.7-.2-.9-.2-.2-.5-.3-1-.3-.2 0-.5 0-.8.3-.3.1-.5.4-.7.7l-.2 1.2c0 .5.1.8.3 1 .2.3.5.4.9.4Z" fill="#000"/><path d="M166.3 272.2c-.9 0-1.6-.2-2.3-.4a5 5 0 0 1-3-3c-.3-.6-.4-1.4-.4-2.3 0-.8.1-1.6.4-2.3a5.3 5.3 0 0 1 3-3 7 7 0 0 1 2.5-.5 5.2 5.2 0 0 1 4.6 2.3c.4.7.6 1.6.6 2.6 0 .7 0 1.4-.3 2a3 3 0 0 1-1 1.2c-.3.3-.8.5-1.3.5s-1-.2-1.2-.5c-.3-.3-.5-.7-.5-1.2l.4-.1c-.2.6-.5 1-1 1.3-.3.3-.7.5-1.2.5a2 2 0 0 1-1.7-.7c-.4-.4-.5-1-.5-1.8 0-.6 0-1.2.3-1.7s.6-.9 1-1.1c.4-.3 1-.5 1.5-.5s.8.2 1.1.4c.3.2.5.5.6 1h-.2l.3-1.2h1.2l-.6 3.1a8.8 8.8 0 0 0 0 .7l.1.6.5.2c.3 0 .6-.1.8-.3l.5-1 .2-1.4a4 4 0 0 0-.5-2 3 3 0 0 0-1.5-1.4 5 5 0 0 0-2.2-.5c-1 0-1.8.2-2.5.6-.7.4-1.3 1-1.7 1.7-.4.7-.6 1.6-.6 2.6 0 .9.2 1.7.6 2.4.3.7.9 1.2 1.6 1.6a5 5 0 0 0 2.4.6c.6 0 1.3-.1 1.8-.3a4 4 0 0 0 1.4-.8l.5.8c-.4.4-1 .7-1.6 1-.6.2-1.3.3-2.1.3Zm-.5-4c.3 0 .6 0 .9-.3.3-.2.5-.4.6-.8.2-.4.2-.8.2-1.3 0-.4 0-.7-.2-.9-.2-.2-.5-.3-.9-.3-.3 0-.6 0-1 .3-.2.1-.4.4-.5.7a3 3 0 0 0-.3 1.2c0 .5.1.8.3 1 .2.3.5.4.9.4Z" fill="#000"/><path d="M175.8 272.2c-.9 0-1.6-.2-2.3-.4a5.2 5.2 0 0 1-3-3c-.3-.6-.4-1.4-.4-2.3 0-.8.1-1.6.4-2.3a5.3 5.3 0 0 1 3-3 7 7 0 0 1 2.5-.5 5.2 5.2 0 0 1 4.6 2.3c.4.7.6 1.6.6 2.6 0 .7 0 1.4-.3 2a3 3 0 0 1-1 1.2c-.3.3-.7.5-1.3.5-.5 0-1-.2-1.2-.5-.3-.3-.5-.7-.5-1.2l.4-.1c-.2.6-.5 1-.9 1.3-.4.3-.8.5-1.3.5a2 2 0 0 1-1.7-.7 3 3 0 0 1-.5-1.8c0-.6 0-1.2.3-1.7s.6-.9 1-1.1c.4-.3 1-.5 1.5-.5s.8.2 1.1.4c.3.2.5.5.6 1h-.2l.3-1.2h1.2l-.6 3.1a8.8 8.8 0 0 0 0 .7l.1.6.5.2c.3 0 .6-.1.8-.3l.5-1 .2-1.4a4 4 0 0 0-.5-2 3 3 0 0 0-1.5-1.4 5 5 0 0 0-2.2-.5c-1 0-1.8.2-2.5.6-.7.4-1.3 1-1.7 1.7-.4.7-.6 1.6-.6 2.6 0 .9.2 1.7.6 2.4.4.7.9 1.2 1.6 1.6a5 5 0 0 0 2.4.6c.7 0 1.3-.1 1.8-.3a4 4 0 0 0 1.4-.8l.5.8c-.4.4-1 .7-1.6 1-.6.2-1.3.3-2.1.3Zm-.5-4c.3 0 .6 0 .9-.3.3-.2.5-.4.6-.8.2-.4.2-.8.2-1.3 0-.4 0-.7-.2-.9-.2-.2-.5-.3-.9-.3-.3 0-.6 0-1 .3-.2.1-.4.4-.5.7l-.3 1.2c0 .5.1.8.3 1 .2.3.5.4.9.4Z" fill="#000"/><path d="M185.3 272.2c-.9 0-1.6-.2-2.3-.4a5 5 0 0 1-3-3c-.3-.6-.4-1.4-.4-2.3 0-.8.1-1.6.4-2.3a5.3 5.3 0 0 1 3-3 7 7 0 0 1 2.5-.5c1 0 2 .2 2.8.6.7.4 1.3 1 1.8 1.7.4.7.6 1.6.6 2.6 0 .7 0 1.4-.3 2a3 3 0 0 1-1 1.2c-.3.3-.7.5-1.3.5-.5 0-1-.2-1.2-.5-.3-.3-.4-.7-.5-1.2l.4-.1c-.2.6-.5 1-.9 1.3-.4.3-.8.5-1.3.5a2 2 0 0 1-1.7-.7 3 3 0 0 1-.5-1.8c0-.6 0-1.2.3-1.7s.6-.9 1-1.1c.5-.3 1-.5 1.5-.5s.8.2 1.1.4c.3.2.5.5.7 1h-.3l.3-1.2h1.2l-.6 3.1a10.6 10.6 0 0 0 0 .7l.1.6.5.2c.3 0 .6-.1.8-.3l.5-1 .2-1.4a4 4 0 0 0-.5-2c-.3-.7-.8-1.1-1.5-1.4a5 5 0 0 0-2.2-.5c-1 0-1.8.2-2.5.6-.7.4-1.3 1-1.7 1.7-.4.7-.6 1.6-.6 2.6 0 .9.2 1.7.6 2.4.4.7.9 1.2 1.6 1.6a5 5 0 0 0 2.4.6c.7 0 1.3-.1 1.8-.3a4 4 0 0 0 1.4-.8l.5.8c-.4.4-1 .7-1.6 1-.6.2-1.3.3-2.1.3Zm-.5-4c.3 0 .6 0 .9-.3.3-.2.5-.4.6-.8.2-.4.2-.8.2-1.3 0-.4 0-.7-.2-.9-.2-.2-.5-.3-.9-.3-.3 0-.6 0-1 .3-.2.1-.4.4-.5.7a3 3 0 0 0-.3 1.2c0 .5.1.8.3 1 .2.3.5.4 1 .4Z" fill="#000"/><path d="M192.7 270h-1.4l5.4-9.1h1.4l-5.4 9.1Zm-1.3-3.7c-.8 0-1.3-.2-1.8-.7-.4-.5-.6-1.2-.6-2 0-1 .2-1.6.6-2.1.5-.5 1-.8 1.8-.8.7 0 1.3.3 1.7.8.4.5.6 1.2.6 2 0 .9-.2 1.6-.6 2-.4.6-1 .8-1.7.8Zm0-1c.3 0 .5-.2.7-.4.2-.3.3-.8.3-1.4 0-.6-.1-1-.3-1.3a.8.8 0 0 0-.7-.4c-.4 0-.6.1-.8.4-.2.3-.3.7-.3 1.3 0 .6.1 1.1.3 1.4.2.3.4.4.8.4Zm6.6 4.9c-.8 0-1.4-.3-1.8-.8-.4-.5-.6-1.2-.6-2 0-1 .2-1.6.6-2.1.5-.5 1-.8 1.8-.8.7 0 1.3.3 1.7.8.4.5.6 1.2.6 2 0 .9-.2 1.6-.6 2.1-.4.5-1 .8-1.7.8Zm0-1.1c.3 0 .5-.1.7-.4.2-.3.3-.8.3-1.4 0-.6-.1-1-.3-1.3a.8.8 0 0 0-.7-.4c-.4 0-.6.1-.8.4-.2.3-.3.7-.3 1.3 0 .7.1 1.1.3 1.4.2.3.4.4.8.4Zm3.3.9.4-2.2h-1v-1h1.2l.6-2.8H201v-1h1.7l.4-2.1h1.1l-.4 2h1.7l.4-2h1.1l-.4 2h1v1.1h-1.2l-.6 2.7h1.5v1h-1.7l-.4 2.3h-1.1l.4-2.2h-1.7l-.4 2.2h-1.1Zm1.8-3.3h1.6l.6-2.7h-1.7l-.5 2.7Zm7.7 3.3.4-2.2h-1v-1h1.2l.6-2.8h-1.5v-1h1.7l.4-2.1h1.1l-.4 2h1.7l.4-2h1.2l-.5 2h1v1.1h-1.2l-.5 2.7h1.4v1h-1.7l-.4 2.3h-1.1l.4-2.2h-1.6l-.5 2.2h-1.1Zm1.8-3.3h1.6l.6-2.7H213l-.5 2.7Zm7.7 3.3.4-2.2h-1v-1h1.2l.6-2.8H220v-1h1.7l.4-2.1h1.1l-.4 2h1.7l.4-2h1.2l-.5 2h1v1.1h-1.2l-.5 2.7h1.4v1h-1.7l-.4 2.3h-1.1l.4-2.2H222l-.5 2.2h-1.1Zm1.8-3.3h1.6l.6-2.7h-1.7l-.5 2.7Zm7.7 3.3.4-2.2h-1v-1h1.2l.6-2.8h-1.5v-1h1.7l.4-2.1h1.1l-.4 2h1.7l.4-2h1.2l-.5 2h1v1.1h-1.2l-.5 2.7h1.4v1h-1.6l-.5 2.3h-1.1l.4-2.2h-1.6l-.5 2.2h-1.1Zm1.8-3.3h1.6l.6-2.7H232l-.5 2.7Zm7.7 3.3.4-2.2h-1v-1h1.2l.6-2.8H239v-1h1.7l.4-2.1h1.2l-.5 2h1.7l.4-2h1.2l-.5 2h1v1.1h-1.2l-.5 2.7h1.4v1h-1.6l-.5 2.3h-1.1l.4-2.2H241l-.5 2.2h-1.1Zm1.8-3.3h1.6l.6-2.7h-1.7l-.5 2.7Zm7.7 3.3.4-2.2h-1v-1h1.2l.6-2.8h-1.5v-1h1.7l.4-2.1h1.2l-.5 2h1.7l.4-2h1.2l-.5 2h1v1.1h-1.2l-.5 2.7h1.4v1h-1.6l-.5 2.3h-1.1l.4-2.2h-1.6l-.5 2.2h-1.1Zm1.8-3.3h1.6l.6-2.7H251l-.5 2.7Zm7.4-1.1v-1.2h6.4v1.2H258Zm0 2.5v-1h6.4v1H258ZM146.2 289v-1.8h1.8v1.8h-1.8Zm10.6 2.2c-.9 0-1.6-.2-2.3-.4a5.2 5.2 0 0 1-3-3 5 5 0 0 1-.4-2.2c0-1 .1-1.7.4-2.4a5.3 5.3 0 0 1 3-3 7 7 0 0 1 2.5-.5 5.2 5.2 0 0 1 4.6 2.3 6.4 6.4 0 0 1 .3 4.6 3 3 0 0 1-1 1.2c-.3.3-.8.5-1.3.5s-1-.2-1.2-.5c-.3-.3-.5-.7-.5-1.2l.4-.1c-.2.6-.5 1-1 1.3-.3.3-.8.5-1.2.5a2 2 0 0 1-1.7-.7c-.4-.4-.5-1-.5-1.8 0-.6 0-1.2.3-1.7s.6-.9 1-1.1c.4-.3 1-.5 1.5-.5s.8.2 1.1.4c.3.2.5.6.6 1h-.2l.3-1.2h1.2l-.6 3.1a8.8 8.8 0 0 0 0 .7l.1.6.5.2c.3 0 .6-.1.8-.3l.5-1 .2-1.4a4 4 0 0 0-.5-2c-.4-.7-.8-1-1.5-1.4a5 5 0 0 0-2.2-.5c-1 0-1.8.2-2.5.6-.7.4-1.3 1-1.7 1.7-.4.7-.6 1.6-.6 2.6s.2 1.7.6 2.4c.3.7.9 1.2 1.6 1.6a5 5 0 0 0 2.4.6c.6 0 1.3-.1 1.8-.3a4 4 0 0 0 1.4-.8l.5.9-1.6.8c-.6.3-1.3.4-2.1.4Zm-.5-4c.3 0 .6 0 .9-.3.3-.2.5-.4.6-.8.2-.4.2-.8.2-1.2 0-.5 0-.8-.2-1-.2-.2-.5-.3-1-.3-.2 0-.5 0-.8.3-.3.1-.5.4-.7.7l-.2 1.2c0 .5.1.8.3 1 .2.3.5.4.9.4Z" fill="#000"/><path d="M166.3 291.2c-.9 0-1.6-.2-2.3-.4a5 5 0 0 1-3-3 5 5 0 0 1-.4-2.2c0-1 .1-1.7.4-2.4a5.3 5.3 0 0 1 3-3 7 7 0 0 1 2.5-.5 5.2 5.2 0 0 1 4.6 2.3c.4.7.6 1.6.6 2.6 0 .7 0 1.4-.3 2a3 3 0 0 1-1 1.2c-.3.3-.8.5-1.3.5s-1-.2-1.2-.5c-.3-.3-.5-.7-.5-1.2l.4-.1c-.2.6-.5 1-1 1.3-.3.3-.7.5-1.2.5a2 2 0 0 1-1.7-.7c-.4-.4-.5-1-.5-1.8 0-.6 0-1.2.3-1.7s.6-.9 1-1.1c.4-.3 1-.5 1.5-.5s.8.2 1.1.4c.3.2.5.6.6 1h-.2l.3-1.2h1.2l-.6 3.1a8.8 8.8 0 0 0 0 .7l.1.6.5.2c.3 0 .6-.1.8-.3l.5-1 .2-1.4a4 4 0 0 0-.5-2c-.4-.7-.8-1-1.5-1.4a5 5 0 0 0-2.2-.5c-1 0-1.8.2-2.5.6-.7.4-1.3 1-1.7 1.7-.4.7-.6 1.6-.6 2.6s.2 1.7.6 2.4c.3.7.9 1.2 1.6 1.6a5 5 0 0 0 2.4.6c.6 0 1.3-.1 1.8-.3a4 4 0 0 0 1.4-.8l.5.9-1.6.8c-.6.3-1.3.4-2.1.4Zm-.5-4c.3 0 .6 0 .9-.3.3-.2.5-.4.6-.8.2-.4.2-.8.2-1.2 0-.5 0-.8-.2-1-.2-.2-.5-.3-.9-.3-.3 0-.6 0-1 .3-.2.1-.4.4-.5.7a3 3 0 0 0-.3 1.2c0 .5.1.8.3 1 .2.3.5.4.9.4Z" fill="#000"/><path d="M175.8 291.2c-.9 0-1.6-.2-2.3-.4a5.2 5.2 0 0 1-3-3 5 5 0 0 1-.4-2.2c0-1 .1-1.7.4-2.4a5.3 5.3 0 0 1 3-3 7 7 0 0 1 2.5-.5 5.2 5.2 0 0 1 4.6 2.3c.4.7.6 1.6.6 2.6 0 .7 0 1.4-.3 2a3 3 0 0 1-1 1.2c-.3.3-.7.5-1.3.5-.5 0-1-.2-1.2-.5-.3-.3-.5-.7-.5-1.2l.4-.1c-.2.6-.5 1-.9 1.3-.4.3-.8.5-1.3.5a2 2 0 0 1-1.7-.7 3 3 0 0 1-.5-1.8c0-.6 0-1.2.3-1.7s.6-.9 1-1.1c.4-.3 1-.5 1.5-.5s.8.2 1.1.4c.3.2.5.6.6 1h-.2l.3-1.2h1.2l-.6 3.1a8.8 8.8 0 0 0 0 .7l.1.6.5.2c.3 0 .6-.1.8-.3l.5-1 .2-1.4a4 4 0 0 0-.5-2c-.4-.7-.8-1-1.5-1.4a5 5 0 0 0-2.2-.5c-1 0-1.8.2-2.5.6-.7.4-1.3 1-1.7 1.7-.4.7-.6 1.6-.6 2.6a4.5 4.5 0 0 0 2.2 4 5 5 0 0 0 2.4.6c.7 0 1.3-.1 1.8-.3a4 4 0 0 0 1.4-.8l.5.9-1.6.8c-.6.3-1.3.4-2.1.4Zm-.5-4c.3 0 .6 0 .9-.3.3-.2.5-.4.6-.8.2-.4.2-.8.2-1.2 0-.5 0-.8-.2-1-.2-.2-.5-.3-.9-.3-.3 0-.6 0-1 .3-.2.1-.4.4-.5.7l-.3 1.2c0 .5.1.8.3 1 .2.3.5.4.9.4Z" fill="#000"/><path d="M185.3 291.2c-.9 0-1.6-.2-2.3-.4a5 5 0 0 1-3-3 5 5 0 0 1-.4-2.2c0-1 .1-1.7.4-2.4a5.3 5.3 0 0 1 3-3 7 7 0 0 1 2.5-.5c1 0 2 .2 2.8.6.7.4 1.3 1 1.8 1.7.4.7.6 1.6.6 2.6 0 .7 0 1.4-.3 2a3 3 0 0 1-1 1.2c-.3.3-.7.5-1.3.5-.5 0-1-.2-1.2-.5-.3-.3-.4-.7-.5-1.2l.4-.1c-.2.6-.5 1-.9 1.3-.4.3-.8.5-1.3.5a2 2 0 0 1-1.7-.7 3 3 0 0 1-.5-1.8c0-.6 0-1.2.3-1.7s.6-.9 1-1.1c.5-.3 1-.5 1.5-.5s.8.2 1.1.4c.3.2.5.6.7 1h-.3l.3-1.2h1.2l-.6 3.1a10.6 10.6 0 0 0 0 .7l.1.6.5.2c.3 0 .6-.1.8-.3l.5-1 .2-1.4a4 4 0 0 0-.5-2c-.3-.7-.8-1-1.5-1.4a5 5 0 0 0-2.2-.5c-1 0-1.8.2-2.5.6-.7.4-1.3 1-1.7 1.7-.4.7-.6 1.6-.6 2.6a4.5 4.5 0 0 0 2.2 4 5 5 0 0 0 2.4.6c.7 0 1.3-.1 1.8-.3a4 4 0 0 0 1.4-.8l.5.9-1.6.8c-.6.3-1.3.4-2.1.4Zm-.5-4c.3 0 .6 0 .9-.3.3-.2.5-.4.6-.8.2-.4.2-.8.2-1.2 0-.5 0-.8-.2-1-.2-.2-.5-.3-.9-.3-.3 0-.6 0-1 .3-.2.1-.4.4-.5.7a3 3 0 0 0-.3 1.2c0 .5.1.8.3 1 .2.3.5.4 1 .4Z" fill="#000"/><path d="M194.8 291.2c-.9 0-1.6-.2-2.3-.4a5.2 5.2 0 0 1-3-3 5 5 0 0 1-.4-2.2c0-1 .1-1.7.4-2.4a5.3 5.3 0 0 1 3-3 7 7 0 0 1 2.5-.5c1 0 2 .2 2.8.6.7.4 1.3 1 1.8 1.7.4.7.6 1.6.6 2.6 0 .7 0 1.4-.3 2a3 3 0 0 1-1 1.2c-.3.3-.7.5-1.3.5-.5 0-.9-.2-1.2-.5-.3-.3-.4-.7-.5-1.2l.4-.1c-.2.6-.5 1-.9 1.3-.4.3-.8.5-1.3.5a2 2 0 0 1-1.7-.7 3 3 0 0 1-.5-1.8c0-.6 0-1.2.3-1.7s.6-.9 1-1.1c.5-.3 1-.5 1.5-.5s.9.2 1.1.4c.3.2.6.6.7 1h-.3l.3-1.2h1.2l-.6 3.1a8.8 8.8 0 0 0 0 .7l.1.6.5.2c.3 0 .6-.1.8-.3l.5-1 .2-1.4a4 4 0 0 0-.5-2c-.3-.7-.8-1-1.5-1.4a5 5 0 0 0-2.2-.5c-1 0-1.8.2-2.5.6-.7.4-1.3 1-1.7 1.7-.4.7-.6 1.6-.6 2.6a4.5 4.5 0 0 0 2.2 4 5 5 0 0 0 2.4.6c.7 0 1.3-.1 1.8-.3a4 4 0 0 0 1.4-.8l.5.9-1.6.8c-.6.3-1.3.4-2.1.4Zm-.5-4c.3 0 .6 0 1-.3.2-.2.4-.4.5-.8l.3-1.2c0-.5-.1-.8-.3-1-.2-.2-.5-.3-.9-.3-.3 0-.6 0-.9.3-.3.1-.5.4-.6.7l-.3 1.2c0 .5.1.8.3 1 .2.3.5.4 1 .4Zm7 1.8.4-2.2h-1v-1h1.2l.6-2.8H201v-1h1.7l.4-2.1h1.1l-.4 2h1.7l.4-2h1.1l-.4 2h1v1.1h-1.2l-.6 2.8h1.5v1h-1.7l-.4 2.2h-1.1l.4-2.2h-1.7l-.4 2.2h-1.1Zm1.8-3.2h1.6l.6-2.8h-1.7l-.5 2.8Zm7.7 3.2.4-2.2h-1v-1h1.2l.6-2.8h-1.5v-1h1.7l.4-2.1h1.1l-.4 2h1.7l.4-2h1.2l-.5 2h1v1.1h-1.2l-.5 2.8h1.4v1h-1.7l-.4 2.2h-1.1l.4-2.2h-1.6l-.5 2.2h-1.1Zm1.8-3.2h1.6l.6-2.8H213l-.5 2.8Zm7.7 3.2.4-2.2h-1v-1h1.2l.6-2.8H220v-1h1.7l.4-2.1h1.1l-.4 2h1.7l.4-2h1.2l-.5 2h1v1.1h-1.2l-.5 2.8h1.4v1h-1.7l-.4 2.2h-1.1l.4-2.2H222l-.5 2.2h-1.1Zm1.8-3.2h1.6l.6-2.8h-1.7l-.5 2.8Zm7.7 3.2.4-2.2h-1v-1h1.2l.6-2.8h-1.5v-1h1.7l.4-2.1h1.1l-.4 2h1.7l.4-2h1.2l-.5 2h1v1.1h-1.2l-.5 2.8h1.4v1h-1.6l-.5 2.2h-1.1l.4-2.2h-1.6l-.5 2.2h-1.1Zm1.8-3.2h1.6l.6-2.8H232l-.5 2.8Zm7.7 3.2.4-2.2h-1v-1h1.2l.6-2.8H239v-1h1.7l.4-2.1h1.2l-.5 2h1.7l.4-2h1.2l-.5 2h1v1.1h-1.2l-.5 2.8h1.4v1h-1.6l-.5 2.2h-1.1l.4-2.2H241l-.5 2.2h-1.1Zm1.8-3.2h1.6l.6-2.8h-1.7l-.5 2.8Zm9.9 2.7V286h-2.5v-1.2h2.6v-2.6h1.2v2.6h2.6v1.2h-2.6v2.6H251Zm-75.2 21.7c-.9 0-1.6-.2-2.3-.4a5.2 5.2 0 0 1-3-3 5 5 0 0 1-.4-2.2c0-1 .1-1.7.4-2.4a5.3 5.3 0 0 1 3-3 7 7 0 0 1 2.5-.5 5.2 5.2 0 0 1 4.6 2.3c.4.8.6 1.6.6 2.6 0 .7 0 1.4-.3 2a3 3 0 0 1-1 1.2c-.3.3-.7.5-1.3.5-.5 0-1-.2-1.2-.5-.3-.3-.5-.7-.5-1.2l.4-.1c-.2.6-.5 1-.9 1.3-.4.3-.8.5-1.3.5a2 2 0 0 1-1.7-.7 3 3 0 0 1-.5-1.8c0-.6 0-1.2.3-1.7s.6-.8 1-1.1c.4-.3 1-.5 1.5-.5s.8.2 1.1.4c.3.2.5.6.6 1h-.2l.3-1.2h1.2l-.6 3.1a8.8 8.8 0 0 0 0 .7l.1.6.5.2c.3 0 .6-.1.8-.3l.5-1 .2-1.4a4 4 0 0 0-.5-2c-.4-.7-.8-1-1.5-1.4a5 5 0 0 0-2.2-.5c-1 0-1.8.2-2.5.6-.7.4-1.3 1-1.7 1.7-.4.7-.6 1.6-.6 2.6s.2 1.7.6 2.4c.4.7.9 1.3 1.6 1.6a5 5 0 0 0 2.4.6c.7 0 1.3-.1 1.8-.3a4 4 0 0 0 1.4-.8l.5.9-1.6.9c-.6.2-1.3.3-2.1.3Zm-.5-4c.3 0 .6 0 .9-.3.3-.2.5-.4.6-.8.2-.4.2-.8.2-1.2 0-.5 0-.8-.2-1-.2-.2-.5-.3-.9-.3-.3 0-.6 0-1 .3-.2.2-.4.4-.5.8a2 2 0 0 0-.3 1.1c0 .5.1.8.3 1 .2.3.5.4.9.4Z" fill="#000"/><path d="M185.3 310.2c-.9 0-1.6-.2-2.3-.4a5 5 0 0 1-3-3 5 5 0 0 1-.4-2.2c0-1 .1-1.7.4-2.4a5.3 5.3 0 0 1 3-3 7 7 0 0 1 2.5-.5c1 0 2 .2 2.8.6.7.4 1.3 1 1.8 1.7.4.8.6 1.6.6 2.6 0 .7 0 1.4-.3 2a3 3 0 0 1-1 1.2c-.3.3-.7.5-1.3.5-.5 0-1-.2-1.2-.5-.3-.3-.4-.7-.5-1.2l.4-.1c-.2.6-.5 1-.9 1.3-.4.3-.8.5-1.3.5a2 2 0 0 1-1.7-.7 3 3 0 0 1-.5-1.8c0-.6 0-1.2.3-1.7s.6-.8 1-1.1c.5-.3 1-.5 1.5-.5s.8.2 1.1.4c.3.2.5.6.7 1h-.3l.3-1.2h1.2l-.6 3.1a10.6 10.6 0 0 0 0 .7l.1.6.5.2c.3 0 .6-.1.8-.3l.5-1 .2-1.4a4 4 0 0 0-.5-2c-.3-.7-.8-1-1.5-1.4a5 5 0 0 0-2.2-.5c-1 0-1.8.2-2.5.6-.7.4-1.3 1-1.7 1.7-.4.7-.6 1.6-.6 2.6s.2 1.7.6 2.4c.4.7.9 1.3 1.6 1.6a5 5 0 0 0 2.4.6c.7 0 1.3-.1 1.8-.3a4 4 0 0 0 1.4-.8l.5.9-1.6.9c-.6.2-1.3.3-2.1.3Zm-.5-4c.3 0 .6 0 .9-.3.3-.2.5-.4.6-.8.2-.4.2-.8.2-1.2 0-.5 0-.8-.2-1-.2-.2-.5-.3-.9-.3-.3 0-.6 0-1 .3-.2.2-.4.4-.5.8a3 3 0 0 0-.3 1.1c0 .5.1.8.3 1 .2.3.5.4 1 .4Z" fill="#000"/><path d="M192.7 308h-1.4l5.4-9.1h1.4l-5.4 9.1Zm-1.3-3.7c-.8 0-1.3-.2-1.8-.7-.4-.5-.6-1.2-.6-2 0-1 .2-1.6.6-2.1.5-.5 1-.8 1.8-.8.7 0 1.3.3 1.7.8.4.5.6 1.2.6 2 0 .9-.2 1.6-.6 2-.4.6-1 .8-1.7.8Zm0-1c.3 0 .5-.1.7-.4.2-.3.3-.8.3-1.4 0-.6-.1-1-.3-1.3a.8.8 0 0 0-.7-.4c-.4 0-.6.1-.8.4-.2.3-.3.7-.3 1.3 0 .7.1 1.1.3 1.4.2.3.4.4.8.4Zm6.6 4.9c-.8 0-1.4-.3-1.8-.8-.4-.5-.6-1.2-.6-2 0-1 .2-1.6.6-2.1.5-.5 1-.7 1.8-.7.7 0 1.3.2 1.7.7.4.5.6 1.2.6 2 0 1-.2 1.6-.6 2.1-.4.5-1 .8-1.7.8Zm0-1c.3 0 .5-.2.7-.5.2-.3.3-.7.3-1.4 0-.6-.1-1-.3-1.3a.8.8 0 0 0-.7-.4c-.4 0-.6.1-.8.4-.2.3-.3.7-.3 1.3 0 .7.1 1.1.3 1.4.2.3.4.4.8.4Zm3.3.8.4-2.2h-1v-1h1.2l.6-2.8H201v-1h1.7l.4-2.1h1.1l-.4 2h1.7l.4-2h1.1l-.4 2h1v1.1h-1.2l-.6 2.8h1.5v1h-1.7l-.4 2.2h-1.1l.4-2.2h-1.7l-.4 2.2h-1.1Zm1.8-3.2h1.6l.6-2.8h-1.7l-.5 2.8Zm7.7 3.2.4-2.2h-1v-1h1.2l.6-2.8h-1.5v-1h1.7l.4-2.1h1.1l-.4 2h1.7l.4-2h1.2l-.5 2h1v1.1h-1.2l-.5 2.8h1.4v1h-1.7l-.4 2.2h-1.1l.4-2.2h-1.6l-.5 2.2h-1.1Zm1.8-3.2h1.6l.6-2.8H213l-.5 2.8Zm7.7 3.2.4-2.2h-1v-1h1.2l.6-2.8H220v-1h1.7l.4-2.1h1.1l-.4 2h1.7l.4-2h1.2l-.5 2h1v1.1h-1.2l-.5 2.8h1.4v1h-1.7l-.4 2.2h-1.1l.4-2.2H222l-.5 2.2h-1.1Zm1.8-3.2h1.6l.6-2.8h-1.7l-.5 2.8Zm7.7 3.2.4-2.2h-1v-1h1.2l.6-2.8h-1.5v-1h1.7l.4-2.1h1.1l-.4 2h1.7l.4-2h1.2l-.5 2h1v1.1h-1.2l-.5 2.8h1.4v1h-1.6l-.5 2.2h-1.1l.4-2.2h-1.6l-.5 2.2h-1.1Zm1.8-3.2h1.6l.6-2.8H232l-.5 2.8Zm9.7-1.5v-1.8h1.8v1.8h-1.8Zm0 4.7v-1.8h1.8v1.8h-1.8Zm-59 19 .4-2.2h-1v-1h1.2l.6-2.8H182v-1h1.7l.4-2.1h1.1l-.4 2.1h1.7l.4-2.1h1.1l-.4 2.1h1v1h-1.2l-.6 2.8h1.5v1h-1.7l-.4 2.2H185l.5-2.2h-1.7l-.4 2.2h-1.1Zm1.7-3.2h1.7l.6-2.8h-1.7l-.6 2.8Zm10.8 5.4c-.9 0-1.6-.1-2.3-.4a5.2 5.2 0 0 1-3-3 5 5 0 0 1-.4-2.2c0-.9.1-1.7.4-2.4a5.3 5.3 0 0 1 3-3 7 7 0 0 1 2.5-.5c1 0 2 .2 2.8.6.7.4 1.3 1 1.8 1.7.4.8.6 1.6.6 2.6 0 .8 0 1.4-.3 2a3 3 0 0 1-1 1.2c-.3.3-.7.5-1.3.5-.5 0-.9-.2-1.2-.5-.3-.2-.4-.7-.5-1.2l.4-.1c-.2.6-.5 1-.9 1.3-.4.3-.8.5-1.3.5a2 2 0 0 1-1.7-.7 3 3 0 0 1-.5-1.8c0-.6 0-1.2.3-1.7s.6-.8 1-1.1c.5-.3 1-.4 1.5-.4s.9 0 1.1.3c.3.2.6.6.7 1h-.3l.3-1.2h1.2l-.6 3.1a8.8 8.8 0 0 0 0 .7l.1.6.5.2c.3 0 .6-.1.8-.3l.5-1 .2-1.4a4 4 0 0 0-.5-2c-.3-.6-.8-1-1.5-1.4a5 5 0 0 0-2.2-.5c-1 0-1.8.2-2.5.6-.7.4-1.3 1-1.7 1.7-.4.7-.6 1.6-.6 2.6s.2 1.7.6 2.4c.4.7.9 1.3 1.6 1.6a5 5 0 0 0 2.4.6c.7 0 1.3-.1 1.8-.3a4 4 0 0 0 1.4-.8l.5.9c-.4.4-1 .7-1.6.9-.6.2-1.3.3-2.1.3Zm-.5-4c.3 0 .6 0 1-.3.2-.1.4-.4.5-.8.2-.3.3-.8.3-1.2 0-.5-.1-.8-.3-1-.2-.2-.5-.3-.9-.3-.3 0-.6 0-.9.3-.3.2-.5.4-.6.8a2 2 0 0 0-.3 1.1c0 .5.1.8.3 1 .2.3.5.4 1 .4Zm7 1.8.4-2.2h-1v-1h1.2l.6-2.8H201v-1h1.7l.4-2.1h1.1l-.4 2.1h1.7l.4-2.1h1.1l-.4 2.1h1v1h-1.2l-.6 2.8h1.5v1h-1.7l-.4 2.2h-1.1l.4-2.2h-1.7l-.4 2.2h-1.1Zm1.8-3.2h1.6l.6-2.8h-1.7l-.5 2.8Zm7.7 3.2.4-2.2h-1v-1h1.2l.6-2.8h-1.5v-1h1.7l.4-2.1h1.1l-.4 2.1h1.7l.4-2.1h1.2l-.5 2.1h1v1h-1.2l-.5 2.8h1.4v1h-1.7l-.4 2.2h-1.1l.4-2.2h-1.6l-.5 2.2h-1.1Zm1.8-3.2h1.6l.6-2.8H213l-.5 2.8Zm9.7-1.5v-1.8h1.8v1.8h-1.8Zm0 4.7v-1.8h1.8v1.8h-1.8Zm-28.6 19v-1.8h1.9v1.9h-1.9Zm7.6 0 .4-2.2h-1v-1h1.2l.6-2.7H201V339h1.7l.4-2.1h1.1l-.4 2.1h1.7l.4-2.1h1.1l-.4 2.1h1v1h-1.2l-.6 2.8h1.5v1h-1.7l-.4 2.3h-1.1l.4-2.3h-1.7l-.4 2.3h-1.1Zm1.8-3.2h1.6l.6-2.7h-1.7l-.5 2.7Zm-1.8 22.2.4-2.2h-1v-1h1.2l.6-2.7H201v-1h1.7l.4-2.2h1.1l-.4 2.1h1.7l.4-2.1h1.1l-.4 2.1h1v1h-1.2l-.6 2.8h1.5v1h-1.7l-.4 2.3h-1.1l.4-2.3h-1.7l-.4 2.3h-1.1Zm1.8-3.2h1.6l.6-2.7h-1.7l-.5 2.7Zm.1 17.5v-1.8h1.9v1.8h-1.9Zm0 4.8v-1.8h1.9v1.8h-1.9Z" fill="#000"/></svg>