<svg width="400" height="400" fill="none" xmlns="http://www.w3.org/2000/svg"><path d="M36.4 25.6v-1.8h1.8v1.8h-1.8Zm14.8.2-1.1-.6-1-.8h.4c-.4.5-1 .8-1.4 1a4.4 4.4 0 0 1-3.4 0c-.5-.1-1-.4-1.2-.8-.2-.4-.4-.8-.4-1.3 0-.6.2-1 .6-1.5.3-.4.8-.8 1.4-1.2l.4-.2-.2.3-.8-1.1a2 2 0 0 1 0-2.2c.2-.3.5-.6.9-.8.4-.2.8-.3 1.4-.3.6 0 1.2.2 1.6.6.4.4.6.8.6 1.5a2.2 2.2 0 0 1-.8 1.7 6 6 0 0 1-1.1.8v-.4l2.3 2.4H49l.5-1.2.2-1.6h1.4c0 .8-.2 1.4-.4 2-.2.7-.4 1.3-.8 1.7v-.4a4.7 4.7 0 0 0 1.8 1.2l-.6 1.2Zm-4.7-1.3a2.6 2.6 0 0 0 2-1v.4l-2.7-2.7h.6l-.3.2a5 5 0 0 0-.8.5 2 2 0 0 0-.4.6l-.2.7c0 .4.2.7.5 1 .3.2.7.3 1.3.3Zm.3-7c-.4 0-.6 0-.8.2a1 1 0 0 0-.3.8v.5l.3.4.6.7h-.4l1.2-.8c.2-.3.4-.6.4-.9a1 1 0 0 0-.3-.7 1 1 0 0 0-.7-.2Zm14.3 8.3-1.1-.6-1-.8h.3c-.4.5-.8.8-1.4 1a3 3 0 0 1-1.7.4c-.6 0-1.2-.1-1.7-.3a2 2 0 0 1-1.1-.9 2 2 0 0 1-.4-1.3c0-.6.2-1 .5-1.5l1.4-1.2.5-.2-.3.3-.8-1.1a2 2 0 0 1 0-2.2l1-.8c.3-.2.8-.3 1.3-.3.7 0 1.2.2 1.7.6.4.4.6.8.6 1.5a2.2 2.2 0 0 1-.8 1.7 6 6 0 0 1-1.2.8v-.4l2.4 2.4h-.4l.5-1.2c.2-.5.2-1 .3-1.6H61a6 6 0 0 1-.3 2c-.2.7-.5 1.3-.8 1.7v-.4a4.7 4.7 0 0 0 1.8 1.2l-.6 1.2Zm-4.8-1.3a2.6 2.6 0 0 0 2.1-1v.4l-2.8-2.7h.7l-.4.2a5 5 0 0 0-.7.5 2 2 0 0 0-.4.6l-.2.7c0 .4.2.7.5 1 .2.2.7.3 1.2.3Zm.3-7c-.3 0-.6 0-.8.2a1 1 0 0 0-.3.8l.1.5.3.4.6.7H56l1.1-.8c.3-.3.4-.6.4-.9 0-.3 0-.5-.3-.7a1 1 0 0 0-.7-.2ZM71 25.8l-1.2-.6-1-.8h.4c-.4.5-.9.8-1.4 1-.5.3-1.1.4-1.7.4-.7 0-1.2-.1-1.7-.3-.5-.2-.9-.5-1.2-.9-.2-.4-.3-.8-.3-1.3 0-.6.1-1 .5-1.5.3-.4.8-.8 1.4-1.2l.5-.2-.3.3-.8-1.1a2 2 0 0 1 0-2.2 2 2 0 0 1 1-.8c.3-.2.8-.3 1.3-.3.6 0 1.2.2 1.6.6.4.4.7.8.7 1.5a2.2 2.2 0 0 1-.9 1.7 6 6 0 0 1-1.1.8v-.4l2.3 2.4h-.3l.5-1.2.2-1.6H71c0 .8-.2 1.4-.4 2-.2.7-.4 1.3-.8 1.7v-.4a4.7 4.7 0 0 0 1.8 1.2l-.5 1.2Zm-4.8-1.3a2.6 2.6 0 0 0 2-1v.4l-2.7-2.7h.7l-.4.2a5 5 0 0 0-.8.5 2 2 0 0 0-.4.6l-.1.7c0 .4.1.7.4 1 .3.2.7.3 1.3.3Zm.3-7c-.4 0-.6 0-.8.2a1 1 0 0 0-.3.8v.5l.4.4.5.7H66l1.2-.8c.2-.3.4-.6.4-.9a1 1 0 0 0-.3-.7 1 1 0 0 0-.7-.2Zm14.3 8.3-1.1-.6-1-.8h.3c-.4.5-.8.8-1.4 1a3 3 0 0 1-1.6.4c-.7 0-1.3-.1-1.8-.3-.5-.2-.8-.5-1-.9-.4-.4-.5-.8-.5-1.3 0-.6.2-1 .5-1.5l1.5-1.2.4-.2-.2.3-.9-1.1-.2-1c0-.5 0-.9.3-1.2.2-.3.5-.6.9-.8.4-.2.8-.3 1.3-.3.7 0 1.3.2 1.7.6.4.4.6.8.6 1.5a2.2 2.2 0 0 1-.8 1.7 6 6 0 0 1-1.1.8v-.4L79 23h-.4l.6-1.2.2-1.6h1.3a6 6 0 0 1-.3 2c-.2.7-.5 1.3-.8 1.7v-.4a4.7 4.7 0 0 0 1.8 1.2l-.6 1.2ZM76 24.5a2.6 2.6 0 0 0 2.1-1v.4l-2.7-2.7h.6l-.4.2a5 5 0 0 0-.7.5 2 2 0 0 0-.4.6l-.2.7c0 .4.2.7.5 1 .3.2.7.3 1.2.3Zm.3-7c-.3 0-.6 0-.8.2a1 1 0 0 0-.3.8l.1.5.3.4.6.7h-.4l1.2-.8.3-.9c0-.3 0-.5-.2-.7a1 1 0 0 0-.8-.2Zm14.4 8.3-1.2-.6-1-.8h.4c-.4.5-.9.8-1.4 1a3 3 0 0 1-1.7.4c-.6 0-1.2-.1-1.7-.3a2 2 0 0 1-1.1-.9 2 2 0 0 1-.4-1.3c0-.6.2-1 .5-1.5.3-.4.8-.8 1.4-1.2l.5-.2-.3.3-.8-1.1a2 2 0 0 1 0-2.2 2 2 0 0 1 1-.8c.3-.2.8-.3 1.3-.3.7 0 1.2.2 1.6.6.5.4.7.8.7 1.5a2.2 2.2 0 0 1-.8 1.7 6 6 0 0 1-1.2.8v-.4l2.3 2.4h-.3l.5-1.2.2-1.6h1.4a6 6 0 0 1-.3 2c-.2.7-.5 1.3-.8 1.7v-.4a4.7 4.7 0 0 0 1.7 1.2l-.5 1.2Zm-4.8-1.3a2.6 2.6 0 0 0 2-1v.4l-2.7-2.7h.7l-.4.2a5 5 0 0 0-.7.5 2 2 0 0 0-.5.6l-.1.7c0 .4.1.7.4 1 .3.2.8.3 1.3.3Zm.3-7c-.3 0-.6 0-.8.2a1 1 0 0 0-.3.8v.5l.4.4.5.7h-.4l1.2-.8c.3-.3.4-.6.4-.9a1 1 0 0 0-.3-.7 1 1 0 0 0-.7-.2Zm9.8 9.6v-1.7l.2.3c-.6 0-1.2 0-1.8-.3-.5-.1-1-.4-1.4-.7l.5-1.3a4.8 4.8 0 0 0 3 1c.6 0 1-.2 1.4-.4.3-.3.4-.5.4-.9 0-.3 0-.5-.3-.7-.2-.2-.6-.3-1-.4l-1.5-.3c-.8-.2-1.3-.5-1.7-.9-.4-.4-.6-1-.6-1.6 0-.5.1-1 .4-1.4.2-.4.6-.7 1-1l1.6-.4-.3.2V15h1.3v1.6l-.2-.2c.5 0 1 .1 1.4.3.5.2 1 .4 1.2.8l-.5 1.2-1-.7a4 4 0 0 0-1.5-.2c-.6 0-1 .1-1.3.4-.4.2-.5.5-.5 1 0 .2 0 .5.3.7.2.2.5.3 1 .4l1.4.3c.8.2 1.4.5 1.8.9.4.3.6.9.6 1.5 0 .5 0 1-.3 1.3l-1 1-1.6.4.2-.3v1.7H96ZM41.4 45.5l-1.2-.6-1-.7h.4l-1.4 1c-.5.2-1 .3-1.7.3s-1.2-.1-1.7-.3a2 2 0 0 1-1.1-.9c-.3-.3-.4-.8-.4-1.3 0-.6.1-1 .5-1.5.3-.4.8-.8 1.4-1.2l.5-.2-.3.3-.8-1-.3-1.2c0-.4.1-.8.3-1 .2-.4.5-.7 1-.9l1.3-.2c.7 0 1.2.2 1.6.5.5.4.7.9.7 1.5a2.2 2.2 0 0 1-.9 1.7 6 6 0 0 1-1 .8v-.3l2.2 2.3h-.3l.5-1.2.2-1.5h1.4a7 7 0 0 1-.3 2l-.8 1.7v-.4a4.7 4.7 0 0 0 1.7 1.1l-.5 1.2Zm-4.8-1.3a2.6 2.6 0 0 0 2-1v.5L36 40.9h.7l-.4.2a5 5 0 0 0-.7.5 2 2 0 0 0-.5.6l-.1.7c0 .4.1.8.4 1 .3.2.7.3 1.3.3Zm.3-7c-.3 0-.6 0-.8.3a1 1 0 0 0-.3.7v.5l.4.5.5.6h-.4l1.2-.8c.3-.3.4-.5.4-.9a1 1 0 0 0-.3-.7 1 1 0 0 0-.7-.2Zm14.3 8.3a8.3 8.3 0 0 1-2.1-1.3h.4l-1.4 1a5 5 0 0 1-3.5 0c-.4-.2-.8-.5-1-.9-.3-.3-.5-.8-.5-1.3 0-.6.2-1 .6-1.5.3-.4.8-.8 1.4-1.2l.4-.2-.2.3c-.4-.4-.7-.7-.8-1l-.3-1.2c0-.4 0-.8.3-1 .2-.4.5-.7.9-.9l1.4-.2c.6 0 1.2.2 1.6.5.4.4.6.9.6 1.5a2.2 2.2 0 0 1-.8 1.7 6 6 0 0 1-1.1.8v-.3l2.3 2.3H49l.5-1.2.2-1.5h1.4c0 .7-.2 1.3-.4 2-.2.6-.4 1.2-.8 1.7v-.4a4.7 4.7 0 0 0 1.8 1.1l-.6 1.2Zm-4.7-1.3a2.6 2.6 0 0 0 2-1v.5l-2.7-2.8h.6l-.3.2a5 5 0 0 0-.8.5 2 2 0 0 0-.4.6l-.2.7c0 .4.2.8.5 1 .3.2.7.3 1.3.3Zm.3-7c-.4 0-.6 0-.8.3a1 1 0 0 0-.3.7v.5l.3.5.6.6h-.4l1.2-.8c.2-.3.4-.5.4-.9a1 1 0 0 0-.3-.7 1 1 0 0 0-.7-.2Zm14.3 8.3c-.4-.1-.8-.3-1.1-.6l-1-.7h.3a4.1 4.1 0 0 1-3 1.3c-.7 0-1.3-.1-1.8-.3a2 2 0 0 1-1.1-.9c-.3-.3-.4-.8-.4-1.3 0-.6.2-1 .5-1.5l1.4-1.2.5-.2-.3.3-.8-1-.3-1.2c0-.4.1-.8.4-1 .2-.4.5-.7.8-.9l1.4-.2c.7 0 1.2.2 1.7.5.4.4.6.9.6 1.5a2.2 2.2 0 0 1-.8 1.7 6 6 0 0 1-1.2.8v-.3l2.4 2.3h-.4l.5-1.2.3-1.5H61a7 7 0 0 1-.3 2l-.8 1.7v-.4a4.7 4.7 0 0 0 1.8 1.1l-.6 1.2Zm-4.8-1.3a2.6 2.6 0 0 0 2.1-1v.5l-2.8-2.8h.7l-.4.2a5 5 0 0 0-.7.5 2 2 0 0 0-.4.6l-.2.7c0 .4.2.8.5 1 .2.2.7.3 1.2.3Zm.3-7c-.3 0-.6 0-.8.3a1 1 0 0 0-.3.7l.1.5.3.5.6.6H56l1.1-.8c.3-.3.4-.5.4-.9 0-.3 0-.5-.3-.7a1 1 0 0 0-.7-.2Zm6.6 8.2 3-3.8v.8l-2.8-3.6h1.9l1.9 2.4h-.6l1.9-2.4h1.9l-2.9 3.6v-.8l3 3.8h-1.9l-2-2.6h.6l-2 2.6h-2Zm13 1.5v-1.7l.3.2c-.6 0-1.2 0-1.8-.2l-1.4-.8.5-1.3a4.8 4.8 0 0 0 3 1c.6 0 1-.2 1.3-.4.3-.2.5-.5.5-.9a1 1 0 0 0-.3-.7l-1.1-.4-1.4-.3c-.8-.2-1.4-.4-1.8-.9-.3-.4-.5-1-.5-1.6 0-.5 0-1 .3-1.3.3-.5.6-.8 1.1-1 .4-.3 1-.4 1.6-.5l-.3.2v-1.6h1.3v1.6l-.3-.2 1.5.3c.5.2.9.5 1.2.8l-.5 1.2c-.3-.3-.7-.5-1.1-.6a4 4 0 0 0-1.4-.3c-.6 0-1 .2-1.4.4-.3.2-.4.6-.4 1 0 .3 0 .5.3.7.2.2.5.3 1 .4l1.4.3c.8.2 1.4.5 1.8.9.4.4.6.9.6 1.5 0 .5-.1 1-.4 1.4a3 3 0 0 1-1 .9c-.4.2-1 .4-1.5.4l.2-.3V47h-1.3Zm14.5-1.4-1.2-.6-1-.7h.4l-1.4 1c-.5.2-1 .3-1.7.3-.6 0-1.2-.1-1.7-.3a2 2 0 0 1-1.1-.9c-.3-.3-.4-.8-.4-1.3 0-.6.2-1 .5-1.5.3-.4.8-.8 1.4-1.2l.5-.2-.3.3-.8-1-.3-1.2c0-.4.1-.8.3-1 .2-.4.5-.7 1-.9l1.3-.2c.7 0 1.2.2 1.6.5.5.4.7.9.7 1.5a2.2 2.2 0 0 1-.8 1.7 6 6 0 0 1-1.2.8v-.3l2.3 2.3h-.3l.5-1.2.2-1.5h1.4a7 7 0 0 1-.3 2l-.8 1.7v-.4a4.7 4.7 0 0 0 1.7 1.1l-.5 1.2Zm-4.8-1.3a2.6 2.6 0 0 0 2-1v.5l-2.7-2.8h.7l-.4.2a5 5 0 0 0-.7.5 2 2 0 0 0-.5.6l-.1.7c0 .4.1.8.4 1 .3.2.8.3 1.3.3Zm.3-7c-.3 0-.6 0-.8.3a1 1 0 0 0-.3.7v.5l.4.5.5.6h-.4l1.2-.8c.3-.3.4-.5.4-.9a1 1 0 0 0-.3-.7 1 1 0 0 0-.7-.2Zm14.3 8.3a8.3 8.3 0 0 1-2.1-1.3h.4l-1.4 1a5 5 0 0 1-3.5 0c-.4-.2-.8-.5-1-.9-.3-.3-.5-.8-.5-1.3 0-.6.2-1 .6-1.5.3-.4.8-.8 1.4-1.2l.4-.2-.2.3c-.4-.4-.7-.7-.8-1l-.3-1.2c0-.4 0-.8.3-1 .2-.4.5-.7.9-.9l1.4-.2c.6 0 1.2.2 1.6.5.4.4.6.9.6 1.5a2.2 2.2 0 0 1-.8 1.7 6 6 0 0 1-1.1.8v-.3l2.3 2.3h-.3l.5-1.2.2-1.5h1.4c0 .7-.2 1.3-.4 2-.2.6-.4 1.2-.8 1.7v-.4a4.7 4.7 0 0 0 1.8 1.1l-.6 1.2Zm-4.7-1.3a2.6 2.6 0 0 0 2-1v.5l-2.7-2.8h.6l-.3.2a5 5 0 0 0-.8.5 2 2 0 0 0-.4.6l-.1.7c0 .4.1.8.4 1 .3.2.7.3 1.3.3Zm.3-7c-.4 0-.6 0-.8.3a1 1 0 0 0-.3.7v.5l.4.5.5.6h-.4l1.2-.8c.2-.3.4-.5.4-.9a1 1 0 0 0-.3-.7 1 1 0 0 0-.7-.2Zm14.3 8.3c-.4-.1-.8-.3-1.1-.6l-1-.7h.3a4.4 4.4 0 0 1-3 1.3c-.7 0-1.3-.1-1.8-.3-.5-.2-.8-.5-1.1-.9-.3-.3-.4-.8-.4-1.3 0-.6.2-1 .5-1.5.4-.4.8-.8 1.5-1.2l.4-.2-.3.3-.8-1-.3-1.2c0-.4.1-.8.4-1 .2-.4.5-.7.9-.9l1.3-.2c.7 0 1.2.2 1.7.5.4.4.6.9.6 1.5a2.2 2.2 0 0 1-.8 1.7 6 6 0 0 1-1.2.8v-.3l2.4 2.3h-.4l.5-1.2.3-1.5h1.3a7 7 0 0 1-.3 2l-.8 1.7v-.4a4.7 4.7 0 0 0 1.8 1.1l-.6 1.2Zm-4.8-1.3a2.6 2.6 0 0 0 2.1-1v.5l-2.8-2.8h.7l-.4.2a5 5 0 0 0-.7.5 2 2 0 0 0-.4.6l-.2.7c0 .4.2.8.5 1 .3.2.7.3 1.2.3Zm.3-7c-.3 0-.6 0-.8.3a1 1 0 0 0-.3.7l.1.5.3.5.6.6h-.4l1.1-.8c.3-.3.4-.5.4-.9 0-.3 0-.5-.3-.7a1 1 0 0 0-.7-.2Zm14.4 8.3-1.2-.6-1-.7h.4l-1.4 1c-.5.2-1.1.3-1.7.3-.7 0-1.2-.1-1.7-.3a2 2 0 0 1-1.1-.9c-.3-.3-.4-.8-.4-1.3 0-.6.1-1 .5-1.5.3-.4.8-.8 1.4-1.2l.5-.2-.3.3-.8-1-.3-1.2c0-.4.1-.8.3-1 .2-.4.5-.7 1-.9l1.3-.2c.7 0 1.2.2 1.6.5.5.4.7.9.7 1.5a2.2 2.2 0 0 1-.9 1.7 6 6 0 0 1-1.1.8v-.3l2.3 2.3h-.3l.5-1.2.2-1.5h1.4c0 .7-.2 1.3-.4 2-.2.6-.4 1.2-.8 1.7v-.4a4.7 4.7 0 0 0 1.8 1.1l-.5 1.2Zm-4.8-1.3a2.6 2.6 0 0 0 2-1v.5l-2.7-2.8h.7l-.4.2a5 5 0 0 0-.8.5 2 2 0 0 0-.4.6l-.1.7c0 .4.1.8.4 1 .3.2.7.3 1.3.3Zm.3-7c-.4 0-.6 0-.8.3a1 1 0 0 0-.3.7v.5l.4.5.5.6h-.4l1.2-.8c.3-.3.4-.5.4-.9a1 1 0 0 0-.3-.7 1 1 0 0 0-.7-.2Zm14.3 8.3c-.4-.1-.8-.3-1.1-.6l-1-.7h.3l-1.3 1a5 5 0 0 1-3.5 0c-.5-.2-.8-.5-1-.9-.3-.3-.5-.8-.5-1.3 0-.6.2-1 .5-1.5l1.5-1.2.4-.2-.2.3-.9-1-.2-1.2c0-.4 0-.8.3-1 .2-.4.5-.7.9-.9l1.3-.2c.7 0 1.3.2 1.7.5.4.4.6.9.6 1.5a2.2 2.2 0 0 1-.8 1.7 6 6 0 0 1-1.1.8v-.3l2.3 2.3h-.4c.3-.3.4-.7.6-1.2l.2-1.5h1.3c0 .7 0 1.3-.3 2l-.8 1.7v-.4a4.7 4.7 0 0 0 1.8 1.1l-.6 1.2Zm-4.7-1.3a2.6 2.6 0 0 0 2-1v.5l-2.7-2.8h.6l-.4.2a5 5 0 0 0-.7.5 2 2 0 0 0-.4.6l-.2.7c0 .4.2.8.5 1 .3.2.7.3 1.3.3Zm.2-7c-.3 0-.6 0-.8.3a1 1 0 0 0-.3.7l.1.5.3.5.6.6h-.4l1.2-.8c.2-.3.3-.5.3-.9 0-.3 0-.5-.2-.7a1 1 0 0 0-.8-.2Zm14.4 8.3-1.2-.6-1-.7h.4l-1.4 1c-.5.2-1 .3-1.7.3-.6 0-1.2-.1-1.7-.3a2 2 0 0 1-1.1-.9c-.3-.3-.4-.8-.4-1.3 0-.6.2-1 .5-1.5l1.4-1.2.5-.2-.3.3-.8-1-.3-1.2c0-.4.1-.8.3-1 .3-.4.6-.7 1-.9l1.3-.2c.7 0 1.2.2 1.7.5.4.4.6.9.6 1.5a2.2 2.2 0 0 1-.8 1.7 6 6 0 0 1-1.2.8v-.3l2.3 2.3h-.3l.5-1.2.2-1.5h1.4a7 7 0 0 1-.3 2l-.8 1.7v-.4a4.7 4.7 0 0 0 1.7 1.1l-.5 1.2Zm-4.8-1.3a2.6 2.6 0 0 0 2-1v.5l-2.7-2.8h.7l-.4.2a5 5 0 0 0-.7.5 2 2 0 0 0-.5.6l-.1.7c0 .4.1.8.4 1 .3.2.8.3 1.3.3Zm.3-7c-.3 0-.6 0-.8.3a1 1 0 0 0-.3.7l.1.5.3.5.5.6h-.3l1.1-.8c.3-.3.4-.5.4-.9 0-.3 0-.5-.3-.7a1 1 0 0 0-.7-.2Zm14.3 8.3a8.3 8.3 0 0 1-2.1-1.3h.4a4.4 4.4 0 0 1-3.1 1.3 4 4 0 0 1-1.7-.3c-.5-.2-1-.5-1.2-.9-.2-.3-.4-.8-.4-1.3 0-.6.2-1 .6-1.5.3-.4.8-.8 1.4-1.2l.4-.2-.2.3c-.4-.4-.7-.7-.8-1l-.3-1.2c0-.4 0-.8.3-1 .2-.4.5-.7.9-.9l1.4-.2c.6 0 1.2.2 1.6.5.4.4.6.9.6 1.5a2.2 2.2 0 0 1-.8 1.7 6 6 0 0 1-1.1.8v-.3l2.3 2.3h-.3l.5-1.2.2-1.5h1.4c0 .7-.2 1.3-.4 2-.2.6-.4 1.2-.8 1.7v-.4a4.7 4.7 0 0 0 1.8 1.1l-.6 1.2Zm-4.7-1.3a2.6 2.6 0 0 0 2-1v.5l-2.7-2.8h.6l-.3.2a5 5 0 0 0-.8.5 2 2 0 0 0-.4.6l-.1.7c0 .4.1.8.4 1 .3.2.7.3 1.3.3Zm.3-7c-.4 0-.6 0-.8.3a1 1 0 0 0-.3.7v.5l.4.5.5.6h-.4l1.2-.8c.2-.3.4-.5.4-.9a1 1 0 0 0-.3-.7 1 1 0 0 0-.7-.2Zm14.3 8.3c-.4-.1-.8-.3-1.1-.6l-1-.7h.3a4.4 4.4 0 0 1-3 1.3c-.7 0-1.3-.1-1.8-.3-.5-.2-.8-.5-1.1-.9-.3-.3-.4-.8-.4-1.3 0-.6.2-1 .5-1.5.4-.4.8-.8 1.5-1.2l.4-.2-.2.3-.9-1-.3-1.2c0-.4.2-.8.4-1 .2-.4.5-.7.9-.9l1.3-.2c.7 0 1.2.2 1.7.5.4.4.6.9.6 1.5a2.2 2.2 0 0 1-.8 1.7 6 6 0 0 1-1.2.8v-.3l2.4 2.3h-.4l.5-1.2.3-1.5h1.3a7 7 0 0 1-.3 2l-.8 1.7v-.4a4.7 4.7 0 0 0 1.8 1.1l-.6 1.2Zm-4.8-1.3a2.6 2.6 0 0 0 2.1-1v.5l-2.8-2.8h.7l-.4.2a5 5 0 0 0-.7.5 2 2 0 0 0-.4.6l-.2.7c0 .4.2.8.5 1 .3.2.7.3 1.2.3Zm.3-7c-.3 0-.6 0-.8.3a1 1 0 0 0-.3.7l.1.5.3.5.6.6h-.4l1.1-.8c.3-.3.4-.5.4-.9 0-.3 0-.5-.3-.7a1 1 0 0 0-.7-.2Zm14.4 8.3-1.2-.6-1-.7h.4l-1.4 1c-.5.2-1.1.3-1.7.3-.7 0-1.2-.1-1.7-.3a2 2 0 0 1-1.1-.9c-.3-.3-.4-.8-.4-1.3 0-.6.1-1 .5-1.5.3-.4.8-.8 1.4-1.2l.5-.2-.3.3-.8-1-.3-1.2c0-.4.1-.8.3-1 .2-.4.5-.7 1-.9l1.3-.2c.7 0 1.2.2 1.6.5.5.4.7.9.7 1.5a2.2 2.2 0 0 1-.9 1.7 6 6 0 0 1-1 .8v-.3l2.2 2.3h-.3l.5-1.2.2-1.5h1.4c0 .7-.2 1.3-.3 2-.2.6-.5 1.2-.9 1.7v-.4a4.7 4.7 0 0 0 1.8 1.1l-.5 1.2Zm-4.8-1.3a2.6 2.6 0 0 0 2-1v.5l-2.7-2.8h.7l-.4.2a5 5 0 0 0-.7.5 2 2 0 0 0-.5.6l-.1.7c0 .4.1.8.4 1 .3.2.7.3 1.3.3Zm.3-7c-.3 0-.6 0-.8.3a1 1 0 0 0-.3.7v.5l.4.5.5.6h-.4l1.2-.8c.3-.3.4-.5.4-.9a1 1 0 0 0-.3-.7 1 1 0 0 0-.7-.2Zm6.6 8.2 3-3.8v.8l-2.9-3.6h2l1.8 2.4h-.6l2-2.4h1.8l-2.8 3.6v-.8l3 3.8h-2l-2-2.6h.6l-2 2.6h-2ZM41.4 65.2l-1.2-.5-1-.8h.4l-1.4 1c-.5.2-1 .3-1.7.3s-1.2 0-1.7-.3a2 2 0 0 1-1.1-.9c-.3-.3-.4-.8-.4-1.3s.1-1 .5-1.5a4 4 0 0 1 1.4-1.1l.5-.3-.3.3-.8-1-.3-1.1c0-.5.1-.8.3-1.2.2-.3.5-.6 1-.7.3-.2.8-.3 1.3-.3.7 0 1.2.2 1.6.5.5.4.7.9.7 1.5a2.2 2.2 0 0 1-.9 1.7 6 6 0 0 1-1 .8V60l2.2 2.3h-.3l.5-1.2.2-1.5h1.4c0 .7-.1 1.4-.3 2l-.8 1.7v-.4a4.7 4.7 0 0 0 1.7 1.1l-.5 1.2ZM36.6 64a2.6 2.6 0 0 0 2-1v.4L36 60.6h.7l-.4.2a5 5 0 0 0-.7.6 2 2 0 0 0-.5.6l-.1.6c0 .5.1.8.4 1 .3.2.7.4 1.3.4Zm.3-7.1c-.3 0-.6 0-.8.3a1 1 0 0 0-.3.7v.5l.4.5.5.6h-.4c.6-.3 1-.5 1.2-.8.3-.2.4-.5.4-.8 0-.3-.1-.6-.3-.7a1 1 0 0 0-.7-.3Zm14.3 8.3-1.1-.5-1-.8h.4l-1.4 1a5 5 0 0 1-1.7.3c-.7 0-1.3 0-1.8-.3-.4-.2-.8-.5-1-.9-.3-.3-.5-.8-.5-1.3s.2-1 .6-1.5a4 4 0 0 1 1.4-1.1l.4-.3-.2.3c-.4-.4-.7-.7-.8-1l-.3-1.1c0-.5 0-.8.3-1.2.2-.3.5-.6.9-.7.4-.2.8-.3 1.4-.3.6 0 1.2.2 1.6.5.4.4.6.9.6 1.5a2.2 2.2 0 0 1-.8 1.7 6 6 0 0 1-1.1.8V60l2.3 2.3H49l.5-1.2.2-1.5h1.4c0 .7-.2 1.4-.4 2-.2.6-.4 1.2-.8 1.7v-.4a4.7 4.7 0 0 0 1.8 1.1l-.6 1.2ZM46.5 64a2.6 2.6 0 0 0 2-1v.4l-2.7-2.8h.6l-.3.2a5 5 0 0 0-.8.6 2 2 0 0 0-.4.6l-.2.6c0 .5.2.8.5 1 .3.2.7.4 1.3.4Zm.3-7.1c-.4 0-.6 0-.8.3a1 1 0 0 0-.3.7v.5l.3.5.6.6h-.4c.5-.3 1-.5 1.2-.8.2-.2.4-.5.4-.8 0-.3-.1-.6-.3-.7a1 1 0 0 0-.7-.3Zm14.3 8.3-1.1-.5-1-.8h.3a4.1 4.1 0 0 1-3 1.3c-.7 0-1.3 0-1.8-.3a2 2 0 0 1-1.1-.9c-.3-.3-.4-.8-.4-1.3s.2-1 .5-1.5c.4-.4.8-.8 1.4-1.1l.5-.3-.3.3-.8-1L54 58c0-.5.1-.8.4-1.2.2-.3.5-.6.8-.7.4-.2.9-.3 1.4-.3.7 0 1.2.2 1.7.5.4.4.6.9.6 1.5a2.2 2.2 0 0 1-.8 1.7 6 6 0 0 1-1.2.8V60l2.4 2.3h-.4l.5-1.2.3-1.5H61c0 .7-.1 1.4-.3 2l-.8 1.7v-.4a4.7 4.7 0 0 0 1.8 1.1l-.6 1.2ZM56.3 64a2.6 2.6 0 0 0 2.1-1v.4l-2.8-2.8h.7l-.4.2a5 5 0 0 0-.7.6 2 2 0 0 0-.4.6l-.2.6c0 .5.2.8.5 1 .2.2.7.4 1.2.4Zm.3-7.1c-.3 0-.6 0-.8.3a1 1 0 0 0-.3.7l.1.5c0 .2.2.3.3.5l.6.6H56c.5-.3.9-.5 1.1-.8.3-.2.4-.5.4-.8 0-.3 0-.6-.3-.7a1 1 0 0 0-.7-.3Zm48.8 8.1v-1.7h1.8V65h-1.8Zm9.9 0v-1.7h1.8V65h-1.8Zm9.8-4.7v-1.8h1.9v1.8h-2Zm0 4.8v-1.8h1.9V65h-2Zm10.7 1.7-.7-.5.6-.8.2-.8.4.4H135v-1.8h1.8v1.2c0 .4 0 .8-.2 1.2l-.8 1.1Zm-.8-6.5v-1.8h1.8v1.8H135Zm6.3 4.7 3.8-5v.8l-3.7-4.9h2l2.6 3.7h-.5l2.6-3.7h2l-3.7 4.9V60l3.8 5h-2l-2.7-3.8h.5l-2.7 3.8h-2Zm18.4.2-1.1-.5-1-.8h.3a4.4 4.4 0 0 1-3 1.3c-.7 0-1.3 0-1.8-.3-.5-.2-.8-.5-1.1-.9-.3-.3-.4-.8-.4-1.3s.2-1 .5-1.5c.4-.4.8-.8 1.5-1.1l.4-.3-.2.3-.9-1-.3-1.1c0-.5.2-.8.4-1.2.2-.3.5-.6.9-.7a3.1 3.1 0 0 1 3 .2c.4.4.6.9.6 1.5a2.2 2.2 0 0 1-.8 1.7 6 6 0 0 1-1.2.8V60l2.4 2.3h-.4l.5-1.2.3-1.5h1.3c0 .7-.1 1.4-.3 2l-.8 1.7v-.4a4.7 4.7 0 0 0 1.8 1.1l-.6 1.2ZM155 64a2.6 2.6 0 0 0 2.1-1v.4l-2.8-2.8h.7l-.4.2a5 5 0 0 0-.7.6 2 2 0 0 0-.4.6l-.2.6c0 .5.2.8.5 1 .3.2.7.4 1.2.4Zm.3-7.1c-.3 0-.6 0-.8.3a1 1 0 0 0-.3.7l.1.5c0 .2.2.3.3.5l.6.6h-.4c.5-.3.9-.5 1.1-.8.3-.2.4-.5.4-.8 0-.3 0-.6-.3-.7a1 1 0 0 0-.7-.3Zm14.3 8.3-1.2-.5-1-.8h.4l-1.4 1c-.5.2-1.1.3-1.7.3-.7 0-1.2 0-1.7-.3a2 2 0 0 1-1.1-.9c-.3-.3-.4-.8-.4-1.3s.1-1 .5-1.5a4 4 0 0 1 1.4-1.1l.5-.3-.3.3-.8-1-.3-1.1c0-.5.1-.8.3-1.2.2-.3.5-.6 1-.7.3-.2.8-.3 1.3-.3.7 0 1.2.2 1.6.5.5.4.7.9.7 1.5a2.2 2.2 0 0 1-.9 1.7 6 6 0 0 1-1 .8V60l2.2 2.3h-.3l.5-1.2.2-1.5h1.4c0 .7-.2 1.4-.3 2-.2.6-.5 1.2-.9 1.7v-.4a4.7 4.7 0 0 0 1.8 1.1l-.5 1.2Zm-4.8-1.2a2.6 2.6 0 0 0 2-1v.4l-2.7-2.8h.7l-.4.2a5 5 0 0 0-.7.6 2 2 0 0 0-.5.6l-.1.6c0 .5.1.8.4 1 .3.2.7.4 1.3.4Zm.3-7.1c-.3 0-.6 0-.8.3a1 1 0 0 0-.3.7v.5l.4.5.5.6h-.4c.6-.3 1-.5 1.2-.8.3-.2.4-.5.4-.8 0-.3-.1-.6-.3-.7a1 1 0 0 0-.7-.3Zm14.3 8.3-1.1-.5-1-.8h.3l-1.3 1a5 5 0 0 1-1.7.3c-.7 0-1.3 0-1.8-.3-.4-.2-.8-.5-1-.9-.3-.3-.5-.8-.5-1.3s.2-1 .5-1.5c.4-.4.9-.8 1.5-1.1l.4-.3-.2.3-.9-1-.2-1.1c0-.5 0-.8.3-1.2.2-.3.5-.6.9-.7.4-.2.8-.3 1.3-.3.7 0 1.3.2 1.7.5.4.4.6.9.6 1.5a2.2 2.2 0 0 1-.8 1.7 6 6 0 0 1-1.1.8V60l2.3 2.3h-.4c.3-.3.4-.7.6-1.2l.2-1.5h1.3c0 .7 0 1.4-.3 2l-.8 1.7v-.4A4.7 4.7 0 0 0 180 64l-.6 1.2Zm-4.7-1.2a2.6 2.6 0 0 0 2-1v.4l-2.7-2.8h.6l-.3.2a5 5 0 0 0-.8.6 2 2 0 0 0-.4.6l-.2.6c0 .5.2.8.5 1 .3.2.7.4 1.3.4Zm.2-7.1c-.3 0-.6 0-.8.3a1 1 0 0 0-.3.7l.1.5.3.5.6.6h-.4c.5-.3 1-.5 1.2-.8.2-.2.3-.5.3-.8 0-.3 0-.6-.2-.7a1 1 0 0 0-.8-.3Zm14.4 8.3-1.2-.5-1-.8h.4l-1.4 1c-.5.2-1 .3-1.7.3-.6 0-1.2 0-1.7-.3a2 2 0 0 1-1.1-.9c-.3-.3-.4-.8-.4-1.3s.2-1 .5-1.5c.4-.4.8-.8 1.4-1.1l.5-.3-.3.3-.8-1-.3-1.1c0-.5.1-.8.3-1.2.3-.3.6-.6 1-.7a3.1 3.1 0 0 1 3 .2c.4.4.6.9.6 1.5a2.2 2.2 0 0 1-.8 1.7 6 6 0 0 1-1.2.8V60l2.3 2.3h-.3l.5-1.2.2-1.5h1.4c0 .7-.1 1.4-.3 2l-.8 1.7v-.4a4.7 4.7 0 0 0 1.7 1.1l-.5 1.2Zm-4.8-1.2a2.6 2.6 0 0 0 2.1-1v.4l-2.8-2.8h.7l-.4.2a5 5 0 0 0-.7.6 2 2 0 0 0-.5.6l-.1.6c0 .5.1.8.4 1 .3.2.8.4 1.3.4Zm.3-7.1c-.3 0-.6 0-.8.3a1 1 0 0 0-.3.7l.1.5c0 .2.2.3.3.5l.5.6h-.3c.5-.3.9-.5 1.1-.8.3-.2.4-.5.4-.8 0-.3 0-.6-.3-.7a1 1 0 0 0-.7-.3Zm14.3 8.3-1-.5c-.5-.3-.8-.5-1-.8h.3l-1.4 1a5 5 0 0 1-1.7.3c-.7 0-1.3 0-1.7-.3-.5-.2-.9-.5-1.2-.9-.2-.3-.3-.8-.3-1.3s.1-1 .5-1.5a4 4 0 0 1 1.4-1.1l.4-.3-.2.3c-.4-.4-.7-.7-.8-1L192 58c0-.5 0-.8.3-1.2.2-.3.5-.6.9-.7.4-.2.8-.3 1.4-.3.6 0 1.2.2 1.6.5.4.4.7.9.7 1.5a2.2 2.2 0 0 1-.9 1.7 6 6 0 0 1-1.1.8V60l2.3 2.3h-.3l.5-1.2.2-1.5h1.4c0 .7-.2 1.4-.4 2-.2.6-.4 1.2-.8 1.7v-.4a4.7 4.7 0 0 0 1.8 1.1l-.6 1.2Zm-4.7-1.2a2.6 2.6 0 0 0 2-1v.4l-2.7-2.8h.7l-.4.2a5 5 0 0 0-.8.6 2 2 0 0 0-.4.6l-.1.6c0 .5.1.8.4 1 .3.2.7.4 1.3.4Zm.3-7.1c-.4 0-.6 0-.8.3a1 1 0 0 0-.3.7v.5l.4.5.5.6h-.4c.6-.3 1-.5 1.2-.8.2-.2.4-.5.4-.8 0-.3-.1-.6-.3-.7a1 1 0 0 0-.7-.3Zm14.3 8.3-1.1-.5-1-.8h.3a4.4 4.4 0 0 1-3 1.3c-.7 0-1.3 0-1.8-.3-.5-.2-.8-.5-1.1-.9-.3-.3-.4-.8-.4-1.3s.2-1 .5-1.5c.4-.4.9-.8 1.5-1.1l.4-.3-.2.3-.9-1-.3-1.1c0-.5.2-.8.4-1.2.2-.3.5-.6.9-.7.3-.2.8-.3 1.3-.3.7 0 1.3.2 1.7.5.4.4.6.9.6 1.5a2.2 2.2 0 0 1-.8 1.7 6 6 0 0 1-1.2.8V60l2.4 2.3h-.4c.3-.3.4-.7.5-1.2l.3-1.5h1.3c0 .7-.1 1.4-.3 2l-.8 1.7v-.4a4.7 4.7 0 0 0 1.8 1.1l-.6 1.2Zm-4.8-1.2a2.6 2.6 0 0 0 2.1-1v.4l-2.8-2.8h.7l-.4.2a5 5 0 0 0-.7.6 2 2 0 0 0-.4.6l-.2.6c0 .5.2.8.5 1 .3.2.7.4 1.2.4Zm.3-7.1c-.3 0-.6 0-.8.3a1 1 0 0 0-.3.7l.1.5c0 .2.2.3.3.5l.6.6h-.4c.5-.3 1-.5 1.1-.8.3-.2.4-.5.4-.8 0-.3 0-.6-.2-.7a1 1 0 0 0-.8-.3ZM33.6 84.8l3-3.7v.7l-2.8-3.6h1.9l1.9 2.5H37l1.9-2.5h1.9l-2.9 3.6V81l3 3.7H39l-2-2.6h.6l-2 2.6h-2Zm17.6.2-1.1-.6-1-.8h.4l-1.4 1a5 5 0 0 1-1.7.3c-.7 0-1.3 0-1.8-.3-.4-.2-.8-.5-1-.8-.3-.4-.5-.8-.5-1.3 0-.6.2-1.1.6-1.5.3-.5.8-.8 1.4-1.2l.4-.3-.2.3c-.4-.3-.7-.7-.8-1-.2-.4-.3-.7-.3-1.1 0-.4 0-.8.3-1.1.2-.4.5-.6.9-.8.4-.2.8-.3 1.4-.3.6 0 1.2.2 1.6.6.4.3.6.8.6 1.4a2.2 2.2 0 0 1-.8 1.8 6 6 0 0 1-1.1.7v-.3l2.3 2.4H49l.5-1.3.2-1.5h1.4c0 .7-.2 1.4-.4 2-.2.7-.4 1.2-.8 1.7v-.4a4.7 4.7 0 0 0 1.8 1.2l-.6 1.1Zm-4.7-1.3a2.6 2.6 0 0 0 2-1v.4l-2.7-2.8h.6l-.3.2a5 5 0 0 0-.8.6 2 2 0 0 0-.4.6l-.2.7c0 .4.2.7.5 1 .3.2.7.3 1.3.3Zm.3-7c-.4 0-.6 0-.8.2a1 1 0 0 0-.3.8v.4l.3.5.6.6h-.4c.5-.2 1-.5 1.2-.8.2-.2.4-.5.4-.8 0-.3-.1-.6-.3-.7a1 1 0 0 0-.7-.3ZM61.1 85l-1.1-.6-1-.8h.3c-.4.4-.8.8-1.4 1-.5.2-1 .3-1.7.3-.6 0-1.2 0-1.7-.3-.5-.2-.9-.5-1.1-.8a2 2 0 0 1-.4-1.3c0-.6.2-1.1.5-1.5.4-.5.8-.8 1.4-1.2l.5-.3-.3.3-.8-1c-.2-.4-.3-.7-.3-1.1 0-.4.1-.8.4-1.1.2-.4.5-.6.8-.8.4-.2.9-.3 1.4-.3.7 0 1.2.2 1.7.6.4.3.6.8.6 1.4a2.2 2.2 0 0 1-.8 1.8 6 6 0 0 1-1.2.7v-.3l2.4 2.4h-.4l.5-1.3.3-1.5H61a6.4 6.4 0 0 1-1.1 3.7v-.4a4.7 4.7 0 0 0 1.8 1.2l-.6 1.1Zm-4.8-1.3a2.6 2.6 0 0 0 2.1-1v.4l-2.8-2.8h.7l-.4.2a5 5 0 0 0-.7.6 2 2 0 0 0-.4.6l-.2.7c0 .4.2.7.5 1 .2.2.7.3 1.2.3Zm.3-7c-.3 0-.6 0-.8.2a1 1 0 0 0-.3.8l.1.4c0 .2.2.3.3.5l.6.6H56c.5-.2.9-.5 1.1-.8.3-.2.4-.5.4-.8 0-.3 0-.6-.3-.7a1 1 0 0 0-.7-.3Zm9.8 9.6v-1.7l.3.3c-.7 0-1.3-.1-1.8-.3-.6-.2-1-.4-1.5-.8l.5-1.3a4.8 4.8 0 0 0 3 1c.6 0 1-.1 1.4-.4.3-.2.4-.5.4-.8 0-.3 0-.5-.3-.7-.2-.2-.6-.3-1-.4l-1.4-.3c-.8-.2-1.4-.5-1.8-1-.4-.3-.6-.9-.6-1.5 0-.5.1-1 .4-1.4.2-.4.6-.7 1-1 .5-.2 1-.4 1.6-.4l-.2.2V74h1.3v1.7l-.3-.2c.5 0 1 .1 1.4.3.5.2 1 .4 1.3.7l-.5 1.3-1.2-.7A4 4 0 0 0 67 77c-.5 0-1 .1-1.3.3-.3.3-.5.6-.5 1 0 .3 0 .5.3.7.2.2.5.4 1 .5l1.4.3a3 3 0 0 1 1.8.8c.4.4.7 1 .7 1.6 0 .5-.2 1-.4 1.3l-1 1-1.6.4.3-.3v1.7h-1.3Zm117.9-1.5V83h1.8v1.8h-1.8Zm14.8.2-1-.6c-.5-.3-.8-.5-1-.8h.3a4.1 4.1 0 0 1-3 1.3c-.8 0-1.4 0-1.8-.3-.5-.2-.9-.5-1.2-.8-.2-.4-.3-.8-.3-1.3 0-.6.1-1.1.5-1.5.3-.5.8-.8 1.4-1.2l.4-.3-.2.3c-.4-.3-.7-.7-.8-1-.2-.4-.3-.7-.3-1.1 0-.4 0-.8.3-1.1.2-.4.5-.6.9-.8.4-.2.8-.3 1.4-.3.6 0 1.2.2 1.6.6.4.3.7.8.7 1.4a2.2 2.2 0 0 1-.9 1.8 6 6 0 0 1-1.1.7v-.3l2.3 2.4h-.3l.5-1.3.2-1.5h1.4c0 .7-.2 1.4-.4 2-.2.7-.4 1.2-.8 1.7v-.4a4.7 4.7 0 0 0 1.8 1.2l-.6 1.1Zm-4.7-1.3a2.6 2.6 0 0 0 2-1v.4l-2.7-2.8h.7l-.4.2a5 5 0 0 0-.8.6 2 2 0 0 0-.4.6l-.1.7c0 .4.1.7.4 1 .3.2.7.3 1.3.3Zm.3-7c-.4 0-.6 0-.8.2a1 1 0 0 0-.3.8v.4l.4.5.5.6h-.4c.6-.2 1-.5 1.2-.8.2-.2.4-.5.4-.8 0-.3-.1-.6-.3-.7a1 1 0 0 0-.7-.3ZM209 85l-1.1-.6-1-.8h.3a4.4 4.4 0 0 1-3 1.3c-.7 0-1.3 0-1.8-.3-.5-.2-.8-.5-1.1-.8a2 2 0 0 1-.4-1.3c0-.6.2-1.1.5-1.5.4-.5.9-.8 1.5-1.2l.4-.3-.2.3-.9-1c-.2-.4-.3-.7-.3-1.1 0-.4.2-.8.4-1.1.2-.4.5-.6.9-.8.3-.2.8-.3 1.3-.3.7 0 1.3.2 1.7.6.4.3.6.8.6 1.4a2.2 2.2 0 0 1-.8 1.8 6 6 0 0 1-1.2.7v-.3l2.4 2.4h-.4c.3-.4.4-.8.5-1.3l.3-1.5h1.3a6.4 6.4 0 0 1-1.1 3.7v-.4a4.7 4.7 0 0 0 1.8 1.2l-.6 1.1Zm-4.8-1.3a2.6 2.6 0 0 0 2.1-1v.4l-2.8-2.8h.7l-.4.2a5 5 0 0 0-.7.6 2 2 0 0 0-.4.6l-.2.7c0 .4.2.7.5 1 .3.2.7.3 1.2.3Zm.3-7c-.3 0-.6 0-.8.2a1 1 0 0 0-.3.8l.1.4c0 .2.2.3.3.5l.6.6h-.4c.5-.2 1-.5 1.1-.8.3-.2.4-.5.4-.8 0-.3 0-.6-.2-.7a1 1 0 0 0-.8-.3Zm14.4 8.3-1.2-.6-1-.8h.4a4.1 4.1 0 0 1-3 1.3c-.8 0-1.3 0-1.8-.3-.5-.2-.9-.5-1.1-.8a2 2 0 0 1-.4-1.3c0-.6.1-1.1.5-1.5.3-.5.8-.8 1.4-1.2l.5-.3-.3.3c-.4-.3-.6-.7-.8-1-.2-.4-.3-.7-.3-1.1 0-.4.1-.8.3-1.1.2-.4.5-.6 1-.8.3-.2.8-.3 1.3-.3.7 0 1.2.2 1.6.6.5.3.7.8.7 1.4a2.2 2.2 0 0 1-.9 1.8 6 6 0 0 1-1 .7v-.3l2.2 2.4h-.3l.5-1.3.2-1.5h1.4c0 .7-.1 1.4-.3 2-.2.7-.5 1.2-.9 1.7v-.4a4.7 4.7 0 0 0 1.8 1.2l-.5 1.1Zm-4.8-1.3a2.6 2.6 0 0 0 2-1v.4l-2.7-2.8h.7l-.4.2a5 5 0 0 0-.7.6 2 2 0 0 0-.5.6l-.1.7c0 .4.1.7.4 1 .3.2.7.3 1.3.3Zm.3-7c-.3 0-.6 0-.8.2a1 1 0 0 0-.3.8v.4l.4.5.5.6h-.4c.6-.2 1-.5 1.2-.8.3-.2.4-.5.4-.8 0-.3-.1-.6-.3-.7a1 1 0 0 0-.7-.3Zm14.3 8.3-1.1-.6-1-.8h.3c-.3.4-.8.8-1.3 1a5 5 0 0 1-1.7.3c-.7 0-1.3 0-1.8-.3-.4-.2-.8-.5-1-.8-.3-.4-.5-.8-.5-1.3 0-.6.2-1.1.6-1.5.3-.5.8-.8 1.4-1.2l.4-.3-.2.3-.9-1-.2-1.1c0-.4 0-.8.3-1.1.2-.4.5-.6.9-.8.4-.2.8-.3 1.3-.3.7 0 1.3.2 1.7.6.4.3.6.8.6 1.4a2.2 2.2 0 0 1-.8 1.8 6 6 0 0 1-1.1.7v-.3l2.3 2.4h-.4c.3-.4.4-.8.6-1.3l.2-1.5h1.4c0 .7-.2 1.4-.4 2-.2.7-.5 1.2-.8 1.7v-.4a4.7 4.7 0 0 0 1.8 1.2l-.6 1.1Zm-4.7-1.3a2.6 2.6 0 0 0 2-1v.4l-2.7-2.8h.6l-.3.2a5 5 0 0 0-.8.6 2 2 0 0 0-.4.6l-.2.7c0 .4.2.7.5 1 .3.2.7.3 1.3.3Zm.2-7c-.3 0-.5 0-.7.2a1 1 0 0 0-.3.8v.4l.3.5.6.6h-.4c.5-.2 1-.5 1.2-.8.2-.2.3-.5.3-.8 0-.3 0-.6-.2-.7a1 1 0 0 0-.8-.3Zm-178 27.8v-1.8h1.9v1.8h-1.9Zm14.9.2L60 104l-1-.8h.3a4.4 4.4 0 0 1-3 1.4c-.7 0-1.3-.1-1.8-.4-.5-.2-.9-.4-1.1-.8a2 2 0 0 1-.4-1.3c0-.6.2-1.1.5-1.5l1.4-1.2.5-.2-.3.3-.8-1.1-.3-1c0-.5.1-.9.4-1.2.2-.4.5-.6.8-.8.4-.2.9-.3 1.4-.3.7 0 1.2.2 1.7.6.4.3.6.8.6 1.4a2.2 2.2 0 0 1-.8 1.8 6 6 0 0 1-1.2.8v-.4l2.4 2.4h-.4l.5-1.3c.2-.4.2-1 .3-1.5H61a6.4 6.4 0 0 1-1.1 3.7v-.4a4.7 4.7 0 0 0 1.8 1.2l-.6 1.2Zm-4.8-1.3a2.6 2.6 0 0 0 2.1-1v.4l-2.8-2.8h.7l-.4.3a5 5 0 0 0-.7.5 2 2 0 0 0-.4.6l-.2.7c0 .4.2.7.5 1 .2.2.7.3 1.2.3Zm.3-7c-.3 0-.6 0-.8.2a1 1 0 0 0-.3.8l.1.4a17.3 17.3 0 0 0 .8 1l-.3.2 1.1-.8c.3-.3.4-.6.4-.9 0-.3 0-.5-.3-.7a1 1 0 0 0-.7-.3Zm14.4 8.3-1.2-.6-1-.8h.4a4.4 4.4 0 0 1-3.1 1.4 3 3 0 0 1-1.7-.4c-.5-.2-.9-.4-1.2-.8-.2-.4-.3-.8-.3-1.3 0-.6.1-1.1.5-1.5.3-.4.8-.8 1.4-1.2l.5-.2-.3.3-.8-1.1-.3-1c0-.5.1-.9.3-1.2.2-.4.5-.6 1-.8.3-.2.8-.3 1.3-.3.6 0 1.2.2 1.6.6.4.3.7.8.7 1.4a2.2 2.2 0 0 1-.9 1.8 6 6 0 0 1-1.1.8v-.4l2.3 2.4h-.3l.5-1.3.2-1.5H71c0 .7-.2 1.4-.4 2-.2.7-.4 1.2-.8 1.7v-.4a4.7 4.7 0 0 0 1.8 1.2l-.5 1.2Zm-4.8-1.3a2.6 2.6 0 0 0 2-1v.4l-2.7-2.8h.7l-.4.3a5 5 0 0 0-.8.5 2 2 0 0 0-.4.6l-.1.7c0 .4.1.7.4 1 .3.2.7.3 1.3.3Zm.3-7c-.4 0-.6 0-.8.2a1 1 0 0 0-.3.8v.4l.4.5.5.6H66c.6-.2 1-.5 1.2-.7.2-.3.4-.6.4-.9a1 1 0 0 0-.3-.7 1 1 0 0 0-.7-.3Zm14.3 8.3-1.1-.6-1-.8h.3a4.4 4.4 0 0 1-3 1.4c-.7 0-1.3-.1-1.8-.4-.5-.2-.8-.4-1-.8-.4-.4-.5-.8-.5-1.3 0-.6.2-1.1.5-1.5l1.5-1.2.4-.2-.2.3-.9-1.1-.2-1c0-.5 0-.9.3-1.2.2-.4.5-.6.9-.8.4-.2.8-.3 1.3-.3.7 0 1.3.2 1.7.6.4.3.6.8.6 1.4a2.2 2.2 0 0 1-.8 1.8 6 6 0 0 1-1.1.8v-.4l2.3 2.4h-.4c.3-.4.4-.8.6-1.3l.2-1.5h1.3a6.4 6.4 0 0 1-1.1 3.7v-.4a4.7 4.7 0 0 0 1.8 1.2l-.6 1.2Zm-4.8-1.3a2.6 2.6 0 0 0 2.1-1v.4l-2.7-2.8h.6l-.4.3a5 5 0 0 0-.7.5 2 2 0 0 0-.4.6l-.2.7c0 .4.2.7.5 1 .3.2.7.3 1.2.3Zm.3-7c-.3 0-.6 0-.8.2a1 1 0 0 0-.3.8l.1.4a17.5 17.5 0 0 0 .8 1l-.3.2 1.2-.8.3-.9c0-.3 0-.5-.2-.7a1 1 0 0 0-.8-.3Zm48.8 3.4V98h1.9v1.8h-2Zm0 4.7v-1.8h1.9v1.8h-2Zm14.9.2-1.2-.6-1-.8h.4c-.4.5-.9.8-1.4 1a4.4 4.4 0 0 1-3.4 0c-.5-.2-.9-.4-1.1-.8a2 2 0 0 1-.4-1.3c0-.6.2-1.1.5-1.5l1.4-1.2.5-.2-.3.3-.8-1.1-.3-1c0-.5.1-.9.3-1.2.3-.4.6-.6 1-.8.3-.2.8-.3 1.3-.3.7 0 1.2.2 1.7.6.4.3.6.8.6 1.4a2.2 2.2 0 0 1-.8 1.8 6 6 0 0 1-1.2.8v-.4l2.3 2.4h-.3l.5-1.3.2-1.5h1.4a6.4 6.4 0 0 1-1.1 3.7v-.4a4.6 4.6 0 0 0 1.7 1.2l-.5 1.2Zm-4.8-1.3a2.6 2.6 0 0 0 2-1v.4l-2.7-2.8h.7l-.4.3a5 5 0 0 0-.7.5 2 2 0 0 0-.5.6l-.1.7c0 .4.1.7.4 1 .3.2.8.3 1.3.3Zm.3-7c-.3 0-.6 0-.8.2a1 1 0 0 0-.3.8l.1.4c0 .2.2.4.3.5l.5.6h-.3l1.1-.7c.3-.3.4-.6.4-.9 0-.3 0-.5-.3-.7a1 1 0 0 0-.7-.3Zm14.3 8.3-1.1-.6-1-.8h.4a4.4 4.4 0 0 1-4.8 1c-.5-.2-1-.4-1.2-.8-.2-.4-.4-.8-.4-1.3 0-.6.2-1.1.6-1.5.3-.4.8-.8 1.4-1.2l.4-.2-.2.3-.8-1.1-.3-1c0-.5 0-.9.3-1.2.2-.4.5-.6.9-.8.4-.2.8-.3 1.4-.3.6 0 1.2.2 1.6.6.4.3.6.8.6 1.4a2.2 2.2 0 0 1-.8 1.8 6 6 0 0 1-1.1.8v-.4l2.3 2.4h-.3l.5-1.3.2-1.5h1.4c0 .7-.2 1.4-.4 2-.2.7-.4 1.2-.8 1.7v-.4a4.7 4.7 0 0 0 1.8 1.2l-.6 1.2Zm-4.7-1.3a2.6 2.6 0 0 0 2-1v.4l-2.7-2.8h.6l-.3.3a5 5 0 0 0-.8.5 2 2 0 0 0-.4.6l-.1.7c0 .4.1.7.4 1 .3.2.7.3 1.3.3Zm.3-7c-.4 0-.6 0-.8.2a1 1 0 0 0-.3.8v.4l.4.5.5.6h-.4c.6-.2 1-.5 1.2-.7.2-.3.4-.6.4-.9a1 1 0 0 0-.3-.7 1 1 0 0 0-.7-.3Zm10.1 9.9-.7-.6c.3-.2.5-.5.6-.8l.2-.7.4.3h-1.3v-1.8h1.8v1.2c0 .5 0 .9-.2 1.2-.1.4-.4.8-.8 1.2Zm-.8-6.5V98h1.8v1.8h-1.8Zm49.6 4.2v-2.6h-2.6v-1.2h2.6v-2.6h1.2v2.6h2.6v1.2h-2.6v2.6h-1.2Zm14.6.7-1.2-.6-1-.8h.4a4.4 4.4 0 0 1-3 1.4c-.8 0-1.3-.1-1.8-.4-.5-.2-.9-.4-1.1-.8a2 2 0 0 1-.4-1.3c0-.6.1-1.1.5-1.5.3-.4.8-.8 1.4-1.2l.5-.2-.3.3-.8-1.1-.3-1c0-.5.1-.9.3-1.2.2-.4.5-.6 1-.8.3-.2.8-.3 1.3-.3.7 0 1.2.2 1.6.6.5.3.7.8.7 1.4a2.2 2.2 0 0 1-.9 1.8 6 6 0 0 1-1 .8v-.4l2.2 2.4h-.3l.5-1.3.2-1.5h1.4c0 .7-.1 1.4-.3 2-.2.7-.5 1.2-.9 1.7v-.4a4.7 4.7 0 0 0 1.8 1.2l-.5 1.2Zm-4.8-1.3a2.6 2.6 0 0 0 2-1v.4l-2.7-2.8h.7l-.4.3a5 5 0 0 0-.7.5 2 2 0 0 0-.5.6l-.1.7c0 .4.1.7.4 1 .3.2.7.3 1.3.3Zm.3-7c-.3 0-.6 0-.8.2a1 1 0 0 0-.3.8v.4l.4.5.5.6h-.4c.6-.2 1-.5 1.2-.7.3-.3.4-.6.4-.9a1 1 0 0 0-.3-.7 1 1 0 0 0-.7-.3Zm14.3 8.3-1.1-.6-1-.8h.3a4.4 4.4 0 0 1-3 1.4c-.7 0-1.3-.1-1.8-.4-.4-.2-.8-.4-1-.8-.3-.4-.5-.8-.5-1.3 0-.6.2-1.1.6-1.5.3-.4.8-.8 1.4-1.2l.4-.2-.2.3-.9-1.1-.2-1c0-.5 0-.9.3-1.2.2-.4.5-.6.9-.8.4-.2.8-.3 1.3-.3.7 0 1.3.2 1.7.6.4.3.6.8.6 1.4a2.2 2.2 0 0 1-.8 1.8 6 6 0 0 1-1.1.8v-.4l2.3 2.4h-.4c.3-.4.4-.8.6-1.3l.2-1.5h1.4c0 .7-.2 1.4-.4 2-.2.7-.5 1.2-.8 1.7v-.4a4.7 4.7 0 0 0 1.8 1.2l-.6 1.2Zm-4.7-1.3a2.6 2.6 0 0 0 2-1v.4l-2.7-2.8h.6l-.3.3a5 5 0 0 0-.8.5 2 2 0 0 0-.4.6l-.2.7c0 .4.2.7.5 1 .3.2.7.3 1.3.3Zm.2-7c-.3 0-.5 0-.7.2a1 1 0 0 0-.3.8v.4l.3.5.6.6h-.4l1.2-.7.3-.9c0-.3 0-.5-.2-.7a1 1 0 0 0-.8-.3Zm14.4 8.3-1.2-.6-1-.8h.4c-.4.5-.9.8-1.4 1a4.4 4.4 0 0 1-3.4 0c-.5-.2-.9-.4-1.1-.8a2 2 0 0 1-.4-1.3c0-.6.2-1.1.5-1.5l1.4-1.2.5-.2-.3.3-.8-1.1-.3-1c0-.5.1-.9.3-1.2.3-.4.6-.6 1-.8.3-.2.8-.3 1.3-.3.7 0 1.2.2 1.7.6.4.3.6.8.6 1.4a2.2 2.2 0 0 1-.8 1.8 6 6 0 0 1-1.2.8v-.4l2.3 2.4h-.3l.5-1.3.2-1.5h1.4a6.4 6.4 0 0 1-1.1 3.7v-.4a4.6 4.6 0 0 0 1.8 1.2l-.6 1.2Zm-4.8-1.3a2.6 2.6 0 0 0 2.1-1v.4L233 100h.7l-.4.3a5 5 0 0 0-.7.5 2 2 0 0 0-.5.6v.7c0 .4 0 .7.3 1 .3.2.8.3 1.3.3Zm.3-7c-.3 0-.6 0-.8.2a1 1 0 0 0-.3.8l.1.4c0 .2.2.4.3.5l.6.6h-.4l1.1-.7c.3-.3.4-.6.4-.9 0-.3 0-.5-.3-.7a1 1 0 0 0-.7-.3ZM56.5 125.7V124l.3.3c-.6 0-1.2 0-1.8-.3-.5-.1-1-.4-1.4-.7l.5-1.3a4.8 4.8 0 0 0 3 1c.6 0 1-.2 1.3-.4.3-.2.5-.5.5-.9a1 1 0 0 0-.3-.7l-1.1-.4-1.4-.3c-.8-.2-1.4-.5-1.8-.9-.4-.4-.6-1-.6-1.6 0-.5.2-1 .4-1.4l1-1 1.7-.4-.3.2v-1.6h1.3v1.6l-.3-.2 1.5.3c.5.2.9.4 1.2.8l-.5 1.2-1.1-.7a4 4 0 0 0-1.4-.2c-.6 0-1 .1-1.4.4-.3.2-.5.6-.5 1 0 .2.1.5.3.7.2.2.6.3 1 .4l1.4.3c.9.2 1.5.5 1.9.9.4.4.6.9.6 1.5 0 .5-.1 1-.4 1.4l-1 .9-1.5.4.2-.3v1.7h-1.3Zm14.5-1.3-1.2-.6-1-.7h.4l-1.4 1c-.5.2-1.1.3-1.7.3-.7 0-1.2-.1-1.7-.3-.5-.2-.9-.5-1.2-.9-.2-.4-.3-.8-.3-1.3 0-.6.1-1 .5-1.5.3-.4.8-.8 1.4-1.2l.5-.2-.3.3-.8-1-.3-1.2c0-.4.1-.8.3-1.1a2 2 0 0 1 1-.8c.3-.2.8-.2 1.3-.2.6 0 1.2.1 1.6.5.4.4.7.8.7 1.5a2.2 2.2 0 0 1-.9 1.7 6 6 0 0 1-1.1.8v-.3l2.3 2.3h-.3l.5-1.2.2-1.5H71c0 .7-.2 1.3-.4 2-.2.6-.4 1.2-.8 1.6v-.3a4.7 4.7 0 0 0 1.8 1.1l-.5 1.2Zm-4.8-1.3a2.6 2.6 0 0 0 2-1v.4l-2.7-2.7h.7l-.4.2a5 5 0 0 0-.8.5 2 2 0 0 0-.4.6l-.1.7c0 .4.1.7.4 1 .3.2.7.3 1.3.3Zm.3-7c-.4 0-.6 0-.8.2a1 1 0 0 0-.3.8v.5l.4.5.5.6H66l1.2-.8c.2-.3.4-.6.4-.9a1 1 0 0 0-.3-.7 1 1 0 0 0-.7-.2Zm14.3 8.3c-.4-.2-.8-.3-1.1-.6l-1-.7h.3a4.1 4.1 0 0 1-3 1.3c-.7 0-1.3-.1-1.8-.3-.5-.2-.8-.5-1-.9-.4-.4-.5-.8-.5-1.3 0-.6.2-1 .5-1.5l1.5-1.2.4-.2-.2.3-.9-1-.2-1.2c0-.4 0-.8.3-1.1.2-.3.5-.6.9-.8.4-.2.8-.2 1.3-.2.7 0 1.3.1 1.7.5.4.4.6.8.6 1.5a2.2 2.2 0 0 1-.8 1.7 6 6 0 0 1-1.1.8v-.3l2.3 2.3h-.4c.3-.3.4-.8.6-1.2l.2-1.5h1.3a7 7 0 0 1-.3 2l-.8 1.6v-.3a4.7 4.7 0 0 0 1.8 1.1l-.6 1.2ZM76 123a2.6 2.6 0 0 0 2.1-1v.4l-2.7-2.7h.6l-.4.2a5 5 0 0 0-.7.5 2 2 0 0 0-.4.6l-.2.7c0 .4.2.7.5 1 .3.2.7.3 1.2.3Zm.3-7c-.3 0-.6 0-.8.2a1 1 0 0 0-.3.8l.1.5.3.5.6.6h-.4l1.2-.8.3-.9c0-.3 0-.5-.2-.7a1 1 0 0 0-.8-.2Zm10.2 10-.7-.5.6-.8.2-.8.4.4h-1.3v-1.9h1.8v1.2c0 .5 0 .9-.2 1.3-.2.3-.4.7-.8 1Zm-.8-6.5v-1.8h1.8v1.8h-1.8Zm128.2 4.8v-1.9h1.8v1.9h-1.8Zm14.8.1-1.1-.6-1-.7h.3c-.3.4-.8.7-1.3 1a5 5 0 0 1-3.5 0c-.4-.2-.8-.5-1-.9-.3-.4-.5-.8-.5-1.3 0-.6.2-1 .6-1.5.3-.4.8-.8 1.4-1.2l.4-.2-.2.3-.9-1-.2-1.2c0-.4 0-.8.3-1.1.2-.3.5-.6.9-.8.4-.2.8-.2 1.3-.2.7 0 1.3.1 1.7.5.4.4.6.8.6 1.5a2.2 2.2 0 0 1-.8 1.7 6 6 0 0 1-1.1.8v-.3l2.3 2.3h-.4c.3-.3.4-.8.6-1.2l.2-1.5h1.4c0 .7-.2 1.3-.4 2l-.8 1.6v-.3a4.7 4.7 0 0 0 1.8 1.1l-.6 1.2ZM224 123a2.6 2.6 0 0 0 2-1v.4l-2.7-2.7h.6l-.3.2a5 5 0 0 0-.8.5 2 2 0 0 0-.4.6l-.2.7c0 .4.2.7.5 1 .3.2.7.3 1.3.3Zm.2-7c-.3 0-.5 0-.7.2a1 1 0 0 0-.3.8v.5l.3.5.6.6h-.4l1.2-.8.3-.9c0-.3 0-.5-.2-.7a1 1 0 0 0-.8-.2Zm14.4 8.4-1.2-.6-1-.7h.4l-1.4 1c-.5.2-1 .3-1.7.3-.6 0-1.2-.1-1.7-.3a2 2 0 0 1-1.1-.9 2 2 0 0 1-.4-1.3c0-.6.2-1 .5-1.5l1.4-1.2.5-.2-.3.3-.8-1-.3-1.2c0-.4.1-.8.3-1.1l1-.8c.3-.2.8-.2 1.3-.2.7 0 1.2.1 1.7.5.4.4.6.8.6 1.5a2.2 2.2 0 0 1-.8 1.7 6 6 0 0 1-1.2.8v-.3l2.3 2.3h-.3l.5-1.2.2-1.5h1.4a7 7 0 0 1-.3 2l-.8 1.6v-.3a4.6 4.6 0 0 0 1.8 1.1l-.6 1.2Zm-4.8-1.3a2.6 2.6 0 0 0 2.1-1v.4l-2.8-2.7h.7l-.4.2a5 5 0 0 0-.7.5 2 2 0 0 0-.5.6v.7c0 .4 0 .7.3 1 .3.2.8.3 1.3.3Zm.3-7c-.3 0-.6 0-.8.2a1 1 0 0 0-.3.8l.1.5.3.5.6.6h-.4l1.1-.8c.3-.3.4-.6.4-.9 0-.3 0-.5-.3-.7a1 1 0 0 0-.7-.2Zm9.8 9.6V124l.3.3c-.7 0-1.3 0-1.8-.3-.6-.1-1-.4-1.5-.7l.5-1.3a4.8 4.8 0 0 0 3 1c.6 0 1-.2 1.4-.4.3-.2.4-.5.4-.9 0-.3 0-.5-.3-.7l-1-.4-1.4-.3c-.8-.2-1.4-.5-1.8-.9-.4-.4-.6-1-.6-1.6 0-.5.1-1 .4-1.4.2-.4.6-.7 1-1l1.6-.4-.2.2v-1.6h1.3v1.6l-.3-.2c.5 0 1 .1 1.4.3.5.2 1 .4 1.2.8l-.4 1.2-1.2-.7a4 4 0 0 0-1.4-.2c-.5 0-1 .1-1.3.4-.3.2-.5.6-.5 1 0 .2 0 .5.3.7.2.2.5.3 1 .4l1.4.3c.8.2 1.4.5 1.8.9.4.4.6.9.6 1.5 0 .5 0 1-.3 1.4l-1 .9-1.6.4.3-.3v1.7h-1.3ZM66.4 145.5v-1.7l.3.3c-.7 0-1.3-.2-1.8-.3-.6-.2-1-.5-1.5-.8l.5-1.3a4.8 4.8 0 0 0 3 1c.6 0 1-.2 1.4-.4.3-.2.4-.5.4-.9 0-.2 0-.5-.3-.7l-1-.4-1.4-.3c-.8-.2-1.4-.4-1.8-.8-.4-.5-.6-1-.6-1.7 0-.5.1-1 .4-1.3.2-.4.6-.8 1-1a4 4 0 0 1 1.6-.4l-.2.2v-1.7h1.3v1.7l-.3-.3c.5 0 1 .2 1.4.3l1.3.8-.5 1.2c-.4-.3-.7-.5-1.2-.6a4 4 0 0 0-1.4-.3c-.5 0-1 .2-1.3.4-.3.3-.5.6-.5 1 0 .3 0 .5.3.7.2.2.5.3 1 .4l1.4.3c.8.2 1.4.5 1.8.9.4.4.7.9.7 1.5 0 .5-.2 1-.4 1.4-.3.4-.6.7-1 .9-.5.2-1 .4-1.6.4l.3-.2v1.7h-1.3Zm14.4-1.4c-.4-.1-.8-.3-1.1-.6l-1-.7h.3a4.4 4.4 0 0 1-3 1.3c-.7 0-1.3-.1-1.8-.3-.5-.2-.8-.5-1-.9-.4-.3-.5-.8-.5-1.3 0-.6.2-1 .5-1.5.4-.4.9-.8 1.5-1.1l.4-.3-.2.3-.9-1-.2-1.2c0-.4 0-.8.3-1 .2-.4.5-.7.9-.8.4-.2.8-.3 1.3-.3.7 0 1.3.2 1.7.5.4.4.6.9.6 1.5a2.2 2.2 0 0 1-.8 1.7 6 6 0 0 1-1.1.8v-.3l2.3 2.3h-.4c.3-.3.4-.7.6-1.2l.2-1.5h1.3c0 .7-.1 1.4-.3 2l-.8 1.7v-.4a4.7 4.7 0 0 0 1.8 1.1l-.6 1.2Zm-4.8-1.3a2.6 2.6 0 0 0 2.1-1v.5l-2.7-2.8h.6l-.4.2a5 5 0 0 0-.7.6 2 2 0 0 0-.4.5l-.2.7c0 .4.2.8.5 1 .3.2.7.3 1.2.3Zm.3-7c-.3 0-.6 0-.8.3a1 1 0 0 0-.3.7l.1.5.3.5.6.6h-.4l1.2-.8c.2-.2.3-.5.3-.9 0-.3 0-.5-.2-.7a1 1 0 0 0-.8-.2Zm14.4 8.3-1.2-.6-1-.7h.4a4.4 4.4 0 0 1-3 1.3c-.7 0-1.3-.1-1.8-.3a2 2 0 0 1-1.1-.9c-.3-.3-.4-.8-.4-1.3 0-.6.2-1 .5-1.5a4 4 0 0 1 1.4-1.1l.5-.3-.3.3-.8-1-.3-1.2c0-.4.1-.8.3-1 .2-.4.5-.7 1-.8.3-.2.8-.3 1.3-.3.7 0 1.2.2 1.6.5.5.4.7.9.7 1.5a2.2 2.2 0 0 1-.8 1.7 6 6 0 0 1-1.2.8v-.3l2.3 2.3h-.3l.5-1.2.2-1.5h1.4c0 .7-.1 1.4-.3 2l-.8 1.7v-.4a4.7 4.7 0 0 0 1.7 1.1l-.5 1.2Zm-4.8-1.3a2.6 2.6 0 0 0 2-1v.5l-2.7-2.8h.7l-.4.2a5 5 0 0 0-.7.6 2 2 0 0 0-.5.5l-.1.7c0 .4.1.8.4 1 .3.2.8.3 1.3.3Zm.3-7c-.3 0-.6 0-.8.3a1 1 0 0 0-.3.7v.5l.4.5.5.6h-.4l1.2-.8c.3-.2.4-.5.4-.9a1 1 0 0 0-.3-.7 1 1 0 0 0-.7-.2Zm9.8 9.7v-1.7l.2.3-1.8-.3-1.4-.8.5-1.3a4.8 4.8 0 0 0 3 1c.6 0 1-.2 1.4-.4.3-.2.4-.5.4-.9 0-.2 0-.5-.3-.7l-1-.4-1.5-.3c-.8-.2-1.3-.4-1.7-.8-.4-.5-.6-1-.6-1.7 0-.5.1-1 .4-1.3.2-.4.6-.8 1-1a4 4 0 0 1 1.6-.4l-.3.2v-1.7h1.3v1.7l-.2-.3c.5 0 1 .2 1.4.3.5.2 1 .5 1.2.8l-.5 1.2c-.3-.3-.7-.5-1-.6a4 4 0 0 0-1.5-.3c-.6 0-1 .2-1.3.4-.4.3-.5.6-.5 1 0 .3 0 .5.3.7.2.2.5.3 1 .4l1.4.3c.8.2 1.4.5 1.8.9.4.4.6.9.6 1.5 0 .5 0 1-.3 1.4-.3.4-.6.7-1 .9-.5.2-1 .4-1.6.4l.2-.2v1.7H96Zm132.7-1.4a8.2 8.2 0 0 1-2.1-1.3h.3a4.4 4.4 0 0 1-3 1.3c-.7 0-1.3-.1-1.8-.3-.4-.2-.8-.5-1-.9-.3-.3-.5-.8-.5-1.3 0-.6.2-1 .6-1.5a4 4 0 0 1 1.4-1.1l.4-.3-.2.3-.9-1-.2-1.2c0-.4 0-.8.3-1 .2-.4.5-.7.9-.8.4-.2.8-.3 1.3-.3.7 0 1.3.2 1.7.5.4.4.6.9.6 1.5a2.2 2.2 0 0 1-.8 1.7 6 6 0 0 1-1.1.8v-.3l2.3 2.3h-.4c.3-.3.4-.7.6-1.2l.2-1.5h1.4c0 .7-.2 1.4-.4 2l-.8 1.7v-.4a4.7 4.7 0 0 0 1.8 1.1l-.6 1.2Zm-4.7-1.3a2.6 2.6 0 0 0 2-1v.5l-2.7-2.8h.6l-.3.2a5 5 0 0 0-.8.6 2 2 0 0 0-.4.5l-.2.7c0 .4.2.8.5 1 .3.2.7.3 1.3.3Zm.2-7c-.3 0-.5 0-.7.3a1 1 0 0 0-.3.7v.5l.3.5.6.6h-.4l1.2-.8c.2-.2.3-.5.3-.9 0-.3 0-.5-.2-.7a1 1 0 0 0-.8-.2Zm14.4 8.3-1.2-.6-1-.7h.4l-1.4 1c-.5.2-1 .3-1.7.3-.6 0-1.2-.1-1.7-.3a2 2 0 0 1-1.1-.9c-.3-.3-.4-.8-.4-1.3 0-.6.2-1 .5-1.5.4-.4.8-.8 1.4-1.1l.5-.3-.3.3-.8-1-.3-1.2c0-.4.1-.8.3-1 .3-.4.6-.7 1-.8a3.1 3.1 0 0 1 3 .2c.4.4.6.9.6 1.5a2.2 2.2 0 0 1-.8 1.7 6 6 0 0 1-1.2.8v-.3l2.3 2.3h-.3l.5-1.2.2-1.5h1.4c0 .7-.1 1.4-.3 2l-.8 1.7v-.4a4.6 4.6 0 0 0 1.8 1.1l-.6 1.2Zm-4.8-1.3a2.6 2.6 0 0 0 2.1-1v.5l-2.8-2.8h.7l-.4.2a5 5 0 0 0-.7.6 2 2 0 0 0-.5.5v.7c0 .4 0 .8.3 1 .3.2.8.3 1.3.3Zm.3-7c-.3 0-.6 0-.8.3a1 1 0 0 0-.3.7l.1.5.3.5.6.6h-.4l1.1-.8c.3-.2.4-.5.4-.9 0-.3 0-.5-.3-.7a1 1 0 0 0-.7-.2Zm14.4 8.3-1.2-.6-1-.7h.4l-1.4 1c-.5.2-1.1.3-1.7.3a4 4 0 0 1-1.7-.3c-.5-.2-.9-.5-1.2-.9-.2-.3-.3-.8-.3-1.3 0-.6.1-1 .5-1.5a4 4 0 0 1 1.4-1.1l.4-.3-.2.3c-.4-.4-.7-.7-.8-1l-.3-1.2c0-.4.1-.8.3-1 .2-.4.5-.7.9-.8.4-.2.8-.3 1.4-.3.6 0 1.2.2 1.6.5.4.4.7.9.7 1.5a2.2 2.2 0 0 1-.9 1.7 6 6 0 0 1-1.1.8v-.3l2.3 2.3h-.3l.5-1.2.2-1.5h1.4c0 .7-.2 1.4-.4 2-.2.6-.4 1.2-.8 1.7v-.4a4.6 4.6 0 0 0 1.8 1.1l-.5 1.2Zm-4.8-1.3a2.6 2.6 0 0 0 2-1v.5l-2.7-2.8h.7l-.4.2a5 5 0 0 0-.8.6 2 2 0 0 0-.4.5l-.1.7c0 .4.1.8.4 1 .3.2.7.3 1.3.3Zm.3-7c-.4 0-.6 0-.8.3a1 1 0 0 0-.3.7v.5l.4.5.5.6h-.4l1.2-.8c.2-.2.4-.5.4-.9a1 1 0 0 0-.3-.7 1 1 0 0 0-.7-.2Zm9.3 8.2v-1.8h1.8v1.8h-1.8ZM73 163.7l3.1-3.8v.8l-2.9-3.6h2l1.8 2.5h-.6l2-2.5h1.8l-2.8 3.6v-.8l3 3.8h-2l-2-2.6h.6l-2 2.6h-2Zm17.7.1-1.2-.5-1-.8h.4l-1.4 1c-.5.2-1 .3-1.7.3-.6 0-1.2 0-1.7-.3-.5-.2-.9-.5-1.1-.8a2 2 0 0 1-.4-1.3c0-.6.2-1.1.5-1.6a4 4 0 0 1 1.4-1.1l.5-.3-.3.3-.8-1-.3-1.1c0-.5.1-.8.3-1.2.2-.3.5-.5 1-.7.3-.2.8-.3 1.3-.3.7 0 1.2.2 1.6.5.5.4.7.9.7 1.5a2.2 2.2 0 0 1-.8 1.7 6 6 0 0 1-1.2.8v-.3l2.3 2.4h-.3l.5-1.3.2-1.5h1.4c0 .7-.1 1.4-.3 2l-.8 1.7v-.4a4.7 4.7 0 0 0 1.7 1.2l-.5 1.1Zm-4.8-1.2a2.6 2.6 0 0 0 2-1v.4l-2.7-2.8h.7l-.4.2a5 5 0 0 0-.7.6 2 2 0 0 0-.5.6l-.1.7c0 .4.1.7.4 1 .3.1.8.3 1.3.3Zm.3-7c-.3 0-.6 0-.8.2a1 1 0 0 0-.3.7v.5l.4.5.5.6h-.4c.6-.3 1-.5 1.2-.8.3-.2.4-.5.4-.8 0-.3-.1-.6-.3-.7a1 1 0 0 0-.7-.3Zm14.3 8.2-1.1-.5-1-.8h.4l-1.4 1a5 5 0 0 1-1.7.3c-.7 0-1.3 0-1.8-.3-.4-.2-.8-.5-1-.8-.3-.4-.5-.8-.5-1.3 0-.6.2-1.1.6-1.6a4 4 0 0 1 1.4-1.1l.4-.3-.2.3c-.4-.3-.7-.7-.8-1l-.3-1.1c0-.5 0-.8.3-1.2.2-.3.5-.5.9-.7.4-.2.8-.3 1.4-.3.6 0 1.2.2 1.6.5.4.4.6.9.6 1.5a2.2 2.2 0 0 1-.8 1.7 6 6 0 0 1-1.1.8v-.3l2.3 2.4h-.3l.5-1.3.2-1.5h1.4c0 .7-.2 1.4-.4 2-.2.6-.4 1.2-.8 1.7v-.4a4.7 4.7 0 0 0 1.8 1.2l-.6 1.1Zm-4.7-1.2a2.6 2.6 0 0 0 2-1v.4l-2.7-2.8h.6l-.3.2a5 5 0 0 0-.8.6 2 2 0 0 0-.4.6l-.1.7c0 .4.1.7.4 1 .3.1.7.3 1.3.3Zm.3-7c-.4 0-.6 0-.8.2a1 1 0 0 0-.3.7v.5l.4.5c0 .2.3.4.5.6h-.4c.5-.3 1-.5 1.2-.8.2-.2.4-.5.4-.8 0-.3-.1-.6-.3-.7a1 1 0 0 0-.7-.3Zm14.3 8.2-1.1-.5-1-.8h.3a4.4 4.4 0 0 1-3 1.3c-.7 0-1.3 0-1.8-.3-.5-.2-.8-.5-1.1-.8a2 2 0 0 1-.4-1.3c0-.6.2-1.1.5-1.6.4-.4.8-.8 1.5-1.1l.4-.3-.3.3-.8-1-.3-1.1c0-.5.1-.8.4-1.2.2-.3.5-.5.9-.7a3.1 3.1 0 0 1 3 .2c.4.4.6.9.6 1.5a2.2 2.2 0 0 1-.8 1.7 6 6 0 0 1-1.2.8v-.3l2.4 2.4h-.4l.5-1.3.3-1.5h1.3c0 .7-.1 1.4-.3 2l-.8 1.7v-.4a4.7 4.7 0 0 0 1.8 1.2l-.6 1.1Zm-4.8-1.2a2.6 2.6 0 0 0 2.1-1v.4l-2.8-2.8h.7l-.4.2a5 5 0 0 0-.7.6 2 2 0 0 0-.4.6l-.2.7c0 .4.2.7.5 1 .3.1.7.3 1.2.3Zm.3-7c-.3 0-.6 0-.8.2a1 1 0 0 0-.3.7l.1.5c0 .2.2.3.3.5l.6.6h-.4c.5-.3.9-.5 1.1-.8.3-.2.4-.5.4-.8 0-.3 0-.6-.3-.7a1 1 0 0 0-.7-.3Zm6.6 8.1 3-3.8v.8l-2.8-3.6h1.9l1.9 2.5h-.6l1.9-2.5h1.9l-2.9 3.6v-.8l3 3.8H118l-2-2.6h.6l-2 2.6h-2Zm126.1.1-1.2-.5-1-.8h.4l-1.4 1c-.5.2-1 .3-1.7.3-.6 0-1.2 0-1.7-.3-.5-.2-.9-.5-1.1-.8a2 2 0 0 1-.4-1.3c0-.6.2-1.1.5-1.6.4-.4.8-.8 1.4-1.1l.5-.3-.3.3-.8-1-.3-1.1c0-.5.1-.8.3-1.2l1-.7a3.1 3.1 0 0 1 3 .2c.4.4.6.9.6 1.5a2.2 2.2 0 0 1-.8 1.7 6 6 0 0 1-1.2.8v-.3l2.3 2.4h-.3l.5-1.3.2-1.5h1.4c0 .7-.1 1.4-.3 2l-.8 1.7v-.4a4.6 4.6 0 0 0 1.8 1.2l-.6 1.1Zm-4.8-1.2a2.6 2.6 0 0 0 2.1-1v.4l-2.8-2.8h.7l-.4.2a5 5 0 0 0-.7.6 2 2 0 0 0-.5.6v.7c0 .4 0 .7.3 1 .3.1.8.3 1.3.3Zm.3-7c-.3 0-.6 0-.8.2a1 1 0 0 0-.3.7l.1.5c0 .2.2.3.3.5l.6.6h-.4c.5-.3.9-.5 1.1-.8.3-.2.4-.5.4-.8 0-.3 0-.6-.3-.7a1 1 0 0 0-.7-.3Zm14.4 8.2-1.2-.5-1-.8h.4l-1.4 1c-.5.2-1.1.3-1.7.3-.7 0-1.3 0-1.7-.3-.5-.2-.9-.5-1.2-.8-.2-.4-.3-.8-.3-1.3 0-.6.1-1.1.5-1.6a4 4 0 0 1 1.4-1.1l.4-.3-.2.3c-.4-.3-.7-.7-.8-1l-.3-1.1c0-.5.1-.8.3-1.2.2-.3.5-.5.9-.7.4-.2.8-.3 1.4-.3.6 0 1.2.2 1.6.5.4.4.7.9.7 1.5a2.2 2.2 0 0 1-.9 1.7 6 6 0 0 1-1.1.8v-.3l2.3 2.4h-.3l.5-1.3.2-1.5h1.4c0 .7-.2 1.4-.4 2-.2.6-.4 1.2-.8 1.7v-.4a4.6 4.6 0 0 0 1.8 1.2l-.5 1.1Zm-4.8-1.2a2.6 2.6 0 0 0 2-1v.4l-2.7-2.8h.7l-.4.2a5 5 0 0 0-.8.6 2 2 0 0 0-.4.6l-.1.7c0 .4.1.7.4 1 .3.1.7.3 1.3.3Zm.3-7c-.4 0-.6 0-.8.2a1 1 0 0 0-.3.7v.5l.4.5.5.6h-.4c.6-.3 1-.5 1.2-.8.2-.2.4-.5.4-.8 0-.3-.1-.6-.3-.7a1 1 0 0 0-.7-.3Zm14.3 8.2-1.1-.5-1-.8h.3a4.4 4.4 0 0 1-3 1.3c-.7 0-1.3 0-1.8-.3-.5-.2-.8-.5-1.1-.8a2 2 0 0 1-.4-1.3c0-.6.2-1.1.5-1.6.4-.4.9-.8 1.5-1.1l.4-.3-.2.3-.9-1c-.2-.4-.2-.8-.2-1.1 0-.5 0-.8.3-1.2.2-.3.5-.5.9-.7.4-.2.8-.3 1.3-.3.7 0 1.3.2 1.7.5.4.4.6.9.6 1.5a2.2 2.2 0 0 1-.8 1.7 6 6 0 0 1-1.1.8v-.3l2.3 2.4h-.4c.3-.4.4-.8.5-1.3l.3-1.5h1.3c0 .7-.1 1.4-.3 2l-.8 1.7v-.4a4.7 4.7 0 0 0 1.8 1.2l-.6 1.1Zm-4.8-1.2a2.6 2.6 0 0 0 2.1-1v.4l-2.7-2.8h.6l-.4.2a5 5 0 0 0-.7.6 2 2 0 0 0-.4.6l-.2.7c0 .4.2.7.5 1 .3.1.7.3 1.2.3Zm.3-7c-.3 0-.6 0-.8.2a1 1 0 0 0-.3.7l.1.5c0 .2.2.3.3.5l.6.6h-.4c.5-.3 1-.5 1.2-.8.2-.2.3-.5.3-.8 0-.3 0-.6-.2-.7a1 1 0 0 0-.8-.3Zm-153.3 27.9c-.4 0-.7-.3-1.1-.5l-1-.8h.4a4.1 4.1 0 0 1-3 1.3c-.8 0-1.4 0-1.9-.3-.4-.2-.8-.5-1-.8-.3-.4-.5-.8-.5-1.3 0-.6.2-1.1.6-1.5.3-.4.8-.8 1.4-1.2l.4-.2-.2.3-.8-1.1c-.2-.4-.3-.7-.3-1.1 0-.4 0-.8.3-1.1.2-.4.5-.6.9-.8.4-.2.8-.3 1.4-.3.6 0 1.2.2 1.6.6.4.3.6.8.6 1.4a2.2 2.2 0 0 1-.8 1.8 6 6 0 0 1-1.1.7v-.3l2.3 2.4h-.3l.5-1.3.2-1.5h1.4c0 .7-.2 1.4-.4 2-.2.7-.4 1.2-.8 1.7v-.4a4.8 4.8 0 0 0 1.8 1.2l-.6 1.1Zm-4.7-1.2a2.6 2.6 0 0 0 2-1v.4l-2.7-2.8h.6l-.3.3a5 5 0 0 0-.8.5 2 2 0 0 0-.4.6l-.1.7c0 .4.1.7.4 1 .3.2.7.3 1.3.3Zm.3-7c-.4 0-.6 0-.8.2a1 1 0 0 0-.3.8v.4l.4.5c0 .2.3.4.5.6h-.4c.5-.2 1-.5 1.2-.8.2-.2.4-.5.4-.8a1 1 0 0 0-.3-.7 1 1 0 0 0-.7-.3Zm14.3 8.2c-.4 0-.8-.3-1.1-.5l-1-.8h.3a4.4 4.4 0 0 1-3 1.3c-.7 0-1.3 0-1.8-.3-.5-.2-.8-.5-1.1-.8a2 2 0 0 1-.4-1.3c0-.6.2-1.1.5-1.5.4-.4.8-.8 1.5-1.2l.4-.2-.3.3-.8-1.1c-.2-.4-.3-.7-.3-1.1 0-.4.1-.8.4-1.1.2-.4.5-.6.9-.8.3-.2.8-.3 1.3-.3.7 0 1.2.2 1.7.6.4.3.6.8.6 1.4a2.2 2.2 0 0 1-.8 1.8 6 6 0 0 1-1.2.7v-.3l2.4 2.4h-.4l.5-1.3.3-1.5h1.3a6.4 6.4 0 0 1-1.1 3.7v-.4a4.8 4.8 0 0 0 1.8 1.2l-.6 1.1Zm-4.8-1.2a2.6 2.6 0 0 0 2.1-1v.4l-2.8-2.8h.7l-.4.3a5 5 0 0 0-.7.5 2 2 0 0 0-.4.6l-.2.7c0 .4.2.7.5 1 .3.2.7.3 1.2.3Zm.3-7c-.3 0-.6 0-.8.2a1 1 0 0 0-.3.8l.1.4c0 .2.2.3.3.5l.6.6h-.4c.5-.2.9-.5 1.1-.8.3-.2.4-.5.4-.8 0-.3 0-.5-.3-.7a1 1 0 0 0-.7-.3Zm14.4 8.2c-.4 0-.8-.3-1.2-.5l-1-.8h.4a4.1 4.1 0 0 1-3 1.3c-.8 0-1.3 0-1.8-.3-.5-.2-.9-.5-1.1-.8a2 2 0 0 1-.4-1.3c0-.6.1-1.1.5-1.5.3-.4.8-.8 1.4-1.2l.5-.2-.3.3-.8-1.1c-.2-.4-.3-.7-.3-1.1 0-.4.1-.8.3-1.1.2-.4.5-.6 1-.8.3-.2.8-.3 1.3-.3.7 0 1.2.2 1.6.6.5.3.7.8.7 1.4a2.2 2.2 0 0 1-.9 1.8 6 6 0 0 1-1.1.7v-.3l2.3 2.4h-.3l.5-1.3.2-1.5h1.4c0 .7-.2 1.4-.4 2-.2.7-.4 1.2-.8 1.7v-.4a4.8 4.8 0 0 0 1.8 1.2l-.5 1.1Zm-4.8-1.2a2.6 2.6 0 0 0 2-1v.4l-2.7-2.8h.7l-.4.3a5 5 0 0 0-.8.5 2 2 0 0 0-.4.6l-.1.7c0 .4.1.7.4 1 .3.2.7.3 1.3.3Zm.3-7c-.4 0-.6 0-.8.2a1 1 0 0 0-.3.8v.4l.4.5.5.6h-.4c.6-.2 1-.5 1.2-.8.3-.2.4-.5.4-.8a1 1 0 0 0-.3-.7 1 1 0 0 0-.7-.3Zm115 8.1 3-3.7v.7l-2.8-3.5h2l1.8 2.4h-.6l1.9-2.4h1.9l-2.9 3.5v-.7l3 3.7h-1.9l-2-2.6h.6l-2 2.6h-2Zm17.7.1c-.4 0-.8-.3-1.2-.5l-1-.8h.4a4.1 4.1 0 0 1-3 1.3c-.8 0-1.4 0-1.8-.3-.5-.2-.9-.5-1.2-.8-.2-.4-.3-.8-.3-1.3 0-.6.1-1.1.5-1.5.3-.4.8-.8 1.4-1.2l.4-.2-.2.3-.8-1.1c-.2-.4-.3-.7-.3-1.1 0-.4.1-.8.3-1.1.2-.4.5-.6.9-.8.4-.2.8-.3 1.4-.3.6 0 1.2.2 1.6.6.4.3.7.8.7 1.4a2.2 2.2 0 0 1-.9 1.8 6 6 0 0 1-1.1.7v-.3l2.3 2.4h-.3l.5-1.3.2-1.5h1.4c0 .7-.2 1.4-.4 2-.2.7-.4 1.2-.8 1.7v-.4a4.7 4.7 0 0 0 1.8 1.2l-.5 1.1Zm-4.8-1.2a2.6 2.6 0 0 0 2-1v.4l-2.7-2.8h.7l-.4.3a5 5 0 0 0-.8.5 2 2 0 0 0-.4.6l-.1.7c0 .4.1.7.4 1 .3.2.7.3 1.3.3Zm.3-7c-.4 0-.6 0-.8.2a1 1 0 0 0-.3.8v.4l.4.5.5.6h-.4c.6-.2 1-.5 1.2-.8.2-.2.4-.5.4-.8a1 1 0 0 0-.3-.7 1 1 0 0 0-.7-.3Zm14.3 8.2c-.4 0-.8-.3-1.1-.5l-1-.8h.3a4.4 4.4 0 0 1-3 1.3c-.7 0-1.3 0-1.8-.3-.5-.2-.8-.5-1.1-.8a2 2 0 0 1-.4-1.3c0-.6.2-1.1.5-1.5l1.5-1.2.4-.2-.2.3-.9-1.1c-.2-.4-.2-.7-.2-1.1 0-.4 0-.8.3-1.1.2-.4.5-.6.9-.8.4-.2.8-.3 1.3-.3.7 0 1.3.2 1.7.6.4.3.6.8.6 1.4a2.2 2.2 0 0 1-.8 1.8 6 6 0 0 1-1.1.7v-.3l2.3 2.4h-.4c.3-.4.4-.8.5-1.3l.3-1.5h1.3a6.4 6.4 0 0 1-1.1 3.7v-.4a4.8 4.8 0 0 0 1.8 1.2l-.6 1.1Zm-4.8-1.2a2.6 2.6 0 0 0 2.1-1v.4l-2.7-2.8h.6l-.4.3a5 5 0 0 0-.7.5 2 2 0 0 0-.4.6l-.2.7c0 .4.2.7.5 1 .3.2.7.3 1.2.3Zm.3-7c-.3 0-.6 0-.8.2a1 1 0 0 0-.3.8l.1.4c0 .2.2.3.3.5l.6.6h-.4c.5-.2 1-.5 1.2-.8.2-.2.3-.5.3-.8 0-.3 0-.5-.2-.7a1 1 0 0 0-.8-.3ZM86 202.6V200h-2.6v-1.2H86v-2.6h1.2v2.6h2.6v1.2h-2.6v2.6H86Zm14.5.7-1.1-.6-1-.8h.4c-.4.5-.9.8-1.4 1a4.4 4.4 0 0 1-3.4 0c-.5-.2-1-.4-1.2-.8-.2-.4-.4-.8-.4-1.3 0-.6.2-1 .6-1.5.3-.4.8-.8 1.4-1.2l.4-.2-.2.3-.8-1.1-.3-1c0-.5 0-.9.3-1.2.2-.3.5-.6.9-.8.4-.2.8-.3 1.4-.3.6 0 1.2.2 1.6.6.4.3.6.8.6 1.4a2.2 2.2 0 0 1-.8 1.8 6 6 0 0 1-1.1.8v-.4l2.3 2.4h-.3l.5-1.3.2-1.5h1.4c0 .8-.2 1.4-.4 2-.2.7-.4 1.2-.8 1.7v-.4a4.7 4.7 0 0 0 1.8 1.2l-.6 1.2Zm-4.7-1.3a2.6 2.6 0 0 0 2-1v.4l-2.7-2.7h.6l-.3.2a5 5 0 0 0-.8.5 2 2 0 0 0-.4.6l-.1.7c0 .4.1.7.4 1 .3.2.7.3 1.3.3Zm.3-7c-.4 0-.6 0-.8.2a1 1 0 0 0-.3.8v.5l.4.4c0 .2.3.4.5.6h-.4l1.2-.7c.2-.3.4-.6.4-.9a1 1 0 0 0-.3-.7 1 1 0 0 0-.7-.3Zm14.3 8.3-1.1-.6-1-.8h.3a4.4 4.4 0 0 1-3 1.4c-.7 0-1.3-.1-1.8-.3-.5-.3-.8-.5-1.1-.9a2 2 0 0 1-.4-1.3c0-.6.2-1 .5-1.5.4-.4.8-.8 1.5-1.2l.4-.2-.3.3-.8-1.1-.3-1c0-.5.1-.9.4-1.2.2-.3.5-.6.9-.8.3-.2.8-.3 1.3-.3.7 0 1.2.2 1.7.6.4.3.6.8.6 1.4a2.2 2.2 0 0 1-.8 1.8 6 6 0 0 1-1.2.8v-.4l2.4 2.4h-.4l.5-1.3c.2-.4.2-1 .3-1.5h1.3a6.7 6.7 0 0 1-1.1 3.7v-.4a4.7 4.7 0 0 0 1.8 1.2l-.6 1.2Zm-4.8-1.3a2.6 2.6 0 0 0 2.1-1v.4l-2.8-2.7h.7l-.4.2a5 5 0 0 0-.7.5 2 2 0 0 0-.4.6l-.2.7c0 .4.2.7.5 1 .3.2.7.3 1.2.3Zm.3-7c-.3 0-.6 0-.8.2a1 1 0 0 0-.3.8l.1.5.3.4.6.6h-.4l1.1-.7c.3-.3.4-.6.4-.9 0-.3 0-.5-.3-.7a1 1 0 0 0-.7-.3Zm9.4 3.4v-1.8h1.8v1.8h-1.8Zm0 4.7v-1.8h1.8v1.8h-1.8Zm133.2.2-1.2-.6-1-.8h.4c-.4.5-.9.8-1.4 1-.5.3-1.1.4-1.7.4a4 4 0 0 1-1.7-.3c-.5-.3-.9-.5-1.2-.9-.2-.4-.3-.8-.3-1.3 0-.6.1-1 .5-1.5.3-.4.8-.8 1.4-1.2l.4-.2-.2.3-.8-1.1-.3-1c0-.5.1-.9.3-1.2.2-.3.5-.6.9-.8.4-.2.8-.3 1.4-.3.6 0 1.2.2 1.6.6.4.3.7.8.7 1.4a2.2 2.2 0 0 1-.9 1.8 6 6 0 0 1-1.1.8v-.4l2.3 2.4h-.3l.5-1.3.2-1.5h1.4c0 .8-.2 1.4-.4 2-.2.7-.4 1.2-.8 1.7v-.4a4.6 4.6 0 0 0 1.8 1.2l-.5 1.2Zm-4.8-1.3a2.6 2.6 0 0 0 2-1v.4l-2.7-2.7h.7l-.4.2a5 5 0 0 0-.8.5 2 2 0 0 0-.4.6l-.1.7c0 .4.1.7.4 1 .3.2.7.3 1.3.3Zm.3-7c-.4 0-.6 0-.8.2a1 1 0 0 0-.3.8v.5l.4.4.5.6h-.4c.6-.2 1-.5 1.2-.7.2-.3.4-.6.4-.9a1 1 0 0 0-.3-.7 1 1 0 0 0-.7-.3Zm14.3 8.3-1.1-.6-1-.8h.3a4.4 4.4 0 0 1-3 1.4c-.7 0-1.3-.1-1.8-.3-.5-.3-.8-.5-1.1-.9a2 2 0 0 1-.4-1.3c0-.6.2-1 .5-1.5l1.5-1.2.4-.2-.2.3-.9-1.1c-.2-.4-.2-.7-.2-1 0-.5 0-.9.3-1.2.2-.3.5-.6.9-.8.4-.2.8-.3 1.3-.3.7 0 1.3.2 1.7.6.4.3.6.8.6 1.4a2.2 2.2 0 0 1-.8 1.8 6 6 0 0 1-1.1.8v-.4l2.3 2.4h-.4c.3-.4.4-.8.5-1.3.2-.4.2-1 .3-1.5h1.3a6.7 6.7 0 0 1-1.1 3.7v-.4a4.7 4.7 0 0 0 1.8 1.2l-.6 1.2Zm-4.8-1.3a2.6 2.6 0 0 0 2.1-1v.4l-2.7-2.7h.6l-.4.2a5 5 0 0 0-.7.5 2 2 0 0 0-.4.6l-.2.7c0 .4.2.7.5 1 .3.2.7.3 1.2.3Zm.3-7c-.3 0-.6 0-.8.2a1 1 0 0 0-.3.8l.1.5.3.4.6.6h-.4l1.2-.7.3-.9c0-.3 0-.5-.2-.7a1 1 0 0 0-.8-.3Zm9.8 9.6V203l.3.3c-.7 0-1.3-.1-1.8-.3l-1.5-.7.5-1.3a4.8 4.8 0 0 0 3 1c.6 0 1.1-.2 1.4-.4.3-.3.5-.5.5-.9 0-.3-.2-.5-.4-.7-.2-.2-.5-.3-1-.4l-1.4-.3c-.8-.2-1.4-.5-1.8-.9-.4-.4-.6-1-.6-1.6 0-.5.1-1 .4-1.4l1-1 1.6-.4-.2.2v-1.6h1.3v1.6l-.3-.2 1.5.3c.4.2.8.4 1.2.8l-.5 1.2-1.2-.7a4 4 0 0 0-1.3-.2c-.6 0-1 .1-1.4.4-.3.2-.5.5-.5 1 0 .2.1.5.3.7l1 .4 1.4.3c.8.2 1.5.5 1.9.9.4.3.6.9.6 1.5 0 .5-.2 1-.4 1.3l-1 1-1.6.4.3-.3v1.7h-1.3ZM86 224.4v-1.7l.4.2c-.7 0-1.2 0-1.8-.2-.6-.2-1-.5-1.5-.8l.6-1.3a4.8 4.8 0 0 0 2.9 1c.6 0 1.1-.2 1.4-.4.3-.2.5-.5.5-.9 0-.3-.1-.5-.4-.7l-1-.4-1.4-.3c-.8-.2-1.4-.5-1.8-.9-.4-.4-.6-1-.6-1.6 0-.5.2-1 .4-1.4l1-1 1.6-.4-.2.2v-1.6h1.3v1.6l-.3-.2 1.5.3c.5.2.9.5 1.2.8l-.5 1.2c-.3-.3-.7-.5-1.1-.6a4 4 0 0 0-1.4-.3c-.6 0-1 .1-1.4.4-.3.2-.5.6-.5 1 0 .3.1.5.3.7.2.2.6.3 1 .4l1.4.3c.8.2 1.5.5 1.9.9.4.4.6.9.6 1.5 0 .5-.2 1-.4 1.4-.3.3-.6.7-1 .9-.5.2-1 .4-1.6.4l.3-.3v1.8H86Zm14.5-1.4a8.3 8.3 0 0 1-2.1-1.3h.4l-1.4 1a5 5 0 0 1-3.5 0c-.4-.2-.8-.5-1-.9-.3-.4-.5-.8-.5-1.3 0-.6.2-1 .6-1.5.3-.4.8-.8 1.4-1.2l.4-.2-.2.3c-.4-.4-.7-.7-.8-1l-.3-1.2c0-.4 0-.8.3-1 .2-.4.5-.7.9-.9l1.4-.2c.6 0 1.2.1 1.6.5.4.4.6.9.6 1.5a2.2 2.2 0 0 1-.8 1.7 6 6 0 0 1-1.1.8v-.3l2.3 2.3h-.3l.5-1.2.2-1.5h1.4c0 .7-.2 1.3-.4 2-.2.6-.4 1.2-.8 1.7v-.4a4.7 4.7 0 0 0 1.8 1.1l-.6 1.2Zm-4.7-1.3a2.6 2.6 0 0 0 2-1v.4l-2.7-2.7h.6l-.3.2a5 5 0 0 0-.8.5 2 2 0 0 0-.4.6l-.1.7c0 .4.1.7.4 1 .3.2.7.3 1.3.3Zm.3-7c-.4 0-.6 0-.8.3a1 1 0 0 0-.3.7v.5l.4.5.5.6h-.4l1.2-.8c.2-.3.4-.5.4-.9a1 1 0 0 0-.3-.7 1 1 0 0 0-.7-.2Zm14.3 8.3c-.4-.1-.8-.3-1.1-.6l-1-.7h.3a4.4 4.4 0 0 1-3 1.3c-.7 0-1.3-.1-1.8-.3-.5-.2-.8-.5-1.1-.9a2 2 0 0 1-.4-1.3c0-.6.2-1 .5-1.5.4-.4.8-.8 1.5-1.2l.4-.2-.3.3-.8-1-.3-1.2c0-.4.1-.8.4-1 .2-.4.5-.7.9-.9l1.3-.2c.7 0 1.2.1 1.7.5.4.4.6.9.6 1.5a2.2 2.2 0 0 1-.8 1.7 6 6 0 0 1-1.2.8v-.3l2.4 2.3h-.4l.5-1.2.3-1.5h1.3a7 7 0 0 1-.3 2l-.8 1.7v-.4a4.7 4.7 0 0 0 1.8 1.1l-.6 1.2Zm-4.8-1.3a2.6 2.6 0 0 0 2.1-1v.4l-2.8-2.7h.7l-.4.2a5 5 0 0 0-.7.5 2 2 0 0 0-.4.6l-.2.7c0 .4.2.7.5 1 .3.2.7.3 1.2.3Zm.3-7c-.3 0-.6 0-.8.3a1 1 0 0 0-.3.7l.1.5.3.5.6.6h-.4l1.1-.8c.3-.3.4-.5.4-.9 0-.3 0-.5-.3-.7a1 1 0 0 0-.7-.2Zm138 9.7v-1.7l.3.2c-.7 0-1.3 0-1.8-.2-.6-.2-1-.5-1.5-.8l.5-1.3a4.8 4.8 0 0 0 3 1c.6 0 1-.2 1.4-.4.3-.2.4-.5.4-.9 0-.3 0-.5-.3-.7l-1-.4-1.4-.3c-.8-.2-1.4-.5-1.8-.9-.4-.4-.6-1-.6-1.6 0-.5.1-1 .4-1.4.2-.4.6-.7 1-1l1.6-.4-.2.2v-1.6h1.3v1.6l-.3-.2c.5 0 1 .2 1.4.3.5.2 1 .5 1.2.8l-.4 1.2-1.2-.6a4 4 0 0 0-1.4-.3c-.5 0-1 .1-1.3.4-.3.2-.5.6-.5 1 0 .3 0 .5.3.7.2.2.5.3 1 .4l1.4.3c.8.2 1.4.5 1.8.9.4.4.6.9.6 1.5 0 .5 0 1-.3 1.4-.3.3-.6.7-1 .9-.5.2-1 .4-1.6.4l.3-.3v1.8h-1.3Zm14.4-1.4c-.4-.1-.8-.3-1.1-.6l-1-.7h.3a4.4 4.4 0 0 1-3 1.3c-.7 0-1.3-.1-1.8-.3-.5-.2-.8-.5-1.1-.9a2 2 0 0 1-.4-1.3c0-.6.2-1 .5-1.5l1.5-1.2.4-.2-.2.3-.9-1c-.2-.4-.2-.8-.2-1.2 0-.4 0-.8.3-1 .2-.4.5-.7.9-.9l1.3-.2c.7 0 1.3.1 1.7.5.4.4.6.9.6 1.5a2.2 2.2 0 0 1-.8 1.7 6 6 0 0 1-1.1.8v-.3l2.3 2.3h-.4c.3-.3.4-.8.5-1.2l.3-1.5h1.3a7 7 0 0 1-.3 2l-.8 1.7v-.4a4.7 4.7 0 0 0 1.8 1.1l-.6 1.2Zm-4.8-1.3a2.6 2.6 0 0 0 2.1-1v.4l-2.7-2.7h.6l-.4.2a5 5 0 0 0-.7.5 2 2 0 0 0-.4.6l-.2.7c0 .4.2.7.5 1 .3.2.7.3 1.2.3Zm.3-7c-.3 0-.6 0-.8.3a1 1 0 0 0-.3.7l.1.5.3.5.6.6h-.4l1.2-.8c.2-.3.3-.5.3-.9 0-.3 0-.5-.2-.7a1 1 0 0 0-.8-.2Zm14.4 8.3-1.2-.6-1-.7h.4l-1.4 1c-.5.2-1 .3-1.7.3s-1.2-.1-1.7-.3a2 2 0 0 1-1.1-.9 2 2 0 0 1-.4-1.3c0-.6.1-1 .5-1.5.3-.4.8-.8 1.4-1.2l.5-.2-.3.3-.8-1-.3-1.2c0-.4.1-.8.3-1 .2-.4.5-.7 1-.9l1.3-.2c.7 0 1.2.1 1.6.5.5.4.7.9.7 1.5a2.2 2.2 0 0 1-.9 1.7 6 6 0 0 1-1 .8v-.3l2.2 2.3h-.3l.5-1.2.2-1.5h1.4a7 7 0 0 1-.3 2l-.8 1.7v-.4a4.7 4.7 0 0 0 1.7 1.1l-.5 1.2Zm-4.8-1.3a2.6 2.6 0 0 0 2-1v.4l-2.7-2.7h.7l-.4.2a5 5 0 0 0-.7.5 2 2 0 0 0-.5.6l-.1.7c0 .4.1.7.4 1 .3.2.7.3 1.3.3Zm.3-7c-.3 0-.6 0-.8.3a1 1 0 0 0-.3.7v.5l.4.5.5.6h-.4l1.2-.8c.3-.3.4-.5.4-.9a1 1 0 0 0-.3-.7 1 1 0 0 0-.7-.2Zm9.3 3.3v-1.7h1.9v1.8H273Zm0 4.9V221h1.9v1.8H273ZM90.7 242.7l-1.2-.5-1-.8h.4l-1.4 1c-.5.2-1 .3-1.7.3-.6 0-1.2 0-1.7-.3a2 2 0 0 1-1.1-.9c-.3-.3-.4-.8-.4-1.3s.2-1 .5-1.5a4 4 0 0 1 1.4-1.1l.5-.3-.3.3-.8-1-.3-1.1c0-.5.1-.9.3-1.2.2-.3.5-.6 1-.7.3-.2.8-.3 1.3-.3.7 0 1.2.2 1.6.5.5.4.7.9.7 1.5a2.2 2.2 0 0 1-.8 1.7 6 6 0 0 1-1.2.8v-.3l2.3 2.3h-.3l.5-1.2.2-1.5h1.4c0 .7-.1 1.4-.3 2l-.8 1.7v-.4a4.8 4.8 0 0 0 1.7 1.1l-.5 1.2Zm-4.8-1.2a2.6 2.6 0 0 0 2-1v.4l-2.7-2.8h.7l-.4.2a5 5 0 0 0-.7.6 2 2 0 0 0-.5.5l-.1.7c0 .4.1.8.4 1 .3.2.8.4 1.3.4Zm.3-7.1c-.3 0-.6 0-.8.3a1 1 0 0 0-.3.7v.5l.4.5.5.6h-.4c.6-.3 1-.5 1.2-.8.3-.2.4-.5.4-.8 0-.3-.1-.6-.3-.7a1 1 0 0 0-.7-.3Zm14.3 8.3-1.1-.5-1-.8h.4l-1.4 1a5 5 0 0 1-1.7.3c-.7 0-1.3 0-1.8-.3-.4-.2-.8-.5-1-.9-.3-.3-.5-.8-.5-1.3s.2-1 .6-1.5a4 4 0 0 1 1.4-1.1l.4-.3-.2.3c-.4-.4-.7-.7-.8-1l-.3-1.1c0-.5 0-.9.3-1.2.2-.3.5-.6.9-.7.4-.2.8-.3 1.4-.3.6 0 1.2.2 1.6.5.4.4.6.9.6 1.5a2.2 2.2 0 0 1-.8 1.7 6 6 0 0 1-1.1.8v-.3l2.3 2.3h-.3l.5-1.2.2-1.5h1.4c0 .7-.2 1.4-.4 2-.2.6-.4 1.2-.8 1.7v-.4a4.8 4.8 0 0 0 1.8 1.1l-.6 1.2Zm-4.7-1.2a2.6 2.6 0 0 0 2-1v.4l-2.7-2.8h.6l-.3.2a5 5 0 0 0-.8.6 2 2 0 0 0-.4.5l-.1.7c0 .4.1.8.4 1 .3.2.7.4 1.3.4Zm.3-7.1c-.4 0-.6 0-.8.3a1 1 0 0 0-.3.7v.5l.4.5.5.6h-.4c.5-.3 1-.5 1.2-.8.2-.2.4-.5.4-.8 0-.3-.1-.6-.3-.7a1 1 0 0 0-.7-.3Zm14.3 8.3-1.1-.5-1-.8h.3a4.4 4.4 0 0 1-3 1.3c-.7 0-1.3 0-1.8-.3-.5-.2-.8-.5-1.1-.9-.3-.3-.4-.8-.4-1.3s.2-1 .5-1.5c.4-.4.8-.8 1.5-1.1l.4-.3-.3.3-.8-1-.3-1.1c0-.5.1-.9.4-1.2.2-.3.5-.6.9-.7a3.1 3.1 0 0 1 3 .2c.4.4.6.9.6 1.5a2.2 2.2 0 0 1-.8 1.7 6 6 0 0 1-1.2.8v-.3l2.4 2.3h-.4l.5-1.2.3-1.5h1.3c0 .7-.1 1.4-.3 2l-.8 1.7v-.4a4.8 4.8 0 0 0 1.8 1.1l-.6 1.2Zm-4.8-1.2a2.6 2.6 0 0 0 2.1-1v.4l-2.8-2.8h.7l-.4.2a5 5 0 0 0-.7.6 2 2 0 0 0-.4.5l-.2.7c0 .4.2.8.5 1 .3.2.7.4 1.2.4Zm.3-7.1c-.3 0-.6 0-.8.3a1 1 0 0 0-.3.7l.1.5.3.5.6.6h-.4c.5-.3.9-.5 1.1-.8.3-.2.4-.5.4-.8 0-.3 0-.6-.3-.7a1 1 0 0 0-.7-.3Zm20.1 9.9-.7-.5.5-.8.2-.8.4.4h-1.3v-1.8h1.9v1.2l-.3 1.2c-.1.4-.4.7-.8 1.1Zm-.9-6.5V236h1.9v1.8h-2Zm14.9 4.9-1.2-.5-1-.8h.4l-1.4 1c-.5.2-1 .3-1.7.3-.6 0-1.2 0-1.7-.3a2 2 0 0 1-1.1-.9c-.3-.3-.4-.8-.4-1.3s.2-1 .5-1.5c.4-.4.8-.8 1.4-1.1l.5-.3-.3.3-.8-1-.3-1.1c0-.5.1-.9.3-1.2.3-.3.6-.6 1-.7a3.1 3.1 0 0 1 3 .2c.4.4.6.9.6 1.5a2.2 2.2 0 0 1-.8 1.7 6 6 0 0 1-1.2.8v-.3l2.3 2.3h-.3l.5-1.2.2-1.5h1.4c0 .7-.1 1.4-.3 2l-.8 1.7v-.4a4.7 4.7 0 0 0 1.7 1.1l-.5 1.2Zm-4.8-1.2a2.6 2.6 0 0 0 2-1v.4l-2.7-2.8h.7l-.4.2a5 5 0 0 0-.7.6 2 2 0 0 0-.5.5l-.1.7c0 .4.1.8.4 1 .3.2.8.4 1.3.4Zm.3-7.1c-.3 0-.6 0-.8.3a1 1 0 0 0-.3.7l.1.5.3.5.5.6h-.3c.5-.3.9-.5 1.1-.8.3-.2.4-.5.4-.8 0-.3 0-.6-.3-.7a1 1 0 0 0-.7-.3Zm14.3 8.3-1.1-.5-1-.8h.4a4.4 4.4 0 0 1-3.1 1.3c-.7 0-1.3 0-1.7-.3-.5-.2-1-.5-1.2-.9-.2-.3-.4-.8-.4-1.3s.2-1 .6-1.5a4 4 0 0 1 1.4-1.1l.4-.3-.2.3c-.4-.4-.7-.7-.8-1l-.3-1.1c0-.5 0-.9.3-1.2.2-.3.5-.6.9-.7.4-.2.8-.3 1.4-.3.6 0 1.2.2 1.6.5.4.4.6.9.6 1.5a2.2 2.2 0 0 1-.8 1.7 6 6 0 0 1-1.1.8v-.3l2.3 2.3h-.3l.5-1.2.2-1.5h1.4c0 .7-.2 1.4-.4 2-.2.6-.4 1.2-.8 1.7v-.4a4.8 4.8 0 0 0 1.8 1.1l-.6 1.2Zm-4.7-1.2a2.6 2.6 0 0 0 2-1v.4l-2.7-2.8h.6l-.3.2a5 5 0 0 0-.8.6 2 2 0 0 0-.4.5l-.1.7c0 .4.1.8.4 1 .3.2.7.4 1.3.4Zm.3-7.1c-.4 0-.6 0-.8.3a1 1 0 0 0-.3.7v.5l.4.5.5.6h-.4c.6-.3 1-.5 1.2-.8.2-.2.4-.5.4-.8 0-.3-.1-.6-.3-.7a1 1 0 0 0-.7-.3Zm9.3 8.2v-1.8h1.8v1.8h-1.8Zm103.6.1-1.1-.5-1-.8h.3a4.4 4.4 0 0 1-3 1.3c-.7 0-1.3 0-1.8-.3-.5-.2-.8-.5-1.1-.9-.3-.3-.4-.8-.4-1.3s.2-1 .5-1.5c.4-.4.9-.8 1.5-1.1l.4-.3-.2.3-.9-1c-.2-.4-.2-.8-.2-1.1 0-.5 0-.9.3-1.2.2-.3.5-.6.9-.7.4-.2.8-.3 1.3-.3.7 0 1.3.2 1.7.5.4.4.6.9.6 1.5a2.2 2.2 0 0 1-.8 1.7 6 6 0 0 1-1.1.8v-.3l2.3 2.3h-.4c.3-.3.4-.7.5-1.2l.3-1.5h1.3c0 .7-.1 1.4-.3 2l-.8 1.7v-.4a4.8 4.8 0 0 0 1.8 1.1l-.6 1.2Zm-4.8-1.2a2.6 2.6 0 0 0 2.1-1v.4l-2.7-2.8h.6l-.4.2a5 5 0 0 0-.7.6 2 2 0 0 0-.4.5l-.2.7c0 .4.2.8.5 1 .3.2.7.4 1.2.4Zm.3-7.1c-.3 0-.6 0-.8.3a1 1 0 0 0-.3.7l.1.5.3.5.6.6h-.4c.5-.3 1-.5 1.2-.8.2-.2.3-.5.3-.8 0-.3 0-.6-.2-.7a1 1 0 0 0-.8-.3Zm14.4 8.3-1.2-.5-1-.8h.4l-1.4 1c-.5.2-1 .3-1.7.3s-1.2 0-1.7-.3a2 2 0 0 1-1.1-.9c-.3-.3-.4-.8-.4-1.3s.1-1 .5-1.5a4 4 0 0 1 1.4-1.1l.5-.3-.3.3-.8-1-.3-1.1c0-.5.1-.9.3-1.2.2-.3.5-.6 1-.7.3-.2.8-.3 1.3-.3.7 0 1.2.2 1.6.5.5.4.7.9.7 1.5a2.2 2.2 0 0 1-.9 1.7 6 6 0 0 1-1 .8v-.3l2.2 2.3h-.3l.5-1.2.2-1.5h1.4c0 .7-.1 1.4-.3 2l-.8 1.7v-.4a4.8 4.8 0 0 0 1.7 1.1l-.5 1.2Zm-4.8-1.2a2.6 2.6 0 0 0 2-1v.4l-2.7-2.8h.7l-.4.2a5 5 0 0 0-.7.6 2 2 0 0 0-.5.5l-.1.7c0 .4.1.8.4 1 .3.2.7.4 1.3.4Zm.3-7.1c-.3 0-.6 0-.8.3a1 1 0 0 0-.3.7v.5l.4.5.5.6h-.4c.6-.3 1-.5 1.2-.8.3-.2.4-.5.4-.8 0-.3-.1-.6-.3-.7a1 1 0 0 0-.7-.3Zm14.3 8.3-1.1-.5-1-.8h.4l-1.4 1a5 5 0 0 1-1.7.3c-.7 0-1.3 0-1.8-.3-.4-.2-.8-.5-1-.9-.3-.3-.5-.8-.5-1.3s.2-1 .6-1.5a4 4 0 0 1 1.4-1.1l.4-.3-.2.3-.9-1-.2-1.1c0-.5 0-.9.3-1.2.2-.3.5-.6.9-.7.4-.2.8-.3 1.4-.3.6 0 1.2.2 1.6.5.4.4.6.9.6 1.5a2.2 2.2 0 0 1-.8 1.7 6 6 0 0 1-1.1.8v-.3l2.3 2.3h-.3l.5-1.2.2-1.5h1.4c0 .7-.2 1.4-.4 2-.2.6-.4 1.2-.8 1.7v-.4a4.8 4.8 0 0 0 1.8 1.1l-.6 1.2Zm-4.7-1.2a2.6 2.6 0 0 0 2-1v.4l-2.7-2.8h.6l-.3.2a5 5 0 0 0-.8.6 2 2 0 0 0-.4.5l-.2.7c0 .4.2.8.5 1 .3.2.7.4 1.3.4Zm.3-7.1c-.4 0-.6 0-.8.3a1 1 0 0 0-.3.7v.5l.3.5.6.6h-.4c.5-.3 1-.5 1.2-.8.2-.2.4-.5.4-.8 0-.3-.1-.6-.3-.7a1 1 0 0 0-.8-.3Zm10.1 9.9-.7-.5.6-.8.2-.8.4.4h-1.3v-1.8h1.8v1.2c0 .4 0 .8-.2 1.2l-.8 1.1Zm-.8-6.5V236h1.8v1.8H283ZM90.7 262.4l-1.2-.5-1-.8h.4a4.4 4.4 0 0 1-3 1.3c-.7 0-1.3 0-1.8-.3-.5-.2-.9-.5-1.1-.8a2 2 0 0 1-.4-1.3c0-.6.2-1.1.5-1.5.3-.5.8-.9 1.4-1.2l.5-.3-.3.3-.8-1a2.4 2.4 0 0 1 0-2.3c.2-.3.5-.5 1-.7.3-.2.8-.3 1.3-.3.7 0 1.2.2 1.6.6.5.3.7.8.7 1.4a2.2 2.2 0 0 1-.8 1.8 6 6 0 0 1-1.2.7v-.3l2.3 2.4h-.3l.5-1.3.2-1.5h1.4a6.4 6.4 0 0 1-1.1 3.7v-.4a4.7 4.7 0 0 0 1.7 1.2l-.5 1.1Zm-4.8-1.2a2.6 2.6 0 0 0 2-1v.4l-2.7-2.8h.7l-.4.2a5 5 0 0 0-.7.6 2 2 0 0 0-.5.6l-.1.7c0 .4.1.7.4 1 .3.2.8.3 1.3.3Zm.3-7c-.3 0-.6 0-.8.2a1 1 0 0 0-.3.8v.4l.4.5.5.6h-.4c.6-.3 1-.5 1.2-.8.3-.2.4-.5.4-.8 0-.3-.1-.6-.3-.7a1 1 0 0 0-.7-.3Zm14.3 8.2-1.1-.5-1-.8h.4a4.4 4.4 0 0 1-3.1 1.3c-.7 0-1.3 0-1.8-.3-.4-.2-.8-.5-1-.8-.3-.4-.5-.8-.5-1.3 0-.6.2-1.1.6-1.5.3-.5.8-.9 1.4-1.2l.4-.3-.2.3c-.4-.3-.7-.7-.8-1-.2-.4-.3-.7-.3-1.1 0-.5 0-.8.3-1.2.2-.3.5-.5.9-.7.4-.2.8-.3 1.4-.3.6 0 1.2.2 1.6.6.4.3.6.8.6 1.4a2.2 2.2 0 0 1-.8 1.8 6 6 0 0 1-1.1.7v-.3l2.3 2.4h-.3l.5-1.3.2-1.5h1.4c0 .7-.2 1.4-.4 2-.2.7-.4 1.2-.8 1.7v-.4a4.7 4.7 0 0 0 1.8 1.2l-.6 1.1Zm-4.7-1.2a2.6 2.6 0 0 0 2-1v.4l-2.7-2.8h.6l-.3.2a5 5 0 0 0-.8.6 2 2 0 0 0-.4.6l-.1.7c0 .4.1.7.4 1 .3.2.7.3 1.3.3Zm.3-7c-.4 0-.6 0-.8.2a1 1 0 0 0-.3.8v.4l.4.5c0 .2.3.4.5.6h-.4c.5-.3 1-.5 1.2-.8.2-.2.4-.5.4-.8 0-.3-.1-.6-.3-.7a1 1 0 0 0-.7-.3Zm14.3 8.2-1.1-.5-1-.8h.3a4.4 4.4 0 0 1-4.8 1c-.5-.2-.8-.5-1.1-.8a2 2 0 0 1-.4-1.3c0-.6.2-1.1.5-1.5.4-.5.8-.9 1.5-1.2l.4-.3-.3.3-.8-1c-.2-.4-.3-.7-.3-1.1 0-.5.1-.8.4-1.2.2-.3.5-.5.9-.7.3-.2.8-.3 1.3-.3.7 0 1.2.2 1.7.6.4.3.6.8.6 1.4a2.2 2.2 0 0 1-.8 1.8 6 6 0 0 1-1.2.7v-.3l2.4 2.4h-.4l.5-1.3.3-1.5h1.3a6.4 6.4 0 0 1-1.1 3.7v-.4a4.7 4.7 0 0 0 1.8 1.2l-.6 1.1Zm-4.8-1.2a2.6 2.6 0 0 0 2.1-1v.4l-2.8-2.8h.7l-.4.2a5 5 0 0 0-.7.6 2 2 0 0 0-.4.6l-.2.7c0 .4.2.7.5 1 .3.2.7.3 1.2.3Zm.3-7c-.3 0-.6 0-.8.2a1 1 0 0 0-.3.8l.1.4c0 .2.2.3.3.5l.6.6h-.4c.5-.3.9-.5 1.1-.8.3-.2.4-.5.4-.8 0-.3 0-.6-.3-.7a1 1 0 0 0-.7-.3Zm14.4 8.2-1.2-.5-1-.8h.4a4.4 4.4 0 0 1-3.1 1.3c-.7 0-1.2 0-1.7-.3-.5-.2-.9-.5-1.1-.8a2 2 0 0 1-.4-1.3c0-.6.1-1.1.5-1.5.3-.5.8-.9 1.4-1.2l.5-.3-.3.3c-.4-.3-.6-.7-.8-1a2.4 2.4 0 0 1 0-2.3c.2-.3.5-.5 1-.7.3-.2.8-.3 1.3-.3.7 0 1.2.2 1.6.6.5.3.7.8.7 1.4a2.2 2.2 0 0 1-.9 1.8 6 6 0 0 1-1.1.7v-.3l2.3 2.4h-.3l.5-1.3.2-1.5h1.4c0 .7-.2 1.4-.4 2-.2.7-.4 1.2-.8 1.7v-.4a4.7 4.7 0 0 0 1.8 1.2l-.5 1.1Zm-4.8-1.2a2.6 2.6 0 0 0 2-1v.4l-2.7-2.8h.7l-.4.2a5 5 0 0 0-.8.6 2 2 0 0 0-.4.6l-.1.7c0 .4.1.7.4 1 .3.2.7.3 1.3.3Zm.3-7c-.4 0-.6 0-.8.2a1 1 0 0 0-.3.8v.4l.4.5.5.6h-.4c.6-.3 1-.5 1.2-.8.3-.2.4-.5.4-.8 0-.3-.1-.6-.3-.7a1 1 0 0 0-.7-.3Zm14.3 8.2-1.1-.5-1-.8h.3a4.4 4.4 0 0 1-3 1.3c-.7 0-1.3 0-1.8-.3a2.2 2.2 0 0 1-1.5-2.2c0-.5.2-1 .5-1.4.4-.5.9-.9 1.5-1.2l.4-.3-.2.3-.9-1-.2-1.1c0-.5 0-.8.3-1.2.2-.3.5-.5.9-.7.4-.2.8-.3 1.3-.3.7 0 1.3.2 1.7.6.4.3.6.8.6 1.4a2.2 2.2 0 0 1-.8 1.8 6 6 0 0 1-1.1.7v-.3l2.3 2.4h-.4c.3-.4.4-.8.6-1.3l.2-1.5h1.3c0 .7 0 1.4-.3 2-.2.7-.5 1.2-.8 1.7v-.4a4.7 4.7 0 0 0 1.8 1.2l-.6 1.1Zm-4.7-1.2a2.6 2.6 0 0 0 2-1v.4l-2.7-2.8h.6l-.4.2a5 5 0 0 0-.7.6 2 2 0 0 0-.4.6l-.2.7c0 .4.2.7.5 1 .3.2.7.3 1.3.3Zm.2-7c-.3 0-.6 0-.8.2a1 1 0 0 0-.3.8l.1.4.3.5.6.6h-.4c.5-.3 1-.5 1.2-.8.2-.2.3-.5.3-.8 0-.3 0-.6-.2-.7a1 1 0 0 0-.8-.3Zm14.4 8.2-1.2-.5-1-.8h.4l-1.4 1c-.5.2-1 .3-1.7.3-.6 0-1.2 0-1.7-.3-.5-.2-.9-.5-1.1-.8a2 2 0 0 1-.4-1.3c0-.6.2-1.1.5-1.5a4 4 0 0 1 1.4-1.2l.5-.3-.3.3-.8-1a2.4 2.4 0 0 1 0-2.3l1-.7c.3-.2.8-.3 1.3-.3.7 0 1.2.2 1.7.6.4.3.6.8.6 1.4a2.2 2.2 0 0 1-.8 1.8 6 6 0 0 1-1.2.7v-.3l2.3 2.4h-.3l.5-1.3.2-1.5h1.4a6.4 6.4 0 0 1-1.1 3.7v-.4a4.6 4.6 0 0 0 1.7 1.2l-.5 1.1Zm-4.8-1.2a2.6 2.6 0 0 0 2-1v.4l-2.7-2.8h.7l-.4.2a5 5 0 0 0-.7.6 2 2 0 0 0-.5.6l-.1.7c0 .4.1.7.4 1 .3.2.8.3 1.3.3Zm.3-7c-.3 0-.6 0-.8.2a1 1 0 0 0-.3.8l.1.4c0 .2.2.3.3.5l.5.6h-.3c.5-.3.9-.5 1.1-.8.3-.2.4-.5.4-.8 0-.3 0-.6-.3-.7a1 1 0 0 0-.7-.3Zm14.3 8.2-1.1-.5-1-.8h.4a4.4 4.4 0 0 1-4.8 1c-.5-.2-1-.5-1.2-.8-.2-.4-.4-.8-.4-1.3 0-.6.2-1.1.6-1.5.3-.5.8-.9 1.4-1.2l.4-.3-.2.3c-.4-.3-.7-.7-.8-1-.2-.4-.3-.7-.3-1.1 0-.5 0-.8.3-1.2.2-.3.5-.5.9-.7.4-.2.8-.3 1.4-.3.6 0 1.2.2 1.6.6.4.3.6.8.6 1.4a2.2 2.2 0 0 1-.8 1.8 6 6 0 0 1-1.1.7v-.3l2.3 2.4h-.3l.5-1.3.2-1.5h1.4c0 .7-.2 1.4-.4 2-.2.7-.4 1.2-.8 1.7v-.4a4.7 4.7 0 0 0 1.8 1.2l-.6 1.1Zm-4.7-1.2a2.6 2.6 0 0 0 2-1v.4l-2.7-2.8h.6l-.3.2a5 5 0 0 0-.8.6 2 2 0 0 0-.4.6l-.1.7c0 .4.1.7.4 1 .3.2.7.3 1.3.3Zm.3-7c-.4 0-.6 0-.8.2a1 1 0 0 0-.3.8v.4l.4.5.5.6h-.4c.6-.3 1-.5 1.2-.8.2-.2.4-.5.4-.8 0-.3-.1-.6-.3-.7a1 1 0 0 0-.7-.3Zm14.3 8.2-1.1-.5-1-.8h.3a4.4 4.4 0 0 1-4.8 1c-.5-.2-.8-.5-1.1-.8a2 2 0 0 1-.4-1.3c0-.6.2-1.1.5-1.5.4-.5.8-.9 1.5-1.2l.4-.3-.2.3-.9-1c-.2-.4-.3-.7-.3-1.1 0-.5.2-.8.4-1.2.2-.3.5-.5.9-.7.3-.2.8-.3 1.3-.3.7 0 1.2.2 1.7.6.4.3.6.8.6 1.4a2.2 2.2 0 0 1-.8 1.8 6 6 0 0 1-1.2.7v-.3l2.4 2.4h-.4l.5-1.3.3-1.5h1.3a6.4 6.4 0 0 1-1.1 3.7v-.4a4.7 4.7 0 0 0 1.8 1.2l-.6 1.1Zm-4.8-1.2a2.6 2.6 0 0 0 2.1-1v.4l-2.8-2.8h.7l-.4.2a5 5 0 0 0-.7.6 2 2 0 0 0-.4.6l-.2.7c0 .4.2.7.5 1 .3.2.7.3 1.2.3Zm.3-7c-.3 0-.6 0-.8.2a1 1 0 0 0-.3.8l.1.4c0 .2.2.3.3.5l.6.6h-.4c.5-.3.9-.5 1.1-.8.3-.2.4-.5.4-.8 0-.3 0-.6-.3-.7a1 1 0 0 0-.7-.3Zm113 8.2-1.2-.5-1-.8h.4a4.4 4.4 0 0 1-3 1.3c-.8 0-1.3 0-1.8-.3-.5-.2-.9-.5-1.1-.8a2 2 0 0 1-.4-1.3c0-.6.1-1.1.5-1.5.3-.5.8-.9 1.4-1.2l.5-.3-.3.3c-.4-.3-.6-.7-.8-1a2.4 2.4 0 0 1 0-2.3c.2-.3.5-.5 1-.7.3-.2.8-.3 1.3-.3.7 0 1.2.2 1.6.6.5.3.7.8.7 1.4a2.2 2.2 0 0 1-.9 1.8 6 6 0 0 1-1 .7v-.3l2.2 2.4h-.3l.5-1.3.2-1.5h1.4a6.4 6.4 0 0 1-1.1 3.7v-.4a4.7 4.7 0 0 0 1.7 1.2l-.5 1.1Zm-4.8-1.2a2.6 2.6 0 0 0 2-1v.4l-2.7-2.8h.7l-.4.2a5 5 0 0 0-.7.6 2 2 0 0 0-.5.6l-.1.7c0 .4.1.7.4 1 .3.2.7.3 1.3.3Zm.3-7c-.3 0-.6 0-.8.2a1 1 0 0 0-.3.8v.4l.4.5.5.6h-.4c.6-.3 1-.5 1.2-.8.3-.2.4-.5.4-.8 0-.3-.1-.6-.3-.7a1 1 0 0 0-.7-.3Zm14.3 8.2-1.1-.5-1-.8h.4a4.4 4.4 0 0 1-3.1 1.3c-.7 0-1.3 0-1.8-.3-.4-.2-.8-.5-1-.8-.3-.4-.5-.8-.5-1.3 0-.6.2-1.1.6-1.5.3-.5.8-.9 1.4-1.2l.4-.3-.2.3-.9-1-.2-1.1c0-.5 0-.8.3-1.2.2-.3.5-.5.9-.7.4-.2.8-.3 1.4-.3.6 0 1.2.2 1.6.6.4.3.6.8.6 1.4a2.2 2.2 0 0 1-.8 1.8 6 6 0 0 1-1.1.7v-.3l2.3 2.4h-.3l.5-1.3.2-1.5h1.4c0 .7-.2 1.4-.4 2-.2.7-.4 1.2-.8 1.7v-.4a4.7 4.7 0 0 0 1.8 1.2l-.6 1.1Zm-4.7-1.2a2.6 2.6 0 0 0 2-1v.4l-2.7-2.8h.6l-.3.2a5 5 0 0 0-.8.6 2 2 0 0 0-.4.6l-.2.7c0 .4.2.7.5 1 .3.2.7.3 1.3.3Zm.3-7c-.4 0-.6 0-.8.2a1 1 0 0 0-.3.8v.4l.3.5.6.6h-.4c.5-.3 1-.5 1.2-.8.2-.2.4-.5.4-.8 0-.3-.1-.6-.3-.7a1 1 0 0 0-.8-.3Zm14.3 8.2-1.1-.5-1-.8h.3a4.1 4.1 0 0 1-3 1.3c-.7 0-1.3 0-1.8-.3-.5-.2-.9-.5-1.1-.8a2 2 0 0 1-.4-1.3c0-.6.2-1.1.5-1.5a4 4 0 0 1 1.4-1.2l.5-.3-.3.3-.8-1a2.4 2.4 0 0 1 0-2.3l1-.7c.3-.2.8-.3 1.3-.3.7 0 1.2.2 1.7.6.4.3.6.8.6 1.4a2.2 2.2 0 0 1-.8 1.8 6 6 0 0 1-1.2.7v-.3l2.4 2.4h-.4l.5-1.3.3-1.5h1.3a6.4 6.4 0 0 1-1.1 3.7v-.4a4.6 4.6 0 0 0 1.8 1.2l-.6 1.1Zm-4.8-1.2a2.6 2.6 0 0 0 2.1-1v.4l-2.8-2.8h.7l-.4.2a5 5 0 0 0-.7.6 2 2 0 0 0-.4.6l-.2.7c0 .4.2.7.5 1 .2.2.7.3 1.2.3Zm.3-7c-.3 0-.6 0-.8.2a1 1 0 0 0-.3.8l.1.4c0 .2.2.3.3.5l.6.6h-.4c.5-.3.9-.5 1.1-.8.3-.2.4-.5.4-.8 0-.3 0-.6-.3-.7a1 1 0 0 0-.7-.3Zm14.4 8.2-1.2-.5-1-.8h.4l-1.4 1c-.5.2-1.1.3-1.7.3-.7 0-1.2 0-1.7-.3-.5-.2-.9-.5-1.2-.8-.2-.4-.3-.8-.3-1.3 0-.6.1-1.1.5-1.5.3-.5.8-.9 1.4-1.2l.4-.3-.2.3c-.4-.3-.6-.7-.8-1a2.4 2.4 0 0 1 0-2.3c.2-.3.5-.5 1-.7.3-.2.8-.3 1.3-.3.6 0 1.2.2 1.6.6.4.3.7.8.7 1.4a2.2 2.2 0 0 1-.9 1.8 6 6 0 0 1-1.1.7v-.3l2.3 2.4h-.3l.5-1.3.2-1.5h1.4c0 .7-.2 1.4-.4 2-.2.7-.4 1.2-.8 1.7v-.4a4.6 4.6 0 0 0 1.8 1.2l-.5 1.1Zm-4.8-1.2a2.6 2.6 0 0 0 2-1v.4l-2.7-2.8h.7l-.4.2a5 5 0 0 0-.8.6 2 2 0 0 0-.4.6l-.1.7c0 .4.1.7.4 1 .3.2.7.3 1.3.3Zm.3-7c-.4 0-.6 0-.8.2a1 1 0 0 0-.3.8v.4l.4.5.5.6h-.4c.6-.3 1-.5 1.2-.8.2-.2.4-.5.4-.8 0-.3-.1-.6-.3-.7a1 1 0 0 0-.7-.3Zm14.3 8.2-1.1-.5-1-.8h.3a4.4 4.4 0 0 1-4.8 1 2.2 2.2 0 0 1-1.5-2.2c0-.5.2-1 .5-1.4.4-.5.9-.9 1.5-1.2l.4-.3-.2.3-.9-1c-.2-.4-.2-.7-.2-1.1 0-.5 0-.8.3-1.2.2-.3.5-.5.9-.7.4-.2.8-.3 1.3-.3.7 0 1.3.2 1.7.6.4.3.6.8.6 1.4a2.2 2.2 0 0 1-.8 1.8 6 6 0 0 1-1.1.7v-.3l2.3 2.4h-.4c.3-.4.4-.8.6-1.3l.2-1.5h1.3a6.4 6.4 0 0 1-1.1 3.7v-.4a4.7 4.7 0 0 0 1.8 1.2l-.6 1.1Zm-4.8-1.2a2.6 2.6 0 0 0 2.1-1v.4l-2.7-2.8h.6l-.4.2a5 5 0 0 0-.7.6 2 2 0 0 0-.4.6l-.2.7c0 .4.2.7.5 1 .3.2.7.3 1.2.3Zm.3-7c-.3 0-.6 0-.8.2a1 1 0 0 0-.3.8l.1.4c0 .2.2.3.3.5l.6.6h-.4c.5-.3 1-.5 1.2-.8.2-.2.3-.5.3-.8 0-.3 0-.6-.2-.7a1 1 0 0 0-.8-.3Zm5.9 8.1 3.7-5v.7l-3.6-4.9h2l2.6 3.7h-.6l2.7-3.7h2L314 258v-.7l3.8 5h-2l-2.8-3.8h.6l-2.8 3.8h-2ZM86.5 283.8l-.7-.6c.3-.3.5-.5.6-.8l.2-.8.4.4h-1.3v-1.8h1.8v1.2c0 .5 0 .9-.2 1.2-.2.4-.4.8-.8 1.2Zm-.8-6.5v-1.8h1.8v1.8h-1.8Zm14.8 4.9-1.1-.6-1-.8h.4a4.1 4.1 0 0 1-3 1.3c-.8 0-1.4 0-1.9-.3-.4-.2-.8-.4-1-.8-.3-.4-.5-.8-.5-1.3 0-.6.2-1.1.6-1.5.3-.4.8-.8 1.4-1.2l.4-.2-.2.3-.8-1.1c-.2-.4-.3-.7-.3-1.1 0-.4 0-.8.3-1.1.2-.4.5-.6.9-.8.4-.2.8-.3 1.4-.3.6 0 1.2.2 1.6.6.4.3.6.8.6 1.4a2.2 2.2 0 0 1-.8 1.8 6 6 0 0 1-1.1.8v-.4l2.3 2.4h-.3l.5-1.3.2-1.5h1.4c0 .7-.2 1.4-.4 2-.2.7-.4 1.2-.8 1.7v-.4a4.8 4.8 0 0 0 1.8 1.2l-.6 1.2Zm-4.7-1.3a2.6 2.6 0 0 0 2-1v.4l-2.7-2.8h.6l-.3.3a5 5 0 0 0-.8.5 2 2 0 0 0-.4.6l-.1.7c0 .4.1.7.4 1 .3.2.7.3 1.3.3Zm.3-7c-.4 0-.6 0-.8.2a1 1 0 0 0-.3.8v.4l.4.5c0 .2.3.4.5.6h-.4l1.2-.7c.2-.3.4-.6.4-.9a1 1 0 0 0-.3-.7 1 1 0 0 0-.7-.3Zm14.3 8.3-1.1-.6-1-.8h.3a4.4 4.4 0 0 1-3 1.4c-.7 0-1.3-.1-1.8-.4-.5-.2-.8-.4-1.1-.8a2 2 0 0 1-.4-1.3c0-.6.2-1.1.5-1.5.4-.4.8-.8 1.5-1.2l.4-.2-.3.3-.8-1.1c-.2-.4-.3-.7-.3-1.1 0-.4.1-.8.4-1.1.2-.4.5-.6.9-.8.3-.2.8-.3 1.3-.3.7 0 1.2.2 1.7.6.4.3.6.8.6 1.4a2.2 2.2 0 0 1-.8 1.8 6 6 0 0 1-1.2.8v-.4l2.4 2.4h-.4l.5-1.3c.2-.4.2-1 .3-1.5h1.3a6.4 6.4 0 0 1-1.1 3.7v-.4a4.8 4.8 0 0 0 1.8 1.2l-.6 1.2Zm-4.8-1.3a2.6 2.6 0 0 0 2.1-1v.4l-2.8-2.8h.7l-.4.3a5 5 0 0 0-.7.5 2 2 0 0 0-.4.6l-.2.7c0 .4.2.7.5 1 .3.2.7.3 1.2.3Zm.3-7c-.3 0-.6 0-.8.2a1 1 0 0 0-.3.8l.1.4a19.3 19.3 0 0 0 .8 1l-.3.2 1.1-.8c.3-.3.4-.6.4-.9 0-.3 0-.5-.3-.7a1 1 0 0 0-.7-.3Zm14.4 8.3-1.2-.6-1-.8h.4a4.1 4.1 0 0 1-3 1.3c-.8 0-1.3 0-1.8-.3-.5-.2-.9-.4-1.1-.8a2 2 0 0 1-.4-1.3c0-.6.1-1.1.5-1.5.3-.4.8-.8 1.4-1.2l.5-.2-.3.3-.8-1.1c-.2-.4-.3-.7-.3-1.1 0-.4.1-.8.3-1.1.2-.4.5-.6 1-.8.3-.2.8-.3 1.3-.3.7 0 1.2.2 1.6.6.5.3.7.8.7 1.4a2.2 2.2 0 0 1-.9 1.8 6 6 0 0 1-1.1.8v-.4l2.3 2.4h-.3l.5-1.3.2-1.5h1.4c0 .7-.2 1.4-.4 2-.2.7-.4 1.2-.8 1.7v-.4a4.8 4.8 0 0 0 1.8 1.2l-.5 1.2Zm-4.8-1.3a2.6 2.6 0 0 0 2-1v.4l-2.7-2.8h.7l-.4.3a5 5 0 0 0-.8.5 2 2 0 0 0-.4.6l-.1.7c0 .4.1.7.4 1 .3.2.7.3 1.3.3Zm.3-7c-.4 0-.6 0-.8.2a1 1 0 0 0-.3.8v.4l.4.5.5.6h-.4c.6-.2 1-.5 1.2-.7.3-.3.4-.6.4-.9a1 1 0 0 0-.3-.7 1 1 0 0 0-.7-.3Zm14.3 8.3-1.1-.6-1-.8h.3c-.4.4-.8.8-1.3 1-.6.2-1.1.4-1.7.4-.7 0-1.3-.1-1.8-.4-.5-.2-.8-.4-1-.8-.3-.4-.5-.8-.5-1.3 0-.6.2-1.1.5-1.5l1.5-1.2.4-.2-.2.3-.9-1.1-.2-1.1c0-.4 0-.8.3-1.1.2-.4.5-.6.9-.8.4-.2.8-.3 1.3-.3.7 0 1.3.2 1.7.6.4.3.6.8.6 1.4a2.2 2.2 0 0 1-.8 1.8 6 6 0 0 1-1.1.8v-.4l2.3 2.4h-.4c.3-.4.4-.8.6-1.3l.2-1.5h1.3c0 .7 0 1.4-.3 2-.2.7-.5 1.2-.8 1.7v-.4a4.8 4.8 0 0 0 1.8 1.2l-.6 1.2Zm-4.7-1.3a2.6 2.6 0 0 0 2-1v.4l-2.7-2.8h.6l-.4.3a5 5 0 0 0-.7.5 2 2 0 0 0-.4.6l-.2.7c0 .4.2.7.5 1 .3.2.7.3 1.3.3Zm.2-7c-.3 0-.6 0-.8.2a1 1 0 0 0-.3.8l.1.4.3.5.6.6h-.4l1.2-.7.3-.9c0-.3 0-.5-.2-.7a1 1 0 0 0-.8-.3Zm9.8 9.6v-1.7l.3.3-1.8-.3-1.5-.7.6-1.3a4.9 4.9 0 0 0 2.9.9c.6 0 1.1-.1 1.4-.3.3-.3.5-.6.5-1 0-.2-.1-.4-.4-.6-.2-.2-.5-.3-1-.4l-1.4-.3c-.8-.2-1.4-.5-1.8-.9-.4-.4-.6-1-.6-1.6 0-.5.2-1 .4-1.4l1-1 1.6-.4-.2.2v-1.6h1.3v1.6l-.3-.2 1.5.3c.5.2.9.4 1.2.7l-.5 1.3-1.1-.7a4 4 0 0 0-1.4-.2c-.6 0-1 .1-1.4.4-.3.2-.5.5-.5 1 0 .2.1.5.3.7l1 .4 1.4.3c.9.2 1.5.4 1.9.8.4.4.6 1 .6 1.6 0 .5-.1 1-.4 1.3l-1 1-1.6.4.3-.3v1.7h-1.3Zm14.4-1.3-1.1-.6-1-.8h.4a4.4 4.4 0 0 1-3.1 1.4c-.7 0-1.3-.1-1.7-.4-.5-.2-1-.4-1.2-.8-.2-.4-.4-.8-.4-1.3 0-.6.2-1.1.6-1.5.3-.4.8-.8 1.4-1.2l.4-.2-.2.3-.8-1.1c-.2-.4-.3-.7-.3-1.1 0-.4 0-.8.3-1.1.2-.4.5-.6.9-.8.4-.2.8-.3 1.4-.3.6 0 1.2.2 1.6.6.4.3.6.8.6 1.4a2.2 2.2 0 0 1-.8 1.8 6 6 0 0 1-1.1.8v-.4l2.3 2.4h-.3l.5-1.3.2-1.5h1.4c0 .7-.2 1.4-.4 2-.2.7-.4 1.2-.8 1.7v-.4a4.8 4.8 0 0 0 1.8 1.2l-.6 1.2Zm-4.7-1.3a2.6 2.6 0 0 0 2-1v.4l-2.7-2.8h.6l-.3.3a5 5 0 0 0-.8.5 2 2 0 0 0-.4.6l-.1.7c0 .4.1.7.4 1 .3.2.7.3 1.3.3Zm.3-7c-.4 0-.6 0-.8.2a1 1 0 0 0-.3.8v.4l.4.5.5.6h-.4c.6-.2 1-.5 1.2-.7.2-.3.4-.6.4-.9a1 1 0 0 0-.3-.7 1 1 0 0 0-.7-.3Zm14.3 8.3-1.1-.6-1-.8h.3a4.4 4.4 0 0 1-3 1.4c-.7 0-1.3-.1-1.8-.4-.5-.2-.8-.4-1.1-.8a2 2 0 0 1-.4-1.3c0-.6.2-1.1.5-1.5.4-.4.8-.8 1.5-1.2l.4-.2-.2.3-.9-1.1c-.2-.4-.3-.7-.3-1.1 0-.4.2-.8.4-1.1.2-.4.5-.6.9-.8.3-.2.8-.3 1.3-.3.7 0 1.2.2 1.7.6.4.3.6.8.6 1.4a2.2 2.2 0 0 1-.8 1.8 6 6 0 0 1-1.2.8v-.4l2.4 2.4h-.4l.5-1.3c.2-.4.2-1 .3-1.5h1.3a6.4 6.4 0 0 1-1.1 3.7v-.4a4.8 4.8 0 0 0 1.8 1.2l-.6 1.2Zm-4.8-1.3a2.6 2.6 0 0 0 2.1-1v.4l-2.8-2.8h.7l-.4.3a5 5 0 0 0-.7.5 2 2 0 0 0-.4.6l-.2.7c0 .4.2.7.5 1 .3.2.7.3 1.2.3Zm.3-7c-.3 0-.6 0-.8.2a1 1 0 0 0-.3.8l.1.4a19.3 19.3 0 0 0 .8 1l-.3.2 1.1-.8c.3-.3.4-.6.4-.9 0-.3 0-.5-.3-.7a1 1 0 0 0-.7-.3Zm9.8 9.6v-1.7l.3.3c-.7 0-1.3-.1-1.8-.3l-1.5-.7.5-1.3a4.8 4.8 0 0 0 3 .9c.6 0 1.1-.1 1.4-.3.3-.3.4-.6.4-1 0-.2 0-.4-.3-.6-.2-.2-.5-.3-1-.4l-1.4-.3c-.8-.2-1.4-.5-1.8-.9-.4-.4-.6-1-.6-1.6 0-.5.1-1 .4-1.4.2-.4.6-.7 1-1l1.6-.4-.2.2v-1.6h1.3v1.6l-.3-.2 1.5.3 1.2.7-.5 1.3-1.2-.7a4 4 0 0 0-1.4-.2c-.5 0-1 .1-1.3.4-.3.2-.5.5-.5 1 0 .2.1.5.3.7l1 .4 1.4.3c.8.2 1.5.4 1.8.8.5.4.7 1 .7 1.6 0 .5-.2 1-.4 1.3l-1 1-1.6.4.3-.3v1.7H165Zm128.1-2V279h-2.6v-1.2h2.6v-2.6h1.2v2.6h2.6v1.2h-2.6v2.6H293Zm14.5.7-1.1-.6-1-.8h.3a4.4 4.4 0 0 1-3 1.4c-.7 0-1.3-.1-1.8-.4-.5-.2-.8-.4-1-.8-.4-.4-.5-.8-.5-1.3 0-.6.2-1.1.5-1.5l1.5-1.2.4-.2-.2.3-.9-1.1c-.2-.4-.2-.7-.2-1.1 0-.4 0-.8.3-1.1.2-.4.5-.6.9-.8.4-.2.8-.3 1.3-.3.7 0 1.3.2 1.7.6.4.3.6.8.6 1.4a2.2 2.2 0 0 1-.8 1.8 6 6 0 0 1-1.1.8v-.4l2.3 2.4h-.4c.3-.4.4-.8.6-1.3l.2-1.5h1.3a6.4 6.4 0 0 1-1.1 3.7v-.4a4.8 4.8 0 0 0 1.8 1.2l-.6 1.2Zm-4.8-1.3a2.6 2.6 0 0 0 2.1-1v.4l-2.7-2.8h.6l-.4.3a5 5 0 0 0-.7.5 2 2 0 0 0-.4.6l-.2.7c0 .4.2.7.5 1 .3.2.7.3 1.2.3Zm.3-7c-.3 0-.6 0-.8.2a1 1 0 0 0-.3.8l.1.4a19.3 19.3 0 0 0 .8 1l-.3.2 1.2-.8.3-.9c0-.3 0-.5-.2-.7a1 1 0 0 0-.8-.3Zm14.4 8.3-1.2-.6-1-.8h.4a4.1 4.1 0 0 1-3 1.3c-.8 0-1.3 0-1.8-.3-.5-.2-.9-.4-1.1-.8a2 2 0 0 1-.4-1.3c0-.6.2-1.1.5-1.5.3-.4.8-.8 1.4-1.2l.5-.2-.3.3-.8-1.1c-.2-.4-.3-.7-.3-1.1 0-.4.1-.8.3-1.1.2-.4.5-.6 1-.8.3-.2.8-.3 1.3-.3.7 0 1.2.2 1.6.6.5.3.7.8.7 1.4a2.2 2.2 0 0 1-.9 1.8 6 6 0 0 1-1 .8v-.4l2.2 2.4h-.3l.5-1.3.2-1.5h1.4a6.4 6.4 0 0 1-1.1 3.7v-.4a4.8 4.8 0 0 0 1.7 1.2l-.5 1.2Zm-4.8-1.3a2.6 2.6 0 0 0 2-1v.4l-2.7-2.8h.7l-.4.3a5 5 0 0 0-.7.5 2 2 0 0 0-.5.6l-.1.7c0 .4.1.7.4 1 .3.2.8.3 1.3.3Zm.3-7c-.3 0-.6 0-.8.2a1 1 0 0 0-.3.8v.4l.4.5.5.6h-.4c.6-.2 1-.5 1.2-.7.3-.3.4-.6.4-.9a1 1 0 0 0-.3-.7 1 1 0 0 0-.7-.3Zm14.3 8.3-1.1-.6-1-.8h.4a4.1 4.1 0 0 1-3 1.3c-.8 0-1.4 0-1.9-.3-.4-.2-.8-.4-1-.8-.3-.4-.5-.8-.5-1.3 0-.6.2-1.1.6-1.5.3-.4.8-.8 1.4-1.2l.4-.2-.2.3-.8-1.1c-.2-.4-.3-.7-.3-1.1 0-.4 0-.8.3-1.1.2-.4.5-.6.9-.8.4-.2.8-.3 1.4-.3.6 0 1.2.2 1.6.6.4.3.6.8.6 1.4a2.2 2.2 0 0 1-.8 1.8 6 6 0 0 1-1.1.8v-.4l2.3 2.4h-.3l.5-1.3.2-1.5h1.4c0 .7-.2 1.4-.4 2-.2.7-.4 1.2-.8 1.7v-.4a4.8 4.8 0 0 0 1.8 1.2l-.6 1.2Zm-4.7-1.3a2.6 2.6 0 0 0 2-1v.4l-2.7-2.8h.6l-.3.3a5 5 0 0 0-.8.5 2 2 0 0 0-.4.6l-.1.7c0 .4.1.7.4 1 .3.2.7.3 1.3.3Zm.3-7c-.4 0-.6 0-.8.2a1 1 0 0 0-.3.8v.4l.4.5c0 .2.3.4.5.6h-.4l1.2-.7c.2-.3.4-.6.4-.9a1 1 0 0 0-.3-.7 1 1 0 0 0-.7-.3Zm14.3 8.3-1.1-.6-1-.8h.3c-.4.4-.8.8-1.4 1a4.4 4.4 0 0 1-3.4 0c-.5-.2-.8-.4-1.1-.8a2 2 0 0 1-.4-1.3c0-.6.2-1.1.5-1.5.4-.4.8-.8 1.5-1.2l.4-.2-.3.3-.8-1.1c-.2-.4-.3-.7-.3-1.1 0-.4.1-.8.4-1.1.2-.4.5-.6.9-.8.3-.2.8-.3 1.3-.3.7 0 1.2.2 1.7.6.4.3.6.8.6 1.4a2.2 2.2 0 0 1-.8 1.8 6 6 0 0 1-1.2.8v-.4l2.4 2.4h-.4l.5-1.3c.2-.4.2-1 .3-1.5h1.3a6.4 6.4 0 0 1-1.1 3.7v-.4a4.7 4.7 0 0 0 1.8 1.2l-.6 1.2Zm-4.8-1.3a2.6 2.6 0 0 0 2.1-1v.4l-2.8-2.8h.7l-.4.3a5 5 0 0 0-.7.5 2 2 0 0 0-.4.6l-.2.7c0 .4.2.7.5 1 .2.2.7.3 1.2.3Zm.3-7c-.3 0-.6 0-.8.2a1 1 0 0 0-.3.8l.1.4c0 .2.2.4.3.5l.6.6h-.4l1.1-.7c.3-.3.4-.6.4-.9 0-.3 0-.5-.3-.7a1 1 0 0 0-.7-.3Zm-187.1 29.6-.6-.5.6-.9.1-.7.4.3H145V300h1.8v1.2c0 .5-.1.9-.3 1.2-.1.4-.4.8-.8 1.2Zm-.7-6.5v-1.8h1.8v1.8h-1.8Zm14.8 4.9c-.4-.2-.8-.3-1.1-.6l-1-.7h.3a4.4 4.4 0 0 1-4.8 1c-.5-.2-.8-.5-1.1-.9a2 2 0 0 1-.4-1.3c0-.6.2-1 .5-1.5.4-.4.8-.8 1.5-1.2l.4-.2-.2.3-.9-1.1a2 2 0 0 1 0-2.2l1-.8c.3-.2.8-.2 1.3-.2.7 0 1.2.1 1.7.5.4.4.6.8.6 1.5a2.2 2.2 0 0 1-.8 1.7 6 6 0 0 1-1.2.8v-.3l2.4 2.3h-.4l.5-1.2c.2-.5.2-1 .3-1.6h1.3a6 6 0 0 1-.3 2c-.2.7-.5 1.3-.8 1.7v-.3a4.7 4.7 0 0 0 1.8 1.1l-.6 1.2Zm-4.8-1.3a2.6 2.6 0 0 0 2.1-1v.4l-2.8-2.7h.7l-.4.2a5 5 0 0 0-.7.5 2 2 0 0 0-.4.6l-.2.7c0 .4.2.7.5 1 .3.2.7.3 1.2.3Zm.3-7c-.3 0-.6 0-.8.2a1 1 0 0 0-.3.8l.1.5.3.4.6.7h-.4l1.1-.8c.3-.3.4-.6.4-.9 0-.3 0-.5-.3-.7a1 1 0 0 0-.7-.2Zm14.4 8.3-1.2-.6-1-.7h.4a4.4 4.4 0 0 1-3.1 1.3c-.7 0-1.2-.1-1.7-.3a2 2 0 0 1-1.1-.9 2 2 0 0 1-.4-1.3c0-.6.1-1 .5-1.5.3-.4.8-.8 1.4-1.2l.5-.2-.3.3-.8-1.1a2 2 0 0 1 0-2.2 2 2 0 0 1 1-.8c.3-.2.8-.2 1.3-.2.7 0 1.2.1 1.6.5.5.4.7.8.7 1.5a2.2 2.2 0 0 1-.9 1.7 6 6 0 0 1-1 .8v-.3l2.2 2.3h-.3l.5-1.2.2-1.6h1.4c0 .8-.2 1.4-.3 2a4 4 0 0 1-.9 1.7v-.3a4.7 4.7 0 0 0 1.8 1.1l-.5 1.2Zm-4.8-1.3a2.6 2.6 0 0 0 2-1v.4l-2.7-2.7h.7l-.4.2a5 5 0 0 0-.7.5 2 2 0 0 0-.5.6l-.1.7c0 .4.1.7.4 1 .3.2.7.3 1.3.3Zm.3-7c-.3 0-.6 0-.8.2a1 1 0 0 0-.3.8v.5l.4.4.5.7h-.4l1.2-.8c.3-.3.4-.6.4-.9a1 1 0 0 0-.3-.7 1 1 0 0 0-.7-.2Zm14.3 8.3c-.4-.2-.8-.3-1.1-.6l-1-.7h.3a4.4 4.4 0 0 1-3 1.3c-.7 0-1.3-.1-1.8-.3-.4-.2-.8-.5-1-.9-.3-.4-.5-.8-.5-1.3 0-.6.2-1 .5-1.5l1.5-1.2.4-.2-.2.3-.9-1.1-.2-1c0-.5 0-.9.3-1.2.2-.3.5-.6.9-.8.4-.2.8-.2 1.3-.2.7 0 1.3.1 1.7.5.4.4.6.8.6 1.5a2.2 2.2 0 0 1-.8 1.7 6 6 0 0 1-1.1.8v-.3l2.3 2.3h-.4l.6-1.2.2-1.6h1.3c0 .8 0 1.4-.3 2-.2.7-.5 1.3-.8 1.7v-.3a4.7 4.7 0 0 0 1.8 1.1l-.6 1.2Zm-4.7-1.3a2.6 2.6 0 0 0 2-1v.4l-2.7-2.7h.6l-.3.2a5 5 0 0 0-.8.5 2 2 0 0 0-.4.6l-.2.7c0 .4.2.7.5 1 .3.2.7.3 1.3.3Zm.2-7c-.3 0-.6 0-.8.2a1 1 0 0 0-.3.8l.1.5.3.4.6.7h-.4l1.2-.8.3-.9c0-.3 0-.5-.2-.7a1 1 0 0 0-.8-.2Zm128.5 9.9-.6-.5.5-.9.2-.7.4.3h-1.3V300h1.8v1.2c0 .5 0 .9-.2 1.2-.1.4-.4.8-.8 1.2Zm-.8-6.5v-1.8h1.8v1.8h-1.8Zm14.9 4.9-1.2-.6-1-.7h.4a4.4 4.4 0 0 1-3 1.3c-.8 0-1.3-.1-1.8-.3a2 2 0 0 1-1.1-.9 2 2 0 0 1-.4-1.3c0-.6.2-1 .5-1.5.3-.4.8-.8 1.4-1.2l.5-.2-.3.3-.8-1.1a2 2 0 0 1 0-2.2 2 2 0 0 1 1-.8c.3-.2.8-.2 1.3-.2.7 0 1.2.1 1.6.5.5.4.7.8.7 1.5a2.2 2.2 0 0 1-.9 1.7 6 6 0 0 1-1 .8v-.3l2.2 2.3h-.3l.5-1.2.2-1.6h1.4a6 6 0 0 1-.3 2c-.2.7-.5 1.3-.8 1.7v-.3a4.7 4.7 0 0 0 1.7 1.1l-.5 1.2Zm-4.8-1.3a2.6 2.6 0 0 0 2-1v.4l-2.7-2.7h.7l-.4.2a5 5 0 0 0-.7.5 2 2 0 0 0-.5.6l-.1.7c0 .4.1.7.4 1 .3.2.8.3 1.3.3Zm.3-7c-.3 0-.6 0-.8.2a1 1 0 0 0-.3.8v.5l.4.4.5.7h-.4l1.2-.8c.3-.3.4-.6.4-.9a1 1 0 0 0-.3-.7 1 1 0 0 0-.7-.2Zm14.3 8.3-1.1-.6-1-.7h.4a4.4 4.4 0 0 1-3.1 1.3c-.7 0-1.3-.1-1.8-.3-.4-.2-.8-.5-1-.9-.3-.4-.5-.8-.5-1.3 0-.6.2-1 .6-1.5.3-.4.8-.8 1.4-1.2l.4-.2-.2.3-.8-1.1a2 2 0 0 1 0-2.2c.2-.3.5-.6.9-.8.4-.2.8-.2 1.4-.2.6 0 1.2.1 1.6.5.4.4.6.8.6 1.5a2.2 2.2 0 0 1-.8 1.7 6 6 0 0 1-1.1.8v-.3l2.3 2.3h-.3l.5-1.2.2-1.6h1.4c0 .8-.2 1.4-.4 2-.2.7-.4 1.3-.8 1.7v-.3a4.7 4.7 0 0 0 1.8 1.1l-.6 1.2Zm-4.7-1.3a2.6 2.6 0 0 0 2-1v.4l-2.7-2.7h.6l-.3.2a5 5 0 0 0-.8.5 2 2 0 0 0-.4.6l-.1.7c0 .4.1.7.4 1 .3.2.7.3 1.3.3Zm.3-7c-.4 0-.6 0-.8.2a1 1 0 0 0-.3.8v.5l.4.4c0 .2.3.4.5.7h-.4l1.2-.8c.2-.3.4-.6.4-.9a1 1 0 0 0-.3-.7 1 1 0 0 0-.7-.2Zm14.3 8.3c-.4-.2-.8-.3-1.1-.6l-1-.7h.3a4.1 4.1 0 0 1-3 1.3c-.7 0-1.3-.1-1.8-.3-.5-.2-.8-.5-1.1-.9a2 2 0 0 1-.4-1.3c0-.6.2-1 .5-1.5.4-.4.8-.8 1.5-1.2l.4-.2-.3.3-.8-1.1a2 2 0 0 1 0-2.2l1-.8c.3-.2.8-.2 1.3-.2.7 0 1.2.1 1.7.5.4.4.6.8.6 1.5a2.2 2.2 0 0 1-.8 1.7 6 6 0 0 1-1.2.8v-.3l2.4 2.3h-.4l.5-1.2c.2-.5.2-1 .3-1.6h1.3a6 6 0 0 1-.3 2c-.2.7-.5 1.3-.8 1.7v-.3a4.6 4.6 0 0 0 1.8 1.1l-.6 1.2Zm-4.8-1.3a2.6 2.6 0 0 0 2.1-1v.4l-2.8-2.7h.7l-.4.2a5 5 0 0 0-.7.5 2 2 0 0 0-.4.6l-.2.7c0 .4.2.7.5 1 .2.2.7.3 1.2.3Zm.3-7c-.3 0-.6 0-.8.2a1 1 0 0 0-.3.8l.1.5.3.4.6.7h-.4l1.1-.8c.3-.3.4-.6.4-.9 0-.3 0-.5-.3-.7a1 1 0 0 0-.7-.2Zm14.3 8.3c-.3-.2-.7-.3-1-.6l-1-.7h.3l-1.4 1c-.5.2-1.1.3-1.7.3-.7 0-1.2-.1-1.7-.3a2 2 0 0 1-1.1-.9 2 2 0 0 1-.4-1.3c0-.6.1-1 .5-1.5.3-.4.8-.8 1.4-1.2l.5-.2-.3.3-.8-1.1a2 2 0 0 1 0-2.2 2 2 0 0 1 1-.8c.3-.2.8-.2 1.3-.2.7 0 1.2.1 1.6.5.5.4.7.8.7 1.5a2.2 2.2 0 0 1-.9 1.7 6 6 0 0 1-1.1.8v-.3l2.3 2.3h-.3l.5-1.2.2-1.6h1.4c0 .8-.2 1.4-.4 2-.2.7-.4 1.3-.8 1.7v-.3a4.6 4.6 0 0 0 1.8 1.1l-.5 1.2Zm-4.7-1.3a2.6 2.6 0 0 0 2-1v.4l-2.7-2.7h.7l-.4.2a5 5 0 0 0-.8.5 2 2 0 0 0-.4.6l-.1.7c0 .4.1.7.4 1 .3.2.7.3 1.3.3Zm.3-7c-.4 0-.6 0-.8.2a1 1 0 0 0-.3.8v.5l.4.4.5.7h-.4l1.2-.8c.3-.3.4-.6.4-.9a1 1 0 0 0-.3-.7 1 1 0 0 0-.7-.2Zm14.4 8.3c-.5-.2-.9-.3-1.2-.6l-1-.7h.3a4.4 4.4 0 0 1-4.8 1c-.5-.2-.8-.5-1-.9-.3-.4-.5-.8-.5-1.3 0-.6.2-1 .5-1.5l1.5-1.2.4-.2-.2.3-.9-1.1-.2-1c0-.5 0-.9.3-1.2.2-.3.5-.6.9-.8.4-.2.8-.2 1.3-.2.7 0 1.3.1 1.7.5.4.4.6.8.6 1.5a2.2 2.2 0 0 1-.8 1.7 6 6 0 0 1-1.1.8v-.3l2.3 2.3h-.4l.6-1.2.2-1.6h1.3a6 6 0 0 1-.3 2c-.2.7-.5 1.3-.8 1.7v-.3a4.7 4.7 0 0 0 1.8 1.1l-.6 1.2Zm-4.9-1.3a2.6 2.6 0 0 0 2.1-1v.4l-2.7-2.7h.6l-.4.2a5 5 0 0 0-.7.5 2 2 0 0 0-.4.6l-.2.7c0 .4.2.7.5 1 .3.2.7.3 1.3.3Zm.3-7c-.3 0-.6 0-.8.2a1 1 0 0 0-.3.8l.1.5.3.4.6.7h-.4l1.2-.8.3-.9c0-.3 0-.5-.2-.7a1 1 0 0 0-.8-.2Zm-197.7 27.9v-1.8h1.8v1.8h-1.8Zm14.9.1-1.2-.6-1-.7h.4l-1.4 1c-.5.2-1.1.3-1.7.3-.7 0-1.2-.1-1.7-.3a2 2 0 0 1-1.1-.9c-.3-.3-.4-.8-.4-1.3 0-.6.1-1 .5-1.5a4 4 0 0 1 1.4-1.1l.5-.3-.3.3-.8-1-.3-1.2c0-.4.1-.8.3-1 .2-.4.5-.7 1-.9l1.3-.2c.7 0 1.2.2 1.6.5.5.4.7.9.7 1.5a2.2 2.2 0 0 1-.9 1.7 6 6 0 0 1-1 .8v-.3l2.2 2.3h-.3l.5-1.2.2-1.5h1.4c0 .7-.2 1.4-.3 2-.2.6-.5 1.2-.9 1.7v-.4a4.7 4.7 0 0 0 1.8 1.1l-.5 1.2Zm-4.8-1.3a2.6 2.6 0 0 0 2-1v.5l-2.7-2.8h.7l-.4.2a5 5 0 0 0-.7.6 2 2 0 0 0-.5.5l-.1.7c0 .4.1.8.4 1 .3.2.7.3 1.3.3Zm.3-7c-.3 0-.6 0-.8.3a1 1 0 0 0-.3.7v.5l.4.5.5.6h-.4l1.2-.8c.3-.3.4-.5.4-.9a1 1 0 0 0-.3-.7 1 1 0 0 0-.7-.2Zm14.3 8.3c-.4-.1-.8-.3-1.1-.6l-1-.7h.3l-1.3 1a5 5 0 0 1-3.5 0c-.4-.2-.8-.5-1-.9-.3-.3-.5-.8-.5-1.3 0-.6.2-1 .5-1.5.4-.4.9-.8 1.5-1.1l.4-.3-.2.3-.9-1-.2-1.2c0-.4 0-.8.3-1 .2-.4.5-.7.9-.9l1.3-.2c.7 0 1.3.2 1.7.5.4.4.6.9.6 1.5a2.2 2.2 0 0 1-.8 1.7 6 6 0 0 1-1.1.8v-.3l2.3 2.3h-.4c.3-.3.4-.7.6-1.2l.2-1.5h1.3c0 .7 0 1.4-.3 2l-.8 1.7v-.4a4.7 4.7 0 0 0 1.8 1.1l-.6 1.2Zm-4.7-1.3a2.6 2.6 0 0 0 2-1v.5L174 317h.6l-.3.2a5 5 0 0 0-.8.6 2 2 0 0 0-.4.5l-.2.7c0 .4.2.8.5 1 .3.2.7.3 1.3.3Zm.2-7c-.3 0-.6 0-.8.3a1 1 0 0 0-.3.7l.1.5.3.5.6.6h-.4l1.2-.8c.2-.3.3-.5.3-.9 0-.3 0-.5-.2-.7a1 1 0 0 0-.8-.2Zm14.4 8.3-1.2-.6-1-.7h.4l-1.4 1c-.5.2-1 .3-1.7.3-.6 0-1.2-.1-1.7-.3a2 2 0 0 1-1.1-.9c-.3-.3-.4-.8-.4-1.3 0-.6.2-1 .5-1.5.4-.4.8-.8 1.4-1.1l.5-.3-.3.3-.8-1-.3-1.2c0-.4.1-.8.3-1 .3-.4.6-.7 1-.9l1.3-.2c.7 0 1.2.2 1.7.5.4.4.6.9.6 1.5a2.2 2.2 0 0 1-.8 1.7 6 6 0 0 1-1.2.8v-.3l2.3 2.3h-.3l.5-1.2.2-1.5h1.4c0 .7-.1 1.4-.3 2l-.8 1.7v-.4a4.6 4.6 0 0 0 1.7 1.1l-.5 1.2Zm-4.8-1.3a2.6 2.6 0 0 0 2.1-1v.5l-2.8-2.8h.7l-.4.2a5 5 0 0 0-.7.6 2 2 0 0 0-.5.5l-.1.7c0 .4.1.8.4 1 .3.2.8.3 1.3.3Zm.3-7c-.3 0-.6 0-.8.3a1 1 0 0 0-.3.7l.1.5.3.5.5.6h-.3l1.1-.8c.3-.3.4-.5.4-.9 0-.3 0-.5-.3-.7a1 1 0 0 0-.7-.2Zm10.2 9.9-.7-.5.6-.8.1-.8.4.4h-1.2v-1.8h1.8v1.2l-.3 1.2-.7 1.1Zm-.8-6.5v-1.8h1.8v1.8h-1.8Zm85.9 4.8 3-3.8v.8l-2.8-3.6h2l1.8 2.4h-.6l1.9-2.4h2l-3 3.6v-.8l3 3.8h-1.8l-2-2.6h.5l-2 2.6h-2Zm17.7.1-1.2-.6-1-.7h.4l-1.4 1c-.5.2-1.1.3-1.7.3-.7 0-1.2-.1-1.7-.3-.5-.2-.9-.5-1.2-.9-.2-.3-.3-.8-.3-1.3 0-.6.1-1 .5-1.5a4 4 0 0 1 1.4-1.1l.4-.3-.2.3-.8-1-.3-1.2c0-.4.1-.8.3-1 .2-.4.5-.7 1-.9l1.3-.2c.6 0 1.2.2 1.6.5.4.4.7.9.7 1.5a2.2 2.2 0 0 1-.9 1.7 6 6 0 0 1-1.1.8v-.3l2.3 2.3h-.3l.5-1.2.2-1.5h1.4c0 .7-.2 1.4-.4 2-.2.6-.4 1.2-.8 1.7v-.4a4.6 4.6 0 0 0 1.8 1.1l-.5 1.2Zm-4.8-1.3a2.6 2.6 0 0 0 2-1v.5l-2.7-2.8h.7l-.4.2a5 5 0 0 0-.8.6 2 2 0 0 0-.4.5l-.1.7c0 .4.1.8.4 1 .3.2.7.3 1.3.3Zm.3-7c-.4 0-.6 0-.8.3a1 1 0 0 0-.3.7v.5l.4.5.5.6h-.4l1.2-.8c.2-.3.4-.5.4-.9a1 1 0 0 0-.3-.7 1 1 0 0 0-.7-.2Zm14.3 8.3c-.4-.1-.8-.3-1.1-.6l-1-.7h.3a4.4 4.4 0 0 1-3 1.3c-.7 0-1.3-.1-1.8-.3-.5-.2-.8-.5-1-.9-.4-.3-.5-.8-.5-1.3 0-.6.2-1 .5-1.5.4-.4.9-.8 1.5-1.1l.4-.3-.2.3-.9-1c-.2-.4-.2-.8-.2-1.2 0-.4 0-.8.3-1 .2-.4.5-.7.9-.9l1.3-.2c.7 0 1.3.2 1.7.5.4.4.6.9.6 1.5a2.2 2.2 0 0 1-.8 1.7 6 6 0 0 1-1.1.8v-.3l2.3 2.3h-.4c.3-.3.4-.7.6-1.2l.2-1.5h1.3c0 .7-.1 1.4-.3 2l-.8 1.7v-.4a4.7 4.7 0 0 0 1.8 1.1l-.6 1.2Zm-4.8-1.3a2.6 2.6 0 0 0 2.1-1v.5l-2.7-2.8h.6l-.4.2a5 5 0 0 0-.7.6 2 2 0 0 0-.4.5l-.2.7c0 .4.2.8.5 1 .3.2.7.3 1.2.3Zm.3-7c-.3 0-.6 0-.8.3a1 1 0 0 0-.3.7l.1.5.3.5.6.6h-.4l1.2-.8c.2-.3.3-.5.3-.9 0-.3 0-.5-.2-.7a1 1 0 0 0-.8-.2Zm14.4 8.3-1.2-.6-1-.7h.4l-1.4 1c-.5.2-1 .3-1.7.3s-1.2-.1-1.7-.3a2 2 0 0 1-1.1-.9c-.3-.3-.4-.8-.4-1.3 0-.6.2-1 .5-1.5a4 4 0 0 1 1.4-1.1l.5-.3-.3.3-.8-1-.3-1.2c0-.4.1-.8.3-1 .2-.4.5-.7 1-.9l1.3-.2c.7 0 1.2.2 1.6.5.5.4.7.9.7 1.5a2.2 2.2 0 0 1-.9 1.7 6 6 0 0 1-1 .8v-.3l2.2 2.3h-.3l.5-1.2.2-1.5h1.4c0 .7-.1 1.4-.3 2l-.8 1.7v-.4a4.7 4.7 0 0 0 1.7 1.1l-.5 1.2Zm-4.8-1.3a2.6 2.6 0 0 0 2-1v.5L312 317h.7l-.4.2a5 5 0 0 0-.7.6 2 2 0 0 0-.5.5l-.1.7c0 .4.1.8.4 1 .3.2.8.3 1.3.3Zm.3-7c-.3 0-.6 0-.8.3a1 1 0 0 0-.3.7v.5l.4.5.5.6h-.4l1.2-.8c.3-.3.4-.5.4-.9a1 1 0 0 0-.3-.7 1 1 0 0 0-.7-.2Zm14.3 8.3a8.3 8.3 0 0 1-2.1-1.3h.4l-1.4 1a5 5 0 0 1-3.5 0c-.4-.2-.8-.5-1-.9-.3-.3-.5-.8-.5-1.3 0-.6.2-1 .6-1.5a4 4 0 0 1 1.4-1.1l.4-.3-.2.3c-.4-.4-.7-.7-.8-1l-.3-1.2c0-.4 0-.8.3-1 .2-.4.5-.7.9-.9l1.4-.2c.6 0 1.2.2 1.6.5.4.4.6.9.6 1.5a2.2 2.2 0 0 1-.8 1.7 6 6 0 0 1-1.1.8v-.3l2.3 2.3h-.3l.5-1.2.2-1.5h1.4c0 .7-.2 1.4-.4 2-.2.6-.4 1.2-.8 1.7v-.4a4.7 4.7 0 0 0 1.8 1.1l-.6 1.2Zm-4.7-1.3a2.6 2.6 0 0 0 2-1v.5L322 317h.6l-.3.2a5 5 0 0 0-.8.6 2 2 0 0 0-.4.5l-.1.7c0 .4.1.8.4 1 .3.2.7.3 1.3.3Zm.3-7c-.4 0-.6 0-.8.3a1 1 0 0 0-.3.7v.5l.4.5.5.6h-.4l1.2-.8c.2-.3.4-.5.4-.9a1 1 0 0 0-.3-.7 1 1 0 0 0-.7-.2Zm14.3 8.3c-.4-.1-.8-.3-1.1-.6l-1-.7h.3a4.1 4.1 0 0 1-3 1.3c-.7 0-1.3-.1-1.8-.3-.5-.2-.8-.5-1.1-.9-.3-.3-.4-.8-.4-1.3 0-.6.2-1 .5-1.5.4-.4.8-.8 1.5-1.1l.4-.3-.3.3-.8-1-.3-1.2c0-.4.1-.8.4-1 .2-.4.5-.7.9-.9l1.3-.2c.7 0 1.2.2 1.7.5.4.4.6.9.6 1.5a2.2 2.2 0 0 1-.8 1.7 6 6 0 0 1-1.2.8v-.3l2.4 2.3h-.4l.5-1.2.3-1.5h1.3c0 .7-.1 1.4-.3 2l-.8 1.7v-.4a4.6 4.6 0 0 0 1.8 1.1l-.6 1.2Zm-4.8-1.3a2.6 2.6 0 0 0 2.1-1v.5l-2.8-2.8h.7l-.4.2a5 5 0 0 0-.7.6 2 2 0 0 0-.4.5l-.2.7c0 .4.2.8.5 1 .2.2.7.3 1.2.3Zm.3-7c-.3 0-.6 0-.8.3a1 1 0 0 0-.3.7l.1.5.3.5.6.6h-.4l1.1-.8c.3-.3.4-.5.4-.9 0-.3 0-.5-.3-.7a1 1 0 0 0-.7-.2Zm14.3 8.3c-.3-.1-.7-.3-1-.6l-1-.7h.3l-1.4 1c-.5.2-1.1.3-1.7.3-.7 0-1.2-.1-1.7-.3a2 2 0 0 1-1.1-.9c-.3-.3-.4-.8-.4-1.3 0-.6.1-1 .5-1.5a4 4 0 0 1 1.4-1.1l.5-.3-.3.3-.8-1-.3-1.2c0-.4.1-.8.3-1 .2-.4.5-.7 1-.9l1.3-.2c.7 0 1.2.2 1.6.5.5.4.7.9.7 1.5a2.2 2.2 0 0 1-.9 1.7 6 6 0 0 1-1.1.8v-.3l2.3 2.3h-.3l.5-1.2.2-1.5h1.4c0 .7-.2 1.4-.4 2-.2.6-.4 1.2-.8 1.7v-.4a4.6 4.6 0 0 0 1.8 1.1l-.5 1.2Zm-4.7-1.3a2.6 2.6 0 0 0 2-1v.5l-2.7-2.8h.7l-.4.2a5 5 0 0 0-.8.6 2 2 0 0 0-.4.5l-.1.7c0 .4.1.8.4 1 .3.2.7.3 1.3.3Zm.3-7c-.4 0-.6 0-.8.3a1 1 0 0 0-.3.7v.5l.4.5.5.6h-.4l1.2-.8c.3-.3.4-.5.4-.9a1 1 0 0 0-.3-.7 1 1 0 0 0-.7-.2Zm14.4 8.3c-.5-.1-.9-.3-1.2-.6l-1-.7h.3a4.4 4.4 0 0 1-3 1.3c-.7 0-1.3-.1-1.8-.3-.5-.2-.8-.5-1-.9-.3-.3-.5-.8-.5-1.3 0-.6.2-1 .5-1.5.4-.4.9-.8 1.5-1.1l.4-.3-.2.3-.9-1-.2-1.2c0-.4 0-.8.3-1 .2-.4.5-.7.9-.9l1.3-.2c.7 0 1.3.2 1.7.5.4.4.6.9.6 1.5a2.2 2.2 0 0 1-.8 1.7 6 6 0 0 1-1.1.8v-.3l2.3 2.3h-.4c.3-.3.4-.7.6-1.2l.2-1.5h1.3c0 .7-.1 1.4-.3 2l-.8 1.7v-.4a4.7 4.7 0 0 0 1.8 1.1l-.6 1.2Zm-4.9-1.3a2.6 2.6 0 0 0 2.1-1v.5l-2.7-2.8h.6l-.4.2a5 5 0 0 0-.7.6 2 2 0 0 0-.4.5l-.2.7c0 .4.2.8.5 1 .3.2.7.3 1.3.3Zm.3-7c-.3 0-.6 0-.8.3a1 1 0 0 0-.3.7l.1.5.3.5.6.6h-.4l1.2-.8c.2-.3.3-.5.3-.9 0-.3 0-.5-.2-.7a1 1 0 0 0-.8-.2Zm14.4 8.3-1.2-.6-1-.7h.4a4.4 4.4 0 0 1-3 1.3c-.7 0-1.3-.1-1.8-.3a2 2 0 0 1-1.1-.9c-.3-.3-.4-.8-.4-1.3 0-.6.2-1 .5-1.5.4-.4.8-.8 1.4-1.1l.5-.3-.3.3-.8-1-.3-1.2c0-.4.1-.8.3-1 .3-.4.6-.7 1-.9l1.3-.2c.7 0 1.2.2 1.6.5.5.4.7.9.7 1.5a2.2 2.2 0 0 1-.8 1.7 6 6 0 0 1-1.2.8v-.3l2.3 2.3h-.3l.5-1.2.2-1.5h1.4c0 .7-.1 1.4-.3 2l-.8 1.7v-.4a4.7 4.7 0 0 0 1.7 1.1l-.5 1.2Zm-4.8-1.3a2.6 2.6 0 0 0 2-1v.5l-2.7-2.8h.7l-.4.2a5 5 0 0 0-.7.6 2 2 0 0 0-.5.5l-.1.7c0 .4.1.8.4 1 .3.2.8.3 1.3.3Zm.3-7c-.3 0-.6 0-.8.3a1 1 0 0 0-.3.7l.1.5.3.5.5.6h-.3l1.1-.8c.3-.3.4-.5.4-.9 0-.3 0-.5-.3-.7a1 1 0 0 0-.7-.2Zm-187.5 29.4V341l.3.3-1.8-.3-1.4-.8.5-1.3a4.8 4.8 0 0 0 3 1c.6 0 1-.1 1.4-.4.3-.2.4-.5.4-.8 0-.3-.1-.6-.3-.7l-1-.5-1.5-.3a3 3 0 0 1-1.8-.8c-.3-.4-.5-1-.5-1.7 0-.5.1-1 .4-1.3.2-.4.6-.8 1-1a4 4 0 0 1 1.6-.4l-.3.2v-1.7h1.3v1.7l-.2-.2c.5 0 1 0 1.4.3.5.1.9.4 1.2.7l-.5 1.3c-.3-.3-.7-.6-1.1-.7a4 4 0 0 0-1.4-.2c-.6 0-1 0-1.3.3-.4.3-.5.6-.5 1 0 .3 0 .5.3.7.2.2.5.3 1 .4l1.4.3c.8.2 1.4.5 1.8.9.4.4.6 1 .6 1.6 0 .5-.1.9-.4 1.3-.2.4-.6.7-1 1l-1.5.3.2-.2v1.7h-1.3Zm14.5-1.4-1.2-.5-1-.8h.4l-1.4 1c-.5.2-1 .3-1.7.3-.6 0-1.2 0-1.7-.3a2 2 0 0 1-1.1-.9c-.3-.3-.4-.8-.4-1.3s.2-1 .5-1.5c.4-.4.8-.8 1.4-1.1l.5-.3-.3.3-.8-1-.3-1.1c0-.5.1-.8.3-1.2l1-.7a3.1 3.1 0 0 1 3 .2c.4.4.6.9.6 1.5a2.2 2.2 0 0 1-.8 1.7 6 6 0 0 1-1.2.8v-.3l2.3 2.3h-.3l.5-1.2.2-1.5h1.4c0 .7-.1 1.4-.3 2l-.8 1.7v-.4a4.6 4.6 0 0 0 1.7 1.1l-.5 1.2Zm-4.8-1.2a2.6 2.6 0 0 0 2.1-1v.4l-2.8-2.8h.7l-.4.2a5 5 0 0 0-.7.6 2 2 0 0 0-.5.6l-.1.6c0 .5.1.8.4 1 .3.2.8.4 1.3.4Zm.3-7.1c-.3 0-.6.1-.8.3a1 1 0 0 0-.3.7l.1.5c0 .2.2.3.3.5l.5.6h-.3c.5-.3.9-.5 1.1-.8.3-.2.4-.5.4-.8 0-.3 0-.6-.3-.7a1 1 0 0 0-.7-.3Zm14.3 8.3-1-.5c-.5-.3-.8-.5-1-.8h.3l-1.4 1a5 5 0 0 1-1.7.3c-.7 0-1.3 0-1.7-.3-.5-.2-.9-.5-1.2-.9-.2-.3-.3-.8-.3-1.3s.1-1 .5-1.5a4 4 0 0 1 1.4-1.1l.4-.3-.2.3c-.4-.3-.7-.7-.8-1l-.3-1.1c0-.5 0-.8.3-1.2.2-.3.5-.5.9-.7.4-.2.8-.3 1.4-.3.6 0 1.2.2 1.6.5.4.4.7.9.7 1.5a2.2 2.2 0 0 1-.9 1.7 6 6 0 0 1-1.1.8v-.3l2.3 2.3h-.3l.5-1.2.2-1.5h1.4c0 .7-.2 1.4-.4 2-.2.6-.4 1.2-.8 1.7v-.4a4.6 4.6 0 0 0 1.8 1.1l-.6 1.2Zm-4.7-1.2a2.6 2.6 0 0 0 2-1v.4l-2.7-2.8h.7l-.4.2a5 5 0 0 0-.8.6 2 2 0 0 0-.4.6l-.1.6c0 .5.1.8.4 1 .3.2.7.4 1.3.4Zm.3-7.1c-.4 0-.6.1-.8.3a1 1 0 0 0-.3.7v.5l.4.5.5.6h-.4c.6-.3 1-.5 1.2-.8.2-.2.4-.5.4-.8 0-.3-.1-.6-.3-.7a1 1 0 0 0-.7-.3Zm14.3 8.3-1.1-.5-1-.8h.3a4.4 4.4 0 0 1-4.8 1c-.5-.2-.8-.5-1.1-.9-.3-.3-.4-.8-.4-1.3s.2-1 .5-1.5c.4-.4.9-.8 1.5-1.1l.4-.3-.2.3-.9-1-.3-1.1c0-.5.2-.8.4-1.2.2-.3.5-.5.9-.7.3-.2.8-.3 1.3-.3.7 0 1.3.2 1.7.5.4.4.6.9.6 1.5a2.2 2.2 0 0 1-.8 1.7 6 6 0 0 1-1.2.8v-.3l2.4 2.3h-.4c.3-.3.4-.7.5-1.2l.3-1.5h1.3c0 .7-.1 1.4-.3 2l-.8 1.7v-.4a4.7 4.7 0 0 0 1.8 1.1l-.6 1.2Zm-4.8-1.2a2.6 2.6 0 0 0 2.1-1v.4l-2.8-2.8h.7l-.4.2a5 5 0 0 0-.7.6 2 2 0 0 0-.4.6l-.2.6c0 .5.2.8.5 1 .3.2.7.4 1.2.4Zm.3-7.1c-.3 0-.6.1-.8.3a1 1 0 0 0-.3.7l.1.5c0 .2.2.3.3.5l.6.6h-.4c.5-.3 1-.5 1.1-.8.3-.2.4-.5.4-.8 0-.3 0-.6-.2-.7a1 1 0 0 0-.8-.3Zm9.4 8.2v-1.8h1.8v1.8h-1.8Zm79.3 1.5V341l.3.3c-.7 0-1.3-.1-1.8-.3-.6-.2-1-.5-1.5-.8l.5-1.3a4.8 4.8 0 0 0 3 1c.6 0 1-.1 1.4-.4.3-.2.4-.5.4-.8 0-.3 0-.6-.3-.7l-1-.5-1.4-.3a3 3 0 0 1-1.8-.8c-.4-.4-.6-1-.6-1.7 0-.5.1-1 .4-1.3.2-.4.6-.8 1-1a4 4 0 0 1 1.6-.4l-.2.2v-1.7h1.3v1.7l-.3-.2c.5 0 1 0 1.4.3.5.1 1 .4 1.3.7l-.5 1.3c-.4-.3-.7-.6-1.2-.7a4 4 0 0 0-1.4-.2c-.5 0-1 0-1.3.3-.3.3-.5.6-.5 1 0 .3 0 .5.3.7.2.2.5.3 1 .4l1.4.3c.8.2 1.4.5 1.8.9.4.4.7 1 .7 1.6 0 .5-.2.9-.4 1.3l-1 1c-.5.1-1 .3-1.6.3l.3-.2v1.7h-1.3Zm14.4-1.4-1.1-.5-1-.8h.3a4.4 4.4 0 0 1-4.8 1c-.5-.2-.8-.5-1-.9-.4-.3-.5-.8-.5-1.3s.2-1 .5-1.5c.4-.4.9-.8 1.5-1.1l.4-.3-.2.3-.9-1c-.2-.4-.2-.8-.2-1.1 0-.5 0-.8.3-1.2.2-.3.5-.5.9-.7.4-.2.8-.3 1.3-.3.7 0 1.3.2 1.7.5.4.4.6.9.6 1.5a2.2 2.2 0 0 1-.8 1.7 6 6 0 0 1-1.1.8v-.3l2.3 2.3h-.4c.3-.3.4-.7.6-1.2l.2-1.5h1.3c0 .7-.1 1.4-.3 2l-.8 1.7v-.4a4.7 4.7 0 0 0 1.8 1.1l-.6 1.2Zm-4.8-1.2a2.6 2.6 0 0 0 2.1-1v.4l-2.7-2.8h.6l-.4.2a5 5 0 0 0-.7.6 2 2 0 0 0-.4.6l-.2.6c0 .5.2.8.5 1 .3.2.7.4 1.2.4Zm.3-7.1c-.3 0-.6.1-.8.3a1 1 0 0 0-.3.7l.1.5c0 .2.2.3.3.5l.6.6h-.4c.5-.3 1-.5 1.2-.8.2-.2.3-.5.3-.8 0-.3 0-.6-.2-.7a1 1 0 0 0-.8-.3Zm14.4 8.3-1.2-.5-1-.8h.4a4.4 4.4 0 0 1-3 1.3c-.8 0-1.3 0-1.8-.3a2 2 0 0 1-1.1-.9c-.3-.3-.4-.8-.4-1.3s.2-1 .5-1.5a4 4 0 0 1 1.4-1.1l.5-.3-.3.3-.8-1-.3-1.1c0-.5.1-.8.3-1.2.2-.3.5-.5 1-.7.3-.2.8-.3 1.3-.3.7 0 1.2.2 1.6.5.5.4.7.9.7 1.5a2.2 2.2 0 0 1-.9 1.7 6 6 0 0 1-1 .8v-.3l2.2 2.3h-.3l.5-1.2.2-1.5h1.4c0 .7-.1 1.4-.3 2l-.8 1.7v-.4a4.7 4.7 0 0 0 1.7 1.1l-.5 1.2Zm-4.8-1.2a2.6 2.6 0 0 0 2-1v.4l-2.7-2.8h.7l-.4.2a5 5 0 0 0-.7.6 2 2 0 0 0-.5.6l-.1.6c0 .5.1.8.4 1 .3.2.8.4 1.3.4Zm.3-7.1c-.3 0-.6.1-.8.3a1 1 0 0 0-.3.7v.5l.4.5.5.6h-.4c.6-.3 1-.5 1.2-.8.3-.2.4-.5.4-.8 0-.3-.1-.6-.3-.7a1 1 0 0 0-.7-.3Zm14.3 8.3-1.1-.5-1-.8h.4a4.4 4.4 0 0 1-3.1 1.3c-.7 0-1.3 0-1.8-.3-.4-.2-.8-.5-1-.9-.3-.3-.5-.8-.5-1.3s.2-1 .6-1.5a4 4 0 0 1 1.4-1.1l.4-.3-.2.3c-.4-.3-.7-.7-.8-1l-.3-1.1c0-.5 0-.8.3-1.2.2-.3.5-.5.9-.7.4-.2.8-.3 1.4-.3.6 0 1.2.2 1.6.5.4.4.6.9.6 1.5a2.2 2.2 0 0 1-.8 1.7 6 6 0 0 1-1.1.8v-.3l2.3 2.3h-.3l.5-1.2.2-1.5h1.4c0 .7-.2 1.4-.4 2-.2.6-.4 1.2-.8 1.7v-.4a4.7 4.7 0 0 0 1.8 1.1l-.6 1.2Zm-4.7-1.2a2.6 2.6 0 0 0 2-1v.4l-2.7-2.8h.6l-.3.2a5 5 0 0 0-.8.6 2 2 0 0 0-.4.6l-.1.6c0 .5.1.8.4 1 .3.2.7.4 1.3.4Zm.3-7.1c-.4 0-.6.1-.8.3a1 1 0 0 0-.3.7v.5l.4.5c0 .2.3.4.5.6h-.4c.5-.3 1-.5 1.2-.8.2-.2.4-.5.4-.8 0-.3-.1-.6-.3-.7a1 1 0 0 0-.7-.3Zm-123.8 28-1-.5c-.5-.3-.8-.5-1-.8h.3a4.1 4.1 0 0 1-3 1.3c-.8 0-1.4 0-1.8-.3-.5-.2-.9-.5-1.2-.8-.2-.4-.3-.8-.3-1.3 0-.6.1-1.1.5-1.5.3-.5.8-.8 1.4-1.2l.4-.3-.2.3c-.4-.3-.7-.7-.8-1-.2-.4-.3-.7-.3-1.1 0-.4 0-.8.3-1.1.2-.4.5-.6.9-.8.4-.2.8-.3 1.4-.3.6 0 1.2.2 1.6.6.4.3.7.8.7 1.4a2.2 2.2 0 0 1-.9 1.8 6 6 0 0 1-1.1.7v-.3l2.3 2.4h-.3l.5-1.3.2-1.5h1.4c0 .7-.2 1.4-.4 2-.2.7-.4 1.2-.8 1.7v-.4a4.6 4.6 0 0 0 1.8 1.2l-.6 1.1Zm-4.7-1.2a2.6 2.6 0 0 0 2-1v.4l-2.7-2.8h.7l-.4.2a5 5 0 0 0-.8.6 2 2 0 0 0-.4.6l-.1.7c0 .4.1.7.4 1 .3.2.7.3 1.3.3Zm.3-7c-.4 0-.6 0-.8.2a1 1 0 0 0-.3.8v.4l.4.5.5.6h-.4c.6-.2 1-.5 1.2-.8.2-.2.4-.5.4-.8 0-.3-.1-.6-.3-.7a1 1 0 0 0-.7-.3ZM209 361l-1.1-.5-1-.8h.3a4.4 4.4 0 0 1-3 1.3c-.7 0-1.3 0-1.8-.3-.5-.2-.8-.5-1.1-.8a2 2 0 0 1-.4-1.3c0-.6.2-1.1.5-1.5.4-.5.9-.8 1.5-1.2l.4-.3-.2.3-.9-1c-.2-.4-.3-.7-.3-1.1 0-.4.2-.8.4-1.1.2-.4.5-.6.9-.8.3-.2.8-.3 1.3-.3.7 0 1.3.2 1.7.6.4.3.6.8.6 1.4a2.2 2.2 0 0 1-.8 1.8 6 6 0 0 1-1.2.7v-.3l2.4 2.4h-.4c.3-.4.4-.8.5-1.3l.3-1.5h1.3a6.4 6.4 0 0 1-1.1 3.7v-.4a4.7 4.7 0 0 0 1.8 1.2l-.6 1.1Zm-4.8-1.2a2.6 2.6 0 0 0 2.1-1v.4l-2.8-2.8h.7l-.4.2a5 5 0 0 0-.7.6 2 2 0 0 0-.4.6l-.2.7c0 .4.2.7.5 1 .3.2.7.3 1.2.3Zm.3-7c-.3 0-.6 0-.8.2a1 1 0 0 0-.3.8l.1.4c0 .2.2.3.3.5l.6.6h-.4c.5-.2 1-.5 1.1-.8.3-.2.4-.5.4-.8 0-.3 0-.6-.2-.7a1 1 0 0 0-.8-.3Zm14.4 8.2-1.2-.5-1-.8h.4a4.1 4.1 0 0 1-3 1.3c-.8 0-1.3 0-1.8-.3-.5-.2-.9-.5-1.1-.8a2 2 0 0 1-.4-1.3c0-.6.1-1.1.5-1.5.3-.5.8-.8 1.4-1.2l.5-.3-.3.3c-.4-.3-.6-.7-.8-1-.2-.4-.3-.7-.3-1.1 0-.4.1-.8.3-1.1.2-.4.5-.6 1-.8.3-.2.8-.3 1.3-.3.7 0 1.2.2 1.6.6.5.3.7.8.7 1.4a2.2 2.2 0 0 1-.9 1.8 6 6 0 0 1-1 .7v-.3l2.2 2.4h-.3l.5-1.3.2-1.5h1.4c0 .7-.1 1.4-.3 2-.2.7-.5 1.2-.9 1.7v-.4a4.7 4.7 0 0 0 1.8 1.2l-.5 1.1Zm-4.8-1.2a2.6 2.6 0 0 0 2-1v.4l-2.7-2.8h.7l-.4.2a5 5 0 0 0-.7.6 2 2 0 0 0-.5.6l-.1.7c0 .4.1.7.4 1 .3.2.7.3 1.3.3Zm.3-7c-.3 0-.6 0-.8.2a1 1 0 0 0-.3.8v.4l.4.5.5.6h-.4c.6-.2 1-.5 1.2-.8.3-.2.4-.5.4-.8 0-.3-.1-.6-.3-.7a1 1 0 0 0-.7-.3Zm88.2 3.3v-1.8h1.8v1.8h-1.8Zm0 4.8v-1.8h1.8v1.8h-1.8Zm14.9.1-1.2-.5-1-.8h.4a4.1 4.1 0 0 1-3 1.3c-.8 0-1.3 0-1.8-.3-.5-.2-.9-.5-1.1-.8a2 2 0 0 1-.4-1.3c0-.6.2-1.1.5-1.5.3-.5.8-.8 1.4-1.2l.5-.3-.3.3-.8-1c-.2-.4-.3-.7-.3-1.1 0-.4.1-.8.3-1.1.2-.4.5-.6 1-.8.3-.2.8-.3 1.3-.3.7 0 1.2.2 1.6.6.5.3.7.8.7 1.4a2.2 2.2 0 0 1-.9 1.8 6 6 0 0 1-1 .7v-.3l2.2 2.4h-.3l.5-1.3.2-1.5h1.4a6.4 6.4 0 0 1-1.1 3.7v-.4a4.7 4.7 0 0 0 1.7 1.2l-.5 1.1Zm-4.8-1.2a2.6 2.6 0 0 0 2-1v.4l-2.7-2.8h.7l-.4.2a5 5 0 0 0-.7.6 2 2 0 0 0-.5.6l-.1.7c0 .4.1.7.4 1 .3.2.8.3 1.3.3Zm.3-7c-.3 0-.6 0-.8.2a1 1 0 0 0-.3.8v.4l.4.5.5.6h-.4c.6-.2 1-.5 1.2-.8.3-.2.4-.5.4-.8 0-.3-.1-.6-.3-.7a1 1 0 0 0-.7-.3Zm14.3 8.2-1.1-.5-1-.8h.4a4.1 4.1 0 0 1-3 1.3c-.8 0-1.4 0-1.9-.3-.4-.2-.8-.5-1-.8-.3-.4-.5-.8-.5-1.3 0-.6.2-1.1.6-1.5.3-.5.8-.8 1.4-1.2l.4-.3-.2.3c-.4-.3-.7-.7-.8-1-.2-.4-.3-.7-.3-1.1 0-.4 0-.8.3-1.1.2-.4.5-.6.9-.8.4-.2.8-.3 1.4-.3.6 0 1.2.2 1.6.6.4.3.6.8.6 1.4a2.2 2.2 0 0 1-.8 1.8 6 6 0 0 1-1.1.7v-.3l2.3 2.4h-.3l.5-1.3.2-1.5h1.4c0 .7-.2 1.4-.4 2-.2.7-.4 1.2-.8 1.7v-.4a4.7 4.7 0 0 0 1.8 1.2l-.6 1.1Zm-4.7-1.2a2.6 2.6 0 0 0 2-1v.4l-2.7-2.8h.6l-.3.2a5 5 0 0 0-.8.6 2 2 0 0 0-.4.6l-.1.7c0 .4.1.7.4 1 .3.2.7.3 1.3.3Zm.3-7c-.4 0-.6 0-.8.2a1 1 0 0 0-.3.8v.4l.4.5c0 .2.3.4.5.6h-.4c.5-.2 1-.5 1.2-.8.2-.2.4-.5.4-.8 0-.3-.1-.6-.3-.7a1 1 0 0 0-.7-.3Zm14.3 8.2-1.1-.5-1-.8h.3c-.4.4-.8.8-1.4 1-.5.2-1 .3-1.7.3-.6 0-1.2 0-1.7-.3-.5-.2-.8-.5-1.1-.8a2 2 0 0 1-.4-1.3c0-.6.2-1.1.5-1.5.4-.5.8-.8 1.5-1.2l.4-.3-.3.3-.8-1c-.2-.4-.3-.7-.3-1.1 0-.4.1-.8.4-1.1.2-.4.5-.6.9-.8.3-.2.8-.3 1.3-.3.7 0 1.2.2 1.7.6.4.3.6.8.6 1.4a2.2 2.2 0 0 1-.8 1.8 6 6 0 0 1-1.2.7v-.3l2.4 2.4h-.4l.5-1.3.3-1.5h1.3a6.4 6.4 0 0 1-1.1 3.7v-.4a4.6 4.6 0 0 0 1.8 1.2l-.6 1.1Zm-4.8-1.2a2.6 2.6 0 0 0 2.1-1v.4l-2.8-2.8h.7l-.4.2a5 5 0 0 0-.7.6 2 2 0 0 0-.4.6l-.2.7c0 .4.2.7.5 1 .2.2.7.3 1.2.3Zm.3-7c-.3 0-.6 0-.8.2a1 1 0 0 0-.3.8l.1.4c0 .2.2.3.3.5l.6.6h-.4c.5-.2.9-.5 1.1-.8.3-.2.4-.5.4-.8 0-.3 0-.6-.3-.7a1 1 0 0 0-.7-.3ZM347 361l-1-.5c-.4-.3-.8-.5-1-.8h.3a4.1 4.1 0 0 1-3 1.3c-.8 0-1.3 0-1.8-.3-.5-.2-.9-.5-1.1-.8a2 2 0 0 1-.4-1.3c0-.6.1-1.1.5-1.5.3-.5.8-.8 1.4-1.2l.5-.3-.3.3c-.4-.3-.6-.7-.8-1-.2-.4-.3-.7-.3-1.1 0-.4.1-.8.3-1.1.2-.4.5-.6 1-.8.3-.2.8-.3 1.3-.3.7 0 1.2.2 1.6.6.5.3.7.8.7 1.4a2.2 2.2 0 0 1-.9 1.8 6 6 0 0 1-1.1.7v-.3l2.3 2.4h-.3l.5-1.3.2-1.5h1.4c0 .7-.2 1.4-.4 2-.2.7-.4 1.2-.8 1.7v-.4a4.6 4.6 0 0 0 1.8 1.2l-.5 1.1Zm-4.7-1.2a2.6 2.6 0 0 0 2-1v.4l-2.7-2.8h.7l-.4.2a5 5 0 0 0-.8.6 2 2 0 0 0-.4.6l-.1.7c0 .4.1.7.4 1 .3.2.7.3 1.3.3Zm.3-7c-.4 0-.6 0-.8.2a1 1 0 0 0-.3.8v.4l.4.5.5.6h-.4c.6-.2 1-.5 1.2-.8.3-.2.4-.5.4-.8 0-.3-.1-.6-.3-.7a1 1 0 0 0-.7-.3ZM357 361l-1.2-.5-1-.8h.3a4.4 4.4 0 0 1-3 1.3c-.7 0-1.3 0-1.8-.3a2.2 2.2 0 0 1-1.5-2.2c0-.5.2-1 .5-1.4.4-.5.9-.8 1.5-1.2l.4-.3-.2.3-.9-1-.2-1.1c0-.4 0-.8.3-1.1.2-.4.5-.6.9-.8.4-.2.8-.3 1.3-.3.7 0 1.3.2 1.7.6.4.3.6.8.6 1.4a2.2 2.2 0 0 1-.8 1.8 6 6 0 0 1-1.1.7v-.3l2.3 2.4h-.4c.3-.4.4-.8.6-1.3l.2-1.5h1.3a6.4 6.4 0 0 1-1.1 3.7v-.4a4.7 4.7 0 0 0 1.8 1.2l-.6 1.1Zm-4.9-1.2a2.6 2.6 0 0 0 2.1-1v.4l-2.7-2.8h.6l-.4.2a5 5 0 0 0-.7.6 2 2 0 0 0-.4.6l-.2.7c0 .4.2.7.5 1 .3.2.7.3 1.3.3Zm.3-7c-.3 0-.6 0-.8.2a1 1 0 0 0-.3.8l.1.4.3.5.6.6h-.4c.5-.2 1-.5 1.2-.8.2-.2.3-.5.3-.8 0-.3 0-.6-.2-.7a1 1 0 0 0-.8-.3Zm10.2 9.8-.7-.5c.3-.3.5-.5.6-.8l.2-.8.4.4h-1.3v-1.8h1.8v1.2c0 .4 0 .8-.2 1.2-.2.4-.4.8-.8 1.1Zm-.8-6.5v-1.8h1.8v1.8h-1.8ZM333 382.4l-.7-.6c.3-.2.5-.5.6-.8l.2-.7.4.3h-1.3v-1.8h1.8v1.2c0 .5 0 .9-.2 1.2-.2.4-.4.8-.8 1.2Zm-.8-6.5V374h1.8v1.8h-1.8Zm14.8 4.9-1-.6c-.4-.2-.8-.5-1-.8h.3c-.4.5-.9.8-1.4 1a4.4 4.4 0 0 1-3.4 0c-.5-.2-.9-.4-1.1-.8a2 2 0 0 1-.4-1.3c0-.6.1-1.1.5-1.5.3-.4.8-.8 1.4-1.2l.5-.2-.3.3-.8-1.1-.3-1c0-.5.1-.9.3-1.2.2-.4.5-.6 1-.8.3-.2.8-.3 1.3-.3.7 0 1.2.2 1.6.6.5.3.7.8.7 1.4a2.2 2.2 0 0 1-.9 1.8 6 6 0 0 1-1.1.8v-.4l2.3 2.4h-.3l.5-1.3.2-1.5h1.4c0 .7-.2 1.4-.4 2-.2.7-.4 1.2-.8 1.7v-.4a4.7 4.7 0 0 0 1.8 1.2l-.5 1.2Zm-4.7-1.3a2.6 2.6 0 0 0 2-1v.4l-2.7-2.8h.7l-.4.3a5 5 0 0 0-.8.5 2 2 0 0 0-.4.6l-.1.7c0 .4.1.7.4 1 .3.2.7.3 1.3.3Zm.3-7c-.4 0-.6 0-.8.2a1 1 0 0 0-.3.8v.5l.4.4.5.6h-.4c.6-.2 1-.5 1.2-.7.3-.3.4-.6.4-.9a1 1 0 0 0-.3-.7 1 1 0 0 0-.7-.3Zm14.4 8.3-1.2-.6-1-.8h.3a4.4 4.4 0 0 1-3 1.4c-.7 0-1.3-.1-1.8-.3-.5-.3-.8-.5-1-1-.3-.3-.5-.7-.5-1.2 0-.6.2-1.1.5-1.5l1.5-1.2.4-.2-.2.3-.9-1.1-.2-1c0-.5 0-.9.3-1.2.2-.4.5-.6.9-.8.4-.2.8-.3 1.3-.3.7 0 1.3.2 1.7.6.4.3.6.8.6 1.4a2.2 2.2 0 0 1-.8 1.8 6 6 0 0 1-1.1.8v-.4l2.3 2.4h-.4c.3-.4.4-.8.6-1.3l.2-1.5h1.3a6.4 6.4 0 0 1-1.1 3.7v-.4a4.8 4.8 0 0 0 1.8 1.2l-.6 1.2Zm-4.9-1.3a2.6 2.6 0 0 0 2.1-1v.4l-2.7-2.8h.6l-.4.3a5 5 0 0 0-.7.5 2 2 0 0 0-.4.6l-.2.7c0 .4.2.7.5 1 .3.2.7.3 1.3.3Zm.3-7c-.3 0-.6 0-.8.2a1 1 0 0 0-.3.8l.1.5.3.4.6.6h-.4l1.2-.7.3-.9c0-.3 0-.5-.2-.7a1 1 0 0 0-.8-.3Zm14.4 8.3-1.2-.6-1-.8h.4a4.4 4.4 0 0 1-3 1.4c-.7 0-1.3-.1-1.8-.3-.5-.3-.9-.5-1.1-1-.3-.3-.4-.7-.4-1.2 0-.6.2-1.1.5-1.5l1.4-1.2.5-.2-.3.3-.8-1.1-.3-1c0-.5.1-.9.3-1.2.3-.4.6-.6 1-.8.3-.2.8-.3 1.3-.3.7 0 1.2.2 1.6.6.5.3.7.8.7 1.4a2.2 2.2 0 0 1-.8 1.8 6 6 0 0 1-1.2.8v-.4l2.3 2.4h-.3l.5-1.3.2-1.5h1.4a6.4 6.4 0 0 1-1.1 3.7v-.4a4.8 4.8 0 0 0 1.7 1.2l-.5 1.2Zm-4.8-1.3a2.6 2.6 0 0 0 2-1v.4l-2.7-2.8h.7l-.4.3a5 5 0 0 0-.7.5 2 2 0 0 0-.5.6l-.1.7c0 .4.1.7.4 1 .3.2.8.3 1.3.3Zm.3-7c-.3 0-.6 0-.8.2a1 1 0 0 0-.3.8l.1.5.3.4.5.6h-.3l1.1-.7c.3-.3.4-.6.4-.9 0-.3 0-.5-.3-.7a1 1 0 0 0-.7-.3Z" fill="#000"/></svg>