<svg width="400" height="400" fill="none" xmlns="http://www.w3.org/2000/svg"><path d="M119.2 72v-1.8h1.8V72h-1.8Zm6.6 0 3-3.8v.8l-2.8-3.6h1.9l1.9 2.5h-.6l1.9-2.5h1.9l-3 3.6v-.8l3 3.8h-1.9l-2-2.6h.6l-2 2.6h-2Zm17.2.1-1.2-.5-1-.8h.4l-1.4 1c-.5.2-1 .3-1.7.3s-1.2 0-1.7-.3c-.5-.2-.9-.5-1.1-.8a2 2 0 0 1-.4-1.3c0-.6.2-1.1.5-1.5.3-.5.8-.9 1.4-1.2l.5-.3-.3.3-.8-1-.3-1.1c0-.5.1-.8.3-1.2.2-.3.5-.5 1-.7.3-.2.8-.3 1.3-.3.7 0 1.2.2 1.6.6.5.3.7.8.7 1.4a2.2 2.2 0 0 1-.9 1.7 6 6 0 0 1-1 .8V67l2.2 2.4h-.3l.5-1.3.2-1.5h1.4c0 .7-.1 1.4-.3 2l-.8 1.7v-.4a4.7 4.7 0 0 0 1.7 1.2l-.5.9Zm-4.8-1.2a2.6 2.6 0 0 0 2-1v.4l-2.7-2.8h.7l-.4.2a5 5 0 0 0-.7.6 2 2 0 0 0-.5.6l-.1.7c0 .4.1.7.4 1 .3.2.8.3 1.3.3Zm.3-7c-.3 0-.6 0-.8.2a1 1 0 0 0-.3.8v.4l.4.5.5.6h-.4c.6-.3 1-.5 1.2-.8.3-.2.4-.5.4-.8 0-.3-.1-.6-.3-.7a1 1 0 0 0-.7-.3Zm13.9 8.2-1.2-.5-1-.8h.4l-1.4 1c-.5.2-1 .3-1.7.3s-1.2 0-1.7-.3c-.5-.2-.9-.5-1.1-.8a2 2 0 0 1-.4-1.3c0-.6.2-1.1.5-1.5.3-.5.8-.9 1.4-1.2l.5-.3-.3.3-.8-1-.3-1.1c0-.5.1-.8.3-1.2.2-.3.5-.5 1-.7.3-.2.8-.3 1.3-.3.7 0 1.2.2 1.6.6.5.3.7.8.7 1.4a2.2 2.2 0 0 1-.8 1.7 6 6 0 0 1-1.2.8V67l2.3 2.4h-.3l.5-1.3.2-1.5h1.4c0 .7-.1 1.4-.3 2l-.8 1.7v-.4a4.7 4.7 0 0 0 1.7 1.2l-.5 1.1Zm-4.8-1.2a2.6 2.6 0 0 0 2-1v.4l-2.7-2.8h.7l-.4.2a5 5 0 0 0-.7.6 2 2 0 0 0-.5.6l-.1.7c0 .4.1.7.4 1 .3.2.8.3 1.3.3Zm.3-7c-.3 0-.6 0-.8.2a1 1 0 0 0-.3.8v.4l.4.5.5.6h-.4c.6-.3 1-.5 1.2-.8.3-.2.4-.5.4-.8 0-.3-.1-.6-.3-.7a1 1 0 0 0-.7-.3Zm13.9 8.2-1.2-.5-1-.8h.4l-1.4 1c-.5.2-1 .3-1.7.3s-1.2 0-1.7-.3c-.5-.2-.9-.5-1.1-.8a2 2 0 0 1-.4-1.3c0-.6.2-1.1.5-1.5.3-.5.8-.9 1.4-1.2l.5-.3-.3.3-.8-1-.3-1.1c0-.5.1-.8.3-1.2.2-.3.5-.5 1-.7.3-.2.8-.3 1.3-.3.7 0 1.2.2 1.6.6.5.3.7.8.7 1.4a2.2 2.2 0 0 1-.8 1.7 6 6 0 0 1-1.2.8V67l2.3 2.4h-.3l.5-1.3.2-1.5h1.4c0 .7-.1 1.4-.3 2l-.8 1.7v-.4a4.7 4.7 0 0 0 1.7 1.2l-.5 1.1ZM157 71a2.6 2.6 0 0 0 2-1v.4l-2.7-2.8h.7l-.4.2a5 5 0 0 0-.7.6 2 2 0 0 0-.5.6l-.1.7c0 .4.1.7.4 1 .3.2.8.3 1.3.3Zm.3-7c-.3 0-.6 0-.8.2a1 1 0 0 0-.3.8v.4l.4.5.5.6h-.4c.6-.3 1-.5 1.2-.8.3-.2.4-.5.4-.8 0-.3-.1-.6-.3-.7a1 1 0 0 0-.7-.3Zm13.9 8.1-1.2-.5-1-.8h.4l-1.4 1c-.5.2-1 .3-1.7.3s-1.2 0-1.7-.3c-.5-.2-.9-.5-1.1-.8a2 2 0 0 1-.4-1.3c0-.6.2-1.1.5-1.5.3-.5.8-.9 1.4-1.2l.5-.3-.3.3-.8-1-.3-1.1c0-.5.1-.8.3-1.2.2-.3.5-.5 1-.7.3-.2.8-.3 1.3-.3.7 0 1.2.2 1.6.6.5.3.7.8.7 1.4a2.2 2.2 0 0 1-.8 1.7 6 6 0 0 1-1.2.8V67l2.3 2.4h-.3l.5-1.3.2-1.5h1.4c0 .7-.1 1.4-.3 2l-.8 1.7v-.4a4.7 4.7 0 0 0 1.7 1.2l-.5 1.1Zm-4.8-1.2a2.6 2.6 0 0 0 2-1v.4l-2.7-2.8h.7l-.4.2a5 5 0 0 0-.7.6 2 2 0 0 0-.5.6l-.1.7c0 .4.1.7.4 1 .3.2.8.3 1.3.3Zm.3-7c-.3 0-.6 0-.8.2a1 1 0 0 0-.3.8v.4l.4.5.5.6h-.4c.6-.3 1-.5 1.2-.8.3-.2.4-.5.4-.8 0-.3-.1-.6-.3-.7a1 1 0 0 0-.7-.3Zm13.9 8.2-1.2-.5-1-.8h.4l-1.4 1c-.5.2-1 .3-1.7.3-.6 0-1.2 0-1.7-.3-.5-.2-.9-.5-1.1-.8a2 2 0 0 1-.4-1.3c0-.6.2-1.1.5-1.5.3-.5.8-.9 1.4-1.2l.5-.3-.3.3-.8-1-.3-1.1c0-.5.1-.8.3-1.2.2-.3.5-.5 1-.7.3-.2.8-.3 1.3-.3.7 0 1.2.2 1.6.6.5.3.7.8.7 1.4a2.2 2.2 0 0 1-.8 1.7 6 6 0 0 1-1.2.8V67l2.3 2.4h-.3l.5-1.3.2-1.5h1.4c0 .7-.1 1.4-.3 2l-.8 1.7v-.4A4.7 4.7 0 0 0 181 71l-.5 1.1Zm-4.8-1.2a2.6 2.6 0 0 0 2-1v.4l-2.7-2.8h.7l-.4.2a5 5 0 0 0-.7.6 2 2 0 0 0-.5.6l-.1.7c0 .4.1.7.4 1 .3.2.8.3 1.3.3Zm.3-7c-.3 0-.6 0-.8.2a1 1 0 0 0-.3.8v.4l.4.5.5.6h-.4c.6-.3 1-.5 1.2-.8.3-.2.4-.5.4-.8 0-.3-.1-.6-.3-.7a1 1 0 0 0-.7-.3Zm13.9 8.2-1.2-.5-1-.8h.4l-1.4 1c-.5.2-1 .3-1.7.3s-1.2 0-1.7-.3c-.5-.2-.9-.5-1.1-.8a2 2 0 0 1-.4-1.3c0-.6.2-1.1.5-1.5.3-.5.8-.9 1.4-1.2l.5-.3-.3.3-.8-1-.3-1.1c0-.5.1-.8.3-1.2.2-.3.5-.5 1-.7.3-.2.8-.3 1.3-.3.7 0 1.2.2 1.6.6.5.3.7.8.7 1.4a2.2 2.2 0 0 1-.9 1.7 6 6 0 0 1-1 .8V67l2.2 2.4h-.3l.5-1.3.2-1.5h1.4c0 .7-.1 1.4-.3 2l-.8 1.7v-.4a4.7 4.7 0 0 0 1.7 1.2l-.5.9Zm-4.8-1.2a2.6 2.6 0 0 0 2-1v.4l-2.7-2.8h.7l-.4.2a5 5 0 0 0-.7.6 2 2 0 0 0-.5.6l-.1.7c0 .4.1.7.4 1 .3.2.8.3 1.3.3Zm.3-7c-.3 0-.6 0-.8.2a1 1 0 0 0-.3.8v.4l.4.5.5.6h-.4c.6-.3 1-.5 1.2-.8.3-.2.4-.5.4-.8 0-.3-.1-.6-.3-.7a1 1 0 0 0-.7-.3Zm13.9 8.2-1.2-.5-1-.8h.4l-1.4 1c-.5.2-1 .3-1.7.3s-1.2 0-1.7-.3c-.5-.2-.9-.5-1.1-.8a2 2 0 0 1-.4-1.3c0-.6.2-1.1.5-1.5.3-.5.8-.9 1.4-1.2l.5-.3-.3.3-.8-1-.3-1.1c0-.5.1-.8.3-1.2.2-.3.5-.5 1-.7.3-.2.8-.3 1.3-.3.7 0 1.2.2 1.6.6.5.3.7.8.7 1.4a2.2 2.2 0 0 1-.8 1.7 6 6 0 0 1-1.2.8V67l2.3 2.4h-.3l.5-1.3.2-1.5h1.4c0 .7-.1 1.4-.3 2l-.8 1.7v-.4a4.7 4.7 0 0 0 1.7 1.2l-.5 1.1Zm-4.8-1.2a2.6 2.6 0 0 0 2-1v.4l-2.7-2.8h.7l-.4.2a5 5 0 0 0-.7.6 2 2 0 0 0-.5.6l-.1.7c0 .4.1.7.4 1 .3.2.8.3 1.3.3Zm.3-7c-.3 0-.6 0-.8.2a1 1 0 0 0-.3.8v.4l.4.5.5.6h-.4c.6-.3 1-.5 1.2-.8.3-.2.4-.5.4-.8 0-.3-.1-.6-.3-.7a1 1 0 0 0-.7-.3Zm13.9 8.2-1.2-.5-1-.8h.4l-1.4 1c-.5.2-1 .3-1.7.3s-1.2 0-1.7-.3c-.5-.2-.9-.5-1.1-.8a2 2 0 0 1-.4-1.3c0-.6.2-1.1.5-1.5.3-.5.8-.9 1.4-1.2l.5-.3-.3.3-.8-1-.3-1.1c0-.5.1-.8.3-1.2.2-.3.5-.5 1-.7.3-.2.8-.3 1.3-.3.7 0 1.2.2 1.6.6.5.3.7.8.7 1.4a2.2 2.2 0 0 1-.8 1.7 6 6 0 0 1-1.2.8V67l2.3 2.4h-.3l.5-1.3.2-1.5h1.4c0 .7-.1 1.4-.3 2l-.8 1.7v-.4a4.7 4.7 0 0 0 1.7 1.2l-.5 1.1ZM204 71a2.6 2.6 0 0 0 2-1v.4l-2.7-2.8h.7l-.4.2a5 5 0 0 0-.7.6 2 2 0 0 0-.5.6l-.1.7c0 .4.1.7.4 1 .3.2.8.3 1.3.3Zm.3-7c-.3 0-.6 0-.8.2a1 1 0 0 0-.3.8v.4l.4.5.5.6h-.4c.6-.3 1-.5 1.2-.8.3-.2.4-.5.4-.8 0-.3-.1-.6-.3-.7a1 1 0 0 0-.7-.3Zm13.9 8.1-1.2-.5-1-.8h.4l-1.4 1c-.5.2-1 .3-1.7.3s-1.2 0-1.7-.3c-.5-.2-.9-.5-1.1-.8a2 2 0 0 1-.4-1.3c0-.6.2-1.1.5-1.5.3-.5.8-.9 1.4-1.2l.5-.3-.3.3-.8-1-.3-1.1c0-.5.1-.8.3-1.2.2-.3.5-.5 1-.7.3-.2.8-.3 1.3-.3.7 0 1.2.2 1.6.6.5.3.7.8.7 1.4a2.2 2.2 0 0 1-.8 1.7 6 6 0 0 1-1.2.8V67l2.3 2.4h-.3l.5-1.3.2-1.5h1.4c0 .7-.1 1.4-.3 2l-.8 1.7v-.4a4.7 4.7 0 0 0 1.7 1.2l-.5 1.1Zm-4.8-1.2a2.6 2.6 0 0 0 2-1v.4l-2.7-2.8h.7l-.4.2a5 5 0 0 0-.7.6 2 2 0 0 0-.5.6l-.1.7c0 .4.1.7.4 1 .3.2.8.3 1.3.3Zm.3-7c-.3 0-.6 0-.8.2a1 1 0 0 0-.3.8v.4l.4.5.5.6h-.4c.6-.3 1-.5 1.2-.8.3-.2.4-.5.4-.8 0-.3-.1-.6-.3-.7a1 1 0 0 0-.7-.3Zm13.9 8.2-1.2-.5-1-.8h.4l-1.4 1c-.5.2-1 .3-1.7.3-.6 0-1.2 0-1.7-.3-.5-.2-.9-.5-1.1-.8a2 2 0 0 1-.4-1.3c0-.6.2-1.1.5-1.5.3-.5.8-.9 1.4-1.2l.5-.3-.3.3-.8-1-.3-1.1c0-.5.1-.8.3-1.2.2-.3.5-.5 1-.7.3-.2.8-.3 1.3-.3.7 0 1.2.2 1.6.6.5.3.7.8.7 1.4a2.2 2.2 0 0 1-.8 1.7 6 6 0 0 1-1.2.8V67l2.3 2.4h-.3l.5-1.3.2-1.5h1.4c0 .7-.1 1.4-.3 2l-.8 1.7v-.4A4.7 4.7 0 0 0 228 71l-.5 1.1Zm-4.8-1.2a2.6 2.6 0 0 0 2-1v.4l-2.7-2.8h.7l-.4.2a5 5 0 0 0-.7.6 2 2 0 0 0-.5.6l-.1.7c0 .4.1.7.4 1 .3.2.8.3 1.3.3Zm.3-7c-.3 0-.6 0-.8.2a1 1 0 0 0-.3.8v.4l.4.5.5.6h-.4c.6-.3 1-.5 1.2-.8.3-.2.4-.5.4-.8 0-.3-.1-.6-.3-.7a1 1 0 0 0-.7-.3Zm8.9 3.3v-1.8h1.8v1.8H232Zm0 4.8v-1.8h1.8V72H232ZM81.6 90.8V89h1.8v1.8h-1.8Zm6.6 0 3-3.8v.8l-2.8-3.6h1.9l1.9 2.5h-.6l1.9-2.5h1.9l-2.9 3.6V87l3 3.8h-1.9l-2-2.6h.6l-2 2.6h-2Zm17.2.2-1.2-.6-1-.8h.4l-1.4 1c-.5.2-1 .3-1.7.3s-1.2 0-1.7-.3c-.5-.2-.9-.5-1.1-.8a2 2 0 0 1-.4-1.3c0-.6.2-1.1.5-1.5.3-.5.8-.9 1.4-1.2l.5-.3-.3.3-.8-1-.3-1.1c0-.5.1-.8.3-1.2.2-.3.5-.5 1-.7.3-.2.8-.3 1.3-.3.7 0 1.2.2 1.6.6.5.3.7.8.7 1.4a2.2 2.2 0 0 1-.9 1.7 6 6 0 0 1-1 .8v-.3l2.2 2.4h-.3l.5-1.3.2-1.5h1.4c0 .7-.1 1.4-.3 2l-.8 1.7v-.4a4.7 4.7 0 0 0 1.7 1.2l-.5 1.1Zm-4.8-1.3a2.6 2.6 0 0 0 2-1v.4l-2.7-2.8h.7l-.4.2a5 5 0 0 0-.7.6 2 2 0 0 0-.5.6l-.1.7c0 .4.1.7.4 1 .3.2.8.3 1.3.3Zm.3-7c-.3 0-.6 0-.8.2a1 1 0 0 0-.3.8v.4l.4.5.5.6h-.4c.6-.3 1-.5 1.2-.8.3-.2.4-.5.4-.8 0-.3-.1-.6-.3-.7a1 1 0 0 0-.7-.3Zm13.9 8.3-1.2-.6-1-.8h.4l-1.4 1c-.5.2-1 .3-1.7.3s-1.2 0-1.7-.3c-.5-.2-.9-.5-1.1-.8a2 2 0 0 1-.4-1.3c0-.6.2-1.1.5-1.5.3-.5.8-.9 1.4-1.2l.5-.3-.3.3-.8-1-.3-1.1c0-.5.1-.8.3-1.2.2-.3.5-.5 1-.7.3-.2.8-.3 1.3-.3.7 0 1.2.2 1.6.6.5.3.7.8.7 1.4a2.2 2.2 0 0 1-.8 1.7 6 6 0 0 1-1.2.8v-.3l2.3 2.4h-.3l.5-1.3.2-1.5h1.4c0 .7-.1 1.4-.3 2l-.8 1.7v-.4a4.7 4.7 0 0 0 1.7 1.2l-.5 1.1Zm-4.8-1.3a2.6 2.6 0 0 0 2-1v.4l-2.7-2.8h.7l-.4.2a5 5 0 0 0-.7.6 2 2 0 0 0-.5.6l-.1.7c0 .4.1.7.4 1 .3.2.8.3 1.3.3Zm.3-7c-.3 0-.6 0-.8.2a1 1 0 0 0-.3.8v.4l.4.5.5.6h-.4c.6-.3 1-.5 1.2-.8.3-.2.4-.5.4-.8 0-.3-.1-.6-.3-.7a1 1 0 0 0-.7-.3Zm13.9 8.3-1.2-.6-1-.8h.4l-1.4 1c-.5.2-1 .3-1.7.3-.6 0-1.2 0-1.7-.3-.5-.2-.9-.5-1.1-.8a2 2 0 0 1-.4-1.3c0-.6.2-1.1.5-1.5.3-.5.8-.9 1.4-1.2l.5-.3-.3.3-.8-1-.3-1.1c0-.5.1-.8.3-1.2.2-.3.5-.5 1-.7.3-.2.8-.3 1.3-.3.7 0 1.2.2 1.6.6.5.3.7.8.7 1.4a2.2 2.2 0 0 1-.8 1.7 6 6 0 0 1-1.2.8v-.3l2.3 2.4h-.3l.5-1.3.2-1.5h1.4c0 .7-.1 1.4-.3 2L123 89v-.4a4.7 4.7 0 0 0 1.7 1.2l-.5 1.1Zm-4.8-1.3a2.6 2.6 0 0 0 2-1v.4l-2.7-2.8h.7l-.4.2a5 5 0 0 0-.7.6 2 2 0 0 0-.5.6l-.1.7c0 .4.1.7.4 1 .3.2.8.3 1.3.3Zm.3-7c-.3 0-.6 0-.8.2a1 1 0 0 0-.3.8v.4l.4.5.5.6h-.4c.6-.3 1-.5 1.2-.8.3-.2.4-.5.4-.8 0-.3-.1-.6-.3-.7a1 1 0 0 0-.7-.3Zm13.9 8.3-1.2-.6-1-.8h.4l-1.4 1c-.5.2-1 .3-1.7.3-.6 0-1.2 0-1.7-.3-.5-.2-.9-.5-1.1-.8a2 2 0 0 1-.4-1.3c0-.6.2-1.1.5-1.5.3-.5.8-.9 1.4-1.2l.5-.3-.3.3-.8-1-.3-1.1c0-.5.1-.8.3-1.2.2-.3.5-.5 1-.7.3-.2.8-.3 1.3-.3.7 0 1.2.2 1.6.6.5.3.7.8.7 1.4a2.2 2.2 0 0 1-.8 1.7 6 6 0 0 1-1.2.8v-.3l2.3 2.4h-.3l.5-1.3.2-1.5h1.4c0 .7-.1 1.4-.3 2l-.8 1.7v-.4a4.7 4.7 0 0 0 1.7 1.2l-.5 1.1Zm-4.8-1.3a2.6 2.6 0 0 0 2-1v.4l-2.7-2.8h.7l-.4.2a5 5 0 0 0-.7.6 2 2 0 0 0-.5.6l-.1.7c0 .4.1.7.4 1 .3.2.8.3 1.3.3Zm.3-7c-.3 0-.6 0-.8.2a1 1 0 0 0-.3.8v.4l.4.5.5.6h-.4c.6-.3 1-.5 1.2-.8.3-.2.4-.5.4-.8 0-.3-.1-.6-.3-.7a1 1 0 0 0-.7-.3Zm9.3 9.6v-1.7l.3.3c-.7 0-1.2-.1-1.8-.3-.6-.2-1-.4-1.5-.8l.6-1.3a4.8 4.8 0 0 0 2.9 1c.6 0 1.1-.1 1.4-.4.3-.2.5-.5.5-.8 0-.3-.1-.6-.4-.7l-1-.5-1.4-.3a3 3 0 0 1-1.8-.8c-.4-.4-.6-1-.6-1.6 0-.6.2-1 .4-1.4l1-1c.5-.2 1-.4 1.6-.4l-.2.2V80h1.3v1.7l-.3-.2 1.5.3c.5.1.9.4 1.2.7l-.5 1.3c-.3-.3-.7-.6-1.2-.7a4 4 0 0 0-1.3-.2c-.6 0-1 0-1.4.3-.3.3-.5.6-.5 1 0 .3.1.5.3.7l1 .5 1.4.3c.8.1 1.5.4 1.9.8.4.4.6 1 .6 1.6 0 .5-.2 1-.4 1.3l-1 1-1.6.4.3-.3v1.7h-1.3Zm9.8.2-.7-.5c.3-.3.5-.5.6-.8l.2-.8.4.4h-1.3V89h1.8v1.2c0 .4 0 .8-.2 1.2l-.8 1.1Zm-.8-6.5v-1.8h1.8V86h-1.8Zm65.8 4.8V89h1.8v1.8h-1.8Zm9.8 1.5v-1.7l.3.3c-.7 0-1.2-.1-1.8-.3-.6-.2-1-.4-1.5-.8l.6-1.3a4.8 4.8 0 0 0 2.9 1c.6 0 1.1-.1 1.4-.4.3-.2.5-.5.5-.8 0-.3-.1-.6-.4-.7l-1-.5-1.4-.3a3 3 0 0 1-1.8-.8c-.4-.4-.6-1-.6-1.6 0-.6.2-1 .4-1.4l1-1c.5-.2 1-.4 1.6-.4l-.2.2V80h1.3v1.7l-.3-.2 1.5.3c.5.1.9.4 1.2.7l-.5 1.3c-.3-.3-.7-.6-1.1-.7a4 4 0 0 0-1.4-.2c-.6 0-1 0-1.4.3-.3.3-.5.6-.5 1 0 .3.1.5.3.7l1 .5 1.4.3c.8.1 1.5.4 1.9.8.4.4.6 1 .6 1.6 0 .5-.2 1-.4 1.3l-1 1-1.6.4.3-.3v1.7H223Zm14-1.3-1.2-.6-1-.8h.4l-1.4 1c-.5.2-1 .3-1.7.3s-1.2 0-1.7-.3c-.5-.2-.9-.5-1.1-.8a2 2 0 0 1-.4-1.3c0-.6.2-1.1.5-1.5.3-.5.8-.9 1.4-1.2l.5-.3-.3.3-.8-1-.3-1.1c0-.5.1-.8.3-1.2.2-.3.5-.5 1-.7.3-.2.8-.3 1.3-.3.7 0 1.2.2 1.6.6.5.3.7.8.7 1.4a2.2 2.2 0 0 1-.9 1.7 6 6 0 0 1-1 .8v-.3l2.2 2.4h-.3l.5-1.3.2-1.5h1.4c0 .7-.1 1.4-.3 2l-.8 1.7v-.4a4.7 4.7 0 0 0 1.7 1.2l-.5 1.1Zm-4.8-1.3a2.6 2.6 0 0 0 2-1v.4l-2.7-2.8h.7l-.4.2a5 5 0 0 0-.7.6 2 2 0 0 0-.5.6l-.1.7c0 .4.1.7.4 1 .3.2.8.3 1.3.3Zm.3-7c-.3 0-.6 0-.8.2a1 1 0 0 0-.3.8v.4l.4.5.5.6h-.4c.6-.3 1-.5 1.2-.8.3-.2.4-.5.4-.8 0-.3-.1-.6-.3-.7a1 1 0 0 0-.7-.3Zm9.3 9.6v-1.7l.3.3c-.7 0-1.2-.1-1.8-.3-.6-.2-1-.4-1.5-.8l.6-1.3a4.8 4.8 0 0 0 2.9 1c.6 0 1.1-.1 1.4-.4.3-.2.5-.5.5-.8 0-.3-.1-.6-.4-.7l-1-.5-1.4-.3a3 3 0 0 1-1.8-.8c-.4-.4-.6-1-.6-1.6 0-.6.2-1 .4-1.4l1-1c.5-.2 1-.4 1.6-.4l-.2.2V80h1.3v1.7l-.3-.2 1.5.3c.5.1.9.4 1.2.7L245 84c-.3-.3-.7-.6-1.2-.7a4 4 0 0 0-1.3-.2c-.6 0-1 0-1.4.3-.3.3-.5.6-.5 1 0 .3.1.5.3.7l1 .5 1.4.3c.8.1 1.5.4 1.9.8.4.4.6 1 .6 1.6 0 .5-.2 1-.4 1.3l-1 1-1.6.4.3-.3v1.7h-1.3ZM60 109.6l3-3.8v.8l-2.8-3.6H62l1.9 2.5h-.6l1.9-2.5h1.9l-2.9 3.6v-.8l3 3.8h-1.9l-2-2.6h.6l-2 2.6h-2Zm17.2.1-1.2-.5-1-.8h.4l-1.4 1c-.5.2-1 .3-1.7.3s-1.2 0-1.7-.3c-.5-.2-.9-.5-1.1-.8a2 2 0 0 1-.4-1.3c0-.6.2-1.1.5-1.5.3-.5.8-.9 1.4-1.2l.5-.3-.3.3-.8-1-.3-1.1c0-.5.1-.8.3-1.2.2-.3.5-.5 1-.7.3-.2.8-.3 1.3-.3.7 0 1.2.2 1.6.6.5.3.7.8.7 1.4a2.2 2.2 0 0 1-.9 1.7 6 6 0 0 1-1 .8v-.3l2.2 2.4H75l.5-1.3.2-1.5h1.4c0 .7-.1 1.4-.3 2l-.8 1.7v-.4a4.7 4.7 0 0 0 1.7 1.2l-.5 1.1Zm-4.8-1.2a2.6 2.6 0 0 0 2-1v.4l-2.7-2.8h.7l-.4.2a5 5 0 0 0-.7.6 2 2 0 0 0-.5.6l-.1.7c0 .4.1.7.4 1 .3.2.8.3 1.3.3Zm.3-7c-.3 0-.6 0-.8.2a1 1 0 0 0-.3.8v.4l.4.5.5.6h-.4c.6-.3 1-.5 1.2-.8.3-.2.4-.5.4-.8 0-.3-.1-.6-.3-.7a1 1 0 0 0-.7-.3Zm13.9 8.2-1.2-.5-1-.8h.4l-1.4 1c-.5.2-1 .3-1.7.3s-1.2 0-1.7-.3c-.5-.2-.9-.5-1.1-.8a2 2 0 0 1-.4-1.3c0-.6.2-1.1.5-1.5.3-.5.8-.9 1.4-1.2l.5-.3-.3.3-.8-1-.3-1.1c0-.5.1-.8.3-1.2.2-.3.5-.5 1-.7.3-.2.8-.3 1.3-.3.7 0 1.2.2 1.6.6.5.3.7.8.7 1.4a2.2 2.2 0 0 1-.9 1.7 6 6 0 0 1-1 .8v-.3l2.2 2.4h-.3l.5-1.3.2-1.5h1.4c0 .7-.1 1.4-.3 2l-.8 1.7v-.4a4.7 4.7 0 0 0 1.7 1.2l-.5 1.1Zm-4.8-1.2a2.6 2.6 0 0 0 2-1v.4l-2.7-2.8h.7l-.4.2a5 5 0 0 0-.7.6 2 2 0 0 0-.5.6l-.1.7c0 .4.1.7.4 1 .3.2.8.3 1.3.3Zm.3-7c-.3 0-.6 0-.8.2a1 1 0 0 0-.3.8v.4l.4.5.5.6h-.4c.6-.3 1-.5 1.2-.8.3-.2.4-.5.4-.8 0-.3-.1-.6-.3-.7a1 1 0 0 0-.7-.3Zm13.9 8.2-1.2-.5-1-.8h.4l-1.4 1c-.5.2-1 .3-1.7.3s-1.2 0-1.7-.3c-.5-.2-.9-.5-1.1-.8a2 2 0 0 1-.4-1.3c0-.6.2-1.1.5-1.5.3-.5.8-.9 1.4-1.2l.5-.3-.3.3-.8-1-.3-1.1c0-.5.1-.8.3-1.2.2-.3.5-.5 1-.7.3-.2.8-.3 1.3-.3.7 0 1.2.2 1.6.6.5.3.7.8.7 1.4a2.2 2.2 0 0 1-.9 1.7 6 6 0 0 1-1 .8v-.3l2.2 2.4h-.3l.5-1.3.2-1.5H96c0 .7-.1 1.4-.3 2l-.8 1.7v-.4a4.7 4.7 0 0 0 1.7 1.2l-.5 1.1Zm-4.8-1.2a2.6 2.6 0 0 0 2-1v.4l-2.7-2.8h.7l-.4.2a5 5 0 0 0-.7.6 2 2 0 0 0-.5.6l-.1.7c0 .4.1.7.4 1 .3.2.8.3 1.3.3Zm.3-7c-.3 0-.6 0-.8.2a1 1 0 0 0-.3.8v.4l.4.5.5.6H91c.6-.3 1-.5 1.2-.8.3-.2.4-.5.4-.8 0-.3-.1-.6-.3-.7a1 1 0 0 0-.7-.3Zm9.3 9.5v-1.6l.3.3c-.7 0-1.2-.1-1.8-.3-.6-.2-1-.4-1.5-.8l.6-1.3a4.8 4.8 0 0 0 2.9 1c.6 0 1.1-.1 1.4-.4.3-.2.5-.5.5-.8 0-.3-.1-.6-.4-.7l-1-.5-1.4-.3a3 3 0 0 1-1.8-.8c-.4-.4-.6-1-.6-1.6 0-.6.2-1 .4-1.4l1-1c.5-.2 1-.4 1.6-.4l-.2.2v-1.7h1.3v1.7l-.3-.2 1.5.3c.5.1.9.4 1.2.7l-.5 1.3c-.3-.3-.7-.6-1.2-.7a4 4 0 0 0-1.3-.2c-.6 0-1 0-1.4.3-.3.3-.5.6-.5 1 0 .3.1.5.3.7l1 .5 1.4.3c.8.1 1.5.4 1.9.8.4.4.6 1 .6 1.6 0 .5-.2 1-.4 1.3l-1 1-1.6.4.3-.3v1.7h-1.3Zm9-1.4v-1.8h1.8v1.8h-1.8Zm127.2.1-1.2-.5-1-.8h.4l-1.4 1c-.5.2-1 .3-1.7.3s-1.2 0-1.7-.3c-.5-.2-.9-.5-1.1-.8a2 2 0 0 1-.4-1.3c0-.6.2-1.1.5-1.5.3-.5.8-.9 1.4-1.2l.5-.3-.3.3-.8-1-.3-1.1c0-.5.1-.8.3-1.2.2-.3.5-.5 1-.7.3-.2.8-.3 1.3-.3.7 0 1.2.2 1.6.6.5.3.7.8.7 1.4a2.2 2.2 0 0 1-.9 1.7 6 6 0 0 1-1 .8v-.3l2.2 2.4h-.3l.5-1.3.2-1.5h1.4c0 .7-.1 1.4-.3 2l-.8 1.7v-.4a4.7 4.7 0 0 0 1.7 1.2l-.5 1.1Zm-4.8-1.2a2.6 2.6 0 0 0 2-1v.4l-2.7-2.8h.7l-.4.2a5 5 0 0 0-.7.6 2 2 0 0 0-.5.6l-.1.7c0 .4.1.7.4 1 .3.2.8.3 1.3.3Zm.3-7c-.3 0-.6 0-.8.2a1 1 0 0 0-.3.8v.4l.4.5.5.6h-.4c.6-.3 1-.5 1.2-.8.3-.2.4-.5.4-.8 0-.3-.1-.6-.3-.7a1 1 0 0 0-.7-.3Zm13.9 8.2-1.2-.5-1-.8h.4l-1.4 1c-.5.2-1 .3-1.7.3s-1.2 0-1.7-.3c-.5-.2-.9-.5-1.1-.8a2 2 0 0 1-.4-1.3c0-.6.2-1.1.5-1.5.3-.5.8-.9 1.4-1.2l.5-.3-.3.3-.8-1-.3-1.1c0-.5.1-.8.3-1.2.2-.3.5-.5 1-.7.3-.2.8-.3 1.3-.3.7 0 1.2.2 1.6.6.5.3.7.8.7 1.4a2.2 2.2 0 0 1-.8 1.7 6 6 0 0 1-1.2.8v-.3l2.3 2.4h-.3l.5-1.3.2-1.5h1.4c0 .7-.1 1.4-.3 2l-.8 1.7v-.4a4.7 4.7 0 0 0 1.7 1.2l-.5 1.1Zm-4.8-1.2a2.6 2.6 0 0 0 2-1v.4L241 105h.7l-.4.2a5 5 0 0 0-.7.6 2 2 0 0 0-.5.6l-.1.7c0 .4.1.7.4 1 .3.2.8.3 1.3.3Zm.3-7c-.3 0-.6 0-.8.2a1 1 0 0 0-.3.8v.4l.4.5.5.6h-.4c.6-.3 1-.5 1.2-.8.3-.2.4-.5.4-.8 0-.3-.1-.6-.3-.7a1 1 0 0 0-.7-.3Zm8.9 8.1v-1.8h1.8v1.8h-1.8ZM44.4 129.9v-1.7l.3.3c-.7 0-1.2-.1-1.8-.3-.6-.2-1-.4-1.5-.8l.6-1.3a4.8 4.8 0 0 0 2.9 1c.6 0 1.1-.1 1.4-.4.3-.2.5-.5.5-.8 0-.3-.1-.6-.4-.7l-1-.5-1.4-.3a3 3 0 0 1-1.8-.8c-.4-.4-.6-1-.6-1.6 0-.6.2-1 .4-1.4l1-1c.5-.2 1-.4 1.6-.4l-.2.2v-1.7h1.3v1.7l-.3-.2 1.5.3c.5.1.9.4 1.2.7l-.5 1.3c-.3-.3-.7-.6-1.2-.7a4 4 0 0 0-1.3-.2c-.6 0-1 0-1.4.3-.3.3-.5.6-.5 1 0 .3.1.5.3.7l1 .5 1.4.3c.8.1 1.5.4 1.9.8.4.4.6 1 .6 1.6 0 .5-.2 1-.4 1.3l-1 1-1.6.4.3-.3v1.7h-1.3Zm14-1.4-1.2-.5-1-.8h.4l-1.4 1c-.5.2-1 .3-1.7.3s-1.2 0-1.7-.3c-.5-.2-.9-.5-1.1-.8a2 2 0 0 1-.4-1.3c0-.6.2-1.1.5-1.5.3-.5.8-.9 1.4-1.2l.5-.3-.3.3-.8-1-.3-1.1c0-.5.1-.8.3-1.2.2-.3.5-.5 1-.7.3-.2.8-.3 1.3-.3.7 0 1.2.2 1.6.6.5.3.7.8.7 1.4a2.2 2.2 0 0 1-.9 1.7 6 6 0 0 1-1 .8v-.3l2.2 2.4h-.3l.5-1.3.2-1.5h1.4c0 .7-.1 1.4-.3 2l-.8 1.7v-.4a4.7 4.7 0 0 0 1.7 1.2l-.5 1.1Zm-4.8-1.2a2.6 2.6 0 0 0 2-1v.4l-2.7-2.8h.7l-.4.2a5 5 0 0 0-.7.6 2 2 0 0 0-.5.6l-.1.7c0 .4.1.7.4 1 .3.2.8.3 1.3.3Zm.3-7c-.3 0-.6 0-.8.2a1 1 0 0 0-.3.8v.4l.4.5.5.6h-.4c.6-.3 1-.5 1.2-.8.3-.2.4-.5.4-.8 0-.3-.1-.6-.3-.7a1 1 0 0 0-.7-.3Zm13.9 8.2-1.2-.5-1-.8h.4l-1.4 1c-.5.2-1 .3-1.7.3s-1.2 0-1.7-.3c-.5-.2-.9-.5-1.1-.8a2 2 0 0 1-.4-1.3c0-.6.2-1.1.5-1.5.3-.5.8-.9 1.4-1.2l.5-.3-.3.3-.8-1-.3-1.1c0-.5.1-.8.3-1.2.2-.3.5-.5 1-.7.3-.2.8-.3 1.3-.3.7 0 1.2.2 1.6.6.5.3.7.8.7 1.4a2.2 2.2 0 0 1-.9 1.7 6 6 0 0 1-1 .8v-.3l2.2 2.4h-.3l.5-1.3.2-1.5h1.4c0 .7-.1 1.4-.3 2l-.8 1.7v-.4a4.7 4.7 0 0 0 1.7 1.2l-.5 1.1Zm-4.8-1.2a2.6 2.6 0 0 0 2-1v.4l-2.7-2.8h.7l-.4.2a5 5 0 0 0-.7.6 2 2 0 0 0-.5.6l-.1.7c0 .4.1.7.4 1 .3.2.8.3 1.3.3Zm.3-7c-.3 0-.6 0-.8.2a1 1 0 0 0-.3.8v.4l.4.5.5.6h-.4c.6-.3 1-.5 1.2-.8.3-.2.4-.5.4-.8 0-.3-.1-.6-.3-.7a1 1 0 0 0-.7-.3Zm9.3 9.6v-1.7l.3.3c-.7 0-1.2-.1-1.8-.3-.6-.2-1-.4-1.5-.8l.6-1.3a4.8 4.8 0 0 0 2.9 1c.6 0 1.1-.1 1.4-.4.3-.2.5-.5.5-.8 0-.3-.1-.6-.4-.7l-1-.5-1.4-.3a3 3 0 0 1-1.8-.8c-.4-.4-.6-1-.6-1.6 0-.6.2-1 .4-1.4l1-1c.5-.2 1-.4 1.6-.4l-.2.2v-1.7h1.3v1.7l-.3-.2 1.5.3c.5.1.9.4 1.2.7l-.5 1.3c-.3-.3-.7-.6-1.2-.7a4 4 0 0 0-1.3-.2c-.6 0-1 0-1.4.3-.3.3-.5.6-.5 1 0 .3.1.5.3.7l1 .5 1.4.3c.8.1 1.5.4 1.9.8.4.4.6 1 .6 1.6 0 .5-.2 1-.4 1.3l-1 1-1.6.4.3-.3v1.7h-1.3Zm9-1.5v-1.8h1.8v1.8h-1.8Zm141.8 1.7-.7-.5c.3-.3.5-.5.6-.8l.2-.8.4.4h-1.3v-1.8h1.8v1.2c0 .4 0 .8-.2 1.2l-.8 1.1Zm-.8-6.5v-1.8h1.8v1.8h-1.8Zm14.4 4.9-1.2-.5-1-.8h.4l-1.4 1c-.5.2-1 .3-1.7.3s-1.2 0-1.7-.3c-.5-.2-.9-.5-1.1-.8a2 2 0 0 1-.4-1.3c0-.6.2-1.1.5-1.5.3-.5.8-.9 1.4-1.2l.5-.3-.3.3-.8-1-.3-1.1c0-.5.1-.8.3-1.2.2-.3.5-.5 1-.7.3-.2.8-.3 1.3-.3.7 0 1.2.2 1.6.6.5.3.7.8.7 1.4a2.2 2.2 0 0 1-.9 1.7 6 6 0 0 1-1 .8v-.3l2.2 2.4h-.3l.5-1.3.2-1.5h1.4c0 .7-.1 1.4-.3 2l-.8 1.7v-.4a4.7 4.7 0 0 0 1.7 1.2l-.5 1.1Zm-4.8-1.2a2.6 2.6 0 0 0 2-1v.4l-2.7-2.8h.7l-.4.2a5 5 0 0 0-.7.6 2 2 0 0 0-.5.6l-.1.7c0 .4.1.7.4 1 .3.2.8.3 1.3.3Zm.3-7c-.3 0-.6 0-.8.2a1 1 0 0 0-.3.8v.4l.4.5.5.6h-.4c.6-.3 1-.5 1.2-.8.3-.2.4-.5.4-.8 0-.3-.1-.6-.3-.7a1 1 0 0 0-.7-.3Zm9.3 9.6v-1.7l.3.3c-.7 0-1.2-.1-1.8-.3-.6-.2-1-.4-1.5-.8l.6-1.3a4.9 4.9 0 0 0 2.9 1c.6 0 1.1-.1 1.4-.4.3-.2.5-.5.5-.8 0-.3-.1-.6-.4-.7l-1-.5-1.4-.3a3 3 0 0 1-1.8-.8c-.4-.4-.6-1-.6-1.6 0-.6.2-1 .4-1.4l1-1c.5-.2 1-.4 1.6-.4l-.2.2v-1.7h1.3v1.7l-.3-.2 1.5.3c.5.1.9.4 1.2.7l-.5 1.3c-.3-.3-.7-.6-1.2-.7a4 4 0 0 0-1.3-.2c-.6 0-1 0-1.4.3-.3.3-.5.6-.5 1 0 .3.1.5.3.7l1 .5 1.4.3c.8.1 1.5.4 1.9.8.4.4.6 1 .6 1.6 0 .5-.2 1-.4 1.3l-1 1-1.6.4.3-.3v1.7h-1.3ZM25.2 147.2v-1.8H27v1.8h-1.8Zm14.4.1-1.2-.5-1-.8h.4l-1.4 1c-.5.2-1 .3-1.7.3s-1.2 0-1.7-.3c-.5-.2-.9-.5-1.1-.8a2 2 0 0 1-.4-1.3c0-.6.2-1.1.5-1.5.3-.5.8-.9 1.4-1.2l.5-.3-.3.3-.8-1-.3-1.1c0-.5.1-.8.3-1.2.2-.3.5-.5 1-.7.3-.2.8-.3 1.3-.3.7 0 1.2.2 1.6.6.5.3.7.8.7 1.4a2.2 2.2 0 0 1-.9 1.7 6 6 0 0 1-1 .8v-.3l2.2 2.4h-.3l.5-1.3.2-1.5h1.4c0 .7-.1 1.4-.3 2l-.8 1.7v-.4a4.7 4.7 0 0 0 1.7 1.2l-.5 1.1Zm-4.8-1.2a2.6 2.6 0 0 0 2-1v.4l-2.7-2.8h.7l-.4.2a5 5 0 0 0-.7.6 2 2 0 0 0-.5.6l-.1.7c0 .4.1.7.4 1 .3.2.8.3 1.3.3Zm.3-7c-.3 0-.6 0-.8.2a1 1 0 0 0-.3.8v.4l.4.5.5.6h-.4c.6-.3 1-.5 1.2-.8.3-.2.4-.5.4-.8 0-.3-.1-.6-.3-.7a1 1 0 0 0-.7-.3Zm13.9 8.2-1.2-.5-1-.8h.4l-1.4 1c-.5.2-1 .3-1.7.3s-1.2 0-1.7-.3c-.5-.2-.9-.5-1.1-.8a2 2 0 0 1-.4-1.3c0-.6.2-1.1.5-1.5.3-.5.8-.9 1.4-1.2l.5-.3-.3.3-.8-1-.3-1.1c0-.5.1-.8.3-1.2.2-.3.5-.5 1-.7.3-.2.8-.3 1.3-.3.7 0 1.2.2 1.6.6.5.3.7.8.7 1.4a2.2 2.2 0 0 1-.9 1.7 6 6 0 0 1-1 .8v-.3l2.2 2.4h-.3l.5-1.3.2-1.5H49c0 .7-.1 1.4-.3 2l-.8 1.7v-.4a4.7 4.7 0 0 0 1.7 1.2l-.5 1.1Zm-4.8-1.2a2.6 2.6 0 0 0 2-1v.4l-2.7-2.8h.7l-.4.2a5 5 0 0 0-.7.6 2 2 0 0 0-.5.6l-.1.7c0 .4.1.7.4 1 .3.2.8.3 1.3.3Zm.3-7c-.3 0-.6 0-.8.2a1 1 0 0 0-.3.8v.4l.4.5.5.6H44c.6-.3 1-.5 1.2-.8.3-.2.4-.5.4-.8 0-.3-.1-.6-.3-.7a1 1 0 0 0-.7-.3Zm13.9 8.2-1.2-.5-1-.8h.4l-1.4 1c-.5.2-1 .3-1.7.3s-1.2 0-1.7-.3c-.5-.2-.9-.5-1.1-.8a2 2 0 0 1-.4-1.3c0-.6.2-1.1.5-1.5.3-.5.8-.9 1.4-1.2l.5-.3-.3.3-.8-1-.3-1.1c0-.5.1-.8.3-1.2.2-.3.5-.5 1-.7.3-.2.8-.3 1.3-.3.7 0 1.2.2 1.6.6.5.3.7.8.7 1.4a2.2 2.2 0 0 1-.9 1.7 6 6 0 0 1-1 .8v-.3l2.2 2.4h-.3l.5-1.3.2-1.5h1.4c0 .7-.1 1.4-.3 2l-.8 1.7v-.4a4.7 4.7 0 0 0 1.7 1.2l-.5 1.1Zm-4.8-1.2a2.6 2.6 0 0 0 2-1v.4l-2.7-2.8h.7l-.4.2a5 5 0 0 0-.7.6 2 2 0 0 0-.5.6l-.1.7c0 .4.1.7.4 1 .3.2.8.3 1.3.3Zm.3-7c-.3 0-.6 0-.8.2a1 1 0 0 0-.3.8v.4l.4.5.5.6h-.4c.6-.3 1-.5 1.2-.8.3-.2.4-.5.4-.8 0-.3-.1-.6-.3-.7a1 1 0 0 0-.7-.3Zm8.9 8.1v-1.8h1.8v1.8h-1.8Zm141 0v-1.8h1.8v1.8h-1.8Zm9.8 1.5V147l.3.3c-.7 0-1.2-.1-1.8-.3-.6-.2-1-.4-1.5-.8l.6-1.3a4.8 4.8 0 0 0 2.9 1c.6 0 1.1-.1 1.4-.4.3-.2.5-.5.5-.8 0-.3-.1-.6-.4-.7l-1-.5-1.4-.3a3 3 0 0 1-1.8-.8c-.4-.4-.6-1-.6-1.6 0-.6.2-1 .4-1.4l1-1c.5-.2 1-.4 1.6-.4l-.2.2v-1.7h1.3v1.7l-.3-.2 1.5.3c.5.1.9.4 1.2.7l-.5 1.3c-.3-.3-.7-.6-1.2-.7a4 4 0 0 0-1.3-.2c-.6 0-1 0-1.4.3-.3.3-.5.6-.5 1 0 .3.1.5.3.7l1 .5 1.4.3c.8.1 1.5.4 1.9.8.4.4.6 1 .6 1.6 0 .5-.2 1-.4 1.3l-1 1-1.6.4.3-.3v1.7h-1.3Zm14-1.4-1.2-.5-1-.8h.4l-1.4 1c-.5.2-1 .3-1.7.3-.6 0-1.2 0-1.7-.3-.5-.2-.9-.5-1.1-.8a2 2 0 0 1-.4-1.3c0-.6.2-1.1.5-1.5.3-.5.8-.9 1.4-1.2l.5-.3-.3.3-.8-1-.3-1.1c0-.5.1-.8.3-1.2.2-.3.5-.5 1-.7.3-.2.8-.3 1.3-.3.7 0 1.2.2 1.6.6.5.3.7.8.7 1.4a2.2 2.2 0 0 1-.8 1.7 6 6 0 0 1-1.2.8v-.3l2.3 2.4h-.3l.5-1.3.2-1.5h1.4c0 .7-.1 1.4-.3 2l-.8 1.7v-.4a4.7 4.7 0 0 0 1.7 1.2l-.5 1.1Zm-4.8-1.2a2.6 2.6 0 0 0 2-1v.4l-2.7-2.8h.7l-.4.2a5 5 0 0 0-.7.6 2 2 0 0 0-.5.6l-.1.7c0 .4.1.7.4 1 .3.2.8.3 1.3.3Zm.3-7c-.3 0-.6 0-.8.2a1 1 0 0 0-.3.8v.4l.4.5.5.6h-.4c.6-.3 1-.5 1.2-.8.3-.2.4-.5.4-.8 0-.3-.1-.6-.3-.7a1 1 0 0 0-.7-.3Zm5.3 8.1 3.8-5v.7l-3.6-4.9h2l2.6 3.7h-.6l2.7-3.7h2l-3.7 4.9v-.7l3.8 5h-2l-2.8-3.8h.6l-2.8 3.8h-2ZM15.8 166v-1.8h1.8v1.8h-1.8Zm14.4.1-1.2-.5-1-.8h.4l-1.4 1c-.5.2-1 .3-1.7.3s-1.2 0-1.7-.3c-.5-.2-.9-.5-1.1-.8a2 2 0 0 1-.4-1.3c0-.6.2-1.1.5-1.5.3-.5.8-.9 1.4-1.2l.5-.3-.3.3-.8-1-.3-1.1c0-.5.1-.8.3-1.2.2-.3.5-.5 1-.7.3-.2.8-.3 1.3-.3.7 0 1.2.2 1.6.6.5.3.7.8.7 1.4a2.2 2.2 0 0 1-.9 1.7 6 6 0 0 1-1 .8v-.3l2.2 2.4H28l.5-1.3.2-1.5h1.4c0 .7-.1 1.4-.3 2l-.8 1.7v-.4a4.7 4.7 0 0 0 1.7 1.2l-.5 1.1Zm-4.8-1.2a2.6 2.6 0 0 0 2-1v.4l-2.7-2.8h.7l-.4.2a5 5 0 0 0-.7.6 2 2 0 0 0-.5.6l-.1.7c0 .4.1.7.4 1 .3.2.8.3 1.3.3Zm.3-7c-.3 0-.6 0-.8.2a1 1 0 0 0-.3.8v.4l.4.5.5.6h-.4c.6-.3 1-.5 1.2-.8.3-.2.4-.5.4-.8 0-.3-.1-.6-.3-.7a1 1 0 0 0-.7-.3Zm13.9 8.2-1.2-.5-1-.8h.4l-1.4 1c-.5.2-1 .3-1.7.3s-1.2 0-1.7-.3c-.5-.2-.9-.5-1.1-.8a2 2 0 0 1-.4-1.3c0-.6.2-1.1.5-1.5.3-.5.8-.9 1.4-1.2l.5-.3-.3.3-.8-1-.3-1.1c0-.5.1-.8.3-1.2.2-.3.5-.5 1-.7.3-.2.8-.3 1.3-.3.7 0 1.2.2 1.6.6.5.3.7.8.7 1.4a2.2 2.2 0 0 1-.9 1.7 6 6 0 0 1-1 .8v-.3l2.2 2.4h-.3l.5-1.3.2-1.5h1.4c0 .7-.1 1.4-.3 2l-.8 1.7v-.4A4.7 4.7 0 0 0 40 165l-.5 1.1Zm-4.8-1.2a2.6 2.6 0 0 0 2-1v.4l-2.7-2.8h.7l-.4.2a5 5 0 0 0-.7.6 2 2 0 0 0-.5.6l-.1.7c0 .4.1.7.4 1 .3.2.8.3 1.3.3Zm.3-7c-.3 0-.6 0-.8.2a1 1 0 0 0-.3.8v.4l.4.5.5.6h-.4c.6-.3 1-.5 1.2-.8.3-.2.4-.5.4-.8 0-.3-.1-.6-.3-.7a1 1 0 0 0-.7-.3Zm13.9 8.2-1.2-.5-1-.8h.4l-1.4 1c-.5.2-1 .3-1.7.3s-1.2 0-1.7-.3c-.5-.2-.9-.5-1.1-.8a2 2 0 0 1-.4-1.3c0-.6.2-1.1.5-1.5.3-.5.8-.9 1.4-1.2l.5-.3-.3.3-.8-1-.3-1.1c0-.5.1-.8.3-1.2.2-.3.5-.5 1-.7.3-.2.8-.3 1.3-.3.7 0 1.2.2 1.6.6.5.3.7.8.7 1.4a2.2 2.2 0 0 1-.9 1.7 6 6 0 0 1-1 .8v-.3l2.2 2.4h-.3l.5-1.3.2-1.5H49c0 .7-.1 1.4-.3 2l-.8 1.7v-.4a4.7 4.7 0 0 0 1.7 1.2l-.6 1Zm-4.8-1.2a2.6 2.6 0 0 0 2-1v.4l-2.7-2.8h.7l-.4.2a5 5 0 0 0-.7.6 2 2 0 0 0-.5.6l-.1.7c0 .4.1.7.4 1 .3.2.8.3 1.3.3Zm.3-7c-.3 0-.6 0-.8.2a1 1 0 0 0-.3.8v.4l.4.5.5.6H44c.6-.3 1-.5 1.2-.8.3-.2.4-.5.4-.8 0-.3-.1-.6-.3-.7a1 1 0 0 0-.7-.3Zm65.3 8.1v-1.8h1.8v1.8h-1.8Zm65.8 0v-1.8h1.8v1.8h-1.8Zm23.8.1-1.2-.5-1-.8h.4l-1.4 1c-.5.2-1 .3-1.7.3s-1.2 0-1.7-.3c-.5-.2-.9-.5-1.1-.8a2 2 0 0 1-.4-1.3c0-.6.2-1.1.5-1.5.3-.5.8-.9 1.4-1.2l.5-.3-.3.3-.8-1-.3-1.1c0-.5.1-.8.3-1.2.2-.3.5-.5 1-.7.3-.2.8-.3 1.3-.3.7 0 1.2.2 1.6.6.5.3.7.8.7 1.4a2.2 2.2 0 0 1-.8 1.7 6 6 0 0 1-1.2.8v-.3l2.3 2.4h-.3l.5-1.3.2-1.5h1.4c0 .7-.1 1.4-.3 2l-.8 1.7v-.4a4.7 4.7 0 0 0 1.7 1.2l-.5 1.1Zm-4.8-1.2a2.6 2.6 0 0 0 2-1v.4l-2.7-2.8h.7l-.4.2a5 5 0 0 0-.7.6 2 2 0 0 0-.5.6l-.1.7c0 .4.1.7.4 1 .3.2.8.3 1.3.3Zm.3-7c-.3 0-.6 0-.8.2a1 1 0 0 0-.3.8v.4l.4.5.5.6h-.4c.6-.3 1-.5 1.2-.8.3-.2.4-.5.4-.8 0-.3-.1-.6-.3-.7a1 1 0 0 0-.7-.3Zm13.9 8.2-1.2-.5-1-.8h.4l-1.4 1c-.5.2-1 .3-1.7.3s-1.2 0-1.7-.3c-.5-.2-.9-.5-1.1-.8a2 2 0 0 1-.4-1.3c0-.6.2-1.1.5-1.5.3-.5.8-.9 1.4-1.2l.5-.3-.3.3-.8-1-.3-1.1c0-.5.1-.8.3-1.2.2-.3.5-.5 1-.7.3-.2.8-.3 1.3-.3.7 0 1.2.2 1.6.6.5.3.7.8.7 1.4a2.2 2.2 0 0 1-.8 1.7 6 6 0 0 1-1.2.8v-.3l2.3 2.4h-.3l.5-1.3.2-1.5h1.4c0 .7-.1 1.4-.3 2l-.8 1.7v-.4a4.7 4.7 0 0 0 1.7 1.2l-.5 1.1ZM204 165a2.6 2.6 0 0 0 2-1v.4l-2.7-2.8h.7l-.4.2a5 5 0 0 0-.7.6 2 2 0 0 0-.5.6l-.1.7c0 .4.1.7.4 1 .3.2.8.3 1.3.3Zm.3-7c-.3 0-.6 0-.8.2a1 1 0 0 0-.3.8v.4l.4.5.5.6h-.4c.6-.3 1-.5 1.2-.8.3-.2.4-.5.4-.8 0-.3-.1-.6-.3-.7a1 1 0 0 0-.7-.3Zm9.3 9.5v-1.7l.3.3c-.7 0-1.2-.1-1.8-.3-.6-.2-1-.4-1.5-.8l.6-1.3a4.8 4.8 0 0 0 2.9 1c.6 0 1.1-.1 1.4-.4.3-.2.5-.5.5-.8 0-.3-.1-.6-.4-.7l-1-.5-1.4-.3a3 3 0 0 1-1.8-.8c-.4-.4-.6-1-.6-1.6 0-.6.2-1 .4-1.4l1-1c.5-.2 1-.4 1.6-.4l-.2.2v-1.7h1.3v1.7l-.3-.2 1.5.3c.5.1.9.4 1.2.7l-.5 1.3c-.3-.3-.7-.6-1.2-.7a4 4 0 0 0-1.3-.2c-.6 0-1 0-1.4.3-.3.3-.5.6-.5 1 0 .3.1.5.3.7l1 .5 1.4.3c.8.1 1.5.4 1.9.8.4.4.6 1 .6 1.6 0 .5-.2 1-.4 1.3l-1 1-1.6.4.3-.3v1.7h-1.3ZM15.8 180v-1.8h1.8v1.8h-1.8Zm0 4.8V183h1.8v1.8h-1.8Zm14.4.2-1.2-.6-1-.8h.4l-1.4 1c-.5.2-1 .3-1.7.3s-1.2 0-1.7-.3c-.5-.2-.9-.5-1.1-.8a2 2 0 0 1-.4-1.3c0-.6.2-1.1.5-1.5.3-.5.8-.9 1.4-1.2l.5-.3-.3.3-.8-1-.3-1.1c0-.5.1-.8.3-1.2.2-.3.5-.5 1-.7.3-.2.8-.3 1.3-.3.7 0 1.2.2 1.6.6.5.3.7.8.7 1.4a2.2 2.2 0 0 1-.9 1.7 6 6 0 0 1-1 .8v-.3l2.2 2.4H28l.5-1.3.2-1.5h1.4c0 .7-.1 1.4-.3 2L29 183v-.4a4.7 4.7 0 0 0 1.7 1.2l-.5 1.1Zm-4.8-1.3a2.6 2.6 0 0 0 2-1v.4l-2.7-2.8h.7l-.4.2a5 5 0 0 0-.7.6 2 2 0 0 0-.5.6l-.1.7c0 .4.1.7.4 1 .3.2.8.3 1.3.3Zm.3-7c-.3 0-.6 0-.8.2a1 1 0 0 0-.3.8v.4l.4.5.5.6h-.4c.6-.3 1-.5 1.2-.8.3-.2.4-.5.4-.8 0-.3-.1-.6-.3-.7a1 1 0 0 0-.7-.3Zm13.9 8.3-1.2-.6-1-.8h.4l-1.4 1c-.5.2-1 .3-1.7.3s-1.2 0-1.7-.3c-.5-.2-.9-.5-1.1-.8a2 2 0 0 1-.4-1.3c0-.6.2-1.1.5-1.5.3-.5.8-.9 1.4-1.2l.5-.3-.3.3-.8-1-.3-1.1c0-.5.1-.8.3-1.2.2-.3.5-.5 1-.7.3-.2.8-.3 1.3-.3.7 0 1.2.2 1.6.6.5.3.7.8.7 1.4a2.2 2.2 0 0 1-.9 1.7 6 6 0 0 1-1 .8v-.3l2.2 2.4h-.3l.5-1.3.2-1.5h1.4c0 .7-.1 1.4-.3 2l-.8 1.7v-.4a4.7 4.7 0 0 0 1.7 1.2l-.5 1.1Zm-4.8-1.3a2.6 2.6 0 0 0 2-1v.4l-2.7-2.8h.7l-.4.2a5 5 0 0 0-.7.6 2 2 0 0 0-.5.6l-.1.7c0 .4.1.7.4 1 .3.2.8.3 1.3.3Zm.3-7c-.3 0-.6 0-.8.2a1 1 0 0 0-.3.8v.4l.4.5.5.6h-.4c.6-.3 1-.5 1.2-.8.3-.2.4-.5.4-.8 0-.3-.1-.6-.3-.7a1 1 0 0 0-.7-.3Zm9.3 9.6v-1.7l.3.3c-.7 0-1.2-.1-1.8-.3-.6-.2-1-.4-1.5-.8l.6-1.3a4.8 4.8 0 0 0 2.9 1c.6 0 1.1-.1 1.4-.4.3-.2.5-.5.5-.8 0-.3-.1-.6-.4-.7l-1-.5-1.4-.3a3 3 0 0 1-1.8-.8c-.4-.4-.6-1-.6-1.6 0-.6.2-1 .4-1.4l1-1c.5-.2 1-.4 1.6-.4l-.2.2V174h1.3v1.7l-.3-.2 1.5.3c.5.1.9.4 1.2.7l-.5 1.3c-.3-.3-.7-.6-1.2-.7a4 4 0 0 0-1.3-.2c-.6 0-1 0-1.4.3-.3.3-.5.6-.5 1 0 .3.1.5.3.7l1 .5 1.4.3c.8.1 1.5.4 1.9.8.4.4.6 1 .6 1.6 0 .5-.2 1-.4 1.3l-1 1-1.6.4.3-.3v1.7h-1.3Zm65.4-1.5V183h1.8v1.8h-1.8Zm5.8 0 3.8-5v.7l-3.6-4.9h2l2.6 3.7h-.6l2.7-3.7h2l-3.7 4.9v-.7l3.8 5h-2l-2.8-3.8h.6l-2.8 3.8h-2Zm18 .2-1.2-.6-1-.8h.4l-1.4 1c-.5.2-1 .3-1.7.3-.6 0-1.2 0-1.7-.3-.5-.2-.9-.5-1.1-.8a2 2 0 0 1-.4-1.3c0-.6.2-1.1.5-1.5.3-.5.8-.9 1.4-1.2l.5-.3-.3.3-.8-1-.3-1.1c0-.5.1-.8.3-1.2.2-.3.5-.5 1-.7.3-.2.8-.3 1.3-.3.7 0 1.2.2 1.6.6.5.3.7.8.7 1.4a2.2 2.2 0 0 1-.8 1.7 6 6 0 0 1-1.2.8v-.3l2.3 2.4h-.3l.5-1.3.2-1.5h1.4c0 .7-.1 1.4-.3 2l-.8 1.7v-.4a4.7 4.7 0 0 0 1.7 1.2l-.5 1.1Zm-4.8-1.3a2.6 2.6 0 0 0 2-1v.4l-2.7-2.8h.7l-.4.2a5 5 0 0 0-.7.6 2 2 0 0 0-.5.6l-.1.7c0 .4.1.7.4 1 .3.2.8.3 1.3.3Zm.3-7c-.3 0-.6 0-.8.2a1 1 0 0 0-.3.8v.4l.4.5.5.6h-.4c.6-.3 1-.5 1.2-.8.3-.2.4-.5.4-.8 0-.3-.1-.6-.3-.7a1 1 0 0 0-.7-.3ZM143 185l-1.2-.6-1-.8h.4l-1.4 1c-.5.2-1 .3-1.7.3s-1.2 0-1.7-.3c-.5-.2-.9-.5-1.1-.8a2 2 0 0 1-.4-1.3c0-.6.2-1.1.5-1.5.3-.5.8-.9 1.4-1.2l.5-.3-.3.3-.8-1-.3-1.1c0-.5.1-.8.3-1.2.2-.3.5-.5 1-.7.3-.2.8-.3 1.3-.3.7 0 1.2.2 1.6.6.5.3.7.8.7 1.4a2.2 2.2 0 0 1-.9 1.7 6 6 0 0 1-1 .8v-.3l2.2 2.4h-.3l.5-1.3.2-1.5h1.4c0 .7-.1 1.4-.3 2l-.8 1.7v-.4a4.6 4.6 0 0 0 1.7 1.2l-.5 1.1Zm-4.8-1.3a2.6 2.6 0 0 0 2-1v.4l-2.7-2.8h.7l-.4.2a5 5 0 0 0-.7.6 2 2 0 0 0-.5.6l-.1.7c0 .4.1.7.4 1 .3.2.8.3 1.3.3Zm.3-7c-.3 0-.6 0-.8.2a1 1 0 0 0-.3.8v.4l.4.5.5.6h-.4c.6-.3 1-.5 1.2-.8.3-.2.4-.5.4-.8 0-.3-.1-.6-.3-.7a1 1 0 0 0-.7-.3Zm13.9 8.3-1.2-.6-1-.8h.4l-1.4 1c-.5.2-1 .3-1.7.3s-1.2 0-1.7-.3c-.5-.2-.9-.5-1.1-.8a2 2 0 0 1-.4-1.3c0-.6.2-1.1.5-1.5.3-.5.8-.9 1.4-1.2l.5-.3-.3.3-.8-1-.3-1.1c0-.5.1-.8.3-1.2.2-.3.5-.5 1-.7.3-.2.8-.3 1.3-.3.7 0 1.2.2 1.6.6.5.3.7.8.7 1.4a2.2 2.2 0 0 1-.8 1.7 6 6 0 0 1-1.2.8v-.3l2.3 2.4h-.3l.5-1.3.2-1.5h1.4c0 .7-.1 1.4-.3 2l-.8 1.7v-.4a4.7 4.7 0 0 0 1.7 1.2l-.5 1.1Zm-4.8-1.3a2.6 2.6 0 0 0 2-1v.4l-2.7-2.8h.7l-.4.2a5 5 0 0 0-.7.6 2 2 0 0 0-.5.6l-.1.7c0 .4.1.7.4 1 .3.2.8.3 1.3.3Zm.3-7c-.3 0-.6 0-.8.2a1 1 0 0 0-.3.8v.4l.4.5.5.6h-.4c.6-.3 1-.5 1.2-.8.3-.2.4-.5.4-.8 0-.3-.1-.6-.3-.7a1 1 0 0 0-.7-.3Zm13.9 8.3-1.2-.6-1-.8h.4l-1.4 1c-.5.2-1 .3-1.7.3s-1.2 0-1.7-.3c-.5-.2-.9-.5-1.1-.8a2 2 0 0 1-.4-1.3c0-.6.2-1.1.5-1.5.3-.5.8-.9 1.4-1.2l.5-.3-.3.3-.8-1-.3-1.1c0-.5.1-.8.3-1.2.2-.3.5-.5 1-.7.3-.2.8-.3 1.3-.3.7 0 1.2.2 1.6.6.5.3.7.8.7 1.4a2.2 2.2 0 0 1-.8 1.7 6 6 0 0 1-1.2.8v-.3l2.3 2.4h-.3l.5-1.3.2-1.5h1.4c0 .7-.1 1.4-.3 2l-.8 1.7v-.4a4.7 4.7 0 0 0 1.7 1.2l-.5 1.1Zm-4.8-1.3a2.6 2.6 0 0 0 2-1v.4l-2.7-2.8h.7l-.4.2a5 5 0 0 0-.7.6 2 2 0 0 0-.5.6l-.1.7c0 .4.1.7.4 1 .3.2.8.3 1.3.3Zm.3-7c-.3 0-.6 0-.8.2a1 1 0 0 0-.3.8v.4l.4.5.5.6h-.4c.6-.3 1-.5 1.2-.8.3-.2.4-.5.4-.8 0-.3-.1-.6-.3-.7a1 1 0 0 0-.7-.3Zm13.9 8.3-1.2-.6-1-.8h.4l-1.4 1c-.5.2-1 .3-1.7.3s-1.2 0-1.7-.3c-.5-.2-.9-.5-1.1-.8a2 2 0 0 1-.4-1.3c0-.6.2-1.1.5-1.5.3-.5.8-.9 1.4-1.2l.5-.3-.3.3-.8-1-.3-1.1c0-.5.1-.8.3-1.2.2-.3.5-.5 1-.7.3-.2.8-.3 1.3-.3.7 0 1.2.2 1.6.6.5.3.7.8.7 1.4a2.2 2.2 0 0 1-.8 1.7 6 6 0 0 1-1.2.8v-.3l2.3 2.4h-.3l.5-1.3.2-1.5h1.4c0 .7-.1 1.4-.3 2l-.8 1.7v-.4a4.7 4.7 0 0 0 1.7 1.2l-.5 1.1Zm-4.8-1.3a2.6 2.6 0 0 0 2-1v.4l-2.7-2.8h.7l-.4.2a5 5 0 0 0-.7.6 2 2 0 0 0-.5.6l-.1.7c0 .4.1.7.4 1 .3.2.8.3 1.3.3Zm.3-7c-.3 0-.6 0-.8.2a1 1 0 0 0-.3.8v.4l.4.5.5.6h-.4c.6-.3 1-.5 1.2-.8.3-.2.4-.5.4-.8 0-.3-.1-.6-.3-.7a1 1 0 0 0-.7-.3Zm9.3 9.6v-1.7l.3.3c-.7 0-1.2-.1-1.8-.3-.6-.2-1-.4-1.5-.8l.6-1.3a4.8 4.8 0 0 0 2.9 1c.6 0 1.1-.1 1.4-.4.3-.2.5-.5.5-.8 0-.3-.1-.6-.4-.7l-1-.5-1.4-.3a3 3 0 0 1-1.8-.8c-.4-.4-.6-1-.6-1.6 0-.6.2-1 .4-1.4l1-1c.5-.2 1-.4 1.6-.4l-.2.2V174h1.3v1.7l-.3-.2 1.5.3c.5.1.9.4 1.2.7l-.5 1.3c-.3-.3-.7-.6-1.1-.7a4 4 0 0 0-1.4-.2c-.6 0-1 0-1.4.3-.3.3-.5.6-.5 1 0 .3.1.5.3.7l1 .5 1.4.3c.8.1 1.5.4 1.9.8.4.4.6 1 .6 1.6 0 .5-.2 1-.4 1.3l-1 1-1.6.4.3-.3v1.7H176Zm18.4-1.5V183h1.8v1.8h-1.8Zm75.2 0V183h1.8v1.8h-1.8Zm9.8 1.5v-1.7l.3.3c-.7 0-1.2-.1-1.8-.3-.6-.2-1-.4-1.5-.8l.6-1.3a4.8 4.8 0 0 0 2.9 1c.6 0 1.1-.1 1.4-.4.3-.2.5-.5.5-.8 0-.3-.1-.6-.4-.7l-1-.5-1.4-.3a3 3 0 0 1-1.8-.8c-.4-.4-.6-1-.6-1.6 0-.6.2-1 .4-1.4l1-1c.5-.2 1-.4 1.6-.4l-.2.2V174h1.3v1.7l-.3-.2 1.5.3c.5.1.9.4 1.2.7l-.5 1.3c-.3-.3-.7-.6-1.2-.7a4 4 0 0 0-1.3-.2c-.6 0-1 0-1.4.3-.3.3-.5.6-.5 1 0 .3.1.5.3.7l1 .5 1.4.3c.8.1 1.5.4 1.9.8.4.4.6 1 .6 1.6 0 .5-.2 1-.4 1.3l-1 1-1.6.4.3-.3v1.7h-1.3Zm9.4 0v-1.7l.3.3c-.7 0-1.2-.1-1.8-.3-.6-.2-1-.4-1.5-.8l.6-1.3a4.9 4.9 0 0 0 2.9 1c.6 0 1.1-.1 1.4-.4.3-.2.5-.5.5-.8 0-.3-.1-.6-.4-.7l-1-.5-1.4-.3a3 3 0 0 1-1.8-.8c-.4-.4-.6-1-.6-1.6 0-.6.2-1 .4-1.4l1-1c.5-.2 1-.4 1.6-.4l-.2.2V174h1.3v1.7l-.3-.2 1.5.3c.5.1.9.4 1.2.7l-.5 1.3c-.3-.3-.7-.6-1.2-.7a4 4 0 0 0-1.3-.2c-.6 0-1 0-1.4.3-.3.3-.5.6-.5 1 0 .3.1.5.3.7l1 .5 1.4.3c.8.1 1.5.4 1.9.8.4.4.6 1 .6 1.6 0 .5-.2 1-.4 1.3l-1 1-1.6.4.3-.3v1.7h-1.3ZM25.2 198.8V197H27v1.8h-1.8Zm0 4.8v-1.8H27v1.8h-1.8Zm14.4.1-1.2-.5-1-.8h.4l-1.4 1c-.5.2-1 .3-1.7.3s-1.2 0-1.7-.3c-.5-.2-.9-.5-1.1-.8a2 2 0 0 1-.4-1.3c0-.6.2-1.1.5-1.5.3-.5.8-.9 1.4-1.2l.5-.3-.3.3-.8-1-.3-1.1c0-.5.1-.8.3-1.2.2-.3.5-.5 1-.7.3-.2.8-.3 1.3-.3.7 0 1.2.2 1.6.6.5.3.7.8.7 1.4a2.2 2.2 0 0 1-.9 1.7 6 6 0 0 1-1 .8v-.3l2.2 2.4h-.3l.5-1.3.2-1.5h1.4c0 .7-.1 1.4-.3 2l-.8 1.7v-.4a4.7 4.7 0 0 0 1.7 1.2l-.5 1.1Zm-4.8-1.2a2.6 2.6 0 0 0 2-1v.4l-2.7-2.8h.7l-.4.2a5 5 0 0 0-.7.6 2 2 0 0 0-.5.6l-.1.7c0 .4.1.7.4 1 .3.2.8.3 1.3.3Zm.3-7c-.3 0-.6 0-.8.2a1 1 0 0 0-.3.8v.4l.4.5.5.6h-.4c.6-.3 1-.5 1.2-.8.3-.2.4-.5.4-.8 0-.3-.1-.6-.3-.7a1 1 0 0 0-.7-.3Zm13.9 8.2-1.2-.5-1-.8h.4l-1.4 1c-.5.2-1 .3-1.7.3s-1.2 0-1.7-.3c-.5-.2-.9-.5-1.1-.8a2 2 0 0 1-.4-1.3c0-.6.2-1.1.5-1.5.3-.5.8-.9 1.4-1.2l.5-.3-.3.3-.8-1-.3-1.1c0-.5.1-.8.3-1.2.2-.3.5-.5 1-.7.3-.2.8-.3 1.3-.3.7 0 1.2.2 1.6.6.5.3.7.8.7 1.4a2.2 2.2 0 0 1-.9 1.7 6 6 0 0 1-1 .8v-.3l2.2 2.4h-.3l.5-1.3.2-1.5H49c0 .7-.1 1.4-.3 2l-.8 1.7v-.4a4.7 4.7 0 0 0 1.7 1.2l-.5 1.1Zm-4.8-1.2a2.6 2.6 0 0 0 2-1v.4l-2.7-2.8h.7l-.4.2a5 5 0 0 0-.7.6 2 2 0 0 0-.5.6l-.1.7c0 .4.1.7.4 1 .3.2.8.3 1.3.3Zm.3-7c-.3 0-.6 0-.8.2a1 1 0 0 0-.3.8v.4l.4.5.5.6H44c.6-.3 1-.5 1.2-.8.3-.2.4-.5.4-.8 0-.3-.1-.6-.3-.7a1 1 0 0 0-.7-.3Zm9.7 9.8-.7-.5c.3-.3.5-.5.6-.8l.2-.8.4.4h-1.3v-1.8h1.8v1.2c0 .4 0 .8-.2 1.2l-.8 1.1Zm-.8-6.5V197h1.8v1.8h-1.8Zm112.8 4.8v-1.8h1.8v1.8h-1.8Zm9.4 0v-1.8h1.8v1.8h-1.8Zm52 .1-1.2-.5-1-.8h.4l-1.4 1c-.5.2-1 .3-1.7.3-.6 0-1.2 0-1.7-.3-.5-.2-.9-.5-1.1-.8a2 2 0 0 1-.4-1.3c0-.6.2-1.1.5-1.5.3-.5.8-.9 1.4-1.2l.5-.3-.3.3-.8-1-.3-1.1c0-.5.1-.8.3-1.2.2-.3.5-.5 1-.7.3-.2.8-.3 1.3-.3.7 0 1.2.2 1.6.6.5.3.7.8.7 1.4a2.2 2.2 0 0 1-.8 1.7 6 6 0 0 1-1.2.8v-.3l2.3 2.4h-.3l.5-1.3.2-1.5h1.4c0 .7-.1 1.4-.3 2l-.8 1.7v-.4a4.7 4.7 0 0 0 1.7 1.2l-.5 1.1Zm-4.8-1.2a2.6 2.6 0 0 0 2-1v.4l-2.7-2.8h.7l-.4.2a5 5 0 0 0-.7.6 2 2 0 0 0-.5.6l-.1.7c0 .4.1.7.4 1 .3.2.8.3 1.3.3Zm.3-7c-.3 0-.6 0-.8.2a1 1 0 0 0-.3.8v.4l.4.5.5.6h-.4c.6-.3 1-.5 1.2-.8.3-.2.4-.5.4-.8 0-.3-.1-.6-.3-.7a1 1 0 0 0-.7-.3Zm13.9 8.2-1.2-.5-1-.8h.4l-1.4 1c-.5.2-1 .3-1.7.3s-1.2 0-1.7-.3c-.5-.2-.9-.5-1.1-.8a2 2 0 0 1-.4-1.3c0-.6.2-1.1.5-1.5.3-.5.8-.9 1.4-1.2l.5-.3-.3.3-.8-1-.3-1.1c0-.5.1-.8.3-1.2.2-.3.5-.5 1-.7.3-.2.8-.3 1.3-.3.7 0 1.2.2 1.6.6.5.3.7.8.7 1.4a2.2 2.2 0 0 1-.9 1.7 6 6 0 0 1-1 .8v-.3l2.2 2.4h-.3l.5-1.3.2-1.5h1.4c0 .7-.1 1.4-.3 2l-.8 1.7v-.4a4.7 4.7 0 0 0 1.7 1.2l-.5 1.1Zm-4.8-1.2a2.6 2.6 0 0 0 2-1v.4l-2.7-2.8h.7l-.4.2a5 5 0 0 0-.7.6 2 2 0 0 0-.5.6l-.1.7c0 .4.1.7.4 1 .3.2.8.3 1.3.3Zm.3-7c-.3 0-.6 0-.8.2a1 1 0 0 0-.3.8v.4l.4.5.5.6h-.4c.6-.3 1-.5 1.2-.8.3-.2.4-.5.4-.8 0-.3-.1-.6-.3-.7a1 1 0 0 0-.7-.3Zm9.3 9.5v-1.6l.3.3c-.7 0-1.2-.1-1.8-.3-.6-.2-1-.4-1.5-.8l.6-1.3a4.9 4.9 0 0 0 2.9 1c.6 0 1.1-.1 1.4-.4.3-.2.5-.5.5-.8 0-.3-.1-.6-.4-.7l-1-.5-1.4-.3a3 3 0 0 1-1.8-.8c-.4-.4-.6-1-.6-1.6 0-.6.2-1 .4-1.4l1-1c.5-.2 1-.4 1.6-.4l-.2.2v-1.7h1.3v1.7l-.3-.2 1.5.3c.5.1.9.4 1.2.7l-.5 1.3c-.3-.3-.7-.6-1.2-.7a4 4 0 0 0-1.3-.2c-.6 0-1 0-1.4.3-.3.3-.5.6-.5 1 0 .3.1.5.3.7l1 .5 1.4.3c.8.1 1.5.4 1.9.8.4.4.6 1 .6 1.6 0 .5-.2 1-.4 1.3l-1 1-1.6.4.3-.3v1.7h-1.3Zm32.8-1.3-1.2-.5-1-.8h.4l-1.4 1c-.5.2-1 .3-1.7.3-.6 0-1.2 0-1.7-.3-.5-.2-.9-.5-1.1-.8a2 2 0 0 1-.4-1.3c0-.6.2-1.1.5-1.5.3-.5.8-.9 1.4-1.2l.5-.3-.3.3-.8-1-.3-1.1c0-.5.1-.8.3-1.2.2-.3.5-.5 1-.7.3-.2.8-.3 1.3-.3.7 0 1.2.2 1.6.6.5.3.7.8.7 1.4a2.2 2.2 0 0 1-.8 1.7 6 6 0 0 1-1.2.8v-.3l2.3 2.4h-.3l.5-1.3.2-1.5h1.4c0 .7-.1 1.4-.3 2l-.8 1.7v-.4a4.7 4.7 0 0 0 1.7 1.2l-.5 1.1Zm-4.8-1.2a2.6 2.6 0 0 0 2-1v.4l-2.7-2.8h.7l-.4.2a5 5 0 0 0-.7.6 2 2 0 0 0-.5.6l-.1.7c0 .4.1.7.4 1 .3.2.8.3 1.3.3Zm.3-7c-.3 0-.6 0-.8.2a1 1 0 0 0-.3.8v.4l.4.5.5.6h-.4c.6-.3 1-.5 1.2-.8.3-.2.4-.5.4-.8 0-.3-.1-.6-.3-.7a1 1 0 0 0-.7-.3Zm13.9 8.2-1.2-.5-1-.8h.4l-1.4 1c-.5.2-1 .3-1.7.3s-1.2 0-1.7-.3c-.5-.2-.9-.5-1.1-.8a2 2 0 0 1-.4-1.3c0-.6.2-1.1.5-1.5.3-.5.8-.9 1.4-1.2l.5-.3-.3.3-.8-1-.3-1.1c0-.5.1-.8.3-1.2.2-.3.5-.5 1-.7.3-.2.8-.3 1.3-.3.7 0 1.2.2 1.6.6.5.3.7.8.7 1.4a2.2 2.2 0 0 1-.9 1.7 6 6 0 0 1-1 .8v-.3l2.2 2.4h-.3l.5-1.3.2-1.5h1.4c0 .7-.1 1.4-.3 2l-.8 1.7v-.4a4.7 4.7 0 0 0 1.7 1.2l-.5 1.1Zm-4.8-1.2a2.6 2.6 0 0 0 2-1v.4l-2.7-2.8h.7l-.4.2a5 5 0 0 0-.7.6 2 2 0 0 0-.5.6l-.1.7c0 .4.1.7.4 1 .3.2.8.3 1.3.3Zm.3-7c-.3 0-.6 0-.8.2a1 1 0 0 0-.3.8v.4l.4.5.5.6h-.4c.6-.3 1-.5 1.2-.8.3-.2.4-.5.4-.8 0-.3-.1-.6-.3-.7a1 1 0 0 0-.7-.3Zm5.3 8.1 3.8-5v.7l-3.6-4.9h2l2.6 3.7h-.6l2.7-3.7h2l-3.7 4.9v-.7l3.8 5h-2l-2.8-3.8h.6l-2.8 3.8h-2ZM44.3 221.9v-2.7h-2.6v-1.1h2.6v-2.6h1.2v2.6h2.6v1.1h-2.6v2.7h-1.2Zm14.1.6-1.2-.5-1-.8h.4l-1.4 1c-.5.2-1 .3-1.7.3s-1.2 0-1.7-.3c-.5-.2-.9-.5-1.1-.8a2 2 0 0 1-.4-1.3c0-.6.2-1.1.5-1.5.3-.5.8-.9 1.4-1.2l.5-.3-.3.3-.8-1-.3-1.1c0-.5.1-.8.3-1.2.2-.3.5-.5 1-.7.3-.2.8-.3 1.3-.3.7 0 1.2.2 1.6.6.5.3.7.8.7 1.4a2.2 2.2 0 0 1-.9 1.7 6 6 0 0 1-1 .8v-.3l2.2 2.4h-.3l.5-1.3.2-1.5h1.4c0 .7-.1 1.4-.3 2l-.8 1.7v-.4a4.7 4.7 0 0 0 1.7 1.2l-.5 1.1Zm-4.8-1.2a2.6 2.6 0 0 0 2-1v.4l-2.7-2.8h.7l-.4.2a5 5 0 0 0-.7.6 2 2 0 0 0-.5.6l-.1.7c0 .4.1.7.4 1 .3.2.8.3 1.3.3Zm.3-7c-.3 0-.6 0-.8.2a1 1 0 0 0-.3.8v.4l.4.5.5.6h-.4c.6-.3 1-.5 1.2-.8.3-.2.4-.5.4-.8 0-.3-.1-.6-.3-.7a1 1 0 0 0-.7-.3Zm13.9 8.2-1.2-.5-1-.8h.4l-1.4 1c-.5.2-1 .3-1.7.3s-1.2 0-1.7-.3c-.5-.2-.9-.5-1.1-.8a2 2 0 0 1-.4-1.3c0-.6.2-1.1.5-1.5.3-.5.8-.9 1.4-1.2l.5-.3-.3.3-.8-1-.3-1.1c0-.5.1-.8.3-1.2.2-.3.5-.5 1-.7.3-.2.8-.3 1.3-.3.7 0 1.2.2 1.6.6.5.3.7.8.7 1.4a2.2 2.2 0 0 1-.9 1.7 6 6 0 0 1-1 .8v-.3l2.2 2.4h-.3l.5-1.3.2-1.5h1.4c0 .7-.1 1.4-.3 2l-.8 1.7v-.4a4.7 4.7 0 0 0 1.7 1.2l-.5 1.1Zm-4.8-1.2a2.6 2.6 0 0 0 2-1v.4l-2.7-2.8h.7l-.4.2a5 5 0 0 0-.7.6 2 2 0 0 0-.5.6l-.1.7c0 .4.1.7.4 1 .3.2.8.3 1.3.3Zm.3-7c-.3 0-.6 0-.8.2a1 1 0 0 0-.3.8v.4l.4.5.5.6h-.4c.6-.3 1-.5 1.2-.8.3-.2.4-.5.4-.8 0-.3-.1-.6-.3-.7a1 1 0 0 0-.7-.3Zm9.7 9.8-.7-.5c.3-.3.5-.5.6-.8l.2-.8.4.4h-1.3v-1.8H74v1.2c0 .4 0 .8-.2 1.2l-.8 1.1Zm-.8-6.5v-1.8H74v1.8h-1.8Zm75.6 6.3v-1.7l.3.3c-.7 0-1.2-.1-1.8-.3-.6-.2-1-.4-1.5-.8l.6-1.3a4.9 4.9 0 0 0 2.9 1c.6 0 1.1-.1 1.4-.4.3-.2.5-.5.5-.8 0-.3-.1-.6-.4-.7l-1-.5-1.4-.3a3 3 0 0 1-1.8-.8c-.4-.4-.6-1-.6-1.6 0-.6.2-1 .4-1.4l1-1c.5-.2 1-.4 1.6-.4l-.2.2v-1.7h1.3v1.7l-.3-.2 1.5.3c.5.1.9.4 1.2.7l-.5 1.3c-.3-.3-.7-.6-1.2-.7a4 4 0 0 0-1.3-.2c-.6 0-1 0-1.4.3-.3.3-.5.6-.5 1 0 .3.1.5.3.7l1 .5 1.4.3c.8.1 1.5.4 1.9.8.4.4.6 1 .6 1.6 0 .5-.2 1-.4 1.3l-1 1-1.6.4.3-.3v1.7h-1.3Zm14-1.4-1.2-.5-1-.8h.4l-1.4 1c-.5.2-1 .3-1.7.3s-1.2 0-1.7-.3c-.5-.2-.9-.5-1.1-.8a2 2 0 0 1-.4-1.3c0-.6.2-1.1.5-1.5.3-.5.8-.9 1.4-1.2l.5-.3-.3.3-.8-1-.3-1.1c0-.5.1-.8.3-1.2.2-.3.5-.5 1-.7.3-.2.8-.3 1.3-.3.7 0 1.2.2 1.6.6.5.3.7.8.7 1.4a2.2 2.2 0 0 1-.8 1.7 6 6 0 0 1-1.2.8v-.3l2.3 2.4h-.3l.5-1.3.2-1.5h1.4c0 .7-.1 1.4-.3 2l-.8 1.7v-.4a4.7 4.7 0 0 0 1.7 1.2l-.5 1.1Zm-4.8-1.2a2.6 2.6 0 0 0 2-1v.4l-2.7-2.8h.7l-.4.2a5 5 0 0 0-.7.6 2 2 0 0 0-.5.6l-.1.7c0 .4.1.7.4 1 .3.2.8.3 1.3.3Zm.3-7c-.3 0-.6 0-.8.2a1 1 0 0 0-.3.8v.4l.4.5.5.6h-.4c.6-.3 1-.5 1.2-.8.3-.2.4-.5.4-.8 0-.3-.1-.6-.3-.7a1 1 0 0 0-.7-.3Zm6.1 8.1 3-3.8v.8l-2.8-3.6h1.9l1.9 2.5h-.6l1.9-2.5h1.9l-2.9 3.6v-.8l3 3.8h-1.9l-2-2.6h.6l-2 2.6h-2Zm17.2.1-1.2-.5-1-.8h.4l-1.4 1c-.5.2-1 .3-1.7.3-.6 0-1.2 0-1.7-.3-.5-.2-.9-.5-1.1-.8a2 2 0 0 1-.4-1.3c0-.6.2-1.1.5-1.5.3-.5.8-.9 1.4-1.2l.5-.3-.3.3-.8-1-.3-1.1c0-.5.1-.8.3-1.2.2-.3.5-.5 1-.7.3-.2.8-.3 1.3-.3.7 0 1.2.2 1.6.6.5.3.7.8.7 1.4a2.2 2.2 0 0 1-.8 1.7 6 6 0 0 1-1.2.8v-.3l2.3 2.4h-.3l.5-1.3.2-1.5h1.4c0 .7-.1 1.4-.3 2l-.8 1.7v-.4a4.7 4.7 0 0 0 1.7 1.2l-.5 1.1Zm-4.8-1.2a2.6 2.6 0 0 0 2-1v.4l-2.7-2.8h.7l-.4.2a5 5 0 0 0-.7.6 2 2 0 0 0-.5.6l-.1.7c0 .4.1.7.4 1 .3.2.8.3 1.3.3Zm.3-7c-.3 0-.6 0-.8.2a1 1 0 0 0-.3.8v.4l.4.5.5.6h-.4c.6-.3 1-.5 1.2-.8.3-.2.4-.5.4-.8 0-.3-.1-.6-.3-.7a1 1 0 0 0-.7-.3Zm9.7 9.8-.7-.5c.3-.3.5-.5.6-.8l.2-.8.4.4H185v-1.8h1.8v1.2c0 .4 0 .8-.2 1.2l-.8 1.1Zm-.8-6.5v-1.8h1.8v1.8H185Zm29 6.5-.7-.5c.3-.3.5-.5.6-.8l.2-.8.4.4h-1.3v-1.8h1.8v1.2c0 .4 0 .8-.2 1.2l-.8 1.1Zm-.8-6.5v-1.8h1.8v1.8h-1.8Zm14.4 4.9-1.2-.5-1-.8h.4l-1.4 1c-.5.2-1 .3-1.7.3-.6 0-1.2 0-1.7-.3-.5-.2-.9-.5-1.1-.8a2 2 0 0 1-.4-1.3c0-.6.2-1.1.5-1.5.3-.5.8-.9 1.4-1.2l.5-.3-.3.3-.8-1-.3-1.1c0-.5.1-.8.3-1.2.2-.3.5-.5 1-.7.3-.2.8-.3 1.3-.3.7 0 1.2.2 1.6.6.5.3.7.8.7 1.4a2.2 2.2 0 0 1-.8 1.7 6 6 0 0 1-1.2.8v-.3l2.3 2.4h-.3l.5-1.3.2-1.5h1.4c0 .7-.1 1.4-.3 2l-.8 1.7v-.4a4.7 4.7 0 0 0 1.7 1.2l-.5 1.1Zm-4.8-1.2a2.6 2.6 0 0 0 2-1v.4l-2.7-2.8h.7l-.4.2a5 5 0 0 0-.7.6 2 2 0 0 0-.5.6l-.1.7c0 .4.1.7.4 1 .3.2.8.3 1.3.3Zm.3-7c-.3 0-.6 0-.8.2a1 1 0 0 0-.3.8v.4l.4.5.5.6h-.4c.6-.3 1-.5 1.2-.8.3-.2.4-.5.4-.8 0-.3-.1-.6-.3-.7a1 1 0 0 0-.7-.3Zm13.9 8.2-1.2-.5-1-.8h.4l-1.4 1c-.5.2-1 .3-1.7.3s-1.2 0-1.7-.3c-.5-.2-.9-.5-1.1-.8a2 2 0 0 1-.4-1.3c0-.6.2-1.1.5-1.5.3-.5.8-.9 1.4-1.2l.5-.3-.3.3-.8-1-.3-1.1c0-.5.1-.8.3-1.2.2-.3.5-.5 1-.7.3-.2.8-.3 1.3-.3.7 0 1.2.2 1.6.6.5.3.7.8.7 1.4a2.2 2.2 0 0 1-.9 1.7 6 6 0 0 1-1 .8v-.3l2.2 2.4h-.3l.5-1.3.2-1.5h1.4c0 .7-.1 1.4-.3 2l-.8 1.7v-.4a4.7 4.7 0 0 0 1.7 1.2l-.5 1.1Zm-4.8-1.2a2.6 2.6 0 0 0 2-1v.4l-2.7-2.8h.7l-.4.2a5 5 0 0 0-.7.6 2 2 0 0 0-.5.6l-.1.7c0 .4.1.7.4 1 .3.2.8.3 1.3.3Zm.3-7c-.3 0-.6 0-.8.2a1 1 0 0 0-.3.8v.4l.4.5.5.6h-.4c.6-.3 1-.5 1.2-.8.3-.2.4-.5.4-.8 0-.3-.1-.6-.3-.7a1 1 0 0 0-.7-.3Zm6.1 8.1 3-3.8v.8l-2.8-3.6h1.9l1.9 2.5h-.6l1.9-2.5h1.9l-2.9 3.6v-.8l3 3.8H244l-2-2.6h.6l-2 2.6h-2Zm22 1.5v-1.7l.3.3c-.7 0-1.2-.1-1.8-.3-.6-.2-1-.4-1.5-.8l.6-1.3a4.8 4.8 0 0 0 2.9 1c.6 0 1.1-.1 1.4-.4.3-.2.5-.5.5-.8 0-.3-.1-.6-.4-.7l-1-.5-1.4-.3a3 3 0 0 1-1.8-.8c-.4-.4-.6-1-.6-1.6 0-.6.2-1 .4-1.4l1-1c.5-.2 1-.4 1.6-.4l-.2.2v-1.7h1.3v1.7l-.3-.2 1.5.3c.5.1.9.4 1.2.7l-.5 1.3c-.3-.3-.7-.6-1.2-.7a4 4 0 0 0-1.3-.2c-.6 0-1 0-1.4.3-.3.3-.5.6-.5 1 0 .3.1.5.3.7l1 .5 1.4.3c.8.1 1.5.4 1.9.8.4.4.6 1 .6 1.6 0 .5-.2 1-.4 1.3l-1 1-1.6.4.3-.3v1.7h-1.3Zm6.2-1.5 3-3.8v.8l-2.8-3.6h1.9l1.9 2.5h-.6l1.9-2.5h1.9l-2.9 3.6v-.8l3 3.8h-1.9l-2-2.6h.6l-2 2.6h-2Zm12.6 1.5v-1.7l.3.3c-.7 0-1.2-.1-1.8-.3-.6-.2-1-.4-1.5-.8l.6-1.3a4.8 4.8 0 0 0 2.9 1c.6 0 1.1-.1 1.4-.4.3-.2.5-.5.5-.8 0-.3-.1-.6-.4-.7l-1-.5-1.4-.3a3 3 0 0 1-1.8-.8c-.4-.4-.6-1-.6-1.6 0-.6.2-1 .4-1.4l1-1c.5-.2 1-.4 1.6-.4l-.2.2v-1.7h1.3v1.7l-.3-.2 1.5.3c.5.1.9.4 1.2.7l-.5 1.3c-.3-.3-.7-.6-1.2-.7a4 4 0 0 0-1.3-.2c-.6 0-1 0-1.4.3-.3.3-.5.6-.5 1 0 .3.1.5.3.7l1 .5 1.4.3c.8.1 1.5.4 1.9.8.4.4.6 1 .6 1.6 0 .5-.2 1-.4 1.3l-1 1-1.6.4.3-.3v1.7h-1.3Zm9.4 0v-1.7l.3.3c-.7 0-1.2-.1-1.8-.3-.6-.2-1-.4-1.5-.8l.6-1.3a4.9 4.9 0 0 0 2.9 1c.6 0 1.1-.1 1.4-.4.3-.2.5-.5.5-.8 0-.3-.1-.6-.4-.7l-1-.5-1.4-.3a3 3 0 0 1-1.8-.8c-.4-.4-.6-1-.6-1.6 0-.6.2-1 .4-1.4l1-1c.5-.2 1-.4 1.6-.4l-.2.2v-1.7h1.3v1.7l-.3-.2 1.5.3c.5.1.9.4 1.2.7l-.5 1.3c-.3-.3-.7-.6-1.2-.7a4 4 0 0 0-1.3-.2c-.6 0-1 0-1.4.3-.3.3-.5.6-.5 1 0 .3.1.5.3.7l1 .5 1.4.3c.8.1 1.5.4 1.9.8.4.4.6 1 .6 1.6 0 .5-.2 1-.4 1.3l-1 1-1.6.4.3-.3v1.7h-1.3Zm37.2-1.5v-1.8h1.8v1.8H326Zm9.4 0v-1.8h1.8v1.8h-1.8Zm9.4 0v-1.8h1.8v1.8h-1.8Zm-282 18.8v-1.8h1.8v1.8h-1.8Zm9.8 1.5V241l.3.3c-.7 0-1.2-.1-1.8-.3-.6-.2-1-.4-1.5-.8l.6-1.3a4.8 4.8 0 0 0 2.9 1c.6 0 1.1-.1 1.4-.4.3-.2.5-.5.5-.8 0-.3-.1-.6-.4-.7l-1-.5-1.4-.3a3 3 0 0 1-1.8-.8c-.4-.4-.6-1-.6-1.6 0-.6.2-1 .4-1.4l1-1c.5-.2 1-.4 1.6-.4l-.2.2v-1.7h1.3v1.7l-.3-.2 1.5.3c.5.1.9.4 1.2.7l-.5 1.3c-.3-.3-.7-.6-1.2-.7a4 4 0 0 0-1.3-.2c-.6 0-1 0-1.4.3-.3.3-.5.6-.5 1 0 .3.1.5.3.7l1 .5 1.4.3c.8.1 1.5.4 1.9.8.4.4.6 1 .6 1.6 0 .5-.2 1-.4 1.3l-1 1-1.6.4.3-.3v1.7h-1.3Zm14-1.4-1.2-.5-1-.8h.4l-1.4 1c-.5.2-1 .3-1.7.3s-1.2 0-1.7-.3c-.5-.2-.9-.5-1.1-.8a2 2 0 0 1-.4-1.3c0-.6.2-1.1.5-1.5.3-.5.8-.9 1.4-1.2l.5-.3-.3.3-.8-1-.3-1.1c0-.5.1-.8.3-1.2.2-.3.5-.5 1-.7.3-.2.8-.3 1.3-.3.7 0 1.2.2 1.6.6.5.3.7.8.7 1.4a2.2 2.2 0 0 1-.9 1.7 6 6 0 0 1-1 .8v-.3l2.2 2.4h-.3l.5-1.3.2-1.5h1.4c0 .7-.1 1.4-.3 2l-.8 1.7v-.4a4.7 4.7 0 0 0 1.7 1.2l-.5 1.1Zm-4.8-1.2a2.6 2.6 0 0 0 2-1v.4l-2.7-2.8h.7l-.4.2a5 5 0 0 0-.7.6 2 2 0 0 0-.5.6l-.1.7c0 .4.1.7.4 1 .3.2.8.3 1.3.3Zm.3-7c-.3 0-.6 0-.8.2a1 1 0 0 0-.3.8v.4l.4.5.5.6h-.4c.6-.3 1-.5 1.2-.8.3-.2.4-.5.4-.8 0-.3-.1-.6-.3-.7a1 1 0 0 0-.7-.3Zm6.1 8.1 3-3.8v.8l-2.8-3.6h1.9l1.9 2.5h-.6l1.9-2.5h1.9l-2.9 3.6v-.8l3 3.8h-1.9l-2-2.6h.6l-2 2.6h-2Zm21.6 0v-1.8h1.8v1.8h-1.8Zm6.6 0 3-3.8v.8l-2.8-3.6h1.9l1.9 2.5h-.6l1.9-2.5h1.9l-2.9 3.6v-.8l3 3.8h-1.9l-2-2.6h.6l-2 2.6h-2Zm17.2.1-1.2-.5-1-.8h.4l-1.4 1c-.5.2-1 .3-1.7.3-.6 0-1.2 0-1.7-.3-.5-.2-.9-.5-1.1-.8a2 2 0 0 1-.4-1.3c0-.6.2-1.1.5-1.5.3-.5.8-.9 1.4-1.2l.5-.3-.3.3-.8-1-.3-1.1c0-.5.1-.8.3-1.2.2-.3.5-.5 1-.7.3-.2.8-.3 1.3-.3.7 0 1.2.2 1.6.6.5.3.7.8.7 1.4a2.2 2.2 0 0 1-.8 1.7 6 6 0 0 1-1.2.8v-.3l2.3 2.4h-.3l.5-1.3.2-1.5h1.4c0 .7-.1 1.4-.3 2l-.8 1.7v-.4a4.7 4.7 0 0 0 1.7 1.2l-.5 1.1Zm-4.8-1.2a2.6 2.6 0 0 0 2-1v.4l-2.7-2.8h.7l-.4.2a5 5 0 0 0-.7.6 2 2 0 0 0-.5.6l-.1.7c0 .4.1.7.4 1 .3.2.8.3 1.3.3Zm.3-7c-.3 0-.6 0-.8.2a1 1 0 0 0-.3.8v.4l.4.5.5.6h-.4c.6-.3 1-.5 1.2-.8.3-.2.4-.5.4-.8 0-.3-.1-.6-.3-.7a1 1 0 0 0-.7-.3Zm13.9 8.2-1.2-.5-1-.8h.4l-1.4 1c-.5.2-1 .3-1.7.3s-1.2 0-1.7-.3c-.5-.2-.9-.5-1.1-.8a2 2 0 0 1-.4-1.3c0-.6.2-1.1.5-1.5.3-.5.8-.9 1.4-1.2l.5-.3-.3.3-.8-1-.3-1.1c0-.5.1-.8.3-1.2.2-.3.5-.5 1-.7.3-.2.8-.3 1.3-.3.7 0 1.2.2 1.6.6.5.3.7.8.7 1.4a2.2 2.2 0 0 1-.9 1.7 6 6 0 0 1-1 .8v-.3l2.2 2.4h-.3l.5-1.3.2-1.5h1.4c0 .7-.1 1.4-.3 2l-.8 1.7v-.4a4.6 4.6 0 0 0 1.7 1.2l-.5 1.1Zm-4.8-1.2a2.6 2.6 0 0 0 2-1v.4l-2.7-2.8h.7l-.4.2a5 5 0 0 0-.7.6 2 2 0 0 0-.5.6l-.1.7c0 .4.1.7.4 1 .3.2.8.3 1.3.3Zm.3-7c-.3 0-.6 0-.8.2a1 1 0 0 0-.3.8v.4l.4.5.5.6h-.4c.6-.3 1-.5 1.2-.8.3-.2.4-.5.4-.8 0-.3-.1-.6-.3-.7a1 1 0 0 0-.7-.3Zm13.9 8.2-1.2-.5-1-.8h.4l-1.4 1c-.5.2-1 .3-1.7.3s-1.2 0-1.7-.3c-.5-.2-.9-.5-1.1-.8a2 2 0 0 1-.4-1.3c0-.6.2-1.1.5-1.5.3-.5.8-.9 1.4-1.2l.5-.3-.3.3-.8-1-.3-1.1c0-.5.1-.8.3-1.2.2-.3.5-.5 1-.7.3-.2.8-.3 1.3-.3.7 0 1.2.2 1.6.6.5.3.7.8.7 1.4a2.2 2.2 0 0 1-.8 1.7 6 6 0 0 1-1.2.8v-.3l2.3 2.4h-.3l.5-1.3.2-1.5h1.4c0 .7-.1 1.4-.3 2l-.8 1.7v-.4a4.7 4.7 0 0 0 1.7 1.2l-.5 1.1Zm-4.8-1.2a2.6 2.6 0 0 0 2-1v.4l-2.7-2.8h.7l-.4.2a5 5 0 0 0-.7.6 2 2 0 0 0-.5.6l-.1.7c0 .4.1.7.4 1 .3.2.8.3 1.3.3Zm.3-7c-.3 0-.6 0-.8.2a1 1 0 0 0-.3.8v.4l.4.5.5.6h-.4c.6-.3 1-.5 1.2-.8.3-.2.4-.5.4-.8 0-.3-.1-.6-.3-.7a1 1 0 0 0-.7-.3Zm18.3 3.3v-1.8h1.8v1.8h-1.8Zm0 4.8v-1.8h1.8v1.8h-1.8Zm14.4.1-1.2-.5-1-.8h.4l-1.4 1c-.5.2-1 .3-1.7.3-.6 0-1.2 0-1.7-.3-.5-.2-.9-.5-1.1-.8a2 2 0 0 1-.4-1.3c0-.6.2-1.1.5-1.5.3-.5.8-.9 1.4-1.2l.5-.3-.3.3-.8-1-.3-1.1c0-.5.1-.8.3-1.2.2-.3.5-.5 1-.7.3-.2.8-.3 1.3-.3.7 0 1.2.2 1.6.6.5.3.7.8.7 1.4a2.2 2.2 0 0 1-.8 1.7 6 6 0 0 1-1.2.8v-.3l2.3 2.4h-.3l.5-1.3.2-1.5h1.4c0 .7-.1 1.4-.3 2l-.8 1.7v-.4a4.7 4.7 0 0 0 1.7 1.2l-.5 1.1Zm-4.8-1.2a2.6 2.6 0 0 0 2-1v.4l-2.7-2.8h.7l-.4.2a5 5 0 0 0-.7.6 2 2 0 0 0-.5.6l-.1.7c0 .4.1.7.4 1 .3.2.8.3 1.3.3Zm.3-7c-.3 0-.6 0-.8.2a1 1 0 0 0-.3.8v.4l.4.5.5.6h-.4c.6-.3 1-.5 1.2-.8.3-.2.4-.5.4-.8 0-.3-.1-.6-.3-.7a1 1 0 0 0-.7-.3Zm13.9 8.2-1.2-.5-1-.8h.4l-1.4 1c-.5.2-1 .3-1.7.3s-1.2 0-1.7-.3c-.5-.2-.9-.5-1.1-.8a2 2 0 0 1-.4-1.3c0-.6.2-1.1.5-1.5.3-.5.8-.9 1.4-1.2l.5-.3-.3.3-.8-1-.3-1.1c0-.5.1-.8.3-1.2.2-.3.5-.5 1-.7.3-.2.8-.3 1.3-.3.7 0 1.2.2 1.6.6.5.3.7.8.7 1.4a2.2 2.2 0 0 1-.9 1.7 6 6 0 0 1-1 .8v-.3l2.2 2.4h-.3l.5-1.3.2-1.5h1.4c0 .7-.1 1.4-.3 2l-.8 1.7v-.4a4.6 4.6 0 0 0 1.7 1.2l-.5 1.1Zm-4.8-1.2a2.6 2.6 0 0 0 2-1v.4l-2.7-2.8h.7l-.4.2a5 5 0 0 0-.7.6 2 2 0 0 0-.5.6l-.1.7c0 .4.1.7.4 1 .3.2.8.3 1.3.3Zm.3-7c-.3 0-.6 0-.8.2a1 1 0 0 0-.3.8v.4l.4.5.5.6h-.4c.6-.3 1-.5 1.2-.8.3-.2.4-.5.4-.8 0-.3-.1-.6-.3-.7a1 1 0 0 0-.7-.3Zm8.9 3.3v-1.8h1.8v1.8h-1.8Zm0 4.8v-1.8h1.8v1.8h-1.8Zm10.2 1.8-.7-.6c.3-.3.5-.5.6-.8l.2-.8.4.4h-1.3v-1.8h1.8v1.2c0 .4 0 .8-.2 1.2l-.8 1.1Zm-.8-6.6v-1.8h1.8v1.8h-1.8Zm14.4 4.9-1.2-.5-1-.8h.4l-1.4 1c-.5.2-1 .3-1.7.3s-1.2 0-1.7-.3c-.5-.2-.9-.5-1.1-.8a2 2 0 0 1-.4-1.3c0-.6.2-1.1.5-1.5.3-.5.8-.9 1.4-1.2l.5-.3-.3.3-.8-1-.3-1.1c0-.5.1-.8.3-1.2.2-.3.5-.5 1-.7.3-.2.8-.3 1.3-.3.7 0 1.2.2 1.6.6.5.3.7.8.7 1.4a2.2 2.2 0 0 1-.8 1.7 6 6 0 0 1-1.2.8v-.3l2.3 2.4h-.3l.5-1.3.2-1.5h1.4c0 .7-.1 1.4-.3 2l-.8 1.7v-.4a4.7 4.7 0 0 0 1.7 1.2l-.5 1.1Zm-4.8-1.2a2.6 2.6 0 0 0 2-1v.4l-2.7-2.8h.7l-.4.2a5 5 0 0 0-.7.6 2 2 0 0 0-.5.6l-.1.7c0 .4.1.7.4 1 .3.2.8.3 1.3.3Zm.3-7c-.3 0-.6 0-.8.2a1 1 0 0 0-.3.8v.4l.4.5.5.6h-.4c.6-.3 1-.5 1.2-.8.3-.2.4-.5.4-.8 0-.3-.1-.6-.3-.7a1 1 0 0 0-.7-.3Zm14.7 8.1 3.8-5v.7l-3.6-4.9h2l2.6 3.7h-.6l2.7-3.7h2l-3.7 4.9v-.7l3.8 5h-2l-2.8-3.8h.6l-2.8 3.8h-2Zm18 .1-1.2-.5-1-.8h.4l-1.4 1c-.5.2-1 .3-1.7.3s-1.2 0-1.7-.3c-.5-.2-.9-.5-1.1-.8a2 2 0 0 1-.4-1.3c0-.6.2-1.1.5-1.5.3-.5.8-.9 1.4-1.2l.5-.3-.3.3-.8-1-.3-1.1c0-.5.1-.8.3-1.2.2-.3.5-.5 1-.7.3-.2.8-.3 1.3-.3.7 0 1.2.2 1.6.6.5.3.7.8.7 1.4a2.2 2.2 0 0 1-.8 1.7 6 6 0 0 1-1.2.8v-.3l2.3 2.4h-.3l.5-1.3.2-1.5h1.4c0 .7-.1 1.4-.3 2l-.8 1.7v-.4a4.7 4.7 0 0 0 1.7 1.2l-.5 1.1Zm-4.8-1.2a2.6 2.6 0 0 0 2-1v.4l-2.7-2.8h.7l-.4.2a5 5 0 0 0-.7.6 2 2 0 0 0-.5.6l-.1.7c0 .4.1.7.4 1 .3.2.8.3 1.3.3Zm.3-7c-.3 0-.6 0-.8.2a1 1 0 0 0-.3.8v.4l.4.5.5.6h-.4c.6-.3 1-.5 1.2-.8.3-.2.4-.5.4-.8 0-.3-.1-.6-.3-.7a1 1 0 0 0-.7-.3Zm13.9 8.2-1.2-.5-1-.8h.4l-1.4 1c-.5.2-1 .3-1.7.3s-1.2 0-1.7-.3c-.5-.2-.9-.5-1.1-.8a2 2 0 0 1-.4-1.3c0-.6.2-1.1.5-1.5.3-.5.8-.9 1.4-1.2l.5-.3-.3.3-.8-1-.3-1.1c0-.5.1-.8.3-1.2.2-.3.5-.5 1-.7.3-.2.8-.3 1.3-.3.7 0 1.2.2 1.6.6.5.3.7.8.7 1.4a2.2 2.2 0 0 1-.8 1.7 6 6 0 0 1-1.2.8v-.3l2.3 2.4h-.3l.5-1.3.2-1.5h1.4c0 .7-.1 1.4-.3 2l-.8 1.7v-.4a4.7 4.7 0 0 0 1.7 1.2l-.5 1.1Zm-4.8-1.2a2.6 2.6 0 0 0 2-1v.4l-2.7-2.8h.7l-.4.2a5 5 0 0 0-.7.6 2 2 0 0 0-.5.6l-.1.7c0 .4.1.7.4 1 .3.2.8.3 1.3.3Zm.3-7c-.3 0-.6 0-.8.2a1 1 0 0 0-.3.8v.4l.4.5.5.6h-.4c.6-.3 1-.5 1.2-.8.3-.2.4-.5.4-.8 0-.3-.1-.6-.3-.7a1 1 0 0 0-.7-.3Zm9.7 9.9-.7-.6c.3-.3.5-.5.6-.8l.2-.8.4.4h-1.3v-1.8h1.8v1.2c0 .4 0 .8-.2 1.2l-.8 1.1Zm-.8-6.6v-1.8h1.8v1.8h-1.8Zm18.8 4.8v-1.8h1.8v1.8H279Zm14.4.1-1.2-.5-1-.8h.4l-1.4 1c-.5.2-1 .3-1.7.3-.6 0-1.2 0-1.7-.3-.5-.2-.9-.5-1.1-.8a2 2 0 0 1-.4-1.3c0-.6.2-1.1.5-1.5.3-.5.8-.9 1.4-1.2l.5-.3-.3.3-.8-1-.3-1.1c0-.5.1-.8.3-1.2.2-.3.5-.5 1-.7.3-.2.8-.3 1.3-.3.7 0 1.2.2 1.6.6.5.3.7.8.7 1.4a2.2 2.2 0 0 1-.8 1.7 6 6 0 0 1-1.2.8v-.3l2.3 2.4h-.3l.5-1.3.2-1.5h1.4c0 .7-.1 1.4-.3 2l-.8 1.7v-.4a4.7 4.7 0 0 0 1.7 1.2l-.5 1.1Zm-4.8-1.2a2.6 2.6 0 0 0 2-1v.4l-2.7-2.8h.7l-.4.2a5 5 0 0 0-.7.6 2 2 0 0 0-.5.6l-.1.7c0 .4.1.7.4 1 .3.2.8.3 1.3.3Zm.3-7c-.3 0-.6 0-.8.2a1 1 0 0 0-.3.8v.4l.4.5.5.6h-.4c.6-.3 1-.5 1.2-.8.3-.2.4-.5.4-.8 0-.3-.1-.6-.3-.7a1 1 0 0 0-.7-.3Zm13.9 8.2-1.2-.5-1-.8h.4l-1.4 1c-.5.2-1 .3-1.7.3-.6 0-1.2 0-1.7-.3-.5-.2-.9-.5-1.1-.8a2 2 0 0 1-.4-1.3c0-.6.2-1.1.5-1.5.3-.5.8-.9 1.4-1.2l.5-.3-.3.3-.8-1-.3-1.1c0-.5.1-.8.3-1.2.2-.3.5-.5 1-.7.3-.2.8-.3 1.3-.3.7 0 1.2.2 1.6.6.5.3.7.8.7 1.4a2.2 2.2 0 0 1-.9 1.7 6 6 0 0 1-1 .8v-.3l2.2 2.4h-.3l.5-1.3.2-1.5h1.4c0 .7-.1 1.4-.3 2l-.8 1.7v-.4a4.7 4.7 0 0 0 1.7 1.2l-.5 1.1Zm-4.8-1.2a2.6 2.6 0 0 0 2-1v.4l-2.7-2.8h.7l-.4.2a5 5 0 0 0-.7.6 2 2 0 0 0-.5.6l-.1.7c0 .4.1.7.4 1 .3.2.8.3 1.3.3Zm.3-7c-.3 0-.6 0-.8.2a1 1 0 0 0-.3.8v.4l.4.5.5.6h-.4c.6-.3 1-.5 1.2-.8.3-.2.4-.5.4-.8 0-.3-.1-.6-.3-.7a1 1 0 0 0-.7-.3Zm6.1 8.1 3-3.8v.8l-2.8-3.6h1.9l1.9 2.5h-.6l1.9-2.5h1.9l-2.9 3.6v-.8l3 3.8h-1.9l-2-2.6h.6l-2 2.6h-2Zm13 1.8-.7-.6c.3-.3.5-.5.6-.8l.2-.8.4.4h-1.3v-1.8h1.8v1.2c0 .4 0 .8-.2 1.2l-.8 1.1Zm-.8-6.6v-1.8h1.8v1.8h-1.8Zm9.4 0v-1.8h1.8v1.8H326Zm0 4.8v-1.8h1.8v1.8H326Zm9.4-4.8v-1.8h1.8v1.8h-1.8Zm0 4.8v-1.8h1.8v1.8h-1.8Zm10.2 1.8-.7-.6c.3-.3.5-.5.6-.8l.2-.8.4.4h-1.3v-1.8h1.8v1.2c0 .4 0 .8-.2 1.2l-.8 1.1Zm-.8-6.6v-1.8h1.8v1.8h-1.8Zm6.6 4.8 3-3.8v.8l-2.8-3.6h1.9l1.9 2.5h-.6l1.9-2.5h1.9l-2.9 3.6v-.8l3 3.8h-1.9l-2-2.6h.6l-2 2.6h-2Zm17.2.1-1.2-.5-1-.8h.4l-1.4 1c-.5.2-1 .3-1.7.3-.6 0-1.2 0-1.7-.3-.5-.2-.9-.5-1.1-.8a2 2 0 0 1-.4-1.3c0-.6.2-1.1.5-1.5.3-.5.8-.9 1.4-1.2l.5-.3-.3.3-.8-1-.3-1.1c0-.5.1-.8.3-1.2.2-.3.5-.5 1-.7.3-.2.8-.3 1.3-.3.7 0 1.2.2 1.6.6.5.3.7.8.7 1.4a2.2 2.2 0 0 1-.8 1.7 6 6 0 0 1-1.2.8v-.3l2.3 2.4h-.3l.5-1.3.2-1.5h1.4c0 .7-.1 1.4-.3 2l-.8 1.7v-.4a4.7 4.7 0 0 0 1.7 1.2l-.5 1.1Zm-4.8-1.2a2.6 2.6 0 0 0 2-1v.4l-2.7-2.8h.7l-.4.2a5 5 0 0 0-.7.6 2 2 0 0 0-.5.6l-.1.7c0 .4.1.7.4 1 .3.2.8.3 1.3.3Zm.3-7c-.3 0-.6 0-.8.2a1 1 0 0 0-.3.8v.4l.4.5.5.6h-.4c.6-.3 1-.5 1.2-.8.3-.2.4-.5.4-.8 0-.3-.1-.6-.3-.7a1 1 0 0 0-.7-.3Zm9.7 9.9-.7-.6c.3-.3.5-.5.6-.8l.2-.8.4.4H373v-1.8h1.8v1.2c0 .4 0 .8-.2 1.2l-.8 1.1Zm-.8-6.6v-1.8h1.8v1.8H373ZM82.4 261.7l-.7-.5c.3-.3.5-.5.6-.8l.2-.8.4.4h-1.3v-1.8h1.8v1.2c0 .4 0 .8-.2 1.2l-.8 1.1Zm-.8-6.5v-1.8h1.8v1.8h-1.8Zm14.4 4.9-1.2-.5-1-.8h.4l-1.4 1c-.5.2-1 .3-1.7.3s-1.2 0-1.7-.3c-.5-.2-.9-.5-1.1-.8a2 2 0 0 1-.4-1.3c0-.6.2-1.1.5-1.5.3-.5.8-.9 1.4-1.2l.5-.3-.3.3-.8-1-.3-1.1c0-.5.1-.8.3-1.2.2-.3.5-.5 1-.7.3-.2.8-.3 1.3-.3.7 0 1.2.2 1.6.6.5.3.7.8.7 1.4a2.2 2.2 0 0 1-.9 1.7 6 6 0 0 1-1 .8v-.3l2.2 2.4h-.3l.5-1.3.2-1.5H96c0 .7-.1 1.4-.3 2l-.8 1.7v-.4a4.7 4.7 0 0 0 1.7 1.2l-.6 1Zm-4.8-1.2a2.6 2.6 0 0 0 2-1v.4l-2.7-2.8h.7l-.4.2a5 5 0 0 0-.7.6 2 2 0 0 0-.5.6l-.1.7c0 .4.1.7.4 1 .3.2.8.3 1.3.3Zm.3-7c-.3 0-.6 0-.8.2a1 1 0 0 0-.3.8v.4l.4.5.5.6H91c.6-.3 1-.5 1.2-.8.3-.2.4-.5.4-.8 0-.3-.1-.6-.3-.7a1 1 0 0 0-.7-.3Zm13.9 8.2-1.2-.5-1-.8h.4l-1.4 1c-.5.2-1 .3-1.7.3s-1.2 0-1.7-.3c-.5-.2-.9-.5-1.1-.8a2 2 0 0 1-.4-1.3c0-.6.2-1.1.5-1.5.3-.5.8-.9 1.4-1.2l.5-.3-.3.3-.8-1-.3-1.1c0-.5.1-.8.3-1.2.2-.3.5-.5 1-.7.3-.2.8-.3 1.3-.3.7 0 1.2.2 1.6.6.5.3.7.8.7 1.4a2.2 2.2 0 0 1-.9 1.7 6 6 0 0 1-1 .8v-.3l2.2 2.4h-.3l.5-1.3.2-1.5h1.4c0 .7-.1 1.4-.3 2l-.8 1.7v-.4a4.7 4.7 0 0 0 1.7 1.2l-.5 1.1Zm-4.8-1.2a2.6 2.6 0 0 0 2-1v.4l-2.7-2.8h.7l-.4.2a5 5 0 0 0-.7.6 2 2 0 0 0-.5.6l-.1.7c0 .4.1.7.4 1 .3.2.8.3 1.3.3Zm.3-7c-.3 0-.6 0-.8.2a1 1 0 0 0-.3.8v.4l.4.5.5.6h-.4c.6-.3 1-.5 1.2-.8.3-.2.4-.5.4-.8 0-.3-.1-.6-.3-.7a1 1 0 0 0-.7-.3Zm6.1 8.1 3-3.8v.8l-2.8-3.6h1.9l1.9 2.5h-.6l1.9-2.5h1.9l-2.9 3.6v-.8l3 3.8h-1.9l-2-2.6h.6l-2 2.6h-2Zm22 1.5v-1.7l.3.3c-.7 0-1.2-.1-1.8-.3-.6-.2-1-.4-1.5-.8l.6-1.3a4.8 4.8 0 0 0 2.9 1c.6 0 1.1-.1 1.4-.4.3-.2.5-.5.5-.8 0-.3-.1-.6-.4-.7l-1-.5-1.4-.3a3 3 0 0 1-1.8-.8c-.4-.4-.6-1-.6-1.6 0-.6.2-1 .4-1.4l1-1c.5-.2 1-.4 1.6-.4l-.2.2v-1.7h1.3v1.7l-.3-.2 1.5.3c.5.1.9.4 1.2.7l-.5 1.3c-.3-.3-.7-.6-1.1-.7a4 4 0 0 0-1.4-.2c-.6 0-1 0-1.4.3-.3.3-.5.6-.5 1 0 .3.1.5.3.7l1 .5 1.4.3c.8.1 1.5.4 1.9.8.4.4.6 1 .6 1.6 0 .5-.2 1-.4 1.3l-1 1-1.6.4.3-.3v1.7H129Zm14-1.4-1.2-.5-1-.8h.4l-1.4 1c-.5.2-1 .3-1.7.3s-1.2 0-1.7-.3c-.5-.2-.9-.5-1.1-.8a2 2 0 0 1-.4-1.3c0-.6.2-1.1.5-1.5.3-.5.8-.9 1.4-1.2l.5-.3-.3.3-.8-1-.3-1.1c0-.5.1-.8.3-1.2.2-.3.5-.5 1-.7.3-.2.8-.3 1.3-.3.7 0 1.2.2 1.6.6.5.3.7.8.7 1.4a2.2 2.2 0 0 1-.9 1.7 6 6 0 0 1-1 .8v-.3l2.2 2.4h-.3l.5-1.3.2-1.5h1.4c0 .7-.1 1.4-.3 2l-.8 1.7v-.4a4.6 4.6 0 0 0 1.7 1.2l-.5 1.1Zm-4.8-1.2a2.6 2.6 0 0 0 2-1v.4l-2.7-2.8h.7l-.4.2a5 5 0 0 0-.7.6 2 2 0 0 0-.5.6l-.1.7c0 .4.1.7.4 1 .3.2.8.3 1.3.3Zm.3-7c-.3 0-.6 0-.8.2a1 1 0 0 0-.3.8v.4l.4.5.5.6h-.4c.6-.3 1-.5 1.2-.8.3-.2.4-.5.4-.8 0-.3-.1-.6-.3-.7a1 1 0 0 0-.7-.3Zm32.7 8.2-1.2-.5-1-.8h.4l-1.4 1c-.5.2-1 .3-1.7.3s-1.2 0-1.7-.3c-.5-.2-.9-.5-1.1-.8a2 2 0 0 1-.4-1.3c0-.6.2-1.1.5-1.5.3-.5.8-.9 1.4-1.2l.5-.3-.3.3-.8-1-.3-1.1c0-.5.1-.8.3-1.2.2-.3.5-.5 1-.7.3-.2.8-.3 1.3-.3.7 0 1.2.2 1.6.6.5.3.7.8.7 1.4a2.2 2.2 0 0 1-.8 1.7 6 6 0 0 1-1.2.8v-.3l2.3 2.4h-.3l.5-1.3.2-1.5h1.4c0 .7-.1 1.4-.3 2l-.8 1.7v-.4a4.7 4.7 0 0 0 1.7 1.2l-.5 1.1Zm-4.8-1.2a2.6 2.6 0 0 0 2-1v.4l-2.7-2.8h.7l-.4.2a5 5 0 0 0-.7.6 2 2 0 0 0-.5.6l-.1.7c0 .4.1.7.4 1 .3.2.8.3 1.3.3Zm.3-7c-.3 0-.6 0-.8.2a1 1 0 0 0-.3.8v.4l.4.5.5.6h-.4c.6-.3 1-.5 1.2-.8.3-.2.4-.5.4-.8 0-.3-.1-.6-.3-.7a1 1 0 0 0-.7-.3Zm13.9 8.2-1.2-.5-1-.8h.4l-1.4 1c-.5.2-1 .3-1.7.3-.6 0-1.2 0-1.7-.3-.5-.2-.9-.5-1.1-.8a2 2 0 0 1-.4-1.3c0-.6.2-1.1.5-1.5.3-.5.8-.9 1.4-1.2l.5-.3-.3.3-.8-1-.3-1.1c0-.5.1-.8.3-1.2.2-.3.5-.5 1-.7.3-.2.8-.3 1.3-.3.7 0 1.2.2 1.6.6.5.3.7.8.7 1.4a2.2 2.2 0 0 1-.8 1.7 6 6 0 0 1-1.2.8v-.3l2.3 2.4h-.3l.5-1.3.2-1.5h1.4c0 .7-.1 1.4-.3 2l-.8 1.7v-.4a4.7 4.7 0 0 0 1.7 1.2l-.5 1.1Zm-4.8-1.2a2.6 2.6 0 0 0 2-1v.4l-2.7-2.8h.7l-.4.2a5 5 0 0 0-.7.6 2 2 0 0 0-.5.6l-.1.7c0 .4.1.7.4 1 .3.2.8.3 1.3.3Zm.3-7c-.3 0-.6 0-.8.2a1 1 0 0 0-.3.8v.4l.4.5.5.6h-.4c.6-.3 1-.5 1.2-.8.3-.2.4-.5.4-.8 0-.3-.1-.6-.3-.7a1 1 0 0 0-.7-.3Zm9.3 9.6v-1.7l.3.3c-.7 0-1.2-.1-1.8-.3-.6-.2-1-.4-1.5-.8l.6-1.3a4.9 4.9 0 0 0 2.9 1c.6 0 1.1-.1 1.4-.4.3-.2.5-.5.5-.8 0-.3-.1-.6-.4-.7l-1-.5-1.4-.3a3 3 0 0 1-1.8-.8c-.4-.4-.6-1-.6-1.6 0-.6.2-1 .4-1.4l1-1c.5-.2 1-.4 1.6-.4l-.2.2v-1.7h1.3v1.7l-.3-.2 1.5.3c.5.1.9.4 1.2.7l-.5 1.3c-.3-.3-.7-.6-1.2-.7a4 4 0 0 0-1.3-.2c-.6 0-1 0-1.4.3-.3.3-.5.6-.5 1 0 .3.1.5.3.7l1 .5 1.4.3c.8.1 1.5.4 1.9.8.4.4.6 1 .6 1.6 0 .5-.2 1-.4 1.3l-1 1-1.6.4.3-.3v1.7h-1.3Zm9-1.5v-1.8h1.8v1.8h-1.8Zm14.4.1-1.2-.5-1-.8h.4l-1.4 1c-.5.2-1 .3-1.7.3s-1.2 0-1.7-.3c-.5-.2-.9-.5-1.1-.8a2 2 0 0 1-.4-1.3c0-.6.2-1.1.5-1.5.3-.5.8-.9 1.4-1.2l.5-.3-.3.3-.8-1-.3-1.1c0-.5.1-.8.3-1.2.2-.3.5-.5 1-.7.3-.2.8-.3 1.3-.3.7 0 1.2.2 1.6.6.5.3.7.8.7 1.4a2.2 2.2 0 0 1-.8 1.7 6 6 0 0 1-1.2.8v-.3l2.3 2.4h-.3l.5-1.3.2-1.5h1.4c0 .7-.1 1.4-.3 2l-.8 1.7v-.4a4.7 4.7 0 0 0 1.7 1.2l-.5 1.1ZM204 259a2.6 2.6 0 0 0 2-1v.4l-2.7-2.8h.7l-.4.2a5 5 0 0 0-.7.6 2 2 0 0 0-.5.6l-.1.7c0 .4.1.7.4 1 .3.2.8.3 1.3.3Zm.3-7c-.3 0-.6 0-.8.2a1 1 0 0 0-.3.8v.4l.4.5.5.6h-.4c.6-.3 1-.5 1.2-.8.3-.2.4-.5.4-.8 0-.3-.1-.6-.3-.7a1 1 0 0 0-.7-.3Zm8.9 8v-1.8h1.8v1.8h-1.8Zm19.6 1.7-.7-.5c.3-.3.5-.5.6-.8l.2-.8.4.4H232v-1.8h1.8v1.2c0 .4 0 .8-.2 1.2l-.8 1.1Zm-.8-6.5v-1.8h1.8v1.8H232Zm14.4 4.9-1.2-.5-1-.8h.4l-1.4 1c-.5.2-1 .3-1.7.3s-1.2 0-1.7-.3c-.5-.2-.9-.5-1.1-.8a2 2 0 0 1-.4-1.3c0-.6.2-1.1.5-1.5.3-.5.8-.9 1.4-1.2l.5-.3-.3.3-.8-1-.3-1.1c0-.5.1-.8.3-1.2.2-.3.5-.5 1-.7.3-.2.8-.3 1.3-.3.7 0 1.2.2 1.6.6.5.3.7.8.7 1.4a2.2 2.2 0 0 1-.8 1.7 6 6 0 0 1-1.2.8v-.3l2.3 2.4h-.3l.5-1.3.2-1.5h1.4c0 .7-.1 1.4-.3 2l-.8 1.7v-.4a4.7 4.7 0 0 0 1.7 1.2l-.5 1.1Zm-4.8-1.2a2.6 2.6 0 0 0 2-1v.4l-2.7-2.8h.7l-.4.2a5 5 0 0 0-.7.6 2 2 0 0 0-.5.6l-.1.7c0 .4.1.7.4 1 .3.2.8.3 1.3.3Zm.3-7c-.3 0-.6 0-.8.2a1 1 0 0 0-.3.8v.4l.4.5.5.6h-.4c.6-.3 1-.5 1.2-.8.3-.2.4-.5.4-.8 0-.3-.1-.6-.3-.7a1 1 0 0 0-.7-.3Zm13.9 8.2-1.2-.5-1-.8h.4l-1.4 1c-.5.2-1 .3-1.7.3s-1.2 0-1.7-.3c-.5-.2-.9-.5-1.1-.8a2 2 0 0 1-.4-1.3c0-.6.2-1.1.5-1.5.3-.5.8-.9 1.4-1.2l.5-.3-.3.3-.8-1-.3-1.1c0-.5.1-.8.3-1.2.2-.3.5-.5 1-.7.3-.2.8-.3 1.3-.3.7 0 1.2.2 1.6.6.5.3.7.8.7 1.4a2.2 2.2 0 0 1-.8 1.7 6 6 0 0 1-1.2.8v-.3l2.3 2.4h-.3l.5-1.3.2-1.5h1.4c0 .7-.1 1.4-.3 2l-.8 1.7v-.4a4.7 4.7 0 0 0 1.7 1.2l-.5 1.1ZM251 259a2.6 2.6 0 0 0 2-1v.4l-2.7-2.8h.7l-.4.2a5 5 0 0 0-.7.6 2 2 0 0 0-.5.6l-.1.7c0 .4.1.7.4 1 .3.2.8.3 1.3.3Zm.3-7c-.3 0-.6 0-.8.2a1 1 0 0 0-.3.8v.4l.4.5.5.6h-.4c.6-.3 1-.5 1.2-.8.3-.2.4-.5.4-.8 0-.3-.1-.6-.3-.7a1 1 0 0 0-.7-.3Zm19.1 9.7-.7-.5c.3-.3.5-.5.6-.8l.2-.8.4.4h-1.3v-1.8h1.8v1.2c0 .4 0 .8-.2 1.2l-.8 1.1Zm-.8-6.5v-1.8h1.8v1.8h-1.8Zm5.8 4.8 3.8-5v.7l-3.6-4.9h2l2.6 3.7h-.6l2.7-3.7h2l-3.7 4.9v-.7l3.8 5h-2l-2.8-3.8h.6l-2.8 3.8h-2Zm13.8 1.7-.7-.5c.3-.3.5-.5.6-.8l.2-.8.4.4h-1.3v-1.8h1.8v1.2c0 .4 0 .8-.2 1.2l-.8 1.1Zm-.8-6.5v-1.8h1.8v1.8h-1.8Zm14.4 4.9-1.2-.5-1-.8h.4l-1.4 1c-.5.2-1 .3-1.7.3-.6 0-1.2 0-1.7-.3-.5-.2-.9-.5-1.1-.8a2 2 0 0 1-.4-1.3c0-.6.2-1.1.5-1.5.3-.5.8-.9 1.4-1.2l.5-.3-.3.3-.8-1-.3-1.1c0-.5.1-.8.3-1.2.2-.3.5-.5 1-.7.3-.2.8-.3 1.3-.3.7 0 1.2.2 1.6.6.5.3.7.8.7 1.4a2.2 2.2 0 0 1-.9 1.7 6 6 0 0 1-1 .8v-.3l2.2 2.4h-.3l.5-1.3.2-1.5h1.4c0 .7-.1 1.4-.3 2l-.8 1.7v-.4a4.7 4.7 0 0 0 1.7 1.2l-.5 1.1ZM298 259a2.6 2.6 0 0 0 2-1v.4l-2.7-2.8h.7l-.4.2a5 5 0 0 0-.7.6 2 2 0 0 0-.5.6l-.1.7c0 .4.1.7.4 1 .3.2.8.3 1.3.3Zm.3-7c-.3 0-.6 0-.8.2a1 1 0 0 0-.3.8v.4l.4.5.5.6h-.4c.6-.3 1-.5 1.2-.8.3-.2.4-.5.4-.8 0-.3-.1-.6-.3-.7a1 1 0 0 0-.7-.3Zm9.7 9.7-.7-.5c.3-.3.5-.5.6-.8l.2-.8.4.4h-1.3v-1.8h1.8v1.2c0 .4 0 .8-.2 1.2l-.8 1.1Zm-.8-6.5v-1.8h1.8v1.8h-1.8Zm63 4.8 3-3.8v.8l-2.8-3.6h1.9l1.9 2.5h-.6l1.9-2.5h1.9l-2.9 3.6v-.8l3 3.8h-1.9l-2-2.6h.6l-2 2.6h-2Zm13 1.7-.7-.5c.3-.3.5-.5.6-.8l.2-.8.4.4h-1.3v-1.8h1.8v1.2c0 .4 0 .8-.2 1.2l-.8 1.1Zm-.8-6.5v-1.8h1.8v1.8h-1.8ZM54.2 280.5l-.7-.5c.3-.3.5-.5.6-.8l.2-.8.4.4h-1.3V277h1.8v1.2c0 .4 0 .8-.2 1.2l-.8 1.1Zm-.8-6.5v-1.8h1.8v1.8h-1.8Zm9.8 6.3v-1.7l.3.3c-.7 0-1.2-.1-1.8-.3-.6-.2-1-.4-1.5-.8l.6-1.3a4.8 4.8 0 0 0 2.9 1c.6 0 1.1-.1 1.4-.4.3-.2.5-.5.5-.8 0-.3-.1-.6-.4-.7l-1-.5-1.4-.3a3 3 0 0 1-1.8-.8c-.4-.4-.6-1-.6-1.6 0-.6.2-1 .4-1.4l1-1c.5-.2 1-.4 1.6-.4l-.2.2V268h1.3v1.7l-.3-.2 1.5.3c.5.1.9.4 1.2.7l-.5 1.3c-.3-.3-.7-.6-1.2-.7a4 4 0 0 0-1.3-.2c-.6 0-1 0-1.4.3-.3.3-.5.6-.5 1 0 .3.1.5.3.7l1 .5 1.4.3c.8.1 1.5.4 1.9.8.4.4.6 1 .6 1.6 0 .5-.2 1-.4 1.3l-1 1-1.6.4.3-.3v1.7h-1.3Zm14-1.3-1.2-.6-1-.8h.4l-1.4 1c-.5.2-1 .3-1.7.3s-1.2 0-1.7-.3c-.5-.2-.9-.5-1.1-.8a2 2 0 0 1-.4-1.3c0-.6.2-1.1.5-1.5.3-.5.8-.9 1.4-1.2l.5-.3-.3.3-.8-1-.3-1.1c0-.5.1-.8.3-1.2.2-.3.5-.5 1-.7.3-.2.8-.3 1.3-.3.7 0 1.2.2 1.6.6.5.3.7.8.7 1.4a2.2 2.2 0 0 1-.9 1.7 6 6 0 0 1-1 .8v-.3l2.2 2.4H75l.5-1.3.2-1.5h1.4c0 .7-.1 1.4-.3 2L76 277v-.4a4.7 4.7 0 0 0 1.7 1.2l-.5 1.1Zm-4.8-1.3a2.6 2.6 0 0 0 2-1v.4l-2.7-2.8h.7l-.4.2a5 5 0 0 0-.7.6 2 2 0 0 0-.5.6l-.1.7c0 .4.1.7.4 1 .3.2.8.3 1.3.3Zm.3-7c-.3 0-.6 0-.8.2a1 1 0 0 0-.3.8v.4l.4.5.5.6h-.4c.6-.3 1-.5 1.2-.8.3-.2.4-.5.4-.8 0-.3-.1-.6-.3-.7a1 1 0 0 0-.7-.3Zm9.7 9.8-.7-.5c.3-.3.5-.5.6-.8l.2-.8.4.4h-1.3V277h1.8v1.2c0 .4 0 .8-.2 1.2l-.8 1.1Zm-.8-6.5v-1.8h1.8v1.8h-1.8Zm19.2 6.3v-1.7l.3.3c-.7 0-1.2-.1-1.8-.3-.6-.2-1-.4-1.5-.8l.6-1.3a4.8 4.8 0 0 0 2.9 1c.6 0 1.1-.1 1.4-.4.3-.2.5-.5.5-.8 0-.3-.1-.6-.4-.7l-1-.5-1.4-.3a3 3 0 0 1-1.8-.8c-.4-.4-.6-1-.6-1.6 0-.6.2-1 .4-1.4l1-1c.5-.2 1-.4 1.6-.4l-.2.2V268h1.3v1.7l-.3-.2 1.5.3c.5.1.9.4 1.2.7l-.5 1.3c-.3-.3-.7-.6-1.2-.7a4 4 0 0 0-1.3-.2c-.6 0-1 0-1.4.3-.3.3-.5.6-.5 1 0 .3.1.5.3.7l1 .5 1.4.3c.8.1 1.5.4 1.9.8.4.4.6 1 .6 1.6 0 .5-.2 1-.4 1.3l-1 1-1.6.4.3-.3v1.7h-1.3Zm9.4 0v-1.7l.3.3c-.7 0-1.2-.1-1.8-.3-.6-.2-1-.4-1.5-.8l.6-1.3a4.8 4.8 0 0 0 2.9 1c.6 0 1.1-.1 1.4-.4.3-.2.5-.5.5-.8 0-.3-.1-.6-.4-.7l-1-.5-1.4-.3a3 3 0 0 1-1.8-.8c-.4-.4-.6-1-.6-1.6 0-.6.2-1 .4-1.4l1-1c.5-.2 1-.4 1.6-.4l-.2.2V268h1.3v1.7l-.3-.2 1.5.3c.5.1.9.4 1.2.7l-.5 1.3c-.3-.3-.7-.6-1.2-.7a4 4 0 0 0-1.3-.2c-.6 0-1 0-1.4.3-.3.3-.5.6-.5 1 0 .3.1.5.3.7l1 .5 1.4.3c.8.1 1.5.4 1.9.8.4.4.6 1 .6 1.6 0 .5-.2 1-.4 1.3l-1 1-1.6.4.3-.3v1.7h-1.3Zm18.8 0v-1.7l.3.3c-.7 0-1.2-.1-1.8-.3-.6-.2-1-.4-1.5-.8l.6-1.3a4.8 4.8 0 0 0 2.9 1c.6 0 1.1-.1 1.4-.4.3-.2.5-.5.5-.8 0-.3-.1-.6-.4-.7l-1-.5-1.4-.3a3 3 0 0 1-1.8-.8c-.4-.4-.6-1-.6-1.6 0-.6.2-1 .4-1.4l1-1c.5-.2 1-.4 1.6-.4l-.2.2V268h1.3v1.7l-.3-.2 1.5.3c.5.1.9.4 1.2.7l-.5 1.3c-.3-.3-.7-.6-1.1-.7a4 4 0 0 0-1.4-.2c-.6 0-1 0-1.4.3-.3.3-.5.6-.5 1 0 .3.1.5.3.7l1 .5 1.4.3c.8.1 1.5.4 1.9.8.4.4.6 1 .6 1.6 0 .5-.2 1-.4 1.3l-1 1-1.6.4.3-.3v1.7H129Zm14-1.3-1.2-.6-1-.8h.4l-1.4 1c-.5.2-1 .3-1.7.3s-1.2 0-1.7-.3c-.5-.2-.9-.5-1.1-.8a2 2 0 0 1-.4-1.3c0-.6.2-1.1.5-1.5.3-.5.8-.9 1.4-1.2l.5-.3-.3.3-.8-1-.3-1.1c0-.5.1-.8.3-1.2.2-.3.5-.5 1-.7.3-.2.8-.3 1.3-.3.7 0 1.2.2 1.6.6.5.3.7.8.7 1.4a2.2 2.2 0 0 1-.9 1.7 6 6 0 0 1-1 .8v-.3l2.2 2.4h-.3l.5-1.3.2-1.5h1.4c0 .7-.1 1.4-.3 2l-.8 1.7v-.4a4.6 4.6 0 0 0 1.7 1.2l-.5 1.1Zm-4.8-1.3a2.6 2.6 0 0 0 2-1v.4l-2.7-2.8h.7l-.4.2a5 5 0 0 0-.7.6 2 2 0 0 0-.5.6l-.1.7c0 .4.1.7.4 1 .3.2.8.3 1.3.3Zm.3-7c-.3 0-.6 0-.8.2a1 1 0 0 0-.3.8v.4l.4.5.5.6h-.4c.6-.3 1-.5 1.2-.8.3-.2.4-.5.4-.8 0-.3-.1-.6-.3-.7a1 1 0 0 0-.7-.3Zm14.7 8.1 3.8-5v.7l-3.6-4.9h2l2.6 3.7h-.6l2.7-3.7h2l-3.7 4.9v-.7l3.8 5h-2l-2.8-3.8h.6l-2.8 3.8h-2Zm18 .2-1.2-.6-1-.8h.4l-1.4 1c-.5.2-1 .3-1.7.3s-1.2 0-1.7-.3c-.5-.2-.9-.5-1.1-.8a2 2 0 0 1-.4-1.3c0-.6.2-1.1.5-1.5.3-.5.8-.9 1.4-1.2l.5-.3-.3.3-.8-1-.3-1.1c0-.5.1-.8.3-1.2.2-.3.5-.5 1-.7.3-.2.8-.3 1.3-.3.7 0 1.2.2 1.6.6.5.3.7.8.7 1.4a2.2 2.2 0 0 1-.8 1.7 6 6 0 0 1-1.2.8v-.3l2.3 2.4h-.3l.5-1.3.2-1.5h1.4c0 .7-.1 1.4-.3 2l-.8 1.7v-.4a4.7 4.7 0 0 0 1.7 1.2l-.5 1.1Zm-4.8-1.3a2.6 2.6 0 0 0 2-1v.4l-2.7-2.8h.7l-.4.2a5 5 0 0 0-.7.6 2 2 0 0 0-.5.6l-.1.7c0 .4.1.7.4 1 .3.2.8.3 1.3.3Zm.3-7c-.3 0-.6 0-.8.2a1 1 0 0 0-.3.8v.4l.4.5.5.6h-.4c.6-.3 1-.5 1.2-.8.3-.2.4-.5.4-.8 0-.3-.1-.6-.3-.7a1 1 0 0 0-.7-.3Zm13.9 8.3-1.2-.6-1-.8h.4l-1.4 1c-.5.2-1 .3-1.7.3-.6 0-1.2 0-1.7-.3-.5-.2-.9-.5-1.1-.8a2 2 0 0 1-.4-1.3c0-.6.2-1.1.5-1.5.3-.5.8-.9 1.4-1.2l.5-.3-.3.3-.8-1-.3-1.1c0-.5.1-.8.3-1.2.2-.3.5-.5 1-.7.3-.2.8-.3 1.3-.3.7 0 1.2.2 1.6.6.5.3.7.8.7 1.4a2.2 2.2 0 0 1-.8 1.7 6 6 0 0 1-1.2.8v-.3l2.3 2.4h-.3l.5-1.3.2-1.5h1.4c0 .7-.1 1.4-.3 2l-.8 1.7v-.4a4.7 4.7 0 0 0 1.7 1.2l-.5 1.1Zm-4.8-1.3a2.6 2.6 0 0 0 2-1v.4l-2.7-2.8h.7l-.4.2a5 5 0 0 0-.7.6 2 2 0 0 0-.5.6l-.1.7c0 .4.1.7.4 1 .3.2.8.3 1.3.3Zm.3-7c-.3 0-.6 0-.8.2a1 1 0 0 0-.3.8v.4l.4.5.5.6h-.4c.6-.3 1-.5 1.2-.8.3-.2.4-.5.4-.8 0-.3-.1-.6-.3-.7a1 1 0 0 0-.7-.3Zm6.1 8.1 3-3.8v.8l-2.8-3.6h1.9l1.9 2.5h-.6l1.9-2.5h1.9l-2.9 3.6v-.8l3 3.8h-1.9l-2-2.6h.6l-2 2.6h-2Zm17.2.2-1.2-.6-1-.8h.4l-1.4 1c-.5.2-1 .3-1.7.3s-1.2 0-1.7-.3c-.5-.2-.9-.5-1.1-.8a2 2 0 0 1-.4-1.3c0-.6.2-1.1.5-1.5.3-.5.8-.9 1.4-1.2l.5-.3-.3.3-.8-1-.3-1.1c0-.5.1-.8.3-1.2.2-.3.5-.5 1-.7.3-.2.8-.3 1.3-.3.7 0 1.2.2 1.6.6.5.3.7.8.7 1.4a2.2 2.2 0 0 1-.8 1.7 6 6 0 0 1-1.2.8v-.3l2.3 2.4h-.3l.5-1.3.2-1.5h1.4c0 .7-.1 1.4-.3 2l-.8 1.7v-.4a4.7 4.7 0 0 0 1.7 1.2l-.5 1.1Zm-4.8-1.3a2.6 2.6 0 0 0 2-1v.4l-2.7-2.8h.7l-.4.2a5 5 0 0 0-.7.6 2 2 0 0 0-.5.6l-.1.7c0 .4.1.7.4 1 .3.2.8.3 1.3.3Zm.3-7c-.3 0-.6 0-.8.2a1 1 0 0 0-.3.8v.4l.4.5.5.6h-.4c.6-.3 1-.5 1.2-.8.3-.2.4-.5.4-.8 0-.3-.1-.6-.3-.7a1 1 0 0 0-.7-.3Zm8.9 8.1V277h1.8v1.8h-1.8Zm19.2 1.5v-1.7l.3.3c-.7 0-1.2-.1-1.8-.3-.6-.2-1-.4-1.5-.8l.6-1.3a4.8 4.8 0 0 0 2.9 1c.6 0 1.1-.1 1.4-.4.3-.2.5-.5.5-.8 0-.3-.1-.6-.4-.7l-1-.5-1.4-.3a3 3 0 0 1-1.8-.8c-.4-.4-.6-1-.6-1.6 0-.6.2-1 .4-1.4l1-1c.5-.2 1-.4 1.6-.4l-.2.2V268h1.3v1.7l-.3-.2 1.5.3c.5.1.9.4 1.2.7l-.5 1.3c-.3-.3-.7-.6-1.1-.7a4 4 0 0 0-1.4-.2c-.6 0-1 0-1.4.3-.3.3-.5.6-.5 1 0 .3.1.5.3.7l1 .5 1.4.3c.8.1 1.5.4 1.9.8.4.4.6 1 .6 1.6 0 .5-.2 1-.4 1.3l-1 1-1.6.4.3-.3v1.7H223Zm6.2-1.5 3-3.8v.8l-2.8-3.6h1.9l1.9 2.5h-.6l1.9-2.5h1.9l-2.9 3.6v-.8l3 3.8h-1.9l-2-2.6h.6l-2 2.6h-2Zm17.2.2-1.2-.6-1-.8h.4l-1.4 1c-.5.2-1 .3-1.7.3s-1.2 0-1.7-.3c-.5-.2-.9-.5-1.1-.8a2 2 0 0 1-.4-1.3c0-.6.2-1.1.5-1.5.3-.5.8-.9 1.4-1.2l.5-.3-.3.3-.8-1-.3-1.1c0-.5.1-.8.3-1.2.2-.3.5-.5 1-.7.3-.2.8-.3 1.3-.3.7 0 1.2.2 1.6.6.5.3.7.8.7 1.4a2.2 2.2 0 0 1-.8 1.7 6 6 0 0 1-1.2.8v-.3l2.3 2.4h-.3l.5-1.3.2-1.5h1.4c0 .7-.1 1.4-.3 2l-.8 1.7v-.4a4.7 4.7 0 0 0 1.7 1.2l-.5 1.1Zm-4.8-1.3a2.6 2.6 0 0 0 2-1v.4l-2.7-2.8h.7l-.4.2a5 5 0 0 0-.7.6 2 2 0 0 0-.5.6l-.1.7c0 .4.1.7.4 1 .3.2.8.3 1.3.3Zm.3-7c-.3 0-.6 0-.8.2a1 1 0 0 0-.3.8v.4l.4.5.5.6h-.4c.6-.3 1-.5 1.2-.8.3-.2.4-.5.4-.8 0-.3-.1-.6-.3-.7a1 1 0 0 0-.7-.3Zm13.9 8.3-1.2-.6-1-.8h.4l-1.4 1c-.5.2-1 .3-1.7.3s-1.2 0-1.7-.3c-.5-.2-.9-.5-1.1-.8a2 2 0 0 1-.4-1.3c0-.6.2-1.1.5-1.5.3-.5.8-.9 1.4-1.2l.5-.3-.3.3-.8-1-.3-1.1c0-.5.1-.8.3-1.2.2-.3.5-.5 1-.7.3-.2.8-.3 1.3-.3.7 0 1.2.2 1.6.6.5.3.7.8.7 1.4a2.2 2.2 0 0 1-.8 1.7 6 6 0 0 1-1.2.8v-.3l2.3 2.4h-.3l.5-1.3.2-1.5h1.4c0 .7-.1 1.4-.3 2l-.8 1.7v-.4a4.7 4.7 0 0 0 1.7 1.2l-.5 1.1Zm-4.8-1.3a2.6 2.6 0 0 0 2-1v.4l-2.7-2.8h.7l-.4.2a5 5 0 0 0-.7.6 2 2 0 0 0-.5.6l-.1.7c0 .4.1.7.4 1 .3.2.8.3 1.3.3Zm.3-7c-.3 0-.6 0-.8.2a1 1 0 0 0-.3.8v.4l.4.5.5.6h-.4c.6-.3 1-.5 1.2-.8.3-.2.4-.5.4-.8 0-.3-.1-.6-.3-.7a1 1 0 0 0-.7-.3Zm8.9 3.3v-1.8h1.8v1.8h-1.8Zm0 4.8V277h1.8v1.8h-1.8Zm14.4.2-1.2-.6-1-.8h.4l-1.4 1c-.5.2-1 .3-1.7.3-.6 0-1.2 0-1.7-.3-.5-.2-.9-.5-1.1-.8a2 2 0 0 1-.4-1.3c0-.6.2-1.1.5-1.5.3-.5.8-.9 1.4-1.2l.5-.3-.3.3-.8-1-.3-1.1c0-.5.1-.8.3-1.2.2-.3.5-.5 1-.7.3-.2.8-.3 1.3-.3.7 0 1.2.2 1.6.6.5.3.7.8.7 1.4a2.2 2.2 0 0 1-.8 1.7 6 6 0 0 1-1.2.8v-.3l2.3 2.4h-.3l.5-1.3.2-1.5h1.4c0 .7-.1 1.4-.3 2l-.8 1.7v-.4a4.7 4.7 0 0 0 1.7 1.2l-.5 1.1Zm-4.8-1.3a2.6 2.6 0 0 0 2-1v.4l-2.7-2.8h.7l-.4.2a5 5 0 0 0-.7.6 2 2 0 0 0-.5.6l-.1.7c0 .4.1.7.4 1 .3.2.8.3 1.3.3Zm.3-7c-.3 0-.6 0-.8.2a1 1 0 0 0-.3.8v.4l.4.5.5.6h-.4c.6-.3 1-.5 1.2-.8.3-.2.4-.5.4-.8 0-.3-.1-.6-.3-.7a1 1 0 0 0-.7-.3Zm5.3 8.1 3.8-5v.7l-3.6-4.9h2l2.6 3.7h-.6l2.7-3.7h2l-3.7 4.9v-.7l3.8 5h-2l-2.8-3.8h.6l-2.8 3.8h-2Zm13.4 1.5v-1.7l.3.3c-.7 0-1.2-.1-1.8-.3-.6-.2-1-.4-1.5-.8l.6-1.3a4.9 4.9 0 0 0 2.9 1c.6 0 1.1-.1 1.4-.4.3-.2.5-.5.5-.8 0-.3-.1-.6-.4-.7l-1-.5-1.4-.3a3 3 0 0 1-1.8-.8c-.4-.4-.6-1-.6-1.6 0-.6.2-1 .4-1.4l1-1c.5-.2 1-.4 1.6-.4l-.2.2V268h1.3v1.7l-.3-.2 1.5.3c.5.1.9.4 1.2.7l-.5 1.3c-.3-.3-.7-.6-1.2-.7a4 4 0 0 0-1.3-.2c-.6 0-1 0-1.4.3-.3.3-.5.6-.5 1 0 .3.1.5.3.7l1 .5 1.4.3c.8.1 1.5.4 1.9.8.4.4.6 1 .6 1.6 0 .5-.2 1-.4 1.3l-1 1-1.6.4.3-.3v1.7h-1.3Zm9-1.5V277h1.8v1.8h-1.8Zm72.4 0 3-3.8v.8l-2.8-3.6h1.9l1.9 2.5h-.6l1.9-2.5h1.9l-2.9 3.6v-.8l3 3.8h-1.9l-2-2.6h.6l-2 2.6h-2Zm12.2-4.8v-1.8h1.8v1.8h-1.8Zm0 4.8V277h1.8v1.8h-1.8Zm-347.8 14V291h1.8v1.8h-1.8Zm0 4.8v-1.8h1.8v1.8h-1.8Zm14.4.1-1.2-.5-1-.8h.4l-1.4 1c-.5.2-1 .3-1.7.3s-1.2 0-1.7-.3c-.5-.2-.9-.5-1.1-.8a2 2 0 0 1-.4-1.3c0-.6.2-1.1.5-1.5.3-.5.8-.9 1.4-1.2l.5-.3-.3.3-.8-1-.3-1.1c0-.5.1-.8.3-1.2.2-.3.5-.5 1-.7.3-.2.8-.3 1.3-.3.7 0 1.2.2 1.6.6.5.3.7.8.7 1.4a2.2 2.2 0 0 1-.9 1.7 6 6 0 0 1-1 .8v-.3l2.2 2.4h-.3l.5-1.3.2-1.5H49c0 .7-.1 1.4-.3 2l-.8 1.7v-.4a4.7 4.7 0 0 0 1.7 1.2l-.5 1.1Zm-4.8-1.2a2.6 2.6 0 0 0 2-1v.4l-2.7-2.8h.7l-.4.2a5 5 0 0 0-.7.6 2 2 0 0 0-.5.6l-.1.7c0 .4.1.7.4 1 .3.2.8.3 1.3.3Zm.3-7c-.3 0-.6 0-.8.2a1 1 0 0 0-.3.8v.4l.4.5.5.6H44c.6-.3 1-.5 1.2-.8.3-.2.4-.5.4-.8 0-.3-.1-.6-.3-.7a1 1 0 0 0-.7-.3Zm13.9 8.2-1.2-.5-1-.8h.4l-1.4 1c-.5.2-1 .3-1.7.3s-1.2 0-1.7-.3c-.5-.2-.9-.5-1.1-.8a2 2 0 0 1-.4-1.3c0-.6.2-1.1.5-1.5.3-.5.8-.9 1.4-1.2l.5-.3-.3.3-.8-1-.3-1.1c0-.5.1-.8.3-1.2.2-.3.5-.5 1-.7.3-.2.8-.3 1.3-.3.7 0 1.2.2 1.6.6.5.3.7.8.7 1.4a2.2 2.2 0 0 1-.9 1.7 6 6 0 0 1-1 .8v-.3l2.2 2.4h-.3l.5-1.3.2-1.5h1.4c0 .7-.1 1.4-.3 2l-.8 1.7v-.4a4.7 4.7 0 0 0 1.7 1.2l-.5 1.1Zm-4.8-1.2a2.6 2.6 0 0 0 2-1v.4L53 293h.7l-.4.2a5 5 0 0 0-.7.6 2 2 0 0 0-.5.6l-.1.7c0 .4.1.7.4 1 .3.2.8.3 1.3.3Zm.3-7c-.3 0-.6 0-.8.2a1 1 0 0 0-.3.8v.4l.4.5.5.6h-.4c.6-.3 1-.5 1.2-.8.3-.2.4-.5.4-.8 0-.3-.1-.6-.3-.7a1 1 0 0 0-.7-.3Zm8.9 8.1v-1.8h1.8v1.8h-1.8Zm42.6.1-1.2-.5-1-.8h.4l-1.4 1c-.5.2-1 .3-1.7.3s-1.2 0-1.7-.3c-.5-.2-.9-.5-1.1-.8a2 2 0 0 1-.4-1.3c0-.6.2-1.1.5-1.5.3-.5.8-.9 1.4-1.2l.5-.3-.3.3-.8-1-.3-1.1c0-.5.1-.8.3-1.2.2-.3.5-.5 1-.7.3-.2.8-.3 1.3-.3.7 0 1.2.2 1.6.6.5.3.7.8.7 1.4a2.2 2.2 0 0 1-.9 1.7 6 6 0 0 1-1 .8v-.3l2.2 2.4h-.3l.5-1.3.2-1.5h1.4c0 .7-.1 1.4-.3 2l-.8 1.7v-.4a4.7 4.7 0 0 0 1.7 1.2l-.5 1.1Zm-4.8-1.2a2.6 2.6 0 0 0 2-1v.4L100 293h.7l-.4.2a5 5 0 0 0-.7.6 2 2 0 0 0-.5.6l-.1.7c0 .4.1.7.4 1 .3.2.8.3 1.3.3Zm.3-7c-.3 0-.6 0-.8.2a1 1 0 0 0-.3.8v.4l.4.5.5.6h-.4c.6-.3 1-.5 1.2-.8.3-.2.4-.5.4-.8 0-.3-.1-.6-.3-.7a1 1 0 0 0-.7-.3Zm9.3 9.6v-1.7l.3.3c-.7 0-1.2-.1-1.8-.3-.6-.2-1-.4-1.5-.8l.6-1.3a4.8 4.8 0 0 0 2.9 1c.6 0 1.1-.1 1.4-.4.3-.2.5-.5.5-.8 0-.3-.1-.6-.4-.7l-1-.5-1.4-.3a3 3 0 0 1-1.8-.8c-.4-.4-.6-1-.6-1.6 0-.6.2-1 .4-1.4l1-1c.5-.2 1-.4 1.6-.4l-.2.2v-1.7h1.3v1.7l-.3-.2 1.5.3c.5.1.9.4 1.2.7l-.5 1.3c-.3-.3-.7-.6-1.2-.7a4 4 0 0 0-1.3-.2c-.6 0-1 0-1.4.3-.3.3-.5.6-.5 1 0 .3.1.5.3.7l1 .5 1.4.3c.8.1 1.5.4 1.9.8.4.4.6 1 .6 1.6 0 .5-.2 1-.4 1.3l-1 1-1.6.4.3-.3v1.7h-1.3Zm15.6-1.5 3-3.8v.8L126 291h1.9l1.9 2.5h-.6l1.9-2.5h1.9l-2.9 3.6v-.8l3 3.8h-1.9l-2-2.6h.6l-2 2.6h-2Zm17.2.1-1.2-.5-1-.8h.4l-1.4 1c-.5.2-1 .3-1.7.3s-1.2 0-1.7-.3c-.5-.2-.9-.5-1.1-.8a2 2 0 0 1-.4-1.3c0-.6.2-1.1.5-1.5.3-.5.8-.9 1.4-1.2l.5-.3-.3.3-.8-1-.3-1.1c0-.5.1-.8.3-1.2.2-.3.5-.5 1-.7.3-.2.8-.3 1.3-.3.7 0 1.2.2 1.6.6.5.3.7.8.7 1.4a2.2 2.2 0 0 1-.9 1.7 6 6 0 0 1-1 .8v-.3l2.2 2.4h-.3l.5-1.3.2-1.5h1.4c0 .7-.1 1.4-.3 2l-.8 1.7v-.4a4.6 4.6 0 0 0 1.7 1.2l-.5 1.1Zm-4.8-1.2a2.6 2.6 0 0 0 2-1v.4l-2.7-2.8h.7l-.4.2a5 5 0 0 0-.7.6 2 2 0 0 0-.5.6l-.1.7c0 .4.1.7.4 1 .3.2.8.3 1.3.3Zm.3-7c-.3 0-.6 0-.8.2a1 1 0 0 0-.3.8v.4l.4.5.5.6h-.4c.6-.3 1-.5 1.2-.8.3-.2.4-.5.4-.8 0-.3-.1-.6-.3-.7a1 1 0 0 0-.7-.3Zm13.9 8.2-1.2-.5-1-.8h.4l-1.4 1c-.5.2-1 .3-1.7.3s-1.2 0-1.7-.3c-.5-.2-.9-.5-1.1-.8a2 2 0 0 1-.4-1.3c0-.6.2-1.1.5-1.5.3-.5.8-.9 1.4-1.2l.5-.3-.3.3-.8-1-.3-1.1c0-.5.1-.8.3-1.2.2-.3.5-.5 1-.7.3-.2.8-.3 1.3-.3.7 0 1.2.2 1.6.6.5.3.7.8.7 1.4a2.2 2.2 0 0 1-.8 1.7 6 6 0 0 1-1.2.8v-.3l2.3 2.4h-.3l.5-1.3.2-1.5h1.4c0 .7-.1 1.4-.3 2l-.8 1.7v-.4a4.7 4.7 0 0 0 1.7 1.2l-.5 1.1Zm-4.8-1.2a2.6 2.6 0 0 0 2-1v.4L147 293h.7l-.4.2a5 5 0 0 0-.7.6 2 2 0 0 0-.5.6l-.1.7c0 .4.1.7.4 1 .3.2.8.3 1.3.3Zm.3-7c-.3 0-.6 0-.8.2a1 1 0 0 0-.3.8v.4l.4.5.5.6h-.4c.6-.3 1-.5 1.2-.8.3-.2.4-.5.4-.8 0-.3-.1-.6-.3-.7a1 1 0 0 0-.7-.3Zm9.3 9.6v-1.7l.3.3c-.7 0-1.2-.1-1.8-.3-.6-.2-1-.4-1.5-.8l.6-1.3a4.8 4.8 0 0 0 2.9 1c.6 0 1.1-.1 1.4-.4.3-.2.5-.5.5-.8 0-.3-.1-.6-.4-.7l-1-.5-1.4-.3a3 3 0 0 1-1.8-.8c-.4-.4-.6-1-.6-1.6 0-.6.2-1 .4-1.4l1-1c.5-.2 1-.4 1.6-.4l-.2.2v-1.7h1.3v1.7l-.3-.2 1.5.3c.5.1.9.4 1.2.7l-.5 1.3c-.3-.3-.7-.6-1.2-.7a4 4 0 0 0-1.3-.2c-.6 0-1 0-1.4.3-.3.3-.5.6-.5 1 0 .3.1.5.3.7l1 .5 1.4.3c.8.1 1.5.4 1.9.8.4.4.6 1 .6 1.6 0 .5-.2 1-.4 1.3l-1 1-1.6.4.3-.3v1.7h-1.3Zm9-1.5v-1.8h1.8v1.8h-1.8Zm14.4.1-1.2-.5-1-.8h.4l-1.4 1c-.5.2-1 .3-1.7.3-.6 0-1.2 0-1.7-.3-.5-.2-.9-.5-1.1-.8a2 2 0 0 1-.4-1.3c0-.6.2-1.1.5-1.5.3-.5.8-.9 1.4-1.2l.5-.3-.3.3-.8-1-.3-1.1c0-.5.1-.8.3-1.2.2-.3.5-.5 1-.7.3-.2.8-.3 1.3-.3.7 0 1.2.2 1.6.6.5.3.7.8.7 1.4a2.2 2.2 0 0 1-.8 1.7 6 6 0 0 1-1.2.8v-.3l2.3 2.4h-.3l.5-1.3.2-1.5h1.4c0 .7-.1 1.4-.3 2l-.8 1.7v-.4a4.7 4.7 0 0 0 1.7 1.2l-.5 1.1Zm-4.8-1.2a2.6 2.6 0 0 0 2-1v.4l-2.7-2.8h.7l-.4.2a5 5 0 0 0-.7.6 2 2 0 0 0-.5.6l-.1.7c0 .4.1.7.4 1 .3.2.8.3 1.3.3Zm.3-7c-.3 0-.6 0-.8.2a1 1 0 0 0-.3.8v.4l.4.5.5.6h-.4c.6-.3 1-.5 1.2-.8.3-.2.4-.5.4-.8 0-.3-.1-.6-.3-.7a1 1 0 0 0-.7-.3Zm13.9 8.2-1.2-.5-1-.8h.4l-1.4 1c-.5.2-1 .3-1.7.3s-1.2 0-1.7-.3c-.5-.2-.9-.5-1.1-.8a2 2 0 0 1-.4-1.3c0-.6.2-1.1.5-1.5.3-.5.8-.9 1.4-1.2l.5-.3-.3.3-.8-1-.3-1.1c0-.5.1-.8.3-1.2.2-.3.5-.5 1-.7.3-.2.8-.3 1.3-.3.7 0 1.2.2 1.6.6.5.3.7.8.7 1.4a2.2 2.2 0 0 1-.9 1.7 6 6 0 0 1-1 .8v-.3l2.2 2.4h-.3l.5-1.3.2-1.5h1.4c0 .7-.1 1.4-.3 2l-.8 1.7v-.4a4.6 4.6 0 0 0 1.7 1.2l-.5 1.1Zm-4.8-1.2a2.6 2.6 0 0 0 2-1v.4l-2.7-2.8h.7l-.4.2a5 5 0 0 0-.7.6 2 2 0 0 0-.5.6l-.1.7c0 .4.1.7.4 1 .3.2.8.3 1.3.3Zm.3-7c-.3 0-.6 0-.8.2a1 1 0 0 0-.3.8v.4l.4.5.5.6h-.4c.6-.3 1-.5 1.2-.8.3-.2.4-.5.4-.8 0-.3-.1-.6-.3-.7a1 1 0 0 0-.7-.3Zm8.9 8.1v-1.8h1.8v1.8h-1.8Zm19.2 1.5v-1.7l.3.3c-.7 0-1.2-.1-1.8-.3-.6-.2-1-.4-1.5-.8l.6-1.3a4.8 4.8 0 0 0 2.9 1c.6 0 1.1-.1 1.4-.4.3-.2.5-.5.5-.8 0-.3-.1-.6-.4-.7l-1-.5-1.4-.3a3 3 0 0 1-1.8-.8c-.4-.4-.6-1-.6-1.6 0-.6.2-1 .4-1.4l1-1c.5-.2 1-.4 1.6-.4l-.2.2v-1.7h1.3v1.7l-.3-.2 1.5.3c.5.1.9.4 1.2.7l-.5 1.3c-.3-.3-.7-.6-1.2-.7a4 4 0 0 0-1.3-.2c-.6 0-1 0-1.4.3-.3.3-.5.6-.5 1 0 .3.1.5.3.7l1 .5 1.4.3c.8.1 1.5.4 1.9.8.4.4.6 1 .6 1.6 0 .5-.2 1-.4 1.3l-1 1-1.6.4.3-.3v1.7h-1.3Zm14-1.4-1.2-.5-1-.8h.4l-1.4 1c-.5.2-1 .3-1.7.3-.6 0-1.2 0-1.7-.3-.5-.2-.9-.5-1.1-.8a2 2 0 0 1-.4-1.3c0-.6.2-1.1.5-1.5.3-.5.8-.9 1.4-1.2l.5-.3-.3.3-.8-1-.3-1.1c0-.5.1-.8.3-1.2.2-.3.5-.5 1-.7.3-.2.8-.3 1.3-.3.7 0 1.2.2 1.6.6.5.3.7.8.7 1.4a2.2 2.2 0 0 1-.8 1.7 6 6 0 0 1-1.2.8v-.3l2.3 2.4h-.3l.5-1.3.2-1.5h1.4c0 .7-.1 1.4-.3 2l-.8 1.7v-.4a4.7 4.7 0 0 0 1.7 1.2l-.5 1.1Zm-4.8-1.2a2.6 2.6 0 0 0 2-1v.4l-2.7-2.8h.7l-.4.2a5 5 0 0 0-.7.6 2 2 0 0 0-.5.6l-.1.7c0 .4.1.7.4 1 .3.2.8.3 1.3.3Zm.3-7c-.3 0-.6 0-.8.2a1 1 0 0 0-.3.8v.4l.4.5.5.6h-.4c.6-.3 1-.5 1.2-.8.3-.2.4-.5.4-.8 0-.3-.1-.6-.3-.7a1 1 0 0 0-.7-.3Zm5.3 8.1 3.8-5v.7l-3.6-4.9h2l2.6 3.7h-.6l2.7-3.7h2l-3.7 4.9v-.7l3.8 5h-2l-2.8-3.8h.6l-2.8 3.8h-2Zm13-4.8V291h1.8v1.8h-1.8Zm0 4.8v-1.8h1.8v1.8h-1.8ZM39.6 316.5l-1.2-.5-1-.8h.4l-1.4 1c-.5.2-1 .3-1.7.3s-1.2 0-1.7-.3c-.5-.2-.9-.5-1.1-.8a2 2 0 0 1-.4-1.3c0-.6.2-1.1.5-1.5.3-.5.8-.9 1.4-1.2l.5-.3-.3.3-.8-1-.3-1.1c0-.5.1-.8.3-1.2.2-.3.5-.5 1-.7.3-.2.8-.3 1.3-.3.7 0 1.2.2 1.6.6.5.3.7.8.7 1.4a2.2 2.2 0 0 1-.9 1.7 6 6 0 0 1-1 .8v-.3l2.2 2.4h-.3l.5-1.3.2-1.5h1.4c0 .7-.1 1.4-.3 2l-.8 1.7v-.4a4.7 4.7 0 0 0 1.7 1.2l-.5 1.1Zm-4.8-1.2a2.6 2.6 0 0 0 2-1v.4l-2.7-2.8h.7l-.4.2a5 5 0 0 0-.7.6 2 2 0 0 0-.5.6l-.1.7c0 .4.1.7.4 1 .3.2.8.3 1.3.3Zm.3-7c-.3 0-.6 0-.8.2a1 1 0 0 0-.3.8v.4l.4.5.5.6h-.4c.6-.3 1-.5 1.2-.8.3-.2.4-.5.4-.8 0-.3-.1-.6-.3-.7a1 1 0 0 0-.7-.3Zm13.9 8.2-1.2-.5-1-.8h.4l-1.4 1c-.5.2-1 .3-1.7.3s-1.2 0-1.7-.3c-.5-.2-.9-.5-1.1-.8a2 2 0 0 1-.4-1.3c0-.6.2-1.1.5-1.5.3-.5.8-.9 1.4-1.2l.5-.3-.3.3-.8-1-.3-1.1c0-.5.1-.8.3-1.2.2-.3.5-.5 1-.7.3-.2.8-.3 1.3-.3.7 0 1.2.2 1.6.6.5.3.7.8.7 1.4a2.2 2.2 0 0 1-.9 1.7 6 6 0 0 1-1 .8v-.3l2.2 2.4h-.3l.5-1.3.2-1.5H49c0 .7-.1 1.4-.3 2l-.8 1.7v-.4a4.7 4.7 0 0 0 1.7 1.2l-.5 1.1Zm-4.8-1.2a2.6 2.6 0 0 0 2-1v.4l-2.7-2.8h.7l-.4.2a5 5 0 0 0-.7.6 2 2 0 0 0-.5.6l-.1.7c0 .4.1.7.4 1 .3.2.8.3 1.3.3Zm.3-7c-.3 0-.6 0-.8.2a1 1 0 0 0-.3.8v.4l.4.5.5.6H44c.6-.3 1-.5 1.2-.8.3-.2.4-.5.4-.8 0-.3-.1-.6-.3-.7a1 1 0 0 0-.7-.3Zm8.9 8.1v-1.8h1.8v1.8h-1.8Zm28.2-4.8v-1.8h1.8v1.8h-1.8Zm0 4.8v-1.8h1.8v1.8h-1.8Zm14.4.1-1.2-.5-1-.8h.4l-1.4 1c-.5.2-1 .3-1.7.3s-1.2 0-1.7-.3c-.5-.2-.9-.5-1.1-.8a2 2 0 0 1-.4-1.3c0-.6.2-1.1.5-1.5.3-.5.8-.9 1.4-1.2l.5-.3-.3.3-.8-1-.3-1.1c0-.5.1-.8.3-1.2.2-.3.5-.5 1-.7.3-.2.8-.3 1.3-.3.7 0 1.2.2 1.6.6.5.3.7.8.7 1.4a2.2 2.2 0 0 1-.9 1.7 6 6 0 0 1-1 .8v-.3l2.2 2.4h-.3l.5-1.3.2-1.5H96c0 .7-.1 1.4-.3 2l-.8 1.7v-.4a4.7 4.7 0 0 0 1.7 1.2l-.5 1.1Zm-4.8-1.2a2.6 2.6 0 0 0 2-1v.4l-2.7-2.8h.7l-.4.2a5 5 0 0 0-.7.6 2 2 0 0 0-.5.6l-.1.7c0 .4.1.7.4 1 .3.2.8.3 1.3.3Zm.3-7c-.3 0-.6 0-.8.2a1 1 0 0 0-.3.8v.4l.4.5.5.6H91c.6-.3 1-.5 1.2-.8.3-.2.4-.5.4-.8 0-.3-.1-.6-.3-.7a1 1 0 0 0-.7-.3Zm13.9 8.2-1.2-.5-1-.8h.4l-1.4 1c-.5.2-1 .3-1.7.3s-1.2 0-1.7-.3c-.5-.2-.9-.5-1.1-.8a2 2 0 0 1-.4-1.3c0-.6.2-1.1.5-1.5.3-.5.8-.9 1.4-1.2l.5-.3-.3.3-.8-1-.3-1.1c0-.5.1-.8.3-1.2.2-.3.5-.5 1-.7.3-.2.8-.3 1.3-.3.7 0 1.2.2 1.6.6.5.3.7.8.7 1.4a2.2 2.2 0 0 1-.9 1.7 6 6 0 0 1-1 .8v-.3l2.2 2.4h-.3l.5-1.3.2-1.5h1.4c0 .7-.1 1.4-.3 2l-.8 1.7v-.4a4.7 4.7 0 0 0 1.7 1.2l-.5 1.1Zm-4.8-1.2a2.6 2.6 0 0 0 2-1v.4l-2.7-2.8h.7l-.4.2a5 5 0 0 0-.7.6 2 2 0 0 0-.5.6l-.1.7c0 .4.1.7.4 1 .3.2.8.3 1.3.3Zm.3-7c-.3 0-.6 0-.8.2a1 1 0 0 0-.3.8v.4l.4.5.5.6h-.4c.6-.3 1-.5 1.2-.8.3-.2.4-.5.4-.8 0-.3-.1-.6-.3-.7a1 1 0 0 0-.7-.3Zm8.9 8.1v-1.8h1.8v1.8h-1.8Zm28.2 0v-1.8h1.8v1.8H138Zm9.4 0v-1.8h1.8v1.8h-1.8ZM31 335.2l3.8-5v.7l-3.6-4.9h2l2.6 3.7h-.6L38 326h2l-3.7 4.9v-.7l3.8 5h-2l-2.8-3.8h.6l-2.8 3.8h-2Zm18 .1-1.2-.5-1-.8h.4l-1.4 1c-.5.2-1 .3-1.7.3s-1.2 0-1.7-.3c-.5-.2-.9-.5-1.1-.8a2 2 0 0 1-.4-1.3c0-.6.2-1.1.5-1.5.3-.5.8-.9 1.4-1.2l.5-.3-.3.3-.8-1-.3-1.1c0-.5.1-.8.3-1.2.2-.3.5-.5 1-.7.3-.2.8-.3 1.3-.3.7 0 1.2.2 1.6.6.5.3.7.8.7 1.4a2.2 2.2 0 0 1-.9 1.7 6 6 0 0 1-1 .8v-.3l2.2 2.4h-.3l.5-1.3.2-1.5H49c0 .7-.1 1.4-.3 2l-.8 1.7v-.4a4.7 4.7 0 0 0 1.7 1.2l-.5 1.1Zm-4.8-1.2a2.6 2.6 0 0 0 2-1v.4l-2.7-2.8h.7l-.4.2a5 5 0 0 0-.7.6 2 2 0 0 0-.5.6l-.1.7c0 .4.1.7.4 1 .3.2.8.3 1.3.3Zm.3-7c-.3 0-.6 0-.8.2a1 1 0 0 0-.3.8v.4l.4.5.5.6H44c.6-.3 1-.5 1.2-.8.3-.2.4-.5.4-.8 0-.3-.1-.6-.3-.7a1 1 0 0 0-.7-.3Zm13.9 8.2-1.2-.5-1-.8h.4l-1.4 1c-.5.2-1 .3-1.7.3s-1.2 0-1.7-.3c-.5-.2-.9-.5-1.1-.8a2 2 0 0 1-.4-1.3c0-.6.2-1.1.5-1.5.3-.5.8-.9 1.4-1.2l.5-.3-.3.3-.8-1-.3-1.1c0-.5.1-.8.3-1.2.2-.3.5-.5 1-.7.3-.2.8-.3 1.3-.3.7 0 1.2.2 1.6.6.5.3.7.8.7 1.4a2.2 2.2 0 0 1-.9 1.7 6 6 0 0 1-1 .8v-.3l2.2 2.4h-.3l.5-1.3.2-1.5h1.4c0 .7-.1 1.4-.3 2l-.8 1.7v-.4a4.7 4.7 0 0 0 1.7 1.2l-.5 1.1Zm-4.8-1.2a2.6 2.6 0 0 0 2-1v.4l-2.7-2.8h.7l-.4.2a5 5 0 0 0-.7.6 2 2 0 0 0-.5.6l-.1.7c0 .4.1.7.4 1 .3.2.8.3 1.3.3Zm.3-7c-.3 0-.6 0-.8.2a1 1 0 0 0-.3.8v.4l.4.5.5.6h-.4c.6-.3 1-.5 1.2-.8.3-.2.4-.5.4-.8 0-.3-.1-.6-.3-.7a1 1 0 0 0-.7-.3Zm13.9 8.2-1.2-.5-1-.8h.4l-1.4 1c-.5.2-1 .3-1.7.3s-1.2 0-1.7-.3c-.5-.2-.9-.5-1.1-.8a2 2 0 0 1-.4-1.3c0-.6.2-1.1.5-1.5.3-.5.8-.9 1.4-1.2l.5-.3-.3.3-.8-1-.3-1.1c0-.5.1-.8.3-1.2.2-.3.5-.5 1-.7.3-.2.8-.3 1.3-.3.7 0 1.2.2 1.6.6.5.3.7.8.7 1.4a2.2 2.2 0 0 1-.9 1.7 6 6 0 0 1-1 .8v-.3l2.2 2.4h-.3l.5-1.3.2-1.5h1.4c0 .7-.1 1.4-.3 2l-.8 1.7v-.4a4.7 4.7 0 0 0 1.7 1.2l-.5 1.1Zm-4.8-1.2a2.6 2.6 0 0 0 2-1v.4l-2.7-2.8h.7l-.4.2a5 5 0 0 0-.7.6 2 2 0 0 0-.5.6l-.1.7c0 .4.1.7.4 1 .3.2.8.3 1.3.3Zm.3-7c-.3 0-.6 0-.8.2a1 1 0 0 0-.3.8v.4l.4.5.5.6h-.4c.6-.3 1-.5 1.2-.8.3-.2.4-.5.4-.8 0-.3-.1-.6-.3-.7a1 1 0 0 0-.7-.3Zm13.9 8.2-1.2-.5-1-.8h.4l-1.4 1c-.5.2-1 .3-1.7.3s-1.2 0-1.7-.3c-.5-.2-.9-.5-1.1-.8a2 2 0 0 1-.4-1.3c0-.6.2-1.1.5-1.5.3-.5.8-.9 1.4-1.2l.5-.3-.3.3-.8-1-.3-1.1c0-.5.1-.8.3-1.2.2-.3.5-.5 1-.7.3-.2.8-.3 1.3-.3.7 0 1.2.2 1.6.6.5.3.7.8.7 1.4a2.2 2.2 0 0 1-.9 1.7 6 6 0 0 1-1 .8v-.3l2.2 2.4H75l.5-1.3.2-1.5h1.4c0 .7-.1 1.4-.3 2l-.8 1.7v-.4a4.7 4.7 0 0 0 1.7 1.2l-.5 1.1Zm-4.8-1.2a2.6 2.6 0 0 0 2-1v.4l-2.7-2.8h.7l-.4.2a5 5 0 0 0-.7.6 2 2 0 0 0-.5.6l-.1.7c0 .4.1.7.4 1 .3.2.8.3 1.3.3Zm.3-7c-.3 0-.6 0-.8.2a1 1 0 0 0-.3.8v.4l.4.5.5.6h-.4c.6-.3 1-.5 1.2-.8.3-.2.4-.5.4-.8 0-.3-.1-.6-.3-.7a1 1 0 0 0-.7-.3Zm13.9 8.2-1.2-.5-1-.8h.4l-1.4 1c-.5.2-1 .3-1.7.3s-1.2 0-1.7-.3c-.5-.2-.9-.5-1.1-.8a2 2 0 0 1-.4-1.3c0-.6.2-1.1.5-1.5.3-.5.8-.9 1.4-1.2l.5-.3-.3.3-.8-1-.3-1.1c0-.5.1-.8.3-1.2.2-.3.5-.5 1-.7.3-.2.8-.3 1.3-.3.7 0 1.2.2 1.6.6.5.3.7.8.7 1.4a2.2 2.2 0 0 1-.9 1.7 6 6 0 0 1-1 .8v-.3l2.2 2.4h-.3l.5-1.3.2-1.5h1.4c0 .7-.1 1.4-.3 2l-.8 1.7v-.4a4.7 4.7 0 0 0 1.7 1.2l-.5 1.1Zm-4.8-1.2a2.6 2.6 0 0 0 2-1v.4l-2.7-2.8h.7l-.4.2a5 5 0 0 0-.7.6 2 2 0 0 0-.5.6l-.1.7c0 .4.1.7.4 1 .3.2.8.3 1.3.3Zm.3-7c-.3 0-.6 0-.8.2a1 1 0 0 0-.3.8v.4l.4.5.5.6h-.4c.6-.3 1-.5 1.2-.8.3-.2.4-.5.4-.8 0-.3-.1-.6-.3-.7a1 1 0 0 0-.7-.3Zm9.2 7.6V332h-2.6v-1h2.6v-2.6h1.2v2.6h2.6v1.1h-2.6v2.7h-1.2Z" fill="#000"/></svg>